{
  "asset" : {
    "generator" : "UE Viewer (umodel) build 1612-floxay",
    "version" : "2.0"
  },
  "scene" : 0,
  "scenes" : [
    {
      "nodes" : [ 0 ]
    }
  ],
  "nodes" : [
    {
      "name" : "Rex",
      "mesh" : 0,
      "skin" : 0,
      "children" : [ 1 ]
    },
    {
      "name" : "ROOT_JNT_SKL",
      "children" : [ 2, 3 ],
      "translation" : [ 0, 0, -0 ],
      "rotation" : [ -0.707107, -0, 0, -0.707107 ]
    },
    {
      "name" : "joint2",
      "translation" : [ 0, 0, -0 ],
      "rotation" : [ -0, -0, 0, -1 ]
    },
    {
      "name" : "Cnt_Spine_000_JNT_SKL",
      "children" : [ 4, 46, 57, 68 ],
      "translation" : [ -3.23969e-09, -0.681987, -2.53139 ],
      "rotation" : [ -0.433186, -0.55875, -0.432016, -0.55992 ]
    },
    {
      "name" : "Cnt_Spine_001_JNT_SKL",
      "children" : [ 5, 45 ],
      "translation" : [ 0.50887, -5.68434e-16, 1.48492e-17 ],
      "rotation" : [ 2.71051e-20, -8.13152e-20, -2.20405e-39, -1 ]
    },
    {
      "name" : "Cnt_Spine_002_JNT_SKL",
      "children" : [ 6, 44 ],
      "translation" : [ 0.50887, 0, 1.4988e-17 ],
      "rotation" : [ 2.71051e-20, -8.13152e-20, -2.20405e-39, -1 ]
    },
    {
      "name" : "Cnt_Spine_003_JNT_SKL",
      "children" : [ 7, 43 ],
      "translation" : [ 0.50887, 0, 1.48492e-17 ],
      "rotation" : [ 2.71051e-20, -8.13152e-20, -2.20405e-39, -1 ]
    },
    {
      "name" : "Cnt_Spine_004_JNT_SKL",
      "children" : [ 8, 23, 33 ],
      "translation" : [ 0.50887, 5.68434e-16, 1.42941e-17 ],
      "rotation" : [ 2.71051e-20, -8.13152e-20, -2.20405e-39, -1 ]
    },
    {
      "name" : "Cnt_Neck_001_JNT_SKL",
      "children" : [ 9 ],
      "translation" : [ 0.296176, -0.0711428, -0.00470433 ],
      "rotation" : [ -0.00575335, -0.00355092, 0.260749, -0.965383 ]
    },
    {
      "name" : "Cnt_Neck_002_JNT_SKL",
      "children" : [ 10 ],
      "translation" : [ 0.299525, 1.67982e-06, 4.70661e-09 ],
      "rotation" : [ -0.00025422, 0.000854847, -0.184057, -0.982915 ]
    },
    {
      "name" : "Cnt_Neck_003_JNT_SKL",
      "children" : [ 11 ],
      "translation" : [ 0.305943, -2.05854e-06, -3.68152e-08 ],
      "rotation" : [ -0.000301632, -0.000709252, -0.392874, -0.919592 ]
    },
    {
      "name" : "Cnt_Head_JNT_SKL",
      "children" : [ 12, 17, 18, 19, 20, 21, 22 ],
      "translation" : [ 0.264479, 0, -1.77636e-17 ],
      "rotation" : [ -1.20371e-35, 4.33681e-19, 2.77556e-17, -1 ]
    },
    {
      "name" : "Cnt_Jaw_JNT_SKL",
      "children" : [ 13 ],
      "translation" : [ 0.0562773, -0.108663, -0.00728463 ],
      "rotation" : [ -0.998205, -0.059504, 0.00388153, -0.00549887 ]
    },
    {
      "name" : "Cnt_Tongue_000_JNT_SKL",
      "children" : [ 14 ],
      "translation" : [ 0.388718, -0.340718, 1.36798e-12 ],
      "rotation" : [ 7.19246e-13, 8.26714e-14, 0.0250436, -0.999686 ]
    },
    {
      "name" : "Cnt_Tongue_001_JNT_SKL",
      "children" : [ 15 ],
      "translation" : [ 0.175703, -7.76564e-07, -3.10862e-17 ],
      "rotation" : [ 9.41603e-13, 1.74209e-13, 0.106997, -0.994259 ]
    },
    {
      "name" : "Cnt_Tongue_002_JNT_SKL",
      "children" : [ 16 ],
      "translation" : [ 0.186207, 2.08697e-07, -4.44089e-18 ],
      "rotation" : [ -2.49187e-12, -2.89079e-13, -0.0907982, -0.995869 ]
    },
    {
      "name" : "Cnt_Tongue_003_JNT_SKL",
      "translation" : [ 0.122619, 0, -1.22125e-17 ],
      "rotation" : [ -5.29396e-23, -5.29396e-23, 2.8026e-45, -1 ]
    },
    {
      "name" : "Lft_Eye_JNT_SKL",
      "translation" : [ 0.290965, -0.363783, 0.278782 ],
      "rotation" : [ -0.609515, -0.36761, -0.566678, 0.415007 ]
    },
    {
      "name" : "Rht_Eye_JNT_SKL",
      "translation" : [ 0.286924, -0.370299, -0.290741 ],
      "rotation" : [ -0.364038, 0.600692, -0.419334, -0.575156 ]
    },
    {
      "name" : "r_lowerEye",
      "translation" : [ 0.309323, -0.333163, -0.332188 ],
      "rotation" : [ -0.389894, 0.584241, -0.393847, -0.5929 ]
    },
    {
      "name" : "r_upperEye",
      "translation" : [ 0.288084, -0.416258, -0.324392 ],
      "rotation" : [ -0.389894, 0.584241, -0.393847, -0.5929 ]
    },
    {
      "name" : "l_upperEye",
      "translation" : [ 0.292731, -0.408766, 0.330492 ],
      "rotation" : [ -0.5929, -0.393847, -0.584241, 0.389894 ]
    },
    {
      "name" : "l_lowerEye",
      "translation" : [ 0.314064, -0.325517, 0.336083 ],
      "rotation" : [ -0.5929, -0.393847, -0.584241, 0.389894 ]
    },
    {
      "name" : "Rht_Arm_Clav000_JNT_SKL",
      "children" : [ 24 ],
      "translation" : [ 0.00843607, 0.0282273, -0.272778 ],
      "rotation" : [ 0.0859722, 0.08707, 0.690522, -0.712886 ]
    },
    {
      "name" : "Rht_Arm_001Tear000_JNT_SKL",
      "children" : [ 25 ],
      "translation" : [ -0.363815, 9.46484e-07, 8.32454e-07 ],
      "rotation" : [ 0.138468, 0.00117841, 0.990304, 0.0110566 ]
    },
    {
      "name" : "Rht_Arm_002Tear000_JNT_SKL",
      "children" : [ 26 ],
      "translation" : [ 0.281732, 1.85839e-06, 5.12614e-09 ],
      "rotation" : [ -0.923342, 0.37341, -0.0335429, -0.0829432 ]
    },
    {
      "name" : "Rht_Arm_002Tear006_JNT_SKL",
      "children" : [ 27, 30 ],
      "translation" : [ 0.317011, 0, -0 ],
      "rotation" : [ -1.04083e-17, 3.03577e-18, 5.55111e-17, -1 ]
    },
    {
      "name" : "Rht_IndexFinger_000_CTL_JNT_SKL",
      "children" : [ 28 ],
      "translation" : [ 0.0244248, -0.0025922, -0.0349879 ],
      "rotation" : [ -0.0574, 0.183921, -0.831081, -0.521711 ]
    },
    {
      "name" : "Rht_IndexFinger_001_CTL_JNT_SKL",
      "children" : [ 29 ],
      "translation" : [ -0.0479031, 2.78427e-09, 8.7183e-07 ],
      "rotation" : [ -0.0811893, 0.00123201, 0.130662, -0.988096 ]
    },
    {
      "name" : "Rht_IndexFinger_002_CTL_JNT_SKL",
      "translation" : [ -0.0695521, -1.4325e-07, 6.14663e-07 ],
      "rotation" : [ 0.0246821, 0.00685881, 0.138482, -0.990034 ]
    },
    {
      "name" : "Rht_MiddleFinger_000_CTL_JNT_SKL",
      "children" : [ 31 ],
      "translation" : [ 0.0145997, -0.0197248, 0.0275525 ],
      "rotation" : [ -0.00568023, -0.0977883, 0.899688, 0.425403 ]
    },
    {
      "name" : "Rht_MiddleFinger_001_CTL_JNT_SKL",
      "children" : [ 32 ],
      "translation" : [ -0.0538318, 6.32078e-07, -1.5836e-07 ],
      "rotation" : [ 0.0165857, -0.00343272, 0.202644, -0.979106 ]
    },
    {
      "name" : "Rht_MiddleFinger_002_CTL_JNT_SKL",
      "translation" : [ -0.0495735, -5.56038e-07, -1.39756e-07 ],
      "rotation" : [ 0.00851471, -0.00493235, 0.116126, -0.993186 ]
    },
    {
      "name" : "Lft_Arm_Clav000_JNT_SKL",
      "children" : [ 34 ],
      "translation" : [ 0.00967972, 0.0283848, 0.263271 ],
      "rotation" : [ -0.610225, -0.693952, 0.182935, 0.335545 ]
    },
    {
      "name" : "Lft_Arm_001Tear000_JNT_SKL",
      "children" : [ 35 ],
      "translation" : [ 0.363817, 1.44557e-06, -9.29531e-07 ],
      "rotation" : [ 0.364083, 0.124778, -0.0610414, -0.920949 ]
    },
    {
      "name" : "Lft_Arm_002Tear000_JNT_SKL",
      "children" : [ 36 ],
      "translation" : [ 0.281731, -1.04549e-06, -5.04471e-07 ],
      "rotation" : [ -0.0829432, 0.0335426, -0.37341, -0.923342 ]
    },
    {
      "name" : "Lft_Arm_002Tear006_JNT_SKL",
      "children" : [ 37, 40 ],
      "translation" : [ 0.31701, -5.68434e-16, -1.42109e-16 ],
      "rotation" : [ 1.73472e-18, -8.23994e-18, 2.77556e-17, -1 ]
    },
    {
      "name" : "Lft_IndexFinger_000_CTL_JNT_SKL",
      "children" : [ 38 ],
      "translation" : [ 0.0244235, -0.00259414, 0.0349882 ],
      "rotation" : [ 0.190872, 0.0262575, 0.377388, -0.905791 ]
    },
    {
      "name" : "Lft_IndexFinger_001_CTL_JNT_SKL",
      "children" : [ 39 ],
      "translation" : [ 0.0479056, -5.03141e-07, -1.28978e-06 ],
      "rotation" : [ -0.0798725, 0.0146152, -0.0342124, -0.99611 ]
    },
    {
      "name" : "Lft_IndexFinger_002_CTL_JNT_SKL",
      "translation" : [ 0.0695487, 7.6511e-07, 1.53924e-06 ],
      "rotation" : [ 0.0254753, 0.00269053, -0.0268201, -0.999312 ]
    },
    {
      "name" : "Lft_MiddleFinger_000_CTL_JNT_SKL",
      "children" : [ 41 ],
      "translation" : [ 0.0145998, -0.0197255, -0.0275515 ],
      "rotation" : [ 0.0955097, -0.0217417, 0.271078, -0.95756 ]
    },
    {
      "name" : "Lft_MiddleFinger_001_CTL_JNT_SKL",
      "children" : [ 42 ],
      "translation" : [ 0.0538304, 1.36858e-06, -1.21431e-08 ],
      "rotation" : [ 0.0157917, -0.00612306, 0.0382664, -0.999124 ]
    },
    {
      "name" : "Lft_MiddleFinger_002_CTL_JNT_SKL",
      "translation" : [ 0.0495757, -1.78151e-06, -2.19938e-07 ],
      "rotation" : [ 0.00758397, -0.00627004, -0.0493898, -0.998731 ]
    },
    {
      "name" : "Belly_002_JNT_SKL",
      "translation" : [ 0.0489036, 0.898702, 1.7679e-08 ],
      "rotation" : [ 2.71051e-20, -8.13152e-20, -2.20405e-39, -1 ]
    },
    {
      "name" : "Belly_001_JNT_SKL",
      "translation" : [ 7.77958e-08, 1.14281, 2.24811e-08 ],
      "rotation" : [ 2.71051e-20, -8.13152e-20, -2.20405e-39, -1 ]
    },
    {
      "name" : "Belly_000_JNT_SKL",
      "translation" : [ 8.33998e-08, 1.22514, 2.41005e-08 ],
      "rotation" : [ 2.71051e-20, -8.13152e-20, -2.20405e-39, -1 ]
    },
    {
      "name" : "Lft_Leg_AIk000_JNT_SKL",
      "children" : [ 47 ],
      "translation" : [ 0.388837, -0.400402, 0.378072 ],
      "rotation" : [ -0.284408, -0.943839, 0.0125511, 0.167699 ]
    },
    {
      "name" : "Lft_Leg_001Linear000_JNT_SKL",
      "children" : [ 48 ],
      "translation" : [ 0.455665, -6.2725e-07, 1.73092e-06 ],
      "rotation" : [ 0.138265, 0.0938067, -0.564566, -0.808299 ]
    },
    {
      "name" : "Lft_Leg_002Linear000_JNT_SKL",
      "children" : [ 49 ],
      "translation" : [ 1.36429, 1.63428e-06, -2.65588e-07 ],
      "rotation" : [ -2.54492e-07, 3.00042e-07, 0.456287, -0.889833 ]
    },
    {
      "name" : "Lft_Leg_003Linear000_JNT_SKL",
      "children" : [ 50 ],
      "translation" : [ 0.882095, -1.50661e-06, -2.04355e-08 ],
      "rotation" : [ -1.37754e-05, -5.78669e-06, -0.375459, -0.926839 ]
    },
    {
      "name" : "Lft_Leg_AIk004_JNT_SKL",
      "children" : [ 51, 53, 55 ],
      "translation" : [ 0.498216, 1.71985e-07, 1.44344e-09 ],
      "rotation" : [ 1.38732e-05, -5.84895e-06, -0.388624, -0.921396 ]
    },
    {
      "name" : "Lft_Little_Toe_000_JNT_SKL",
      "children" : [ 52 ],
      "translation" : [ 0.187071, -0.0602003, -0.187152 ],
      "rotation" : [ 0.0562423, -0.238908, -0.222141, -0.943617 ]
    },
    {
      "name" : "Lft_Little_Toe_001_JNT_SKL",
      "translation" : [ 0.191473, 0, -1.42109e-16 ],
      "rotation" : [ -0, -5.11469e-18, 0, -1 ]
    },
    {
      "name" : "Lft_Middle_Toe_000_JNT_SKL",
      "children" : [ 54 ],
      "translation" : [ 0.229214, -0.0391936, 0.00515809 ],
      "rotation" : [ 0.00463502, -0.0196886, -0.229104, -0.973192 ]
    },
    {
      "name" : "Lft_Middle_Toe_001_JNT_SKL",
      "translation" : [ 0.254193, -1.77636e-17, -0 ],
      "rotation" : [ 2.64698e-23, 2.6748e-18, 7.0802e-41, -1 ]
    },
    {
      "name" : "Lft_Big_Toe_000_JNT_SKL",
      "children" : [ 56 ],
      "translation" : [ 0.215299, -0.0461297, 0.183405 ],
      "rotation" : [ -0.0597627, 0.253861, -0.22122, -0.939704 ]
    },
    {
      "name" : "Lft_Big_Toe_001_JNT_SKL",
      "translation" : [ 0.211089, -3.55271e-17, -0 ],
      "rotation" : [ 1.42415e-40, -4.30424e-17, 3.30872e-24, -1 ]
    },
    {
      "name" : "Rht_Leg_AIk000_JNT_SKL",
      "children" : [ 58 ],
      "translation" : [ 0.387078, -0.400628, -0.379633 ],
      "rotation" : [ -0.284387, -0.944229, -0.0116112, -0.165593 ]
    },
    {
      "name" : "Rht_Leg_001Linear000_JNT_SKL",
      "children" : [ 59 ],
      "translation" : [ 0.455666, 2.69325e-07, 1.97144e-08 ],
      "rotation" : [ -0.138266, -0.0938045, -0.564573, -0.808295 ]
    },
    {
      "name" : "Rht_Leg_002Linear000_JNT_SKL",
      "children" : [ 60 ],
      "translation" : [ 1.36429, -2.14192e-05, -2.04001e-06 ],
      "rotation" : [ -0.889828, 0.456294, 0.000414129, -0.000803853 ]
    },
    {
      "name" : "Rht_Leg_003Linear000_JNT_SKL",
      "children" : [ 61 ],
      "translation" : [ 0.882095, 2.78974e-06, 7.14458e-08 ],
      "rotation" : [ 0.654777, -0.265733, 0.265251, -0.655969 ]
    },
    {
      "name" : "Rht_Leg_AIk004_JNT_SKL",
      "children" : [ 62, 64, 66 ],
      "translation" : [ 0.498217, -3.267e-06, 2.49921e-06 ],
      "rotation" : [ 0.651529, -0.2748, -0.274793, -0.651524 ]
    },
    {
      "name" : "Rht_Little_Toe_000_JNT_SKL",
      "children" : [ 63 ],
      "translation" : [ 0.18707, -0.0602001, 0.187152 ],
      "rotation" : [ -0.0562423, 0.238908, -0.222141, -0.943617 ]
    },
    {
      "name" : "Rht_Little_Toe_001_JNT_SKL",
      "translation" : [ 0.191473, -1.77635e-17, -0 ],
      "rotation" : [ -1.50851e-40, 2.8495e-18, 5.29396e-23, -1 ]
    },
    {
      "name" : "Rht_Middle_Toe_000_JNT_SKL",
      "children" : [ 65 ],
      "translation" : [ 0.229214, -0.0391935, -0.00515802 ],
      "rotation" : [ -0.00463495, 0.0196887, -0.229103, -0.973192 ]
    },
    {
      "name" : "Rht_Middle_Toe_001_JNT_SKL",
      "translation" : [ 0.254193, 0, -7.10543e-17 ],
      "rotation" : [ -4.38887e-42, -1.65818e-19, -2.64698e-23, -1 ]
    },
    {
      "name" : "Rht_Big_Toe_000_JNT_SKL",
      "children" : [ 67 ],
      "translation" : [ 0.215299, -0.0461296, -0.183406 ],
      "rotation" : [ 0.0597626, -0.253861, -0.22122, -0.939705 ]
    },
    {
      "name" : "Rht_Big_Toe_001_JNT_SKL",
      "translation" : [ 0.211089, 0, 3.55272e-17 ],
      "rotation" : [ 5.64405e-40, 2.13226e-17, -2.64698e-23, -1 ]
    },
    {
      "name" : "Cnt_Tail_000_JNT_SKL",
      "children" : [ 69 ],
      "translation" : [ -0.376657, 0.00314812, 0.000873165 ],
      "rotation" : [ 0.0415201, -0.999137, 9.99315e-05, 0.00116554 ]
    },
    {
      "name" : "Cnt_Tail_001_JNT_SKL",
      "children" : [ 70 ],
      "translation" : [ 0.647125, 7.11399e-07, -6.80743e-18 ],
      "rotation" : [ 4.35793e-11, -3.34874e-12, 0.0831747, -0.996535 ]
    },
    {
      "name" : "Cnt_Tail_002_JNT_SKL",
      "children" : [ 71 ],
      "translation" : [ 0.651009, -2.32243e-08, -1.27987e-16 ],
      "rotation" : [ -4.15237e-11, -1.33391e-12, 0.0314209, -0.999506 ]
    },
    {
      "name" : "Cnt_Tail_003_JNT_SKL",
      "children" : [ 72 ],
      "translation" : [ 0.64623, -8.68807e-07, 2.73772e-17 ],
      "rotation" : [ -1.95763e-12, 2.30136e-14, 0.0217906, -0.999763 ]
    },
    {
      "name" : "Cnt_Tail_004_JNT_SKL",
      "children" : [ 73 ],
      "translation" : [ 0.647656, 6.25277e-07, -6.22996e-17 ],
      "rotation" : [ 5.21481e-13, -4.86742e-15, -0.00193077, -0.999998 ]
    },
    {
      "name" : "Cnt_Tail_005_JNT_SKL",
      "children" : [ 74 ],
      "translation" : [ 0.647208, -1.03408e-06, 2.00683e-17 ],
      "rotation" : [ -1.04107e-12, -1.43133e-14, -0.00476484, -0.999989 ]
    },
    {
      "name" : "Cnt_Tail_006_JNT_SKL",
      "children" : [ 75 ],
      "translation" : [ 0.647336, 1.23576e-06, -1.94674e-17 ],
      "rotation" : [ 3.0372e-12, -6.01007e-16, -0.00062353, -1 ]
    },
    {
      "name" : "Cnt_Tail_007_JNT_SKL",
      "translation" : [ 0.647293, -2.02914e-08, -5.4228e-17 ],
      "rotation" : [ 3.53285e-13, -7.46099e-17, 3.46302e-05, -1 ]
    }
  ],
  "skins" : [
    {
      "inverseBindMatrices" : 0,
      "skeleton" : 1,
      "joints" : [
        1,2,3,4,5,6,7,8,9,10,11,12,13,14,15,16,17,18,19,20,21,22,23,24,25,26,27,28,29,30,31,32,
        33,34,35,36,37,38,39,40,41,42,43,44,45,46,47,48,49,50,51,52,53,54,55,56,57,58,59,60,61,62,63,64,
        65,66,67,68,69,70,71,72,73,74,75
      ]
    }
  ],
  "materials" : [
    {
      "name" : "dummy_material_0",
      "pbrMetallicRoughness" : {
        "baseColorFactor" : [ 0.3, 0.3, 0.3, 1.0 ],
        "metallicFactor" : 0.1,
        "roughnessFactor" : 0.5
      }
    },
    {
      "name" : "dummy_material_1",
      "pbrMetallicRoughness" : {
        "baseColorFactor" : [ 0.9, 0.3, 0.3, 1.0 ],
        "metallicFactor" : 0.1,
        "roughnessFactor" : 0.5
      }
    }
  ],
  "meshes" : [
    {
      "primitives" : [
        {
          "attributes" : {
            "POSITION" : 2,
            "NORMAL" : 3,
            "TANGENT" : 4,
            "COLOR_0" : 5,
            "JOINTS_0" : 6,
            "WEIGHTS_0" : 7,
            "TEXCOORD_0" : 8,
            "TEXCOORD_1" : 9
          },
          "indices" : 1,
          "material" : 0
        },
        {
          "attributes" : {
            "POSITION" : 11,
            "NORMAL" : 12,
            "TANGENT" : 13,
            "COLOR_0" : 14,
            "JOINTS_0" : 15,
            "WEIGHTS_0" : 16,
            "TEXCOORD_0" : 17,
            "TEXCOORD_1" : 18
          },
          "indices" : 10,
          "material" : 1
        }
      ],
      "name" : "Rex"
    }
  ],
  "buffers" : [
    {
      "uri" : "Rex.bin",
      "byteLength" : 1434768
    }
  ],
  "bufferViews" : [
    {
      "buffer" : 0,
      "byteOffset" : 0,
      "byteLength" : 4800
    },
    {
      "buffer" : 0,
      "byteOffset" : 4800,
      "byteLength" : 94140
    },
    {
      "buffer" : 0,
      "byteOffset" : 98940,
      "byteLength" : 107760
    },
    {
      "buffer" : 0,
      "byteOffset" : 206700,
      "byteLength" : 107760
    },
    {
      "buffer" : 0,
      "byteOffset" : 314460,
      "byteLength" : 143680
    },
    {
      "buffer" : 0,
      "byteOffset" : 458140,
      "byteLength" : 35920
    },
    {
      "buffer" : 0,
      "byteOffset" : 494060,
      "byteLength" : 71840
    },
    {
      "buffer" : 0,
      "byteOffset" : 565900,
      "byteLength" : 35920
    },
    {
      "buffer" : 0,
      "byteOffset" : 601820,
      "byteLength" : 71840
    },
    {
      "buffer" : 0,
      "byteOffset" : 673660,
      "byteLength" : 71840
    },
    {
      "buffer" : 0,
      "byteOffset" : 745500,
      "byteLength" : 85620
    },
    {
      "buffer" : 0,
      "byteOffset" : 831120,
      "byteLength" : 100608
    },
    {
      "buffer" : 0,
      "byteOffset" : 931728,
      "byteLength" : 100608
    },
    {
      "buffer" : 0,
      "byteOffset" : 1032336,
      "byteLength" : 134144
    },
    {
      "buffer" : 0,
      "byteOffset" : 1166480,
      "byteLength" : 33536
    },
    {
      "buffer" : 0,
      "byteOffset" : 1200016,
      "byteLength" : 67072
    },
    {
      "buffer" : 0,
      "byteOffset" : 1267088,
      "byteLength" : 33536
    },
    {
      "buffer" : 0,
      "byteOffset" : 1300624,
      "byteLength" : 67072
    },
    {
      "buffer" : 0,
      "byteOffset" : 1367696,
      "byteLength" : 67072
    }
  ],
  "accessors" : [
    {
      "bufferView" : 0,
      "componentType" : 5126,
      "count" : 75,
      "type" : "MAT4"
    },
    {
      "bufferView" : 1,
      "componentType" : 5123,
      "count" : 47070,
      "type" : "SCALAR"
    },
    {
      "bufferView" : 2,
      "min" : [ -0.92135, -0.0170583, -6.20244 ],
      "max" : [ 0.92135, 4.10577, 2.04702 ],
      "componentType" : 5126,
      "count" : 8980,
      "type" : "VEC3"
    },
    {
      "bufferView" : 3,
      "componentType" : 5126,
      "count" : 8980,
      "type" : "VEC3"
    },
    {
      "bufferView" : 4,
      "componentType" : 5126,
      "count" : 8980,
      "type" : "VEC4"
    },
    {
      "bufferView" : 5,
      "normalized" : true,
      "componentType" : 5121,
      "count" : 8980,
      "type" : "VEC4"
    },
    {
      "bufferView" : 6,
      "componentType" : 5123,
      "count" : 8980,
      "type" : "VEC4"
    },
    {
      "bufferView" : 7,
      "normalized" : true,
      "componentType" : 5121,
      "count" : 8980,
      "type" : "VEC4"
    },
    {
      "bufferView" : 8,
      "componentType" : 5126,
      "count" : 8980,
      "type" : "VEC2"
    },
    {
      "bufferView" : 9,
      "componentType" : 5126,
      "count" : 8980,
      "type" : "VEC2"
    },
    {
      "bufferView" : 10,
      "componentType" : 5123,
      "count" : 42810,
      "type" : "SCALAR"
    },
    {
      "bufferView" : 11,
      "min" : [ -0.458178, 2.34337, 1.92181 ],
      "max" : [ 0.458178, 4.1185, 3.5569 ],
      "componentType" : 5126,
      "count" : 8384,
      "type" : "VEC3"
    },
    {
      "bufferView" : 12,
      "componentType" : 5126,
      "count" : 8384,
      "type" : "VEC3"
    },
    {
      "bufferView" : 13,
      "componentType" : 5126,
      "count" : 8384,
      "type" : "VEC4"
    },
    {
      "bufferView" : 14,
      "normalized" : true,
      "componentType" : 5121,
      "count" : 8384,
      "type" : "VEC4"
    },
    {
      "bufferView" : 15,
      "componentType" : 5123,
      "count" : 8384,
      "type" : "VEC4"
    },
    {
      "bufferView" : 16,
      "normalized" : true,
      "componentType" : 5121,
      "count" : 8384,
      "type" : "VEC4"
    },
    {
      "bufferView" : 17,
      "componentType" : 5126,
      "count" : 8384,
      "type" : "VEC2"
    },
    {
      "bufferView" : 18,
      "componentType" : 5126,
      "count" : 8384,
      "type" : "VEC2"
    }
  ]
}
