{
  "asset" : {
    "generator" : "UE Viewer (umodel) build 1612-floxay",
    "version" : "2.0"
  },
  "scene" : 0,
  "scenes" : [
    {
      "nodes" : [ 0 ]
    }
  ],
  "nodes" : [
    {
      "name" : "Kaprosuchus",
      "mesh" : 0,
      "skin" : 0,
      "children" : [ 1 ]
    },
    {
      "name" : "root",
      "children" : [ 2 ],
      "translation" : [ 0, 0, -0 ],
      "rotation" : [ -0.707107, -0, 0, -0.707107 ]
    },
    {
      "name" : "c_back1",
      "children" : [ 3, 44, 53, 66 ],
      "translation" : [ -2.84217e-18, -0.374374, -1.1838 ],
      "rotation" : [ -0.0739513, 0.0739513, -0.703229, -0.703229 ]
    },
    {
      "name" : "c_back2",
      "children" : [ 4 ],
      "translation" : [ 0.313681, -6.80991e-17, -4.26326e-16 ],
      "rotation" : [ 6.16298e-33, -0, 1.30963e-32, -1 ]
    },
    {
      "name" : "c_back3",
      "children" : [ 5 ],
      "translation" : [ 0.313681, -6.20023e-17, -1.42109e-16 ],
      "rotation" : [ 3.08252e-33, -0.000134119, 7.70331e-33, -1 ]
    },
    {
      "name" : "c_back4",
      "children" : [ 6, 18, 31 ],
      "translation" : [ 0.313681, -4.37098e-17, -1.42109e-16 ],
      "rotation" : [ -9.24383e-33, -0.000411933, 1.54455e-33, -1 ]
    },
    {
      "name" : "c_neck1",
      "children" : [ 7 ],
      "translation" : [ 0.42432, -5.35129e-17, -7.68816e-05 ],
      "rotation" : [ -3.09399e-33, -0.0383312, -2.66786e-34, -0.999265 ]
    },
    {
      "name" : "c_neck2",
      "children" : [ 8 ],
      "translation" : [ 0.250656, -4.51669e-17, -0 ],
      "rotation" : [ -3.86642e-33, -0.0329379, -2.37671e-32, -0.999457 ]
    },
    {
      "name" : "c_neck3",
      "children" : [ 9, 14, 15, 16, 17 ],
      "translation" : [ 0.234696, -9.17746e-18, -1.42109e-16 ],
      "rotation" : [ -7.4752e-34, -0.0329379, -2.26825e-32, -0.999457 ]
    },
    {
      "name" : "c_jaw",
      "children" : [ 10 ],
      "translation" : [ -0.054813, 3.45062e-16, 0.0721615 ],
      "rotation" : [ 1.12e-32, 0.314895, -4.40076e-33, -0.949126 ]
    },
    {
      "name" : "c_tongue1",
      "children" : [ 11 ],
      "translation" : [ 0.214645, 1.58231e-17, 0.0313215 ],
      "rotation" : [ -4.52274e-33, -0.23795, -3.14113e-32, -0.971277 ]
    },
    {
      "name" : "c_tongue2",
      "children" : [ 12 ],
      "translation" : [ 0.107715, 3.25111e-17, -1.42109e-16 ],
      "rotation" : [ -8.10233e-33, 0.213124, -2.06911e-32, -0.977025 ]
    },
    {
      "name" : "c_tongue3",
      "children" : [ 13 ],
      "translation" : [ 0.0957562, 1.70258e-17, 2.84217e-16 ],
      "rotation" : [ -2.7234e-32, 0.0264863, -1.9217e-32, -0.999649 ]
    },
    {
      "name" : "c_tongue4",
      "translation" : [ 0.087989, 1.16292e-17, -5.68434e-16 ],
      "rotation" : [ 3.08149e-33, 0, -1.07852e-32, -1 ]
    },
    {
      "name" : "r_upperEye",
      "translation" : [ 0.230048, 0.119404, -0.0866821 ],
      "rotation" : [ 0.707032, -0.707179, -0.00128854, -0.00143707 ]
    },
    {
      "name" : "r_lowerEye",
      "translation" : [ 0.222211, 0.127605, -0.065898 ],
      "rotation" : [ 0.707032, -0.707179, -0.00128854, -0.00143707 ]
    },
    {
      "name" : "l_upperEye",
      "translation" : [ 0.230048, -0.119404, -0.0866821 ],
      "rotation" : [ 0.00128854, 0.00143707, 0.707032, -0.707179 ]
    },
    {
      "name" : "l_lowerEye",
      "translation" : [ 0.222211, -0.127605, -0.065898 ],
      "rotation" : [ 0.00128854, 0.00143707, 0.707032, -0.707179 ]
    },
    {
      "name" : "l_shoulder",
      "children" : [ 19 ],
      "translation" : [ 0.326772, -0.220242, 0.0889112 ],
      "rotation" : [ 0.607936, 0.0536046, 0.75984, -0.224018 ]
    },
    {
      "name" : "l_eblow",
      "children" : [ 20 ],
      "translation" : [ 0.353647, 1.42109e-16, -7.10543e-17 ],
      "rotation" : [ 6.26955e-17, 0.341512, 1.53982e-17, -0.939877 ]
    },
    {
      "name" : "l_wrist",
      "children" : [ 21, 23, 25, 27, 29 ],
      "translation" : [ 0.453421, 4.26326e-16, -0 ],
      "rotation" : [ 0.262604, -0.836843, 0.240486, -0.415811 ]
    },
    {
      "name" : "l_fingerB11",
      "children" : [ 22 ],
      "translation" : [ -0.0714835, -0.0519586, 0.016545 ],
      "rotation" : [ 0.291157, -0.95185, 0.000312702, -0.0959628 ]
    },
    {
      "name" : "l_fingerB12",
      "translation" : [ 0.0918285, 1.42109e-16, -8.88178e-17 ],
      "rotation" : [ -1.73472e-18, -1.38778e-17, 1.43115e-17, -1 ]
    },
    {
      "name" : "l_fingerA11",
      "children" : [ 24 ],
      "translation" : [ -0.0309441, -0.0821555, 0.0197643 ],
      "rotation" : [ 0.459791, -0.883385, 0.0621857, -0.0659955 ]
    },
    {
      "name" : "l_fingerA12",
      "translation" : [ 0.0604036, 1.42109e-16, -7.10543e-17 ],
      "rotation" : [ 1.12757e-17, 4.30325e-34, -3.81639e-17, -1 ]
    },
    {
      "name" : "l_fingerD11",
      "children" : [ 26 ],
      "translation" : [ -0.084471, 0.0277679, 0.020433 ],
      "rotation" : [ -0.0645288, -0.986977, -0.103706, -0.104679 ]
    },
    {
      "name" : "l_fingerD12",
      "translation" : [ 0.0974341, 2.84217e-16, 1.77636e-17 ],
      "rotation" : [ -3.46945e-18, 6.54515e-35, 1.88651e-17, -1 ]
    },
    {
      "name" : "l_fingerC11",
      "children" : [ 28 ],
      "translation" : [ -0.0819421, -0.0137764, 0.0182266 ],
      "rotation" : [ 0.107757, -0.985955, -0.0644141, -0.110145 ]
    },
    {
      "name" : "l_fingerC12",
      "translation" : [ 0.129756, 3.55271e-16, -1.59872e-16 ],
      "rotation" : [ -0, -0, -4.44523e-18, -1 ]
    },
    {
      "name" : "l_fingerE11",
      "children" : [ 30 ],
      "translation" : [ -0.0699072, 0.0619184, 0.0262336 ],
      "rotation" : [ -0.227363, -0.95926, -0.163942, -0.035343 ]
    },
    {
      "name" : "l_fingerE12",
      "translation" : [ 0.0814836, 4.26326e-16, -3.55271e-17 ],
      "rotation" : [ 1.04083e-17, 1.38778e-17, -4.68375e-17, -1 ]
    },
    {
      "name" : "r_shoulder",
      "children" : [ 32 ],
      "translation" : [ 0.326773, 0.22024, 0.0889124 ],
      "rotation" : [ -0.759889, 0.224027, 0.60787, 0.0536103 ]
    },
    {
      "name" : "r_eblow",
      "children" : [ 33 ],
      "translation" : [ -0.353647, 6.89041e-07, 2.20751e-06 ],
      "rotation" : [ -1.39753e-08, 0.341568, -5.17078e-09, -0.939857 ]
    },
    {
      "name" : "r_wrist",
      "children" : [ 34, 36, 38, 40, 42 ],
      "translation" : [ -0.45342, 1.40863e-06, 6.91138e-07 ],
      "rotation" : [ 0.251887, -0.82962, 0.252554, -0.429535 ]
    },
    {
      "name" : "r_fingerB11",
      "children" : [ 35 ],
      "translation" : [ 0.0712675, 0.0516775, -0.0186233 ],
      "rotation" : [ 0.282835, -0.955905, 0.0186795, -0.0768087 ]
    },
    {
      "name" : "r_fingerB12",
      "translation" : [ -0.0918299, 1.50789e-06, -1.04523e-08 ],
      "rotation" : [ -5.20417e-18, 2.93403e-35, 5.63785e-18, -1 ]
    },
    {
      "name" : "r_fingerA11",
      "children" : [ 37 ],
      "translation" : [ 0.0306593, 0.0817779, -0.021878 ],
      "rotation" : [ 0.451826, -0.887295, 0.0827457, -0.0413984 ]
    },
    {
      "name" : "r_fingerA12",
      "translation" : [ -0.060402, -9.1369e-07, 6.75857e-09 ],
      "rotation" : [ 8.67362e-18, 2.77556e-17, -2.94903e-17, -1 ]
    },
    {
      "name" : "r_fingerD11",
      "children" : [ 39 ],
      "translation" : [ 0.0842695, -0.0281039, -0.0210702 ],
      "rotation" : [ -0.0741298, -0.989249, -0.0784604, -0.098671 ]
    },
    {
      "name" : "r_fingerD12",
      "translation" : [ -0.0974317, 6.12598e-07, -4.17536e-09 ],
      "rotation" : [ -1.49012e-08, -5.58993e-25, -3.75134e-17, -1 ]
    },
    {
      "name" : "r_fingerC11",
      "children" : [ 41 ],
      "translation" : [ 0.0819453, 0.013776, -0.0182263 ],
      "rotation" : [ 0.0986967, -0.989757, -0.0408984, -0.0946946 ]
    },
    {
      "name" : "r_fingerC12",
      "translation" : [ -0.125954, -1.46777e-06, 9.66275e-09 ],
      "rotation" : [ -1.666e-08, -6.93889e-18, -7.09475e-18, -1 ]
    },
    {
      "name" : "r_fingerE11",
      "children" : [ 43 ],
      "translation" : [ 0.069655, -0.0623744, -0.0259646 ],
      "rotation" : [ -0.23976, -0.963425, -0.116321, -0.0282282 ]
    },
    {
      "name" : "r_fingerE12",
      "translation" : [ -0.0814842, 1.69936e-06, -1.28854e-08 ],
      "rotation" : [ -1.666e-08, 1.38778e-17, 1.63172e-17, -1 ]
    },
    {
      "name" : "c_tail1",
      "children" : [ 45 ],
      "translation" : [ -0.250064, -6.42387e-17, 0.0219465 ],
      "rotation" : [ 0.0805842, 3.82077e-17, 0.996748, -2.87264e-16 ]
    },
    {
      "name" : "c_tail2",
      "children" : [ 46 ],
      "translation" : [ 0.576466, -2.53069e-16, 4.26326e-16 ],
      "rotation" : [ -6.0001e-33, 0.00630628, -2.58458e-32, -0.99998 ]
    },
    {
      "name" : "c_tail3",
      "children" : [ 47 ],
      "translation" : [ 0.547589, -2.4333e-16, -7.10543e-16 ],
      "rotation" : [ -9.80073e-36, 0.000584923, 1.67556e-32, -1 ]
    },
    {
      "name" : "c_tail4",
      "children" : [ 48 ],
      "translation" : [ 0.513038, -2.14137e-16, 1.42109e-16 ],
      "rotation" : [ -6.36842e-33, -0.00541732, -3.79069e-32, -0.999985 ]
    },
    {
      "name" : "c_tail5",
      "children" : [ 49 ],
      "translation" : [ 0.47389, -1.95053e-16, 6.96332e-15 ],
      "rotation" : [ 6.47888e-33, -0.0167833, 1.8768e-32, -0.999859 ]
    },
    {
      "name" : "c_tail6",
      "children" : [ 50 ],
      "translation" : [ 0.422956, -1.42143e-16, -2.84217e-16 ],
      "rotation" : [ -5.29075e-33, -0.0282258, 3.09766e-32, -0.999602 ]
    },
    {
      "name" : "c_tail7",
      "children" : [ 51 ],
      "translation" : [ 0.388857, -1.47013e-16, -2.13163e-15 ],
      "rotation" : [ 1.97314e-34, -0.0232844, 8.47179e-33, -0.999729 ]
    },
    {
      "name" : "c_tail8",
      "children" : [ 52 ],
      "translation" : [ 0.349226, -1.08016e-16, 1.84741e-15 ],
      "rotation" : [ -6.12911e-33, -0.0108721, 3.14831e-33, -0.999941 ]
    },
    {
      "name" : "c_tail9",
      "translation" : [ 0.275506, -4.93055e-17, -8.52651e-16 ],
      "rotation" : [ 2.59862e-32, -0.0838527, 1.48214e-32, -0.996478 ]
    },
    {
      "name" : "l_leg",
      "children" : [ 54 ],
      "translation" : [ -0.0138409, -0.209, -0.00163416 ],
      "rotation" : [ 0.0300578, 0.474306, 0.0964101, -0.874548 ]
    },
    {
      "name" : "l_knee",
      "children" : [ 55 ],
      "translation" : [ 0.486002, 2.13163e-16, 2.13163e-16 ],
      "rotation" : [ 9.7026e-18, 0.361957, 3.76737e-18, -0.932195 ]
    },
    {
      "name" : "l_ankle",
      "children" : [ 56, 58, 60, 62, 64 ],
      "translation" : [ 0.531278, -6.39488e-16, 2.84217e-16 ],
      "rotation" : [ 0.0343523, -0.883828, -0.0257277, 0.46584 ]
    },
    {
      "name" : "l_toeB11",
      "children" : [ 57 ],
      "translation" : [ -0.264001, 0.036601, 0.019594 ],
      "rotation" : [ -0.109796, -0.888913, 0.0511172, 0.441775 ]
    },
    {
      "name" : "l_toeB12",
      "translation" : [ 0.0953421, -1.77636e-16, -5.77316e-17 ],
      "rotation" : [ 4.33681e-19, -3.47065e-36, 8.00277e-18, -1 ]
    },
    {
      "name" : "l_toeA11",
      "children" : [ 59 ],
      "translation" : [ -0.265652, 0.0669425, 0.0141909 ],
      "rotation" : [ -0.199906, -0.868272, 0.0996552, 0.442956 ]
    },
    {
      "name" : "l_toeA12",
      "translation" : [ 0.0424208, -8.88178e-17, 3.9968e-17 ],
      "rotation" : [ -1.23328e-18, -7.99282e-35, -6.48094e-17, -1 ]
    },
    {
      "name" : "l_toeC11",
      "children" : [ 61 ],
      "translation" : [ -0.271727, 0.000669136, 0.0224083 ],
      "rotation" : [ -0.0157589, -0.891636, -0.00107367, 0.452478 ]
    },
    {
      "name" : "l_toeC12",
      "translation" : [ 0.0824306, 0, -2.66454e-17 ],
      "rotation" : [ 6.09864e-20, -1.73472e-18, 2.74206e-18, -1 ]
    },
    {
      "name" : "l_toeD11",
      "children" : [ 63 ],
      "translation" : [ -0.266689, -0.028097, 0.0151669 ],
      "rotation" : [ 0.161029, -0.879324, -0.0951312, 0.43796 ]
    },
    {
      "name" : "l_toeD12",
      "translation" : [ 0.0653065, 0, -8.88178e-17 ],
      "rotation" : [ 3.329e-35, -3.46945e-18, 9.59519e-18, -1 ]
    },
    {
      "name" : "l_toeE11",
      "children" : [ 65 ],
      "translation" : [ -0.255497, -0.0566108, -0.0031965 ],
      "rotation" : [ 0.274194, -0.849864, -0.156986, 0.421786 ]
    },
    {
      "name" : "l_toeE12",
      "translation" : [ 0.0451776, 2.13163e-16, -4.88498e-17 ],
      "rotation" : [ -8.67362e-19, -3.54294e-35, -4.08473e-17, -1 ]
    },
    {
      "name" : "r_leg",
      "children" : [ 67 ],
      "translation" : [ -0.0138392, 0.209, -0.00163559 ],
      "rotation" : [ 0.0963532, -0.873214, -0.0306091, -0.476734 ]
    },
    {
      "name" : "r_knee",
      "children" : [ 68 ],
      "translation" : [ -0.486001, 1.90429e-06, -6.77559e-07 ],
      "rotation" : [ -5.41601e-08, 0.354001, 2.68824e-07, -0.935245 ]
    },
    {
      "name" : "r_ankle",
      "children" : [ 69, 71, 73, 75, 77 ],
      "translation" : [ -0.531278, -5.21937e-07, -1.96562e-06 ],
      "rotation" : [ 0.0205005, -0.882829, -0.0216517, 0.468747 ]
    },
    {
      "name" : "r_toeB11",
      "children" : [ 70 ],
      "translation" : [ 0.25877, -0.0438792, -0.0146174 ],
      "rotation" : [ -0.117305, -0.890714, 0.0497152, 0.436344 ]
    },
    {
      "name" : "r_toeB12",
      "translation" : [ -0.0953451, 1.31482e-06, 1.17684e-16 ],
      "rotation" : [ -1.49012e-08, -3.46945e-18, 4.77049e-18, -1 ]
    },
    {
      "name" : "r_toeA11",
      "children" : [ 72 ],
      "translation" : [ 0.259467, -0.0742871, -0.00938253 ],
      "rotation" : [ -0.202377, -0.867306, 0.10739, 0.441919 ]
    },
    {
      "name" : "r_toeA12",
      "translation" : [ -0.0424213, 6.81151e-07, 1.17684e-16 ],
      "rotation" : [ 6.01853e-36, 1.73472e-18, -3.46945e-18, -1 ]
    },
    {
      "name" : "r_toeC11",
      "children" : [ 74 ],
      "translation" : [ 0.267904, -0.00815918, -0.0175292 ],
      "rotation" : [ -0.0276269, -0.895133, -0.0114434, 0.444795 ]
    },
    {
      "name" : "r_toeC12",
      "translation" : [ -0.0938309, 1.77984e-06, 9.32587e-17 ],
      "rotation" : [ -1.49012e-08, -1.73472e-18, 8.67362e-19, -1 ]
    },
    {
      "name" : "r_toeD11",
      "children" : [ 76 ],
      "translation" : [ 0.263219, 0.0206883, -0.00972862 ],
      "rotation" : [ 0.208826, -0.913422, -0.162992, 0.309008 ]
    },
    {
      "name" : "r_toeD12",
      "translation" : [ -0.0813877, -0.0145145, 0.0202796 ],
      "rotation" : [ -1.29048e-08, -6.38008e-25, -4.94396e-17, -1 ]
    },
    {
      "name" : "r_toeE11",
      "children" : [ 78 ],
      "translation" : [ 0.251677, 0.0528829, 0.0103086 ],
      "rotation" : [ 0.375495, -0.809936, -0.242658, 0.379637 ]
    },
    {
      "name" : "r_toeE12",
      "translation" : [ -0.0543319, -0.0126688, 0.000478273 ],
      "rotation" : [ -1.49012e-08, 6.93889e-18, 4.11997e-17, -1 ]
    }
  ],
  "skins" : [
    {
      "inverseBindMatrices" : 0,
      "skeleton" : 1,
      "joints" : [
        1,2,3,4,5,6,7,8,9,10,11,12,13,14,15,16,17,18,19,20,21,22,23,24,25,26,27,28,29,30,31,32,
        33,34,35,36,37,38,39,40,41,42,43,44,45,46,47,48,49,50,51,52,53,54,55,56,57,58,59,60,61,62,63,64,
        65,66,67,68,69,70,71,72,73,74,75,76,77,78
      ]
    }
  ],
  "materials" : [
    {
      "name" : "dummy_material_0",
      "pbrMetallicRoughness" : {
        "baseColorFactor" : [ 0.3, 0.3, 0.3, 1.0 ],
        "metallicFactor" : 0.1,
        "roughnessFactor" : 0.5
      }
    }
  ],
  "meshes" : [
    {
      "primitives" : [
        {
          "attributes" : {
            "POSITION" : 2,
            "NORMAL" : 3,
            "TANGENT" : 4,
            "COLOR_0" : 5,
            "JOINTS_0" : 6,
            "WEIGHTS_0" : 7,
            "TEXCOORD_0" : 8,
            "TEXCOORD_1" : 9
          },
          "indices" : 1,
          "material" : 0
        }
      ],
      "name" : "Kaprosuchus"
    }
  ],
  "buffers" : [
    {
      "uri" : "Kaprosuchus.bin",
      "byteLength" : 1534128
    }
  ],
  "bufferViews" : [
    {
      "buffer" : 0,
      "byteOffset" : 0,
      "byteLength" : 4992
    },
    {
      "buffer" : 0,
      "byteOffset" : 4992,
      "byteLength" : 175320
    },
    {
      "buffer" : 0,
      "byteOffset" : 180312,
      "byteLength" : 225636
    },
    {
      "buffer" : 0,
      "byteOffset" : 405948,
      "byteLength" : 225636
    },
    {
      "buffer" : 0,
      "byteOffset" : 631584,
      "byteLength" : 300848
    },
    {
      "buffer" : 0,
      "byteOffset" : 932432,
      "byteLength" : 75212
    },
    {
      "buffer" : 0,
      "byteOffset" : 1007644,
      "byteLength" : 150424
    },
    {
      "buffer" : 0,
      "byteOffset" : 1158068,
      "byteLength" : 75212
    },
    {
      "buffer" : 0,
      "byteOffset" : 1233280,
      "byteLength" : 150424
    },
    {
      "buffer" : 0,
      "byteOffset" : 1383704,
      "byteLength" : 150424
    }
  ],
  "accessors" : [
    {
      "bufferView" : 0,
      "componentType" : 5126,
      "count" : 78,
      "type" : "MAT4"
    },
    {
      "bufferView" : 1,
      "componentType" : 5123,
      "count" : 87660,
      "type" : "SCALAR"
    },
    {
      "bufferView" : 2,
      "min" : [ -0.502488, -0.00672859, -4.16581 ],
      "max" : [ 0.502488, 1.58172, 2.17431 ],
      "componentType" : 5126,
      "count" : 18803,
      "type" : "VEC3"
    },
    {
      "bufferView" : 3,
      "componentType" : 5126,
      "count" : 18803,
      "type" : "VEC3"
    },
    {
      "bufferView" : 4,
      "componentType" : 5126,
      "count" : 18803,
      "type" : "VEC4"
    },
    {
      "bufferView" : 5,
      "normalized" : true,
      "componentType" : 5121,
      "count" : 18803,
      "type" : "VEC4"
    },
    {
      "bufferView" : 6,
      "componentType" : 5123,
      "count" : 18803,
      "type" : "VEC4"
    },
    {
      "bufferView" : 7,
      "normalized" : true,
      "componentType" : 5121,
      "count" : 18803,
      "type" : "VEC4"
    },
    {
      "bufferView" : 8,
      "componentType" : 5126,
      "count" : 18803,
      "type" : "VEC2"
    },
    {
      "bufferView" : 9,
      "componentType" : 5126,
      "count" : 18803,
      "type" : "VEC2"
    }
  ]
}
