{
  "asset" : {
    "generator" : "UE Viewer (umodel) build 1612-floxay",
    "version" : "2.0"
  },
  "scene" : 0,
  "scenes" : [
    {
      "nodes" : [ 0 ]
    }
  ],
  "nodes" : [
    {
      "name" : "Sauropod",
      "mesh" : 0,
      "skin" : 0,
      "children" : [ 1 ]
    },
    {
      "name" : "root",
      "children" : [ 2 ],
      "translation" : [ 0, 0, -0 ],
      "rotation" : [ -0.707107, -0, 0, -0.707107 ]
    },
    {
      "name" : "c_back1",
      "children" : [ 3, 42, 54, 60 ],
      "translation" : [ -1.23815e-07, -2.51008, -5.45037 ],
      "rotation" : [ 0.0563808, -0.0570879, -0.709263, -0.700363 ]
    },
    {
      "name" : "c_back2",
      "children" : [ 4 ],
      "translation" : [ 1.09324, 2.15999e-08, -3.41183e-07 ],
      "rotation" : [ 0.0033858, 0.0448305, 0.000158062, -0.998989 ]
    },
    {
      "name" : "c_back3",
      "children" : [ 5 ],
      "translation" : [ 1.09324, 2.91816e-08, 4.38313e-06 ],
      "rotation" : [ 0.00337927, 0.0331299, 0.00035529, -0.999445 ]
    },
    {
      "name" : "c_back4",
      "children" : [ 6 ],
      "translation" : [ 1.09324, 3.45032e-07, -7.22023e-06 ],
      "rotation" : [ 0.00338799, 0.0263139, 0.00146309, -0.999647 ]
    },
    {
      "name" : "c_back5",
      "children" : [ 7, 26, 34 ],
      "translation" : [ 1.09324, -8.10717e-07, -3.3433e-06 ],
      "rotation" : [ 0.00329558, 0.0285472, 0.00189572, -0.999585 ]
    },
    {
      "name" : "c_neck1",
      "children" : [ 8 ],
      "translation" : [ 1.0938, 6.08826e-07, -0.000538738 ],
      "rotation" : [ 0.000235855, -0.333569, 0.000623379, -0.942725 ]
    },
    {
      "name" : "c_neck2",
      "children" : [ 9 ],
      "translation" : [ 1.69, -5.63129e-07, -1.22516e-06 ],
      "rotation" : [ -0.00194499, -0.0799167, -0.00022084, -0.9968 ]
    },
    {
      "name" : "c_neck3",
      "children" : [ 10 ],
      "translation" : [ 1.625, -4.83364e-07, -2.52914e-06 ],
      "rotation" : [ -0.00188091, 0.0160166, -0.00162724, -0.999869 ]
    },
    {
      "name" : "c_neck4",
      "children" : [ 11 ],
      "translation" : [ 1.625, 1.09909e-06, 7.55526e-06 ],
      "rotation" : [ -0.00179631, 0.0862738, -0.00125056, -0.996269 ]
    },
    {
      "name" : "c_neck5",
      "children" : [ 12 ],
      "translation" : [ 1.42903, -1.48502e-07, -8.4204e-06 ],
      "rotation" : [ -0.0018212, 0.0900631, -0.000733358, -0.995934 ]
    },
    {
      "name" : "c_neck6",
      "children" : [ 13 ],
      "translation" : [ 1.42906, -3.1257e-08, 3.99615e-06 ],
      "rotation" : [ -0.00187713, 0.0829845, -0.000300218, -0.996549 ]
    },
    {
      "name" : "c_neck7",
      "children" : [ 14 ],
      "translation" : [ 1.42905, 1.1862e-07, -8.79837e-06 ],
      "rotation" : [ -0.00188951, 0.0839598, -0.000188215, -0.996467 ]
    },
    {
      "name" : "c_head",
      "children" : [ 15, 20, 21, 22, 23, 24, 25 ],
      "translation" : [ 1.42905, -1.08332e-07, 7.02428e-06 ],
      "rotation" : [ -0.000411482, 0.154698, 0.000907365, -0.987961 ]
    },
    {
      "name" : "c_jaw",
      "children" : [ 16 ],
      "translation" : [ 0.296159, 4.23925e-09, 0.20309 ],
      "rotation" : [ -1.44185e-09, 0.171886, 1.20844e-10, -0.985117 ]
    },
    {
      "name" : "c_tongue1",
      "children" : [ 17 ],
      "translation" : [ 0.296642, -3.04653e-09, 0.114156 ],
      "rotation" : [ -3.38755e-10, -0.0884081, 1.77554e-11, -0.996084 ]
    },
    {
      "name" : "c_tongue2",
      "children" : [ 18 ],
      "translation" : [ 0.222858, 5.93848e-09, -9.6524e-06 ],
      "rotation" : [ 4.83074e-10, 0.127607, -8.52793e-11, -0.991825 ]
    },
    {
      "name" : "c_tongue3",
      "children" : [ 19 ],
      "translation" : [ 0.197758, -9.56117e-09, -8.19412e-06 ],
      "rotation" : [ 3.15673e-10, -0.121247, 1.74891e-10, -0.992622 ]
    },
    {
      "name" : "c_tongue4",
      "translation" : [ 0.160482, 2.01309e-08, 9.92984e-06 ],
      "rotation" : [ 7.69212e-10, -0.0772811, -4.04926e-10, -0.997009 ]
    },
    {
      "name" : "l_eye",
      "translation" : [ 0.227383, -0.276754, -0.120703 ],
      "rotation" : [ 0.163744, -0.163744, 0.687887, -0.687887 ]
    },
    {
      "name" : "r_eye",
      "translation" : [ 0.227162, 0.276501, -0.120654 ],
      "rotation" : [ -0.687887, 0.687887, 0.163744, -0.163744 ]
    },
    {
      "name" : "r_upperEye",
      "translation" : [ 0.291327, 0.366523, -0.159826 ],
      "rotation" : [ -0.700759, 0.700759, 0.0945343, -0.0945343 ]
    },
    {
      "name" : "r_lowerEye",
      "translation" : [ 0.298058, 0.372883, -0.111523 ],
      "rotation" : [ -0.700759, 0.700759, 0.0945343, -0.0945343 ]
    },
    {
      "name" : "l_upperEye",
      "translation" : [ 0.291721, -0.366458, -0.159952 ],
      "rotation" : [ 0.0945347, -0.0945347, 0.700759, -0.700759 ]
    },
    {
      "name" : "l_lowerEye",
      "translation" : [ 0.298351, -0.372827, -0.11164 ],
      "rotation" : [ 0.0945347, -0.0945347, 0.700759, -0.700759 ]
    },
    {
      "name" : "l_scapula",
      "children" : [ 27 ],
      "translation" : [ 0.0875116, -0.996025, -0.0245022 ],
      "rotation" : [ -0.0500586, 0.557409, 0.0316764, -0.828122 ]
    },
    {
      "name" : "l_shoulder",
      "children" : [ 28, 33 ],
      "translation" : [ 1.92712, 0.0150101, 0.0957469 ],
      "rotation" : [ -0.963345, 0.0266509, -0.264081, 0.0389557 ]
    },
    {
      "name" : "l_elbow",
      "children" : [ 29 ],
      "translation" : [ 1.60666, 2.48375e-07, 2.89916e-06 ],
      "rotation" : [ -0.923542, 4.42689e-08, -0.383496, 4.30457e-07 ]
    },
    {
      "name" : "l_wrist",
      "children" : [ 30 ],
      "translation" : [ 1.50657, 7.75622e-07, 3.91907e-08 ],
      "rotation" : [ 0.0666147, 0.260955, -0.0580624, -0.961298 ]
    },
    {
      "name" : "l_foot1",
      "children" : [ 31 ],
      "translation" : [ 0.4676, 1.31e-06, -1.49e-06 ],
      "rotation" : [ -2.40801e-23, -0, 0, -1 ]
    },
    {
      "name" : "l_foot2",
      "children" : [ 32 ],
      "translation" : [ 0.456747, 1.29e-06, -1.44e-06 ],
      "rotation" : [ -2.40801e-23, -0, 0, -1 ]
    },
    {
      "name" : "l_frontToes",
      "translation" : [ -1.19e-06, 0, -0.377188 ],
      "rotation" : [ -2.40801e-23, -0, 0, -1 ]
    },
    {
      "name" : "l_shoulderTwist",
      "translation" : [ 0.812047, -1.50644e-06, 7.00947e-07 ],
      "rotation" : [ -0.00389922, -1.29187e-07, 1.08079e-07, -0.999992 ]
    },
    {
      "name" : "r_scapula",
      "children" : [ 35 ],
      "translation" : [ 0.101983, 0.889936, 0.020494 ],
      "rotation" : [ 0.0316766, -0.828121, 0.0500588, -0.55741 ]
    },
    {
      "name" : "r_shoulder",
      "children" : [ 36, 41 ],
      "translation" : [ -1.92711, -0.0150082, -0.0957488 ],
      "rotation" : [ -0.964376, -0.0155876, -0.261579, 0.036225 ]
    },
    {
      "name" : "r_elbow",
      "children" : [ 37 ],
      "translation" : [ -1.60667, 1.1993e-06, 1.2964e-06 ],
      "rotation" : [ -0.923103, 7.79881e-08, -0.384552, 2.16293e-07 ]
    },
    {
      "name" : "r_wrist",
      "children" : [ 38 ],
      "translation" : [ -1.50657, 1.21606e-06, 6.92195e-06 ],
      "rotation" : [ 0.0547252, 0.259299, -0.042755, -0.963297 ]
    },
    {
      "name" : "r_foot1",
      "children" : [ 39 ],
      "translation" : [ -0.4676, 0, -5.68434e-16 ],
      "rotation" : [ 2.71051e-20, 8.67362e-19, 2.35099e-38, -1 ]
    },
    {
      "name" : "r_foot2",
      "children" : [ 40 ],
      "translation" : [ -0.456746, 2.84217e-16, 5.68434e-16 ],
      "rotation" : [ 2.71051e-20, 8.67362e-19, 2.35099e-38, -1 ]
    },
    {
      "name" : "r_frontToes",
      "translation" : [ -8.15078e-09, 1.17731e-09, 0.37719 ],
      "rotation" : [ 2.71051e-20, 8.67362e-19, 2.35099e-38, -1 ]
    },
    {
      "name" : "r_shoulderTwist",
      "translation" : [ -0.812051, 2.81253e-06, -1.25923e-06 ],
      "rotation" : [ 0.00233857, -6.7764e-07, 7.80729e-08, -0.999997 ]
    },
    {
      "name" : "c_tail1",
      "children" : [ 43 ],
      "translation" : [ -1.57089, -7.7776e-08, 0.176916 ],
      "rotation" : [ 0.0260983, 1.80676e-07, 0.999659, -9.74193e-09 ]
    },
    {
      "name" : "c_tail2",
      "children" : [ 44 ],
      "translation" : [ 1.9, 1.36805e-07, 0.00844518 ],
      "rotation" : [ 5.32137e-07, -0.0424727, -1.67975e-08, -0.999098 ]
    },
    {
      "name" : "c_tail3",
      "children" : [ 45 ],
      "translation" : [ 1.9, -6.02112e-07, 2.49311e-06 ],
      "rotation" : [ -1.02209e-06, -0.0218146, 5.68533e-08, -0.999762 ]
    },
    {
      "name" : "c_tail4",
      "children" : [ 46 ],
      "translation" : [ 1.89999, 3.67016e-07, -7.44036e-06 ],
      "rotation" : [ 6.68896e-07, -0.0201971, -7.32361e-10, -0.999796 ]
    },
    {
      "name" : "c_tail5",
      "children" : [ 47 ],
      "translation" : [ 1.3, 8.29774e-07, 4.10389e-06 ],
      "rotation" : [ 1.71897e-06, -0.00872653, -5.21839e-08, -0.999962 ]
    },
    {
      "name" : "c_tail6",
      "children" : [ 48 ],
      "translation" : [ 1.30001, -9.83829e-07, 6.02563e-08 ],
      "rotation" : [ -2.63783e-06, -0.00436327, 4.12671e-08, -0.99999 ]
    },
    {
      "name" : "c_tail7",
      "children" : [ 49 ],
      "translation" : [ 1.3, 1.68754e-16, -0 ],
      "rotation" : [ -0, -0, -4.64174e-19, -1 ]
    },
    {
      "name" : "c_tail8",
      "children" : [ 50 ],
      "translation" : [ 1.3, 1.59872e-16, 5.68434e-16 ],
      "rotation" : [ -0, -0, -4.64174e-19, -1 ]
    },
    {
      "name" : "c_tail9",
      "children" : [ 51 ],
      "translation" : [ 1.3, 1.82077e-16, 5.68434e-16 ],
      "rotation" : [ -0, -0, -4.64174e-19, -1 ]
    },
    {
      "name" : "c_tail10",
      "children" : [ 52 ],
      "translation" : [ 1.3, 1.46549e-16, 5.68434e-16 ],
      "rotation" : [ -0, -0, -4.64174e-19, -1 ]
    },
    {
      "name" : "c_tail11",
      "children" : [ 53 ],
      "translation" : [ 1.3, 1.46549e-16, -0 ],
      "rotation" : [ -0, -0, -4.64174e-19, -1 ]
    },
    {
      "name" : "c_tail12",
      "translation" : [ 1.3, -1.1174e-07, -1.87297e-06 ],
      "rotation" : [ -0.0720193, 8.34748e-07, 0.997403, -7.05042e-08 ]
    },
    {
      "name" : "l_hip",
      "children" : [ 55, 59 ],
      "translation" : [ 0.00279991, -1.20721, 0.38748 ],
      "rotation" : [ -0.042633, 0.699215, 0.0373318, -0.712662 ]
    },
    {
      "name" : "l_knee",
      "children" : [ 56 ],
      "translation" : [ 2.57144, 3.03024e-07, -2.13685e-06 ],
      "rotation" : [ -3.99687e-09, 0.301393, 3.4153e-08, -0.9535 ]
    },
    {
      "name" : "l_ankle",
      "children" : [ 57 ],
      "translation" : [ 2.28336, -1.23134e-06, 3.51127e-06 ],
      "rotation" : [ -0.013115, -0.214625, -0.055883, -0.975008 ]
    },
    {
      "name" : "l_foot",
      "children" : [ 58 ],
      "translation" : [ 0.538964, -2.14514e-05, -0.00016325 ],
      "rotation" : [ -1.26665e-06, -0.00014914, 1.99739e-05, -1 ]
    },
    {
      "name" : "l_backToes",
      "translation" : [ -1.40846e-09, -1.07764e-08, -0.421818 ],
      "rotation" : [ 6.61414e-20, 1.0842e-19, -1.69407e-21, -1 ]
    },
    {
      "name" : "l_legTwist",
      "translation" : [ 1.1257, -2.64312e-07, 1.25603e-06 ],
      "rotation" : [ -0.00518563, -2.64549e-07, -6.30015e-08, -0.999987 ]
    },
    {
      "name" : "r_hip",
      "children" : [ 61, 65 ],
      "translation" : [ 0.00279833, 1.20721, 0.387483 ],
      "rotation" : [ 0.0274166, -0.717009, 0.0520121, -0.69458 ]
    },
    {
      "name" : "r_knee",
      "children" : [ 62 ],
      "translation" : [ -2.57144, 2.33388e-06, -1.69519e-06 ],
      "rotation" : [ -5.4373e-08, 0.306512, -1.86356e-08, -0.951867 ]
    },
    {
      "name" : "r_ankle",
      "children" : [ 63 ],
      "translation" : [ -2.28335, 6.05292e-07, -4.35733e-06 ],
      "rotation" : [ -0.0123652, -0.214506, -0.0560044, -0.975037 ]
    },
    {
      "name" : "r_foot",
      "children" : [ 64 ],
      "translation" : [ -0.538959, 1.76995e-06, -3.6825e-06 ],
      "rotation" : [ 0.0537425, 0.00103572, 0.00762705, -0.998525 ]
    },
    {
      "name" : "r_backToes",
      "translation" : [ 1.22478e-08, 5.21719e-07, 0.421822 ],
      "rotation" : [ -4.60871e-18, 8.13152e-20, 8.67362e-19, -1 ]
    },
    {
      "name" : "r_legTwist",
      "translation" : [ -1.12571, 7.11566e-06, 3.25062e-06 ],
      "rotation" : [ 0.00475929, 1.75839e-07, -1.65598e-07, -0.999989 ]
    }
  ],
  "skins" : [
    {
      "inverseBindMatrices" : 0,
      "skeleton" : 1,
      "joints" : [
        1,2,3,4,5,6,7,8,9,10,11,12,13,14,15,16,17,18,19,20,21,22,23,24,25,26,27,28,29,30,31,32,
        33,34,35,36,37,38,39,40,41,42,43,44,45,46,47,48,49,50,51,52,53,54,55,56,57,58,59,60,61,62,63,64,
        65
      ]
    }
  ],
  "materials" : [
    {
      "name" : "dummy_material_0",
      "pbrMetallicRoughness" : {
        "baseColorFactor" : [ 0.3, 0.3, 0.3, 1.0 ],
        "metallicFactor" : 0.1,
        "roughnessFactor" : 0.5
      }
    },
    {
      "name" : "dummy_material_1",
      "pbrMetallicRoughness" : {
        "baseColorFactor" : [ 0.9, 0.3, 0.3, 1.0 ],
        "metallicFactor" : 0.1,
        "roughnessFactor" : 0.5
      }
    },
    {
      "name" : "dummy_material_2",
      "pbrMetallicRoughness" : {
        "baseColorFactor" : [ 0.3, 0.9, 0.3, 1.0 ],
        "metallicFactor" : 0.1,
        "roughnessFactor" : 0.5
      }
    }
  ],
  "meshes" : [
    {
      "primitives" : [
        {
          "attributes" : {
            "POSITION" : 2,
            "NORMAL" : 3,
            "TANGENT" : 4,
            "COLOR_0" : 5,
            "JOINTS_0" : 6,
            "WEIGHTS_0" : 7,
            "TEXCOORD_0" : 8,
            "TEXCOORD_1" : 9
          },
          "indices" : 1,
          "material" : 0
        },
        {
          "attributes" : {
            "POSITION" : 11,
            "NORMAL" : 12,
            "TANGENT" : 13,
            "COLOR_0" : 14,
            "JOINTS_0" : 15,
            "WEIGHTS_0" : 16,
            "TEXCOORD_0" : 17,
            "TEXCOORD_1" : 18
          },
          "indices" : 10,
          "material" : 1
        },
        {
          "attributes" : {
            "POSITION" : 20,
            "NORMAL" : 21,
            "TANGENT" : 22,
            "COLOR_0" : 23,
            "JOINTS_0" : 24,
            "WEIGHTS_0" : 25,
            "TEXCOORD_0" : 26,
            "TEXCOORD_1" : 27
          },
          "indices" : 19,
          "material" : 2
        }
      ],
      "name" : "Sauropod"
    }
  ],
  "buffers" : [
    {
      "uri" : "Sauropod.bin",
      "byteLength" : 1450268
    }
  ],
  "bufferViews" : [
    {
      "buffer" : 0,
      "byteOffset" : 0,
      "byteLength" : 4160
    },
    {
      "buffer" : 0,
      "byteOffset" : 4160,
      "byteLength" : 87072
    },
    {
      "buffer" : 0,
      "byteOffset" : 91232,
      "byteLength" : 108144
    },
    {
      "buffer" : 0,
      "byteOffset" : 199376,
      "byteLength" : 108144
    },
    {
      "buffer" : 0,
      "byteOffset" : 307520,
      "byteLength" : 144192
    },
    {
      "buffer" : 0,
      "byteOffset" : 451712,
      "byteLength" : 36048
    },
    {
      "buffer" : 0,
      "byteOffset" : 487760,
      "byteLength" : 72096
    },
    {
      "buffer" : 0,
      "byteOffset" : 559856,
      "byteLength" : 36048
    },
    {
      "buffer" : 0,
      "byteOffset" : 595904,
      "byteLength" : 72096
    },
    {
      "buffer" : 0,
      "byteOffset" : 668000,
      "byteLength" : 72096
    },
    {
      "buffer" : 0,
      "byteOffset" : 740096,
      "byteLength" : 36024
    },
    {
      "buffer" : 0,
      "byteOffset" : 776120,
      "byteLength" : 40812
    },
    {
      "buffer" : 0,
      "byteOffset" : 816932,
      "byteLength" : 40812
    },
    {
      "buffer" : 0,
      "byteOffset" : 857744,
      "byteLength" : 54416
    },
    {
      "buffer" : 0,
      "byteOffset" : 912160,
      "byteLength" : 13604
    },
    {
      "buffer" : 0,
      "byteOffset" : 925764,
      "byteLength" : 27208
    },
    {
      "buffer" : 0,
      "byteOffset" : 952972,
      "byteLength" : 13604
    },
    {
      "buffer" : 0,
      "byteOffset" : 966576,
      "byteLength" : 27208
    },
    {
      "buffer" : 0,
      "byteOffset" : 993784,
      "byteLength" : 27208
    },
    {
      "buffer" : 0,
      "byteOffset" : 1020992,
      "byteLength" : 56892
    },
    {
      "buffer" : 0,
      "byteOffset" : 1077884,
      "byteLength" : 62064
    },
    {
      "buffer" : 0,
      "byteOffset" : 1139948,
      "byteLength" : 62064
    },
    {
      "buffer" : 0,
      "byteOffset" : 1202012,
      "byteLength" : 82752
    },
    {
      "buffer" : 0,
      "byteOffset" : 1284764,
      "byteLength" : 20688
    },
    {
      "buffer" : 0,
      "byteOffset" : 1305452,
      "byteLength" : 41376
    },
    {
      "buffer" : 0,
      "byteOffset" : 1346828,
      "byteLength" : 20688
    },
    {
      "buffer" : 0,
      "byteOffset" : 1367516,
      "byteLength" : 41376
    },
    {
      "buffer" : 0,
      "byteOffset" : 1408892,
      "byteLength" : 41376
    }
  ],
  "accessors" : [
    {
      "bufferView" : 0,
      "componentType" : 5126,
      "count" : 65,
      "type" : "MAT4"
    },
    {
      "bufferView" : 1,
      "componentType" : 5123,
      "count" : 43536,
      "type" : "SCALAR"
    },
    {
      "bufferView" : 2,
      "min" : [ -1.01095, 4.60187, -6.35976 ],
      "max" : [ 0.903952, 10.7198, 13.6264 ],
      "componentType" : 5126,
      "count" : 9012,
      "type" : "VEC3"
    },
    {
      "bufferView" : 3,
      "componentType" : 5126,
      "count" : 9012,
      "type" : "VEC3"
    },
    {
      "bufferView" : 4,
      "componentType" : 5126,
      "count" : 9012,
      "type" : "VEC4"
    },
    {
      "bufferView" : 5,
      "normalized" : true,
      "componentType" : 5121,
      "count" : 9012,
      "type" : "VEC4"
    },
    {
      "bufferView" : 6,
      "componentType" : 5123,
      "count" : 9012,
      "type" : "VEC4"
    },
    {
      "bufferView" : 7,
      "normalized" : true,
      "componentType" : 5121,
      "count" : 9012,
      "type" : "VEC4"
    },
    {
      "bufferView" : 8,
      "componentType" : 5126,
      "count" : 9012,
      "type" : "VEC2"
    },
    {
      "bufferView" : 9,
      "componentType" : 5126,
      "count" : 9012,
      "type" : "VEC2"
    },
    {
      "bufferView" : 10,
      "componentType" : 5123,
      "count" : 18012,
      "type" : "SCALAR"
    },
    {
      "bufferView" : 11,
      "min" : [ -1.96084, 2.42025, -21.4965 ],
      "max" : [ 1.88639, 7.09046, 4.16187 ],
      "componentType" : 5126,
      "count" : 3401,
      "type" : "VEC3"
    },
    {
      "bufferView" : 12,
      "componentType" : 5126,
      "count" : 3401,
      "type" : "VEC3"
    },
    {
      "bufferView" : 13,
      "componentType" : 5126,
      "count" : 3401,
      "type" : "VEC4"
    },
    {
      "bufferView" : 14,
      "normalized" : true,
      "componentType" : 5121,
      "count" : 3401,
      "type" : "VEC4"
    },
    {
      "bufferView" : 15,
      "componentType" : 5123,
      "count" : 3401,
      "type" : "VEC4"
    },
    {
      "bufferView" : 16,
      "normalized" : true,
      "componentType" : 5121,
      "count" : 3401,
      "type" : "VEC4"
    },
    {
      "bufferView" : 17,
      "componentType" : 5126,
      "count" : 3401,
      "type" : "VEC2"
    },
    {
      "bufferView" : 18,
      "componentType" : 5126,
      "count" : 3401,
      "type" : "VEC2"
    },
    {
      "bufferView" : 19,
      "componentType" : 5123,
      "count" : 28446,
      "type" : "SCALAR"
    },
    {
      "bufferView" : 20,
      "min" : [ -2.30964, -0.0322946, -4.10601 ],
      "max" : [ 2.29658, 6.59635, 3.49868 ],
      "componentType" : 5126,
      "count" : 5172,
      "type" : "VEC3"
    },
    {
      "bufferView" : 21,
      "componentType" : 5126,
      "count" : 5172,
      "type" : "VEC3"
    },
    {
      "bufferView" : 22,
      "componentType" : 5126,
      "count" : 5172,
      "type" : "VEC4"
    },
    {
      "bufferView" : 23,
      "normalized" : true,
      "componentType" : 5121,
      "count" : 5172,
      "type" : "VEC4"
    },
    {
      "bufferView" : 24,
      "componentType" : 5123,
      "count" : 5172,
      "type" : "VEC4"
    },
    {
      "bufferView" : 25,
      "normalized" : true,
      "componentType" : 5121,
      "count" : 5172,
      "type" : "VEC4"
    },
    {
      "bufferView" : 26,
      "componentType" : 5126,
      "count" : 5172,
      "type" : "VEC2"
    },
    {
      "bufferView" : 27,
      "componentType" : 5126,
      "count" : 5172,
      "type" : "VEC2"
    }
  ]
}
