{
  "asset" : {
    "generator" : "UE Viewer (umodel) build 1612-floxay",
    "version" : "2.0"
  },
  "scene" : 0,
  "scenes" : [
    {
      "nodes" : [ 0 ]
    }
  ],
  "nodes" : [
    {
      "name" : "Trike",
      "mesh" : 0,
      "skin" : 0,
      "children" : [ 1 ]
    },
    {
      "name" : "root",
      "children" : [ 2 ],
      "translation" : [ 0, 0, -0 ],
      "rotation" : [ -0.707107, -0, 0, -0.707107 ]
    },
    {
      "name" : "c_back1",
      "children" : [ 3, 66, 71, 84 ],
      "translation" : [ 0, -0.834986, -1.41838 ],
      "rotation" : [ -0.0248019, 0.0248019, -0.706672, -0.706672 ]
    },
    {
      "name" : "c_back2",
      "children" : [ 4 ],
      "translation" : [ 0.398, 1.86295e-16, -5.68434e-16 ],
      "rotation" : [ 3.08149e-33, -0, 6.85631e-32, -1 ]
    },
    {
      "name" : "c_back3",
      "children" : [ 5 ],
      "translation" : [ 0.398, 1.50768e-16, -5.68434e-16 ],
      "rotation" : [ 3.08149e-33, -0, 6.85631e-32, -1 ]
    },
    {
      "name" : "c_back4",
      "children" : [ 6, 30, 48 ],
      "translation" : [ 0.398, 1.86295e-16, -0 ],
      "rotation" : [ 3.08149e-33, -0, 6.85631e-32, -1 ]
    },
    {
      "name" : "c_neck1",
      "children" : [ 7 ],
      "translation" : [ 0.398, 3.31069e-16, -2.84217e-16 ],
      "rotation" : [ 2.46675e-33, -0.140143, 7.23986e-32, -0.990131 ]
    },
    {
      "name" : "c_neck2",
      "children" : [ 8 ],
      "translation" : [ 0.243421, 1.60534e-16, -4.26326e-16 ],
      "rotation" : [ 6.32312e-33, -0.0153073, -9.02409e-32, -0.999883 ]
    },
    {
      "name" : "c_head",
      "children" : [ 9, 14, 15, 16, 17, 18, 19, 20, 21, 22, 23, 24, 25, 26, 27, 28, 29 ],
      "translation" : [ 0.249569, 1.33451e-16, -1.13687e-15 ],
      "rotation" : [ -5.70003e-33, 0.120537, 4.69437e-32, -0.992709 ]
    },
    {
      "name" : "c_jaw",
      "children" : [ 10 ],
      "translation" : [ -0.0269753, -1.14239e-15, 0.0387871 ],
      "rotation" : [ -9.46991e-33, 0.199356, 3.10918e-32, -0.979927 ]
    },
    {
      "name" : "c_tongue1",
      "children" : [ 11 ],
      "translation" : [ 0.312593, -4.64296e-16, -0.038688 ],
      "rotation" : [ 2.68199e-33, -0.127554, 6.91712e-32, -0.991832 ]
    },
    {
      "name" : "c_tongue2",
      "children" : [ 12 ],
      "translation" : [ 0.0921449, 2.4717e-15, 2.27374e-15 ],
      "rotation" : [ -3.96397e-32, 0.302814, 5.18834e-33, -0.95305 ]
    },
    {
      "name" : "c_tongue3",
      "children" : [ 13 ],
      "translation" : [ 0.0926816, -6.21594e-15, 1.13687e-15 ],
      "rotation" : [ 5.48747e-32, 0.0645071, 4.67781e-32, -0.997917 ]
    },
    {
      "name" : "c_tongue4",
      "translation" : [ 0.0726859, 7.13255e-15, 2.27374e-15 ],
      "rotation" : [ 2.32753e-32, -0.190276, -1.37231e-33, -0.981731 ]
    },
    {
      "name" : "l_eye",
      "translation" : [ 0.198429, -0.177666, -0.173752 ],
      "rotation" : [ 0.0360874, 0.0359557, 0.478428, -0.876648 ]
    },
    {
      "name" : "l_nose1",
      "translation" : [ 0.64577, -0.115395, -0.000820337 ],
      "rotation" : [ -0.275902, -0.208012, 0.438298, -0.829761 ]
    },
    {
      "name" : "l_nose2",
      "translation" : [ 0.647966, -0.0902485, -0.0525352 ],
      "rotation" : [ -0.101695, 0.101174, 0.507824, -0.849433 ]
    },
    {
      "name" : "l_eyeLid1",
      "translation" : [ 0.23407, -0.234049, -0.188854 ],
      "rotation" : [ 0.0360874, 0.0359557, 0.478428, -0.876648 ]
    },
    {
      "name" : "l_eyeLid2",
      "translation" : [ 0.232401, -0.228334, -0.13064 ],
      "rotation" : [ 0.0360874, 0.0359557, 0.478428, -0.876648 ]
    },
    {
      "name" : "r_eyeLid2",
      "translation" : [ 0.232397, 0.228334, -0.13064 ],
      "rotation" : [ 0.478428, -0.876648, -0.0360874, -0.0359557 ]
    },
    {
      "name" : "r_nose1",
      "translation" : [ 0.645767, 0.115395, -0.000819914 ],
      "rotation" : [ 0.438298, -0.829761, 0.275902, 0.208012 ]
    },
    {
      "name" : "r_nose2",
      "translation" : [ 0.647967, 0.0902485, -0.0525399 ],
      "rotation" : [ 0.507824, -0.849433, 0.101695, -0.101174 ]
    },
    {
      "name" : "r_eyeLid1",
      "translation" : [ 0.234067, 0.234049, -0.18885 ],
      "rotation" : [ 0.478428, -0.876648, -0.0360874, -0.0359557 ]
    },
    {
      "name" : "r_eye",
      "translation" : [ 0.198427, 0.177666, -0.17375 ],
      "rotation" : [ 0.478428, -0.876648, -0.0360874, -0.0359557 ]
    },
    {
      "name" : "l_browhorn",
      "translation" : [ 0.200989, -0.181586, -0.340441 ],
      "rotation" : [ -0.0353101, -0.332222, 0.0996164, -0.937261 ]
    },
    {
      "name" : "c_nosehorn",
      "translation" : [ 0.645162, 3.56423e-16, -0.0977515 ],
      "rotation" : [ 1.57501e-32, -0.476305, 3.87797e-32, -0.87928 ]
    },
    {
      "name" : "l_shieldhorn",
      "translation" : [ -0.708115, -0.207067, -0.775184 ],
      "rotation" : [ -0.444303, -0.0733527, 0.880943, -0.14544 ]
    },
    {
      "name" : "c_shieldhorn",
      "translation" : [ -0.56826, -3.29174e-16, -0.753289 ],
      "rotation" : [ -0.523197, -2.41412e-16, 0.852212, -1.4821e-16 ]
    },
    {
      "name" : "r_browhorn",
      "translation" : [ 0.200987, 0.181586, -0.34044 ],
      "rotation" : [ 0.0353099, -0.332222, -0.0996158, -0.937261 ]
    },
    {
      "name" : "r_shieldhorn",
      "translation" : [ -0.708115, 0.207067, -0.77518 ],
      "rotation" : [ -0.444306, 0.0733532, 0.880942, 0.14544 ]
    },
    {
      "name" : "l_scapula",
      "children" : [ 31 ],
      "translation" : [ 0.0775682, -0.21627, -0.103592 ],
      "rotation" : [ -0.269971, 0.584831, 0.103432, -0.757885 ]
    },
    {
      "name" : "l_shoulder",
      "children" : [ 32 ],
      "translation" : [ 0.457063, 0.0295615, -0.0515005 ],
      "rotation" : [ -0.0829495, 0.289365, -0.237874, -0.923473 ]
    },
    {
      "name" : "l_shoulderTwist",
      "children" : [ 33 ],
      "translation" : [ 0.231413, -7.10543e-17, -4.61853e-16 ],
      "rotation" : [ -5.20417e-18, -2.77556e-17, -3.46945e-18, -1 ]
    },
    {
      "name" : "l_eblow",
      "children" : [ 34 ],
      "translation" : [ 0.231413, -2.13163e-16, 1.42109e-16 ],
      "rotation" : [ 7.27587e-18, -0.344464, 4.72158e-18, -0.9388 ]
    },
    {
      "name" : "l_forearmTwist",
      "children" : [ 35 ],
      "translation" : [ 0.215573, -3.93524e-11, 2.13163e-16 ],
      "rotation" : [ 3.29597e-17, -2.28704e-34, 6.93889e-18, -1 ]
    },
    {
      "name" : "l_wrist",
      "children" : [ 36, 38, 40, 42, 44, 46 ],
      "translation" : [ 0.215573, -3.93523e-11, 2.13163e-16 ],
      "rotation" : [ 0.153318, 0.0993715, -0.00472928, -0.983156 ]
    },
    {
      "name" : "l_frontHeel",
      "children" : [ 37 ],
      "translation" : [ 0.192948, 2.18464e-09, 0.0335695 ],
      "rotation" : [ 9.68367e-09, -0.703833, -9.59462e-09, -0.710365 ]
    },
    {
      "name" : "l_frontHeelEnd",
      "translation" : [ 0.291211, -2.18943e-09, 0.0013505 ],
      "rotation" : [ 0.00326598, -0.00326598, 0.707099, -0.707099 ]
    },
    {
      "name" : "l_frontToeA1",
      "children" : [ 39 ],
      "translation" : [ 0.0931166, 0.108212, -0.0407955 ],
      "rotation" : [ -0.189148, -0.45306, -0.0706684, -0.868312 ]
    },
    {
      "name" : "l_frontToeA2",
      "translation" : [ 0.12, 0, 2.14701e-12 ],
      "rotation" : [ 2.08167e-17, 8.32667e-17, 3.98986e-17, -1 ]
    },
    {
      "name" : "l_frontToeB1",
      "children" : [ 41 ],
      "translation" : [ 0.0797924, 0.0513694, -0.115178 ],
      "rotation" : [ -0.0783325, -0.500559, -0.0390463, -0.861266 ]
    },
    {
      "name" : "l_frontToeB2",
      "translation" : [ 0.14, 7.10543e-17, -3.4035e-12 ],
      "rotation" : [ 2.51535e-17, 5.55111e-17, 5.37764e-17, -1 ]
    },
    {
      "name" : "l_frontToeC1",
      "children" : [ 43 ],
      "translation" : [ 0.0959523, -0.0346261, -0.1087 ],
      "rotation" : [ -0.00381993, -0.562907, -0.0232637, -0.826184 ]
    },
    {
      "name" : "l_frontToeC2",
      "translation" : [ 0.14, -7.10543e-17, -7.11402e-12 ],
      "rotation" : [ 1.73472e-17, 2.77556e-17, 5.55111e-17, -1 ]
    },
    {
      "name" : "l_frontToeD1",
      "children" : [ 45 ],
      "translation" : [ 0.0920382, -0.096976, -0.0836714 ],
      "rotation" : [ 0.101713, -0.530211, 0.0130683, -0.841641 ]
    },
    {
      "name" : "l_frontToeD2",
      "translation" : [ 0.14, -1.42109e-16, -1.24056e-11 ],
      "rotation" : [ 1.38778e-17, 2.77556e-17, 5.55111e-17, -1 ]
    },
    {
      "name" : "l_frontToeE1",
      "children" : [ 47 ],
      "translation" : [ 0.117485, -0.141541, -0.0389871 ],
      "rotation" : [ 0.199921, -0.515455, 0.0553895, -0.831426 ]
    },
    {
      "name" : "l_frontToeE2",
      "translation" : [ 0.1, -7.10543e-17, -1.20851e-11 ],
      "rotation" : [ 2.77556e-17, 2.77556e-17, 8.67362e-17, -1 ]
    },
    {
      "name" : "r_scapula",
      "children" : [ 49 ],
      "translation" : [ 0.0775686, 0.21627, -0.103589 ],
      "rotation" : [ 0.103432, -0.757885, 0.269971, -0.584831 ]
    },
    {
      "name" : "r_shoulder",
      "children" : [ 50 ],
      "translation" : [ -0.457058, -0.0295583, 0.0515011 ],
      "rotation" : [ -0.0829495, 0.289365, -0.237874, -0.923473 ]
    },
    {
      "name" : "r_shoulderTwist",
      "children" : [ 51 ],
      "translation" : [ -0.231414, -2.56579e-07, 5.592e-07 ],
      "rotation" : [ 2.42861e-17, -2.77556e-17, -3.46945e-18, -1 ]
    },
    {
      "name" : "r_eblow",
      "children" : [ 52 ],
      "translation" : [ -0.231414, -2.56579e-07, 5.592e-07 ],
      "rotation" : [ -3.69057e-18, -0.344464, 5.04976e-18, -0.9388 ]
    },
    {
      "name" : "r_forearmTwist",
      "children" : [ 53 ],
      "translation" : [ -0.215573, 1.78092e-08, -1.17587e-07 ],
      "rotation" : [ -1.49012e-08, -1.38778e-17, 3.46945e-18, -1 ]
    },
    {
      "name" : "r_wrist",
      "children" : [ 54, 56, 58, 60, 62, 64 ],
      "translation" : [ -0.215573, 1.78092e-08, -1.17587e-07 ],
      "rotation" : [ 0.153318, 0.0993715, -0.00472928, -0.983156 ]
    },
    {
      "name" : "r_frontHeel",
      "children" : [ 55 ],
      "translation" : [ -0.192948, -2.35267e-09, -0.033569 ],
      "rotation" : [ -1.15858e-16, -0.703833, -1.19676e-16, -0.710365 ]
    },
    {
      "name" : "r_frontHeelEnd",
      "translation" : [ -0.291211, -4.92688e-11, -0.0013506 ],
      "rotation" : [ 0.00326598, -0.00326598, 0.707099, -0.707099 ]
    },
    {
      "name" : "r_frontToeA1",
      "children" : [ 57 ],
      "translation" : [ -0.093116, -0.108212, 0.040796 ],
      "rotation" : [ 0.186614, -0.45411, 0.564019, -0.663959 ]
    },
    {
      "name" : "r_frontToeA2",
      "translation" : [ 3.31186e-07, -0.12, -4.49022e-07 ],
      "rotation" : [ -2.77556e-17, -5.55111e-17, -5.20417e-17, -1 ]
    },
    {
      "name" : "r_frontToeB1",
      "children" : [ 59 ],
      "translation" : [ -0.079792, -0.051369, 0.115178 ],
      "rotation" : [ 0.298559, -0.409338, 0.581397, -0.636617 ]
    },
    {
      "name" : "r_frontToeB2",
      "translation" : [ -5.82949e-08, -0.14, -2.23744e-08 ],
      "rotation" : [ -1.42188e-33, -3.03577e-17, -4.68375e-17, -1 ]
    },
    {
      "name" : "r_frontToeC1",
      "children" : [ 61 ],
      "translation" : [ -0.095952, 0.034626, 0.108701 ],
      "rotation" : [ 0.395334, -0.400736, 0.56775, -0.60065 ]
    },
    {
      "name" : "r_frontToeC2",
      "translation" : [ 2.97625e-07, -0.14, -1.35528e-07 ],
      "rotation" : [ -2.69229e-15, -1.2837e-16, 1.30972e-16, -1 ]
    },
    {
      "name" : "r_frontToeD1",
      "children" : [ 63 ],
      "translation" : [ -0.092038, 0.096976, 0.083672 ],
      "rotation" : [ 0.446837, -0.302994, 0.604371, -0.58589 ]
    },
    {
      "name" : "r_frontToeD2",
      "translation" : [ -1.79329e-07, -0.14, 2.60898e-08 ],
      "rotation" : [ -1.05367e-08, 2.91434e-16, 3.81639e-16, -1 ]
    },
    {
      "name" : "r_frontToeE1",
      "children" : [ 65 ],
      "translation" : [ -0.117485, 0.141541, 0.038987 ],
      "rotation" : [ 0.505847, -0.223116, 0.627073, -0.548741 ]
    },
    {
      "name" : "r_frontToeE2",
      "translation" : [ 5.50984e-07, -0.1, -1.51492e-07 ],
      "rotation" : [ -8.88178e-16, 3.46945e-17, 4.4062e-16, -1 ]
    },
    {
      "name" : "c_taill1",
      "children" : [ 67 ],
      "translation" : [ -0.309772, -1.72966e-16, 0.0483984 ],
      "rotation" : [ 0.0596104, 1.77649e-17, 0.998222, -7.29723e-16 ]
    },
    {
      "name" : "c_tail2",
      "children" : [ 68 ],
      "translation" : [ 0.6, 1.73308e-15, -0 ],
      "rotation" : [ 2.86769e-33, -0.0584091, -5.65011e-32, -0.998293 ]
    },
    {
      "name" : "c_tail3",
      "children" : [ 69 ],
      "translation" : [ 0.55, -4.89305e-16, -7.10543e-16 ],
      "rotation" : [ -7.96584e-33, -0.0339837, -5.29155e-32, -0.999422 ]
    },
    {
      "name" : "c_tail4",
      "children" : [ 70 ],
      "translation" : [ 0.45, 7.42043e-16, -7.10543e-16 ],
      "rotation" : [ -1.25922e-32, -0.0193702, -1.36253e-32, -0.999812 ]
    },
    {
      "name" : "c_tail5",
      "translation" : [ 0.4, -1.4843e-15, -2.55795e-15 ],
      "rotation" : [ -8.19005e-34, -0.0265782, -3.0804e-32, -0.999647 ]
    },
    {
      "name" : "l_hip",
      "children" : [ 72 ],
      "translation" : [ 0.0219308, -0.36567, -0.0107979 ],
      "rotation" : [ -0.023427, 0.553886, 0.127963, -0.822366 ]
    },
    {
      "name" : "l_legTwist",
      "children" : [ 73 ],
      "translation" : [ 0.329284, 0, -1.42109e-16 ],
      "rotation" : [ -0, -2.77556e-17, 0, -1 ]
    },
    {
      "name" : "l_knee",
      "children" : [ 74 ],
      "translation" : [ 0.329284, 1.42109e-16, 1.06581e-16 ],
      "rotation" : [ -7.41539e-18, 0.295499, 1.22328e-17, -0.955343 ]
    },
    {
      "name" : "l_kneeTwist",
      "children" : [ 75 ],
      "translation" : [ 0.227744, -2.84217e-16, -1.42109e-16 ],
      "rotation" : [ -3.46945e-18, -1.38778e-17, 4.81482e-35, -1 ]
    },
    {
      "name" : "l_ankle",
      "children" : [ 76, 78, 80, 82 ],
      "translation" : [ 0.408867, 0, 1.42109e-16 ],
      "rotation" : [ -0.0993665, -0.140713, -0.0839628, -0.981466 ]
    },
    {
      "name" : "l_backHeel",
      "children" : [ 77 ],
      "translation" : [ 0.192635, -1.68024e-10, 0.0675015 ],
      "rotation" : [ -1.59953e-32, -0.703833, -1.61437e-32, -0.710365 ]
    },
    {
      "name" : "l_backHeelEnd",
      "translation" : [ 0.291211, -2.17843e-09, 0.0013505 ],
      "rotation" : [ 0.00326598, -0.00326598, 0.707099, -0.707099 ]
    },
    {
      "name" : "l_backToeA1",
      "children" : [ 79 ],
      "translation" : [ 0.0696461, 0.0941341, -0.0616648 ],
      "rotation" : [ -0.0875109, -0.380314, -0.0780459, -0.917394 ]
    },
    {
      "name" : "l_backToeA2",
      "translation" : [ 0.14, -7.10543e-17, 4.9738e-16 ],
      "rotation" : [ 1.73472e-17, -2.77556e-17, 3.46945e-18, -1 ]
    },
    {
      "name" : "l_backToeB1",
      "children" : [ 81 ],
      "translation" : [ 0.0743058, -0.00892732, -0.0750827 ],
      "rotation" : [ 0.0106487, -0.448199, -0.000344856, -0.89387 ]
    },
    {
      "name" : "l_backToeB",
      "translation" : [ 0.14, 1.42109e-16, -1.88294e-15 ],
      "rotation" : [ 8.67362e-19, -1.12847e-36, 1.30104e-18, -1 ]
    },
    {
      "name" : "l_backToeC1",
      "children" : [ 83 ],
      "translation" : [ 0.0684419, -0.0967113, -0.0578786 ],
      "rotation" : [ 0.206549, -0.397007, 0.0927035, -0.889454 ]
    },
    {
      "name" : "l_backToeC2",
      "translation" : [ 0.14, -1.42109e-16, -2.30926e-16 ],
      "rotation" : [ -4.24465e-17, -1.26327e-33, -2.97613e-17, -1 ]
    },
    {
      "name" : "r_hip",
      "children" : [ 85 ],
      "translation" : [ 0.0219309, 0.36567, -0.0108017 ],
      "rotation" : [ 0.127963, -0.822366, 0.023427, -0.553886 ]
    },
    {
      "name" : "r_legTwist",
      "children" : [ 86 ],
      "translation" : [ -0.329286, -3.19141e-07, -5.44894e-07 ],
      "rotation" : [ -0, -0, -1.38778e-17, -1 ]
    },
    {
      "name" : "r_knee",
      "children" : [ 87 ],
      "translation" : [ -0.329286, -3.19141e-07, -5.44894e-07 ],
      "rotation" : [ -1.57862e-17, 0.295499, -1.94094e-17, -0.955343 ]
    },
    {
      "name" : "r_kneeTwist",
      "children" : [ 88 ],
      "translation" : [ -0.227744, -3.78225e-07, -8.0903e-07 ],
      "rotation" : [ -1.09531e-08, -1.38778e-17, -1.38778e-17, -1 ]
    },
    {
      "name" : "r_ankle",
      "children" : [ 89, 91, 93, 95 ],
      "translation" : [ -0.408867, -1.65431e-07, 5.09395e-07 ],
      "rotation" : [ -0.0993665, -0.140713, -0.0839628, -0.981466 ]
    },
    {
      "name" : "r_backHeel",
      "children" : [ 90 ],
      "translation" : [ -0.192635, 7.13138e-10, -0.067502 ],
      "rotation" : [ 1.19118e-08, -0.703833, -1.18022e-08, -0.710365 ]
    },
    {
      "name" : "r_backHeelEnd",
      "translation" : [ -0.291212, -3.0763e-09, -0.00135049 ],
      "rotation" : [ 0.00326598, -0.00326598, 0.707099, -0.707099 ]
    },
    {
      "name" : "r_backToeA1",
      "children" : [ 92 ],
      "translation" : [ -0.069647, -0.094134, 0.061665 ],
      "rotation" : [ 0.207043, -0.330802, 0.593509, -0.703882 ]
    },
    {
      "name" : "r_backToeA2",
      "translation" : [ -4.65341e-07, -0.139999, 1.63382e-07 ],
      "rotation" : [ 1.02796e-32, 4.85723e-17, -2.11636e-16, -1 ]
    },
    {
      "name" : "r_backToeB1",
      "children" : [ 94 ],
      "translation" : [ -0.074306, 0.008928, 0.075083 ],
      "rotation" : [ 0.324454, -0.309395, 0.631818, -0.632306 ]
    },
    {
      "name" : "r_backToeB",
      "translation" : [ 5.87442e-08, -0.14, -1.71466e-07 ],
      "rotation" : [ -3.76158e-37, 8.67362e-19, 4.33681e-19, -1 ]
    },
    {
      "name" : "r_backToeC1",
      "children" : [ 96 ],
      "translation" : [ -0.068442, 0.096712, 0.057878 ],
      "rotation" : [ 0.426779, -0.134674, 0.69449, -0.563388 ]
    },
    {
      "name" : "r_backToeC2",
      "translation" : [ 3.73863e-07, -0.140001, 2.9905e-07 ],
      "rotation" : [ -1.64528e-34, -1.00831e-17, -1.63172e-17, -1 ]
    }
  ],
  "skins" : [
    {
      "inverseBindMatrices" : 0,
      "skeleton" : 1,
      "joints" : [
        1,2,3,4,5,6,7,8,9,10,11,12,13,14,15,16,17,18,19,20,21,22,23,24,25,26,27,28,29,30,31,32,
        33,34,35,36,37,38,39,40,41,42,43,44,45,46,47,48,49,50,51,52,53,54,55,56,57,58,59,60,61,62,63,64,
        65,66,67,68,69,70,71,72,73,74,75,76,77,78,79,80,81,82,83,84,85,86,87,88,89,90,91,92,93,94,95,96
      ]
    }
  ],
  "materials" : [
    {
      "name" : "dummy_material_0",
      "pbrMetallicRoughness" : {
        "baseColorFactor" : [ 0.3, 0.3, 0.3, 1.0 ],
        "metallicFactor" : 0.1,
        "roughnessFactor" : 0.5
      }
    },
    {
      "name" : "dummy_material_1",
      "pbrMetallicRoughness" : {
        "baseColorFactor" : [ 0.9, 0.3, 0.3, 1.0 ],
        "metallicFactor" : 0.1,
        "roughnessFactor" : 0.5
      }
    }
  ],
  "meshes" : [
    {
      "primitives" : [
        {
          "attributes" : {
            "POSITION" : 2,
            "NORMAL" : 3,
            "TANGENT" : 4,
            "COLOR_0" : 5,
            "JOINTS_0" : 6,
            "WEIGHTS_0" : 7,
            "TEXCOORD_0" : 8,
            "TEXCOORD_1" : 9
          },
          "indices" : 1,
          "material" : 0
        },
        {
          "attributes" : {
            "POSITION" : 11,
            "NORMAL" : 12,
            "TANGENT" : 13,
            "COLOR_0" : 14,
            "JOINTS_0" : 15,
            "WEIGHTS_0" : 16,
            "TEXCOORD_0" : 17,
            "TEXCOORD_1" : 18
          },
          "indices" : 10,
          "material" : 1
        }
      ],
      "name" : "Trike"
    }
  ],
  "buffers" : [
    {
      "uri" : "Trike.bin",
      "byteLength" : 1380972
    }
  ],
  "bufferViews" : [
    {
      "buffer" : 0,
      "byteOffset" : 0,
      "byteLength" : 6144
    },
    {
      "buffer" : 0,
      "byteOffset" : 6144,
      "byteLength" : 68172
    },
    {
      "buffer" : 0,
      "byteOffset" : 74316,
      "byteLength" : 76512
    },
    {
      "buffer" : 0,
      "byteOffset" : 150828,
      "byteLength" : 76512
    },
    {
      "buffer" : 0,
      "byteOffset" : 227340,
      "byteLength" : 102016
    },
    {
      "buffer" : 0,
      "byteOffset" : 329356,
      "byteLength" : 25504
    },
    {
      "buffer" : 0,
      "byteOffset" : 354860,
      "byteLength" : 51008
    },
    {
      "buffer" : 0,
      "byteOffset" : 405868,
      "byteLength" : 25504
    },
    {
      "buffer" : 0,
      "byteOffset" : 431372,
      "byteLength" : 51008
    },
    {
      "buffer" : 0,
      "byteOffset" : 482380,
      "byteLength" : 51008
    },
    {
      "buffer" : 0,
      "byteOffset" : 533388,
      "byteLength" : 105912
    },
    {
      "buffer" : 0,
      "byteOffset" : 639300,
      "byteLength" : 123612
    },
    {
      "buffer" : 0,
      "byteOffset" : 762912,
      "byteLength" : 123612
    },
    {
      "buffer" : 0,
      "byteOffset" : 886524,
      "byteLength" : 164816
    },
    {
      "buffer" : 0,
      "byteOffset" : 1051340,
      "byteLength" : 41204
    },
    {
      "buffer" : 0,
      "byteOffset" : 1092544,
      "byteLength" : 82408
    },
    {
      "buffer" : 0,
      "byteOffset" : 1174952,
      "byteLength" : 41204
    },
    {
      "buffer" : 0,
      "byteOffset" : 1216156,
      "byteLength" : 82408
    },
    {
      "buffer" : 0,
      "byteOffset" : 1298564,
      "byteLength" : 82408
    }
  ],
  "accessors" : [
    {
      "bufferView" : 0,
      "componentType" : 5126,
      "count" : 96,
      "type" : "MAT4"
    },
    {
      "bufferView" : 1,
      "componentType" : 5123,
      "count" : 34086,
      "type" : "SCALAR"
    },
    {
      "bufferView" : 2,
      "min" : [ -0.639411, 0.947668, 0.374048 ],
      "max" : [ 0.639411, 2.29301, 2.0413 ],
      "componentType" : 5126,
      "count" : 6376,
      "type" : "VEC3"
    },
    {
      "bufferView" : 3,
      "componentType" : 5126,
      "count" : 6376,
      "type" : "VEC3"
    },
    {
      "bufferView" : 4,
      "componentType" : 5126,
      "count" : 6376,
      "type" : "VEC4"
    },
    {
      "bufferView" : 5,
      "normalized" : true,
      "componentType" : 5121,
      "count" : 6376,
      "type" : "VEC4"
    },
    {
      "bufferView" : 6,
      "componentType" : 5123,
      "count" : 6376,
      "type" : "VEC4"
    },
    {
      "bufferView" : 7,
      "normalized" : true,
      "componentType" : 5121,
      "count" : 6376,
      "type" : "VEC4"
    },
    {
      "bufferView" : 8,
      "componentType" : 5126,
      "count" : 6376,
      "type" : "VEC2"
    },
    {
      "bufferView" : 9,
      "componentType" : 5126,
      "count" : 6376,
      "type" : "VEC2"
    },
    {
      "bufferView" : 10,
      "componentType" : 5123,
      "count" : 52956,
      "type" : "SCALAR"
    },
    {
      "bufferView" : 11,
      "min" : [ -0.808754, -0.0158792, -3.50672 ],
      "max" : [ 0.808753, 2.76861, 2.08486 ],
      "componentType" : 5126,
      "count" : 10301,
      "type" : "VEC3"
    },
    {
      "bufferView" : 12,
      "componentType" : 5126,
      "count" : 10301,
      "type" : "VEC3"
    },
    {
      "bufferView" : 13,
      "componentType" : 5126,
      "count" : 10301,
      "type" : "VEC4"
    },
    {
      "bufferView" : 14,
      "normalized" : true,
      "componentType" : 5121,
      "count" : 10301,
      "type" : "VEC4"
    },
    {
      "bufferView" : 15,
      "componentType" : 5123,
      "count" : 10301,
      "type" : "VEC4"
    },
    {
      "bufferView" : 16,
      "normalized" : true,
      "componentType" : 5121,
      "count" : 10301,
      "type" : "VEC4"
    },
    {
      "bufferView" : 17,
      "componentType" : 5126,
      "count" : 10301,
      "type" : "VEC2"
    },
    {
      "bufferView" : 18,
      "componentType" : 5126,
      "count" : 10301,
      "type" : "VEC2"
    }
  ]
}
