{
  "asset" : {
    "generator" : "UE Viewer (umodel) build 1612-floxay",
    "version" : "2.0"
  },
  "scene" : 0,
  "scenes" : [
    {
      "nodes" : [ 0 ]
    }
  ],
  "nodes" : [
    {
      "name" : "TerrorBird",
      "mesh" : 0,
      "skin" : 0,
      "children" : [ 1 ]
    },
    {
      "name" : "root",
      "children" : [ 2 ],
      "translation" : [ 0, 0, -0 ],
      "rotation" : [ -0.707107, -0, 0, -0.707107 ]
    },
    {
      "name" : "c_back1",
      "children" : [ 3, 29, 43, 57 ],
      "translation" : [ -2.84217e-16, -0.084125, -1.25952 ],
      "rotation" : [ 0.0830896, -0.0830896, -0.702208, -0.702208 ]
    },
    {
      "name" : "c_back2",
      "children" : [ 4 ],
      "translation" : [ 0.151535, 1.10007e-16, -0.0046145 ],
      "rotation" : [ 4.73595e-33, -0.0218133, -3.0155e-32, -0.999762 ]
    },
    {
      "name" : "c_back3",
      "children" : [ 5 ],
      "translation" : [ 0.214323, 1.15946e-16, 0.000353252 ],
      "rotation" : [ 3.28398e-33, 0.0296662, -8.46808e-32, -0.99956 ]
    },
    {
      "name" : "c_back4",
      "children" : [ 6, 21, 25 ],
      "translation" : [ 0.214323, 7.31954e-17, 0.000353252 ],
      "rotation" : [ 1.51128e-33, 0.0269657, -5.60242e-32, -0.999636 ]
    },
    {
      "name" : "c_neck1",
      "children" : [ 7 ],
      "translation" : [ 0.327913, 9.56386e-17, 0.000353252 ],
      "rotation" : [ 3.2376e-32, -0.291679, -3.64507e-32, -0.956516 ]
    },
    {
      "name" : "c_neck2",
      "children" : [ 8 ],
      "translation" : [ 0.1999, 5.8058e-17, -6.39488e-16 ],
      "rotation" : [ 3.95664e-32, -0.171335, -8.27285e-32, -0.985213 ]
    },
    {
      "name" : "c_neck3",
      "children" : [ 9 ],
      "translation" : [ 0.20771, 4.62976e-17, -2.84217e-16 ],
      "rotation" : [ 1.29572e-32, 0.167323, 2.95476e-32, -0.985902 ]
    },
    {
      "name" : "c_neck4",
      "children" : [ 10 ],
      "translation" : [ 0.196563, 6.95565e-17, 2.84217e-16 ],
      "rotation" : [ -4.77113e-33, 0.311304, 1.9514e-32, -0.95031 ]
    },
    {
      "name" : "c_head",
      "children" : [ 11, 17, 18, 19, 20 ],
      "translation" : [ 0.174447, 1.47798e-17, -8.52651e-16 ],
      "rotation" : [ 1.7239e-32, 0.0916649, 3.96398e-32, -0.99579 ]
    },
    {
      "name" : "c_jaw",
      "children" : [ 12 ],
      "translation" : [ -0.0254906, -1.45436e-16, 0.0969155 ],
      "rotation" : [ -4.90626e-33, 0.0980624, 2.62231e-32, -0.99518 ]
    },
    {
      "name" : "c_tongue1",
      "children" : [ 13 ],
      "translation" : [ 0.0560731, 8.02978e-16, 0.00190435 ],
      "rotation" : [ -4.89437e-32, 0.214944, -7.15103e-32, -0.976626 ]
    },
    {
      "name" : "c_tongue2",
      "children" : [ 14 ],
      "translation" : [ 0.106894, 9.85461e-18, -0 ],
      "rotation" : [ 1.40073e-32, 0.255505, -2.73742e-32, -0.966808 ]
    },
    {
      "name" : "c_tongue3",
      "children" : [ 15 ],
      "translation" : [ 0.08094, 1.25874e-16, -8.52651e-16 ],
      "rotation" : [ 4.65644e-32, -0.126528, 1.19227e-32, -0.991963 ]
    },
    {
      "name" : "c_tongue4",
      "children" : [ 16 ],
      "translation" : [ 0.0653555, 1.46849e-16, 2.84217e-16 ],
      "rotation" : [ -2.51962e-32, -0.170562, -1.90934e-32, -0.985347 ]
    },
    {
      "name" : "c_tongue5",
      "translation" : [ 0.0647875, 1.0484e-16, 1.13687e-15 ],
      "rotation" : [ -4.80377e-32, -0.0132903, 3.76196e-32, -0.999912 ]
    },
    {
      "name" : "r_upperEye",
      "translation" : [ 0.15494, 0.0978557, -0.00343646 ],
      "rotation" : [ -0.706879, 0.706879, 0.0179245, -0.0179245 ]
    },
    {
      "name" : "r_lowerEye",
      "translation" : [ 0.137083, 0.107153, 0.0281898 ],
      "rotation" : [ -0.706879, 0.706879, 0.0179245, -0.0179245 ]
    },
    {
      "name" : "l_upperEye",
      "translation" : [ 0.15494, -0.0978557, -0.00343646 ],
      "rotation" : [ 0.0179245, -0.0179245, 0.706879, -0.706879 ]
    },
    {
      "name" : "l_lowerEye",
      "translation" : [ 0.137083, -0.107153, 0.0281898 ],
      "rotation" : [ 0.0179245, -0.0179245, 0.706879, -0.706879 ]
    },
    {
      "name" : "c_clavicle",
      "children" : [ 22 ],
      "translation" : [ 0.1083, -0.0887145, 0.152064 ],
      "rotation" : [ -0.04175, -0.109838, 0.713541, -0.690689 ]
    },
    {
      "name" : "l_shoulder",
      "children" : [ 23 ],
      "translation" : [ 0.198374, -5.68434e-16, -2.84217e-16 ],
      "rotation" : [ -0.0396235, 0.0504394, -0.308346, -0.949109 ]
    },
    {
      "name" : "l_elbow",
      "children" : [ 24 ],
      "translation" : [ 0.311619, -1.42109e-16, 8.52651e-16 ],
      "rotation" : [ -4.55587e-17, 4.04394e-17, 0.476008, -0.879441 ]
    },
    {
      "name" : "l_wrist",
      "translation" : [ 0.332351, -5.68434e-16, -8.52651e-16 ],
      "rotation" : [ -0, -0, 4.51028e-17, -1 ]
    },
    {
      "name" : "c_clavicle1",
      "children" : [ 26 ],
      "translation" : [ 0.1083, 0.0887145, 0.152064 ],
      "rotation" : [ -0.713541, 0.690689, -0.04175, -0.109838 ]
    },
    {
      "name" : "r_shoulder",
      "children" : [ 27 ],
      "translation" : [ -0.198374, 3.31402e-08, -8.06536e-07 ],
      "rotation" : [ -0.0396235, 0.0504394, -0.308346, -0.949109 ]
    },
    {
      "name" : "r_elbow",
      "children" : [ 28 ],
      "translation" : [ -0.311619, -4.12456e-07, -1.03104e-06 ],
      "rotation" : [ 3.43992e-17, -3.43992e-17, 0.476008, -0.879441 ]
    },
    {
      "name" : "r_wrist",
      "translation" : [ -0.332351, 1.36941e-06, 1.88008e-06 ],
      "rotation" : [ -2.16667e-34, 6.93889e-18, 3.1225e-17, -1 ]
    },
    {
      "name" : "l_leg",
      "children" : [ 30 ],
      "translation" : [ 0.00412851, -0.1775, 0.00130085 ],
      "rotation" : [ 0.0868457, 0.599911, 0.157624, -0.779563 ]
    },
    {
      "name" : "l_knee",
      "children" : [ 31 ],
      "translation" : [ 0.468131, -2.13163e-16, -7.10543e-17 ],
      "rotation" : [ 5.213e-18, 0.540704, 2.39724e-17, -0.841213 ]
    },
    {
      "name" : "l_ankle",
      "children" : [ 32, 35, 38, 41 ],
      "translation" : [ 0.443345, -7.10543e-17, 2.13163e-16 ],
      "rotation" : [ -0.0544216, -0.444702, 0.0261009, -0.893643 ]
    },
    {
      "name" : "l_toeC1",
      "children" : [ 33 ],
      "translation" : [ 0.466513, -0.0488447, 0.00432389 ],
      "rotation" : [ 0.358648, -0.310959, 0.266399, -0.838873 ]
    },
    {
      "name" : "l_toeC2",
      "children" : [ 34 ],
      "translation" : [ 0.0588235, 1.59872e-16, -1.77636e-16 ],
      "rotation" : [ 0.00444656, -0.216359, -0.0207443, -0.976083 ]
    },
    {
      "name" : "l_toeC3",
      "translation" : [ 0.0608115, 1.77636e-16, -5.32907e-17 ],
      "rotation" : [ 0.000116022, -0.0622118, -0.00291137, -0.998059 ]
    },
    {
      "name" : "l_toeB1",
      "children" : [ 36 ],
      "translation" : [ 0.465575, 0.000250135, -0.0384365 ],
      "rotation" : [ -0.00324194, -0.371636, 0.0171953, -0.928214 ]
    },
    {
      "name" : "l_toeB2",
      "children" : [ 37 ],
      "translation" : [ 0.0943336, 0, -3.01981e-16 ],
      "rotation" : [ -1.14904e-17, -0.239329, -3.2119e-17, -0.970938 ]
    },
    {
      "name" : "l_toeB3",
      "translation" : [ 0.0856567, 2.84217e-16, -7.10543e-17 ],
      "rotation" : [ 5.58715e-18, -0.0363844, -3.72535e-17, -0.999338 ]
    },
    {
      "name" : "l_toeA1",
      "children" : [ 39 ],
      "translation" : [ 0.464518, 0.055238, -0.016685 ],
      "rotation" : [ -0.194004, -0.379438, -0.134466, -0.894599 ]
    },
    {
      "name" : "l_toeA2",
      "children" : [ 40 ],
      "translation" : [ 0.0730235, 5.32907e-17, -2.84217e-16 ],
      "rotation" : [ 0.00108769, -0.200914, -0.00555212, -0.979592 ]
    },
    {
      "name" : "l_toeA3",
      "translation" : [ 0.0856567, 0, -4.21885e-17 ],
      "rotation" : [ 1.0754e-05, -0.044545, -0.000281974, -0.999007 ]
    },
    {
      "name" : "l_toeD2",
      "children" : [ 42 ],
      "translation" : [ 0.389889, 0.00593398, 0.0355512 ],
      "rotation" : [ -0.834934, -0.00576636, -0.549756, -0.0249224 ]
    },
    {
      "name" : "l_toeD3",
      "translation" : [ 0.115623, -2.57927e-14, -3.55449e-14 ],
      "rotation" : [ 0.000146473, -0.255808, -0.0024256, -0.966725 ]
    },
    {
      "name" : "r_leg",
      "children" : [ 44 ],
      "translation" : [ 0.00412938, 0.1775, 0.00130247 ],
      "rotation" : [ 0.157504, -0.778414, -0.0894615, -0.60105 ]
    },
    {
      "name" : "r_knee",
      "children" : [ 45 ],
      "translation" : [ -0.468138, 2.45491e-07, 1.42322e-07 ],
      "rotation" : [ -3.37271e-08, 0.539875, 7.46228e-08, -0.841745 ]
    },
    {
      "name" : "r_ankle",
      "children" : [ 46, 49, 52, 55 ],
      "translation" : [ -0.443359, -1.92742e-08, -1.08e-07 ],
      "rotation" : [ -0.0518511, -0.447651, 0.0321637, -0.892124 ]
    },
    {
      "name" : "r_toeA1",
      "children" : [ 47 ],
      "translation" : [ -0.464525, -0.0552279, 0.0166964 ],
      "rotation" : [ -0.206229, -0.377638, -0.154213, -0.889425 ]
    },
    {
      "name" : "r_toeA2",
      "children" : [ 48 ],
      "translation" : [ -0.0730233, -2.86777e-08, -1.06438e-08 ],
      "rotation" : [ 1.29199e-05, -0.198791, -6.57635e-05, -0.980042 ]
    },
    {
      "name" : "r_toeA3",
      "translation" : [ -0.0856569, 3.58421e-09, 2.59723e-08 ],
      "rotation" : [ 1.31421e-07, -0.0448002, -3.45317e-06, -0.998996 ]
    },
    {
      "name" : "r_toeB1",
      "children" : [ 50 ],
      "translation" : [ -0.465575, -0.000250305, 0.038437 ],
      "rotation" : [ -0.00460823, -0.36817, 0.00691564, -0.929721 ]
    },
    {
      "name" : "r_toeB2",
      "children" : [ 51 ],
      "translation" : [ -0.0943335, 3.09426e-07, -4.4438e-08 ],
      "rotation" : [ -0.00136739, -0.240058, 0.00552657, -0.970742 ]
    },
    {
      "name" : "r_toeB3",
      "translation" : [ -0.0856571, 1.42259e-06, -4.38778e-08 ],
      "rotation" : [ -7.93898e-07, -0.0371819, 2.13951e-05, -0.999308 ]
    },
    {
      "name" : "r_toeC1",
      "children" : [ 53 ],
      "translation" : [ -0.466513, 0.0488451, -0.00432352 ],
      "rotation" : [ 0.352682, -0.310707, 0.245669, -0.847776 ]
    },
    {
      "name" : "r_toeC2",
      "children" : [ 54 ],
      "translation" : [ -0.0588241, 3.7454e-07, 4.55396e-07 ],
      "rotation" : [ 0.000944192, -0.220927, -0.0044284, -0.97528 ]
    },
    {
      "name" : "r_toeC3",
      "translation" : [ -0.0608088, -1.09451e-06, -2.23615e-07 ],
      "rotation" : [ 2.44404e-05, -0.0619218, -0.000602971, -0.998081 ]
    },
    {
      "name" : "r_toeD1",
      "children" : [ 56 ],
      "translation" : [ -0.389578, -0.00569524, -0.0356294 ],
      "rotation" : [ -0.51499, 0.0173216, 0.856697, -0.0235599 ]
    },
    {
      "name" : "r_toeD3",
      "translation" : [ 0.115623, 0.000701337, -0.00969261 ],
      "rotation" : [ 0.00745945, -0.945125, -0.0123043, 0.326393 ]
    },
    {
      "name" : "c_tail1",
      "children" : [ 58 ],
      "translation" : [ -0.292271, -3.7057e-16, 0.122723 ],
      "rotation" : [ 0.286825, -0.00210093, 0.957981, 0.000629031 ]
    },
    {
      "name" : "c_tail2",
      "children" : [ 59 ],
      "translation" : [ 0.288544, 2.55351e-17, -0 ],
      "rotation" : [ -0, 0.0279565, -0, -0.999609 ]
    },
    {
      "name" : "c_tail3",
      "translation" : [ 0.344314, -1.11022e-18, 1.42109e-16 ],
      "rotation" : [ -2.31263e-19, -0.0688859, -2.01388e-19, -0.997625 ]
    }
  ],
  "skins" : [
    {
      "inverseBindMatrices" : 0,
      "skeleton" : 1,
      "joints" : [
        1,2,3,4,5,6,7,8,9,10,11,12,13,14,15,16,17,18,19,20,21,22,23,24,25,26,27,28,29,30,31,32,
        33,34,35,36,37,38,39,40,41,42,43,44,45,46,47,48,49,50,51,52,53,54,55,56,57,58,59
      ]
    }
  ],
  "materials" : [
    {
      "name" : "dummy_material_0",
      "pbrMetallicRoughness" : {
        "baseColorFactor" : [ 0.3, 0.3, 0.3, 1.0 ],
        "metallicFactor" : 0.1,
        "roughnessFactor" : 0.5
      }
    },
    {
      "name" : "dummy_material_1",
      "pbrMetallicRoughness" : {
        "baseColorFactor" : [ 0.9, 0.3, 0.3, 1.0 ],
        "metallicFactor" : 0.1,
        "roughnessFactor" : 0.5
      }
    }
  ],
  "meshes" : [
    {
      "primitives" : [
        {
          "attributes" : {
            "POSITION" : 2,
            "NORMAL" : 3,
            "TANGENT" : 4,
            "COLOR_0" : 5,
            "JOINTS_0" : 6,
            "WEIGHTS_0" : 7,
            "TEXCOORD_0" : 8,
            "TEXCOORD_1" : 9,
            "TEXCOORD_2" : 10
          },
          "indices" : 1,
          "material" : 0
        },
        {
          "attributes" : {
            "POSITION" : 12,
            "NORMAL" : 13,
            "TANGENT" : 14,
            "COLOR_0" : 15,
            "JOINTS_0" : 16,
            "WEIGHTS_0" : 17,
            "TEXCOORD_0" : 18,
            "TEXCOORD_1" : 19,
            "TEXCOORD_2" : 20
          },
          "indices" : 11,
          "material" : 1
        }
      ],
      "name" : "TerrorBird"
    }
  ],
  "buffers" : [
    {
      "uri" : "TerrorBird.bin",
      "byteLength" : 2845644
    }
  ],
  "bufferViews" : [
    {
      "buffer" : 0,
      "byteOffset" : 0,
      "byteLength" : 3776
    },
    {
      "buffer" : 0,
      "byteOffset" : 3776,
      "byteLength" : 124680
    },
    {
      "buffer" : 0,
      "byteOffset" : 128456,
      "byteLength" : 143532
    },
    {
      "buffer" : 0,
      "byteOffset" : 271988,
      "byteLength" : 143532
    },
    {
      "buffer" : 0,
      "byteOffset" : 415520,
      "byteLength" : 191376
    },
    {
      "buffer" : 0,
      "byteOffset" : 606896,
      "byteLength" : 47844
    },
    {
      "buffer" : 0,
      "byteOffset" : 654740,
      "byteLength" : 95688
    },
    {
      "buffer" : 0,
      "byteOffset" : 750428,
      "byteLength" : 47844
    },
    {
      "buffer" : 0,
      "byteOffset" : 798272,
      "byteLength" : 95688
    },
    {
      "buffer" : 0,
      "byteOffset" : 893960,
      "byteLength" : 95688
    },
    {
      "buffer" : 0,
      "byteOffset" : 989648,
      "byteLength" : 95688
    },
    {
      "buffer" : 0,
      "byteOffset" : 1085336,
      "byteLength" : 66228
    },
    {
      "buffer" : 0,
      "byteOffset" : 1151564,
      "byteLength" : 254112
    },
    {
      "buffer" : 0,
      "byteOffset" : 1405676,
      "byteLength" : 254112
    },
    {
      "buffer" : 0,
      "byteOffset" : 1659788,
      "byteLength" : 338816
    },
    {
      "buffer" : 0,
      "byteOffset" : 1998604,
      "byteLength" : 84704
    },
    {
      "buffer" : 0,
      "byteOffset" : 2083308,
      "byteLength" : 169408
    },
    {
      "buffer" : 0,
      "byteOffset" : 2252716,
      "byteLength" : 84704
    },
    {
      "buffer" : 0,
      "byteOffset" : 2337420,
      "byteLength" : 169408
    },
    {
      "buffer" : 0,
      "byteOffset" : 2506828,
      "byteLength" : 169408
    },
    {
      "buffer" : 0,
      "byteOffset" : 2676236,
      "byteLength" : 169408
    }
  ],
  "accessors" : [
    {
      "bufferView" : 0,
      "componentType" : 5126,
      "count" : 59,
      "type" : "MAT4"
    },
    {
      "bufferView" : 1,
      "componentType" : 5123,
      "count" : 62340,
      "type" : "SCALAR"
    },
    {
      "bufferView" : 2,
      "min" : [ -0.949636, -0.0461693, -1.00959 ],
      "max" : [ 0.949651, 2.10618, 1.80325 ],
      "componentType" : 5126,
      "count" : 11961,
      "type" : "VEC3"
    },
    {
      "bufferView" : 3,
      "componentType" : 5126,
      "count" : 11961,
      "type" : "VEC3"
    },
    {
      "bufferView" : 4,
      "componentType" : 5126,
      "count" : 11961,
      "type" : "VEC4"
    },
    {
      "bufferView" : 5,
      "normalized" : true,
      "componentType" : 5121,
      "count" : 11961,
      "type" : "VEC4"
    },
    {
      "bufferView" : 6,
      "componentType" : 5123,
      "count" : 11961,
      "type" : "VEC4"
    },
    {
      "bufferView" : 7,
      "normalized" : true,
      "componentType" : 5121,
      "count" : 11961,
      "type" : "VEC4"
    },
    {
      "bufferView" : 8,
      "componentType" : 5126,
      "count" : 11961,
      "type" : "VEC2"
    },
    {
      "bufferView" : 9,
      "componentType" : 5126,
      "count" : 11961,
      "type" : "VEC2"
    },
    {
      "bufferView" : 10,
      "componentType" : 5126,
      "count" : 11961,
      "type" : "VEC2"
    },
    {
      "bufferView" : 11,
      "componentType" : 5123,
      "count" : 33114,
      "type" : "SCALAR"
    },
    {
      "bufferView" : 12,
      "min" : [ -0.966701, 0.35825, -1.06046 ],
      "max" : [ 0.90905, 2.19097, 1.57063 ],
      "componentType" : 5126,
      "count" : 21176,
      "type" : "VEC3"
    },
    {
      "bufferView" : 13,
      "componentType" : 5126,
      "count" : 21176,
      "type" : "VEC3"
    },
    {
      "bufferView" : 14,
      "componentType" : 5126,
      "count" : 21176,
      "type" : "VEC4"
    },
    {
      "bufferView" : 15,
      "normalized" : true,
      "componentType" : 5121,
      "count" : 21176,
      "type" : "VEC4"
    },
    {
      "bufferView" : 16,
      "componentType" : 5123,
      "count" : 21176,
      "type" : "VEC4"
    },
    {
      "bufferView" : 17,
      "normalized" : true,
      "componentType" : 5121,
      "count" : 21176,
      "type" : "VEC4"
    },
    {
      "bufferView" : 18,
      "componentType" : 5126,
      "count" : 21176,
      "type" : "VEC2"
    },
    {
      "bufferView" : 19,
      "componentType" : 5126,
      "count" : 21176,
      "type" : "VEC2"
    },
    {
      "bufferView" : 20,
      "componentType" : 5126,
      "count" : 21176,
      "type" : "VEC2"
    }
  ]
}
