{
  "asset" : {
    "generator" : "UE Viewer (umodel) build 1612-floxay",
    "version" : "2.0"
  },
  "scene" : 0,
  "scenes" : [
    {
      "nodes" : [ 0 ]
    }
  ],
  "nodes" : [
    {
      "name" : "Acro_Mesh",
      "mesh" : 0,
      "skin" : 0,
      "children" : [ 1 ]
    },
    {
      "name" : "Acrocanthosaurus",
      "children" : [ 2 ],
      "translation" : [ 0, 0, -0 ],
      "rotation" : [ -0.707107, -0, 0, -0.707107 ]
    },
    {
      "name" : "Root_M",
      "children" : [ 3, 22, 257, 282 ],
      "translation" : [ -1.58465e-29, 0.0505276, -3.10141 ],
      "rotation" : [ -0.706942, -0.706942, -0.0152737, 0.0152737 ]
    },
    {
      "name" : "Tail0_M",
      "children" : [ 4 ],
      "translation" : [ -0.434581, 1.78299e-16, -0.30758 ],
      "rotation" : [ -0.0495233, 6.11572e-17, 0.998773, 3.03243e-18 ]
    },
    {
      "name" : "Tail0Part1_M",
      "children" : [ 5 ],
      "translation" : [ 0.39929, -9.6326e-15, 1.13687e-15 ],
      "rotation" : [ -1.57772e-30, -0, -9.86076e-32, -1 ]
    },
    {
      "name" : "Tail0Part2_M",
      "children" : [ 6 ],
      "translation" : [ 0.39929, -7.99238e-15, 1.13687e-15 ],
      "rotation" : [ -1.57772e-30, -0, -9.86076e-32, -1 ]
    },
    {
      "name" : "Tail1_M",
      "children" : [ 7 ],
      "translation" : [ 0.39929, -6.7341e-15, -0 ],
      "rotation" : [ -0, 0.000225939, -0, -1 ]
    },
    {
      "name" : "Tail1Part1_M",
      "children" : [ 8 ],
      "translation" : [ 0.39929, -4.68635e-15, -1.7053e-14 ],
      "rotation" : [ 3.15544e-30, -0, 1.97215e-31, -1 ]
    },
    {
      "name" : "Tail1Part2_M",
      "children" : [ 9 ],
      "translation" : [ 0.39929, -3.16998e-17, -1.98952e-14 ],
      "rotation" : [ 3.15544e-30, -0, 1.97215e-31, -1 ]
    },
    {
      "name" : "Tail2_M",
      "children" : [ 10 ],
      "translation" : [ 0.39929, 4.83327e-15, -2.21689e-14 ],
      "rotation" : [ 1.57726e-30, 0.00229609, 2.00837e-31, -0.999997 ]
    },
    {
      "name" : "Tail2Part1_M",
      "children" : [ 11 ],
      "translation" : [ 0.399285, 9.17e-15, 1.13687e-15 ],
      "rotation" : [ -1.57772e-30, -0, -9.86076e-32, -1 ]
    },
    {
      "name" : "Tail2Part2_M",
      "children" : [ 12 ],
      "translation" : [ 0.399285, 1.07215e-14, 7.95808e-15 ],
      "rotation" : [ -1.57772e-30, -0, -9.86076e-32, -1 ]
    },
    {
      "name" : "Tail3_M",
      "children" : [ 13 ],
      "translation" : [ 0.399285, 1.22792e-14, 5.68434e-16 ],
      "rotation" : [ -3.15544e-30, -2.27981e-05, 7.19382e-35, -1 ]
    },
    {
      "name" : "Tail3Part1_M",
      "children" : [ 14 ],
      "translation" : [ 0.399284, 1.39331e-14, 1.50067e-13 ],
      "rotation" : [ 1.57772e-30, -0, 1.97215e-31, -1 ]
    },
    {
      "name" : "Tail3Part2_M",
      "children" : [ 15 ],
      "translation" : [ 0.399284, 1.70805e-14, 1.50067e-13 ],
      "rotation" : [ 1.57772e-30, -0, 1.97215e-31, -1 ]
    },
    {
      "name" : "Tail4_M",
      "children" : [ 16 ],
      "translation" : [ 0.399284, 1.99173e-14, 1.50635e-13 ],
      "rotation" : [ 1.57796e-30, -0.00250158, 9.46605e-32, -0.999997 ]
    },
    {
      "name" : "Tail4Part1_M",
      "children" : [ 17 ],
      "translation" : [ 0.389627, 2.29414e-14, 8.52651e-15 ],
      "rotation" : [ -1.57772e-30, -0, 0, -1 ]
    },
    {
      "name" : "Tail4Part2_M",
      "children" : [ 18 ],
      "translation" : [ 0.389627, 2.51043e-14, 2.10321e-14 ],
      "rotation" : [ -1.57772e-30, -0, 0, -1 ]
    },
    {
      "name" : "Tail5_M",
      "children" : [ 19 ],
      "translation" : [ 0.389627, 2.72477e-14, 1.13687e-14 ],
      "rotation" : [ -6.8456e-34, 0.00694226, 9.86052e-32, -0.999976 ]
    },
    {
      "name" : "Tail5Part1_M",
      "children" : [ 20 ],
      "translation" : [ 0.39539, 2.97503e-14, -4.54747e-15 ],
      "rotation" : [ 3.15544e-30, -0, 9.86076e-32, -1 ]
    },
    {
      "name" : "Tail5Part2_M",
      "children" : [ 21 ],
      "translation" : [ 0.39539, 3.04526e-14, 3.97904e-15 ],
      "rotation" : [ 3.15544e-30, -0, 9.86076e-32, -1 ]
    },
    {
      "name" : "Tail6_M",
      "translation" : [ 0.00079078, 6.20492e-17, -0 ],
      "rotation" : [ 3.15544e-30, -0, 9.86076e-32, -1 ]
    },
    {
      "name" : "Spine1_M",
      "children" : [ 23, 255 ],
      "translation" : [ 0.709451, 3.72993e-15, 3.41061e-15 ],
      "rotation" : [ -3.93381e-34, 0.0159574, 2.46488e-32, -0.999873 ]
    },
    {
      "name" : "Spine2_M",
      "children" : [ 24 ],
      "translation" : [ 0.658806, -1.69763e-14, -1.7053e-15 ],
      "rotation" : [ 1.57788e-30, -0.00223983, 7.04217e-32, -0.999997 ]
    },
    {
      "name" : "Chest_M",
      "children" : [ 25, 213, 234 ],
      "translation" : [ 0.655911, -3.02285e-14, 1.13687e-15 ],
      "rotation" : [ -1.11803e-31, -0.141727, -7.80898e-31, -0.989906 ]
    },
    {
      "name" : "Neck0_M",
      "children" : [ 26, 211 ],
      "translation" : [ 0.411799, -3.76515e-14, -1.13687e-15 ],
      "rotation" : [ 2.16061e-30, 0.433173, 2.78887e-30, -0.901311 ]
    },
    {
      "name" : "Neck1_M",
      "children" : [ 27, 209 ],
      "translation" : [ 0.470845, -9.87456e-15, 3.60411e-09 ],
      "rotation" : [ 1.65686e-30, 0.0514859, -1.4944e-30, -0.998674 ]
    },
    {
      "name" : "Neck5_M",
      "children" : [ 28, 207 ],
      "translation" : [ 0.493655, -7.71984e-15, -4.06784e-09 ],
      "rotation" : [ -0, -0.0310891, 0, -0.999516 ]
    },
    {
      "name" : "Head_M",
      "children" : [ 29, 30, 32, 34 ],
      "translation" : [ 0.552144, 5.37961e-15, -1.24527e-09 ],
      "rotation" : [ 1.31985e-30, -0.336463, -9.95137e-31, -0.941697 ]
    },
    {
      "name" : "HeadEnd_M",
      "translation" : [ 0.00217934, -3.65371e-16, -5.68434e-16 ],
      "rotation" : [ 1.57772e-30, -3.46945e-18, -0, -1 ]
    },
    {
      "name" : "eyeMembrane1_R",
      "children" : [ 31 ],
      "translation" : [ 0.352622, -0.13076, 0.142773 ],
      "rotation" : [ -0.797098, 0.570644, 0.169226, -0.101797 ]
    },
    {
      "name" : "eyeMembrane2_R",
      "translation" : [ 0.000275944, 2.84217e-16, -0 ],
      "rotation" : [ -2.77556e-17, -1.38778e-17, 3.85186e-34, -1 ]
    },
    {
      "name" : "eyeMembrane1_L",
      "children" : [ 33 ],
      "translation" : [ 0.352622, 0.13076, 0.142773 ],
      "rotation" : [ 0.169226, -0.101797, 0.797098, -0.570644 ]
    },
    {
      "name" : "eyeMembrane2_L",
      "translation" : [ -0.000275944, -2.84217e-16, -0 ],
      "rotation" : [ -0, -0, -1.38778e-17, -1 ]
    },
    {
      "name" : "Face_M",
      "children" : [ 35, 97, 101 ],
      "translation" : [ 0.000237721, -6.60784e-19, 1.18117e-05 ],
      "rotation" : [ -0.706889, -0.706889, -0.0175508, -0.0175508 ]
    },
    {
      "name" : "upperFaceJoint_M",
      "children" : [ 36, 38, 40, 63, 86, 87, 88, 89, 90, 91, 92, 93, 94, 95, 96 ],
      "translation" : [ 9.88673e-14, 0.0826409, -0.0879711 ],
      "rotation" : [ -2.46519e-32, -0, -7.02404e-31, -1 ]
    },
    {
      "name" : "Eye_R",
      "children" : [ 37 ],
      "translation" : [ -0.13076, 0.276394, -0.0371271 ],
      "rotation" : [ -0.707107, -0.707107, 9.25732e-08, 9.25732e-08 ]
    },
    {
      "name" : "EyeEnd_R",
      "translation" : [ 0.00227428, 0, -0 ],
      "rotation" : [ 0, -5.66994e-31, 1.4994e-24, -1 ]
    },
    {
      "name" : "Eye_L",
      "children" : [ 39 ],
      "translation" : [ 0.13076, 0.276394, -0.0371271 ],
      "rotation" : [ -0.707107, -0.707107, 9.25732e-08, 9.25732e-08 ]
    },
    {
      "name" : "EyeEnd_L",
      "translation" : [ 0.00227428, 0, -0 ],
      "rotation" : [ 0, -5.66994e-31, 1.4994e-24, -1 ]
    },
    {
      "name" : "LidJoints_R",
      "children" : [ 41, 42, 43, 44, 45, 46, 47, 48, 49, 50, 51, 52, 53, 54, 55, 56, 57, 58, 59, 60, 61, 62 ],
      "translation" : [ -0.13076, 0.276394, -0.0371271 ],
      "rotation" : [ -1, -7.02404e-31, 0, 7.27366e-16 ]
    },
    {
      "name" : "upperLidMain0_R",
      "translation" : [ -0.0173154, -0.056181, -0.0339869 ],
      "rotation" : [ -0.208451, -0.153881, 0.777056, -0.573631 ]
    },
    {
      "name" : "upperLidMain1_R",
      "translation" : [ -0.0225454, -0.059481, -0.0275871 ],
      "rotation" : [ -0.167202, -0.115434, 0.805766, -0.556291 ]
    },
    {
      "name" : "upperLidMain2_R",
      "translation" : [ -0.0271254, -0.061231, -0.0196919 ],
      "rotation" : [ -0.119441, -0.0777237, 0.82961, -0.539852 ]
    },
    {
      "name" : "upperLidMain3_R",
      "translation" : [ -0.0320604, -0.0596508, -0.00564188 ],
      "rotation" : [ -0.035661, -0.0213188, 0.857577, -0.512674 ]
    },
    {
      "name" : "upperLidMain4_R",
      "translation" : [ -0.0382105, -0.050886, 0.00934303 ],
      "rotation" : [ 0.0651467, 0.0325498, 0.892181, -0.445768 ]
    },
    {
      "name" : "upperLidMain5_R",
      "translation" : [ -0.0459604, -0.0399259, 0.0195479 ],
      "rotation" : [ 0.144931, 0.05416, 0.925451, -0.345836 ]
    },
    {
      "name" : "upperLidMain6_R",
      "translation" : [ -0.0528104, -0.0257909, 0.0242081 ],
      "rotation" : [ 0.189135, 0.0437164, 0.955778, -0.220917 ]
    },
    {
      "name" : "upperLidMain7_R",
      "translation" : [ -0.0560004, -0.011631, 0.0250831 ],
      "rotation" : [ 0.204104, 0.0209718, 0.973599, -0.100038 ]
    },
    {
      "name" : "upperLidMain8_R",
      "translation" : [ -0.0613854, 0.00161409, 0.021463 ],
      "rotation" : [ 0.167319, -0.0021994, 0.985815, 0.0129585 ]
    },
    {
      "name" : "upperLidMain9_R",
      "translation" : [ -0.0608204, 0.0153741, 0.014458 ],
      "rotation" : [ 0.112149, -0.013955, 0.985989, 0.122689 ]
    },
    {
      "name" : "upperLidMain10_R",
      "translation" : [ -0.0560704, 0.0245741, 0.00923306 ],
      "rotation" : [ 0.0731869, -0.0153339, 0.976008, 0.20449 ]
    },
    {
      "name" : "lowerLidMain0_R",
      "translation" : [ -0.0173154, -0.056181, -0.0339869 ],
      "rotation" : [ -0.208451, -0.153881, 0.777056, -0.573631 ]
    },
    {
      "name" : "lowerLidMain1_R",
      "translation" : [ -0.0257405, -0.051516, -0.0400069 ],
      "rotation" : [ -0.241054, -0.157483, 0.80172, -0.523771 ]
    },
    {
      "name" : "lowerLidMain2_R",
      "translation" : [ -0.0369254, -0.0447458, -0.0419319 ],
      "rotation" : [ -0.265519, -0.147909, 0.832272, -0.463622 ]
    },
    {
      "name" : "lowerLidMain3_R",
      "translation" : [ -0.0441255, -0.0340259, -0.0427321 ],
      "rotation" : [ -0.281513, -0.129005, 0.864406, -0.396118 ]
    },
    {
      "name" : "lowerLidMain4_R",
      "translation" : [ -0.0506154, -0.0208008, -0.0413319 ],
      "rotation" : [ -0.299985, -0.110006, 0.889649, -0.326239 ]
    },
    {
      "name" : "lowerLidMain5_R",
      "translation" : [ -0.0567454, -0.00897586, -0.0371271 ],
      "rotation" : [ -0.310632, -0.0834022, 0.914476, -0.24553 ]
    },
    {
      "name" : "lowerLidMain6_R",
      "translation" : [ -0.0624005, 0.00123411, -0.0286269 ],
      "rotation" : [ -0.307376, -0.0530279, 0.936279, -0.161525 ]
    },
    {
      "name" : "lowerLidMain7_R",
      "translation" : [ -0.0644154, 0.00995904, -0.0190419 ],
      "rotation" : [ -0.285824, -0.0256546, 0.954103, -0.0856371 ]
    },
    {
      "name" : "lowerLidMain8_R",
      "translation" : [ -0.0638404, 0.017969, -0.00868708 ],
      "rotation" : [ -0.241948, -0.00572957, 0.97, -0.0229706 ]
    },
    {
      "name" : "lowerLidMain9_R",
      "translation" : [ -0.0580004, 0.0246841, 0.000708103 ],
      "rotation" : [ -0.126232, 0.0112578, 0.988015, 0.0881147 ]
    },
    {
      "name" : "lowerLidMain10_R",
      "translation" : [ -0.0560704, 0.0245741, 0.00923306 ],
      "rotation" : [ 0.0731869, -0.0153339, 0.976008, 0.20449 ]
    },
    {
      "name" : "LidJoints_L",
      "children" : [ 64, 65, 66, 67, 68, 69, 70, 71, 72, 73, 74, 75, 76, 77, 78, 79, 80, 81, 82, 83, 84, 85 ],
      "translation" : [ 0.13076, 0.276394, -0.0371271 ],
      "rotation" : [ -2.46519e-32, -0, -7.02404e-31, -1 ]
    },
    {
      "name" : "upperLidMain0_L",
      "translation" : [ 0.0173154, 0.056181, 0.0339869 ],
      "rotation" : [ -0.153881, 0.208451, -0.573631, -0.777056 ]
    },
    {
      "name" : "upperLidMain1_L",
      "translation" : [ 0.0225454, 0.059481, 0.0275871 ],
      "rotation" : [ -0.115434, 0.167202, -0.556291, -0.805766 ]
    },
    {
      "name" : "upperLidMain2_L",
      "translation" : [ 0.0271254, 0.061231, 0.0196919 ],
      "rotation" : [ -0.0777237, 0.119441, -0.539852, -0.82961 ]
    },
    {
      "name" : "upperLidMain3_L",
      "translation" : [ 0.0320604, 0.0596508, 0.00564188 ],
      "rotation" : [ -0.0213188, 0.035661, -0.512674, -0.857577 ]
    },
    {
      "name" : "upperLidMain4_L",
      "translation" : [ 0.0382105, 0.050886, -0.00934303 ],
      "rotation" : [ 0.0325498, -0.0651467, -0.445768, -0.892181 ]
    },
    {
      "name" : "upperLidMain5_L",
      "translation" : [ 0.0459604, 0.0399259, -0.0195479 ],
      "rotation" : [ 0.05416, -0.144931, -0.345836, -0.925451 ]
    },
    {
      "name" : "upperLidMain6_L",
      "translation" : [ 0.0528104, 0.0257909, -0.0242081 ],
      "rotation" : [ 0.0437164, -0.189135, -0.220917, -0.955778 ]
    },
    {
      "name" : "upperLidMain7_L",
      "translation" : [ 0.0560004, 0.011631, -0.0250831 ],
      "rotation" : [ 0.0209718, -0.204104, -0.100038, -0.973599 ]
    },
    {
      "name" : "upperLidMain8_L",
      "translation" : [ 0.0613854, -0.00161409, -0.021463 ],
      "rotation" : [ -0.0021994, -0.167319, 0.0129585, -0.985815 ]
    },
    {
      "name" : "upperLidMain9_L",
      "translation" : [ 0.0608204, -0.0153741, -0.014458 ],
      "rotation" : [ -0.013955, -0.112149, 0.122689, -0.985989 ]
    },
    {
      "name" : "upperLidMain10_L",
      "translation" : [ 0.0560704, -0.0245741, -0.00923306 ],
      "rotation" : [ -0.0153339, -0.0731869, 0.20449, -0.976008 ]
    },
    {
      "name" : "lowerLidMain0_L",
      "translation" : [ 0.0173154, 0.056181, 0.0339869 ],
      "rotation" : [ -0.153881, 0.208451, -0.573631, -0.777056 ]
    },
    {
      "name" : "lowerLidMain1_L",
      "translation" : [ 0.0257405, 0.051516, 0.0400069 ],
      "rotation" : [ -0.157483, 0.241054, -0.523771, -0.80172 ]
    },
    {
      "name" : "lowerLidMain2_L",
      "translation" : [ 0.0369254, 0.0447458, 0.0419319 ],
      "rotation" : [ -0.147909, 0.265519, -0.463622, -0.832272 ]
    },
    {
      "name" : "lowerLidMain3_L",
      "translation" : [ 0.0441255, 0.0340259, 0.0427321 ],
      "rotation" : [ -0.129005, 0.281513, -0.396118, -0.864406 ]
    },
    {
      "name" : "lowerLidMain4_L",
      "translation" : [ 0.0506154, 0.0208008, 0.0413319 ],
      "rotation" : [ -0.110006, 0.299985, -0.326239, -0.889649 ]
    },
    {
      "name" : "lowerLidMain5_L",
      "translation" : [ 0.0567454, 0.00897586, 0.0371271 ],
      "rotation" : [ -0.0834022, 0.310632, -0.24553, -0.914476 ]
    },
    {
      "name" : "lowerLidMain6_L",
      "translation" : [ 0.0624005, -0.00123411, 0.0286269 ],
      "rotation" : [ -0.0530279, 0.307376, -0.161525, -0.936279 ]
    },
    {
      "name" : "lowerLidMain7_L",
      "translation" : [ 0.0644154, -0.00995904, 0.0190419 ],
      "rotation" : [ -0.0256546, 0.285824, -0.0856371, -0.954103 ]
    },
    {
      "name" : "lowerLidMain8_L",
      "translation" : [ 0.0638404, -0.017969, 0.00868708 ],
      "rotation" : [ -0.00572957, 0.241948, -0.0229706, -0.97 ]
    },
    {
      "name" : "lowerLidMain9_L",
      "translation" : [ 0.0580004, -0.0246841, -0.000708103 ],
      "rotation" : [ 0.0112578, 0.126232, 0.0881147, -0.988015 ]
    },
    {
      "name" : "lowerLidMain10_L",
      "translation" : [ 0.0560704, -0.0245741, -0.00923306 ],
      "rotation" : [ -0.0153339, -0.0731869, 0.20449, -0.976008 ]
    },
    {
      "name" : "EyeBrowInnerJoint_R",
      "translation" : [ -0.13628, 0.58066, -0.0400102 ],
      "rotation" : [ -1, -7.02404e-31, 0, 7.27366e-16 ]
    },
    {
      "name" : "EyeBrowOuterJoint_R",
      "translation" : [ -0.17802, 0.238565, -0.196725 ],
      "rotation" : [ -1, -7.02404e-31, 0, 7.27366e-16 ]
    },
    {
      "name" : "EyeBrowMid1Joint_R",
      "translation" : [ -0.16002, 0.52715, -0.11398 ],
      "rotation" : [ -1, -7.02404e-31, 0, 7.27366e-16 ]
    },
    {
      "name" : "EyeBrowMid2Joint_R",
      "translation" : [ -0.18421, 0.43783, -0.155065 ],
      "rotation" : [ -1, -7.02404e-31, 0, 7.27366e-16 ]
    },
    {
      "name" : "EyeBrowMid3Joint_R",
      "translation" : [ -0.171275, 0.320915, -0.18978 ],
      "rotation" : [ -1, -7.02404e-31, 0, 7.27366e-16 ]
    },
    {
      "name" : "EyeBrowMiddleJoint_M",
      "translation" : [ -7e-05, 0.666125, -0.0716802 ],
      "rotation" : [ -2.46519e-32, -0, -7.02404e-31, -1 ]
    },
    {
      "name" : "EyeBrowInnerJoint_L",
      "translation" : [ 0.13628, 0.58066, -0.0400102 ],
      "rotation" : [ -2.46519e-32, -0, -7.02404e-31, -1 ]
    },
    {
      "name" : "EyeBrowOuterJoint_L",
      "translation" : [ 0.17802, 0.238565, -0.196725 ],
      "rotation" : [ -2.46519e-32, -0, -7.02404e-31, -1 ]
    },
    {
      "name" : "EyeBrowMid1Joint_L",
      "translation" : [ 0.16002, 0.52715, -0.11398 ],
      "rotation" : [ -2.46519e-32, -0, -7.02404e-31, -1 ]
    },
    {
      "name" : "EyeBrowMid2Joint_L",
      "translation" : [ 0.18421, 0.43783, -0.155065 ],
      "rotation" : [ -2.46519e-32, -0, -7.02404e-31, -1 ]
    },
    {
      "name" : "EyeBrowMid3Joint_L",
      "translation" : [ 0.171275, 0.320915, -0.18978 ],
      "rotation" : [ -2.46519e-32, -0, -7.02404e-31, -1 ]
    },
    {
      "name" : "middleFaceJoint_M",
      "children" : [ 98 ],
      "translation" : [ 1.01019e-13, 0.0826409, -0.0086329 ],
      "rotation" : [ -2.46519e-32, -0, -7.02404e-31, -1 ]
    },
    {
      "name" : "NoseRegionJoint_M",
      "children" : [ 99, 100 ],
      "translation" : [ 2.7819e-14, 1.01965, 0.0325317 ],
      "rotation" : [ -2.46519e-32, -0, -7.02404e-31, -1 ]
    },
    {
      "name" : "NoseJoint_M",
      "translation" : [ 1.61559e-29, 0, -5.68434e-16 ],
      "rotation" : [ -2.46519e-32, -0, -7.02404e-31, -1 ]
    },
    {
      "name" : "NoseUnderJoint_M",
      "translation" : [ 4.25283e-15, 0.0560999, 0.10218 ],
      "rotation" : [ -2.46519e-32, -0, -7.02404e-31, -1 ]
    },
    {
      "name" : "lowerFaceJoint_M",
      "children" : [ 102, 193, 194, 195, 196, 197, 198, 199, 200, 201, 202 ],
      "translation" : [ 1.0317e-13, 0.0826409, 0.0707053 ],
      "rotation" : [ -2.46519e-32, -0, -7.02404e-31, -1 ]
    },
    {
      "name" : "LipJoints_M",
      "children" : [ 103, 104, 105, 106, 107, 108, 109, 110, 111, 112, 113, 114, 115, 116, 117, 118, 119, 120, 121, 122, 123, 124, 125, 126, 127, 128, 129, 130, 131, 132, 133, 134, 135, 136, 137, 138, 139, 140, 141, 142, 143, 144, 145, 146, 147, 148, 149, 150, 151, 152, 153, 154, 155, 156, 157, 158, 159, 160, 161, 162, 163, 164, 165, 166, 167, 168, 169, 170, 171, 172, 173, 174, 175, 176, 177, 178, 179, 180, 181, 182, 183, 184, 185, 186, 187, 188, 189, 190, 191, 192 ],
      "translation" : [ -1.00024e-08, 0.0147368, -0.0247752 ],
      "rotation" : [ -4.6956e-32, 3.00518e-30, -8.52663e-31, -1 ]
    },
    {
      "name" : "upperLipJoint0_M",
      "translation" : [ -7.38257e-05, 1.06605, 0.161416 ],
      "rotation" : [ 0.000650915, -0.729394, 0.684093, -0.000633469 ]
    },
    {
      "name" : "upperLipJoint1_R",
      "translation" : [ -0.0155794, 1.06314, 0.161353 ],
      "rotation" : [ 0.125419, -0.718135, 0.673344, -0.123127 ]
    },
    {
      "name" : "upperLipJoint2_R",
      "translation" : [ -0.036113, 1.05088, 0.161027 ],
      "rotation" : [ 0.238652, -0.686624, 0.644305, -0.23762 ]
    },
    {
      "name" : "upperLipJoint3_R",
      "translation" : [ -0.0570207, 1.02916, 0.160294 ],
      "rotation" : [ 0.30492, -0.656138, 0.617197, -0.309152 ]
    },
    {
      "name" : "upperLipJoint4_R",
      "translation" : [ -0.0723661, 0.996869, 0.158849 ],
      "rotation" : [ 0.346791, -0.631055, 0.59443, -0.357991 ]
    },
    {
      "name" : "upperLipJoint5_R",
      "translation" : [ -0.0866457, 0.959857, 0.156928 ],
      "rotation" : [ 0.372684, -0.612576, 0.576302, -0.392088 ]
    },
    {
      "name" : "upperLipJoint6_R",
      "translation" : [ -0.0951121, 0.920958, 0.154532 ],
      "rotation" : [ 0.390339, -0.598749, 0.560824, -0.417865 ]
    },
    {
      "name" : "upperLipJoint7_R",
      "translation" : [ -0.104957, 0.882919, 0.151767 ],
      "rotation" : [ 0.400366, -0.590339, 0.548696, -0.43605 ]
    },
    {
      "name" : "upperLipJoint8_R",
      "translation" : [ -0.112863, 0.843051, 0.148345 ],
      "rotation" : [ 0.407692, -0.584189, 0.536797, -0.452061 ]
    },
    {
      "name" : "upperLipJoint9_R",
      "translation" : [ -0.117375, 0.801712, 0.144157 ],
      "rotation" : [ 0.413345, -0.57959, 0.524205, -0.467365 ]
    },
    {
      "name" : "upperLipJoint10_R",
      "translation" : [ -0.119125, 0.756599, 0.138682 ],
      "rotation" : [ 0.417271, -0.576674, 0.509653, -0.483307 ]
    },
    {
      "name" : "upperLipJoint11_R",
      "translation" : [ -0.12372, 0.706896, 0.131178 ],
      "rotation" : [ 0.417969, -0.576946, 0.492336, -0.500041 ]
    },
    {
      "name" : "upperLipJoint12_R",
      "translation" : [ -0.127393, 0.651377, 0.12038 ],
      "rotation" : [ 0.414832, -0.58045, 0.467775, -0.521707 ]
    },
    {
      "name" : "upperLipJoint13_R",
      "translation" : [ -0.133628, 0.605506, 0.108947 ],
      "rotation" : [ 0.412341, -0.582368, 0.447004, -0.539453 ]
    },
    {
      "name" : "upperLipJoint14_R",
      "translation" : [ -0.138641, 0.569143, 0.0988005 ],
      "rotation" : [ 0.414858, -0.579353, 0.437192, -0.548731 ]
    },
    {
      "name" : "upperLipJoint15_R",
      "translation" : [ -0.142351, 0.530371, 0.0879748 ],
      "rotation" : [ 0.423588, -0.570605, 0.437396, -0.551061 ]
    },
    {
      "name" : "upperLipJoint16_R",
      "translation" : [ -0.146001, 0.493404, 0.0790598 ],
      "rotation" : [ 0.441104, -0.554407, 0.452354, -0.541697 ]
    },
    {
      "name" : "upperLipJoint17_R",
      "translation" : [ -0.153707, 0.44816, 0.0730596 ],
      "rotation" : [ 0.483153, -0.517556, 0.497379, -0.501312 ]
    },
    {
      "name" : "upperLipJoint18_R",
      "translation" : [ -0.160954, 0.395521, 0.0803324 ],
      "rotation" : [ 0.559461, -0.44937, 0.591686, -0.367393 ]
    },
    {
      "name" : "upperLipJoint19_R",
      "translation" : [ -0.154864, 0.355816, 0.100106 ],
      "rotation" : [ 0.598799, -0.406893, 0.648796, -0.234396 ]
    },
    {
      "name" : "upperLipJoint20_R",
      "translation" : [ -0.164929, 0.347021, 0.109448 ],
      "rotation" : [ 0.606687, -0.392757, 0.665501, -0.186496 ]
    },
    {
      "name" : "upperLipJoint21_R",
      "translation" : [ -0.17588, 0.338606, 0.120908 ],
      "rotation" : [ 0.609221, -0.380064, 0.682177, -0.137971 ]
    },
    {
      "name" : "upperLipJoint22_R",
      "translation" : [ -0.166285, 0.320542, 0.135157 ],
      "rotation" : [ 0.616051, -0.376878, 0.682935, -0.109746 ]
    },
    {
      "name" : "upperLipJoint23_R",
      "translation" : [ -0.164461, 0.315459, 0.139729 ],
      "rotation" : [ 0.617994, -0.375784, 0.683039, -0.10162 ]
    },
    {
      "name" : "upperLipJoint24_R",
      "translation" : [ -0.167785, 0.313039, 0.144161 ],
      "rotation" : [ 0.617336, -0.373234, 0.686645, -0.090059 ]
    },
    {
      "name" : "upperLipJoint25_R",
      "translation" : [ -0.174364, 0.311946, 0.149104 ],
      "rotation" : [ 0.614621, -0.369672, 0.692735, -0.0755152 ]
    },
    {
      "name" : "upperLipJoint26_R",
      "translation" : [ -0.179784, 0.307413, 0.157902 ],
      "rotation" : [ 0.612431, -0.365841, 0.698451, -0.0570513 ]
    },
    {
      "name" : "upperLipJoint27_R",
      "translation" : [ -0.182605, 0.301691, 0.167071 ],
      "rotation" : [ 0.611484, -0.363197, 0.701694, -0.0424346 ]
    },
    {
      "name" : "lowerLipJoint0_M",
      "translation" : [ -7.00057e-05, 0.97276, 0.50334 ],
      "rotation" : [ 0.00113356, -0.832055, 0.554691, -0.00134826 ]
    },
    {
      "name" : "lowerLipJoint1_R",
      "translation" : [ -0.00794441, 0.971268, 0.502904 ],
      "rotation" : [ 0.118155, -0.818311, 0.544638, -0.140629 ]
    },
    {
      "name" : "lowerLipJoint2_R",
      "translation" : [ -0.0193008, 0.964209, 0.50083 ],
      "rotation" : [ 0.230166, -0.776978, 0.517388, -0.275024 ]
    },
    {
      "name" : "lowerLipJoint3_R",
      "translation" : [ -0.0307386, 0.951665, 0.497121 ],
      "rotation" : [ 0.289463, -0.739167, 0.497034, -0.350428 ]
    },
    {
      "name" : "lowerLipJoint4_R",
      "translation" : [ -0.0475105, 0.924233, 0.488932 ],
      "rotation" : [ 0.330791, -0.700246, 0.48077, -0.411209 ]
    },
    {
      "name" : "lowerLipJoint5_R",
      "translation" : [ -0.0595191, 0.886713, 0.477317 ],
      "rotation" : [ 0.353671, -0.672199, 0.469747, -0.449893 ]
    },
    {
      "name" : "lowerLipJoint6_R",
      "translation" : [ -0.0636404, 0.838903, 0.462175 ],
      "rotation" : [ 0.370861, -0.648133, 0.459176, -0.481189 ]
    },
    {
      "name" : "lowerLipJoint7_R",
      "translation" : [ -0.0675242, 0.786132, 0.445498 ],
      "rotation" : [ 0.37817, -0.633714, 0.452559, -0.500584 ]
    },
    {
      "name" : "lowerLipJoint8_R",
      "translation" : [ -0.0727388, 0.734108, 0.428828 ],
      "rotation" : [ 0.378849, -0.627614, 0.448647, -0.511165 ]
    },
    {
      "name" : "lowerLipJoint9_R",
      "translation" : [ -0.0793773, 0.68409, 0.412314 ],
      "rotation" : [ 0.37564, -0.627033, 0.445661, -0.516827 ]
    },
    {
      "name" : "lowerLipJoint10_R",
      "translation" : [ -0.086604, 0.629527, 0.393374 ],
      "rotation" : [ 0.367979, -0.631761, 0.441848, -0.519845 ]
    },
    {
      "name" : "lowerLipJoint11_R",
      "translation" : [ -0.0983216, 0.566196, 0.369213 ],
      "rotation" : [ 0.349241, -0.647234, 0.433593, -0.520687 ]
    },
    {
      "name" : "lowerLipJoint12_R",
      "translation" : [ -0.112201, 0.504131, 0.340848 ],
      "rotation" : [ 0.317917, -0.669009, 0.4143, -0.528877 ]
    },
    {
      "name" : "lowerLipJoint13_R",
      "translation" : [ -0.137562, 0.456191, 0.312752 ],
      "rotation" : [ 0.285333, -0.678724, 0.387946, -0.554451 ]
    },
    {
      "name" : "lowerLipJoint14_R",
      "translation" : [ -0.149515, 0.412924, 0.28183 ],
      "rotation" : [ 0.252606, -0.685917, 0.370011, -0.573411 ]
    },
    {
      "name" : "lowerLipJoint15_R",
      "translation" : [ -0.156614, 0.372409, 0.24875 ],
      "rotation" : [ 0.233302, -0.68898, 0.354233, -0.587704 ]
    },
    {
      "name" : "lowerLipJoint16_R",
      "translation" : [ -0.170832, 0.335899, 0.215141 ],
      "rotation" : [ 0.228343, -0.693836, 0.337955, -0.593496 ]
    },
    {
      "name" : "lowerLipJoint17_R",
      "translation" : [ -0.179569, 0.301651, 0.182648 ],
      "rotation" : [ 0.233111, -0.698264, 0.321073, -0.595818 ]
    },
    {
      "name" : "upperLipJoint1_L",
      "translation" : [ 0.0155794, 1.06314, 0.161353 ],
      "rotation" : [ -0.125419, -0.718135, 0.673344, 0.123127 ]
    },
    {
      "name" : "upperLipJoint2_L",
      "translation" : [ 0.036113, 1.05088, 0.161027 ],
      "rotation" : [ -0.238652, -0.686624, 0.644305, 0.23762 ]
    },
    {
      "name" : "upperLipJoint3_L",
      "translation" : [ 0.0570207, 1.02916, 0.160294 ],
      "rotation" : [ -0.30492, -0.656138, 0.617197, 0.309152 ]
    },
    {
      "name" : "upperLipJoint4_L",
      "translation" : [ 0.0723661, 0.996869, 0.158849 ],
      "rotation" : [ -0.346791, -0.631055, 0.59443, 0.357991 ]
    },
    {
      "name" : "upperLipJoint5_L",
      "translation" : [ 0.0866458, 0.959857, 0.156928 ],
      "rotation" : [ -0.372684, -0.612576, 0.576302, 0.392088 ]
    },
    {
      "name" : "upperLipJoint6_L",
      "translation" : [ 0.0951121, 0.920958, 0.154532 ],
      "rotation" : [ -0.390339, -0.598749, 0.560824, 0.417865 ]
    },
    {
      "name" : "upperLipJoint7_L",
      "translation" : [ 0.104957, 0.882919, 0.151767 ],
      "rotation" : [ -0.400366, -0.590339, 0.548696, 0.43605 ]
    },
    {
      "name" : "upperLipJoint8_L",
      "translation" : [ 0.112863, 0.843051, 0.148345 ],
      "rotation" : [ -0.407692, -0.584189, 0.536797, 0.452061 ]
    },
    {
      "name" : "upperLipJoint9_L",
      "translation" : [ 0.117375, 0.801712, 0.144157 ],
      "rotation" : [ -0.413345, -0.57959, 0.524205, 0.467365 ]
    },
    {
      "name" : "upperLipJoint10_L",
      "translation" : [ 0.119125, 0.756599, 0.138682 ],
      "rotation" : [ -0.417271, -0.576674, 0.509653, 0.483307 ]
    },
    {
      "name" : "upperLipJoint11_L",
      "translation" : [ 0.12372, 0.706896, 0.131178 ],
      "rotation" : [ 0.417969, 0.576946, -0.492336, -0.500041 ]
    },
    {
      "name" : "upperLipJoint12_L",
      "translation" : [ 0.127393, 0.651377, 0.12038 ],
      "rotation" : [ 0.414832, 0.58045, -0.467775, -0.521707 ]
    },
    {
      "name" : "upperLipJoint13_L",
      "translation" : [ 0.133628, 0.605506, 0.108947 ],
      "rotation" : [ 0.412341, 0.582368, -0.447004, -0.539453 ]
    },
    {
      "name" : "upperLipJoint14_L",
      "translation" : [ 0.138641, 0.569143, 0.0988005 ],
      "rotation" : [ 0.414858, 0.579353, -0.437192, -0.548731 ]
    },
    {
      "name" : "upperLipJoint15_L",
      "translation" : [ 0.142351, 0.530371, 0.0879748 ],
      "rotation" : [ 0.423588, 0.570605, -0.437396, -0.551061 ]
    },
    {
      "name" : "upperLipJoint16_L",
      "translation" : [ 0.146001, 0.493404, 0.0790598 ],
      "rotation" : [ 0.441104, 0.554407, -0.452354, -0.541697 ]
    },
    {
      "name" : "upperLipJoint17_L",
      "translation" : [ 0.153707, 0.44816, 0.0730596 ],
      "rotation" : [ 0.483153, 0.517556, -0.497379, -0.501312 ]
    },
    {
      "name" : "upperLipJoint18_L",
      "translation" : [ 0.160954, 0.395521, 0.0803324 ],
      "rotation" : [ -0.559461, -0.44937, 0.591686, 0.367393 ]
    },
    {
      "name" : "upperLipJoint19_L",
      "translation" : [ 0.154864, 0.355816, 0.100106 ],
      "rotation" : [ -0.598799, -0.406893, 0.648796, 0.234396 ]
    },
    {
      "name" : "upperLipJoint20_L",
      "translation" : [ 0.164929, 0.347021, 0.109448 ],
      "rotation" : [ -0.606687, -0.392757, 0.665501, 0.186496 ]
    },
    {
      "name" : "upperLipJoint21_L",
      "translation" : [ 0.17588, 0.338606, 0.120908 ],
      "rotation" : [ -0.609221, -0.380064, 0.682177, 0.137971 ]
    },
    {
      "name" : "upperLipJoint22_L",
      "translation" : [ 0.166286, 0.320542, 0.135157 ],
      "rotation" : [ -0.616051, -0.376878, 0.682935, 0.109746 ]
    },
    {
      "name" : "upperLipJoint23_L",
      "translation" : [ 0.164461, 0.315459, 0.139729 ],
      "rotation" : [ -0.617994, -0.375784, 0.683039, 0.10162 ]
    },
    {
      "name" : "upperLipJoint24_L",
      "translation" : [ 0.167785, 0.313039, 0.144161 ],
      "rotation" : [ -0.617336, -0.373234, 0.686645, 0.090059 ]
    },
    {
      "name" : "upperLipJoint25_L",
      "translation" : [ 0.174364, 0.311946, 0.149104 ],
      "rotation" : [ -0.614621, -0.369672, 0.692735, 0.0755152 ]
    },
    {
      "name" : "upperLipJoint26_L",
      "translation" : [ 0.179784, 0.307413, 0.157902 ],
      "rotation" : [ -0.612431, -0.365841, 0.698451, 0.0570513 ]
    },
    {
      "name" : "upperLipJoint27_L",
      "translation" : [ 0.182605, 0.301691, 0.167071 ],
      "rotation" : [ -0.611484, -0.363197, 0.701694, 0.0424346 ]
    },
    {
      "name" : "lowerLipJoint1_L",
      "translation" : [ 0.00794443, 0.971268, 0.502904 ],
      "rotation" : [ -0.118155, -0.818311, 0.544638, 0.140629 ]
    },
    {
      "name" : "lowerLipJoint2_L",
      "translation" : [ 0.0193008, 0.964209, 0.50083 ],
      "rotation" : [ -0.230166, -0.776978, 0.517388, 0.275024 ]
    },
    {
      "name" : "lowerLipJoint3_L",
      "translation" : [ 0.0307386, 0.951665, 0.497121 ],
      "rotation" : [ -0.289463, -0.739167, 0.497034, 0.350428 ]
    },
    {
      "name" : "lowerLipJoint4_L",
      "translation" : [ 0.0475105, 0.924233, 0.488932 ],
      "rotation" : [ -0.330791, -0.700246, 0.48077, 0.411209 ]
    },
    {
      "name" : "lowerLipJoint5_L",
      "translation" : [ 0.0595191, 0.886713, 0.477317 ],
      "rotation" : [ -0.353671, -0.672199, 0.469747, 0.449893 ]
    },
    {
      "name" : "lowerLipJoint6_L",
      "translation" : [ 0.0636404, 0.838903, 0.462175 ],
      "rotation" : [ -0.370861, -0.648133, 0.459176, 0.481189 ]
    },
    {
      "name" : "lowerLipJoint7_L",
      "translation" : [ 0.0675242, 0.786132, 0.445498 ],
      "rotation" : [ 0.37817, 0.633714, -0.452559, -0.500584 ]
    },
    {
      "name" : "lowerLipJoint8_L",
      "translation" : [ 0.0727389, 0.734108, 0.428828 ],
      "rotation" : [ 0.378849, 0.627614, -0.448647, -0.511165 ]
    },
    {
      "name" : "lowerLipJoint9_L",
      "translation" : [ 0.0793773, 0.68409, 0.412314 ],
      "rotation" : [ 0.37564, 0.627033, -0.445661, -0.516827 ]
    },
    {
      "name" : "lowerLipJoint10_L",
      "translation" : [ 0.0866041, 0.629527, 0.393374 ],
      "rotation" : [ 0.367979, 0.631761, -0.441848, -0.519845 ]
    },
    {
      "name" : "lowerLipJoint11_L",
      "translation" : [ 0.0983216, 0.566196, 0.369213 ],
      "rotation" : [ 0.349241, 0.647234, -0.433593, -0.520687 ]
    },
    {
      "name" : "lowerLipJoint12_L",
      "translation" : [ 0.112201, 0.504131, 0.340848 ],
      "rotation" : [ 0.317917, 0.669009, -0.4143, -0.528877 ]
    },
    {
      "name" : "lowerLipJoint13_L",
      "translation" : [ 0.137562, 0.456191, 0.312752 ],
      "rotation" : [ 0.285333, 0.678724, -0.387946, -0.554451 ]
    },
    {
      "name" : "lowerLipJoint14_L",
      "translation" : [ 0.149515, 0.412924, 0.28183 ],
      "rotation" : [ 0.252606, 0.685917, -0.370011, -0.573411 ]
    },
    {
      "name" : "lowerLipJoint15_L",
      "translation" : [ 0.156614, 0.372409, 0.24875 ],
      "rotation" : [ 0.233302, 0.68898, -0.354233, -0.587704 ]
    },
    {
      "name" : "lowerLipJoint16_L",
      "translation" : [ 0.170832, 0.335899, 0.215141 ],
      "rotation" : [ 0.228343, 0.693836, -0.337955, -0.593496 ]
    },
    {
      "name" : "lowerLipJoint17_L",
      "translation" : [ 0.179569, 0.301651, 0.182648 ],
      "rotation" : [ 0.233111, 0.698264, -0.321073, -0.595818 ]
    },
    {
      "name" : "JawJoint_M",
      "translation" : [ 9.50129e-16, 1.13687e-15, 0.0350384 ],
      "rotation" : [ -2.48575e-32, -0, -6.76082e-31, -1 ]
    },
    {
      "name" : "upperTeethJoint_M",
      "translation" : [ 2.62754e-14, 0.804113, 0.185589 ],
      "rotation" : [ -2.48575e-32, -0, -6.76082e-31, -1 ]
    },
    {
      "name" : "lowerTeethJoint_M",
      "translation" : [ 3.03622e-14, 0.56531, 0.379848 ],
      "rotation" : [ -2.48575e-32, -0, -6.76082e-31, -1 ]
    },
    {
      "name" : "CheekJoint_R",
      "translation" : [ -0.114195, 0.651614, -0.00562654 ],
      "rotation" : [ -1, -7.02404e-31, 0, 6.12323e-17 ]
    },
    {
      "name" : "CheekJoint_L",
      "translation" : [ 0.114195, 0.651614, -0.00562654 ],
      "rotation" : [ -2.46519e-32, -0, -7.02404e-31, -1 ]
    },
    {
      "name" : "NoseCornerJoint_R",
      "translation" : [ -0.094735, 0.98045, 0.0399236 ],
      "rotation" : [ -1, -7.02404e-31, 0, 6.12323e-17 ]
    },
    {
      "name" : "NoseCornerJoint_L",
      "translation" : [ 0.094735, 0.98045, 0.0399236 ],
      "rotation" : [ -2.46519e-32, -0, -7.02404e-31, -1 ]
    },
    {
      "name" : "CheekRaiserJoint_R",
      "translation" : [ -0.178175, 0.34576, -0.0257616 ],
      "rotation" : [ -1, -7.02404e-31, 0, 6.12323e-17 ]
    },
    {
      "name" : "CheekRaiserJoint_L",
      "translation" : [ 0.178175, 0.34576, -0.0257616 ],
      "rotation" : [ -2.46519e-32, -0, -7.02404e-31, -1 ]
    },
    {
      "name" : "Tongue0Joint_M",
      "children" : [ 203 ],
      "translation" : [ 7.95038e-15, -0.0317566, 0.334751 ],
      "rotation" : [ 0.0701784, -0.0701784, -0.703616, -0.703616 ]
    },
    {
      "name" : "Tongue1Joint_M",
      "children" : [ 204 ],
      "translation" : [ 0.263834, -7.81367e-15, 5.68434e-16 ],
      "rotation" : [ 3.25256e-30, 0.243357, 2.75297e-33, -0.969937 ]
    },
    {
      "name" : "Tongue2Joint_M",
      "children" : [ 205 ],
      "translation" : [ 0.155443, -6.58279e-15, 2.27374e-15 ],
      "rotation" : [ -1.82035e-31, 0.0769188, 2.35957e-30, -0.997037 ]
    },
    {
      "name" : "Tongue3Joint_M",
      "children" : [ 206 ],
      "translation" : [ 0.139391, -6.18263e-15, -1.13687e-15 ],
      "rotation" : [ -1.57394e-30, -0.00239326, 1.58149e-30, -0.999997 ]
    },
    {
      "name" : "Tongue4Joint_M",
      "translation" : [ 0.000351296, -1.14935e-17, -5.68434e-16 ],
      "rotation" : [ 0.120005, -0.120005, 0.696849, -0.696849 ]
    },
    {
      "name" : "neckFatUp1_M",
      "children" : [ 208 ],
      "translation" : [ 0.109263, -7.95449e-14, -0.376876 ],
      "rotation" : [ 2.21946e-30, -0.775913, -2.28885e-31, -0.63084 ]
    },
    {
      "name" : "neckFatUp2_M",
      "translation" : [ 0.000313928, -5.44711e-17, 5.68434e-16 ],
      "rotation" : [ -1.57772e-30, -0, -1.57772e-30, -1 ]
    },
    {
      "name" : "neckFatMid1_M",
      "children" : [ 210 ],
      "translation" : [ 0.190286, -4.72261e-09, -0.295834 ],
      "rotation" : [ -2.23094e-30, -0.718555, 3.64217e-32, -0.69547 ]
    },
    {
      "name" : "neckFatMid2_M",
      "translation" : [ 0.000358775, 5.2181e-12, -1.13687e-15 ],
      "rotation" : [ 1.57772e-30, -2.77556e-17, 1.57772e-30, -1 ]
    },
    {
      "name" : "neckFatDown1_M",
      "children" : [ 212 ],
      "translation" : [ 0.208475, -5.60976e-14, -0.327296 ],
      "rotation" : [ 2.23096e-30, -0.695827, 3.53127e-32, -0.718209 ]
    },
    {
      "name" : "neckFatDown2_M",
      "translation" : [ 0.000373265, -5.46261e-17, -0 ],
      "rotation" : [ 1.57772e-30, -2.77556e-17, 1.57772e-30, -1 ]
    },
    {
      "name" : "Clavicle_R",
      "children" : [ 214 ],
      "translation" : [ 0.293791, 0.1328, -0.323613 ],
      "rotation" : [ 0.51302, 0.404555, 0.695831, -0.298269 ]
    },
    {
      "name" : "ShoulderUpper1_R",
      "children" : [ 215, 216 ],
      "translation" : [ 0.451057, -5.34328e-14, -0.472352 ],
      "rotation" : [ -0.341916, -0, 0, -0.93973 ]
    },
    {
      "name" : "ShoulderUpper2_R",
      "translation" : [ -1.665e-05, 0, -0.000139194 ],
      "rotation" : [ -1.38778e-17, -0, 0, -1 ]
    },
    {
      "name" : "Shoulder_R",
      "children" : [ 217 ],
      "translation" : [ -0.642484, 0.264144, -0.185053 ],
      "rotation" : [ 0.165935, -0.612202, 0.699328, -0.329569 ]
    },
    {
      "name" : "Elbow_R",
      "children" : [ 218 ],
      "translation" : [ 0.467258, 1.53477e-14, 1.0516e-14 ],
      "rotation" : [ -0.704406, -5.32381e-17, 0.709797, -3.3282e-17 ]
    },
    {
      "name" : "Wrist_R",
      "children" : [ 219, 224, 229 ],
      "translation" : [ 0.508447, -6.30962e-14, -8.52651e-15 ],
      "rotation" : [ -0.742558, -0.114723, 0.653971, 0.0881393 ]
    },
    {
      "name" : "PinkyFinger5_R",
      "children" : [ 220 ],
      "translation" : [ 0.0652745, 0.00171481, -0.0710451 ],
      "rotation" : [ -0.0357994, -0.571165, 0.0226902, -0.81974 ]
    },
    {
      "name" : "PinkyFinger6_R",
      "children" : [ 221 ],
      "translation" : [ 0.173992, 2.18847e-14, -7.38964e-15 ],
      "rotation" : [ 0.00349801, 0.0122552, -0.00723368, -0.999893 ]
    },
    {
      "name" : "PinkyFinger7_R",
      "children" : [ 222 ],
      "translation" : [ 0.149879, 1.93268e-14, -1.7053e-15 ],
      "rotation" : [ 0.0254423, -0.00162934, 0.0857264, -0.995992 ]
    },
    {
      "name" : "PinkyFinger8_R",
      "children" : [ 223 ],
      "translation" : [ 0.127465, 1.64135e-14, -3.97904e-15 ],
      "rotation" : [ 0.0235949, -0.0401105, 0.159597, -0.986085 ]
    },
    {
      "name" : "PinkyFinger9_R",
      "translation" : [ 0.000292761, -1.42109e-16, -5.68434e-16 ],
      "rotation" : [ -2.77556e-17, 2.77556e-17, -2.77556e-17, -1 ]
    },
    {
      "name" : "RingFinger5_R",
      "children" : [ 225 ],
      "translation" : [ -0.00830001, 0.0107901, -0.0818332 ],
      "rotation" : [ 0.0776157, -0.666554, -0.106824, -0.733669 ]
    },
    {
      "name" : "RingFinger6_R",
      "children" : [ 226 ],
      "translation" : [ 0.172181, 2.10321e-14, 4.54747e-15 ],
      "rotation" : [ -0.000808574, -0.0510381, -0.0343801, -0.998104 ]
    },
    {
      "name" : "RingFinger7_R",
      "children" : [ 227 ],
      "translation" : [ 0.145918, 1.73372e-14, -3.41061e-15 ],
      "rotation" : [ 0.00463666, 0.035962, 0.106891, -0.993609 ]
    },
    {
      "name" : "RingFinger8_R",
      "children" : [ 228 ],
      "translation" : [ 0.122702, 1.7053e-14, 1.02318e-14 ],
      "rotation" : [ 0.01585, -0.0657192, 0.159316, -0.98491 ]
    },
    {
      "name" : "RingFinger9_R",
      "translation" : [ 0.000325671, -2.84217e-16, -2.84217e-16 ],
      "rotation" : [ 8.23994e-18, 2.77556e-17, -5.20417e-18, -1 ]
    },
    {
      "name" : "MiddleFinger5_R",
      "children" : [ 230 ],
      "translation" : [ -0.0578882, -0.034085, -0.0629682 ],
      "rotation" : [ 0.114549, -0.806324, -0.127769, -0.566034 ]
    },
    {
      "name" : "MiddleFinger6_R",
      "children" : [ 231 ],
      "translation" : [ 0.169851, 1.56319e-14, 5.11591e-15 ],
      "rotation" : [ 0.00145416, -0.0321357, 0.0153164, -0.999365 ]
    },
    {
      "name" : "MiddleFinger7_R",
      "children" : [ 232 ],
      "translation" : [ 0.117749, 1.02318e-14, -1.98952e-15 ],
      "rotation" : [ 0.00468323, 0.00289203, 0.112468, -0.99364 ]
    },
    {
      "name" : "MiddleFinger8_R",
      "children" : [ 233 ],
      "translation" : [ 0.0801522, 9.37916e-15, 5.96856e-15 ],
      "rotation" : [ 0.00480287, 0.0261244, 0.098487, -0.994784 ]
    },
    {
      "name" : "MiddleFinger9_R",
      "translation" : [ 0.000234188, 0, -0 ],
      "rotation" : [ -2.77556e-17, 2.77556e-17, -2.08167e-17, -1 ]
    },
    {
      "name" : "Clavicle_L",
      "children" : [ 235 ],
      "translation" : [ 0.293791, -0.1328, -0.323613 ],
      "rotation" : [ -0.695831, 0.298269, 0.51302, 0.404555 ]
    },
    {
      "name" : "ShoulderUpper1_L",
      "children" : [ 236, 237 ],
      "translation" : [ -0.451057, -5.88329e-14, 0.472352 ],
      "rotation" : [ -0.341916, -0, 0, -0.93973 ]
    },
    {
      "name" : "ShoulderUpper2_L",
      "translation" : [ 1.665e-05, 0, 0.000139194 ],
      "rotation" : [ 5.07989e-29, 0, -3.9443e-31, -1 ]
    },
    {
      "name" : "Shoulder_L",
      "children" : [ 238 ],
      "translation" : [ 0.642484, -0.264144, 0.185053 ],
      "rotation" : [ 0.165935, -0.612202, 0.699328, -0.329569 ]
    },
    {
      "name" : "Elbow_L",
      "children" : [ 239 ],
      "translation" : [ -0.467258, 1.02318e-14, 1.9611e-14 ],
      "rotation" : [ -0.704406, -5.32381e-17, 0.709797, -3.3282e-17 ]
    },
    {
      "name" : "Wrist_L",
      "children" : [ 240, 245, 250 ],
      "translation" : [ -0.508447, -5.00222e-14, -2.27374e-14 ],
      "rotation" : [ -0.742558, -0.114723, 0.653971, 0.0881393 ]
    },
    {
      "name" : "PinkyFinger5_L",
      "children" : [ 241 ],
      "translation" : [ -0.0652745, -0.00171481, 0.0710451 ],
      "rotation" : [ -0.0357994, -0.571165, 0.0226902, -0.81974 ]
    },
    {
      "name" : "PinkyFinger6_L",
      "children" : [ 242 ],
      "translation" : [ -0.173992, 1.86162e-14, 5.68434e-16 ],
      "rotation" : [ 0.00349801, 0.0122552, -0.00723368, -0.999893 ]
    },
    {
      "name" : "PinkyFinger7_L",
      "children" : [ 243 ],
      "translation" : [ -0.149879, 1.7053e-14, -2.84217e-15 ],
      "rotation" : [ 0.0254423, -0.00162934, 0.0857264, -0.995992 ]
    },
    {
      "name" : "PinkyFinger8_L",
      "children" : [ 244 ],
      "translation" : [ -0.127465, 1.51346e-14, 5.68434e-16 ],
      "rotation" : [ 0.0235949, -0.0401105, 0.159597, -0.986085 ]
    },
    {
      "name" : "PinkyFinger9_L",
      "translation" : [ -0.000292761, 1.42109e-16, -0 ],
      "rotation" : [ -1.38778e-17, -0, 0, -1 ]
    },
    {
      "name" : "RingFinger5_L",
      "children" : [ 246 ],
      "translation" : [ 0.00830001, -0.0107901, 0.0818332 ],
      "rotation" : [ 0.0776157, -0.666554, -0.106824, -0.733669 ]
    },
    {
      "name" : "RingFinger6_L",
      "children" : [ 247 ],
      "translation" : [ -0.172181, 1.84741e-14, 6.82121e-15 ],
      "rotation" : [ -0.000808574, -0.0510381, -0.0343801, -0.998104 ]
    },
    {
      "name" : "RingFinger7_L",
      "children" : [ 248 ],
      "translation" : [ -0.145918, 1.52056e-14, 2.27374e-15 ],
      "rotation" : [ 0.00463666, 0.035962, 0.106891, -0.993609 ]
    },
    {
      "name" : "RingFinger8_L",
      "children" : [ 249 ],
      "translation" : [ -0.122702, 1.16529e-14, 1.7053e-15 ],
      "rotation" : [ 0.01585, -0.0657192, 0.159316, -0.98491 ]
    },
    {
      "name" : "RingFinger9_L",
      "translation" : [ -0.000325671, 0, -0 ],
      "rotation" : [ 3.29597e-17, 2.77556e-17, 3.68629e-17, -1 ]
    },
    {
      "name" : "MiddleFinger5_L",
      "children" : [ 251 ],
      "translation" : [ 0.0578882, 0.034085, 0.0629682 ],
      "rotation" : [ 0.114549, -0.806324, -0.127769, -0.566034 ]
    },
    {
      "name" : "MiddleFinger6_L",
      "children" : [ 252 ],
      "translation" : [ -0.169851, 1.16529e-14, 8.52651e-15 ],
      "rotation" : [ 0.00145416, -0.0321357, 0.0153164, -0.999365 ]
    },
    {
      "name" : "MiddleFinger7_L",
      "children" : [ 253 ],
      "translation" : [ -0.117749, 1.19371e-14, 3.41061e-15 ],
      "rotation" : [ 0.00468323, 0.00289203, 0.112468, -0.99364 ]
    },
    {
      "name" : "MiddleFinger8_L",
      "children" : [ 254 ],
      "translation" : [ -0.0801522, 5.40012e-15, 6.25278e-15 ],
      "rotation" : [ 0.00480287, 0.0261244, 0.098487, -0.994784 ]
    },
    {
      "name" : "MiddleFinger9_L",
      "translation" : [ -0.000234188, 2.84217e-16, -2.84217e-16 ],
      "rotation" : [ -5.77779e-34, -2.77556e-17, -2.08167e-17, -1 ]
    },
    {
      "name" : "spineFat1_M",
      "children" : [ 256 ],
      "translation" : [ 0.467274, -1.99522e-14, -1.14025 ],
      "rotation" : [ 1.06337e-30, -0.673993, 1.16552e-30, -0.738737 ]
    },
    {
      "name" : "spineFat2_M",
      "translation" : [ 0.000362339, -1.04337e-17, -0 ],
      "rotation" : [ -0, -0, 0, -1 ]
    },
    {
      "name" : "BackRump_R",
      "children" : [ 258 ],
      "translation" : [ 0.0920087, -0.213636, -0.310924 ],
      "rotation" : [ 0.564218, -0.573928, -0.413534, 0.425739 ]
    },
    {
      "name" : "Rump_R",
      "children" : [ 259 ],
      "translation" : [ 0.364227, 5.68434e-16, -1.84741e-15 ],
      "rotation" : [ -0.00192184, 0.00188135, 0.714593, -0.699535 ]
    },
    {
      "name" : "Hip_R",
      "children" : [ 260 ],
      "translation" : [ 1.2642, -1.56319e-15, -5.11591e-15 ],
      "rotation" : [ -8.65374e-21, 0.638533, 1.04299e-20, -0.769594 ]
    },
    {
      "name" : "Knee_R",
      "children" : [ 261, 279 ],
      "translation" : [ 1.34489, -6.18172e-15, -4.81748e-14 ],
      "rotation" : [ 0.00131098, -0.679434, -0.000853393, -0.733734 ]
    },
    {
      "name" : "Ankle_R",
      "children" : [ 262 ],
      "translation" : [ 0.779975, 2.84217e-16, -2.05347e-14 ],
      "rotation" : [ -0.00812214, -0.120611, -0.000630831, -0.992666 ]
    },
    {
      "name" : "Toes_R",
      "children" : [ 263 ],
      "translation" : [ 0.21357, -3.55271e-16, -8.88178e-16 ],
      "rotation" : [ 0.00924367, -0.364263, 0.00765516, -0.931219 ]
    },
    {
      "name" : "ToesEnd_R",
      "children" : [ 264, 269, 274 ],
      "translation" : [ 0.429014, 1.27898e-15, -5.3979e-15 ],
      "rotation" : [ -0.142768, -0.0194944, 0.989465, 0.0139798 ]
    },
    {
      "name" : "toe_mid1_R",
      "children" : [ 265 ],
      "translation" : [ 0.49915, -7.10543e-17, 1.56586e-14 ],
      "rotation" : [ -0.0814489, -0.0241371, 0.995086, -0.0508651 ]
    },
    {
      "name" : "toe_mid2_R",
      "children" : [ 266 ],
      "translation" : [ 0.145419, -7.10543e-16, -3.44613e-15 ],
      "rotation" : [ -0.00282717, -0.0613457, -0.00612661, -0.998094 ]
    },
    {
      "name" : "toe_mid3_R",
      "children" : [ 267 ],
      "translation" : [ 0.13691, 7.10543e-16, -4.06786e-15 ],
      "rotation" : [ -0.00206517, 0.074922, -0.0272209, -0.996816 ]
    },
    {
      "name" : "toe_mid4_R",
      "children" : [ 268 ],
      "translation" : [ 0.144832, -1.91847e-15, -4.12115e-15 ],
      "rotation" : [ -0.00171752, -0.0275094, 0.0703043, -0.997145 ]
    },
    {
      "name" : "toe_midEnd_R",
      "translation" : [ 0.000428758, 0, -1.77636e-17 ],
      "rotation" : [ -1.92115e-19, -2.77556e-17, -9.7268e-19, -1 ]
    },
    {
      "name" : "toe_in1_R",
      "children" : [ 270 ],
      "translation" : [ 0.508015, 0.117707, 0.0135452 ],
      "rotation" : [ -0.00925452, -0.0747443, 0.992087, 0.100448 ]
    },
    {
      "name" : "toe_in2_R",
      "children" : [ 271 ],
      "translation" : [ 0.158552, -4.9738e-16, -4.05009e-15 ],
      "rotation" : [ 0.00454409, -0.162792, 0.000556107, -0.98665 ]
    },
    {
      "name" : "toe_in3_R",
      "children" : [ 272 ],
      "translation" : [ 0.145575, -1.42109e-16, -4.35207e-15 ],
      "rotation" : [ 0.000353011, 0.137698, -0.00692991, -0.99045 ]
    },
    {
      "name" : "toe_in4_R",
      "children" : [ 273 ],
      "translation" : [ 0.143962, 1.06581e-15, -3.69482e-15 ],
      "rotation" : [ -0.00178298, -0.0638279, -0.00309346, -0.997954 ]
    },
    {
      "name" : "toe_inEnd_R",
      "translation" : [ 0.000413305, 0, -8.88178e-18 ],
      "rotation" : [ -2.1684e-19, -2.77556e-17, -9.97466e-18, -1 ]
    },
    {
      "name" : "toe_out5_R",
      "children" : [ 275 ],
      "translation" : [ 0.534129, -0.111422, 0.0492271 ],
      "rotation" : [ -0.141424, 0.0604915, 0.968866, -0.194007 ]
    },
    {
      "name" : "toe_out6_R",
      "children" : [ 276 ],
      "translation" : [ 0.146149, -1.13687e-15, -3.69482e-15 ],
      "rotation" : [ -0.00141637, 0.00309534, 0.0108916, -0.999935 ]
    },
    {
      "name" : "toe_out7_R",
      "children" : [ 277 ],
      "translation" : [ 0.144063, 9.9476e-16, -3.58824e-15 ],
      "rotation" : [ 0.00314246, 0.0238262, -0.000188034, -0.999711 ]
    },
    {
      "name" : "toe_out8_R",
      "children" : [ 278 ],
      "translation" : [ 0.181553, -8.52651e-16, -4.61853e-15 ],
      "rotation" : [ -0.000367708, 0.0208551, -0.00952286, -0.999737 ]
    },
    {
      "name" : "toe_outEnd_R",
      "translation" : [ 0.000318152, 0, 3.55271e-17 ],
      "rotation" : [ 5.20417e-18, -2.77556e-17, 4.42354e-17, -1 ]
    },
    {
      "name" : "sideToe2_R",
      "children" : [ 280 ],
      "translation" : [ 0.458971, -0.149743, 0.0409366 ],
      "rotation" : [ 0.792865, -0.082126, 0.110004, -0.593733 ]
    },
    {
      "name" : "sideToe3_R",
      "children" : [ 281 ],
      "translation" : [ 0.110171, 2.41585e-15, 7.4607e-16 ],
      "rotation" : [ 0.647777, -0.232256, 0.171685, -0.704958 ]
    },
    {
      "name" : "sideToe4_R",
      "translation" : [ 0.000382396, -1.77636e-17, 1.42109e-16 ],
      "rotation" : [ -3.46945e-17, -0, 0, -1 ]
    },
    {
      "name" : "BackRump_L",
      "children" : [ 283 ],
      "translation" : [ 0.0920087, 0.213636, -0.310924 ],
      "rotation" : [ 0.413534, -0.425739, 0.564218, -0.573928 ]
    },
    {
      "name" : "Rump_L",
      "children" : [ 284 ],
      "translation" : [ -0.364227, -4.54747e-15, 1.56319e-15 ],
      "rotation" : [ -0.00192184, 0.00188135, 0.714593, -0.699535 ]
    },
    {
      "name" : "Hip_L",
      "children" : [ 285 ],
      "translation" : [ -1.2642, 2.13163e-15, -1.42109e-16 ],
      "rotation" : [ 3.43877e-21, 0.638533, -1.47568e-20, -0.769594 ]
    },
    {
      "name" : "Knee_L",
      "children" : [ 286, 304 ],
      "translation" : [ -1.34489, 3.62377e-15, -1.57684e-12 ],
      "rotation" : [ 0.00131098, -0.679434, -0.000853393, -0.733734 ]
    },
    {
      "name" : "Ankle_L",
      "children" : [ 287 ],
      "translation" : [ -0.779975, 4.12115e-15, -1.01068e-12 ],
      "rotation" : [ -0.00812214, -0.120611, -0.000630831, -0.992666 ]
    },
    {
      "name" : "Toes_L",
      "children" : [ 288 ],
      "translation" : [ -0.21357, -3.55271e-15, -2.60592e-13 ],
      "rotation" : [ 0.00924367, -0.364263, 0.00765516, -0.931219 ]
    },
    {
      "name" : "ToesEnd_L",
      "children" : [ 289, 294, 299 ],
      "translation" : [ -0.429014, 2.34479e-15, -5.22536e-13 ],
      "rotation" : [ -0.142768, -0.0194944, 0.989465, 0.0139798 ]
    },
    {
      "name" : "toe_mid1_L",
      "children" : [ 290 ],
      "translation" : [ -0.49915, -1.10134e-14, 3.9746e-13 ],
      "rotation" : [ -0.0814489, -0.0241371, 0.995086, -0.0508651 ]
    },
    {
      "name" : "toe_mid2_L",
      "children" : [ 291 ],
      "translation" : [ -0.145419, 3.55271e-15, -1.16973e-13 ],
      "rotation" : [ -0.00282717, -0.0613457, -0.00612661, -0.998094 ]
    },
    {
      "name" : "toe_mid3_L",
      "children" : [ 292 ],
      "translation" : [ -0.13691, 1.20792e-15, -1.10187e-13 ],
      "rotation" : [ -0.00206517, 0.074922, -0.0272209, -0.996816 ]
    },
    {
      "name" : "toe_mid4_L",
      "children" : [ 293 ],
      "translation" : [ -0.144832, 1.98952e-15, -1.16511e-13 ],
      "rotation" : [ -0.00171752, -0.0275094, 0.0703043, -0.997145 ]
    },
    {
      "name" : "toe_midEnd_L",
      "translation" : [ -0.000428758, 0, -3.55271e-16 ],
      "rotation" : [ 2.2123e-19, -2.77556e-17, -3.58288e-19, -1 ]
    },
    {
      "name" : "toe_in1_L",
      "children" : [ 295 ],
      "translation" : [ -0.508015, -0.117707, -0.0135452 ],
      "rotation" : [ -0.00925452, -0.0747443, 0.992087, 0.100448 ]
    },
    {
      "name" : "toe_in2_L",
      "children" : [ 296 ],
      "translation" : [ -0.158552, 1.42819e-14, -1.23848e-13 ],
      "rotation" : [ 0.00454409, -0.162792, 0.000556107, -0.98665 ]
    },
    {
      "name" : "toe_in3_L",
      "children" : [ 297 ],
      "translation" : [ -0.145575, 6.89226e-15, -1.1342e-13 ],
      "rotation" : [ 0.000353011, 0.137698, -0.00692991, -0.99045 ]
    },
    {
      "name" : "toe_in4_L",
      "children" : [ 298 ],
      "translation" : [ -0.143962, 1.25766e-14, -1.12657e-13 ],
      "rotation" : [ -0.00178298, -0.0638279, -0.00309346, -0.997954 ]
    },
    {
      "name" : "toe_inEnd_L",
      "translation" : [ -0.000413305, 7.10543e-17, -3.19744e-16 ],
      "rotation" : [ 8.67362e-19, -1.21311e-35, 1.39862e-17, -1 ]
    },
    {
      "name" : "toe_out5_L",
      "children" : [ 300 ],
      "translation" : [ -0.534129, 0.111422, -0.0492271 ],
      "rotation" : [ -0.141424, 0.0604915, 0.968866, -0.194007 ]
    },
    {
      "name" : "toe_out6_L",
      "children" : [ 301 ],
      "translation" : [ -0.146149, -1.09424e-14, -1.09317e-13 ],
      "rotation" : [ -0.00141637, 0.00309534, 0.0108916, -0.999935 ]
    },
    {
      "name" : "toe_out7_L",
      "children" : [ 302 ],
      "translation" : [ -0.144063, -1.49214e-14, -1.09388e-13 ],
      "rotation" : [ 0.00314246, 0.0238262, -0.000188034, -0.999711 ]
    },
    {
      "name" : "toe_out8_L",
      "children" : [ 303 ],
      "translation" : [ -0.181553, -1.53477e-14, -1.37916e-13 ],
      "rotation" : [ -0.000367708, 0.0208551, -0.00952286, -0.999737 ]
    },
    {
      "name" : "toe_outEnd_L",
      "translation" : [ -0.000318152, 0, -2.4869e-16 ],
      "rotation" : [ -1.21431e-17, 2.77556e-17, -3.1225e-17, -1 ]
    },
    {
      "name" : "sideToe2_L",
      "children" : [ 305 ],
      "translation" : [ -0.458971, 0.149743, -0.0409366 ],
      "rotation" : [ 0.792865, -0.082126, 0.110004, -0.593733 ]
    },
    {
      "name" : "sideToe3_L",
      "children" : [ 306 ],
      "translation" : [ -0.110171, 8.22808e-14, 2.57216e-14 ],
      "rotation" : [ 0.647777, -0.232256, 0.171685, -0.704958 ]
    },
    {
      "name" : "sideToe4_L",
      "translation" : [ -0.000382396, -1.42109e-16, 2.84217e-16 ],
      "rotation" : [ 2.42861e-17, -1.38778e-17, -1.38778e-17, -1 ]
    }
  ],
  "skins" : [
    {
      "inverseBindMatrices" : 0,
      "skeleton" : 1,
      "joints" : [
        1,2,3,4,5,6,7,8,9,10,11,12,13,14,15,16,17,18,19,20,21,22,23,24,25,26,27,28,29,30,31,32,
        33,34,35,36,37,38,39,40,41,42,43,44,45,46,47,48,49,50,51,52,53,54,55,56,57,58,59,60,61,62,63,64,
        65,66,67,68,69,70,71,72,73,74,75,76,77,78,79,80,81,82,83,84,85,86,87,88,89,90,91,92,93,94,95,96,
        97,98,99,100,101,102,103,104,105,106,107,108,109,110,111,112,113,114,115,116,117,118,119,120,121,122,123,124,125,126,127,128,
        129,130,131,132,133,134,135,136,137,138,139,140,141,142,143,144,145,146,147,148,149,150,151,152,153,154,155,156,157,158,159,160,
        161,162,163,164,165,166,167,168,169,170,171,172,173,174,175,176,177,178,179,180,181,182,183,184,185,186,187,188,189,190,191,192,
        193,194,195,196,197,198,199,200,201,202,203,204,205,206,207,208,209,210,211,212,213,214,215,216,217,218,219,220,221,222,223,224,
        225,226,227,228,229,230,231,232,233,234,235,236,237,238,239,240,241,242,243,244,245,246,247,248,249,250,251,252,253,254,255,256,
        257,258,259,260,261,262,263,264,265,266,267,268,269,270,271,272,273,274,275,276,277,278,279,280,281,282,283,284,285,286,287,288,
        289,290,291,292,293,294,295,296,297,298,299,300,301,302,303,304,305,306
      ]
    }
  ],
  "materials" : [
    {
      "name" : "dummy_material_0",
      "pbrMetallicRoughness" : {
        "baseColorFactor" : [ 0.3, 0.3, 0.3, 1.0 ],
        "metallicFactor" : 0.1,
        "roughnessFactor" : 0.5
      }
    }
  ],
  "meshes" : [
    {
      "primitives" : [
        {
          "attributes" : {
            "POSITION" : 2,
            "NORMAL" : 3,
            "TANGENT" : 4,
            "COLOR_0" : 5,
            "JOINTS_0" : 6,
            "WEIGHTS_0" : 7,
            "TEXCOORD_0" : 8,
            "TEXCOORD_1" : 9
          },
          "indices" : 1,
          "material" : 0
        }
      ],
      "name" : "Acro_Mesh"
    }
  ],
  "buffers" : [
    {
      "uri" : "Acro_Mesh.bin",
      "byteLength" : 2481660
    }
  ],
  "bufferViews" : [
    {
      "buffer" : 0,
      "byteOffset" : 0,
      "byteLength" : 19584
    },
    {
      "buffer" : 0,
      "byteOffset" : 19584,
      "byteLength" : 302796
    },
    {
      "buffer" : 0,
      "byteOffset" : 322380,
      "byteLength" : 359880
    },
    {
      "buffer" : 0,
      "byteOffset" : 682260,
      "byteLength" : 359880
    },
    {
      "buffer" : 0,
      "byteOffset" : 1042140,
      "byteLength" : 479840
    },
    {
      "buffer" : 0,
      "byteOffset" : 1521980,
      "byteLength" : 119960
    },
    {
      "buffer" : 0,
      "byteOffset" : 1641940,
      "byteLength" : 239920
    },
    {
      "buffer" : 0,
      "byteOffset" : 1881860,
      "byteLength" : 119960
    },
    {
      "buffer" : 0,
      "byteOffset" : 2001820,
      "byteLength" : 239920
    },
    {
      "buffer" : 0,
      "byteOffset" : 2241740,
      "byteLength" : 239920
    }
  ],
  "accessors" : [
    {
      "bufferView" : 0,
      "componentType" : 5126,
      "count" : 306,
      "type" : "MAT4"
    },
    {
      "bufferView" : 1,
      "componentType" : 5123,
      "count" : 151398,
      "type" : "SCALAR"
    },
    {
      "bufferView" : 2,
      "min" : [ -0.950956, -0.0489322, -7.55305 ],
      "max" : [ 0.950957, 4.64014, 5.08405 ],
      "componentType" : 5126,
      "count" : 29990,
      "type" : "VEC3"
    },
    {
      "bufferView" : 3,
      "componentType" : 5126,
      "count" : 29990,
      "type" : "VEC3"
    },
    {
      "bufferView" : 4,
      "componentType" : 5126,
      "count" : 29990,
      "type" : "VEC4"
    },
    {
      "bufferView" : 5,
      "normalized" : true,
      "componentType" : 5121,
      "count" : 29990,
      "type" : "VEC4"
    },
    {
      "bufferView" : 6,
      "componentType" : 5123,
      "count" : 29990,
      "type" : "VEC4"
    },
    {
      "bufferView" : 7,
      "normalized" : true,
      "componentType" : 5121,
      "count" : 29990,
      "type" : "VEC4"
    },
    {
      "bufferView" : 8,
      "componentType" : 5126,
      "count" : 29990,
      "type" : "VEC2"
    },
    {
      "bufferView" : 9,
      "componentType" : 5126,
      "count" : 29990,
      "type" : "VEC2"
    }
  ]
}
