{
  "asset" : {
    "generator" : "UE Viewer (umodel) build 1612-floxay",
    "version" : "2.0"
  },
  "scene" : 0,
  "scenes" : [
    {
      "nodes" : [ 0 ]
    }
  ],
  "nodes" : [
    {
      "name" : "Plesiosaur",
      "mesh" : 0,
      "skin" : 0,
      "children" : [ 1 ]
    },
    {
      "name" : "root",
      "children" : [ 2 ],
      "translation" : [ 0, 0, -0 ],
      "rotation" : [ -0.707107, -0, 0, -0.707107 ]
    },
    {
      "name" : "c_back1",
      "children" : [ 3, 30, 34, 39 ],
      "translation" : [ 5.69491e-13, -1.00931, -0.33405 ],
      "rotation" : [ -5.63982e-14, -5.63982e-14, -0.707107, -0.707107 ]
    },
    {
      "name" : "c_back2",
      "children" : [ 4 ],
      "translation" : [ 0.533745, 2.8429e-07, -2.8e-07 ],
      "rotation" : [ -0, -0, -2.64698e-23, -1 ]
    },
    {
      "name" : "c_back3",
      "children" : [ 5 ],
      "translation" : [ 0.564394, 3.00615e-07, -3.1e-07 ],
      "rotation" : [ -0, -0, -2.64698e-23, -1 ]
    },
    {
      "name" : "c_back4",
      "children" : [ 6, 22, 26 ],
      "translation" : [ 0.636139, 3.38828e-07, -3.3e-07 ],
      "rotation" : [ -0, -0, -2.64698e-23, -1 ]
    },
    {
      "name" : "c_neck1",
      "children" : [ 7 ],
      "translation" : [ 0.680119, 3.62253e-07, -3.7e-07 ],
      "rotation" : [ -0, -0, -2.64698e-23, -1 ]
    },
    {
      "name" : "c_neck2",
      "children" : [ 8 ],
      "translation" : [ 0.622956, 3.31808e-07, -3.2e-07 ],
      "rotation" : [ -0, -0, -2.64698e-23, -1 ]
    },
    {
      "name" : "c_neck3",
      "children" : [ 9 ],
      "translation" : [ 0.74179, 3.951e-07, -4e-07 ],
      "rotation" : [ -0, -0, -2.64698e-23, -1 ]
    },
    {
      "name" : "c_neck4",
      "children" : [ 10 ],
      "translation" : [ 0.773491, 4.1199e-07, -4.2e-07 ],
      "rotation" : [ -0, -0, -2.64698e-23, -1 ]
    },
    {
      "name" : "c_neck5",
      "children" : [ 11 ],
      "translation" : [ 0.68473, 3.647e-07, -3.6e-07 ],
      "rotation" : [ -0, -0, -2.64698e-23, -1 ]
    },
    {
      "name" : "c_neck6",
      "children" : [ 12 ],
      "translation" : [ 0.68473, 3.6471e-07, -3.7e-07 ],
      "rotation" : [ -0, -0, -2.64698e-23, -1 ]
    },
    {
      "name" : "c_neck7",
      "children" : [ 13 ],
      "translation" : [ 0.481847, 2.5665e-07, -2.5e-07 ],
      "rotation" : [ -0, -0, -2.64698e-23, -1 ]
    },
    {
      "name" : "c_neck8",
      "children" : [ 14, 15, 21 ],
      "translation" : [ 0.5, 2.6632e-07, -2.7e-07 ],
      "rotation" : [ -0, -0, -2.64698e-23, -1 ]
    },
    {
      "name" : "l_eye",
      "translation" : [ 0.397265, -0.125452, -0.0700741 ],
      "rotation" : [ -0.642736, 0.289704, 0.454241, -0.544635 ]
    },
    {
      "name" : "c_jaw",
      "children" : [ 16 ],
      "translation" : [ 0.155962, 8.30667e-08, 0.0155082 ],
      "rotation" : [ -7.43547e-08, 0.28313, -2.58967e-07, -0.959081 ]
    },
    {
      "name" : "c_tongue1",
      "children" : [ 17 ],
      "translation" : [ -0.104005, 4.36346e-12, 0.114912 ],
      "rotation" : [ 3.31065e-12, -0.212409, -1.05687e-12, -0.977181 ]
    },
    {
      "name" : "c_tongue2",
      "children" : [ 18 ],
      "translation" : [ 0.0967593, -4.86548e-12, -4.6361e-06 ],
      "rotation" : [ -2.84529e-12, 0.25069, 1.32187e-12, -0.968067 ]
    },
    {
      "name" : "c_tongue3",
      "children" : [ 19 ],
      "translation" : [ 0.123045, 1.41272e-12, 7.80328e-07 ],
      "rotation" : [ -1.80214e-13, -0.0318765, -1.15912e-13, -0.999492 ]
    },
    {
      "name" : "c_tongue4",
      "children" : [ 20 ],
      "translation" : [ 0.115157, -9e-13, -9.86376e-07 ],
      "rotation" : [ -4.04371e-13, -0.0509591, 6.79646e-14, -0.998701 ]
    },
    {
      "name" : "c_tongue5",
      "translation" : [ 0.0935826, 8.31683e-18, 5.68434e-16 ],
      "rotation" : [ 2.68834e-24, 0, -2.48154e-24, -1 ]
    },
    {
      "name" : "r_eye",
      "translation" : [ 0.397266, 0.125448, -0.0700793 ],
      "rotation" : [ 0.454241, -0.544635, 0.642735, -0.289704 ]
    },
    {
      "name" : "l_FlipperA1",
      "children" : [ 23 ],
      "translation" : [ -0.0456256, -0.904224, 0.399629 ],
      "rotation" : [ -0.00314293, 0.0610339, 0.681375, -0.729378 ]
    },
    {
      "name" : "l_FlipperA2",
      "children" : [ 24 ],
      "translation" : [ 0.852471, -6.07274e-07, 3.09894e-07 ],
      "rotation" : [ -0.0045268, -0.0367375, 0.122207, -0.991814 ]
    },
    {
      "name" : "l_FlipperA3",
      "children" : [ 25 ],
      "translation" : [ 0.732148, -7.73558e-08, -5.21817e-07 ],
      "rotation" : [ -0.00184866, -0.0148054, 0.123891, -0.992184 ]
    },
    {
      "name" : "l_FlipperA4",
      "translation" : [ 0.732773, -2.04348e-07, 3.52762e-07 ],
      "rotation" : [ -0.0058871, -0.0201277, 0.166708, -0.985783 ]
    },
    {
      "name" : "r_FlipperA1",
      "children" : [ 27 ],
      "translation" : [ -0.045627, 0.904224, 0.399628 ],
      "rotation" : [ 0.681376, -0.729378, 0.00314356, -0.0610349 ]
    },
    {
      "name" : "r_FlipperA2",
      "children" : [ 28 ],
      "translation" : [ -0.852468, -4.35308e-07, 1.0018e-07 ],
      "rotation" : [ -0.00452658, -0.0367376, 0.122206, -0.991814 ]
    },
    {
      "name" : "r_FlipperA3",
      "children" : [ 29 ],
      "translation" : [ -0.732153, -2.45269e-06, 1.1723e-06 ],
      "rotation" : [ -0.00184884, -0.0148056, 0.123891, -0.992184 ]
    },
    {
      "name" : "r_FlipperA4",
      "translation" : [ -0.732773, 3.92716e-06, -1.7176e-06 ],
      "rotation" : [ -0.00588818, -0.0201274, 0.166707, -0.985783 ]
    },
    {
      "name" : "l_flipperB1",
      "children" : [ 31 ],
      "translation" : [ 0.0217647, -0.728821, 0.185396 ],
      "rotation" : [ -0.0568235, 0.111074, 0.789202, -0.601326 ]
    },
    {
      "name" : "l_flipperB2",
      "children" : [ 32 ],
      "translation" : [ 0.481232, -1.03503e-06, -4.95772e-07 ],
      "rotation" : [ 0.000157019, 0.00184856, 0.0846054, -0.996413 ]
    },
    {
      "name" : "l_flipperB3",
      "children" : [ 33 ],
      "translation" : [ 0.474568, 2.51738e-07, -1.08081e-06 ],
      "rotation" : [ -0.00315807, -0.0235542, 0.132864, -0.990849 ]
    },
    {
      "name" : "l_flipperB4",
      "translation" : [ 0.497946, 2.16982e-07, 1.64333e-06 ],
      "rotation" : [ -0.000312339, -0.0314442, 0.00990991, -0.999456 ]
    },
    {
      "name" : "c_tail1",
      "children" : [ 35 ],
      "translation" : [ -0.412895, -2.1992e-07, 0.00904368 ],
      "rotation" : [ 0.03379, 6.74911e-09, 0.999429, -1.99623e-07 ]
    },
    {
      "name" : "c_tail2",
      "children" : [ 36 ],
      "translation" : [ 0.581672, -3.55358e-17, -1.71695e-08 ],
      "rotation" : [ -2.77536e-33, -0.0242838, -1.48695e-18, -0.999705 ]
    },
    {
      "name" : "c_tail3",
      "children" : [ 37 ],
      "translation" : [ 0.596227, -3.65017e-17, -4.11075e-07 ],
      "rotation" : [ 9.14674e-33, -0.0316725, -1.93938e-18, -0.999498 ]
    },
    {
      "name" : "c_tail4",
      "children" : [ 38 ],
      "translation" : [ 0.461424, -2.82263e-17, 3.69382e-07 ],
      "rotation" : [ -1.41857e-33, -0.0104719, -6.41217e-19, -0.999945 ]
    },
    {
      "name" : "c_tail5",
      "translation" : [ 0.340687, -2.08166e-17, -0 ],
      "rotation" : [ -0, -0, 9.62965e-33, -1 ]
    },
    {
      "name" : "r_flipperB1",
      "children" : [ 40 ],
      "translation" : [ 0.0217616, 0.728821, 0.185396 ],
      "rotation" : [ -0.789203, 0.601325, -0.056824, 0.111074 ]
    },
    {
      "name" : "r_flipperB2",
      "children" : [ 41 ],
      "translation" : [ -0.48123, -1.68896e-06, 2.07532e-06 ],
      "rotation" : [ 0.000157002, 0.00184855, 0.0846054, -0.996413 ]
    },
    {
      "name" : "r_flipperB3",
      "children" : [ 42 ],
      "translation" : [ -0.474565, -9.88917e-07, 4.57354e-07 ],
      "rotation" : [ -0.00315799, -0.0235538, 0.132864, -0.990849 ]
    },
    {
      "name" : "r_flipperB4",
      "translation" : [ -0.497952, -5.12002e-06, 1.67772e-06 ],
      "rotation" : [ -0.000312288, -0.0314449, 0.00990991, -0.999456 ]
    }
  ],
  "skins" : [
    {
      "inverseBindMatrices" : 0,
      "skeleton" : 1,
      "joints" : [
        1,2,3,4,5,6,7,8,9,10,11,12,13,14,15,16,17,18,19,20,21,22,23,24,25,26,27,28,29,30,31,32,
        33,34,35,36,37,38,39,40,41,42
      ]
    }
  ],
  "materials" : [
    {
      "name" : "dummy_material_0",
      "pbrMetallicRoughness" : {
        "baseColorFactor" : [ 0.3, 0.3, 0.3, 1.0 ],
        "metallicFactor" : 0.1,
        "roughnessFactor" : 0.5
      }
    }
  ],
  "meshes" : [
    {
      "primitives" : [
        {
          "attributes" : {
            "POSITION" : 2,
            "NORMAL" : 3,
            "TANGENT" : 4,
            "COLOR_0" : 5,
            "JOINTS_0" : 6,
            "WEIGHTS_0" : 7,
            "TEXCOORD_0" : 8,
            "TEXCOORD_1" : 9
          },
          "indices" : 1,
          "material" : 0
        }
      ],
      "name" : "Plesiosaur"
    }
  ],
  "buffers" : [
    {
      "uri" : "Plesiosaur.bin",
      "byteLength" : 1240104
    }
  ],
  "bufferViews" : [
    {
      "buffer" : 0,
      "byteOffset" : 0,
      "byteLength" : 2688
    },
    {
      "buffer" : 0,
      "byteOffset" : 2688,
      "byteLength" : 152736
    },
    {
      "buffer" : 0,
      "byteOffset" : 155424,
      "byteLength" : 180780
    },
    {
      "buffer" : 0,
      "byteOffset" : 336204,
      "byteLength" : 180780
    },
    {
      "buffer" : 0,
      "byteOffset" : 516984,
      "byteLength" : 241040
    },
    {
      "buffer" : 0,
      "byteOffset" : 758024,
      "byteLength" : 60260
    },
    {
      "buffer" : 0,
      "byteOffset" : 818284,
      "byteLength" : 120520
    },
    {
      "buffer" : 0,
      "byteOffset" : 938804,
      "byteLength" : 60260
    },
    {
      "buffer" : 0,
      "byteOffset" : 999064,
      "byteLength" : 120520
    },
    {
      "buffer" : 0,
      "byteOffset" : 1119584,
      "byteLength" : 120520
    }
  ],
  "accessors" : [
    {
      "bufferView" : 0,
      "componentType" : 5126,
      "count" : 42,
      "type" : "MAT4"
    },
    {
      "bufferView" : 1,
      "componentType" : 5123,
      "count" : 76368,
      "type" : "SCALAR"
    },
    {
      "bufferView" : 2,
      "min" : [ -3.52638, -0.664167, -3.38245 ],
      "max" : [ 3.52638, 1.056, 6.59548 ],
      "componentType" : 5126,
      "count" : 15065,
      "type" : "VEC3"
    },
    {
      "bufferView" : 3,
      "componentType" : 5126,
      "count" : 15065,
      "type" : "VEC3"
    },
    {
      "bufferView" : 4,
      "componentType" : 5126,
      "count" : 15065,
      "type" : "VEC4"
    },
    {
      "bufferView" : 5,
      "normalized" : true,
      "componentType" : 5121,
      "count" : 15065,
      "type" : "VEC4"
    },
    {
      "bufferView" : 6,
      "componentType" : 5123,
      "count" : 15065,
      "type" : "VEC4"
    },
    {
      "bufferView" : 7,
      "normalized" : true,
      "componentType" : 5121,
      "count" : 15065,
      "type" : "VEC4"
    },
    {
      "bufferView" : 8,
      "componentType" : 5126,
      "count" : 15065,
      "type" : "VEC2"
    },
    {
      "bufferView" : 9,
      "componentType" : 5126,
      "count" : 15065,
      "type" : "VEC2"
    }
  ]
}
