{
  "asset" : {
    "generator" : "UE Viewer (umodel) build 1612-floxay",
    "version" : "2.0"
  },
  "scene" : 0,
  "scenes" : [
    {
      "nodes" : [ 0 ]
    }
  ],
  "nodes" : [
    {
      "name" : "SK_Mammoth_new",
      "mesh" : 0,
      "skin" : 0,
      "children" : [ 1 ]
    },
    {
      "name" : "root",
      "children" : [ 2 ],
      "translation" : [ 0, 0, -0 ],
      "rotation" : [ -0.707107, -0, 0, -0.707107 ]
    },
    {
      "name" : "c_back1",
      "children" : [ 3, 66, 70, 82 ],
      "translation" : [ 0, -0.557931, -1.79113 ],
      "rotation" : [ 0.0516073, -0.0516073, -0.705221, -0.705221 ]
    },
    {
      "name" : "c_back2",
      "children" : [ 4 ],
      "translation" : [ 0.439253, 2.81325e-16, -5.68434e-16 ],
      "rotation" : [ -1.84889e-32, 1.66533e-16, 1.15556e-32, -1 ]
    },
    {
      "name" : "c_back3",
      "children" : [ 5 ],
      "translation" : [ 0.439253, 2.76475e-16, -0 ],
      "rotation" : [ 6.16298e-33, 1.52656e-16, -7.70372e-34, -1 ]
    },
    {
      "name" : "c_back4",
      "children" : [ 6, 40, 53 ],
      "translation" : [ 0.439253, 2.76475e-16, -2.84217e-16 ],
      "rotation" : [ 6.16298e-33, 1.66533e-16, 1.54074e-33, -1 ]
    },
    {
      "name" : "c_back5",
      "children" : [ 7 ],
      "translation" : [ 0.439253, 4.26839e-16, -1.98952e-15 ],
      "rotation" : [ 0, -0, 0.707107, -0.707107 ]
    },
    {
      "name" : "c_head",
      "children" : [ 8, 9, 10, 11, 12, 23, 26, 29, 36, 37, 38, 39 ],
      "translation" : [ 1.25937e-16, 0.436306, -0.0697539 ],
      "rotation" : [ -0.0446227, 0.0446227, -0.705697, -0.705697 ]
    },
    {
      "name" : "l_eye",
      "translation" : [ 0.368193, -0.226256, -0.0350814 ],
      "rotation" : [ 0.0472148, 0.0894185, 0.541698, -0.834469 ]
    },
    {
      "name" : "r_eye",
      "translation" : [ 0.368193, 0.226256, -0.0350814 ],
      "rotation" : [ 0.541698, -0.834469, -0.0472148, -0.0894185 ]
    },
    {
      "name" : "l_tusk",
      "translation" : [ 0.521696, -0.261177, 0.395205 ],
      "rotation" : [ -0.0345944, -0.285139, 0.75568, -0.588597 ]
    },
    {
      "name" : "r_tusk",
      "translation" : [ 0.521692, 0.261177, 0.395207 ],
      "rotation" : [ -0.75568, 0.588597, -0.0345944, -0.285139 ]
    },
    {
      "name" : "c_trunk1",
      "children" : [ 13 ],
      "translation" : [ 0.501659, 3.50784e-16, 0.122428 ],
      "rotation" : [ -6.39956e-16, 0.558922, 4.89432e-16, -0.82922 ]
    },
    {
      "name" : "c_trunk2",
      "children" : [ 14 ],
      "translation" : [ 0.243555, -1.69594e-16, 1.7053e-15 ],
      "rotation" : [ 9.37382e-32, 0.102276, -1.88617e-31, -0.994756 ]
    },
    {
      "name" : "c_trunk3",
      "children" : [ 15 ],
      "translation" : [ 0.354088, -2.43948e-16, -1.42109e-15 ],
      "rotation" : [ 7.64108e-32, -0.0741172, -3.02318e-31, -0.997249 ]
    },
    {
      "name" : "c_trunk4",
      "children" : [ 16 ],
      "translation" : [ 0.36102, -2.49474e-16, -5.68434e-16 ],
      "rotation" : [ -0, -0.0653174, 0, -0.997864 ]
    },
    {
      "name" : "c_trunk5",
      "children" : [ 17 ],
      "translation" : [ 0.274121, -2.11625e-16, -6.82121e-15 ],
      "rotation" : [ 8.72992e-32, -0.10875, -1.08746e-31, -0.994069 ]
    },
    {
      "name" : "c_trunk6",
      "children" : [ 18 ],
      "translation" : [ 0.285078, -1.75478e-16, -5.68434e-16 ],
      "rotation" : [ 1.79327e-31, -0.0592965, -3.06996e-31, -0.99824 ]
    },
    {
      "name" : "c_trunk7",
      "children" : [ 19, 20, 21, 22 ],
      "translation" : [ 0.204168, -8.59512e-17, 1.13687e-15 ],
      "rotation" : [ 9.87271e-32, 0.000403962, -2.95783e-31, -1 ]
    },
    {
      "name" : "l_trunkGrip",
      "translation" : [ 0.0498309, -0.0781257, 1.10845e-14 ],
      "rotation" : [ -9.86076e-32, -0, 0, -1 ]
    },
    {
      "name" : "c_trunkUpperGrip",
      "translation" : [ 0.0800554, -1.77228e-17, -0.0210928 ],
      "rotation" : [ -9.86076e-32, -0, 0, -1 ]
    },
    {
      "name" : "c_trunkLowerGrip",
      "translation" : [ 0.0673382, -8.25281e-17, 0.0400076 ],
      "rotation" : [ -9.86076e-32, -0, 0, -1 ]
    },
    {
      "name" : "r_trunkGrip",
      "translation" : [ 0.049831, 0.0781257, 5.33948e-08 ],
      "rotation" : [ 0, -1, -9.86076e-32, -6.12323e-17 ]
    },
    {
      "name" : "r_earB1",
      "children" : [ 24 ],
      "translation" : [ -0.0117424, 0.268124, 0.00338023 ],
      "rotation" : [ -0.917482, 0.389393, -0.0791311, -0.0184049 ]
    },
    {
      "name" : "r_earB2",
      "children" : [ 25 ],
      "translation" : [ -0.082416, -1.36219e-07, 8.36086e-07 ],
      "rotation" : [ 1.64896e-17, -3.26398e-19, 0.0197903, -0.999804 ]
    },
    {
      "name" : "r_earB3",
      "translation" : [ -0.0815379, 3.41989e-07, -5.7788e-06 ],
      "rotation" : [ 0.0579698, 0.045178, -0.752639, -0.654318 ]
    },
    {
      "name" : "l_earB1",
      "children" : [ 27 ],
      "translation" : [ -0.0117424, -0.268124, 0.00338023 ],
      "rotation" : [ -0.0791311, -0.018405, 0.917482, -0.389393 ]
    },
    {
      "name" : "l_earB2",
      "children" : [ 28 ],
      "translation" : [ 0.0824163, 0, -0 ],
      "rotation" : [ 5.48209e-18, -1.3989e-17, 0.0197903, -0.999804 ]
    },
    {
      "name" : "l_earB3",
      "translation" : [ 0.0815378, 5.68434e-16, 5.68434e-16 ],
      "rotation" : [ 0.0579698, 0.045178, -0.752639, -0.654318 ]
    },
    {
      "name" : "c_jaw",
      "children" : [ 30, 34, 35 ],
      "translation" : [ 0.0962901, 5.25087e-16, 0.113382 ],
      "rotation" : [ -7.2924e-16, 0.370229, 3.42484e-16, -0.92894 ]
    },
    {
      "name" : "c_tongue1",
      "children" : [ 31 ],
      "translation" : [ 0.220462, 1.56967e-15, 0.0971314 ],
      "rotation" : [ -3.37199e-31, -0.51879, 2.04626e-31, -0.854902 ]
    },
    {
      "name" : "c_tongue2",
      "children" : [ 32 ],
      "translation" : [ 0.0694019, 8.15641e-16, -2.55795e-15 ],
      "rotation" : [ -1.10028e-31, 0.38996, 6.94744e-33, -0.920832 ]
    },
    {
      "name" : "c_tongue3",
      "children" : [ 33 ],
      "translation" : [ 0.0932042, -8.32798e-16, -1.7053e-15 ],
      "rotation" : [ 2.41797e-32, 0.245211, -9.55971e-32, -0.96947 ]
    },
    {
      "name" : "c_tongue4",
      "translation" : [ 0.102372, -3.29734e-16, 3.97904e-15 ],
      "rotation" : [ 1.39394e-32, -0.141363, 9.76174e-32, -0.989958 ]
    },
    {
      "name" : "l_lowerTusk",
      "translation" : [ 0.455572, -0.0855856, 0.0854417 ],
      "rotation" : [ 0.251962, -0.16049, 0.765117, -0.570397 ]
    },
    {
      "name" : "r_lowerTusk",
      "translation" : [ 0.455571, 0.08559, 0.0854479 ],
      "rotation" : [ -0.765117, 0.570397, 0.251962, -0.16049 ]
    },
    {
      "name" : "r_upperEye",
      "translation" : [ 0.396312, 0.26275, -0.0396154 ],
      "rotation" : [ -0.707072, 0.707072, -0.00700121, 0.00700121 ]
    },
    {
      "name" : "r_lowerEye",
      "translation" : [ 0.379142, 0.247352, 0.000672042 ],
      "rotation" : [ -0.707072, 0.707072, -0.00700121, 0.00700121 ]
    },
    {
      "name" : "l_upperEye",
      "translation" : [ 0.396312, -0.26275, -0.0396154 ],
      "rotation" : [ -0.0070014, 0.0070014, 0.707072, -0.707072 ]
    },
    {
      "name" : "l_lowerEye",
      "translation" : [ 0.379142, -0.247352, 0.000672044 ],
      "rotation" : [ -0.0070014, 0.0070014, 0.707072, -0.707072 ]
    },
    {
      "name" : "l_scapula",
      "children" : [ 41 ],
      "translation" : [ 0.166233, -0.261096, -0.262806 ],
      "rotation" : [ -0.128927, 0.64312, 0.0855854, -0.749966 ]
    },
    {
      "name" : "l_shoulder",
      "children" : [ 42, 43 ],
      "translation" : [ 0.503996, -4.26326e-16, -0 ],
      "rotation" : [ -0.414477, 0.105437, -0.244467, -0.870246 ]
    },
    {
      "name" : "l_armTwist",
      "translation" : [ 0.316039, 1.42109e-16, -3.55271e-17 ],
      "rotation" : [ 5.59448e-17, 1.04083e-17, -6.93889e-18, -1 ]
    },
    {
      "name" : "l_elbow",
      "children" : [ 44 ],
      "translation" : [ 0.768967, 7.10543e-16, -1.27898e-15 ],
      "rotation" : [ -0.000336449, -0.0521647, 0.0497005, -0.997401 ]
    },
    {
      "name" : "l_wrist",
      "children" : [ 45, 47, 49, 51 ],
      "translation" : [ 0.787105, -3.14288e-08, 1.67697e-08 ],
      "rotation" : [ 0.499561, 0.0133252, 0.0269582, -0.865757 ]
    },
    {
      "name" : "l_wristHeel1",
      "children" : [ 46 ],
      "translation" : [ 0.236688, -6.73142e-05, 3.01981e-12 ],
      "rotation" : [ -0.000100551, -0.707107, 0.000100551, -0.707107 ]
    },
    {
      "name" : "l_wristHeel2",
      "translation" : [ 0.216381, -3.51719e-13, -3.6392e-12 ],
      "rotation" : [ 1.15793e-16, -7.28584e-17, 5.30514e-17, -1 ]
    },
    {
      "name" : "l_wristToeA1",
      "children" : [ 48 ],
      "translation" : [ 0.0940151, -0.0565015, -0.00181766 ],
      "rotation" : [ 0.707787, -0.250379, 0.223035, -0.621774 ]
    },
    {
      "name" : "l_wristToeA2",
      "translation" : [ 0.184295, -8.52651e-16, 5.68434e-16 ],
      "rotation" : [ -0, 2.77556e-17, -0, -1 ]
    },
    {
      "name" : "l_wristToeC1",
      "children" : [ 50 ],
      "translation" : [ 0.0980775, 0.0690054, -0.021486 ],
      "rotation" : [ 0.710769, 0.265885, -0.314347, -0.570349 ]
    },
    {
      "name" : "l_wristToeC2",
      "translation" : [ 0.184295, 1.42109e-15, 4.26326e-16 ],
      "rotation" : [ 4.11997e-17, 9.82713e-35, -2.38524e-18, -1 ]
    },
    {
      "name" : "l_wristToeB1",
      "children" : [ 52 ],
      "translation" : [ 0.0966049, -0.00290748, -0.0723471 ],
      "rotation" : [ -4.07913e-05, -0.41978, 0.000201168, -0.907626 ]
    },
    {
      "name" : "l_wristToeB2",
      "translation" : [ 0.184295, 1.42109e-16, 9.9476e-16 ],
      "rotation" : [ -1.71304e-17, -4.45747e-35, -2.60208e-18, -1 ]
    },
    {
      "name" : "r_scapula",
      "children" : [ 54 ],
      "translation" : [ 0.166233, 0.261096, -0.262801 ],
      "rotation" : [ 0.0855854, -0.749966, 0.128927, -0.64312 ]
    },
    {
      "name" : "r_shoulder",
      "children" : [ 55, 65 ],
      "translation" : [ -0.503989, 2.52512e-06, -3.34069e-07 ],
      "rotation" : [ -0.414479, 0.105436, -0.244467, -0.870245 ]
    },
    {
      "name" : "r_elbow",
      "children" : [ 56 ],
      "translation" : [ -0.768972, 3.35753e-07, 2.10155e-06 ],
      "rotation" : [ -0.000336449, -0.0521647, 0.0497005, -0.997401 ]
    },
    {
      "name" : "r_wrist",
      "children" : [ 57, 59, 61, 63 ],
      "translation" : [ -0.787102, -2.19264e-07, 6.98188e-08 ],
      "rotation" : [ 0.499564, 0.0133255, 0.0269578, -0.865755 ]
    },
    {
      "name" : "r_wristHeel1",
      "children" : [ 58 ],
      "translation" : [ -0.236688, 7.11213e-08, 3.74448e-06 ],
      "rotation" : [ 2.26985e-16, -0.707107, -2.35763e-16, -0.707107 ]
    },
    {
      "name" : "r_wristHeel2",
      "translation" : [ -0.216376, 6.73775e-05, -4.84913e-07 ],
      "rotation" : [ -0.0001422, 8.84828e-17, 8.35184e-17, -1 ]
    },
    {
      "name" : "r_wristToeA1",
      "children" : [ 60 ],
      "translation" : [ -0.0940155, 0.0565021, 0.00181796 ],
      "rotation" : [ 0.707787, -0.250379, 0.223035, -0.621774 ]
    },
    {
      "name" : "r_wristToeA2",
      "translation" : [ -0.184294, 4.94451e-06, 5.05074e-08 ],
      "rotation" : [ 1.38778e-17, -2.77556e-17, 1.38778e-17, -1 ]
    },
    {
      "name" : "r_wristToeC1",
      "children" : [ 62 ],
      "translation" : [ -0.0980778, -0.0690049, 0.0214867 ],
      "rotation" : [ 0.710769, 0.265885, -0.314347, -0.570349 ]
    },
    {
      "name" : "r_wristToeC2",
      "translation" : [ -0.184295, 3.05589e-06, -6.30582e-07 ],
      "rotation" : [ 2.12504e-17, -2.77556e-17, -2.20093e-17, -1 ]
    },
    {
      "name" : "r_wristToeB1",
      "children" : [ 64 ],
      "translation" : [ -0.0966048, 0.00290791, 0.0723476 ],
      "rotation" : [ -4.07913e-05, -0.41978, 0.000201168, -0.907626 ]
    },
    {
      "name" : "r_wristToeB2",
      "translation" : [ -0.184298, 5.23317e-07, 3.17505e-06 ],
      "rotation" : [ -4.11997e-18, -8.32667e-17, 5.52943e-18, -1 ]
    },
    {
      "name" : "r_armTwist",
      "translation" : [ -0.316043, 3.87735e-07, 7.80413e-06 ],
      "rotation" : [ -3.64739e-05, -1.04086e-17, -6.93851e-18, -1 ]
    },
    {
      "name" : "c_tail1",
      "children" : [ 67 ],
      "translation" : [ -0.365819, -3.91788e-16, 0.0404817 ],
      "rotation" : [ 0.439033, -8.18985e-17, 0.898471, -2.81325e-17 ]
    },
    {
      "name" : "c_tail2",
      "children" : [ 68 ],
      "translation" : [ 0.273697, -2.49862e-17, 1.42109e-15 ],
      "rotation" : [ -0, 0.118189, -0, -0.992991 ]
    },
    {
      "name" : "c_tail3",
      "children" : [ 69 ],
      "translation" : [ 0.231701, -5.19933e-17, 2.84217e-16 ],
      "rotation" : [ -3.07898e-33, 0.0403716, -1.24405e-34, -0.999185 ]
    },
    {
      "name" : "c_tail4",
      "translation" : [ 0.211769, -4.3329e-17, 1.13687e-15 ],
      "rotation" : [ -0.999829, -1.13268e-18, -0.0184981, 6.12219e-17 ]
    },
    {
      "name" : "l_hip",
      "children" : [ 71, 72 ],
      "translation" : [ -0.0567549, -0.325858, 0.108388 ],
      "rotation" : [ 0.0516367, 0.738381, 0.0644792, -0.669305 ]
    },
    {
      "name" : "l_legTwist",
      "translation" : [ 0.258661, 1.42109e-16, -1.42109e-16 ],
      "rotation" : [ -0.000283674, 3.4692e-18, -8.68346e-19, -1 ]
    },
    {
      "name" : "l_knee",
      "children" : [ 73 ],
      "translation" : [ 0.74244, -9.50814e-11, -1.83441e-12 ],
      "rotation" : [ -0.00309371, 0.0527773, 0.00085462, -0.998601 ]
    },
    {
      "name" : "l_ankle",
      "children" : [ 74, 76, 78, 80 ],
      "translation" : [ 0.686623, -7.10543e-17, 7.10543e-17 ],
      "rotation" : [ -0.045153, -0.0516118, 0.0079201, -0.997615 ]
    },
    {
      "name" : "l_ankleHell1",
      "children" : [ 75 ],
      "translation" : [ 0.24792, -7.10543e-17, -4.26326e-16 ],
      "rotation" : [ 1.55936e-16, -0.707107, 1.37996e-18, -0.707107 ]
    },
    {
      "name" : "l_ankleHeel2",
      "translation" : [ 0.237693, -2.84217e-16, -2.88658e-17 ],
      "rotation" : [ 1.11022e-16, 4.16334e-17, -1.2631e-17, -1 ]
    },
    {
      "name" : "l_ankleToeA1",
      "children" : [ 77 ],
      "translation" : [ 0.0990535, -0.0714484, -0.0118717 ],
      "rotation" : [ 0.641366, -0.260692, 0.239779, -0.680584 ]
    },
    {
      "name" : "l_ankleToeA2",
      "translation" : [ 0.184295, -1.91847e-15, 1.63425e-15 ],
      "rotation" : [ -3.46945e-18, 2.77556e-17, 3.46945e-18, -1 ]
    },
    {
      "name" : "l_ankleToeB1",
      "children" : [ 79 ],
      "translation" : [ 0.100336, -0.0114816, -0.091571 ],
      "rotation" : [ 1.21319e-19, -0.39312, -8.54166e-18, -0.919487 ]
    },
    {
      "name" : "l_ankleToeB2",
      "translation" : [ 0.184295, 0, 1.10134e-15 ],
      "rotation" : [ -2.60208e-18, 8.32667e-17, -5.20417e-18, -1 ]
    },
    {
      "name" : "l_ankleToeC1",
      "children" : [ 81 ],
      "translation" : [ 0.0970009, 0.0641108, -0.0181954 ],
      "rotation" : [ -0.611141, -0.29071, -0.257948, -0.689533 ]
    },
    {
      "name" : "l_ankleToeC2",
      "translation" : [ 0.184295, 1.56319e-15, 1.77636e-16 ],
      "rotation" : [ -3.46945e-18, 2.77556e-17, 3.46945e-18, -1 ]
    },
    {
      "name" : "r_hip",
      "children" : [ 83, 93 ],
      "translation" : [ -0.0567541, 0.325858, 0.108383 ],
      "rotation" : [ 0.0644792, -0.669305, -0.0516367, -0.738381 ]
    },
    {
      "name" : "r_knee",
      "children" : [ 84 ],
      "translation" : [ -0.742444, -1.24366e-07, -2.38494e-07 ],
      "rotation" : [ -0.00309371, 0.0527773, 0.00085462, -0.998601 ]
    },
    {
      "name" : "r_ankle",
      "children" : [ 85, 87, 89, 91 ],
      "translation" : [ -0.686623, 2.38962e-07, -3.57775e-08 ],
      "rotation" : [ -0.045153, -0.0516118, 0.0079201, -0.997615 ]
    },
    {
      "name" : "r_ankleHell1",
      "children" : [ 86 ],
      "translation" : [ -0.24792, 6.89103e-07, 4.34228e-07 ],
      "rotation" : [ 5.44702e-17, -0.707107, 1.13349e-16, -0.707107 ]
    },
    {
      "name" : "r_ankleHeel2",
      "translation" : [ -0.237693, -6.16794e-07, 6.32549e-09 ],
      "rotation" : [ -1.16226e-16, 1.49186e-16, 2.74845e-17, -1 ]
    },
    {
      "name" : "r_ankleToeA1",
      "children" : [ 88 ],
      "translation" : [ -0.0990538, 0.0714491, 0.0118717 ],
      "rotation" : [ 0.641366, -0.260692, 0.239779, -0.680584 ]
    },
    {
      "name" : "r_ankleToeA2",
      "translation" : [ -0.184294, -1.33126e-07, -5.58556e-07 ],
      "rotation" : [ -6.93889e-18, -2.77556e-17, 6.93889e-18, -1 ]
    },
    {
      "name" : "r_ankleToeB1",
      "children" : [ 90 ],
      "translation" : [ -0.100336, 0.0114822, 0.0915715 ],
      "rotation" : [ -1.36965e-18, -0.39312, 3.41551e-18, -0.919487 ]
    },
    {
      "name" : "r_ankleToeB2",
      "translation" : [ -0.184294, 4.54304e-08, -1.53907e-07 ],
      "rotation" : [ -2.60208e-18, -4.5139e-36, -1.73472e-18, -1 ]
    },
    {
      "name" : "r_ankleToeC1",
      "children" : [ 92 ],
      "translation" : [ -0.0970005, -0.0641107, 0.0181955 ],
      "rotation" : [ -0.611141, -0.29071, -0.257948, -0.689533 ]
    },
    {
      "name" : "r_ankleToeC2",
      "translation" : [ -0.184294, 2.40588e-07, 5.1796e-08 ],
      "rotation" : [ 6.93889e-18, 2.77556e-17, -1.04083e-17, -1 ]
    },
    {
      "name" : "r_legTwist",
      "translation" : [ -0.258662, 4.61861e-07, 8.62454e-07 ],
      "rotation" : [ -0.000284327, 6.93865e-18, -8.69335e-19, -1 ]
    }
  ],
  "skins" : [
    {
      "inverseBindMatrices" : 0,
      "skeleton" : 1,
      "joints" : [
        1,2,3,4,5,6,7,8,9,10,11,12,13,14,15,16,17,18,19,20,21,22,23,24,25,26,27,28,29,30,31,32,
        33,34,35,36,37,38,39,40,41,42,43,44,45,46,47,48,49,50,51,52,53,54,55,56,57,58,59,60,61,62,63,64,
        65,66,67,68,69,70,71,72,73,74,75,76,77,78,79,80,81,82,83,84,85,86,87,88,89,90,91,92,93
      ]
    }
  ],
  "materials" : [
    {
      "name" : "dummy_material_0",
      "pbrMetallicRoughness" : {
        "baseColorFactor" : [ 0.3, 0.3, 0.3, 1.0 ],
        "metallicFactor" : 0.1,
        "roughnessFactor" : 0.5
      }
    },
    {
      "name" : "dummy_material_1",
      "pbrMetallicRoughness" : {
        "baseColorFactor" : [ 0.9, 0.3, 0.3, 1.0 ],
        "metallicFactor" : 0.1,
        "roughnessFactor" : 0.5
      }
    }
  ],
  "meshes" : [
    {
      "primitives" : [
        {
          "attributes" : {
            "POSITION" : 2,
            "NORMAL" : 3,
            "TANGENT" : 4,
            "COLOR_0" : 5,
            "JOINTS_0" : 6,
            "WEIGHTS_0" : 7,
            "TEXCOORD_0" : 8,
            "TEXCOORD_1" : 9,
            "TEXCOORD_2" : 10,
            "TEXCOORD_3" : 11
          },
          "indices" : 1,
          "material" : 0
        },
        {
          "attributes" : {
            "POSITION" : 13,
            "NORMAL" : 14,
            "TANGENT" : 15,
            "COLOR_0" : 16,
            "JOINTS_0" : 17,
            "WEIGHTS_0" : 18,
            "TEXCOORD_0" : 19,
            "TEXCOORD_1" : 20,
            "TEXCOORD_2" : 21,
            "TEXCOORD_3" : 22
          },
          "indices" : 12,
          "material" : 1
        }
      ],
      "name" : "SK_Mammoth_new"
    }
  ],
  "buffers" : [
    {
      "uri" : "SK_Mammoth_new.bin",
      "byteLength" : 3605288
    }
  ],
  "bufferViews" : [
    {
      "buffer" : 0,
      "byteOffset" : 0,
      "byteLength" : 5952
    },
    {
      "buffer" : 0,
      "byteOffset" : 5952,
      "byteLength" : 107256
    },
    {
      "buffer" : 0,
      "byteOffset" : 113208,
      "byteLength" : 132048
    },
    {
      "buffer" : 0,
      "byteOffset" : 245256,
      "byteLength" : 132048
    },
    {
      "buffer" : 0,
      "byteOffset" : 377304,
      "byteLength" : 176064
    },
    {
      "buffer" : 0,
      "byteOffset" : 553368,
      "byteLength" : 44016
    },
    {
      "buffer" : 0,
      "byteOffset" : 597384,
      "byteLength" : 88032
    },
    {
      "buffer" : 0,
      "byteOffset" : 685416,
      "byteLength" : 44016
    },
    {
      "buffer" : 0,
      "byteOffset" : 729432,
      "byteLength" : 88032
    },
    {
      "buffer" : 0,
      "byteOffset" : 817464,
      "byteLength" : 88032
    },
    {
      "buffer" : 0,
      "byteOffset" : 905496,
      "byteLength" : 88032
    },
    {
      "buffer" : 0,
      "byteOffset" : 993528,
      "byteLength" : 88032
    },
    {
      "buffer" : 0,
      "byteOffset" : 1081560,
      "byteLength" : 77856
    },
    {
      "buffer" : 0,
      "byteOffset" : 1159416,
      "byteLength" : 333528
    },
    {
      "buffer" : 0,
      "byteOffset" : 1492944,
      "byteLength" : 333528
    },
    {
      "buffer" : 0,
      "byteOffset" : 1826472,
      "byteLength" : 444704
    },
    {
      "buffer" : 0,
      "byteOffset" : 2271176,
      "byteLength" : 111176
    },
    {
      "buffer" : 0,
      "byteOffset" : 2382352,
      "byteLength" : 222352
    },
    {
      "buffer" : 0,
      "byteOffset" : 2604704,
      "byteLength" : 111176
    },
    {
      "buffer" : 0,
      "byteOffset" : 2715880,
      "byteLength" : 222352
    },
    {
      "buffer" : 0,
      "byteOffset" : 2938232,
      "byteLength" : 222352
    },
    {
      "buffer" : 0,
      "byteOffset" : 3160584,
      "byteLength" : 222352
    },
    {
      "buffer" : 0,
      "byteOffset" : 3382936,
      "byteLength" : 222352
    }
  ],
  "accessors" : [
    {
      "bufferView" : 0,
      "componentType" : 5126,
      "count" : 93,
      "type" : "MAT4"
    },
    {
      "bufferView" : 1,
      "componentType" : 5123,
      "count" : 53628,
      "type" : "SCALAR"
    },
    {
      "bufferView" : 2,
      "min" : [ -0.753822, -0.0412972, -1.20142 ],
      "max" : [ 0.753822, 2.79299, 3.37681 ],
      "componentType" : 5126,
      "count" : 11004,
      "type" : "VEC3"
    },
    {
      "bufferView" : 3,
      "componentType" : 5126,
      "count" : 11004,
      "type" : "VEC3"
    },
    {
      "bufferView" : 4,
      "componentType" : 5126,
      "count" : 11004,
      "type" : "VEC4"
    },
    {
      "bufferView" : 5,
      "normalized" : true,
      "componentType" : 5121,
      "count" : 11004,
      "type" : "VEC4"
    },
    {
      "bufferView" : 6,
      "componentType" : 5123,
      "count" : 11004,
      "type" : "VEC4"
    },
    {
      "bufferView" : 7,
      "normalized" : true,
      "componentType" : 5121,
      "count" : 11004,
      "type" : "VEC4"
    },
    {
      "bufferView" : 8,
      "componentType" : 5126,
      "count" : 11004,
      "type" : "VEC2"
    },
    {
      "bufferView" : 9,
      "componentType" : 5126,
      "count" : 11004,
      "type" : "VEC2"
    },
    {
      "bufferView" : 10,
      "componentType" : 5126,
      "count" : 11004,
      "type" : "VEC2"
    },
    {
      "bufferView" : 11,
      "componentType" : 5126,
      "count" : 11004,
      "type" : "VEC2"
    },
    {
      "bufferView" : 12,
      "componentType" : 5123,
      "count" : 38928,
      "type" : "SCALAR"
    },
    {
      "bufferView" : 13,
      "min" : [ -0.735309, 0.024227, -1.26217 ],
      "max" : [ 0.720847, 2.89942, 2.98479 ],
      "componentType" : 5126,
      "count" : 27794,
      "type" : "VEC3"
    },
    {
      "bufferView" : 14,
      "componentType" : 5126,
      "count" : 27794,
      "type" : "VEC3"
    },
    {
      "bufferView" : 15,
      "componentType" : 5126,
      "count" : 27794,
      "type" : "VEC4"
    },
    {
      "bufferView" : 16,
      "normalized" : true,
      "componentType" : 5121,
      "count" : 27794,
      "type" : "VEC4"
    },
    {
      "bufferView" : 17,
      "componentType" : 5123,
      "count" : 27794,
      "type" : "VEC4"
    },
    {
      "bufferView" : 18,
      "normalized" : true,
      "componentType" : 5121,
      "count" : 27794,
      "type" : "VEC4"
    },
    {
      "bufferView" : 19,
      "componentType" : 5126,
      "count" : 27794,
      "type" : "VEC2"
    },
    {
      "bufferView" : 20,
      "componentType" : 5126,
      "count" : 27794,
      "type" : "VEC2"
    },
    {
      "bufferView" : 21,
      "componentType" : 5126,
      "count" : 27794,
      "type" : "VEC2"
    },
    {
      "bufferView" : 22,
      "componentType" : 5126,
      "count" : 27794,
      "type" : "VEC2"
    }
  ]
}
