{
  "asset" : {
    "generator" : "UE Viewer (umodel) build 1612-floxay",
    "version" : "2.0"
  },
  "scene" : 0,
  "scenes" : [
    {
      "nodes" : [ 0 ]
    }
  ],
  "nodes" : [
    {
      "name" : "Lystrosaurus",
      "mesh" : 0,
      "skin" : 0,
      "children" : [ 1 ]
    },
    {
      "name" : "root",
      "children" : [ 2 ],
      "translation" : [ 0, 0, -0 ],
      "rotation" : [ -0.707107, -0, 0, -0.707107 ]
    },
    {
      "name" : "c_back1",
      "children" : [ 3, 44, 47, 60 ],
      "translation" : [ 1.49214e-18, -0.202401, -0.229214 ],
      "rotation" : [ 0.00871675, -0.00871675, -0.707053, -0.707053 ]
    },
    {
      "name" : "c_back2",
      "children" : [ 4 ],
      "translation" : [ 0.0945248, -1.02864e-17, -0 ],
      "rotation" : [ 1.83738e-34, 0.00665136, 1.58096e-32, -0.999978 ]
    },
    {
      "name" : "c_back3",
      "children" : [ 5 ],
      "translation" : [ 0.0945248, -8.47342e-18, 1.42109e-16 ],
      "rotation" : [ -1.47295e-34, 0.0112303, 4.54037e-33, -0.999937 ]
    },
    {
      "name" : "c_back4",
      "children" : [ 6, 18, 31 ],
      "translation" : [ 0.0945248, -3.0345e-18, 7.10543e-17 ],
      "rotation" : [ -7.50935e-35, 0.00333381, -3.5245e-32, -0.999994 ]
    },
    {
      "name" : "c_neck1",
      "children" : [ 7 ],
      "translation" : [ 0.095271, -1.90881e-18, -2.28622e-05 ],
      "rotation" : [ 4.55195e-33, -0.191099, -1.99553e-32, -0.981571 ]
    },
    {
      "name" : "c_neck2",
      "children" : [ 8 ],
      "translation" : [ 0.0618811, -5.34168e-18, 8.88178e-17 ],
      "rotation" : [ 5.92866e-33, 0.0555147, -1.90317e-32, -0.998458 ]
    },
    {
      "name" : "c_neck3",
      "children" : [ 9, 14, 15, 16, 17 ],
      "translation" : [ 0.0627851, 4.66213e-18, -7.10543e-17 ],
      "rotation" : [ 9.30687e-33, 0.127503, -2.36841e-32, -0.991838 ]
    },
    {
      "name" : "c_jaw",
      "children" : [ 10 ],
      "translation" : [ 0.027003, 1.10642e-16, 0.0292063 ],
      "rotation" : [ -3.18525e-33, 0.184027, -1.30752e-32, -0.982921 ]
    },
    {
      "name" : "rig_c_tongue5",
      "children" : [ 11 ],
      "translation" : [ -0.00275678, 8.18589e-17, -0.00410062 ],
      "rotation" : [ 9.08902e-32, -0.107347, 1.51633e-32, -0.994222 ]
    },
    {
      "name" : "rig_c_tongue2",
      "children" : [ 12 ],
      "translation" : [ 0.0230134, 1.022e-17, -2.84217e-16 ],
      "rotation" : [ 3.95809e-32, 0.239729, -1.63874e-32, -0.97084 ]
    },
    {
      "name" : "rig_c_tongue3",
      "children" : [ 13 ],
      "translation" : [ 0.0220476, 9.21262e-18, -0 ],
      "rotation" : [ 6.45743e-32, -0.043841, -2.97986e-32, -0.999038 ]
    },
    {
      "name" : "rig_c_tongue4",
      "translation" : [ 0.0229682, 8.33423e-18, -2.84217e-16 ],
      "rotation" : [ -4.22309e-32, -0.0789591, 3.78908e-32, -0.996878 ]
    },
    {
      "name" : "r_upperEye",
      "translation" : [ 0.0694901, 0.0416438, -0.0246492 ],
      "rotation" : [ 0.707032, -0.707179, -0.00128854, -0.00143707 ]
    },
    {
      "name" : "r_lowerEye",
      "translation" : [ 0.0644128, 0.049215, -0.0101637 ],
      "rotation" : [ 0.707032, -0.707179, -0.00128854, -0.00143707 ]
    },
    {
      "name" : "l_upperEye",
      "translation" : [ 0.0695075, -0.0416438, -0.0246492 ],
      "rotation" : [ 0.00128854, 0.00143707, 0.707032, -0.707179 ]
    },
    {
      "name" : "l_lowerEye",
      "translation" : [ 0.0644128, -0.049215, -0.0101637 ],
      "rotation" : [ 0.00128854, 0.00143707, 0.707032, -0.707179 ]
    },
    {
      "name" : "l_shoulder",
      "children" : [ 19 ],
      "translation" : [ 0.0616398, -0.1017, 0.0556712 ],
      "rotation" : [ 0.1741, 0.269743, 0.487438, -0.811992 ]
    },
    {
      "name" : "l_eblow",
      "children" : [ 20 ],
      "translation" : [ 0.0835029, 9.76996e-17, -7.10543e-17 ],
      "rotation" : [ -3.42551e-17, 0.414181, -3.40632e-19, -0.910194 ]
    },
    {
      "name" : "l_wrist",
      "children" : [ 21, 23, 25, 27, 29 ],
      "translation" : [ 0.103456, 1.77636e-16, -7.10543e-17 ],
      "rotation" : [ 0.657386, -0.143355, 0.728413, -0.129255 ]
    },
    {
      "name" : "l_fingerB11",
      "children" : [ 22 ],
      "translation" : [ -0.023399, -0.0161296, 0.0052602 ],
      "rotation" : [ 0.107425, -0.993868, -0.00245644, -0.0260872 ]
    },
    {
      "name" : "l_fingerB12",
      "translation" : [ 0.0341164, -1.55444e-05, 1.11182e-07 ],
      "rotation" : [ -1.7949e-09, -1.319e-09, -3.46409e-10, -1 ]
    },
    {
      "name" : "l_fingerA11",
      "children" : [ 24 ],
      "translation" : [ -0.0160255, -0.0277525, 0.00542787 ],
      "rotation" : [ 0.258697, -0.965572, 0.0016925, -0.0272826 ]
    },
    {
      "name" : "l_fingerA12",
      "translation" : [ 0.0270349, -5.86525e-06, 4.63703e-08 ],
      "rotation" : [ -1.79489e-09, -3.83445e-09, -3.95255e-09, -1 ]
    },
    {
      "name" : "l_fingerD11",
      "children" : [ 26 ],
      "translation" : [ -0.0247297, 0.0122731, 0.00568514 ],
      "rotation" : [ -0.139681, -0.989891, -0.00867564, -0.0230219 ]
    },
    {
      "name" : "l_fingerD12",
      "translation" : [ 0.0402924, -2.77017e-05, 1.90531e-07 ],
      "rotation" : [ -1.7949e-09, -4.5542e-09, 4.25098e-09, -1 ]
    },
    {
      "name" : "l_fingerC11",
      "children" : [ 28 ],
      "translation" : [ -0.024367, -0.00409665, 0.00542001 ],
      "rotation" : [ -0.0331857, -0.999129, -0.00617869, -0.0245438 ]
    },
    {
      "name" : "l_fingerC12",
      "translation" : [ 0.0476494, -2.31316e-05, 1.54022e-07 ],
      "rotation" : [ -1.7949e-09, -2.03103e-09, 1.71017e-09, -1 ]
    },
    {
      "name" : "l_fingerE11",
      "children" : [ 30 ],
      "translation" : [ -0.0197106, 0.0244721, 0.00668083 ],
      "rotation" : [ -0.26584, -0.96354, -0.00966038, -0.0287484 ]
    },
    {
      "name" : "l_fingerE12",
      "translation" : [ 0.0332815, -3.1515e-05, 2.97605e-08 ],
      "rotation" : [ -2.41003e-09, -1.05156e-08, 8.47358e-09, -1 ]
    },
    {
      "name" : "r_shoulder",
      "children" : [ 32 ],
      "translation" : [ 0.0616402, 0.1017, 0.0556712 ],
      "rotation" : [ 0.487154, -0.812262, -0.17518, -0.268745 ]
    },
    {
      "name" : "r_eblow",
      "children" : [ 33 ],
      "translation" : [ -0.0835024, 2.04899e-07, 6.56444e-07 ],
      "rotation" : [ 2.47994e-07, 0.418216, 2.00701e-07, -0.908347 ]
    },
    {
      "name" : "r_wrist",
      "children" : [ 34, 36, 38, 40, 42 ],
      "translation" : [ -0.103456, 4.18881e-07, 2.05523e-07 ],
      "rotation" : [ 0.660153, -0.144993, 0.725855, -0.127706 ]
    },
    {
      "name" : "r_fingerB11",
      "children" : [ 35 ],
      "translation" : [ 0.0237013, 0.014845, -0.00525813 ],
      "rotation" : [ 0.126635, -0.991603, -0.00195103, -0.0261295 ]
    },
    {
      "name" : "r_fingerB12",
      "translation" : [ -0.0340873, 4.48398e-07, -3.10818e-09 ],
      "rotation" : [ 1.80541e-09, -5.43757e-10, 3.29866e-11, -1 ]
    },
    {
      "name" : "r_fingerA11",
      "children" : [ 37 ],
      "translation" : [ 0.0177868, 0.0287697, -0.00532232 ],
      "rotation" : [ 0.25869, -0.965573, 0.00169236, -0.0272822 ]
    },
    {
      "name" : "r_fingerA12",
      "translation" : [ -0.0270017, -2.71702e-07, 2.01696e-09 ],
      "rotation" : [ 1.79491e-09, -1.76122e-09, 1.39477e-10, -1 ]
    },
    {
      "name" : "r_fingerD11",
      "children" : [ 39 ],
      "translation" : [ 0.0254626, -0.00996793, -0.00560855 ],
      "rotation" : [ -0.195097, -0.98048, -0.00998404, -0.0222952 ]
    },
    {
      "name" : "r_fingerD12",
      "translation" : [ -0.0402731, 1.82167e-07, -1.24162e-09 ],
      "rotation" : [ -1.31063e-08, 6.04474e-10, 7.13106e-11, -1 ]
    },
    {
      "name" : "r_fingerC11",
      "children" : [ 41 ],
      "translation" : [ 0.0243679, 0.00409654, -0.00541993 ],
      "rotation" : [ -0.0331879, -0.999129, -0.00617839, -0.0245433 ]
    },
    {
      "name" : "r_fingerC12",
      "translation" : [ -0.0476249, -4.36469e-07, 2.8734e-09 ],
      "rotation" : [ -1.48651e-08, 1.65469e-14, 5.63569e-17, -1 ]
    },
    {
      "name" : "r_fingerE11",
      "children" : [ 43 ],
      "translation" : [ 0.0205349, -0.0230364, -0.00720778 ],
      "rotation" : [ -0.289892, -0.956301, -0.00838416, -0.0371477 ]
    },
    {
      "name" : "r_fingerE12",
      "translation" : [ -0.0332708, 5.05337e-07, -3.83309e-09 ],
      "rotation" : [ -1.47402e-08, 1.36731e-09, 1.21752e-10, -1 ]
    },
    {
      "name" : "c_tail1",
      "children" : [ 45 ],
      "translation" : [ -0.0739918, -1.75702e-17, -0.00844969 ],
      "rotation" : [ 0.130028, 2.41136e-17, 0.99151, -2.87041e-16 ]
    },
    {
      "name" : "c_tail2",
      "children" : [ 46 ],
      "translation" : [ 0.08475, -5.7499e-17, 7.10543e-17 ],
      "rotation" : [ -5.00793e-33, 0.120118, -9.91781e-33, -0.99276 ]
    },
    {
      "name" : "c_tail3",
      "translation" : [ 0.0728301, -6.58458e-17, -0.00171172 ],
      "rotation" : [ -1.72965e-32, 0.0625378, -1.9609e-32, -0.998043 ]
    },
    {
      "name" : "l_leg",
      "children" : [ 48 ],
      "translation" : [ -0.00411584, -0.0874794, -0.000485948 ],
      "rotation" : [ 0.0905441, 0.504849, 0.276267, -0.812777 ]
    },
    {
      "name" : "l_knee",
      "children" : [ 49 ],
      "translation" : [ 0.117897, 3.55271e-17, 6.21725e-17 ],
      "rotation" : [ -4.93854e-18, 0.347422, -1.66294e-17, -0.937709 ]
    },
    {
      "name" : "l_ankle",
      "children" : [ 50, 52, 54, 56, 58 ],
      "translation" : [ 0.104458, -7.10543e-17, 1.77636e-17 ],
      "rotation" : [ -0.0699282, 0.753795, -0.00197943, -0.653375 ]
    },
    {
      "name" : "l_toeB11",
      "children" : [ 51 ],
      "translation" : [ -0.0256797, 0.0123335, -0.0027741 ],
      "rotation" : [ -0.159, -0.983207, 0.0440803, 0.077968 ]
    },
    {
      "name" : "l_toeB12",
      "translation" : [ 0.0486917, -7.10543e-17, 4.44089e-17 ],
      "rotation" : [ -1.7949e-09, -4.93643e-10, 1.42209e-11, -1 ]
    },
    {
      "name" : "l_toeA11",
      "children" : [ 53 ],
      "translation" : [ -0.0213528, 0.0234985, -0.00511776 ],
      "rotation" : [ -0.277419, -0.955099, 0.0686536, 0.0781705 ]
    },
    {
      "name" : "l_toeA12",
      "translation" : [ 0.0431246, 4.73062e-13, 6.73672e-12 ],
      "rotation" : [ -1.80705e-09, -9.25131e-10, 6.49711e-11, -1 ]
    },
    {
      "name" : "l_toeC11",
      "children" : [ 55 ],
      "translation" : [ -0.0294377, -0.00154805, -0.00151234 ],
      "rotation" : [ -0.0158473, -0.996718, 0.00802605, 0.0789848 ]
    },
    {
      "name" : "l_toeC12",
      "translation" : [ 0.0482423, -7.10543e-17, 8.21565e-17 ],
      "rotation" : [ -1.7949e-09, -1.06901e-13, -1.94717e-14, -1 ]
    },
    {
      "name" : "l_toeD11",
      "children" : [ 57 ],
      "translation" : [ -0.0294684, -0.0130691, -0.00194513 ],
      "rotation" : [ 0.181068, -0.981359, -0.0308854, 0.0565265 ]
    },
    {
      "name" : "l_toeD12",
      "translation" : [ 0.0431501, -1.07967e-13, 1.67404e-12 ],
      "rotation" : [ -1.81589e-09, 4.91035e-10, 3.16625e-11, -1 ]
    },
    {
      "name" : "l_toeE11",
      "children" : [ 59 ],
      "translation" : [ -0.0233849, -0.0284988, -0.00526367 ],
      "rotation" : [ 0.283576, -0.955192, -0.0489287, 0.0692779 ]
    },
    {
      "name" : "l_toeE12",
      "translation" : [ 0.0337744, 4.1755e-13, -1.2944e-11 ],
      "rotation" : [ -1.80437e-09, 1.23426e-09, 3.98072e-11, -1 ]
    },
    {
      "name" : "r_leg",
      "children" : [ 61 ],
      "translation" : [ -0.00411534, 0.0874794, -0.000486371 ],
      "rotation" : [ 0.3135, -0.802836, -0.120983, -0.492478 ]
    },
    {
      "name" : "r_knee",
      "children" : [ 62 ],
      "translation" : [ -0.117897, 5.66276e-07, -2.01485e-07 ],
      "rotation" : [ -6.63045e-08, 0.347416, 4.02802e-07, -0.937711 ]
    },
    {
      "name" : "r_ankle",
      "children" : [ 63, 65, 67, 69, 71 ],
      "translation" : [ -0.104459, -1.55208e-07, -5.84513e-07 ],
      "rotation" : [ -0.0865735, 0.767389, 0.0461749, -0.63363 ]
    },
    {
      "name" : "r_toeB11",
      "children" : [ 64 ],
      "translation" : [ 0.0271755, -0.0126593, 0.00218059 ],
      "rotation" : [ -0.151672, -0.982449, 0.0460925, 0.0983093 ]
    },
    {
      "name" : "r_toeB12",
      "translation" : [ -0.0486926, 3.90987e-07, -1.45439e-16 ],
      "rotation" : [ -1.31063e-08, 5.01602e-10, -4.30796e-11, -1 ]
    },
    {
      "name" : "r_toeA11",
      "children" : [ 66 ],
      "translation" : [ 0.024563, -0.0269686, 0.00298506 ],
      "rotation" : [ -0.288607, -0.949964, 0.0886635, 0.0800852 ]
    },
    {
      "name" : "r_toeA12",
      "translation" : [ -0.0431248, 2.02553e-07, -3.19744e-16 ],
      "rotation" : [ 1.7949e-09, 1.13526e-09, -2.2753e-10, -1 ]
    },
    {
      "name" : "r_toeC11",
      "children" : [ 68 ],
      "translation" : [ 0.0294382, 0.00154742, 0.00151214 ],
      "rotation" : [ 0.0132704, -0.99463, 0.000218393, 0.102636 ]
    },
    {
      "name" : "r_toeC12",
      "translation" : [ -0.0482423, 5.29268e-07, -4.10783e-17 ],
      "rotation" : [ -1.31063e-08, -2.43139e-14, -9.59125e-16, -1 ]
    },
    {
      "name" : "r_toeD11",
      "children" : [ 70 ],
      "translation" : [ 0.0302488, 0.0151005, 0.00146368 ],
      "rotation" : [ 0.191412, -0.975836, -0.04613, 0.0947505 ]
    },
    {
      "name" : "r_toeD12",
      "translation" : [ -0.04315, 9.18734e-07, 1.95399e-16 ],
      "rotation" : [ -1.11099e-08, -5.42003e-10, -8.48157e-11, -1 ]
    },
    {
      "name" : "r_toeE11",
      "children" : [ 72 ],
      "translation" : [ 0.0237217, 0.0283462, 0.00429281 ],
      "rotation" : [ 0.289355, -0.948381, -0.0829333, 0.0998431 ]
    },
    {
      "name" : "r_toeE12",
      "translation" : [ -0.0337743, -8.14727e-07, -1.82077e-16 ],
      "rotation" : [ -1.31062e-08, -1.38859e-09, -2.10208e-10, -1 ]
    }
  ],
  "skins" : [
    {
      "inverseBindMatrices" : 0,
      "skeleton" : 1,
      "joints" : [
        1,2,3,4,5,6,7,8,9,10,11,12,13,14,15,16,17,18,19,20,21,22,23,24,25,26,27,28,29,30,31,32,
        33,34,35,36,37,38,39,40,41,42,43,44,45,46,47,48,49,50,51,52,53,54,55,56,57,58,59,60,61,62,63,64,
        65,66,67,68,69,70,71,72
      ]
    }
  ],
  "materials" : [
    {
      "name" : "dummy_material_0",
      "pbrMetallicRoughness" : {
        "baseColorFactor" : [ 0.3, 0.3, 0.3, 1.0 ],
        "metallicFactor" : 0.1,
        "roughnessFactor" : 0.5
      }
    }
  ],
  "meshes" : [
    {
      "primitives" : [
        {
          "attributes" : {
            "POSITION" : 2,
            "NORMAL" : 3,
            "TANGENT" : 4,
            "COLOR_0" : 5,
            "JOINTS_0" : 6,
            "WEIGHTS_0" : 7,
            "TEXCOORD_0" : 8,
            "TEXCOORD_1" : 9
          },
          "indices" : 1,
          "material" : 0
        }
      ],
      "name" : "Lystrosaurus"
    }
  ],
  "buffers" : [
    {
      "uri" : "Lystrosaurus.bin",
      "byteLength" : 717132
    }
  ],
  "bufferViews" : [
    {
      "buffer" : 0,
      "byteOffset" : 0,
      "byteLength" : 4608
    },
    {
      "buffer" : 0,
      "byteOffset" : 4608,
      "byteLength" : 91596
    },
    {
      "buffer" : 0,
      "byteOffset" : 96204,
      "byteLength" : 103488
    },
    {
      "buffer" : 0,
      "byteOffset" : 199692,
      "byteLength" : 103488
    },
    {
      "buffer" : 0,
      "byteOffset" : 303180,
      "byteLength" : 137984
    },
    {
      "buffer" : 0,
      "byteOffset" : 441164,
      "byteLength" : 34496
    },
    {
      "buffer" : 0,
      "byteOffset" : 475660,
      "byteLength" : 68992
    },
    {
      "buffer" : 0,
      "byteOffset" : 544652,
      "byteLength" : 34496
    },
    {
      "buffer" : 0,
      "byteOffset" : 579148,
      "byteLength" : 68992
    },
    {
      "buffer" : 0,
      "byteOffset" : 648140,
      "byteLength" : 68992
    }
  ],
  "accessors" : [
    {
      "bufferView" : 0,
      "componentType" : 5126,
      "count" : 72,
      "type" : "MAT4"
    },
    {
      "bufferView" : 1,
      "componentType" : 5123,
      "count" : 45798,
      "type" : "SCALAR"
    },
    {
      "bufferView" : 2,
      "min" : [ -0.230257, -0.00483591, -0.472516 ],
      "max" : [ 0.230257, 0.372321, 0.427 ],
      "componentType" : 5126,
      "count" : 8624,
      "type" : "VEC3"
    },
    {
      "bufferView" : 3,
      "componentType" : 5126,
      "count" : 8624,
      "type" : "VEC3"
    },
    {
      "bufferView" : 4,
      "componentType" : 5126,
      "count" : 8624,
      "type" : "VEC4"
    },
    {
      "bufferView" : 5,
      "normalized" : true,
      "componentType" : 5121,
      "count" : 8624,
      "type" : "VEC4"
    },
    {
      "bufferView" : 6,
      "componentType" : 5123,
      "count" : 8624,
      "type" : "VEC4"
    },
    {
      "bufferView" : 7,
      "normalized" : true,
      "componentType" : 5121,
      "count" : 8624,
      "type" : "VEC4"
    },
    {
      "bufferView" : 8,
      "componentType" : 5126,
      "count" : 8624,
      "type" : "VEC2"
    },
    {
      "bufferView" : 9,
      "componentType" : 5126,
      "count" : 8624,
      "type" : "VEC2"
    }
  ]
}
