{
  "asset" : {
    "generator" : "UE Viewer (umodel) build 1612-floxay",
    "version" : "2.0"
  },
  "scene" : 0,
  "scenes" : [
    {
      "nodes" : [ 0 ]
    }
  ],
  "nodes" : [
    {
      "name" : "Ptero",
      "mesh" : 0,
      "skin" : 0,
      "children" : [ 1 ]
    },
    {
      "name" : "root",
      "children" : [ 2 ],
      "translation" : [ 0, 0, -0 ],
      "rotation" : [ -0.707107, -0, 0, -0.707107 ]
    },
    {
      "name" : "c_back1",
      "children" : [ 3, 100, 104, 119 ],
      "translation" : [ -0.000173148, -0.55252, -0.169897 ],
      "rotation" : [ 0.0150692, -0.0150692, -0.706946, -0.706946 ]
    },
    {
      "name" : "c_back2",
      "children" : [ 4 ],
      "translation" : [ 0.19783, -1.61971e-15, 0.00085209 ],
      "rotation" : [ 4.1359e-25, -0, 5.15695e-24, -1 ]
    },
    {
      "name" : "c_back3",
      "children" : [ 5, 98, 99 ],
      "translation" : [ 0.19785, -1.94289e-17, -0 ],
      "rotation" : [ 4.1359e-25, -0, 5.15695e-24, -1 ]
    },
    {
      "name" : "c_back4",
      "children" : [ 6, 22, 60 ],
      "translation" : [ 0.19785, -1.94636e-17, 3.55271e-17 ],
      "rotation" : [ 4.1359e-25, -0, 5.15695e-24, -1 ]
    },
    {
      "name" : "c_neck1",
      "children" : [ 7 ],
      "translation" : [ 0.157382, 1.70872e-13, 6.88065e-08 ],
      "rotation" : [ -1.70898e-12, -0.175967, -1.91644e-13, -0.984396 ]
    },
    {
      "name" : "c_neck2",
      "children" : [ 8 ],
      "translation" : [ 0.143578, 1.15414e-13, -3.25313e-07 ],
      "rotation" : [ -3.33968e-13, -0.0490131, -5.37554e-14, -0.998798 ]
    },
    {
      "name" : "c_neck3",
      "children" : [ 9 ],
      "translation" : [ 0.143577, -2.00534e-17, -5.9113e-07 ],
      "rotation" : [ 3.44194e-13, -0.0887321, 5.91009e-14, -0.996055 ]
    },
    {
      "name" : "c_head",
      "children" : [ 10, 16, 17, 18, 19, 20, 21 ],
      "translation" : [ 0.143577, -6.50868e-17, 7.20678e-07 ],
      "rotation" : [ 1.35776e-10, 0.330494, 4.74385e-11, -0.943808 ]
    },
    {
      "name" : "c_jaw",
      "children" : [ 11 ],
      "translation" : [ 0.0473733, 1.51642e-10, 0.0262186 ],
      "rotation" : [ -2.96088e-10, 0.117156, -9.17991e-13, -0.993113 ]
    },
    {
      "name" : "c_tongue1",
      "children" : [ 12 ],
      "translation" : [ 0.110832, 1.2101e-13, -0.00840834 ],
      "rotation" : [ 3.89965e-12, -0.184374, -2.48064e-13, -0.982856 ]
    },
    {
      "name" : "c_tongue2",
      "children" : [ 13 ],
      "translation" : [ 0.115683, -1.00614e-17, -2.78092e-07 ],
      "rotation" : [ -3.26338e-12, 0.161005, 3.63697e-13, -0.986953 ]
    },
    {
      "name" : "c_tongue3",
      "children" : [ 14 ],
      "translation" : [ 0.119348, 4.12864e-18, 8.10336e-08 ],
      "rotation" : [ 3.38036e-14, 0.122013, -1.23823e-13, -0.992528 ]
    },
    {
      "name" : "c_tongue4",
      "children" : [ 15 ],
      "translation" : [ 0.111413, -2.07126e-17, -9.06582e-07 ],
      "rotation" : [ 5.74678e-13, -0.0496876, 2.01109e-14, -0.998765 ]
    },
    {
      "name" : "c_tongue5",
      "translation" : [ 0.102876, 1.65335e-12, 1.35973e-06 ],
      "rotation" : [ 1.52662e-13, -0.0880597, -3.85458e-13, -0.996115 ]
    },
    {
      "name" : "l_eye",
      "translation" : [ 0.0415636, -0.0956156, -0.0980689 ],
      "rotation" : [ 0.0303106, 0.000629249, 0.673394, -0.738662 ]
    },
    {
      "name" : "r_eye",
      "translation" : [ 0.0415632, 0.0956156, -0.0980689 ],
      "rotation" : [ 0.673393, -0.738662, -0.0303103, -0.000629913 ]
    },
    {
      "name" : "r_upperEye",
      "translation" : [ 0.0670207, 0.111932, -0.137249 ],
      "rotation" : [ -0.707107, 0.707107, 0.000529161, -0.000529161 ]
    },
    {
      "name" : "r_lowerEye",
      "translation" : [ 0.0385053, 0.137064, -0.0708487 ],
      "rotation" : [ -0.707107, 0.707107, 0.000529161, -0.000529161 ]
    },
    {
      "name" : "l_upperEye",
      "translation" : [ 0.067004, -0.112308, -0.137247 ],
      "rotation" : [ 0.000529349, -0.000529349, 0.707107, -0.707107 ]
    },
    {
      "name" : "l_lowerEye",
      "translation" : [ 0.0384577, -0.137406, -0.070847 ],
      "rotation" : [ 0.000529349, -0.000529349, 0.707107, -0.707107 ]
    },
    {
      "name" : "l_clavicle",
      "children" : [ 23 ],
      "translation" : [ 0.0484331, -0.0252866, 0.00895297 ],
      "rotation" : [ 0.49637, -0.423404, 0.495555, -0.573385 ]
    },
    {
      "name" : "l_shoulder",
      "children" : [ 24, 56, 59 ],
      "translation" : [ 0.158686, 0.0449519, 0.0142127 ],
      "rotation" : [ 0.0921012, -0.252248, -0.0188676, -0.963085 ]
    },
    {
      "name" : "l_elbow",
      "children" : [ 25, 53, 54, 55 ],
      "translation" : [ 0.5, -2.61791e-08, -3.68103e-07 ],
      "rotation" : [ 1.35473e-08, 0.605863, -2.70638e-08, -0.795569 ]
    },
    {
      "name" : "l_wrist",
      "children" : [ 26, 43, 46 ],
      "translation" : [ 0.55, 2.5403e-07, 6.46468e-07 ],
      "rotation" : [ -0.00318847, -0.243577, -0.0126952, -0.969793 ]
    },
    {
      "name" : "l_bigFinger1",
      "children" : [ 27, 40 ],
      "translation" : [ 0.869569, -5.83196e-08, 5.07003e-07 ],
      "rotation" : [ 0.000716674, -0.10266, 0.00694428, -0.994692 ]
    },
    {
      "name" : "l_bigFinger2",
      "children" : [ 28, 37 ],
      "translation" : [ 0.604681, -0.000674003, -0.0100631 ],
      "rotation" : [ -0.000887821, -0.0847776, -0.0104339, -0.996345 ]
    },
    {
      "name" : "l_bigFinger3",
      "children" : [ 29, 34 ],
      "translation" : [ 0.693765, 9.18104e-07, -1.11682e-07 ],
      "rotation" : [ -0.000539903, -0.028117, -0.0191899, -0.99942 ]
    },
    {
      "name" : "l_bigFinger4",
      "children" : [ 30, 32 ],
      "translation" : [ 0.579996, 1.63004e-06, -2.55624e-06 ],
      "rotation" : [ 0.000613019, -0.0702678, 0.00870472, -0.99749 ]
    },
    {
      "name" : "l_bigFinger5",
      "children" : [ 31 ],
      "translation" : [ 0.549999, -2.13163e-16, -0 ],
      "rotation" : [ 4.81482e-35, -3.46945e-18, 1.38778e-17, -1 ]
    },
    {
      "name" : "l_wingE1",
      "translation" : [ 0.00509665, 0.00558567, -0.063209 ],
      "rotation" : [ -0.0172354, -0.598859, -0.0230328, -0.800337 ]
    },
    {
      "name" : "l_wingD1",
      "children" : [ 33 ],
      "translation" : [ 0.00582191, 0.00132763, -0.0383659 ],
      "rotation" : [ -0.0255792, -0.59856, -0.0341843, -0.799939 ]
    },
    {
      "name" : "l_wingD2",
      "translation" : [ 0.185188, -2.25736e-06, -1.00007e-08 ],
      "rotation" : [ 1.31311e-07, -6.08441e-09, 0.0139359, -0.999903 ]
    },
    {
      "name" : "l_wingC1",
      "children" : [ 35 ],
      "translation" : [ 0.00245494, 0.000591605, -0.0276387 ],
      "rotation" : [ -0.0265769, -0.543309, -0.0409978, -0.83811 ]
    },
    {
      "name" : "l_wingC2",
      "children" : [ 36 ],
      "translation" : [ 0.198743, 1.04942e-07, -7.93195e-07 ],
      "rotation" : [ 9.88999e-08, -0.0139361, -5.91996e-09, -0.999903 ]
    },
    {
      "name" : "l_wingC3",
      "translation" : [ 0.178906, 2.13163e-16, -5.68434e-16 ],
      "rotation" : [ 7.22224e-35, 5.20417e-18, -1.38778e-17, -1 ]
    },
    {
      "name" : "l_wingB1",
      "children" : [ 38 ],
      "translation" : [ 0.00792814, -0.00144266, -0.0365702 ],
      "rotation" : [ 0.0160726, -0.555958, 0.0250718, -0.830677 ]
    },
    {
      "name" : "l_wingB2",
      "children" : [ 39 ],
      "translation" : [ 0.328353, 8.42521e-07, -2.00006e-08 ],
      "rotation" : [ 4.92113e-07, -8.73879e-09, -0.0532318, -0.998582 ]
    },
    {
      "name" : "l_wingB3",
      "translation" : [ 0.295575, -1.94029e-06, 9.99994e-08 ],
      "rotation" : [ -9.91572e-08, 1.00949e-07, -0.466129, -0.884717 ]
    },
    {
      "name" : "l_wingA1",
      "children" : [ 41 ],
      "translation" : [ -0.0100204, 0.00787484, -0.107746 ],
      "rotation" : [ -0.0179541, -0.562547, -0.0263666, -0.826149 ]
    },
    {
      "name" : "l_wingA2",
      "children" : [ 42 ],
      "translation" : [ 0.371349, 0, -0 ],
      "rotation" : [ 5.41668e-35, -1.56125e-17, 3.46945e-18, -1 ]
    },
    {
      "name" : "l_wingA3",
      "translation" : [ 0.365783, -3.55272e-17, -2.84217e-16 ],
      "rotation" : [ 5.41668e-35, -1.56125e-17, 3.46945e-18, -1 ]
    },
    {
      "name" : "l_mediumFinger1",
      "children" : [ 44 ],
      "translation" : [ 0.00737905, 0.000854834, -0.0539068 ],
      "rotation" : [ -0.00590719, -0.651496, -0.00687836, -0.758598 ]
    },
    {
      "name" : "l_mediumFinger2",
      "children" : [ 45 ],
      "translation" : [ 0.406346, 4.96e-07, 1.48478e-07 ],
      "rotation" : [ 2.68003e-07, -0.160717, -1.21332e-07, -0.987 ]
    },
    {
      "name" : "l_mediumFinger3",
      "translation" : [ 0.427209, -3.55271e-17, -0 ],
      "rotation" : [ -6.93889e-18, -2.12504e-17, -3.46945e-18, -1 ]
    },
    {
      "name" : "l_miniFingerA3",
      "children" : [ 47, 49, 51 ],
      "translation" : [ 0.832727, -0.0318967, 0.00999971 ],
      "rotation" : [ 0.550448, -0.168275, 0.394679, -0.716183 ]
    },
    {
      "name" : "l_miniFingerB1",
      "children" : [ 48 ],
      "translation" : [ 0.0704628, 0.0131072, 0.000636029 ],
      "rotation" : [ 0.018921, -1.33979e-05, -0.113981, -0.993303 ]
    },
    {
      "name" : "l_miniFingerB2",
      "translation" : [ 0.0809407, -1.7856e-13, 5.5111e-07 ],
      "rotation" : [ -2.77321e-08, -0.0733254, -2.16995e-08, -0.997308 ]
    },
    {
      "name" : "l_miniFingerC1",
      "children" : [ 50 ],
      "translation" : [ 0.0578628, 0.0475949, -0.00580408 ],
      "rotation" : [ 0.0512918, 0.033234, -0.221059, -0.973343 ]
    },
    {
      "name" : "l_miniFingerC2",
      "translation" : [ 0.0629394, -1.49605e-13, 6.6576e-07 ],
      "rotation" : [ -7.1147e-08, -0.0733249, -1.12455e-08, -0.997308 ]
    },
    {
      "name" : "l_miniFingerA1",
      "children" : [ 52 ],
      "translation" : [ 0.0686587, -0.0242142, -0.012335 ],
      "rotation" : [ 2.08167e-17, -2.77556e-17, -2.77556e-17, -1 ]
    },
    {
      "name" : "l_miniFingerA2",
      "translation" : [ 0.0629397, -1.6442e-13, -4.54677e-07 ],
      "rotation" : [ 8.95589e-08, -0.0733255, 1.99144e-08, -0.997308 ]
    },
    {
      "name" : "l_frontArmWing1",
      "translation" : [ 0.1879, 0.0013489, 0.237877 ],
      "rotation" : [ 0.0194873, -0.293393, 0.0633443, -0.953692 ]
    },
    {
      "name" : "l_rearArmWing",
      "translation" : [ 0.0928812, -0.0225018, -0.345201 ],
      "rotation" : [ 0.0607512, -0.896691, 0.012106, -0.438302 ]
    },
    {
      "name" : "l_frontArmWing3",
      "translation" : [ 0.426981, 0.00283456, 0.00632649 ],
      "rotation" : [ 0.000971642, -0.923638, 0.0674073, 0.37729 ]
    },
    {
      "name" : "l_shoulderTwist1",
      "children" : [ 57 ],
      "translation" : [ 0.155818, 0, 3.55271e-17 ],
      "rotation" : [ -6.93889e-18, -1.17094e-17, 8.12502e-35, -1 ]
    },
    {
      "name" : "l_shoulderTwist2",
      "children" : [ 58 ],
      "translation" : [ 0.155818, 0, -3.55271e-17 ],
      "rotation" : [ -6.93889e-18, -1.17094e-17, 8.12502e-35, -1 ]
    },
    {
      "name" : "l_frontArmWing2",
      "translation" : [ -0.210029, 0.00931433, 0.0769812 ],
      "rotation" : [ -0.000440061, 0.321823, -0.0161441, -0.946662 ]
    },
    {
      "name" : "l_bodyWing2",
      "translation" : [ 0.473989, -0.00114296, -0.0347152 ],
      "rotation" : [ -0.0785484, -0.734381, 0.147736, -0.657791 ]
    },
    {
      "name" : "r_clavicle",
      "children" : [ 61 ],
      "translation" : [ 0.0484331, 0.0252867, 0.00895297 ],
      "rotation" : [ 0.495555, -0.573386, -0.49637, 0.423404 ]
    },
    {
      "name" : "r_shoulder",
      "children" : [ 62, 94, 97 ],
      "translation" : [ -0.158686, -0.0449519, -0.0142126 ],
      "rotation" : [ 0.092101, -0.252249, -0.0188675, -0.963085 ]
    },
    {
      "name" : "r_elbow",
      "children" : [ 63, 91, 92, 93 ],
      "translation" : [ -0.499999, -1.73683e-07, -5.39888e-07 ],
      "rotation" : [ 1.28978e-07, 0.605863, 9.03016e-08, -0.795569 ]
    },
    {
      "name" : "r_wrist",
      "children" : [ 64, 81, 84 ],
      "translation" : [ -0.550001, 3.00647e-07, 1.24574e-06 ],
      "rotation" : [ -0.00318883, -0.243577, -0.0126952, -0.969793 ]
    },
    {
      "name" : "r_bigFinger1",
      "children" : [ 65, 78 ],
      "translation" : [ -0.86957, -6.21295e-07, -2.25774e-06 ],
      "rotation" : [ 0.000716742, -0.10266, 0.00694425, -0.994692 ]
    },
    {
      "name" : "r_bigFinger2",
      "children" : [ 66, 75 ],
      "translation" : [ -0.604683, 0.000675409, 0.0100666 ],
      "rotation" : [ -0.000887827, -0.0847779, -0.0104338, -0.996345 ]
    },
    {
      "name" : "r_bigFinger3",
      "children" : [ 67, 72 ],
      "translation" : [ -0.69376, -1.75298e-06, -4.16547e-07 ],
      "rotation" : [ -0.000539898, -0.028117, -0.0191899, -0.99942 ]
    },
    {
      "name" : "r_bigFinger4",
      "children" : [ 68, 70 ],
      "translation" : [ -0.534346, -9.05581e-07, 6.29956e-07 ],
      "rotation" : [ 0.000613295, -0.0702676, 0.00870473, -0.99749 ]
    },
    {
      "name" : "r_bigFinger5",
      "children" : [ 69 ],
      "translation" : [ -0.472882, -3.7e-07, -1.5e-07 ],
      "rotation" : [ 2.40741e-35, -3.46945e-18, 6.93889e-18, -1 ]
    },
    {
      "name" : "r_wingE1",
      "translation" : [ -0.00509359, -0.00559008, 0.0632106 ],
      "rotation" : [ -0.017235, -0.598859, -0.0230335, -0.800337 ]
    },
    {
      "name" : "r_wingD1",
      "children" : [ 71 ],
      "translation" : [ -0.0058164, -0.0013252, 0.0383664 ],
      "rotation" : [ -0.0255793, -0.598561, -0.0341845, -0.799939 ]
    },
    {
      "name" : "r_wingD2",
      "translation" : [ -0.185192, -1.13213e-06, -9.48587e-07 ],
      "rotation" : [ 8.30082e-09, 4.58875e-09, 0.0139358, -0.999903 ]
    },
    {
      "name" : "r_wingC1",
      "children" : [ 73 ],
      "translation" : [ -0.00245272, -0.000591632, 0.0276377 ],
      "rotation" : [ -0.0265767, -0.543308, -0.040998, -0.83811 ]
    },
    {
      "name" : "r_wingC2",
      "children" : [ 74 ],
      "translation" : [ -0.198749, 8.20001e-07, -3.95106e-06 ],
      "rotation" : [ -2.71943e-07, -0.0139357, -8.9893e-10, -0.999903 ]
    },
    {
      "name" : "r_wingC3",
      "translation" : [ -0.178906, 1.5e-07, 9.59999e-07 ],
      "rotation" : [ -1.38778e-17, 1.73472e-17, 6.93889e-18, -1 ]
    },
    {
      "name" : "r_wingB1",
      "children" : [ 76 ],
      "translation" : [ -0.00891002, -0.00134269, 0.0363482 ],
      "rotation" : [ -0.00443075, -0.5449, -0.00681742, -0.838462 ]
    },
    {
      "name" : "r_wingB2",
      "children" : [ 77 ],
      "translation" : [ -0.328351, -2.28646e-06, 7.21447e-07 ],
      "rotation" : [ 5.85045e-07, -3.88211e-08, -0.0532318, -0.998582 ]
    },
    {
      "name" : "r_wingB3",
      "translation" : [ -0.295577, 9.17432e-07, -5.22e-06 ],
      "rotation" : [ 1.60198e-07, -1.77236e-08, -0.466129, -0.884716 ]
    },
    {
      "name" : "r_wingA1",
      "children" : [ 79 ],
      "translation" : [ 0.0100263, -0.00787441, 0.107748 ],
      "rotation" : [ -0.0179539, -0.562547, -0.0263667, -0.826149 ]
    },
    {
      "name" : "r_wingA2",
      "children" : [ 80 ],
      "translation" : [ -0.371353, 9.30002e-07, -6.32e-06 ],
      "rotation" : [ 1.38778e-17, -1.51788e-17, -3.46945e-18, -1 ]
    },
    {
      "name" : "r_wingA3",
      "translation" : [ -0.365784, -8.00003e-08, 7.6e-07 ],
      "rotation" : [ 1.38778e-17, -1.51788e-17, -3.46945e-18, -1 ]
    },
    {
      "name" : "r_mediumFinger1",
      "children" : [ 82 ],
      "translation" : [ -0.00738093, -0.000854731, 0.0539075 ],
      "rotation" : [ -0.00590715, -0.651496, -0.00687817, -0.758598 ]
    },
    {
      "name" : "r_mediumFinger2",
      "children" : [ 83 ],
      "translation" : [ -0.406346, -1.554e-06, 2.07551e-06 ],
      "rotation" : [ 1.23323e-07, -0.160717, -9.65213e-08, -0.987 ]
    },
    {
      "name" : "r_mediumFinger3",
      "translation" : [ -0.427206, 7.00002e-08, 4.22e-06 ],
      "rotation" : [ -2.70834e-35, 2.60208e-18, 1.04083e-17, -1 ]
    },
    {
      "name" : "r_miniFingerA3",
      "children" : [ 85, 87, 89 ],
      "translation" : [ -0.83273, 0.0318998, -0.00999873 ],
      "rotation" : [ 0.550448, -0.168275, 0.394679, -0.716183 ]
    },
    {
      "name" : "r_miniFingerA1",
      "children" : [ 86 ],
      "translation" : [ -0.0670447, 0.0256198, 0.0145028 ],
      "rotation" : [ 4.83746e-08, -0.707107, 3.2034e-07, -0.707107 ]
    },
    {
      "name" : "r_miniFingerA2",
      "translation" : [ -0.062938, 3.25216e-06, 3.10393e-06 ],
      "rotation" : [ 3.95684e-07, -0.073325, 7.67997e-08, -0.997308 ]
    },
    {
      "name" : "r_miniFingerB1",
      "children" : [ 88 ],
      "translation" : [ -0.0682512, -0.0129022, 0.00245124 ],
      "rotation" : [ 0.093976, -0.70238, -0.0672174, -0.702362 ]
    },
    {
      "name" : "r_miniFingerB2",
      "translation" : [ -0.0809447, -4.18e-06, -2.5744e-06 ],
      "rotation" : [ 2.52611e-07, -0.0733251, -1.01181e-08, -0.997308 ]
    },
    {
      "name" : "r_miniFingerC1",
      "children" : [ 90 ],
      "translation" : [ -0.0550738, -0.0522722, 0.00667735 ],
      "rotation" : [ 0.192581, -0.664757, -0.120043, -0.711758 ]
    },
    {
      "name" : "r_miniFingerC2",
      "translation" : [ -0.0629406, -1.8e-07, 1.27251e-06 ],
      "rotation" : [ 8.79713e-09, -0.073325, -1.27598e-08, -0.997308 ]
    },
    {
      "name" : "r_frontArmWing",
      "translation" : [ -0.1879, -0.00134792, -0.237876 ],
      "rotation" : [ 0.0194871, -0.293394, 0.0633443, -0.953692 ]
    },
    {
      "name" : "r_rearArmWing",
      "translation" : [ -0.0928818, 0.0225018, 0.345204 ],
      "rotation" : [ 0.0607511, -0.896691, 0.0121058, -0.438302 ]
    },
    {
      "name" : "r_frontArmWing3",
      "translation" : [ -0.42998, -0.00283444, -0.00632454 ],
      "rotation" : [ 0.000742223, -0.924809, 0.0673995, 0.374414 ]
    },
    {
      "name" : "r_shoulderTwist1",
      "children" : [ 95 ],
      "translation" : [ -0.155818, 2.2e-07, -2e-08 ],
      "rotation" : [ 6.93889e-18, 1.64799e-17, -3.46945e-18, -1 ]
    },
    {
      "name" : "r_shoulderTwist2",
      "children" : [ 96 ],
      "translation" : [ -0.155818, 2.2e-07, 7e-08 ],
      "rotation" : [ 6.93889e-18, 1.64799e-17, -3.46945e-18, -1 ]
    },
    {
      "name" : "r_frontArmWing2",
      "translation" : [ 0.210029, -0.00931451, -0.0769806 ],
      "rotation" : [ -0.000440074, 0.321823, -0.016144, -0.946662 ]
    },
    {
      "name" : "r_bodyWing2",
      "translation" : [ -0.48322, 8.62859e-05, 0.0344972 ],
      "rotation" : [ 0.021177, -0.835449, 0.0247571, -0.548601 ]
    },
    {
      "name" : "l_bodyWing",
      "translation" : [ -0.233147, -0.39274, -0.000650156 ],
      "rotation" : [ 0.422325, -0.581744, 0.528682, -0.451343 ]
    },
    {
      "name" : "r_bodyWing",
      "translation" : [ -0.175546, 0.394343, -0.00347377 ],
      "rotation" : [ -0.508934, 0.462398, 0.38738, -0.614094 ]
    },
    {
      "name" : "c_tail1",
      "children" : [ 101 ],
      "translation" : [ -0.0662524, -5.05141e-15, 0.00269314 ],
      "rotation" : [ 0.0834795, 6.63899e-13, 0.996509, -2.122e-13 ]
    },
    {
      "name" : "c_tail2",
      "children" : [ 102, 103 ],
      "translation" : [ 0.129579, 3.84415e-17, -3.55271e-17 ],
      "rotation" : [ -4.96308e-24, -0, -5.16988e-25, -1 ]
    },
    {
      "name" : "l_legWing",
      "translation" : [ 0.0809923, 0.185531, 0.0838804 ],
      "rotation" : [ -0.16345, -0.0846144, 0.125263, -0.974902 ]
    },
    {
      "name" : "r_legWing",
      "translation" : [ 0.0809902, -0.185542, 0.083865 ],
      "rotation" : [ 0.125254, -0.974911, 0.163405, 0.0846077 ]
    },
    {
      "name" : "l_hip",
      "children" : [ 105, 117, 118 ],
      "translation" : [ -0.00044004, -0.0921548, 0.000929441 ],
      "rotation" : [ 0.402767, -0.414742, 0.779201, -0.242104 ]
    },
    {
      "name" : "l_knee",
      "children" : [ 106 ],
      "translation" : [ 0.4, 6.36946e-08, -4.93414e-07 ],
      "rotation" : [ -7.91405e-07, -0.484535, 4.47669e-07, -0.874772 ]
    },
    {
      "name" : "l_ankle",
      "children" : [ 107, 109, 111, 113, 115 ],
      "translation" : [ 0.349999, -9.0371e-08, -2.76212e-07 ],
      "rotation" : [ 0.000136633, 0.39722, 1.7936e-05, -0.917723 ]
    },
    {
      "name" : "l_toeE1",
      "children" : [ 108 ],
      "translation" : [ 0.101284, 0.0494655, -0.00827911 ],
      "rotation" : [ -0.0278147, -0.137327, -0.196554, -0.97043 ]
    },
    {
      "name" : "l_toeE2",
      "translation" : [ 0.0561678, -2.82181e-07, -5.26779e-07 ],
      "rotation" : [ 8.40001e-08, -0.226736, 1.34248e-07, -0.973956 ]
    },
    {
      "name" : "l_toeD1",
      "children" : [ 110 ],
      "translation" : [ 0.110836, 0.0260051, -0.00972996 ],
      "rotation" : [ -0.00888421, -0.146025, -0.100968, -0.984075 ]
    },
    {
      "name" : "l_toeD2",
      "translation" : [ 0.0561678, -1.62054e-07, -2.72386e-08 ],
      "rotation" : [ 4.51428e-07, -0.226736, -6.13579e-08, -0.973956 ]
    },
    {
      "name" : "l_toeC1",
      "children" : [ 112 ],
      "translation" : [ 0.109327, 0.000142648, -0.007288 ],
      "rotation" : [ 0.0101336, -0.153298, -0.0043967, -0.988118 ]
    },
    {
      "name" : "l_toeC2",
      "translation" : [ 0.0561665, 2.35306e-07, -6.01051e-07 ],
      "rotation" : [ 5.03432e-07, -0.226736, -1.1227e-07, -0.973956 ]
    },
    {
      "name" : "l_toeB1",
      "children" : [ 114 ],
      "translation" : [ 0.109208, -0.0267927, -0.00547138 ],
      "rotation" : [ 0.0290522, -0.159076, 0.0922173, -0.98252 ]
    },
    {
      "name" : "l_toeB2",
      "translation" : [ 0.056167, -4.79477e-08, -1.65132e-06 ],
      "rotation" : [ 1.35778e-06, -0.226737, -3.37674e-07, -0.973956 ]
    },
    {
      "name" : "l_toeA1",
      "children" : [ 116 ],
      "translation" : [ 0.0370526, -0.0363197, 0.000477847 ],
      "rotation" : [ 0.0869557, -0.166955, 0.391588, -0.900679 ]
    },
    {
      "name" : "l_toeA2",
      "translation" : [ 0.0428407, -0.00271309, 0.00877044 ],
      "rotation" : [ 6.99891e-07, -0.226736, -2.53076e-07, -0.973956 ]
    },
    {
      "name" : "l_legTwist",
      "translation" : [ 0.185249, -1.81988e-08, -6.69694e-07 ],
      "rotation" : [ 0.000122036, -5.30243e-07, 7.68688e-08, -1 ]
    },
    {
      "name" : "l_bodyWing3",
      "translation" : [ 0.348981, 0.0424508, 0.0239874 ],
      "rotation" : [ -0.0860247, -0.852893, 0.25179, 0.449193 ]
    },
    {
      "name" : "r_hip",
      "children" : [ 120, 132, 133 ],
      "translation" : [ -0.000439851, 0.0921547, 0.000929856 ],
      "rotation" : [ -0.779135, 0.242103, 0.40277, -0.414862 ]
    },
    {
      "name" : "r_knee",
      "children" : [ 121 ],
      "translation" : [ -0.4, -5.42935e-08, 5.53691e-07 ],
      "rotation" : [ -5.44877e-08, -0.484534, -4.5167e-08, -0.874772 ]
    },
    {
      "name" : "r_ankle",
      "children" : [ 122, 124, 126, 128, 130 ],
      "translation" : [ -0.35, -2.99934e-07, -7.80977e-07 ],
      "rotation" : [ -1.49097e-07, 0.39722, 5.42613e-08, -0.917723 ]
    },
    {
      "name" : "r_toeE1",
      "children" : [ 123 ],
      "translation" : [ -0.101281, -0.0494666, 0.00827766 ],
      "rotation" : [ -0.0278144, -0.137327, -0.196555, -0.97043 ]
    },
    {
      "name" : "r_toeE2",
      "translation" : [ -0.0561696, 1.31747e-06, 1.04552e-06 ],
      "rotation" : [ -8.09084e-08, -0.226736, -1.17262e-07, -0.973956 ]
    },
    {
      "name" : "r_toeD1",
      "children" : [ 125 ],
      "translation" : [ -0.109487, -0.0260457, 0.00641786 ],
      "rotation" : [ -0.0088844, -0.146025, -0.100967, -0.984075 ]
    },
    {
      "name" : "r_toeD2",
      "translation" : [ -0.0543726, -6.04206e-08, 1.4751e-06 ],
      "rotation" : [ -2.23348e-06, -0.226736, 8.56162e-07, -0.973956 ]
    },
    {
      "name" : "r_toeC1",
      "children" : [ 127 ],
      "translation" : [ -0.111347, -0.000285169, 0.000928599 ],
      "rotation" : [ 0.0101331, -0.153298, -0.00439661, -0.988118 ]
    },
    {
      "name" : "r_toeC2",
      "translation" : [ -0.0596428, -3.52486e-07, 2.07013e-06 ],
      "rotation" : [ 8.19012e-07, -0.226736, 1.7709e-07, -0.973956 ]
    },
    {
      "name" : "r_toeB1",
      "children" : [ 129 ],
      "translation" : [ -0.110805, 0.0266541, 0.000718887 ],
      "rotation" : [ 0.0290523, -0.159077, 0.0922178, -0.98252 ]
    },
    {
      "name" : "r_toeB2",
      "translation" : [ -0.0561631, 1.26495e-06, -2.55628e-06 ],
      "rotation" : [ 2.166e-07, -0.226736, 2.23704e-07, -0.973956 ]
    },
    {
      "name" : "r_toeA1",
      "children" : [ 131 ],
      "translation" : [ -0.0370497, 0.0363198, -0.000426573 ],
      "rotation" : [ 0.0869564, -0.166955, 0.391589, -0.900679 ]
    },
    {
      "name" : "r_toeA2",
      "translation" : [ -0.0428306, 0.0027257, -0.00881896 ],
      "rotation" : [ 3.23796e-07, -0.226736, -1.12562e-07, -0.973956 ]
    },
    {
      "name" : "r_legTwist",
      "translation" : [ -0.185249, -5.2e-07, 1.9e-07 ],
      "rotation" : [ -0, -0, 0, -1 ]
    },
    {
      "name" : "r_bodyWing3",
      "translation" : [ -0.348698, -0.0422642, -0.0238302 ],
      "rotation" : [ -0.046307, -0.780796, 0.41395, 0.465682 ]
    }
  ],
  "skins" : [
    {
      "inverseBindMatrices" : 0,
      "skeleton" : 1,
      "joints" : [
        1,2,3,4,5,6,7,8,9,10,11,12,13,14,15,16,17,18,19,20,21,22,23,24,25,26,27,28,29,30,31,32,
        33,34,35,36,37,38,39,40,41,42,43,44,45,46,47,48,49,50,51,52,53,54,55,56,57,58,59,60,61,62,63,64,
        65,66,67,68,69,70,71,72,73,74,75,76,77,78,79,80,81,82,83,84,85,86,87,88,89,90,91,92,93,94,95,96,
        97,98,99,100,101,102,103,104,105,106,107,108,109,110,111,112,113,114,115,116,117,118,119,120,121,122,123,124,125,126,127,128,
        129,130,131,132,133
      ]
    }
  ],
  "materials" : [
    {
      "name" : "dummy_material_0",
      "pbrMetallicRoughness" : {
        "baseColorFactor" : [ 0.3, 0.3, 0.3, 1.0 ],
        "metallicFactor" : 0.1,
        "roughnessFactor" : 0.5
      }
    }
  ],
  "meshes" : [
    {
      "primitives" : [
        {
          "attributes" : {
            "POSITION" : 2,
            "NORMAL" : 3,
            "TANGENT" : 4,
            "COLOR_0" : 5,
            "JOINTS_0" : 6,
            "WEIGHTS_0" : 7,
            "TEXCOORD_0" : 8,
            "TEXCOORD_1" : 9
          },
          "indices" : 1,
          "material" : 0
        }
      ],
      "name" : "Ptero"
    }
  ],
  "buffers" : [
    {
      "uri" : "Ptero.bin",
      "byteLength" : 1179220
    }
  ],
  "bufferViews" : [
    {
      "buffer" : 0,
      "byteOffset" : 0,
      "byteLength" : 8512
    },
    {
      "buffer" : 0,
      "byteOffset" : 8512,
      "byteLength" : 141324
    },
    {
      "buffer" : 0,
      "byteOffset" : 149836,
      "byteLength" : 171564
    },
    {
      "buffer" : 0,
      "byteOffset" : 321400,
      "byteLength" : 171564
    },
    {
      "buffer" : 0,
      "byteOffset" : 492964,
      "byteLength" : 228752
    },
    {
      "buffer" : 0,
      "byteOffset" : 721716,
      "byteLength" : 57188
    },
    {
      "buffer" : 0,
      "byteOffset" : 778904,
      "byteLength" : 114376
    },
    {
      "buffer" : 0,
      "byteOffset" : 893280,
      "byteLength" : 57188
    },
    {
      "buffer" : 0,
      "byteOffset" : 950468,
      "byteLength" : 114376
    },
    {
      "buffer" : 0,
      "byteOffset" : 1064844,
      "byteLength" : 114376
    }
  ],
  "accessors" : [
    {
      "bufferView" : 0,
      "componentType" : 5126,
      "count" : 133,
      "type" : "MAT4"
    },
    {
      "bufferView" : 1,
      "componentType" : 5123,
      "count" : 70662,
      "type" : "SCALAR"
    },
    {
      "bufferView" : 2,
      "min" : [ -4.29473, -0.128895, -1.37262 ],
      "max" : [ 4.37669, 1.15277, 1.50129 ],
      "componentType" : 5126,
      "count" : 14297,
      "type" : "VEC3"
    },
    {
      "bufferView" : 3,
      "componentType" : 5126,
      "count" : 14297,
      "type" : "VEC3"
    },
    {
      "bufferView" : 4,
      "componentType" : 5126,
      "count" : 14297,
      "type" : "VEC4"
    },
    {
      "bufferView" : 5,
      "normalized" : true,
      "componentType" : 5121,
      "count" : 14297,
      "type" : "VEC4"
    },
    {
      "bufferView" : 6,
      "componentType" : 5123,
      "count" : 14297,
      "type" : "VEC4"
    },
    {
      "bufferView" : 7,
      "normalized" : true,
      "componentType" : 5121,
      "count" : 14297,
      "type" : "VEC4"
    },
    {
      "bufferView" : 8,
      "componentType" : 5126,
      "count" : 14297,
      "type" : "VEC2"
    },
    {
      "bufferView" : 9,
      "componentType" : 5126,
      "count" : 14297,
      "type" : "VEC2"
    }
  ]
}
