{
  "asset" : {
    "generator" : "UE Viewer (umodel) build 1612-floxay",
    "version" : "2.0"
  },
  "scene" : 0,
  "scenes" : [
    {
      "nodes" : [ 0 ]
    }
  ],
  "nodes" : [
    {
      "name" : "Stag",
      "mesh" : 0,
      "skin" : 0,
      "children" : [ 1 ]
    },
    {
      "name" : "root",
      "children" : [ 2 ],
      "translation" : [ 0, 0, -0 ],
      "rotation" : [ -0.707107, -0, 0, -0.707107 ]
    },
    {
      "name" : "c_back1",
      "children" : [ 3, 44, 50, 54 ],
      "translation" : [ 0, -0.404773, -0.992828 ],
      "rotation" : [ 0.0565698, -0.0565698, -0.70484, -0.70484 ]
    },
    {
      "name" : "c_back2",
      "children" : [ 4 ],
      "translation" : [ 0.261112, 2.85424e-17, 1.42109e-16 ],
      "rotation" : [ 6.16298e-33, -0, 1.2326e-32, -1 ]
    },
    {
      "name" : "c_back3",
      "children" : [ 5 ],
      "translation" : [ 0.261112, 2.69855e-17, -1.42109e-16 ],
      "rotation" : [ 6.16298e-33, -0, 1.2326e-32, -1 ]
    },
    {
      "name" : "c_back4",
      "children" : [ 6, 29, 36, 37 ],
      "translation" : [ 0.261112, 2.02391e-17, -1.42109e-16 ],
      "rotation" : [ 6.16298e-33, -0, 1.2326e-32, -1 ]
    },
    {
      "name" : "c_neck1",
      "children" : [ 7 ],
      "translation" : [ 0.228484, 8.76764e-17, 0.0603969 ],
      "rotation" : [ 3.78219e-32, -0.349106, 2.20818e-32, -0.937083 ]
    },
    {
      "name" : "c_neck2",
      "children" : [ 8 ],
      "translation" : [ 0.30047, -1.89195e-16, -0.0622179 ],
      "rotation" : [ -3.46094e-32, -0.0899884, 2.78795e-32, -0.995943 ]
    },
    {
      "name" : "c_neck3",
      "children" : [ 9, 13, 16, 17, 18, 21, 23, 25, 27 ],
      "translation" : [ 0.200981, -1.24079e-16, -0 ],
      "rotation" : [ 4.37522e-32, 0.502782, -6.29637e-32, -0.864413 ]
    },
    {
      "name" : "c_jaw",
      "children" : [ 10 ],
      "translation" : [ 0.0641091, 2.46125e-30, 0.0576982 ],
      "rotation" : [ -6.37832e-33, 0.163174, -3.69734e-32, -0.986597 ]
    },
    {
      "name" : "c_tongue1",
      "children" : [ 11 ],
      "translation" : [ 0.144892, 5.6476e-18, 0.0011642 ],
      "rotation" : [ -3.19571e-32, -0.178511, -3.80472e-32, -0.983938 ]
    },
    {
      "name" : "c_tongue2",
      "children" : [ 12 ],
      "translation" : [ 0.0510495, 1.75394e-17, -8.52651e-16 ],
      "rotation" : [ -1.63365e-32, 0.194599, -1.26657e-32, -0.980883 ]
    },
    {
      "name" : "c_tongue3",
      "translation" : [ 0.0333502, 1.3351e-17, 1.13687e-15 ],
      "rotation" : [ 2.46519e-32, 2.77556e-17, 3.08149e-32, -1 ]
    },
    {
      "name" : "l_ear1",
      "children" : [ 14 ],
      "translation" : [ -0.0581472, -0.123126, -0.0318075 ],
      "rotation" : [ -0.140585, -0.20147, 0.794948, -0.554711 ]
    },
    {
      "name" : "l_ear2",
      "children" : [ 15 ],
      "translation" : [ 0.0538678, 2.84217e-16, -8.52651e-16 ],
      "rotation" : [ -0.0105389, -0.0908937, -0.114693, -0.989178 ]
    },
    {
      "name" : "l_ear3",
      "translation" : [ 0.0727405, 0, 7.10543e-16 ],
      "rotation" : [ -0, -0, -8.67362e-18, -1 ]
    },
    {
      "name" : "l_eye",
      "translation" : [ 0.092166, -0.0886104, -0.0599415 ],
      "rotation" : [ -0.00743105, -0.023229, 0.304602, -0.952167 ]
    },
    {
      "name" : "r_eye",
      "translation" : [ 0.0921658, 0.0886104, -0.0599415 ],
      "rotation" : [ 0.304602, -0.952167, 0.00743105, 0.023229 ]
    },
    {
      "name" : "r_ear1",
      "children" : [ 19 ],
      "translation" : [ -0.0581463, 0.123126, -0.0318085 ],
      "rotation" : [ -0.794948, 0.554711, -0.140585, -0.20147 ]
    },
    {
      "name" : "r_ear2",
      "children" : [ 20 ],
      "translation" : [ -0.053867, 1.87315e-07, -1.04225e-06 ],
      "rotation" : [ -0.0105389, -0.0908937, -0.114693, -0.989178 ]
    },
    {
      "name" : "r_ear3",
      "translation" : [ -0.072741, 1.90588e-06, 1.59581e-07 ],
      "rotation" : [ 5.20417e-18, 1.80556e-35, -3.46945e-18, -1 ]
    },
    {
      "name" : "transform1",
      "children" : [ 22 ],
      "translation" : [ -0.334005, -2.14033e-17, 0.606123 ],
      "rotation" : [ 4.42761e-32, -4.42761e-32, 0.707107, -0.707107 ]
    },
    {
      "name" : "l_upperEye",
      "translation" : [ 0.107191, 0.435835, -0.688577 ],
      "rotation" : [ -7.76438e-32, -0, -1.37954e-31, -1 ]
    },
    {
      "name" : "transform2",
      "children" : [ 24 ],
      "translation" : [ -0.334005, -2.14033e-17, 0.606123 ],
      "rotation" : [ 4.42761e-32, -4.42761e-32, 0.707107, -0.707107 ]
    },
    {
      "name" : "l_lowerEye",
      "translation" : [ 0.106573, 0.440772, -0.643913 ],
      "rotation" : [ -7.76438e-32, -0, -1.37954e-31, -1 ]
    },
    {
      "name" : "transform3",
      "children" : [ 26 ],
      "translation" : [ -0.334005, -2.14033e-17, 0.606123 ],
      "rotation" : [ 4.42761e-32, -4.42761e-32, 0.707107, -0.707107 ]
    },
    {
      "name" : "r_lowerEye",
      "translation" : [ -0.106573, 0.440772, -0.643913 ],
      "rotation" : [ -1, -1.37954e-31, 0, 2.83277e-16 ]
    },
    {
      "name" : "transform4",
      "children" : [ 28 ],
      "translation" : [ -0.334005, -2.14033e-17, 0.606123 ],
      "rotation" : [ 4.42761e-32, -4.42761e-32, 0.707107, -0.707107 ]
    },
    {
      "name" : "r_upperEye",
      "translation" : [ -0.107191, 0.435835, -0.688577 ],
      "rotation" : [ -1, -1.37954e-31, 0, 2.83277e-16 ]
    },
    {
      "name" : "l_clavicle",
      "children" : [ 30 ],
      "translation" : [ 0.0590135, -0.202464, -0.0327926 ],
      "rotation" : [ 5.15811e-32, 0.648911, 4.39914e-32, -0.760864 ]
    },
    {
      "name" : "l_shoulder",
      "children" : [ 31 ],
      "translation" : [ 0.28663, -4.26326e-16, -0 ],
      "rotation" : [ 4.10437e-32, 0.41214, -8.49079e-33, -0.91112 ]
    },
    {
      "name" : "l_elbow",
      "children" : [ 32 ],
      "translation" : [ 0.263243, 3.55271e-17, 7.10543e-17 ],
      "rotation" : [ -4.02719e-32, -0.346443, -2.4546e-32, -0.938071 ]
    },
    {
      "name" : "l_wrist",
      "children" : [ 33 ],
      "translation" : [ 0.344149, 3.55271e-16, -7.10543e-16 ],
      "rotation" : [ -4.00213e-32, 0.0435751, -1.74559e-33, -0.99905 ]
    },
    {
      "name" : "l_finger",
      "children" : [ 34 ],
      "translation" : [ 0.198587, 3.55271e-17, 2.84217e-16 ],
      "rotation" : [ 1.02197e-32, -0.183787, 4.35898e-33, -0.982966 ]
    },
    {
      "name" : "l_frontHoof",
      "children" : [ 35 ],
      "translation" : [ 0.0870104, 7.10543e-17, 1.42109e-16 ],
      "rotation" : [ 6.27403e-32, -0.349663, 9.47499e-33, -0.936875 ]
    },
    {
      "name" : "l_frontHoof_end",
      "translation" : [ 0.105255, -3.55271e-17, 7.10543e-17 ],
      "rotation" : [ 1.84889e-32, -2.77556e-17, -1.38667e-32, -1 ]
    },
    {
      "name" : "c_neckHelper",
      "translation" : [ 0.557437, -5.81631e-17, 0.144033 ],
      "rotation" : [ 3.78219e-32, -0.349106, 2.20818e-32, -0.937083 ]
    },
    {
      "name" : "r_clavicle",
      "children" : [ 38 ],
      "translation" : [ 0.0590129, 0.202463, -0.0327925 ],
      "rotation" : [ -4.39914e-32, -0.760864, 5.15811e-32, -0.648911 ]
    },
    {
      "name" : "r_shoulder",
      "children" : [ 39 ],
      "translation" : [ -0.28663, -4.26326e-16, 3.44369e-07 ],
      "rotation" : [ -1.2177e-06, 0.41214, -2.66377e-08, -0.91112 ]
    },
    {
      "name" : "r_elbow",
      "children" : [ 40 ],
      "translation" : [ -0.263243, 3.19744e-16, -9.65165e-07 ],
      "rotation" : [ 2.63542e-22, -0.346443, -4.08953e-23, -0.938071 ]
    },
    {
      "name" : "r_wrist",
      "children" : [ 41 ],
      "translation" : [ -0.344149, -1.77636e-16, 4.89934e-07 ],
      "rotation" : [ 5.61949e-23, 0.0435751, 2.45102e-24, -0.99905 ]
    },
    {
      "name" : "r_finger",
      "children" : [ 42 ],
      "translation" : [ -0.198589, 3.55271e-16, 1.60983e-06 ],
      "rotation" : [ 9.26511e-23, -0.183787, 6.34623e-23, -0.982966 ]
    },
    {
      "name" : "r_frontHoof",
      "children" : [ 43 ],
      "translation" : [ -0.0870096, 1.77636e-16, -1.6083e-06 ],
      "rotation" : [ -2.88214e-07, -0.349663, -2.12782e-06, -0.936875 ]
    },
    {
      "name" : "r_frontHoof_end",
      "translation" : [ -0.105255, -3.19744e-16, 1.13472e-07 ],
      "rotation" : [ -5.87747e-39, -2.77556e-17, -2.11758e-22, -1 ]
    },
    {
      "name" : "l_leg",
      "children" : [ 45 ],
      "translation" : [ -0.0144348, -0.199416, 0.0168501 ],
      "rotation" : [ 1.66306e-32, 0.687754, -9.71313e-33, -0.725943 ]
    },
    {
      "name" : "l_knee",
      "children" : [ 46 ],
      "translation" : [ 0.305594, 3.90799e-16, 1.42109e-16 ],
      "rotation" : [ -5.28591e-32, 0.48335, 4.47345e-32, -0.875427 ]
    },
    {
      "name" : "l_ankle",
      "children" : [ 47 ],
      "translation" : [ 0.318717, -3.55271e-16, 1.42109e-16 ],
      "rotation" : [ 2.52895e-32, -0.397772, 9.18756e-33, -0.917484 ]
    },
    {
      "name" : "l_toe",
      "children" : [ 48 ],
      "translation" : [ 0.298774, -6.75016e-16, 1.42109e-16 ],
      "rotation" : [ -1.87816e-32, -0.13944, 2.13161e-32, -0.99023 ]
    },
    {
      "name" : "l_hoof",
      "children" : [ 49 ],
      "translation" : [ 0.102905, 9.9476e-16, 3.55271e-16 ],
      "rotation" : [ 2.95619e-32, -0.433437, 4.58839e-33, -0.901184 ]
    },
    {
      "name" : "l_hoof_end",
      "translation" : [ 0.0891688, -3.90799e-16, -2.4869e-16 ],
      "rotation" : [ -0, -0, -3.23556e-32, -1 ]
    },
    {
      "name" : "c_tail1",
      "children" : [ 51 ],
      "translation" : [ -0.131049, -8.72517e-17, -0.123277 ],
      "rotation" : [ 0.44676, 1.26626e-16, 0.894654, 1.16515e-16 ]
    },
    {
      "name" : "c_tail2",
      "children" : [ 52 ],
      "translation" : [ 0.109855, -3.78653e-31, 1.42109e-16 ],
      "rotation" : [ 5.64106e-32, 0.0984253, -6.80677e-33, -0.995144 ]
    },
    {
      "name" : "c_tail3",
      "children" : [ 53 ],
      "translation" : [ 0.111347, 4.64198e-18, 2.84217e-16 ],
      "rotation" : [ 4.9958e-32, 0.0603691, -9.32704e-33, -0.998176 ]
    },
    {
      "name" : "c_tail4",
      "translation" : [ 0.103708, 7.94428e-18, 1.42109e-16 ],
      "rotation" : [ 4.93038e-32, 0, -1.2326e-32, -1 ]
    },
    {
      "name" : "r_leg",
      "children" : [ 55 ],
      "translation" : [ -0.0144357, 0.199415, 0.0168499 ],
      "rotation" : [ 1.62172e-06, -0.725943, -4.95133e-07, -0.687754 ]
    },
    {
      "name" : "r_knee",
      "children" : [ 56 ],
      "translation" : [ -0.305593, -2.13163e-16, 1.83686e-07 ],
      "rotation" : [ 4.15127e-23, 0.48335, 1.43866e-22, -0.875427 ]
    },
    {
      "name" : "r_ankle",
      "children" : [ 57 ],
      "translation" : [ -0.318716, -1.06581e-16, 1.01916e-06 ],
      "rotation" : [ -4.75837e-22, -0.397772, -2.45055e-23, -0.917484 ]
    },
    {
      "name" : "r_toe",
      "children" : [ 58 ],
      "translation" : [ -0.298775, -7.10543e-17, -5.03519e-07 ],
      "rotation" : [ -6.38697e-23, -0.13944, 1.15918e-22, -0.99023 ]
    },
    {
      "name" : "r_hoof",
      "children" : [ 59 ],
      "translation" : [ -0.102905, 1.42109e-16, -1.08091e-06 ],
      "rotation" : [ -1.85384e-22, -0.433437, -2.63304e-22, -0.901184 ]
    },
    {
      "name" : "r_hoof_end",
      "translation" : [ -0.0891699, -1.77636e-16, 3.47911e-07 ],
      "rotation" : [ -5.29396e-23, -5.60519e-45, -1.05879e-22, -1 ]
    }
  ],
  "skins" : [
    {
      "inverseBindMatrices" : 0,
      "skeleton" : 1,
      "joints" : [
        1,2,3,4,5,6,7,8,9,10,11,12,13,14,15,16,17,18,19,20,21,22,23,24,25,26,27,28,29,30,31,32,
        33,34,35,36,37,38,39,40,41,42,43,44,45,46,47,48,49,50,51,52,53,54,55,56,57,58,59
      ]
    }
  ],
  "materials" : [
    {
      "name" : "dummy_material_0",
      "pbrMetallicRoughness" : {
        "baseColorFactor" : [ 0.3, 0.3, 0.3, 1.0 ],
        "metallicFactor" : 0.1,
        "roughnessFactor" : 0.5
      }
    },
    {
      "name" : "dummy_material_1",
      "pbrMetallicRoughness" : {
        "baseColorFactor" : [ 0.9, 0.3, 0.3, 1.0 ],
        "metallicFactor" : 0.1,
        "roughnessFactor" : 0.5
      }
    }
  ],
  "meshes" : [
    {
      "primitives" : [
        {
          "attributes" : {
            "POSITION" : 2,
            "NORMAL" : 3,
            "TANGENT" : 4,
            "COLOR_0" : 5,
            "JOINTS_0" : 6,
            "WEIGHTS_0" : 7,
            "TEXCOORD_0" : 8,
            "TEXCOORD_1" : 9
          },
          "indices" : 1,
          "material" : 0
        },
        {
          "attributes" : {
            "POSITION" : 11,
            "NORMAL" : 12,
            "TANGENT" : 13,
            "COLOR_0" : 14,
            "JOINTS_0" : 15,
            "WEIGHTS_0" : 16,
            "TEXCOORD_0" : 17,
            "TEXCOORD_1" : 18
          },
          "indices" : 10,
          "material" : 1
        }
      ],
      "name" : "Stag"
    }
  ],
  "buffers" : [
    {
      "uri" : "Stag.bin",
      "byteLength" : 1944260
    }
  ],
  "bufferViews" : [
    {
      "buffer" : 0,
      "byteOffset" : 0,
      "byteLength" : 3776
    },
    {
      "buffer" : 0,
      "byteOffset" : 3776,
      "byteLength" : 152544
    },
    {
      "buffer" : 0,
      "byteOffset" : 156320,
      "byteLength" : 176256
    },
    {
      "buffer" : 0,
      "byteOffset" : 332576,
      "byteLength" : 176256
    },
    {
      "buffer" : 0,
      "byteOffset" : 508832,
      "byteLength" : 235008
    },
    {
      "buffer" : 0,
      "byteOffset" : 743840,
      "byteLength" : 58752
    },
    {
      "buffer" : 0,
      "byteOffset" : 802592,
      "byteLength" : 117504
    },
    {
      "buffer" : 0,
      "byteOffset" : 920096,
      "byteLength" : 58752
    },
    {
      "buffer" : 0,
      "byteOffset" : 978848,
      "byteLength" : 117504
    },
    {
      "buffer" : 0,
      "byteOffset" : 1096352,
      "byteLength" : 117504
    },
    {
      "buffer" : 0,
      "byteOffset" : 1213856,
      "byteLength" : 23652
    },
    {
      "buffer" : 0,
      "byteOffset" : 1237508,
      "byteLength" : 117792
    },
    {
      "buffer" : 0,
      "byteOffset" : 1355300,
      "byteLength" : 117792
    },
    {
      "buffer" : 0,
      "byteOffset" : 1473092,
      "byteLength" : 157056
    },
    {
      "buffer" : 0,
      "byteOffset" : 1630148,
      "byteLength" : 39264
    },
    {
      "buffer" : 0,
      "byteOffset" : 1669412,
      "byteLength" : 78528
    },
    {
      "buffer" : 0,
      "byteOffset" : 1747940,
      "byteLength" : 39264
    },
    {
      "buffer" : 0,
      "byteOffset" : 1787204,
      "byteLength" : 78528
    },
    {
      "buffer" : 0,
      "byteOffset" : 1865732,
      "byteLength" : 78528
    }
  ],
  "accessors" : [
    {
      "bufferView" : 0,
      "componentType" : 5126,
      "count" : 59,
      "type" : "MAT4"
    },
    {
      "bufferView" : 1,
      "componentType" : 5123,
      "count" : 76272,
      "type" : "SCALAR"
    },
    {
      "bufferView" : 2,
      "min" : [ -1.40116, -0.00587758, -0.684889 ],
      "max" : [ 1.40102, 2.48036, 1.20583 ],
      "componentType" : 5126,
      "count" : 14688,
      "type" : "VEC3"
    },
    {
      "bufferView" : 3,
      "componentType" : 5126,
      "count" : 14688,
      "type" : "VEC3"
    },
    {
      "bufferView" : 4,
      "componentType" : 5126,
      "count" : 14688,
      "type" : "VEC4"
    },
    {
      "bufferView" : 5,
      "normalized" : true,
      "componentType" : 5121,
      "count" : 14688,
      "type" : "VEC4"
    },
    {
      "bufferView" : 6,
      "componentType" : 5123,
      "count" : 14688,
      "type" : "VEC4"
    },
    {
      "bufferView" : 7,
      "normalized" : true,
      "componentType" : 5121,
      "count" : 14688,
      "type" : "VEC4"
    },
    {
      "bufferView" : 8,
      "componentType" : 5126,
      "count" : 14688,
      "type" : "VEC2"
    },
    {
      "bufferView" : 9,
      "componentType" : 5126,
      "count" : 14688,
      "type" : "VEC2"
    },
    {
      "bufferView" : 10,
      "componentType" : 5123,
      "count" : 11826,
      "type" : "SCALAR"
    },
    {
      "bufferView" : 11,
      "min" : [ -0.343055, 0.671746, 0.044944 ],
      "max" : [ 0.341709, 1.70834, 1.02137 ],
      "componentType" : 5126,
      "count" : 9816,
      "type" : "VEC3"
    },
    {
      "bufferView" : 12,
      "componentType" : 5126,
      "count" : 9816,
      "type" : "VEC3"
    },
    {
      "bufferView" : 13,
      "componentType" : 5126,
      "count" : 9816,
      "type" : "VEC4"
    },
    {
      "bufferView" : 14,
      "normalized" : true,
      "componentType" : 5121,
      "count" : 9816,
      "type" : "VEC4"
    },
    {
      "bufferView" : 15,
      "componentType" : 5123,
      "count" : 9816,
      "type" : "VEC4"
    },
    {
      "bufferView" : 16,
      "normalized" : true,
      "componentType" : 5121,
      "count" : 9816,
      "type" : "VEC4"
    },
    {
      "bufferView" : 17,
      "componentType" : 5126,
      "count" : 9816,
      "type" : "VEC2"
    },
    {
      "bufferView" : 18,
      "componentType" : 5126,
      "count" : 9816,
      "type" : "VEC2"
    }
  ]
}
