{
  "asset" : {
    "generator" : "UE Viewer (umodel) build 1612-floxay",
    "version" : "2.0"
  },
  "scene" : 0,
  "scenes" : [
    {
      "nodes" : [ 0 ]
    }
  ],
  "nodes" : [
    {
      "name" : "SM_Unicorn_Horn_01",
      "mesh" : 0
    }
  ],
  "materials" : [
    {
      "name" : "dummy_material_0",
      "pbrMetallicRoughness" : {
        "baseColorFactor" : [ 0.3, 0.3, 0.3, 1.0 ],
        "metallicFactor" : 0.1,
        "roughnessFactor" : 0.5
      }
    }
  ],
  "meshes" : [
    {
      "primitives" : [
        {
          "attributes" : {
            "POSITION" : 1,
            "NORMAL" : 2,
            "TANGENT" : 3,
            "TEXCOORD_0" : 4
          },
          "indices" : 0,
          "material" : 0
        }
      ],
      "name" : "SM_Unicorn_Horn_01"
    }
  ],
  "buffers" : [
    {
      "uri" : "SM_Unicorn_Horn_01.bin",
      "byteLength" : 30048
    }
  ],
  "bufferViews" : [
    {
      "buffer" : 0,
      "byteOffset" : 0,
      "byteLength" : 4128
    },
    {
      "buffer" : 0,
      "byteOffset" : 4128,
      "byteLength" : 6480
    },
    {
      "buffer" : 0,
      "byteOffset" : 10608,
      "byteLength" : 6480
    },
    {
      "buffer" : 0,
      "byteOffset" : 17088,
      "byteLength" : 8640
    },
    {
      "buffer" : 0,
      "byteOffset" : 25728,
      "byteLength" : 4320
    }
  ],
  "accessors" : [
    {
      "bufferView" : 0,
      "componentType" : 5123,
      "count" : 2064,
      "type" : "SCALAR"
    },
    {
      "bufferView" : 1,
      "min" : [ -2.1112e-05, -0.0416497, -0.0323828 ],
      "max" : [ 0.521677, 0.0356271, 0.0432999 ],
      "componentType" : 5126,
      "count" : 540,
      "type" : "VEC3"
    },
    {
      "bufferView" : 2,
      "componentType" : 5126,
      "count" : 540,
      "type" : "VEC3"
    },
    {
      "bufferView" : 3,
      "componentType" : 5126,
      "count" : 540,
      "type" : "VEC4"
    },
    {
      "bufferView" : 4,
      "componentType" : 5126,
      "count" : 540,
      "type" : "VEC2"
    }
  ]
}
