{
  "asset" : {
    "generator" : "UE Viewer (umodel) build 1612-floxay",
    "version" : "2.0"
  },
  "scene" : 0,
  "scenes" : [
    {
      "nodes" : [ 0 ]
    }
  ],
  "nodes" : [
    {
      "name" : "CeratosaurusAA_Mesh",
      "mesh" : 0,
      "skin" : 0,
      "children" : [ 1 ]
    },
    {
      "name" : "Cerato_ROOT",
      "children" : [ 2 ],
      "translation" : [ 0, 0, -0 ],
      "rotation" : [ -0.707107, -0, 0, -0.707107 ]
    },
    {
      "name" : "Waist_M",
      "children" : [ 3, 71, 78, 96 ],
      "translation" : [ 2.80669e-25, -0.0873285, -1.27984 ],
      "rotation" : [ -0.70659, -0.70659, 0.0270338, -0.0270338 ]
    },
    {
      "name" : "Spine1_M",
      "children" : [ 4 ],
      "translation" : [ 0.212894, 1.91538e-16, 1.42109e-15 ],
      "rotation" : [ 1.04375e-15, -0.0312858, 2.5606e-17, -0.99951 ]
    },
    {
      "name" : "Spine2_M",
      "children" : [ 5 ],
      "translation" : [ 0.266747, 1.69506e-16, 2.84217e-16 ],
      "rotation" : [ 8.45147e-17, -0.102955, 7.46162e-17, -0.994686 ]
    },
    {
      "name" : "Chest_M",
      "children" : [ 6, 33, 52 ],
      "translation" : [ 0.310671, 7.30673e-12, -1.98952e-15 ],
      "rotation" : [ -4.77919e-16, -0.00381504, -1.11703e-17, -0.999993 ]
    },
    {
      "name" : "Neck0_M",
      "children" : [ 7 ],
      "translation" : [ 0.100119, -2.39199e-16, -1.13687e-15 ],
      "rotation" : [ 1.01023e-15, 0.140091, 2.44033e-17, -0.990139 ]
    },
    {
      "name" : "Neck1_M",
      "children" : [ 8 ],
      "translation" : [ 0.106117, -1.19163e-16, -1.42109e-16 ],
      "rotation" : [ -1.45972e-16, 0.272034, 1.29803e-16, -0.962288 ]
    },
    {
      "name" : "Neck2_M",
      "children" : [ 9 ],
      "translation" : [ 0.0679386, 1.47089e-16, 8.08336e-11 ],
      "rotation" : [ -4.47339e-18, -0.0270054, 7.30675e-17, -0.999635 ]
    },
    {
      "name" : "Neck3_M",
      "children" : [ 10 ],
      "translation" : [ 0.0579948, 1.45761e-16, 4.48282e-10 ],
      "rotation" : [ 5.50949e-16, -0.132934, -7.84923e-17, -0.991125 ]
    },
    {
      "name" : "Neck4_M",
      "children" : [ 11 ],
      "translation" : [ 0.0623924, 7.31613e-17, 3.77536e-10 ],
      "rotation" : [ -2.77782e-16, 0.0205238, 2.6486e-17, -0.999789 ]
    },
    {
      "name" : "Neck5_M",
      "children" : [ 12 ],
      "translation" : [ 0.0713076, 3.14479e-17, 7.13584e-12 ],
      "rotation" : [ -5.19343e-17, -0.0690182, 9.35821e-17, -0.997615 ]
    },
    {
      "name" : "Head_M",
      "children" : [ 13, 16, 30 ],
      "translation" : [ 0.0786149, -5.73859e-17, 4.57763e-11 ],
      "rotation" : [ 1.96118e-15, -0.0768584, -1.95953e-16, -0.997042 ]
    },
    {
      "name" : "Eye_R",
      "children" : [ 14, 15 ],
      "translation" : [ 0.362966, -0.0684522, 0.044388 ],
      "rotation" : [ 0.0250099, -0.0135786, 0.568557, -0.822151 ]
    },
    {
      "name" : "R_Eyelid_upper",
      "translation" : [ -0.000979436, 0.000824995, 0.00159283 ],
      "rotation" : [ -0.341294, 0.0644234, 0.937391, -0.0258168 ]
    },
    {
      "name" : "R_Eyelid_lower",
      "translation" : [ -0.00142768, -0.000285928, -0.00332672 ],
      "rotation" : [ -0.0217046, -0.937095, 0.0659226, 0.342104 ]
    },
    {
      "name" : "Jaw_M",
      "children" : [ 17, 26, 28 ],
      "translation" : [ 0.12345, -1.33102e-15, -0.0645126 ],
      "rotation" : [ -1.08119e-25, -0.38136, 3.18404e-25, -0.924427 ]
    },
    {
      "name" : "tongue1_M",
      "children" : [ 18 ],
      "translation" : [ 0.171632, 1.48543e-15, 0.0122934 ],
      "rotation" : [ -1.08861e-16, 0.34405, 9.98101e-17, -0.938951 ]
    },
    {
      "name" : "tongue2_M",
      "children" : [ 19 ],
      "translation" : [ 0.0363229, 2.69604e-17, -1.42109e-16 ],
      "rotation" : [ -1.73225e-16, -0.413473, 6.24302e-17, -0.910516 ]
    },
    {
      "name" : "tongue3_M",
      "children" : [ 20 ],
      "translation" : [ 0.0464981, 2.30518e-16, 1.7053e-15 ],
      "rotation" : [ -4.0891e-16, -0.0462457, -3.2435e-17, -0.99893 ]
    },
    {
      "name" : "tongue4_M",
      "children" : [ 21 ],
      "translation" : [ 0.0381227, 1.82537e-16, -5.68434e-16 ],
      "rotation" : [ -1.31256e-16, 0.0758006, -1.26463e-18, -0.997123 ]
    },
    {
      "name" : "tongue5_M",
      "children" : [ 22 ],
      "translation" : [ 0.0274519, 1.23577e-16, -0 ],
      "rotation" : [ 2.02411e-16, 0.0878969, 9.61058e-17, -0.99613 ]
    },
    {
      "name" : "tongue6_M",
      "children" : [ 23 ],
      "translation" : [ 0.032329, 8.93125e-17, -1.98952e-15 ],
      "rotation" : [ 6.30772e-17, 0.0125828, 8.79328e-18, -0.999921 ]
    },
    {
      "name" : "tongue7_M",
      "children" : [ 24 ],
      "translation" : [ 0.0291386, 9.08546e-17, 1.42109e-15 ],
      "rotation" : [ -3.08128e-17, 0.0118619, 9.64822e-17, -0.99993 ]
    },
    {
      "name" : "tongue8_M",
      "children" : [ 25 ],
      "translation" : [ 0.0308091, 9.69667e-17, 1.13687e-15 ],
      "rotation" : [ 1.09848e-16, 0.0589787, 2.22451e-17, -0.998259 ]
    },
    {
      "name" : "tongue9_M",
      "translation" : [ 0.0251581, -1.47165e-17, 5.68434e-16 ],
      "rotation" : [ -3.06698e-25, -2.77556e-17, 2.5099e-25, -1 ]
    },
    {
      "name" : "F_Dewlap1",
      "children" : [ 27 ],
      "translation" : [ 0.198237, 5.02913e-09, -0.100854 ],
      "rotation" : [ 7.76232e-10, 0.237852, -1.48409e-09, -0.971301 ]
    },
    {
      "name" : "F_DewlapEnd",
      "translation" : [ 0.000747319, -2.01948e-30, -0.0615777 ],
      "rotation" : [ 2.00782e-15, -0.999977, 2.35646e-16, -0.00677134 ]
    },
    {
      "name" : "R_Dewlap1",
      "children" : [ 29 ],
      "translation" : [ 0.0155634, 4.43247e-09, -0.162946 ],
      "rotation" : [ 2.26195e-15, 0.306204, 8.42482e-16, -0.951966 ]
    },
    {
      "name" : "R_DewlapEnd",
      "translation" : [ 0.000747319, -5.29396e-25, -0.0615777 ],
      "rotation" : [ 1.74894e-25, -0.999977, 6.64254e-26, -0.00677134 ]
    },
    {
      "name" : "Eye_L",
      "children" : [ 31, 32 ],
      "translation" : [ 0.362966, 0.0684522, 0.044388 ],
      "rotation" : [ -0.0250099, -0.0135786, -0.568557, -0.822151 ]
    },
    {
      "name" : "L_Eyelid_upper",
      "translation" : [ -0.000979819, -0.000824201, 0.00158938 ],
      "rotation" : [ -0.937391, 0.0258168, -0.341294, 0.0644234 ]
    },
    {
      "name" : "L_Eyelid_lower",
      "translation" : [ -0.00142754, 0.000285545, -0.00332807 ],
      "rotation" : [ -0.0659226, -0.342104, -0.0217046, -0.937095 ]
    },
    {
      "name" : "Shoulder_R",
      "children" : [ 34 ],
      "translation" : [ 0.194705, -0.134756, -0.147579 ],
      "rotation" : [ -0.68172, 0.277989, 0.622517, -0.26543 ]
    },
    {
      "name" : "Elbow_R",
      "children" : [ 35 ],
      "translation" : [ 0.203336, -5.13042e-11, -2.84217e-16 ],
      "rotation" : [ -1.1131e-17, -0.401038, -2.54258e-17, -0.916061 ]
    },
    {
      "name" : "Wrist_R",
      "children" : [ 36, 40, 44, 48 ],
      "translation" : [ 0.181188, -3.10123e-11, 8.52651e-16 ],
      "rotation" : [ -0.295202, -0.178335, 0.0309775, -0.938133 ]
    },
    {
      "name" : "MiddleFinger1_R",
      "children" : [ 37 ],
      "translation" : [ 0.0765396, 5.68434e-16, 2.84217e-16 ],
      "rotation" : [ 0.0323116, 0.0830682, -0.032935, -0.995475 ]
    },
    {
      "name" : "MiddleFinger2_R",
      "children" : [ 38 ],
      "translation" : [ 0.0226226, 2.84217e-16, -1.42109e-15 ],
      "rotation" : [ -0.00684692, -0.0281196, -0.00035868, -0.999581 ]
    },
    {
      "name" : "MiddleFinger3_R",
      "children" : [ 39 ],
      "translation" : [ 0.0194584, -6.39488e-16, 5.68434e-16 ],
      "rotation" : [ -0.0390983, 0.0647264, 0.0696002, -0.994705 ]
    },
    {
      "name" : "MiddleFinger4_R",
      "translation" : [ 0.0219439, 7.10543e-16, -2.84217e-16 ],
      "rotation" : [ -1.38778e-17, -2.77556e-17, -6.93889e-18, -1 ]
    },
    {
      "name" : "IndexFinger1_R",
      "children" : [ 41 ],
      "translation" : [ 0.0654074, -0.0146046, -0.0314135 ],
      "rotation" : [ -0.175698, -0.105697, 0.198663, -0.958379 ]
    },
    {
      "name" : "IndexFinger2_R",
      "children" : [ 42 ],
      "translation" : [ 0.0192218, 2.84217e-16, 7.10543e-16 ],
      "rotation" : [ 0.206597, 0.0152305, -0.17738, -0.962092 ]
    },
    {
      "name" : "IndexFinger3_R",
      "children" : [ 43 ],
      "translation" : [ 0.0190807, -5.68434e-16, 2.84217e-16 ],
      "rotation" : [ -0.0833875, -0.0178538, 0.0695763, -0.993925 ]
    },
    {
      "name" : "IndexFinger4_R",
      "translation" : [ 0.0182507, 5.68434e-16, 5.68434e-16 ],
      "rotation" : [ -1.38778e-17, 1.38778e-17, 1.9082e-17, -1 ]
    },
    {
      "name" : "PinkyFinger1_R",
      "children" : [ 45 ],
      "translation" : [ 0.0252256, 0.0281383, 0.0620116 ],
      "rotation" : [ 0.0167356, 0.423269, -0.0753955, -0.902706 ]
    },
    {
      "name" : "PinkyFinger2_R",
      "children" : [ 46 ],
      "translation" : [ 0.0131763, 7.10543e-17, -1.7053e-15 ],
      "rotation" : [ 0.00734791, 0.0699742, 0.0347919, -0.996915 ]
    },
    {
      "name" : "PinkyFinger3_R",
      "children" : [ 47 ],
      "translation" : [ 0.0104049, 0, -0 ],
      "rotation" : [ 0.0248932, -0.0683573, 0.0668488, -0.995107 ]
    },
    {
      "name" : "PinkyFinger4_R",
      "translation" : [ 0.00894106, -7.10543e-16, -1.42109e-16 ],
      "rotation" : [ -6.93889e-18, -2.77556e-17, 4.16334e-17, -1 ]
    },
    {
      "name" : "RingFinger1_R",
      "children" : [ 49 ],
      "translation" : [ 0.063091, 0.0175933, 0.0421968 ],
      "rotation" : [ 0.0269515, 0.281004, -0.0653015, -0.957103 ]
    },
    {
      "name" : "RingFinger2_R",
      "children" : [ 50 ],
      "translation" : [ 0.030632, 6.39488e-16, -8.52651e-16 ],
      "rotation" : [ 0.00449382, 0.0158195, -0.00424475, -0.999856 ]
    },
    {
      "name" : "RingFinger3_R",
      "children" : [ 51 ],
      "translation" : [ 0.018736, -9.23705e-16, 2.84217e-16 ],
      "rotation" : [ 0.00452804, -0.0856439, -0.152363, -0.984596 ]
    },
    {
      "name" : "RingFinger4_R",
      "translation" : [ 0.0147697, 1.77636e-16, 7.10543e-16 ],
      "rotation" : [ -2.77556e-17, -2.77556e-17, -2.77556e-17, -1 ]
    },
    {
      "name" : "Shoulder_L",
      "children" : [ 53 ],
      "translation" : [ 0.194705, 0.134756, -0.147579 ],
      "rotation" : [ 0.622517, -0.26543, 0.68172, -0.277989 ]
    },
    {
      "name" : "Elbow_L",
      "children" : [ 54 ],
      "translation" : [ -0.203336, -5.13059e-11, 2.84217e-16 ],
      "rotation" : [ 5.08516e-17, -0.401038, -2.22621e-17, -0.916061 ]
    },
    {
      "name" : "Wrist_L",
      "children" : [ 55, 59, 63, 67 ],
      "translation" : [ -0.181188, -3.4311e-11, 1.42109e-16 ],
      "rotation" : [ -0.295202, -0.178335, 0.0309775, -0.938133 ]
    },
    {
      "name" : "MiddleFinger1_L",
      "children" : [ 56 ],
      "translation" : [ -0.0765396, -2.13163e-16, -2.84217e-16 ],
      "rotation" : [ 0.0323116, 0.0830682, -0.032935, -0.995475 ]
    },
    {
      "name" : "MiddleFinger2_L",
      "children" : [ 57 ],
      "translation" : [ -0.0226226, -4.26326e-16, 1.7053e-15 ],
      "rotation" : [ -0.00684692, -0.0281196, -0.00035868, -0.999581 ]
    },
    {
      "name" : "MiddleFinger3_L",
      "children" : [ 58 ],
      "translation" : [ -0.0194584, 6.39488e-16, -2.84217e-16 ],
      "rotation" : [ -0.0390983, 0.0647264, 0.0696002, -0.994705 ]
    },
    {
      "name" : "MiddleFinger4_L",
      "translation" : [ -0.0219439, -6.39488e-16, 2.84217e-16 ],
      "rotation" : [ -0, -0, -3.46945e-17, -1 ]
    },
    {
      "name" : "IndexFinger1_L",
      "children" : [ 60 ],
      "translation" : [ -0.0654074, 0.0146046, 0.0314135 ],
      "rotation" : [ -0.175698, -0.105697, 0.198663, -0.958379 ]
    },
    {
      "name" : "IndexFinger2_L",
      "children" : [ 61 ],
      "translation" : [ -0.0192218, -9.59233e-16, -7.10543e-16 ],
      "rotation" : [ 0.206597, 0.0152305, -0.17738, -0.962092 ]
    },
    {
      "name" : "IndexFinger3_L",
      "children" : [ 62 ],
      "translation" : [ -0.0190807, 9.23705e-16, 2.84217e-16 ],
      "rotation" : [ -0.0833875, -0.0178538, 0.0695763, -0.993925 ]
    },
    {
      "name" : "IndexFinger4_L",
      "translation" : [ -0.0182507, -5.68434e-16, -9.9476e-16 ],
      "rotation" : [ -1.38778e-17, -1.38778e-17, -6.07153e-18, -1 ]
    },
    {
      "name" : "PinkyFinger1_L",
      "children" : [ 64 ],
      "translation" : [ -0.0252256, -0.0281383, -0.0620116 ],
      "rotation" : [ 0.0167356, 0.423269, -0.0753955, -0.902706 ]
    },
    {
      "name" : "PinkyFinger2_L",
      "children" : [ 65 ],
      "translation" : [ -0.0131763, 4.26326e-16, 1.7053e-15 ],
      "rotation" : [ 0.00734791, 0.0699742, 0.0347919, -0.996915 ]
    },
    {
      "name" : "PinkyFinger3_L",
      "children" : [ 66 ],
      "translation" : [ -0.0104049, -4.26326e-16, 2.84217e-16 ],
      "rotation" : [ 0.0248932, -0.0683573, 0.0668488, -0.995107 ]
    },
    {
      "name" : "PinkyFinger4_L",
      "translation" : [ -0.00894106, 7.81597e-16, -1.42109e-16 ],
      "rotation" : [ 6.93889e-18, 2.77556e-17, -2.77556e-17, -1 ]
    },
    {
      "name" : "RingFinger1_L",
      "children" : [ 68 ],
      "translation" : [ -0.063091, -0.0175933, -0.0421968 ],
      "rotation" : [ 0.0269515, 0.281004, -0.0653015, -0.957103 ]
    },
    {
      "name" : "RingFinger2_L",
      "children" : [ 69 ],
      "translation" : [ -0.030632, -4.9738e-16, 1.84741e-15 ],
      "rotation" : [ 0.00449382, 0.0158195, -0.00424475, -0.999856 ]
    },
    {
      "name" : "RingFinger3_L",
      "children" : [ 70 ],
      "translation" : [ -0.018736, 8.52651e-16, -0 ],
      "rotation" : [ 0.00452804, -0.0856439, -0.152363, -0.984596 ]
    },
    {
      "name" : "RingFinger4_L",
      "translation" : [ -0.0147697, -1.42109e-16, -5.68434e-16 ],
      "rotation" : [ 2.77556e-17, 2.77556e-17, -2.77556e-17, -1 ]
    },
    {
      "name" : "Tail0_M",
      "children" : [ 72 ],
      "translation" : [ -0.704624, 2.35335e-09, 0.0168673 ],
      "rotation" : [ 0.0310317, -1.27671e-10, 0.999518, 3.96555e-12 ]
    },
    {
      "name" : "Tail1_M",
      "children" : [ 73 ],
      "translation" : [ 0.432059, -2.00832e-10, -3.12639e-15 ],
      "rotation" : [ -3.32245e-15, -0.00432059, 1.42635e-17, -0.999991 ]
    },
    {
      "name" : "Tail2_M",
      "children" : [ 74 ],
      "translation" : [ 0.424002, 1.31687e-10, -4.26326e-16 ],
      "rotation" : [ 2.33274e-15, 0.0294881, 1.20658e-16, -0.999565 ]
    },
    {
      "name" : "Tail3_M",
      "children" : [ 75 ],
      "translation" : [ 0.420936, 1.07009e-10, -5.68434e-16 ],
      "rotation" : [ 7.00025e-15, -0.0109547, -4.20638e-17, -0.99994 ]
    },
    {
      "name" : "Tail4_M",
      "children" : [ 76 ],
      "translation" : [ 0.412846, 1.62242e-10, -4.26326e-16 ],
      "rotation" : [ 1.29438e-15, 0.0313934, 1.63929e-17, -0.999507 ]
    },
    {
      "name" : "Tail5_M",
      "children" : [ 77 ],
      "translation" : [ 0.370857, 4.83258e-11, 1.7053e-15 ],
      "rotation" : [ -1.86998e-15, -0.0651692, 2.09731e-16, -0.997874 ]
    },
    {
      "name" : "Tail6_M",
      "translation" : [ 0.375309, -2.38673e-10, -2.84217e-16 ],
      "rotation" : [ 9.33265e-43, -3.46945e-18, 2.68995e-25, -1 ]
    },
    {
      "name" : "Rump_R",
      "children" : [ 79 ],
      "translation" : [ -0.0142086, -0.236909, 0.153541 ],
      "rotation" : [ -0.749711, 1.09655e-09, 0.661765, 1.24228e-09 ]
    },
    {
      "name" : "Hip_R",
      "children" : [ 80 ],
      "translation" : [ 0.602988, 2.40031e-10, -7.10543e-16 ],
      "rotation" : [ -1.7647e-17, 0.327135, 5.66309e-17, -0.944978 ]
    },
    {
      "name" : "Knee_R",
      "children" : [ 81 ],
      "translation" : [ 0.499145, 1.81191e-10, -1.27898e-15 ],
      "rotation" : [ -1.69885e-16, -0.259267, -1.25959e-16, -0.965806 ]
    },
    {
      "name" : "Ankle_R",
      "children" : [ 82 ],
      "translation" : [ 0.333328, 1.12529e-09, -4.26326e-16 ],
      "rotation" : [ -0.999566, 1.09831e-05, -0.0294576, -0.000372681 ]
    },
    {
      "name" : "Toes_R",
      "children" : [ 83, 84, 88, 92 ],
      "translation" : [ 0.0143886, 8.81258e-11, 0.132582 ],
      "rotation" : [ -0.758756, 0.000195411, -0.651375, 0.000122213 ]
    },
    {
      "name" : "ToesEnd_R",
      "translation" : [ 0.200565, 1.59872e-14, -1.98774e-14 ],
      "rotation" : [ -1.35525e-20, -6.65807e-40, -4.91279e-20, -1 ]
    },
    {
      "name" : "claw5_R",
      "children" : [ 85 ],
      "translation" : [ -0.0388743, 0.00516058, -0.0118813 ],
      "rotation" : [ -0.00472083, 0.037574, -0.0268515, -0.998922 ]
    },
    {
      "name" : "claw6_R",
      "children" : [ 86 ],
      "translation" : [ 0.110585, -1.57397e-11, -1.39742e-09 ],
      "rotation" : [ 0.00414083, -0.0646087, 0.0414972, -0.997039 ]
    },
    {
      "name" : "claw7_R",
      "children" : [ 87 ],
      "translation" : [ 0.0619804, -1.10774e-12, -7.84039e-10 ],
      "rotation" : [ -0.00118278, 0.094524, -0.0292813, -0.995091 ]
    },
    {
      "name" : "claw8_R",
      "translation" : [ 0.0538193, 1.42109e-16, 2.66454e-17 ],
      "rotation" : [ -8.67362e-19, -5.55111e-17, -1.0842e-18, -1 ]
    },
    {
      "name" : "claw9_R",
      "children" : [ 89 ],
      "translation" : [ -0.0693085, -0.0610381, 0.0143953 ],
      "rotation" : [ 0.0284182, -0.0381976, 0.252076, -0.966536 ]
    },
    {
      "name" : "claw10_R",
      "children" : [ 90 ],
      "translation" : [ 0.117882, 5.34571e-11, -1.29961e-09 ],
      "rotation" : [ 0.000805052, 0.0272262, 0.00800161, -0.999597 ]
    },
    {
      "name" : "claw11_R",
      "children" : [ 91 ],
      "translation" : [ 0.0511414, 4.15576e-11, -5.5863e-10 ],
      "rotation" : [ -0.0023194, 0.0773486, -0.0111589, -0.996939 ]
    },
    {
      "name" : "claw12_R",
      "translation" : [ 0.0480959, -1.06581e-16, 1.33227e-17 ],
      "rotation" : [ 1.09154e-17, -8.43799e-35, 7.73032e-18, -1 ]
    },
    {
      "name" : "claw1_R",
      "children" : [ 93 ],
      "translation" : [ -0.077025, 0.0715623, 0.0149369 ],
      "rotation" : [ -0.0322195, -0.0367764, -0.281756, -0.958239 ]
    },
    {
      "name" : "claw2_R",
      "children" : [ 94 ],
      "translation" : [ 0.122453, -6.33319e-11, -1.30067e-09 ],
      "rotation" : [ 0.000461864, 0.0266196, 0.0045183, -0.999635 ]
    },
    {
      "name" : "claw3_R",
      "children" : [ 95 ],
      "translation" : [ 0.045098, -3.91985e-11, -4.81819e-10 ],
      "rotation" : [ -0.00151579, 0.0614655, -0.00788173, -0.998077 ]
    },
    {
      "name" : "claw4_R",
      "translation" : [ 0.0454105, 2.13163e-16, 8.88178e-17 ],
      "rotation" : [ 8.27017e-18, 1.38778e-17, -9.1552e-18, -1 ]
    },
    {
      "name" : "Rump_L",
      "children" : [ 97 ],
      "translation" : [ -0.0142086, 0.236909, 0.153541 ],
      "rotation" : [ 0.661765, -1.24228e-09, 0.749711, 1.09656e-09 ]
    },
    {
      "name" : "Hip_L",
      "children" : [ 98 ],
      "translation" : [ -0.602988, -1.50776e-10, 4.9738e-16 ],
      "rotation" : [ -1.7647e-17, 0.327135, 5.66309e-17, -0.944978 ]
    },
    {
      "name" : "Knee_L",
      "children" : [ 99 ],
      "translation" : [ -0.499145, -1.13817e-10, 2.84217e-16 ],
      "rotation" : [ -1.69885e-16, -0.259267, -1.25959e-16, -0.965806 ]
    },
    {
      "name" : "Ankle_L",
      "children" : [ 100 ],
      "translation" : [ -0.333328, -4.59285e-09, 1.06581e-16 ],
      "rotation" : [ -0.999566, 1.09831e-05, -0.0294577, -0.000372681 ]
    },
    {
      "name" : "Toes_L",
      "children" : [ 101, 102, 106, 110 ],
      "translation" : [ -0.0143886, 2.4372e-09, -0.132582 ],
      "rotation" : [ -0.758756, 0.000195408, -0.651375, 0.000122217 ]
    },
    {
      "name" : "ToesEnd_L",
      "translation" : [ -0.200565, -4.02047e-09, -9.59042e-13 ],
      "rotation" : [ 1.35525e-20, -2.77556e-17, 1.52466e-20, -1 ]
    },
    {
      "name" : "claw5_L",
      "children" : [ 103 ],
      "translation" : [ 0.0388743, -0.00516058, 0.0118813 ],
      "rotation" : [ -0.00472083, 0.037574, -0.0268515, -0.998922 ]
    },
    {
      "name" : "claw6_L",
      "children" : [ 104 ],
      "translation" : [ -0.110585, -2.23806e-09, 2.37307e-09 ],
      "rotation" : [ 0.00414083, -0.0646087, 0.0414972, -0.997039 ]
    },
    {
      "name" : "claw7_L",
      "children" : [ 105 ],
      "translation" : [ -0.0619804, -1.2169e-09, 1.28873e-09 ],
      "rotation" : [ -0.00118278, 0.0945241, -0.0292813, -0.995091 ]
    },
    {
      "name" : "claw8_L",
      "translation" : [ -0.0538193, -1.11611e-09, 1.00406e-11 ],
      "rotation" : [ -4.33681e-19, -2.77556e-17, -3.03577e-18, -1 ]
    },
    {
      "name" : "claw9_L",
      "children" : [ 107 ],
      "translation" : [ 0.0693085, 0.0610381, -0.0143953 ],
      "rotation" : [ 0.0284182, -0.0381977, 0.252076, -0.966536 ]
    },
    {
      "name" : "claw10_L",
      "children" : [ 108 ],
      "translation" : [ -0.117882, -2.37342e-09, 1.60852e-09 ],
      "rotation" : [ 0.000805054, 0.0272262, 0.00800161, -0.999597 ]
    },
    {
      "name" : "claw11_L",
      "children" : [ 109 ],
      "translation" : [ -0.0511414, -1.07724e-09, 6.82479e-10 ],
      "rotation" : [ -0.0023194, 0.0773486, -0.0111589, -0.996939 ]
    },
    {
      "name" : "claw12_L",
      "translation" : [ -0.0480959, -9.80657e-10, -2.20768e-10 ],
      "rotation" : [ -1.88947e-18, 2.18863e-35, 1.15833e-17, -1 ]
    },
    {
      "name" : "claw1_L",
      "children" : [ 111 ],
      "translation" : [ 0.077025, -0.0715623, -0.0149369 ],
      "rotation" : [ -0.0322195, -0.0367764, -0.281756, -0.958239 ]
    },
    {
      "name" : "claw2_L",
      "children" : [ 112 ],
      "translation" : [ -0.122453, -2.26732e-09, 2.78775e-09 ],
      "rotation" : [ 0.000461862, 0.0266196, 0.0045183, -0.999635 ]
    },
    {
      "name" : "claw3_L",
      "children" : [ 113 ],
      "translation" : [ -0.045098, -8.23327e-10, 1.02807e-09 ],
      "rotation" : [ -0.00151579, 0.0614655, -0.00788172, -0.998077 ]
    },
    {
      "name" : "claw4_L",
      "translation" : [ -0.0454105, -9.17517e-10, 2.36075e-10 ],
      "rotation" : [ 5.90615e-18, 1.38778e-17, 2.68563e-17, -1 ]
    }
  ],
  "skins" : [
    {
      "inverseBindMatrices" : 0,
      "skeleton" : 1,
      "joints" : [
        1,2,3,4,5,6,7,8,9,10,11,12,13,14,15,16,17,18,19,20,21,22,23,24,25,26,27,28,29,30,31,32,
        33,34,35,36,37,38,39,40,41,42,43,44,45,46,47,48,49,50,51,52,53,54,55,56,57,58,59,60,61,62,63,64,
        65,66,67,68,69,70,71,72,73,74,75,76,77,78,79,80,81,82,83,84,85,86,87,88,89,90,91,92,93,94,95,96,
        97,98,99,100,101,102,103,104,105,106,107,108,109,110,111,112,113
      ]
    }
  ],
  "materials" : [
    {
      "name" : "dummy_material_0",
      "pbrMetallicRoughness" : {
        "baseColorFactor" : [ 0.3, 0.3, 0.3, 1.0 ],
        "metallicFactor" : 0.1,
        "roughnessFactor" : 0.5
      }
    }
  ],
  "meshes" : [
    {
      "primitives" : [
        {
          "attributes" : {
            "POSITION" : 2,
            "NORMAL" : 3,
            "TANGENT" : 4,
            "JOINTS_0" : 5,
            "WEIGHTS_0" : 6,
            "TEXCOORD_0" : 7,
            "TEXCOORD_1" : 8
          },
          "indices" : 1,
          "material" : 0
        }
      ],
      "name" : "CeratosaurusAA_Mesh"
    }
  ],
  "buffers" : [
    {
      "uri" : "CeratosaurusAA_Mesh.bin",
      "byteLength" : 3123248
    }
  ],
  "bufferViews" : [
    {
      "buffer" : 0,
      "byteOffset" : 0,
      "byteLength" : 7232
    },
    {
      "buffer" : 0,
      "byteOffset" : 7232,
      "byteLength" : 416076
    },
    {
      "buffer" : 0,
      "byteOffset" : 423308,
      "byteLength" : 476460
    },
    {
      "buffer" : 0,
      "byteOffset" : 899768,
      "byteLength" : 476460
    },
    {
      "buffer" : 0,
      "byteOffset" : 1376228,
      "byteLength" : 635280
    },
    {
      "buffer" : 0,
      "byteOffset" : 2011508,
      "byteLength" : 317640
    },
    {
      "buffer" : 0,
      "byteOffset" : 2329148,
      "byteLength" : 158820
    },
    {
      "buffer" : 0,
      "byteOffset" : 2487968,
      "byteLength" : 317640
    },
    {
      "buffer" : 0,
      "byteOffset" : 2805608,
      "byteLength" : 317640
    }
  ],
  "accessors" : [
    {
      "bufferView" : 0,
      "componentType" : 5126,
      "count" : 113,
      "type" : "MAT4"
    },
    {
      "bufferView" : 1,
      "componentType" : 5123,
      "count" : 208038,
      "type" : "SCALAR"
    },
    {
      "bufferView" : 2,
      "min" : [ -0.462092, -0.0107988, -3.23982 ],
      "max" : [ 0.462092, 1.70082, 1.87827 ],
      "componentType" : 5126,
      "count" : 39705,
      "type" : "VEC3"
    },
    {
      "bufferView" : 3,
      "componentType" : 5126,
      "count" : 39705,
      "type" : "VEC3"
    },
    {
      "bufferView" : 4,
      "componentType" : 5126,
      "count" : 39705,
      "type" : "VEC4"
    },
    {
      "bufferView" : 5,
      "componentType" : 5123,
      "count" : 39705,
      "type" : "VEC4"
    },
    {
      "bufferView" : 6,
      "normalized" : true,
      "componentType" : 5121,
      "count" : 39705,
      "type" : "VEC4"
    },
    {
      "bufferView" : 7,
      "componentType" : 5126,
      "count" : 39705,
      "type" : "VEC2"
    },
    {
      "bufferView" : 8,
      "componentType" : 5126,
      "count" : 39705,
      "type" : "VEC2"
    }
  ]
}
