{
  "asset" : {
    "generator" : "UE Viewer (umodel) build 1612-floxay",
    "version" : "2.0"
  },
  "scene" : 0,
  "scenes" : [
    {
      "nodes" : [ 0 ]
    }
  ],
  "nodes" : [
    {
      "name" : "Pegomastax",
      "mesh" : 0,
      "skin" : 0,
      "children" : [ 1 ]
    },
    {
      "name" : "root",
      "children" : [ 2 ],
      "translation" : [ 0, 0, -0 ],
      "rotation" : [ -0.707107, -0, 0, -0.707107 ]
    },
    {
      "name" : "c_back1",
      "children" : [ 3, 56, 62, 75 ],
      "translation" : [ 1.4613e-19, -0.0533379, -0.352491 ],
      "rotation" : [ -0.0154274, 0.0154274, -0.706938, -0.706938 ]
    },
    {
      "name" : "c_back2",
      "children" : [ 4 ],
      "translation" : [ 0.0879543, 7.45932e-18, 7.10543e-17 ],
      "rotation" : [ -5.00145e-34, 0.0216408, 2.31057e-32, -0.999766 ]
    },
    {
      "name" : "c_back3",
      "children" : [ 5 ],
      "translation" : [ 0.0879543, 9.10472e-18, 7.10543e-17 ],
      "rotation" : [ 1.31057e-32, 0.0516772, -1.47499e-32, -0.998664 ]
    },
    {
      "name" : "c_back4",
      "children" : [ 6, 22, 39 ],
      "translation" : [ 0.0879543, 7.80291e-18, 1.42109e-16 ],
      "rotation" : [ 8.24261e-34, 0.020576, -4.00509e-32, -0.999788 ]
    },
    {
      "name" : "c_neck1",
      "children" : [ 7 ],
      "translation" : [ 0.0879543, 5.9508e-18, -7.10543e-17 ],
      "rotation" : [ 4.91765e-33, -0.194011, -3.86666e-32, -0.980999 ]
    },
    {
      "name" : "c_neck2",
      "children" : [ 8 ],
      "translation" : [ 0.0507257, 2.23155e-18, -3.55271e-16 ],
      "rotation" : [ -1.98985e-32, -0.145717, 3.40782e-32, -0.989326 ]
    },
    {
      "name" : "c_neck3",
      "children" : [ 9 ],
      "translation" : [ 0.0484209, -2.60347e-18, -0 ],
      "rotation" : [ 1.17298e-32, -0.0888253, -7.23347e-33, -0.996047 ]
    },
    {
      "name" : "c_head",
      "children" : [ 10, 16, 17, 18, 19, 20, 21 ],
      "translation" : [ 0.0505649, -2.53542e-17, -1.42109e-16 ],
      "rotation" : [ 2.9646e-32, 0.33184, -9.9875e-33, -0.943336 ]
    },
    {
      "name" : "c_jaw",
      "children" : [ 11 ],
      "translation" : [ 0.00664636, -1.27033e-18, 0.0130991 ],
      "rotation" : [ 7.07243e-33, 0.119721, 4.43062e-32, -0.992807 ]
    },
    {
      "name" : "c_tongue1",
      "children" : [ 12 ],
      "translation" : [ 0.0515424, 1.73493e-17, 0.0356067 ],
      "rotation" : [ -1.37604e-32, -0.397896, -7.49661e-34, -0.917431 ]
    },
    {
      "name" : "c_tongue2",
      "children" : [ 13 ],
      "translation" : [ 0.0235628, 2.03028e-18, 7.10543e-17 ],
      "rotation" : [ -2.82121e-32, 0.30978, 7.01284e-33, -0.950808 ]
    },
    {
      "name" : "c_tongue3",
      "children" : [ 14 ],
      "translation" : [ 0.0214988, 3.04796e-18, 2.13163e-16 ],
      "rotation" : [ -2.55885e-34, 0.0237255, 1.07822e-32, -0.999718 ]
    },
    {
      "name" : "c_tongue4",
      "children" : [ 15 ],
      "translation" : [ 0.0196604, 2.86596e-18, 2.84217e-16 ],
      "rotation" : [ 3.1392e-34, 0.0339576, -9.23913e-33, -0.999423 ]
    },
    {
      "name" : "c_tongue5",
      "translation" : [ 0.0113629, 1.99165e-18, 7.10543e-17 ],
      "rotation" : [ -1.2326e-32, -0, -6.16298e-33, -1 ]
    },
    {
      "name" : "l_eye",
      "translation" : [ 0.050495, -0.0195282, -0.0185882 ],
      "rotation" : [ -0.0469075, -0.0789934, 0.508421, -0.856194 ]
    },
    {
      "name" : "r_eye",
      "translation" : [ 0.050495, 0.0195282, -0.0185882 ],
      "rotation" : [ 0.508421, -0.856194, 0.0469075, 0.0789934 ]
    },
    {
      "name" : "r_upperEye",
      "translation" : [ 0.0547478, 0.0246408, -0.0260912 ],
      "rotation" : [ -0.70691, 0.70691, 0.0166607, -0.0166607 ]
    },
    {
      "name" : "r_lowerEye",
      "translation" : [ 0.0537629, 0.0276859, -0.0137763 ],
      "rotation" : [ -0.70691, 0.70691, 0.0166607, -0.0166607 ]
    },
    {
      "name" : "l_upperEye",
      "translation" : [ 0.0547478, -0.0246408, -0.0260912 ],
      "rotation" : [ 0.0166607, -0.0166607, 0.70691, -0.70691 ]
    },
    {
      "name" : "l_lowerEye",
      "translation" : [ 0.0537629, -0.0276859, -0.0137763 ],
      "rotation" : [ 0.0166607, -0.0166607, 0.70691, -0.70691 ]
    },
    {
      "name" : "l_scapula",
      "children" : [ 23 ],
      "translation" : [ 0.018703, -0.034505, -0.0252862 ],
      "rotation" : [ -0.830599, 0.0851147, -0.542864, 0.0903258 ]
    },
    {
      "name" : "l_shoulder",
      "children" : [ 24, 38 ],
      "translation" : [ 0.0843045, -3.55271e-17, -1.06581e-16 ],
      "rotation" : [ -0.207118, -0.294089, 0.000627692, -0.933067 ]
    },
    {
      "name" : "l_elbow",
      "children" : [ 25 ],
      "translation" : [ 0.0961249, -1.24228e-09, -1.0549e-09 ],
      "rotation" : [ 5.91183e-18, 0.425992, -1.25556e-17, -0.904727 ]
    },
    {
      "name" : "l_wrist",
      "children" : [ 26, 29, 32, 35, 37 ],
      "translation" : [ 0.0808244, -1.91981e-09, 2.23575e-10 ],
      "rotation" : [ -0.232739, -5.72167e-17, -5.77064e-19, -0.972539 ]
    },
    {
      "name" : "l_fingerC1",
      "children" : [ 27 ],
      "translation" : [ 0.0245566, -0.000788711, -0.00063094 ],
      "rotation" : [ -0.662084, -0.0368567, 0.0733178, -0.744923 ]
    },
    {
      "name" : "l_fingerC2",
      "children" : [ 28 ],
      "translation" : [ 0.0181838, -1.95399e-16, -3.55271e-17 ],
      "rotation" : [ -3.46945e-18, -1.38778e-17, -2.08167e-17, -1 ]
    },
    {
      "name" : "l_fingerC3",
      "translation" : [ 0.0139503, 1.77636e-17, 3.55271e-17 ],
      "rotation" : [ -3.46945e-18, -1.38778e-17, -2.08167e-17, -1 ]
    },
    {
      "name" : "l_fingerB1",
      "children" : [ 30 ],
      "translation" : [ 0.0240883, -1.10451e-05, 0.00895648 ],
      "rotation" : [ -0.720826, 0.0711648, 0.0343391, -0.688597 ]
    },
    {
      "name" : "l_fingerB2",
      "children" : [ 31 ],
      "translation" : [ 0.0204695, 0, 1.06581e-16 ],
      "rotation" : [ 6.93889e-18, 1.38778e-17, 9.62965e-35, -1 ]
    },
    {
      "name" : "l_fingerB3",
      "translation" : [ 0.0131158, -1.24345e-16, 1.06581e-16 ],
      "rotation" : [ 6.93889e-18, 1.38778e-17, 9.62965e-35, -1 ]
    },
    {
      "name" : "l_fingerA1",
      "children" : [ 33 ],
      "translation" : [ 0.0173218, -0.00266153, 0.0156053 ],
      "rotation" : [ -0.680562, 0.247144, -0.15859, -0.67127 ]
    },
    {
      "name" : "l_fingerA2",
      "children" : [ 34 ],
      "translation" : [ 0.0125625, 1.06581e-16, -7.10543e-17 ],
      "rotation" : [ -2.77556e-17, 1.38778e-17, -3.85186e-34, -1 ]
    },
    {
      "name" : "l_fingerA3",
      "translation" : [ 0.012299, -3.55271e-16, 2.13163e-16 ],
      "rotation" : [ -2.77556e-17, 1.38778e-17, -3.85186e-34, -1 ]
    },
    {
      "name" : "l_fingerD1",
      "children" : [ 36 ],
      "translation" : [ 0.0205496, -0.00203527, -0.00745294 ],
      "rotation" : [ -0.56665, -0.129132, 0.249345, -0.774635 ]
    },
    {
      "name" : "l_fingerD2",
      "translation" : [ 0.0112184, -1.77636e-16, -3.55271e-17 ],
      "rotation" : [ 3.81639e-17, -1.38778e-17, -5.29631e-34, -1 ]
    },
    {
      "name" : "l_fingerE1",
      "translation" : [ 0.0136921, -0.00454815, -0.0116273 ],
      "rotation" : [ -0.472531, -0.161344, 0.292413, -0.815584 ]
    },
    {
      "name" : "l_armTiwst",
      "translation" : [ 0.039352, 3.55271e-17, 1.42109e-16 ],
      "rotation" : [ -6.93889e-18, -9.62965e-35, -1.38778e-17, -1 ]
    },
    {
      "name" : "r_scapula",
      "children" : [ 40 ],
      "translation" : [ 0.0187027, 0.034505, -0.0252861 ],
      "rotation" : [ -0.542864, 0.0903258, 0.830599, -0.0851147 ]
    },
    {
      "name" : "r_shoulder",
      "children" : [ 41, 55 ],
      "translation" : [ -0.0843049, 8.31214e-08, -3.38963e-07 ],
      "rotation" : [ -0.207267, -0.294151, 0.000896054, -0.933014 ]
    },
    {
      "name" : "r_elbow",
      "children" : [ 42 ],
      "translation" : [ -0.0961249, 1.41752e-07, 5.94721e-07 ],
      "rotation" : [ -9.79308e-09, 0.425992, -1.12312e-08, -0.904727 ]
    },
    {
      "name" : "r_wrist",
      "children" : [ 43, 46, 49, 52, 54 ],
      "translation" : [ -0.0808247, -4.41242e-07, -2.47002e-07 ],
      "rotation" : [ -0.232739, 3.22991e-18, 1.34967e-17, -0.972539 ]
    },
    {
      "name" : "r_fingerC1",
      "children" : [ 44 ],
      "translation" : [ -0.0245564, 0.000788861, 0.000630663 ],
      "rotation" : [ -0.662084, -0.0368567, 0.0733178, -0.744923 ]
    },
    {
      "name" : "r_fingerC2",
      "children" : [ 45 ],
      "translation" : [ -0.018184, 1.43298e-07, -2.63188e-07 ],
      "rotation" : [ -1.87191e-08, 1.20268e-16, -6.17843e-09, -1 ]
    },
    {
      "name" : "r_fingerC3",
      "translation" : [ -0.0139501, 8.74399e-08, 1.82959e-08 ],
      "rotation" : [ -2.78775e-08, 2.77556e-17, -1.38778e-17, -1 ]
    },
    {
      "name" : "r_fingerB1",
      "children" : [ 47 ],
      "translation" : [ -0.0240881, 1.1195e-05, -0.00895676 ],
      "rotation" : [ -0.720826, 0.0711648, 0.0343391, -0.688597 ]
    },
    {
      "name" : "r_fingerB2",
      "children" : [ 48 ],
      "translation" : [ -0.0204685, -1.03402e-08, 5.39939e-08 ],
      "rotation" : [ -1.41503e-08, 5.88117e-17, -4.67046e-09, -1 ]
    },
    {
      "name" : "r_fingerB3",
      "translation" : [ -0.0131159, 5.30459e-07, -1.14804e-07 ],
      "rotation" : [ -2.35608e-08, -2.77556e-17, 2.77556e-17, -1 ]
    },
    {
      "name" : "r_fingerA1",
      "children" : [ 50 ],
      "translation" : [ -0.0173216, 0.00266168, -0.0156056 ],
      "rotation" : [ -0.680562, 0.247144, -0.15859, -0.67127 ]
    },
    {
      "name" : "r_fingerA2",
      "children" : [ 51 ],
      "translation" : [ -0.0125625, 3.29201e-07, -1.63645e-07 ],
      "rotation" : [ -1.41503e-08, 3.10561e-17, -4.67046e-09, -1 ]
    },
    {
      "name" : "r_fingerA3",
      "translation" : [ -0.0122987, -3.50913e-07, 1.23416e-07 ],
      "rotation" : [ -2.35608e-08, -2.77556e-17, 6.53944e-25, -1 ]
    },
    {
      "name" : "r_fingerD1",
      "children" : [ 53 ],
      "translation" : [ -0.0205494, 0.00203542, 0.00745266 ],
      "rotation" : [ -0.56665, -0.129132, 0.249345, -0.774635 ]
    },
    {
      "name" : "r_fingerD2",
      "translation" : [ -0.0112158, 1.43298e-07, -2.63188e-07 ],
      "rotation" : [ -1.94625e-08, 0.158727, -3.12888e-09, -0.987322 ]
    },
    {
      "name" : "r_fingerE1",
      "translation" : [ -0.0136918, 0.00454831, 0.0116271 ],
      "rotation" : [ -0.47253, -0.161344, 0.292413, -0.815584 ]
    },
    {
      "name" : "r_armTiwst",
      "translation" : [ -0.0393517, -2.53706e-08, -9.387e-09 ],
      "rotation" : [ -1.49012e-08, -0, 0, -1 ]
    },
    {
      "name" : "c_tail1",
      "children" : [ 57 ],
      "translation" : [ -0.0887867, -3.06445e-17, 0.00862479 ],
      "rotation" : [ 0.0432626, 6.15444e-17, 0.999064, 5.88105e-18 ]
    },
    {
      "name" : "c_tail2",
      "children" : [ 58 ],
      "translation" : [ 0.232336, -2.69057e-17, 7.10543e-17 ],
      "rotation" : [ 2.96902e-33, 0.00391825, 2.87082e-32, -0.999992 ]
    },
    {
      "name" : "c_tail3",
      "children" : [ 59 ],
      "translation" : [ 0.225314, -1.48875e-17, -2.13163e-16 ],
      "rotation" : [ -3.5445e-33, -0.0130023, -3.55866e-32, -0.999915 ]
    },
    {
      "name" : "c_tail4",
      "children" : [ 60 ],
      "translation" : [ 0.177744, 1.13581e-17, -2.84217e-16 ],
      "rotation" : [ 3.03645e-33, 0.00315904, 1.42615e-32, -0.999995 ]
    },
    {
      "name" : "c_tail5",
      "children" : [ 61 ],
      "translation" : [ 0.159654, 8.21589e-18, -2.13163e-16 ],
      "rotation" : [ -1.58254e-35, 0.000767945, 2.06074e-32, -1 ]
    },
    {
      "name" : "c_tail6",
      "translation" : [ 0.134194, -2.77716e-18, -0 ],
      "rotation" : [ -3.31511e-33, -0.0125835, -1.8545e-32, -0.999921 ]
    },
    {
      "name" : "l_leg",
      "children" : [ 63, 74 ],
      "translation" : [ 0.00545278, -0.0402, -0.0069649 ],
      "rotation" : [ 0.0102868, 0.530839, 0.10308, -0.841117 ]
    },
    {
      "name" : "l_knee",
      "children" : [ 64 ],
      "translation" : [ 0.161601, -5.32907e-17, 5.32907e-17 ],
      "rotation" : [ -0.90101, 1.40584e-17, -0.433798, -6.11911e-17 ]
    },
    {
      "name" : "l_ankle",
      "children" : [ 65, 68, 71 ],
      "translation" : [ 0.116768, 3.55271e-17, -1.06581e-16 ],
      "rotation" : [ -0.906324, 0.0512125, -0.41855, -0.0277397 ]
    },
    {
      "name" : "l_toeB1",
      "children" : [ 66 ],
      "translation" : [ 0.0982447, 8.88178e-18, 9.32587e-17 ],
      "rotation" : [ -0.0273868, -0.425973, -0.0442755, -0.903237 ]
    },
    {
      "name" : "l_toeB2",
      "children" : [ 67 ],
      "translation" : [ 0.0257019, 8.88178e-18, 1.33227e-17 ],
      "rotation" : [ 4.211e-05, -0.148546, -0.00165853, -0.988904 ]
    },
    {
      "name" : "l_toeB3",
      "translation" : [ 0.0224151, 1.77636e-17, -1.33227e-17 ],
      "rotation" : [ 1.72027e-18, -0.0234368, -6.36804e-19, -0.999725 ]
    },
    {
      "name" : "l_toeA1",
      "children" : [ 69 ],
      "translation" : [ 0.0982909, 0.0145175, 0.00388289 ],
      "rotation" : [ -0.115217, -0.428347, -0.101386, -0.890486 ]
    },
    {
      "name" : "l_toeA2",
      "children" : [ 70 ],
      "translation" : [ 0.0257019, 0, 7.77156e-17 ],
      "rotation" : [ 0.000369264, -0.165388, 0.00203078, -0.986226 ]
    },
    {
      "name" : "l_toeA3",
      "translation" : [ 0.0224151, 3.55271e-17, -1.9984e-17 ],
      "rotation" : [ 3.55489e-18, -0.0234368, 3.60396e-18, -0.999725 ]
    },
    {
      "name" : "l_toeC1",
      "children" : [ 72 ],
      "translation" : [ 0.100452, -0.0149754, 0.00127942 ],
      "rotation" : [ 0.0530153, -0.452852, 0.0163871, -0.889857 ]
    },
    {
      "name" : "l_toeC2",
      "children" : [ 73 ],
      "translation" : [ 0.0257019, 3.55271e-17, 8.43769e-17 ],
      "rotation" : [ 4.27763e-05, -0.132176, -0.00449449, -0.991216 ]
    },
    {
      "name" : "l_toeC3",
      "translation" : [ 0.0224151, -3.55271e-17, -1.11022e-17 ],
      "rotation" : [ 1.23494e-18, -0.0234368, 5.26777e-17, -0.999725 ]
    },
    {
      "name" : "l_legTwist",
      "translation" : [ 0.0808007, -3.55271e-17, 3.55271e-17 ],
      "rotation" : [ 1.38778e-17, 2.77556e-17, 6.93889e-18, -1 ]
    },
    {
      "name" : "r_leg",
      "children" : [ 76, 87 ],
      "translation" : [ 0.00545277, 0.0402, -0.00696471 ],
      "rotation" : [ 0.10308, -0.841118, -0.0102866, -0.530839 ]
    },
    {
      "name" : "r_knee",
      "children" : [ 77 ],
      "translation" : [ -0.161601, 2.93022e-08, -1.05935e-08 ],
      "rotation" : [ -0.901009, -2.65626e-17, -0.4338, 5.51709e-17 ]
    },
    {
      "name" : "r_ankle",
      "children" : [ 78, 81, 84 ],
      "translation" : [ -0.116768, 2.23335e-08, 1.36407e-07 ],
      "rotation" : [ -0.906324, 0.0512126, -0.418551, -0.0277396 ]
    },
    {
      "name" : "r_toeB1",
      "children" : [ 79 ],
      "translation" : [ -0.0982448, 5.35482e-09, 3.27358e-09 ],
      "rotation" : [ -0.0311212, -0.425805, -0.0502918, -0.90288 ]
    },
    {
      "name" : "r_toeB2",
      "children" : [ 80 ],
      "translation" : [ -0.0257018, 7.52691e-08, 6.95235e-09 ],
      "rotation" : [ 4.83184e-05, -0.148551, -0.0018908, -0.988903 ]
    },
    {
      "name" : "r_toeB3",
      "translation" : [ -0.022415, -3.98777e-07, -1.12725e-08 ],
      "rotation" : [ 1.77744e-18, -0.0234368, 1.80198e-18, -0.999725 ]
    },
    {
      "name" : "r_toeA1",
      "children" : [ 82 ],
      "translation" : [ -0.0981919, -0.015343, -0.00416485 ],
      "rotation" : [ -0.113694, -0.448228, -0.112756, -0.879461 ]
    },
    {
      "name" : "r_toeA2",
      "children" : [ 83 ],
      "translation" : [ -0.0257019, 8.3371e-09, 1.67238e-08 ],
      "rotation" : [ -2.37053e-05, -0.102189, 0.00131275, -0.994764 ]
    },
    {
      "name" : "r_toeA3",
      "translation" : [ -0.0224151, -4.71262e-08, -2.47381e-08 ],
      "rotation" : [ 2.67998e-20, -0.0234368, 1.14318e-18, -0.999725 ]
    },
    {
      "name" : "r_toeC1",
      "children" : [ 85 ],
      "translation" : [ -0.100014, 0.0145563, -0.00156116 ],
      "rotation" : [ 0.0264868, -0.451985, 0.0352062, -0.890937 ]
    },
    {
      "name" : "r_toeC2",
      "children" : [ 86 ],
      "translation" : [ -0.0257019, -8.1296e-09, 2.50588e-08 ],
      "rotation" : [ 0.000521544, -0.129005, -0.00424718, -0.991635 ]
    },
    {
      "name" : "r_toeC3",
      "translation" : [ -0.0224151, 6.52065e-09, 3.86069e-09 ],
      "rotation" : [ 2.76972e-19, -0.0234368, -2.5194e-17, -0.999725 ]
    },
    {
      "name" : "r_legTwist",
      "translation" : [ -0.0808007, 6.59467e-09, 2.42391e-08 ],
      "rotation" : [ 1.04083e-17, 2.77556e-17, 2.88889e-34, -1 ]
    }
  ],
  "skins" : [
    {
      "inverseBindMatrices" : 0,
      "skeleton" : 1,
      "joints" : [
        1,2,3,4,5,6,7,8,9,10,11,12,13,14,15,16,17,18,19,20,21,22,23,24,25,26,27,28,29,30,31,32,
        33,34,35,36,37,38,39,40,41,42,43,44,45,46,47,48,49,50,51,52,53,54,55,56,57,58,59,60,61,62,63,64,
        65,66,67,68,69,70,71,72,73,74,75,76,77,78,79,80,81,82,83,84,85,86,87
      ]
    }
  ],
  "materials" : [
    {
      "name" : "dummy_material_0",
      "pbrMetallicRoughness" : {
        "baseColorFactor" : [ 0.3, 0.3, 0.3, 1.0 ],
        "metallicFactor" : 0.1,
        "roughnessFactor" : 0.5
      }
    },
    {
      "name" : "dummy_material_1",
      "pbrMetallicRoughness" : {
        "baseColorFactor" : [ 0.9, 0.3, 0.3, 1.0 ],
        "metallicFactor" : 0.1,
        "roughnessFactor" : 0.5
      }
    }
  ],
  "meshes" : [
    {
      "primitives" : [
        {
          "attributes" : {
            "POSITION" : 2,
            "NORMAL" : 3,
            "TANGENT" : 4,
            "COLOR_0" : 5,
            "JOINTS_0" : 6,
            "WEIGHTS_0" : 7,
            "TEXCOORD_0" : 8,
            "TEXCOORD_1" : 9,
            "TEXCOORD_2" : 10
          },
          "indices" : 1,
          "material" : 0
        },
        {
          "attributes" : {
            "POSITION" : 12,
            "NORMAL" : 13,
            "TANGENT" : 14,
            "COLOR_0" : 15,
            "JOINTS_0" : 16,
            "WEIGHTS_0" : 17,
            "TEXCOORD_0" : 18,
            "TEXCOORD_1" : 19,
            "TEXCOORD_2" : 20
          },
          "indices" : 11,
          "material" : 1
        }
      ],
      "name" : "Pegomastax"
    }
  ],
  "buffers" : [
    {
      "uri" : "Pegomastax.bin",
      "byteLength" : 2099400
    }
  ],
  "bufferViews" : [
    {
      "buffer" : 0,
      "byteOffset" : 0,
      "byteLength" : 5568
    },
    {
      "buffer" : 0,
      "byteOffset" : 5568,
      "byteLength" : 56796
    },
    {
      "buffer" : 0,
      "byteOffset" : 62364,
      "byteLength" : 185976
    },
    {
      "buffer" : 0,
      "byteOffset" : 248340,
      "byteLength" : 185976
    },
    {
      "buffer" : 0,
      "byteOffset" : 434316,
      "byteLength" : 247968
    },
    {
      "buffer" : 0,
      "byteOffset" : 682284,
      "byteLength" : 61992
    },
    {
      "buffer" : 0,
      "byteOffset" : 744276,
      "byteLength" : 123984
    },
    {
      "buffer" : 0,
      "byteOffset" : 868260,
      "byteLength" : 61992
    },
    {
      "buffer" : 0,
      "byteOffset" : 930252,
      "byteLength" : 123984
    },
    {
      "buffer" : 0,
      "byteOffset" : 1054236,
      "byteLength" : 123984
    },
    {
      "buffer" : 0,
      "byteOffset" : 1178220,
      "byteLength" : 123984
    },
    {
      "buffer" : 0,
      "byteOffset" : 1302204,
      "byteLength" : 86556
    },
    {
      "buffer" : 0,
      "byteOffset" : 1388760,
      "byteLength" : 106596
    },
    {
      "buffer" : 0,
      "byteOffset" : 1495356,
      "byteLength" : 106596
    },
    {
      "buffer" : 0,
      "byteOffset" : 1601952,
      "byteLength" : 142128
    },
    {
      "buffer" : 0,
      "byteOffset" : 1744080,
      "byteLength" : 35532
    },
    {
      "buffer" : 0,
      "byteOffset" : 1779612,
      "byteLength" : 71064
    },
    {
      "buffer" : 0,
      "byteOffset" : 1850676,
      "byteLength" : 35532
    },
    {
      "buffer" : 0,
      "byteOffset" : 1886208,
      "byteLength" : 71064
    },
    {
      "buffer" : 0,
      "byteOffset" : 1957272,
      "byteLength" : 71064
    },
    {
      "buffer" : 0,
      "byteOffset" : 2028336,
      "byteLength" : 71064
    }
  ],
  "accessors" : [
    {
      "bufferView" : 0,
      "componentType" : 5126,
      "count" : 87,
      "type" : "MAT4"
    },
    {
      "bufferView" : 1,
      "componentType" : 5123,
      "count" : 28398,
      "type" : "SCALAR"
    },
    {
      "bufferView" : 2,
      "min" : [ -0.143948, 0.239135, -1.21546 ],
      "max" : [ 0.151033, 0.5797, 0.515309 ],
      "componentType" : 5126,
      "count" : 15498,
      "type" : "VEC3"
    },
    {
      "bufferView" : 3,
      "componentType" : 5126,
      "count" : 15498,
      "type" : "VEC3"
    },
    {
      "bufferView" : 4,
      "componentType" : 5126,
      "count" : 15498,
      "type" : "VEC4"
    },
    {
      "bufferView" : 5,
      "normalized" : true,
      "componentType" : 5121,
      "count" : 15498,
      "type" : "VEC4"
    },
    {
      "bufferView" : 6,
      "componentType" : 5123,
      "count" : 15498,
      "type" : "VEC4"
    },
    {
      "bufferView" : 7,
      "normalized" : true,
      "componentType" : 5121,
      "count" : 15498,
      "type" : "VEC4"
    },
    {
      "bufferView" : 8,
      "componentType" : 5126,
      "count" : 15498,
      "type" : "VEC2"
    },
    {
      "bufferView" : 9,
      "componentType" : 5126,
      "count" : 15498,
      "type" : "VEC2"
    },
    {
      "bufferView" : 10,
      "componentType" : 5126,
      "count" : 15498,
      "type" : "VEC2"
    },
    {
      "bufferView" : 11,
      "componentType" : 5123,
      "count" : 43278,
      "type" : "SCALAR"
    },
    {
      "bufferView" : 12,
      "min" : [ -0.111156, -0.00240019, -1.18415 ],
      "max" : [ 0.111156, 0.452904, 0.561636 ],
      "componentType" : 5126,
      "count" : 8883,
      "type" : "VEC3"
    },
    {
      "bufferView" : 13,
      "componentType" : 5126,
      "count" : 8883,
      "type" : "VEC3"
    },
    {
      "bufferView" : 14,
      "componentType" : 5126,
      "count" : 8883,
      "type" : "VEC4"
    },
    {
      "bufferView" : 15,
      "normalized" : true,
      "componentType" : 5121,
      "count" : 8883,
      "type" : "VEC4"
    },
    {
      "bufferView" : 16,
      "componentType" : 5123,
      "count" : 8883,
      "type" : "VEC4"
    },
    {
      "bufferView" : 17,
      "normalized" : true,
      "componentType" : 5121,
      "count" : 8883,
      "type" : "VEC4"
    },
    {
      "bufferView" : 18,
      "componentType" : 5126,
      "count" : 8883,
      "type" : "VEC2"
    },
    {
      "bufferView" : 19,
      "componentType" : 5126,
      "count" : 8883,
      "type" : "VEC2"
    },
    {
      "bufferView" : 20,
      "componentType" : 5126,
      "count" : 8883,
      "type" : "VEC2"
    }
  ]
}
