{
  "asset" : {
    "generator" : "UE Viewer (umodel) build 1612-floxay",
    "version" : "2.0"
  },
  "scene" : 0,
  "scenes" : [
    {
      "nodes" : [ 0 ]
    }
  ],
  "nodes" : [
    {
      "name" : "Deinosuchus_TLC_Rig",
      "mesh" : 0,
      "skin" : 0,
      "children" : [ 1 ]
    },
    {
      "name" : "ROOT",
      "children" : [ 2 ],
      "translation" : [ 0, 0, -0 ],
      "rotation" : [ -0.707107, -0, 0, -0.707107 ]
    },
    {
      "name" : "Back4",
      "children" : [ 3, 41, 48, 57 ],
      "translation" : [ -1.53481e-28, -4.11225, -2.93051 ],
      "rotation" : [ 0.00356463, -0.00356463, -0.707098, -0.707098 ]
    },
    {
      "name" : "Back3",
      "children" : [ 4, 38 ],
      "translation" : [ 1.48063, -3.57489e-13, -0.124012 ],
      "rotation" : [ -5.96513e-18, 0.0124976, -2.07484e-16, -0.999922 ]
    },
    {
      "name" : "Back2",
      "children" : [ 5 ],
      "translation" : [ 3.7295, 2.07525e-15, -0.122986 ],
      "rotation" : [ 2.81628e-18, 0.00897501, 3.06579e-16, -0.99996 ]
    },
    {
      "name" : "Back1",
      "children" : [ 6, 24, 31 ],
      "translation" : [ 2.52654, 2.67369e-15, 0.00447839 ],
      "rotation" : [ -1.08386e-18, -0.00677441, -5.57157e-17, -0.999977 ]
    },
    {
      "name" : "Neck2",
      "children" : [ 7 ],
      "translation" : [ 1.55785, -7.60683e-15, 0.151128 ],
      "rotation" : [ -1.19696e-16, 0.0599521, -1.70816e-16, -0.998201 ]
    },
    {
      "name" : "Neck1",
      "children" : [ 8, 21 ],
      "translation" : [ 1.0818, -1.53598e-15, -0.0414251 ],
      "rotation" : [ 0.0183901, -0.0183901, 0.706868, -0.706868 ]
    },
    {
      "name" : "Head",
      "children" : [ 9, 12, 17, 20 ],
      "translation" : [ -2.75443e-13, 0.864553, 0.01652 ],
      "rotation" : [ -0.0751128, -8.45886e-31, -7.27379e-31, -0.997175 ]
    },
    {
      "name" : "Eye_L",
      "children" : [ 10, 11 ],
      "translation" : [ 0.675446, 2.37305, -1.03887 ],
      "rotation" : [ 0.0347637, -0, -0, -0.999396 ]
    },
    {
      "name" : "EyeLid_Top_L",
      "translation" : [ 0.057502, 0.0326165, -0.0989982 ],
      "rotation" : [ -0.037208, 7.73639e-31, -4.23509e-31, -0.999308 ]
    },
    {
      "name" : "EyeLid_Bottom_L",
      "translation" : [ 0.104476, 0.013125, 0.0860014 ],
      "rotation" : [ -0.0279468, 7.7753e-31, -4.16322e-31, -0.999609 ]
    },
    {
      "name" : "Jaw",
      "children" : [ 13, 15 ],
      "translation" : [ -5.06186e-15, -0.626412, 0.576267 ],
      "rotation" : [ -0.0161491, -0, 0, -0.99987 ]
    },
    {
      "name" : "dewlap2",
      "children" : [ 14 ],
      "translation" : [ -5.19696e-14, 2.82336, 1.37848 ],
      "rotation" : [ -0.152325, 6.89533e-31, -7.04904e-31, -0.98833 ]
    },
    {
      "name" : "dewlap2_end",
      "translation" : [ 4.21921e-14, 0.14331, 0.956562 ],
      "rotation" : [ 0.270699, -3.90376e-15, 5.71334e-15, -0.962664 ]
    },
    {
      "name" : "dewlap1",
      "children" : [ 16 ],
      "translation" : [ -7.09497e-14, 4.61398, 1.44579 ],
      "rotation" : [ 0.12081, 8.5456e-31, -4.9201e-31, -0.992675 ]
    },
    {
      "name" : "delap1_end",
      "translation" : [ 6.31306e-14, -0.112543, 0.854709 ],
      "rotation" : [ 9.32372e-05, -5.30419e-15, 4.44378e-15, -1 ]
    },
    {
      "name" : "Eye_R",
      "children" : [ 18, 19 ],
      "translation" : [ -0.675446, 2.37305, -1.03887 ],
      "rotation" : [ -0.999396, -0, 0, -0.0347637 ]
    },
    {
      "name" : "EyeLid_Top_R",
      "translation" : [ -0.057502, -0.0326176, 0.0990023 ],
      "rotation" : [ -0.037208, -8.10937e-16, -6.78923e-16, -0.999308 ]
    },
    {
      "name" : "EyeLid_Bottom_R",
      "translation" : [ -0.104476, -0.0131301, -0.0859957 ],
      "rotation" : [ -0.0279468, -6.09091e-16, -5.09935e-16, -0.999609 ]
    },
    {
      "name" : "Grab_Swallow_Joint",
      "translation" : [ -1.90242e-14, 5.1032, 0.782466 ],
      "rotation" : [ -0.0276253, -0, 0, -0.999618 ]
    },
    {
      "name" : "throat_Jiggle",
      "children" : [ 22 ],
      "translation" : [ -2.23488e-14, -0.24063, 0.398882 ],
      "rotation" : [ 0.0637614, -7.36957e-31, -8.37555e-31, -0.997965 ]
    },
    {
      "name" : "throat_Jiggle_1",
      "children" : [ 23 ],
      "translation" : [ -9.40429e-16, -0.0261625, 0.998362 ],
      "rotation" : [ -0.0151557, -5.37134e-15, 4.36238e-15, -0.999885 ]
    },
    {
      "name" : "joint1",
      "translation" : [ -3.15292e-13, 0.389211, 1.14489 ],
      "rotation" : [ 0.120502, -5.79283e-15, 3.72633e-15, -0.992713 ]
    },
    {
      "name" : "L_Shoulder",
      "children" : [ 25 ],
      "translation" : [ 0.225536, -1.3593, 1.34407 ],
      "rotation" : [ 0.551672, -0.241902, 0.778994, -0.174095 ]
    },
    {
      "name" : "L_Elbow",
      "children" : [ 26 ],
      "translation" : [ 2.51936, 0.122882, 0.132255 ],
      "rotation" : [ -0.861451, 0.290791, -0.226688, -0.349221 ]
    },
    {
      "name" : "L_Wrist",
      "children" : [ 27, 28, 29, 30 ],
      "translation" : [ 2.42487, -1.53877e-15, -0 ],
      "rotation" : [ 0.290945, -0.511882, 0.447419, -0.67316 ]
    },
    {
      "name" : "L_Fingy1",
      "translation" : [ -0.64785, -0.0355811, 0.758241 ],
      "rotation" : [ 0.230379, 0.183621, -0.761259, -0.577662 ]
    },
    {
      "name" : "L_Fingy2",
      "translation" : [ -0.352823, 0.261273, 1.06943 ],
      "rotation" : [ 0.101638, 0.0613492, -0.219839, -0.968285 ]
    },
    {
      "name" : "L_Fingy3",
      "translation" : [ 0.117381, 0.356819, 1.20747 ],
      "rotation" : [ 0.0869961, 0.0321535, 0.0180746, -0.995525 ]
    },
    {
      "name" : "L_Fingy4",
      "translation" : [ 0.47069, 0.321092, 1.12229 ],
      "rotation" : [ 0.0716431, -0.0584666, 0.114121, -0.989154 ]
    },
    {
      "name" : "R_Shoulder",
      "children" : [ 32 ],
      "translation" : [ 0.225535, 1.3593, 1.34406 ],
      "rotation" : [ -0.778994, 0.174095, 0.551672, -0.241902 ]
    },
    {
      "name" : "R_Elbow",
      "children" : [ 33 ],
      "translation" : [ -2.51936, -0.122875, -0.132262 ],
      "rotation" : [ -0.861451, 0.290791, -0.226688, -0.349221 ]
    },
    {
      "name" : "R_Wrist",
      "children" : [ 34, 35, 36, 37 ],
      "translation" : [ -2.42486, 1.04759e-05, -1.72414e-06 ],
      "rotation" : [ 0.352745, -0.461637, 0.526434, -0.620749 ]
    },
    {
      "name" : "R_Fingy1",
      "translation" : [ 0.647855, 0.0355831, -0.758241 ],
      "rotation" : [ 0.119435, 0.228869, -0.753037, -0.605219 ]
    },
    {
      "name" : "R_Fingy2",
      "translation" : [ 0.352822, -0.261272, -1.06943 ],
      "rotation" : [ -0.0159795, 0.0252528, -0.2228, -0.974406 ]
    },
    {
      "name" : "R_Fingy3",
      "translation" : [ -0.11738, -0.356821, -1.20747 ],
      "rotation" : [ -0.0186321, -0.0307826, 0.0109639, -0.999292 ]
    },
    {
      "name" : "R_Fingy4",
      "translation" : [ -0.470682, -0.32109, -1.12228 ],
      "rotation" : [ -0.026826, -0.130619, 0.0976167, -0.98625 ]
    },
    {
      "name" : "Tummy_Jiggle",
      "children" : [ 39 ],
      "translation" : [ 1.9643, -4.46013e-14, 0.196013 ],
      "rotation" : [ 0.00308771, -0.00308771, 0.7071, -0.7071 ]
    },
    {
      "name" : "Tummy_Jiggle1",
      "children" : [ 40 ],
      "translation" : [ 7.67033e-15, -0.156946, 1.29272 ],
      "rotation" : [ -4.03323e-17, -4.63562e-15, 4.44071e-15, -1 ]
    },
    {
      "name" : "Tummy_Jiggle_end",
      "translation" : [ -3.88433e-13, -0.103512, 1.3819 ],
      "rotation" : [ -0.0294682, -4.50469e-15, 4.54832e-15, -0.999566 ]
    },
    {
      "name" : "L_Hip",
      "children" : [ 42 ],
      "translation" : [ -0.604937, -1.5261, -0.098228 ],
      "rotation" : [ -0.145084, 0.641352, 0.16047, -0.736116 ]
    },
    {
      "name" : "L_Knee",
      "children" : [ 43 ],
      "translation" : [ 2.71607, -0.143654, 0.0573958 ],
      "rotation" : [ -0.98462, -0.0135905, -0.169871, -0.038509 ]
    },
    {
      "name" : "L_Ankle",
      "children" : [ 44, 45, 46, 47 ],
      "translation" : [ 2.49121, 1.70535e-15, 1.15758e-15 ],
      "rotation" : [ -0.401596, -0.445124, -0.541431, -0.589439 ]
    },
    {
      "name" : "L_Toe1",
      "translation" : [ -0.673725, 0.569834, 1.47999 ],
      "rotation" : [ 0.0641543, 0.225519, 0.0207306, -0.971903 ]
    },
    {
      "name" : "L_Toe2",
      "translation" : [ -0.259499, 0.523837, 1.64849 ],
      "rotation" : [ 0.125034, 0.130306, 0.151077, -0.971886 ]
    },
    {
      "name" : "L_Toe3",
      "translation" : [ 0.0731847, 0.366659, 1.73178 ],
      "rotation" : [ 0.0618576, 0.040827, 0.316657, -0.94564 ]
    },
    {
      "name" : "L_Toe4",
      "translation" : [ 0.388973, 0.122722, 1.65545 ],
      "rotation" : [ 0.0498528, 0.00997937, 0.289211, -0.955914 ]
    },
    {
      "name" : "Tail1",
      "children" : [ 49 ],
      "translation" : [ -1.87621, -6.72011e-15, 0.641162 ],
      "rotation" : [ 0.065477, -1.12354e-16, 0.997854, -7.77069e-16 ]
    },
    {
      "name" : "Tail2",
      "children" : [ 50 ],
      "translation" : [ 2.26727, 1.43422e-15, 0.0455492 ],
      "rotation" : [ -1.80411e-16, -0.00111796, -3.22333e-16, -0.999999 ]
    },
    {
      "name" : "Tail3",
      "children" : [ 51 ],
      "translation" : [ 2.52459, 1.48242e-15, 0.0378103 ],
      "rotation" : [ -4.23273e-16, -0.0273671, -1.56013e-16, -0.999625 ]
    },
    {
      "name" : "Tail4",
      "children" : [ 52 ],
      "translation" : [ 3.14957, 2.03883e-15, 0.0243574 ],
      "rotation" : [ 2.04697e-16, -0.0083903, -2.92466e-16, -0.999965 ]
    },
    {
      "name" : "Tail5",
      "children" : [ 53 ],
      "translation" : [ 3.10192, 1.5096e-15, 0.010161 ],
      "rotation" : [ 9.36751e-17, -0.00685091, -3.4167e-16, -0.999977 ]
    },
    {
      "name" : "Tail6",
      "children" : [ 54 ],
      "translation" : [ 3.14226, 1.63777e-15, -0.000687277 ],
      "rotation" : [ -1.29584e-15, -0.00754048, -3.04028e-16, -0.999971 ]
    },
    {
      "name" : "Tail7",
      "children" : [ 55 ],
      "translation" : [ 3.06631, 1.02847e-15, 0.0251016 ],
      "rotation" : [ 2.77556e-17, -0.00958852, -2.28492e-16, -0.999954 ]
    },
    {
      "name" : "Tail8",
      "children" : [ 56 ],
      "translation" : [ 2.35602, 1.48264e-15, 0.0732059 ],
      "rotation" : [ -0.0068631, -0.0068631, -0.707073, -0.707073 ]
    },
    {
      "name" : "Tail_end",
      "translation" : [ 9.5674e-15, -2.40632, 0.324541 ],
      "rotation" : [ 0.0665704, -4.80462e-15, -4.09484e-15, -0.997782 ]
    },
    {
      "name" : "R_Hip",
      "children" : [ 58 ],
      "translation" : [ -0.604941, 1.5261, -0.0982243 ],
      "rotation" : [ 0.168335, -0.737314, 0.139036, -0.639297 ]
    },
    {
      "name" : "R_Knee",
      "children" : [ 59 ],
      "translation" : [ -2.71607, 0.127692, -0.0510159 ],
      "rotation" : [ -0.981058, -0.0148586, -0.188996, -0.0398081 ]
    },
    {
      "name" : "R_Ankle",
      "children" : [ 60, 61, 62, 63 ],
      "translation" : [ -2.52826, -3.72874e-06, -1.4986e-06 ],
      "rotation" : [ -0.406902, -0.440716, -0.546778, -0.584152 ]
    },
    {
      "name" : "R_Toe1",
      "translation" : [ 0.683743, -0.569826, -1.45351 ],
      "rotation" : [ 0.0641543, 0.225519, 0.0207306, -0.971903 ]
    },
    {
      "name" : "R_Toe2",
      "translation" : [ 0.263362, -0.523823, -1.619 ],
      "rotation" : [ 0.125034, 0.130306, 0.151077, -0.971886 ]
    },
    {
      "name" : "R_Toe3",
      "translation" : [ -0.0742691, -0.366652, -1.7008 ],
      "rotation" : [ 0.0618576, 0.040827, 0.316657, -0.94564 ]
    },
    {
      "name" : "R_Toe4",
      "translation" : [ -0.394756, -0.122717, -1.62584 ],
      "rotation" : [ 0.0498528, 0.00997937, 0.289211, -0.955914 ]
    }
  ],
  "skins" : [
    {
      "inverseBindMatrices" : 0,
      "skeleton" : 1,
      "joints" : [
        1,2,3,4,5,6,7,8,9,10,11,12,13,14,15,16,17,18,19,20,21,22,23,24,25,26,27,28,29,30,31,32,
        33,34,35,36,37,38,39,40,41,42,43,44,45,46,47,48,49,50,51,52,53,54,55,56,57,58,59,60,61,62,63
      ]
    }
  ],
  "materials" : [
    {
      "name" : "dummy_material_0",
      "pbrMetallicRoughness" : {
        "baseColorFactor" : [ 0.3, 0.3, 0.3, 1.0 ],
        "metallicFactor" : 0.1,
        "roughnessFactor" : 0.5
      }
    }
  ],
  "meshes" : [
    {
      "primitives" : [
        {
          "attributes" : {
            "POSITION" : 2,
            "NORMAL" : 3,
            "TANGENT" : 4,
            "JOINTS_0" : 5,
            "WEIGHTS_0" : 6,
            "TEXCOORD_0" : 7,
            "TEXCOORD_1" : 8
          },
          "indices" : 1,
          "material" : 0
        }
      ],
      "name" : "Deinosuchus_TLC_Rig"
    }
  ],
  "buffers" : [
    {
      "uri" : "Deinosuchus_TLC_Rig.bin",
      "byteLength" : 4378008
    }
  ],
  "bufferViews" : [
    {
      "buffer" : 0,
      "byteOffset" : 0,
      "byteLength" : 4032
    },
    {
      "buffer" : 0,
      "byteOffset" : 4032,
      "byteLength" : 603648
    },
    {
      "buffer" : 0,
      "byteOffset" : 607680,
      "byteLength" : 665352
    },
    {
      "buffer" : 0,
      "byteOffset" : 1273032,
      "byteLength" : 665352
    },
    {
      "buffer" : 0,
      "byteOffset" : 1938384,
      "byteLength" : 887136
    },
    {
      "buffer" : 0,
      "byteOffset" : 2825520,
      "byteLength" : 443568
    },
    {
      "buffer" : 0,
      "byteOffset" : 3269088,
      "byteLength" : 221784
    },
    {
      "buffer" : 0,
      "byteOffset" : 3490872,
      "byteLength" : 443568
    },
    {
      "buffer" : 0,
      "byteOffset" : 3934440,
      "byteLength" : 443568
    }
  ],
  "accessors" : [
    {
      "bufferView" : 0,
      "componentType" : 5126,
      "count" : 63,
      "type" : "MAT4"
    },
    {
      "bufferView" : 1,
      "componentType" : 5123,
      "count" : 301824,
      "type" : "SCALAR"
    },
    {
      "bufferView" : 2,
      "min" : [ -5.0076, -4.41188, -27.8833 ],
      "max" : [ 5.02145, 5.13386, 13.2185 ],
      "componentType" : 5126,
      "count" : 55446,
      "type" : "VEC3"
    },
    {
      "bufferView" : 3,
      "componentType" : 5126,
      "count" : 55446,
      "type" : "VEC3"
    },
    {
      "bufferView" : 4,
      "componentType" : 5126,
      "count" : 55446,
      "type" : "VEC4"
    },
    {
      "bufferView" : 5,
      "componentType" : 5123,
      "count" : 55446,
      "type" : "VEC4"
    },
    {
      "bufferView" : 6,
      "normalized" : true,
      "componentType" : 5121,
      "count" : 55446,
      "type" : "VEC4"
    },
    {
      "bufferView" : 7,
      "componentType" : 5126,
      "count" : 55446,
      "type" : "VEC2"
    },
    {
      "bufferView" : 8,
      "componentType" : 5126,
      "count" : 55446,
      "type" : "VEC2"
    }
  ]
}
