{
  "asset" : {
    "generator" : "UE Viewer (umodel) build 1612-floxay",
    "version" : "2.0"
  },
  "scene" : 0,
  "scenes" : [
    {
      "nodes" : [ 0 ]
    }
  ],
  "nodes" : [
    {
      "name" : "Argentavis",
      "mesh" : 0,
      "skin" : 0,
      "children" : [ 1 ]
    },
    {
      "name" : "root",
      "children" : [ 2 ],
      "translation" : [ 0, 0, -0 ],
      "rotation" : [ -0.707107, -0, 0, -0.707107 ]
    },
    {
      "name" : "c_Hip",
      "children" : [ 3, 24, 45, 114 ],
      "translation" : [ 0, -0.0764002, -0.475042 ],
      "rotation" : [ 0, -0, -0.707107, -0.707107 ]
    },
    {
      "name" : "l_Leg_Hip",
      "children" : [ 4 ],
      "translation" : [ -0.0500767, -0.0547129, 0.00118379 ],
      "rotation" : [ 0.61052, 0.21383, 0.365999, -0.669019 ]
    },
    {
      "name" : "l_Leg_Knee1",
      "children" : [ 5 ],
      "translation" : [ 0.181062, 3.95236e-12, 5.32907e-17 ],
      "rotation" : [ 2.94495e-17, -2.45225e-17, 0.639896, -0.768461 ]
    },
    {
      "name" : "l_Leg_Knee2",
      "children" : [ 6 ],
      "translation" : [ 0.158939, 3.46954e-12, 1.06581e-16 ],
      "rotation" : [ -0.0465653, 0.0720356, -0.54087, -0.836721 ]
    },
    {
      "name" : "l_Leg_Ball",
      "children" : [ 7 ],
      "translation" : [ 0.158278, -0.000923017, 0.000967927 ],
      "rotation" : [ -0.016213, 0.0385696, -0.516307, -0.855381 ]
    },
    {
      "name" : "l_Leg_Toe",
      "children" : [ 8, 12, 16, 20 ],
      "translation" : [ 0.0142701, -0.0224264, -0.00750457 ],
      "rotation" : [ -0, -4.78589e-22, 0, -1 ]
    },
    {
      "name" : "l_InnerToe_01_01",
      "children" : [ 9 ],
      "translation" : [ 0.00851366, -0.0253289, 0.025202 ],
      "rotation" : [ -0.690352, 0.153042, -0.153046, -0.69034 ]
    },
    {
      "name" : "l_InnerToe_01_02",
      "children" : [ 10 ],
      "translation" : [ 0.025868, 0.00274056, 0.0112842 ],
      "rotation" : [ -0, -0, 6.58097e-22, -1 ]
    },
    {
      "name" : "l_InnerToe_01_03",
      "children" : [ 11 ],
      "translation" : [ 0.0236666, 1.5409e-13, 0.0021109 ],
      "rotation" : [ -0, -0, 6.58097e-22, -1 ]
    },
    {
      "name" : "l_InnerToe_01_04",
      "translation" : [ 0.0213778, -1.94067e-14, -0.00209694 ],
      "rotation" : [ -0, -0, 6.58097e-22, -1 ]
    },
    {
      "name" : "l_InnerToe_02_01",
      "children" : [ 13 ],
      "translation" : [ 0.0147216, -0.0242567, 0.0049214 ],
      "rotation" : [ -0.707112, -5.26735e-06, -8.99066e-07, -0.707102 ]
    },
    {
      "name" : "l_InnerToe_02_02",
      "children" : [ 14 ],
      "translation" : [ 0.0245398, 1.18661e-13, -0.000374688 ],
      "rotation" : [ 0, 3.23117e-27, -1.79729e-28, -1 ]
    },
    {
      "name" : "l_InnerToe_02_03",
      "children" : [ 15 ],
      "translation" : [ 0.0353103, 3.86997e-13, 0.00902945 ],
      "rotation" : [ 0, 3.23117e-27, -1.79729e-28, -1 ]
    },
    {
      "name" : "l_InnerToe_02_04",
      "translation" : [ 0.037839, 2.27569e-13, 0.00139826 ],
      "rotation" : [ 0, 3.23117e-27, -1.79729e-28, -1 ]
    },
    {
      "name" : "l_InnerToe_03_01",
      "children" : [ 17 ],
      "translation" : [ 0.00498115, -0.0233592, -0.0147165 ],
      "rotation" : [ -0.688801, -0.159876, 0.159867, -0.688793 ]
    },
    {
      "name" : "l_InnerToe_03_02",
      "children" : [ 18 ],
      "translation" : [ 0.0204481, -0.00551745, 0.0120214 ],
      "rotation" : [ -8.07793e-28, 3.23117e-27, 1.82855e-22, -1 ]
    },
    {
      "name" : "l_InnerToe_03_03",
      "children" : [ 19 ],
      "translation" : [ 0.0247923, 7.42872e-14, 0.00158076 ],
      "rotation" : [ -8.07793e-28, 3.23117e-27, 1.82855e-22, -1 ]
    },
    {
      "name" : "l_InnerToe_03_04",
      "translation" : [ 0.0208452, 6.2208e-14, 0.000267134 ],
      "rotation" : [ -8.07793e-28, 3.23117e-27, 1.82855e-22, -1 ]
    },
    {
      "name" : "l_HindToe_01_01",
      "children" : [ 21 ],
      "translation" : [ -0.013947, -0.0210682, -0.00651622 ],
      "rotation" : [ 0.0134586, -0.761407, 0.644135, -0.0718924 ]
    },
    {
      "name" : "l_HindToe_01_02",
      "children" : [ 22 ],
      "translation" : [ 0.0172937, -5.32907e-17, 3.55271e-17 ],
      "rotation" : [ -0, -0, 1.73472e-18, -1 ]
    },
    {
      "name" : "l_HindToe_01_03",
      "children" : [ 23 ],
      "translation" : [ 0.0202399, 0.00132001, -0.000540037 ],
      "rotation" : [ 1.41784e-17, -0.0487452, 5.821e-18, -0.998811 ]
    },
    {
      "name" : "l_HindToe_01_04",
      "translation" : [ 0.0239359, 0.00192655, -0.00192492 ],
      "rotation" : [ -4.2213e-19, -0.121671, -3.44367e-18, -0.99257 ]
    },
    {
      "name" : "r_Leg_Hip",
      "children" : [ 25 ],
      "translation" : [ -0.0500767, 0.0547129, 0.00118379 ],
      "rotation" : [ 0.365999, -0.669019, -0.61052, -0.21383 ]
    },
    {
      "name" : "r_Leg_Knee1",
      "children" : [ 26 ],
      "translation" : [ -0.181062, 3.95232e-12, -3.55271e-17 ],
      "rotation" : [ -0, -0, 0.639896, -0.768461 ]
    },
    {
      "name" : "r_Leg_Knee2",
      "children" : [ 27 ],
      "translation" : [ -0.158939, 3.46937e-12, 3.55271e-16 ],
      "rotation" : [ -0.0465653, 0.0720356, -0.54087, -0.836721 ]
    },
    {
      "name" : "r_Leg_Ball",
      "children" : [ 28 ],
      "translation" : [ -0.158278, 0.000923017, -0.000967927 ],
      "rotation" : [ -0.016213, 0.0385696, -0.516307, -0.855381 ]
    },
    {
      "name" : "r_Leg_Toe",
      "children" : [ 29, 33, 37, 41 ],
      "translation" : [ -0.0142701, 0.0224264, 0.00750457 ],
      "rotation" : [ -0, -3.54524e-23, 0, -1 ]
    },
    {
      "name" : "r_InnerToe_01_01",
      "children" : [ 30 ],
      "translation" : [ -0.00851366, 0.0253289, -0.025202 ],
      "rotation" : [ -0.690352, 0.153042, -0.153046, -0.69034 ]
    },
    {
      "name" : "r_InnerToe_01_02",
      "children" : [ 31 ],
      "translation" : [ -0.025868, -0.00274056, -0.0112842 ],
      "rotation" : [ 5.33895e-43, -2.06795e-25, 2.5788e-18, -1 ]
    },
    {
      "name" : "r_InnerToe_01_03",
      "children" : [ 32 ],
      "translation" : [ -0.0236666, 3.67605e-12, -0.0021109 ],
      "rotation" : [ 5.33895e-43, -2.06795e-25, 2.5788e-18, -1 ]
    },
    {
      "name" : "r_InnerToe_01_04",
      "translation" : [ -0.0213778, 9.42023e-12, 0.00209694 ],
      "rotation" : [ 5.33895e-43, -2.06795e-25, 2.5788e-18, -1 ]
    },
    {
      "name" : "r_InnerToe_02_01",
      "children" : [ 34 ],
      "translation" : [ -0.0147216, 0.0242567, -0.0049214 ],
      "rotation" : [ -0.707112, -5.26853e-06, -9.00455e-07, -0.707102 ]
    },
    {
      "name" : "r_InnerToe_02_02",
      "children" : [ 35 ],
      "translation" : [ -0.0245398, 6.99346e-12, 0.000374688 ],
      "rotation" : [ -0, -0, 3.65793e-27, -1 ]
    },
    {
      "name" : "r_InnerToe_02_03",
      "children" : [ 36 ],
      "translation" : [ -0.0353103, 1.03478e-11, -0.00902945 ],
      "rotation" : [ -0, -0, 3.65793e-27, -1 ]
    },
    {
      "name" : "r_InnerToe_02_04",
      "translation" : [ -0.037839, 1.08424e-11, -0.00139826 ],
      "rotation" : [ -0, -0, 3.65793e-27, -1 ]
    },
    {
      "name" : "r_InnerToe_03_01",
      "children" : [ 38 ],
      "translation" : [ -0.00498116, 0.0233592, 0.0147165 ],
      "rotation" : [ -0.688801, -0.159876, 0.159867, -0.688793 ]
    },
    {
      "name" : "r_InnerToe_03_02",
      "children" : [ 39 ],
      "translation" : [ -0.0204481, 0.00551745, -0.0120214 ],
      "rotation" : [ -5.5071e-43, -2.06795e-25, -2.66021e-18, -1 ]
    },
    {
      "name" : "r_InnerToe_03_03",
      "children" : [ 40 ],
      "translation" : [ -0.0247923, 9.81654e-12, -0.00158076 ],
      "rotation" : [ -5.5071e-43, -2.06795e-25, -2.66021e-18, -1 ]
    },
    {
      "name" : "r_InnerToe_03_04",
      "translation" : [ -0.0208452, 6.50935e-12, -0.000267134 ],
      "rotation" : [ -5.5071e-43, -2.06795e-25, -2.66021e-18, -1 ]
    },
    {
      "name" : "r_HindToe_01_01",
      "children" : [ 42 ],
      "translation" : [ 0.013947, 0.0210682, 0.00651622 ],
      "rotation" : [ 0.0134586, -0.761407, 0.644135, -0.0718924 ]
    },
    {
      "name" : "r_HindToe_01_02",
      "children" : [ 43 ],
      "translation" : [ -0.0172937, 3.55271e-17, 4.66294e-17 ],
      "rotation" : [ -1.20371e-35, -6.93889e-18, -1.73472e-18, -1 ]
    },
    {
      "name" : "r_HindToe_01_03",
      "children" : [ 44 ],
      "translation" : [ -0.0202399, -0.00132001, 0.000540037 ],
      "rotation" : [ -1.38296e-17, -0.0487452, 1.32622e-18, -0.998811 ]
    },
    {
      "name" : "r_HindToe_01_04",
      "translation" : [ -0.0239359, -0.00192655, 0.00192492 ],
      "rotation" : [ 1.41968e-17, -0.121671, 1.75515e-18, -0.99257 ]
    },
    {
      "name" : "c_Spine_01",
      "children" : [ 46 ],
      "translation" : [ 0.0704519, 3.12869e-17, -0.00635613 ],
      "rotation" : [ -0, -0, 0, -1 ]
    },
    {
      "name" : "c_Spine_02",
      "children" : [ 47 ],
      "translation" : [ 0.0704519, 3.12869e-17, -0.00635613 ],
      "rotation" : [ -0, -0, 0, -1 ]
    },
    {
      "name" : "c_Spine_Top",
      "children" : [ 48, 72, 96 ],
      "translation" : [ 0.0704519, 3.12869e-17, -0.00635613 ],
      "rotation" : [ -0, -0, 0, -1 ]
    },
    {
      "name" : "l_Wing_Clavicle",
      "children" : [ 49, 70 ],
      "translation" : [ -1.06581e-16, -0.0254947, 0.0694834 ],
      "rotation" : [ -0.5, 0.5, 0.5, -0.5 ]
    },
    {
      "name" : "l_Wing_Shoulder",
      "children" : [ 50, 66, 68 ],
      "translation" : [ 0.0601227, -0.110426, 0.0527056 ],
      "rotation" : [ -0.732966, 0.104514, -0.129621, -0.659573 ]
    },
    {
      "name" : "l_Wing_Elbow1",
      "children" : [ 51, 64 ],
      "translation" : [ 0.224367, 7.10543e-17, -7.10543e-17 ],
      "rotation" : [ 2.02354e-17, -9.85476e-18, 0.437844, -0.899051 ]
    },
    {
      "name" : "l_Wing_Elbow2",
      "children" : [ 52, 62 ],
      "translation" : [ 0.224367, 0, 4.26326e-16 ],
      "rotation" : [ -0.00557392, 0.0223621, -0.241794, -0.970054 ]
    },
    {
      "name" : "l_Wing_Wrist",
      "children" : [ 53, 59 ],
      "translation" : [ 0.113127, -3.37508e-16, -2.13163e-16 ],
      "rotation" : [ 0.722341, 0.150758, -0.154943, -0.656877 ]
    },
    {
      "name" : "l_Digit_01_01",
      "children" : [ 54, 57 ],
      "translation" : [ 0.0827538, -4.92015e-10, 0.00448343 ],
      "rotation" : [ -8.27181e-25, 2.35854e-17, 4.1359e-25, -1 ]
    },
    {
      "name" : "l_Digit_01_02",
      "children" : [ 55 ],
      "translation" : [ 0.0643229, -3.52433e-10, 8.14857e-10 ],
      "rotation" : [ -8.27181e-25, 2.35854e-17, 4.1359e-25, -1 ]
    },
    {
      "name" : "l_wing_feather_7",
      "children" : [ 56 ],
      "translation" : [ 0.0445753, 0.00230926, 0.00591348 ],
      "rotation" : [ 0.706546, 0.0281508, 0.0281508, -0.706546 ]
    },
    {
      "name" : "l_wing_feather_7_2",
      "translation" : [ 0.427041, -5.40985e-09, -2.62489e-09 ],
      "rotation" : [ -0, -0, -2.72014e-18, -1 ]
    },
    {
      "name" : "l_wing_feather_6",
      "children" : [ 58 ],
      "translation" : [ 0.0237965, -0.0046953, 0.0494612 ],
      "rotation" : [ 0.665519, 0.238924, 0.238924, -0.665519 ]
    },
    {
      "name" : "l_wing_feather_6_2",
      "translation" : [ 0.338228, -4.28475e-09, -3.28208e-09 ],
      "rotation" : [ -0, -0, -1.2431e-17, -1 ]
    },
    {
      "name" : "l_Alula_01_01",
      "children" : [ 60 ],
      "translation" : [ 0.000752859, 0.00540651, -0.0158077 ],
      "rotation" : [ 0.226406, -0.306949, -0.334366, -0.861813 ]
    },
    {
      "name" : "l_Alula_01_02",
      "children" : [ 61 ],
      "translation" : [ 0.0443565, 0.00484565, -0.00137739 ],
      "rotation" : [ 0.00900398, 0.243938, -0.03577, -0.969089 ]
    },
    {
      "name" : "l_Alula_01_03",
      "translation" : [ 0.0352624, 0.00229126, 0.00326728 ],
      "rotation" : [ -5.69128e-17, 0.0533475, 2.47547e-17, -0.998576 ]
    },
    {
      "name" : "l_wing_feather_5",
      "children" : [ 63 ],
      "translation" : [ 0.0813607, 0.0739462, -0.000676591 ],
      "rotation" : [ -0.71188, -0.69924, 0.0408152, -0.0512229 ]
    },
    {
      "name" : "l_wing_feather_5_2",
      "translation" : [ 0.308766, -4.26326e-16, 7.10543e-17 ],
      "rotation" : [ 4.5806e-19, -3.46945e-18, 7.37675e-18, -1 ]
    },
    {
      "name" : "l_wing_feather_4",
      "children" : [ 65 ],
      "translation" : [ 0.105838, 0.0635329, 0.00378054 ],
      "rotation" : [ -0.467222, -0.880436, 0.0139251, -0.0796391 ]
    },
    {
      "name" : "l_wing_feather_4_2",
      "translation" : [ 0.277837, 2.84217e-16, 3.55271e-16 ],
      "rotation" : [ 1.87406e-20, -3.46945e-18, 7.18535e-19, -1 ]
    },
    {
      "name" : "l_wing_feather_2",
      "children" : [ 67 ],
      "translation" : [ 0.128151, 0.0466174, -0.00140971 ],
      "rotation" : [ -0.799736, -0.597841, 0.0252745, -0.048679 ]
    },
    {
      "name" : "l_wing_feather_2_2",
      "translation" : [ 0.199452, -1.42109e-16, -2.13163e-16 ],
      "rotation" : [ -1.65436e-24, 1.65436e-24, 1.47106e-18, -1 ]
    },
    {
      "name" : "l_wing_feather_3",
      "children" : [ 69 ],
      "translation" : [ 0.217105, 0.0694063, -0.00526564 ],
      "rotation" : [ -0.783564, -0.61611, 0.0475575, -0.064614 ]
    },
    {
      "name" : "l_wing_feather_3_2",
      "translation" : [ 0.237213, 1.06581e-16, -1.42109e-16 ],
      "rotation" : [ -5.7739e-19, -6.93889e-18, -5.94527e-18, -1 ]
    },
    {
      "name" : "l_wing_feather_1",
      "children" : [ 71 ],
      "translation" : [ 0.069078, -0.133995, 0.114689 ],
      "rotation" : [ -0.544892, -0.5094, -0.450192, 0.490847 ]
    },
    {
      "name" : "l_wing_feather_1_2",
      "translation" : [ 0.192293, 3.55271e-17, -7.10543e-17 ],
      "rotation" : [ 5.42101e-20, -6.93889e-18, 9.28348e-19, -1 ]
    },
    {
      "name" : "r_Wing_Clavicle",
      "children" : [ 73, 94 ],
      "translation" : [ -2.30926e-16, 0.0254947, 0.0694834 ],
      "rotation" : [ 0.5, -0.5, 0.5, -0.5 ]
    },
    {
      "name" : "r_Wing_Shoulder",
      "children" : [ 74, 90, 92 ],
      "translation" : [ -0.0601227, 0.110426, -0.0527056 ],
      "rotation" : [ -0.732966, 0.104515, -0.129622, -0.659573 ]
    },
    {
      "name" : "r_Wing_Elbow1",
      "children" : [ 75, 88 ],
      "translation" : [ -0.224367, -6.21725e-17, -2.13163e-16 ],
      "rotation" : [ 1.01177e-17, -4.92744e-18, 0.437846, -0.89905 ]
    },
    {
      "name" : "r_Wing_Elbow2",
      "children" : [ 76, 86 ],
      "translation" : [ -0.224367, 2.13163e-16, 4.26326e-16 ],
      "rotation" : [ -0.00557393, 0.022362, -0.241795, -0.970053 ]
    },
    {
      "name" : "r_Wing_Wrist",
      "children" : [ 77, 83 ],
      "translation" : [ -0.113127, 0, -7.10543e-17 ],
      "rotation" : [ 0.722341, 0.150758, -0.154943, -0.656877 ]
    },
    {
      "name" : "r_Digit_01_01",
      "children" : [ 78, 81 ],
      "translation" : [ -0.0827538, 2.13163e-16, -0.00448343 ],
      "rotation" : [ 2.46519e-32, 9.8557e-32, -4.93038e-32, -1 ]
    },
    {
      "name" : "r_Digit_01_02",
      "children" : [ 79 ],
      "translation" : [ -0.0643229, 7.10543e-17, -1.42109e-16 ],
      "rotation" : [ 2.46519e-32, 9.8557e-32, -4.93038e-32, -1 ]
    },
    {
      "name" : "r_wing_feather_7",
      "children" : [ 80 ],
      "translation" : [ -0.0445757, -0.00230926, -0.00591327 ],
      "rotation" : [ 0.706546, 0.0281508, 0.0281508, -0.706546 ]
    },
    {
      "name" : "r_wing_feather_7_2",
      "translation" : [ -0.427036, 2.25732e-06, -3.55271e-16 ],
      "rotation" : [ -1.2326e-32, 4.93038e-32, -3.52608e-32, -1 ]
    },
    {
      "name" : "r_wing_feather_6",
      "children" : [ 82 ],
      "translation" : [ -0.023796, 0.00469574, -0.0494613 ],
      "rotation" : [ 0.665519, 0.238924, 0.238924, -0.665519 ]
    },
    {
      "name" : "r_wing_feather_6_2",
      "translation" : [ -0.338228, -2.95432e-07, -1.42109e-16 ],
      "rotation" : [ -0, -0, 1.41027e-31, -1 ]
    },
    {
      "name" : "r_Alula_01_01",
      "children" : [ 84 ],
      "translation" : [ -0.000752859, -0.00540651, 0.0158077 ],
      "rotation" : [ 0.226406, -0.306949, -0.334366, -0.861813 ]
    },
    {
      "name" : "r_Alula_01_02",
      "children" : [ 85 ],
      "translation" : [ -0.0443565, -0.00484565, 0.00137739 ],
      "rotation" : [ 0.00900398, 0.243938, -0.03577, -0.969089 ]
    },
    {
      "name" : "r_Alula_01_03",
      "translation" : [ -0.0352624, -0.00229126, -0.00326728 ],
      "rotation" : [ -4.30548e-17, 0.0533475, 2.5495e-17, -0.998576 ]
    },
    {
      "name" : "r_wing_feather_5",
      "children" : [ 87 ],
      "translation" : [ -0.0813605, -0.0739461, 0.000676657 ],
      "rotation" : [ -0.71188, -0.69924, 0.0408152, -0.0512229 ]
    },
    {
      "name" : "r_wing_feather_5_2",
      "translation" : [ -0.308767, -5.27708e-07, -1.4357e-09 ],
      "rotation" : [ 2.05935e-19, 3.46945e-18, -8.97513e-18, -1 ]
    },
    {
      "name" : "r_wing_feather_4",
      "children" : [ 89 ],
      "translation" : [ -0.105839, -0.0635331, -0.00378089 ],
      "rotation" : [ -0.467222, -0.880436, 0.0139251, -0.0796391 ]
    },
    {
      "name" : "r_wing_feather_4_2",
      "translation" : [ -0.277837, 4.09531e-07, 8.57105e-08 ],
      "rotation" : [ -1.29048e-08, 3.46945e-18, -9.95371e-19, -1 ]
    },
    {
      "name" : "r_wing_feather_2",
      "children" : [ 91 ],
      "translation" : [ -0.12815, -0.0466175, 0.00140989 ],
      "rotation" : [ -0.799736, -0.597841, 0.0252745, -0.048679 ]
    },
    {
      "name" : "r_wing_feather_2_2",
      "translation" : [ -0.199452, -5.89956e-07, 7.10543e-17 ],
      "rotation" : [ -2.64698e-23, -1.32349e-23, -2.58325e-19, -1 ]
    },
    {
      "name" : "r_wing_feather_3",
      "children" : [ 93 ],
      "translation" : [ -0.217105, -0.0694063, 0.00526563 ],
      "rotation" : [ -0.783564, -0.61611, 0.0475575, -0.064614 ]
    },
    {
      "name" : "r_wing_feather_3_2",
      "translation" : [ -0.237213, 3.4037e-07, -4.74008e-07 ],
      "rotation" : [ 4.94191e-19, -1.22741e-37, 2.48368e-19, -1 ]
    },
    {
      "name" : "r_wing_feather_1",
      "children" : [ 95 ],
      "translation" : [ -0.069078, 0.133995, -0.114689 ],
      "rotation" : [ -0.544892, -0.5094, -0.450192, 0.490847 ]
    },
    {
      "name" : "r_wing_feather_1_2",
      "translation" : [ -0.192292, -2.58189e-07, -4.38109e-07 ],
      "rotation" : [ 3.25261e-19, 1.78528e-37, -5.48877e-19, -1 ]
    },
    {
      "name" : "c_Neck_01",
      "children" : [ 97 ],
      "translation" : [ 0.0547721, -0.000679863, -0.0264469 ],
      "rotation" : [ -0.00684717, -0.173473, -0.00607467, -0.984796 ]
    },
    {
      "name" : "c_Neck_02",
      "children" : [ 98 ],
      "translation" : [ 0.0647301, -0.00157774, -0.0265356 ],
      "rotation" : [ -0.00103678, -0.317459, -0.00344539, -0.948265 ]
    },
    {
      "name" : "c_Head",
      "children" : [ 99, 100, 101, 106, 108, 110, 111, 112, 113 ],
      "translation" : [ 0.101411, -0.00155489, 0.0155246 ],
      "rotation" : [ -0.00351014, -0.283999, 0.0122545, -0.95874 ]
    },
    {
      "name" : "l_Eye_01",
      "translation" : [ 0.0352611, -0.042163, 0.118153 ],
      "rotation" : [ -0.273128, 0.658812, 0.279005, -0.643058 ]
    },
    {
      "name" : "r_Eye_01",
      "translation" : [ 0.0352611, 0.042163, 0.118153 ],
      "rotation" : [ 0.273128, 0.658812, -0.279005, -0.643058 ]
    },
    {
      "name" : "c_Jaw",
      "children" : [ 102 ],
      "translation" : [ -0.00701479, 4.83885e-18, 0.0793378 ],
      "rotation" : [ 1.41479e-32, 0.818921, 2.0188e-32, -0.573906 ]
    },
    {
      "name" : "c_Tongue_01_01",
      "children" : [ 103 ],
      "translation" : [ 0.0199706, -1.43468e-16, 0.00454913 ],
      "rotation" : [ 1.73422e-32, -0.105785, -7.00201e-32, -0.994389 ]
    },
    {
      "name" : "c_Tongue_01_02",
      "children" : [ 104 ],
      "translation" : [ 0.0309011, -6.70505e-17, -0.0061958 ],
      "rotation" : [ 2.46519e-32, 0, -6.77927e-32, -1 ]
    },
    {
      "name" : "c_Tongue_01_03",
      "children" : [ 105 ],
      "translation" : [ 0.0275521, 7.35882e-17, 0.000493529 ],
      "rotation" : [ 2.46519e-32, 0, -6.77927e-32, -1 ]
    },
    {
      "name" : "c_Tongue_01_04",
      "translation" : [ 0.0222652, 2.85464e-18, 0.00232543 ],
      "rotation" : [ 2.46519e-32, 0, -6.77927e-32, -1 ]
    },
    {
      "name" : "l_ear",
      "children" : [ 107 ],
      "translation" : [ 0.0394411, -0.0273902, 0.17046 ],
      "rotation" : [ -0.863543, 0.132591, 0.483444, -0.0547324 ]
    },
    {
      "name" : "l_ear2",
      "translation" : [ 0.0853262, 0.0170664, -0.0274099 ],
      "rotation" : [ 1.38778e-17, 2.77556e-17, -1.38778e-17, -1 ]
    },
    {
      "name" : "r_ear",
      "children" : [ 109 ],
      "translation" : [ 0.0394416, 0.0283918, 0.17046 ],
      "rotation" : [ 0.483444, -0.0547324, 0.863543, -0.132591 ]
    },
    {
      "name" : "r_ear2",
      "translation" : [ -0.0853256, -0.0170669, 0.0274093 ],
      "rotation" : [ 2.77556e-17, 1.92593e-34, -6.93889e-18, -1 ]
    },
    {
      "name" : "l_UpperEye_01",
      "translation" : [ 0.0421527, -0.0520095, 0.124994 ],
      "rotation" : [ -0.262437, 0.670115, 0.276044, -0.637082 ]
    },
    {
      "name" : "l_LowerEye_01",
      "translation" : [ 0.0248671, -0.0505329, 0.118912 ],
      "rotation" : [ -0.262437, 0.670115, 0.276044, -0.637082 ]
    },
    {
      "name" : "r_UpperEye_01",
      "translation" : [ 0.0421523, 0.0520095, 0.124995 ],
      "rotation" : [ 0.276044, -0.637082, 0.262437, -0.670115 ]
    },
    {
      "name" : "r_LowerEye_01",
      "translation" : [ 0.0248673, 0.0505329, 0.118912 ],
      "rotation" : [ 0.276044, -0.637082, 0.262437, -0.670115 ]
    },
    {
      "name" : "c_Tail_01",
      "children" : [ 115 ],
      "translation" : [ -0.127335, -3.20633e-17, 0.00943903 ],
      "rotation" : [ -6.12323e-17, -6.12323e-17, 1, 3.82857e-16 ]
    },
    {
      "name" : "c_Tail_Top",
      "children" : [ 116, 120, 124, 128 ],
      "translation" : [ 0.0757079, 6.71069e-17, 0.00943903 ],
      "rotation" : [ -0, -0, 0, -1 ]
    },
    {
      "name" : "l_Tailfeather_01_01",
      "children" : [ 117 ],
      "translation" : [ -0.00838808, 0.0591726, -0.00166099 ],
      "rotation" : [ -0, -0, -0.133428, -0.991058 ]
    },
    {
      "name" : "l_Tailfeather_01_02",
      "children" : [ 118 ],
      "translation" : [ 0.314797, -0.0188454, -0.0218029 ],
      "rotation" : [ -0.00010204, 0.00284251, 0.024559, -0.999694 ]
    },
    {
      "name" : "l_Tailfeather_01_03",
      "children" : [ 119 ],
      "translation" : [ 0.39432, -0.030071, -1.63425e-15 ],
      "rotation" : [ 2.76203e-20, -3.09138e-21, 0.11123, -0.993795 ]
    },
    {
      "name" : "l_Tailfeather_01_04",
      "translation" : [ 0.538319, 0.0134827, 0.014431 ],
      "rotation" : [ -9.60039e-17, -1.53481e-16, -0.0640444, -0.997947 ]
    },
    {
      "name" : "l_Tailfeather_02_01",
      "children" : [ 121 ],
      "translation" : [ 0.0403531, 0.0302778, -0.0413937 ],
      "rotation" : [ -2.08876e-05, -0.0238159, 0.00087679, -0.999716 ]
    },
    {
      "name" : "l_Tailfeather_02_02",
      "children" : [ 122 ],
      "translation" : [ 0.451188, 0.00398681, -1.42109e-16 ],
      "rotation" : [ -8.77593e-21, -1.00326e-22, -0.0114312, -0.999935 ]
    },
    {
      "name" : "l_Tailfeather_02_03",
      "children" : [ 123 ],
      "translation" : [ 0.496961, 0.00398319, 0.00743696 ],
      "rotation" : [ -0.000243796, 0.0213258, -0.0114286, -0.999707 ]
    },
    {
      "name" : "l_Tailfeather_02_04",
      "translation" : [ 0.49712, 0.00398681, 2.13163e-15 ],
      "rotation" : [ 2.21842e-19, 4.36245e-19, -0.0114312, -0.999935 ]
    },
    {
      "name" : "r_Tailfeather_01_01",
      "children" : [ 125 ],
      "translation" : [ -0.00838808, -0.0591726, -0.00166099 ],
      "rotation" : [ -0.133428, -0.991058, -8.1701e-18, -6.06848e-17 ]
    },
    {
      "name" : "r_Tailfeather_01_02",
      "children" : [ 126 ],
      "translation" : [ -0.314797, 0.0188454, 0.0218029 ],
      "rotation" : [ -0.00010204, 0.00284251, 0.024559, -0.999694 ]
    },
    {
      "name" : "r_Tailfeather_01_03",
      "children" : [ 127 ],
      "translation" : [ -0.39432, 0.030071, 1.42109e-15 ],
      "rotation" : [ -3.33988e-20, -4.32651e-19, 0.11123, -0.993795 ]
    },
    {
      "name" : "r_Tailfeather_01_04",
      "translation" : [ -0.538319, -0.0134827, -0.014431 ],
      "rotation" : [ 2.75937e-17, -1.64236e-16, -0.0640444, -0.997947 ]
    },
    {
      "name" : "r_Tailfeather_02_01",
      "children" : [ 129 ],
      "translation" : [ 0.0403531, -0.0302778, -0.0413937 ],
      "rotation" : [ 0.00087679, -0.999716, 2.08876e-05, 0.0238159 ]
    },
    {
      "name" : "r_Tailfeather_02_02",
      "children" : [ 130 ],
      "translation" : [ -0.451188, -0.00398681, 2.84217e-16 ],
      "rotation" : [ 3.42507e-20, 3.47006e-18, -0.0114312, -0.999935 ]
    },
    {
      "name" : "r_Tailfeather_02_03",
      "children" : [ 131 ],
      "translation" : [ -0.496961, -0.00398319, -0.00743696 ],
      "rotation" : [ -0.000243796, 0.0213258, -0.0114286, -0.999707 ]
    },
    {
      "name" : "r_Tailfeather_02_04",
      "translation" : [ -0.49712, -0.00398681, 3.90799e-15 ],
      "rotation" : [ -0, -0, -0.0114312, -0.999935 ]
    }
  ],
  "skins" : [
    {
      "inverseBindMatrices" : 0,
      "skeleton" : 1,
      "joints" : [
        1,2,3,4,5,6,7,8,9,10,11,12,13,14,15,16,17,18,19,20,21,22,23,24,25,26,27,28,29,30,31,32,
        33,34,35,36,37,38,39,40,41,42,43,44,45,46,47,48,49,50,51,52,53,54,55,56,57,58,59,60,61,62,63,64,
        65,66,67,68,69,70,71,72,73,74,75,76,77,78,79,80,81,82,83,84,85,86,87,88,89,90,91,92,93,94,95,96,
        97,98,99,100,101,102,103,104,105,106,107,108,109,110,111,112,113,114,115,116,117,118,119,120,121,122,123,124,125,126,127,128,
        129,130,131
      ]
    }
  ],
  "materials" : [
    {
      "name" : "dummy_material_0",
      "pbrMetallicRoughness" : {
        "baseColorFactor" : [ 0.3, 0.3, 0.3, 1.0 ],
        "metallicFactor" : 0.1,
        "roughnessFactor" : 0.5
      }
    },
    {
      "name" : "dummy_material_1",
      "pbrMetallicRoughness" : {
        "baseColorFactor" : [ 0.9, 0.3, 0.3, 1.0 ],
        "metallicFactor" : 0.1,
        "roughnessFactor" : 0.5
      }
    }
  ],
  "meshes" : [
    {
      "primitives" : [
        {
          "attributes" : {
            "POSITION" : 2,
            "NORMAL" : 3,
            "TANGENT" : 4,
            "COLOR_0" : 5,
            "JOINTS_0" : 6,
            "WEIGHTS_0" : 7,
            "TEXCOORD_0" : 8,
            "TEXCOORD_1" : 9,
            "TEXCOORD_2" : 10,
            "TEXCOORD_3" : 11
          },
          "indices" : 1,
          "material" : 0
        },
        {
          "attributes" : {
            "POSITION" : 13,
            "NORMAL" : 14,
            "TANGENT" : 15,
            "COLOR_0" : 16,
            "JOINTS_0" : 17,
            "WEIGHTS_0" : 18,
            "TEXCOORD_0" : 19,
            "TEXCOORD_1" : 20,
            "TEXCOORD_2" : 21,
            "TEXCOORD_3" : 22
          },
          "indices" : 12,
          "material" : 1
        }
      ],
      "name" : "Argentavis"
    }
  ],
  "buffers" : [
    {
      "uri" : "Argentavis.bin",
      "byteLength" : 2564272
    }
  ],
  "bufferViews" : [
    {
      "buffer" : 0,
      "byteOffset" : 0,
      "byteLength" : 8384
    },
    {
      "buffer" : 0,
      "byteOffset" : 8384,
      "byteLength" : 68496
    },
    {
      "buffer" : 0,
      "byteOffset" : 76880,
      "byteLength" : 81888
    },
    {
      "buffer" : 0,
      "byteOffset" : 158768,
      "byteLength" : 81888
    },
    {
      "buffer" : 0,
      "byteOffset" : 240656,
      "byteLength" : 109184
    },
    {
      "buffer" : 0,
      "byteOffset" : 349840,
      "byteLength" : 27296
    },
    {
      "buffer" : 0,
      "byteOffset" : 377136,
      "byteLength" : 54592
    },
    {
      "buffer" : 0,
      "byteOffset" : 431728,
      "byteLength" : 27296
    },
    {
      "buffer" : 0,
      "byteOffset" : 459024,
      "byteLength" : 54592
    },
    {
      "buffer" : 0,
      "byteOffset" : 513616,
      "byteLength" : 54592
    },
    {
      "buffer" : 0,
      "byteOffset" : 568208,
      "byteLength" : 54592
    },
    {
      "buffer" : 0,
      "byteOffset" : 622800,
      "byteLength" : 54592
    },
    {
      "buffer" : 0,
      "byteOffset" : 677392,
      "byteLength" : 71352
    },
    {
      "buffer" : 0,
      "byteOffset" : 748744,
      "byteLength" : 247572
    },
    {
      "buffer" : 0,
      "byteOffset" : 996316,
      "byteLength" : 247572
    },
    {
      "buffer" : 0,
      "byteOffset" : 1243888,
      "byteLength" : 330096
    },
    {
      "buffer" : 0,
      "byteOffset" : 1573984,
      "byteLength" : 82524
    },
    {
      "buffer" : 0,
      "byteOffset" : 1656508,
      "byteLength" : 165048
    },
    {
      "buffer" : 0,
      "byteOffset" : 1821556,
      "byteLength" : 82524
    },
    {
      "buffer" : 0,
      "byteOffset" : 1904080,
      "byteLength" : 165048
    },
    {
      "buffer" : 0,
      "byteOffset" : 2069128,
      "byteLength" : 165048
    },
    {
      "buffer" : 0,
      "byteOffset" : 2234176,
      "byteLength" : 165048
    },
    {
      "buffer" : 0,
      "byteOffset" : 2399224,
      "byteLength" : 165048
    }
  ],
  "accessors" : [
    {
      "bufferView" : 0,
      "componentType" : 5126,
      "count" : 131,
      "type" : "MAT4"
    },
    {
      "bufferView" : 1,
      "componentType" : 5123,
      "count" : 34248,
      "type" : "SCALAR"
    },
    {
      "bufferView" : 2,
      "min" : [ -0.933261, 0.00185062, -0.419962 ],
      "max" : [ 0.933261, 0.728999, 0.556068 ],
      "componentType" : 5126,
      "count" : 6824,
      "type" : "VEC3"
    },
    {
      "bufferView" : 3,
      "componentType" : 5126,
      "count" : 6824,
      "type" : "VEC3"
    },
    {
      "bufferView" : 4,
      "componentType" : 5126,
      "count" : 6824,
      "type" : "VEC4"
    },
    {
      "bufferView" : 5,
      "normalized" : true,
      "componentType" : 5121,
      "count" : 6824,
      "type" : "VEC4"
    },
    {
      "bufferView" : 6,
      "componentType" : 5123,
      "count" : 6824,
      "type" : "VEC4"
    },
    {
      "bufferView" : 7,
      "normalized" : true,
      "componentType" : 5121,
      "count" : 6824,
      "type" : "VEC4"
    },
    {
      "bufferView" : 8,
      "componentType" : 5126,
      "count" : 6824,
      "type" : "VEC2"
    },
    {
      "bufferView" : 9,
      "componentType" : 5126,
      "count" : 6824,
      "type" : "VEC2"
    },
    {
      "bufferView" : 10,
      "componentType" : 5126,
      "count" : 6824,
      "type" : "VEC2"
    },
    {
      "bufferView" : 11,
      "componentType" : 5126,
      "count" : 6824,
      "type" : "VEC2"
    },
    {
      "bufferView" : 12,
      "componentType" : 5123,
      "count" : 35676,
      "type" : "SCALAR"
    },
    {
      "bufferView" : 13,
      "min" : [ -1.64644, 0.186127, -0.975903 ],
      "max" : [ 1.64644, 0.818071, 0.496193 ],
      "componentType" : 5126,
      "count" : 20631,
      "type" : "VEC3"
    },
    {
      "bufferView" : 14,
      "componentType" : 5126,
      "count" : 20631,
      "type" : "VEC3"
    },
    {
      "bufferView" : 15,
      "componentType" : 5126,
      "count" : 20631,
      "type" : "VEC4"
    },
    {
      "bufferView" : 16,
      "normalized" : true,
      "componentType" : 5121,
      "count" : 20631,
      "type" : "VEC4"
    },
    {
      "bufferView" : 17,
      "componentType" : 5123,
      "count" : 20631,
      "type" : "VEC4"
    },
    {
      "bufferView" : 18,
      "normalized" : true,
      "componentType" : 5121,
      "count" : 20631,
      "type" : "VEC4"
    },
    {
      "bufferView" : 19,
      "componentType" : 5126,
      "count" : 20631,
      "type" : "VEC2"
    },
    {
      "bufferView" : 20,
      "componentType" : 5126,
      "count" : 20631,
      "type" : "VEC2"
    },
    {
      "bufferView" : 21,
      "componentType" : 5126,
      "count" : 20631,
      "type" : "VEC2"
    },
    {
      "bufferView" : 22,
      "componentType" : 5126,
      "count" : 20631,
      "type" : "VEC2"
    }
  ]
}
