{
  "asset" : {
    "generator" : "UE Viewer (umodel) build 1612-floxay",
    "version" : "2.0"
  },
  "scene" : 0,
  "scenes" : [
    {
      "nodes" : [ 0 ]
    }
  ],
  "nodes" : [
    {
      "name" : "CaveWolf",
      "mesh" : 0,
      "skin" : 0,
      "children" : [ 1 ]
    },
    {
      "name" : "root",
      "children" : [ 2 ],
      "translation" : [ 0, 0, -0 ],
      "rotation" : [ -0.707107, -0, 0, -0.707107 ]
    },
    {
      "name" : "Hip",
      "children" : [ 3, 59, 74, 89 ],
      "translation" : [ 0, -0.6017, -1.28501 ],
      "rotation" : [ 0.5, -0.5, -0.5, -0.5 ]
    },
    {
      "name" : "Spine_01",
      "children" : [ 4 ],
      "translation" : [ 0.0577218, 1.8207e-16, 0.352264 ],
      "rotation" : [ -0, 0.664569, -0, -0.747227 ]
    },
    {
      "name" : "Spine_02",
      "children" : [ 5 ],
      "translation" : [ 0.433492, 2.091e-16, 0.0117142 ],
      "rotation" : [ 2.45318e-32, 0.0187755, 6.62474e-33, -0.999824 ]
    },
    {
      "name" : "Spine_Top",
      "children" : [ 6, 27, 43 ],
      "translation" : [ 0.382325, 1.78194e-16, 0.0111071 ],
      "rotation" : [ 4.74302e-32, 0.0396944, 4.8143e-32, -0.999212 ]
    },
    {
      "name" : "Neck_01",
      "children" : [ 7 ],
      "translation" : [ 0.264537, 2.15321e-16, -0.0133286 ],
      "rotation" : [ 8.85832e-35, 0.0287469, -3.08021e-33, -0.999587 ]
    },
    {
      "name" : "Neck_02",
      "children" : [ 8 ],
      "translation" : [ 0.2289, 1.79396e-16, 0.0174259 ],
      "rotation" : [ 4.9e-32, 0.0421744, 8.23685e-33, -0.99911 ]
    },
    {
      "name" : "Neck_Top",
      "children" : [ 9 ],
      "translation" : [ 0.244217, 1.7635e-16, 0.0151341 ],
      "rotation" : [ -1.74729e-33, -0.0708783, -2.45899e-32, -0.997485 ]
    },
    {
      "name" : "Head",
      "children" : [ 10, 11, 12, 13, 14, 15, 16, 18, 20, 21, 22 ],
      "translation" : [ 0.175152, 6.8815e-17, -0.000460429 ],
      "rotation" : [ -0, -0, -2.46519e-32, -1 ]
    },
    {
      "name" : "l_Eye_01",
      "translation" : [ 0.240847, -0.105953, 0.0476499 ],
      "rotation" : [ 0.0244673, 0.0501626, 0.261768, -0.963516 ]
    },
    {
      "name" : "r_Eye_01",
      "translation" : [ 0.240847, 0.105953, 0.0476499 ],
      "rotation" : [ -0.0244673, 0.0501626, -0.261768, -0.963516 ]
    },
    {
      "name" : "l_eyeupper",
      "translation" : [ 0.276586, -0.130588, 0.0237232 ],
      "rotation" : [ -0.043499, 0.152328, 0.381897, -0.910527 ]
    },
    {
      "name" : "r_eyeupper",
      "translation" : [ 0.276586, 0.130588, 0.0237232 ],
      "rotation" : [ 0.381897, -0.910527, 0.043499, -0.152328 ]
    },
    {
      "name" : "l_eyelower",
      "translation" : [ 0.242595, -0.12296, 0.0961835 ],
      "rotation" : [ -0.0834603, 0.132271, 0.332966, -0.929878 ]
    },
    {
      "name" : "r_eyelower",
      "translation" : [ 0.242595, 0.12296, 0.0961835 ],
      "rotation" : [ 0.332966, -0.929878, 0.0834603, -0.132271 ]
    },
    {
      "name" : "l_Ear_01_01",
      "children" : [ 17 ],
      "translation" : [ 0.0318166, -0.15452, -0.120036 ],
      "rotation" : [ 0.0926051, -0.379808, 0.31279, -0.86564 ]
    },
    {
      "name" : "l_Ear_01_02",
      "translation" : [ 0.153787, -1.42109e-16, 1.42109e-15 ],
      "rotation" : [ -0, -0, -0.0607353, -0.998154 ]
    },
    {
      "name" : "r_Ear_01_01",
      "children" : [ 19 ],
      "translation" : [ 0.0318166, 0.15452, -0.120036 ],
      "rotation" : [ 0.31279, -0.86564, -0.0926051, 0.379808 ]
    },
    {
      "name" : "r_Ear_01_02",
      "translation" : [ -0.153787, 2.84217e-16, -0 ],
      "rotation" : [ -2.96085e-17, -2.96085e-17, -0.0607353, -0.998154 ]
    },
    {
      "name" : "l_UpperFlews",
      "translation" : [ 0.244703, -0.111352, 0.184874 ],
      "rotation" : [ -0.612274, 0.507229, 0.38801, -0.466141 ]
    },
    {
      "name" : "r_UpperFlews",
      "translation" : [ 0.244703, 0.111352, 0.184874 ],
      "rotation" : [ 0.38801, -0.466141, 0.612274, -0.507229 ]
    },
    {
      "name" : "Jaw",
      "children" : [ 23 ],
      "translation" : [ -0.00458503, -4.68733e-17, 0.145609 ],
      "rotation" : [ 8.51694e-34, 0.0394844, -2.15536e-32, -0.99922 ]
    },
    {
      "name" : "Tongue_01_01",
      "children" : [ 24 ],
      "translation" : [ 0.138954, -3.53808e-05, 0.118159 ],
      "rotation" : [ -0.001618, 0.301464, 0.000281226, -0.953476 ]
    },
    {
      "name" : "Tongue_01_02",
      "children" : [ 25 ],
      "translation" : [ 0.103442, 7.8572e-06, -0.0267652 ],
      "rotation" : [ -0, 2.77556e-17, -0, -1 ]
    },
    {
      "name" : "Tongue_01_03",
      "children" : [ 26 ],
      "translation" : [ 0.0823494, -4.00465e-05, -0.00345946 ],
      "rotation" : [ -0, 2.77556e-17, -0, -1 ]
    },
    {
      "name" : "Tongue_01_04",
      "translation" : [ 0.0695228, -2.26022e-05, 0.0142583 ],
      "rotation" : [ 2.16104e-19, 0.0823226, 1.78509e-20, -0.996606 ]
    },
    {
      "name" : "l_Clavicle",
      "children" : [ 28 ],
      "translation" : [ 0.0895684, -0.221842, -0.0852593 ],
      "rotation" : [ 0, -0, 0.707107, -0.707107 ]
    },
    {
      "name" : "l_FrontLeg_Hip",
      "children" : [ 29 ],
      "translation" : [ 0.0650505, 0.065792, 0.360222 ],
      "rotation" : [ -0.108734, 0.707572, 0.100844, -0.690905 ]
    },
    {
      "name" : "l_FrontLeg_Knee",
      "children" : [ 30, 41, 42 ],
      "translation" : [ 0.48831, -4.8864e-12, -0 ],
      "rotation" : [ -0, -0, -0.40322, -0.915103 ]
    },
    {
      "name" : "l_FrontLeg_Ankle",
      "children" : [ 31, 40 ],
      "translation" : [ 0.413183, -4.13351e-12, 1.3145e-15 ],
      "rotation" : [ -0.00477876, -0.0140309, 0.263155, -0.96464 ]
    },
    {
      "name" : "l_FrontLeg_Ball",
      "children" : [ 32, 34, 36, 38 ],
      "translation" : [ 0.24885, 0.122708, 0.00145053 ],
      "rotation" : [ 0.00495026, -0.00168059, -0.707063, -0.707131 ]
    },
    {
      "name" : "l_WristToe_01_01",
      "children" : [ 33 ],
      "translation" : [ -0.00158255, 0.0703478, 0.0842376 ],
      "rotation" : [ -0.697209, 0.117897, -0.11793, -0.697203 ]
    },
    {
      "name" : "l_WristToe_01_02",
      "translation" : [ 0.117358, -2.07194e-13, 0.0122726 ],
      "rotation" : [ 3.23117e-27, -6.46235e-27, 1.03573e-21, -1 ]
    },
    {
      "name" : "l_WristToe_02_01",
      "children" : [ 35 ],
      "translation" : [ -0.00325674, 0.0605806, 0.011097 ],
      "rotation" : [ -0.706117, 0.0374045, -0.0374374, -0.706115 ]
    },
    {
      "name" : "l_WristToe_02_02",
      "translation" : [ 0.127432, -0.00388693, 0.00597299 ],
      "rotation" : [ 2.19762e-28, 3.22388e-27, 0.0572276, -0.998361 ]
    },
    {
      "name" : "l_WristToe_03_01",
      "children" : [ 37 ],
      "translation" : [ -0.00831529, 0.0559948, -0.0465126 ],
      "rotation" : [ -0.699637, -0.102506, 0.102474, -0.699642 ]
    },
    {
      "name" : "l_WristToe_03_02",
      "translation" : [ 0.126744, -0.00161456, 0.00543413 ],
      "rotation" : [ -0, -0, 4.35618e-23, -1 ]
    },
    {
      "name" : "l_WristToe_04_01",
      "children" : [ 39 ],
      "translation" : [ -0.037261, 0.0522788, -0.102738 ],
      "rotation" : [ -0.666711, -0.235576, 0.235545, -0.666722 ]
    },
    {
      "name" : "l_WristToe_04_02",
      "translation" : [ 0.110974, 0.00086403, 0.0207633 ],
      "rotation" : [ 3.23117e-27, -6.46235e-27, -2.77562e-17, -1 ]
    },
    {
      "name" : "l_FrontLeg_InnerPawJnt",
      "translation" : [ 0.0784595, -0.0211344, 0.00704043 ],
      "rotation" : [ 3.20534e-19, -6.16693e-19, 0.405599, -0.914051 ]
    },
    {
      "name" : "l_FrontLeg_KneeJnt_Twist2",
      "translation" : [ 0.275456, -2.75563e-12, 8.88178e-16 ],
      "rotation" : [ -0.00830488, -0, 0, -0.999965 ]
    },
    {
      "name" : "l_FrontLeg_KneeJnt_Twist1",
      "translation" : [ 0.137728, -1.37774e-12, 4.26326e-16 ],
      "rotation" : [ -0.00415247, -0, 0, -0.999991 ]
    },
    {
      "name" : "r_Clavicle",
      "children" : [ 44 ],
      "translation" : [ 0.0895684, 0.221842, -0.0852593 ],
      "rotation" : [ -0.707107, 0.707107, 2.00307e-16, -2.00307e-16 ]
    },
    {
      "name" : "r_FrontLeg_Hip",
      "children" : [ 45 ],
      "translation" : [ -0.0650505, -0.065792, -0.360222 ],
      "rotation" : [ -0.108734, 0.707572, 0.100844, -0.690905 ]
    },
    {
      "name" : "r_FrontLeg_Knee",
      "children" : [ 46, 57, 58 ],
      "translation" : [ -0.48831, 0, 4.26326e-16 ],
      "rotation" : [ -1.39666e-19, 1.83412e-18, -0.40322, -0.915103 ]
    },
    {
      "name" : "r_FrontLeg_Ankle",
      "children" : [ 47, 56 ],
      "translation" : [ -0.413183, 5.68434e-16, -1.06581e-15 ],
      "rotation" : [ -0.00477876, -0.0140309, 0.263155, -0.96464 ]
    },
    {
      "name" : "r_FrontLeg_Ball",
      "children" : [ 48, 50, 52, 54 ],
      "translation" : [ -0.24885, -0.122708, -0.00145053 ],
      "rotation" : [ 0.00495026, -0.00168059, -0.707063, -0.707131 ]
    },
    {
      "name" : "r_WristToe_01_01",
      "children" : [ 49 ],
      "translation" : [ 0.00158255, -0.0703478, -0.0842376 ],
      "rotation" : [ -0.697209, 0.117897, -0.11793, -0.697203 ]
    },
    {
      "name" : "r_WristToe_01_02",
      "translation" : [ -0.117358, 3.15623e-13, -0.0122726 ],
      "rotation" : [ -0, -0, -8.97073e-23, -1 ]
    },
    {
      "name" : "r_WristToe_02_01",
      "children" : [ 51 ],
      "translation" : [ 0.00325674, -0.0605806, -0.011097 ],
      "rotation" : [ -0.706117, 0.0374045, -0.0374374, -0.706115 ]
    },
    {
      "name" : "r_WristToe_02_02",
      "translation" : [ -0.127432, 0.00388693, -0.00597299 ],
      "rotation" : [ -4.39524e-28, -6.44776e-27, 0.0572276, -0.998361 ]
    },
    {
      "name" : "r_WristToe_03_01",
      "children" : [ 53 ],
      "translation" : [ 0.00831529, -0.0559948, 0.0465126 ],
      "rotation" : [ -0.699637, -0.102506, 0.102474, -0.699642 ]
    },
    {
      "name" : "r_WristToe_03_02",
      "translation" : [ -0.126744, 0.00161456, -0.00543413 ],
      "rotation" : [ -0, -0, -1.54929e-21, -1 ]
    },
    {
      "name" : "r_WristToe_04_01",
      "children" : [ 55 ],
      "translation" : [ 0.037261, -0.0522788, 0.102738 ],
      "rotation" : [ -0.666711, -0.235576, 0.235545, -0.666722 ]
    },
    {
      "name" : "r_WristToe_04_02",
      "translation" : [ -0.110974, -0.00086403, -0.0207633 ],
      "rotation" : [ 6.46235e-27, 1.79366e-43, -2.7757e-17, -1 ]
    },
    {
      "name" : "r_FrontLeg_InnerPawJnt",
      "translation" : [ -0.07846, 0.02113, -0.00704 ],
      "rotation" : [ -2.29439e-19, 1.05073e-18, 0.405599, -0.914051 ]
    },
    {
      "name" : "r_FrontLeg_KneeJnt_Twist2",
      "translation" : [ -0.275456, 1.27898e-15, -1.06581e-15 ],
      "rotation" : [ -0.00830488, 3.46933e-18, -2.88133e-20, -0.999965 ]
    },
    {
      "name" : "r_FrontLeg_KneeJnt_Twist1",
      "translation" : [ -0.137728, 1.56319e-15, -6.03961e-16 ],
      "rotation" : [ -0.00415247, 3.46942e-18, -1.44068e-20, -0.999991 ]
    },
    {
      "name" : "l_HindLeg_Hip",
      "children" : [ 60, 61 ],
      "translation" : [ -0.0900556, -0.207278, -0.00871065 ],
      "rotation" : [ 0.0270875, 0.665921, 0.733479, -0.133504 ]
    },
    {
      "name" : "l_HindLeg_UpperTwist",
      "translation" : [ 0.238333, 1.06581e-16, -0 ],
      "rotation" : [ 3.46945e-18, 4.81482e-35, -1.38778e-17, -1 ]
    },
    {
      "name" : "l_HindLeg_Knee1",
      "children" : [ 62 ],
      "translation" : [ 0.476666, -2.4869e-16, -0 ],
      "rotation" : [ 2.36796e-17, -3.12303e-17, 0.531277, -0.847198 ]
    },
    {
      "name" : "l_HindLeg_Knee2",
      "children" : [ 63, 73 ],
      "translation" : [ 0.464394, 5.68434e-16, -8.52651e-16 ],
      "rotation" : [ -0.0215367, 0.0286355, -0.600686, -0.798682 ]
    },
    {
      "name" : "l_HindLeg_Ankle",
      "children" : [ 64 ],
      "translation" : [ 0.282267, -7.10543e-17, 4.9738e-16 ],
      "rotation" : [ -0.0187576, 0.0468827, 0.198821, -0.978734 ]
    },
    {
      "name" : "l_HindLeg_Ball",
      "children" : [ 65, 67, 69, 71 ],
      "translation" : [ 0.125541, 0.0509989, -0.00212425 ],
      "rotation" : [ -0.0144367, 0.00609571, -0.706846, -0.707194 ]
    },
    {
      "name" : "l_LegToe_01_01",
      "children" : [ 66 ],
      "translation" : [ 0.0188349, 0.01696, 0.0951803 ],
      "rotation" : [ -0.690468, 0.152492, -0.152492, -0.690468 ]
    },
    {
      "name" : "l_LegToe_01_02",
      "translation" : [ 0.0715977, -0.00599399, 0.00115395 ],
      "rotation" : [ 1.22526e-31, -2.11892e-31, 0.109407, -0.993997 ]
    },
    {
      "name" : "l_LegToe_02_01",
      "children" : [ 68 ],
      "translation" : [ 0.090963, 0.0132042, 0.0378409 ],
      "rotation" : [ -0.707057, -0.00841385, 0.00841385, -0.707057 ]
    },
    {
      "name" : "l_LegToe_02_02",
      "translation" : [ 0.0706283, -0.000291769, -0.0239086 ],
      "rotation" : [ 0, -4.93038e-32, 1.73472e-18, -1 ]
    },
    {
      "name" : "l_LegToe_03_01",
      "children" : [ 70 ],
      "translation" : [ 0.0617722, 0.011861, -0.0437291 ],
      "rotation" : [ -0.695901, -0.125385, 0.125385, -0.695901 ]
    },
    {
      "name" : "l_LegToe_03_02",
      "translation" : [ 0.0689592, -0.00337865, -0.0279237 ],
      "rotation" : [ -0, -0, -2.77556e-17, -1 ]
    },
    {
      "name" : "l_LegToe_04_01",
      "children" : [ 72 ],
      "translation" : [ 0.00641676, 0.00923051, -0.104466 ],
      "rotation" : [ -0.671244, -0.222331, 0.222331, -0.671244 ]
    },
    {
      "name" : "l_LegToe_04_02",
      "translation" : [ 0.0675939, -5.98893e-05, -0.0182652 ],
      "rotation" : [ -0, -9.86076e-32, -7.2239e-31, -1 ]
    },
    {
      "name" : "l_HindLeg_LowerTwist",
      "translation" : [ 0.141134, 0, 4.9738e-16 ],
      "rotation" : [ -6.93889e-18, 1.92593e-34, 2.77556e-17, -1 ]
    },
    {
      "name" : "r_HindLeg_Hip",
      "children" : [ 75, 76 ],
      "translation" : [ -0.0900556, 0.207278, -0.00871065 ],
      "rotation" : [ 0.733479, -0.133504, -0.0270876, -0.665921 ]
    },
    {
      "name" : "r_HindLeg_UpperTwist",
      "translation" : [ -0.238333, -4.06786e-14, 3.39355e-08 ],
      "rotation" : [ -6.93889e-18, -1.38778e-17, 9.62965e-35, -1 ]
    },
    {
      "name" : "r_HindLeg_Knee1",
      "children" : [ 77 ],
      "translation" : [ -0.476666, -4.09983e-14, 4.67537e-14 ],
      "rotation" : [ -2.53639e-07, -1.59057e-07, 0.531277, -0.847198 ]
    },
    {
      "name" : "r_HindLeg_Knee2",
      "children" : [ 78, 88 ],
      "translation" : [ -0.464394, -7.16227e-14, -2.84217e-16 ],
      "rotation" : [ -0.0215367, 0.0286355, -0.600686, -0.798682 ]
    },
    {
      "name" : "r_HindLeg_Ankle",
      "children" : [ 79 ],
      "translation" : [ -0.282267, -4.91696e-14, -6.91652e-10 ],
      "rotation" : [ -0.0187576, 0.0468827, 0.198821, -0.978734 ]
    },
    {
      "name" : "r_HindLeg_Ball",
      "children" : [ 80, 82, 84, 86 ],
      "translation" : [ -0.125541, -0.0509989, 0.00212425 ],
      "rotation" : [ -0.0144367, 0.00609572, -0.706846, -0.707194 ]
    },
    {
      "name" : "r_LegToe_01_01",
      "children" : [ 81 ],
      "translation" : [ -0.0188349, -0.01696, -0.0951803 ],
      "rotation" : [ -0.690468, 0.152492, -0.152492, -0.690468 ]
    },
    {
      "name" : "r_LegToe_01_02",
      "translation" : [ -0.0715977, 0.00599399, -0.00115395 ],
      "rotation" : [ 2.31798e-26, -2.10595e-25, 0.109407, -0.993997 ]
    },
    {
      "name" : "r_LegToe_02_01",
      "children" : [ 83 ],
      "translation" : [ -0.090963, -0.0132042, -0.0378409 ],
      "rotation" : [ -0.707057, -0.00841385, 0.00841385, -0.707057 ]
    },
    {
      "name" : "r_LegToe_02_02",
      "translation" : [ -0.0706283, 0.000291768, 0.0239086 ],
      "rotation" : [ 0, 3.23117e-27, -1.54923e-20, -1 ]
    },
    {
      "name" : "r_LegToe_03_01",
      "children" : [ 85 ],
      "translation" : [ -0.0617722, -0.011861, 0.0437291 ],
      "rotation" : [ -0.695901, -0.125385, 0.125385, -0.695901 ]
    },
    {
      "name" : "r_LegToe_03_02",
      "translation" : [ -0.0689592, 0.00337865, 0.0279237 ],
      "rotation" : [ -1.33123e-43, 1.03398e-25, 1.28623e-18, -1 ]
    },
    {
      "name" : "r_LegToe_04_01",
      "children" : [ 87 ],
      "translation" : [ -0.00641677, -0.00923051, 0.104466 ],
      "rotation" : [ -0.671244, -0.222331, 0.222331, -0.671244 ]
    },
    {
      "name" : "r_LegToe_04_02",
      "translation" : [ -0.0675939, 5.98882e-05, 0.0182652 ],
      "rotation" : [ -6.37591e-43, 1.55096e-25, 4.11465e-18, -1 ]
    },
    {
      "name" : "r_HindLeg_LowerTwist",
      "translation" : [ -0.141134, -1.03434e-09, -6.534e-11 ],
      "rotation" : [ 2.44926e-14, 1.22517e-09, -1.19876e-13, -1 ]
    },
    {
      "name" : "Tail_01_01",
      "children" : [ 90 ],
      "translation" : [ -0.0108825, -1.00953e-15, -0.16085 ],
      "rotation" : [ -0.707107, -2.00307e-16, 0.707107, -2.00307e-16 ]
    },
    {
      "name" : "Tail_01_02",
      "children" : [ 91 ],
      "translation" : [ 0.274839, 1.09447e-15, 0.106615 ],
      "rotation" : [ -0, -0, -1.35963e-32, -1 ]
    },
    {
      "name" : "Tail_01_03",
      "children" : [ 92 ],
      "translation" : [ 0.293524, 2.13837e-16, 0.131355 ],
      "rotation" : [ -0, -0, -1.35963e-32, -1 ]
    },
    {
      "name" : "Tail_01_04",
      "children" : [ 93 ],
      "translation" : [ 0.284384, 2.07046e-16, 0.151992 ],
      "rotation" : [ -0, -0, -1.35963e-32, -1 ]
    },
    {
      "name" : "Tail_01_05",
      "translation" : [ 0.232218, -3.94066e-16, 0.0977516 ],
      "rotation" : [ -0, -0, -1.35963e-32, -1 ]
    }
  ],
  "skins" : [
    {
      "inverseBindMatrices" : 0,
      "skeleton" : 1,
      "joints" : [
        1,2,3,4,5,6,7,8,9,10,11,12,13,14,15,16,17,18,19,20,21,22,23,24,25,26,27,28,29,30,31,32,
        33,34,35,36,37,38,39,40,41,42,43,44,45,46,47,48,49,50,51,52,53,54,55,56,57,58,59,60,61,62,63,64,
        65,66,67,68,69,70,71,72,73,74,75,76,77,78,79,80,81,82,83,84,85,86,87,88,89,90,91,92,93
      ]
    }
  ],
  "materials" : [
    {
      "name" : "dummy_material_0",
      "pbrMetallicRoughness" : {
        "baseColorFactor" : [ 0.3, 0.3, 0.3, 1.0 ],
        "metallicFactor" : 0.1,
        "roughnessFactor" : 0.5
      }
    },
    {
      "name" : "dummy_material_1",
      "pbrMetallicRoughness" : {
        "baseColorFactor" : [ 0.9, 0.3, 0.3, 1.0 ],
        "metallicFactor" : 0.1,
        "roughnessFactor" : 0.5
      }
    }
  ],
  "meshes" : [
    {
      "primitives" : [
        {
          "attributes" : {
            "POSITION" : 2,
            "NORMAL" : 3,
            "TANGENT" : 4,
            "COLOR_0" : 5,
            "JOINTS_0" : 6,
            "WEIGHTS_0" : 7,
            "TEXCOORD_0" : 8,
            "TEXCOORD_1" : 9,
            "TEXCOORD_2" : 10,
            "TEXCOORD_3" : 11
          },
          "indices" : 1,
          "material" : 0
        },
        {
          "attributes" : {
            "POSITION" : 13,
            "NORMAL" : 14,
            "TANGENT" : 15,
            "COLOR_0" : 16,
            "JOINTS_0" : 17,
            "WEIGHTS_0" : 18,
            "TEXCOORD_0" : 19,
            "TEXCOORD_1" : 20,
            "TEXCOORD_2" : 21,
            "TEXCOORD_3" : 22
          },
          "indices" : 12,
          "material" : 1
        }
      ],
      "name" : "CaveWolf"
    }
  ],
  "buffers" : [
    {
      "uri" : "CaveWolf.bin",
      "byteLength" : 1484928
    }
  ],
  "bufferViews" : [
    {
      "buffer" : 0,
      "byteOffset" : 0,
      "byteLength" : 5952
    },
    {
      "buffer" : 0,
      "byteOffset" : 5952,
      "byteLength" : 115620
    },
    {
      "buffer" : 0,
      "byteOffset" : 121572,
      "byteLength" : 142332
    },
    {
      "buffer" : 0,
      "byteOffset" : 263904,
      "byteLength" : 142332
    },
    {
      "buffer" : 0,
      "byteOffset" : 406236,
      "byteLength" : 189776
    },
    {
      "buffer" : 0,
      "byteOffset" : 596012,
      "byteLength" : 47444
    },
    {
      "buffer" : 0,
      "byteOffset" : 643456,
      "byteLength" : 94888
    },
    {
      "buffer" : 0,
      "byteOffset" : 738344,
      "byteLength" : 47444
    },
    {
      "buffer" : 0,
      "byteOffset" : 785788,
      "byteLength" : 94888
    },
    {
      "buffer" : 0,
      "byteOffset" : 880676,
      "byteLength" : 94888
    },
    {
      "buffer" : 0,
      "byteOffset" : 975564,
      "byteLength" : 94888
    },
    {
      "buffer" : 0,
      "byteOffset" : 1070452,
      "byteLength" : 94888
    },
    {
      "buffer" : 0,
      "byteOffset" : 1165340,
      "byteLength" : 11940
    },
    {
      "buffer" : 0,
      "byteOffset" : 1177280,
      "byteLength" : 41952
    },
    {
      "buffer" : 0,
      "byteOffset" : 1219232,
      "byteLength" : 41952
    },
    {
      "buffer" : 0,
      "byteOffset" : 1261184,
      "byteLength" : 55936
    },
    {
      "buffer" : 0,
      "byteOffset" : 1317120,
      "byteLength" : 13984
    },
    {
      "buffer" : 0,
      "byteOffset" : 1331104,
      "byteLength" : 27968
    },
    {
      "buffer" : 0,
      "byteOffset" : 1359072,
      "byteLength" : 13984
    },
    {
      "buffer" : 0,
      "byteOffset" : 1373056,
      "byteLength" : 27968
    },
    {
      "buffer" : 0,
      "byteOffset" : 1401024,
      "byteLength" : 27968
    },
    {
      "buffer" : 0,
      "byteOffset" : 1428992,
      "byteLength" : 27968
    },
    {
      "buffer" : 0,
      "byteOffset" : 1456960,
      "byteLength" : 27968
    }
  ],
  "accessors" : [
    {
      "bufferView" : 0,
      "componentType" : 5126,
      "count" : 93,
      "type" : "MAT4"
    },
    {
      "bufferView" : 1,
      "componentType" : 5123,
      "count" : 57810,
      "type" : "SCALAR"
    },
    {
      "bufferView" : 2,
      "min" : [ -0.527064, -0.00119667, -2.06839 ],
      "max" : [ 0.527064, 1.86085, 1.98975 ],
      "componentType" : 5126,
      "count" : 11861,
      "type" : "VEC3"
    },
    {
      "bufferView" : 3,
      "componentType" : 5126,
      "count" : 11861,
      "type" : "VEC3"
    },
    {
      "bufferView" : 4,
      "componentType" : 5126,
      "count" : 11861,
      "type" : "VEC4"
    },
    {
      "bufferView" : 5,
      "normalized" : true,
      "componentType" : 5121,
      "count" : 11861,
      "type" : "VEC4"
    },
    {
      "bufferView" : 6,
      "componentType" : 5123,
      "count" : 11861,
      "type" : "VEC4"
    },
    {
      "bufferView" : 7,
      "normalized" : true,
      "componentType" : 5121,
      "count" : 11861,
      "type" : "VEC4"
    },
    {
      "bufferView" : 8,
      "componentType" : 5126,
      "count" : 11861,
      "type" : "VEC2"
    },
    {
      "bufferView" : 9,
      "componentType" : 5126,
      "count" : 11861,
      "type" : "VEC2"
    },
    {
      "bufferView" : 10,
      "componentType" : 5126,
      "count" : 11861,
      "type" : "VEC2"
    },
    {
      "bufferView" : 11,
      "componentType" : 5126,
      "count" : 11861,
      "type" : "VEC2"
    },
    {
      "bufferView" : 12,
      "componentType" : 5123,
      "count" : 5970,
      "type" : "SCALAR"
    },
    {
      "bufferView" : 13,
      "min" : [ -0.408612, 1.46466, -0.327752 ],
      "max" : [ 0.391336, 1.83658, 1.82908 ],
      "componentType" : 5126,
      "count" : 3496,
      "type" : "VEC3"
    },
    {
      "bufferView" : 14,
      "componentType" : 5126,
      "count" : 3496,
      "type" : "VEC3"
    },
    {
      "bufferView" : 15,
      "componentType" : 5126,
      "count" : 3496,
      "type" : "VEC4"
    },
    {
      "bufferView" : 16,
      "normalized" : true,
      "componentType" : 5121,
      "count" : 3496,
      "type" : "VEC4"
    },
    {
      "bufferView" : 17,
      "componentType" : 5123,
      "count" : 3496,
      "type" : "VEC4"
    },
    {
      "bufferView" : 18,
      "normalized" : true,
      "componentType" : 5121,
      "count" : 3496,
      "type" : "VEC4"
    },
    {
      "bufferView" : 19,
      "componentType" : 5126,
      "count" : 3496,
      "type" : "VEC2"
    },
    {
      "bufferView" : 20,
      "componentType" : 5126,
      "count" : 3496,
      "type" : "VEC2"
    },
    {
      "bufferView" : 21,
      "componentType" : 5126,
      "count" : 3496,
      "type" : "VEC2"
    },
    {
      "bufferView" : 22,
      "componentType" : 5126,
      "count" : 3496,
      "type" : "VEC2"
    }
  ]
}
