{
  "asset" : {
    "generator" : "UE Viewer (umodel) build 1612-floxay",
    "version" : "2.0"
  },
  "scene" : 0,
  "scenes" : [
    {
      "nodes" : [ 0 ]
    }
  ],
  "nodes" : [
    {
      "name" : "Direwolf_New",
      "mesh" : 0,
      "skin" : 0,
      "children" : [ 1 ]
    },
    {
      "name" : "root",
      "children" : [ 2 ],
      "translation" : [ 0, 0, -0 ],
      "rotation" : [ -1, -0, 0, -6.6579e-08 ]
    },
    {
      "name" : "c_back1",
      "children" : [ 3, 60, 64, 77 ],
      "translation" : [ 0, -0.562665, 0.311097 ],
      "rotation" : [ -0.540597, 0.540597, 0.455802, 0.455802 ]
    },
    {
      "name" : "c_back2",
      "children" : [ 4 ],
      "translation" : [ 0.16914, 0, 1.49669e-08 ],
      "rotation" : [ -0, -1.38778e-17, 0, -1 ]
    },
    {
      "name" : "c_back3",
      "children" : [ 5 ],
      "translation" : [ 0.16914, 0, 2.48231e-08 ],
      "rotation" : [ -0, -1.38778e-17, 0, -1 ]
    },
    {
      "name" : "c_back4",
      "children" : [ 6, 30, 45 ],
      "translation" : [ 0.16914, 0, 1.49669e-08 ],
      "rotation" : [ -0, -1.38778e-17, 0, -1 ]
    },
    {
      "name" : "c_back5",
      "children" : [ 7 ],
      "translation" : [ 0.16914, 0, 1.49669e-08 ],
      "rotation" : [ -0, -0.034213, 0, -0.999414 ]
    },
    {
      "name" : "c_head",
      "children" : [ 8, 14, 15, 18, 20, 21, 23, 26, 27, 28, 29 ],
      "translation" : [ 0.258228, 0, 8.75177e-08 ],
      "rotation" : [ -0, 0.118835, -0, -0.992914 ]
    },
    {
      "name" : "c_jaw",
      "children" : [ 9 ],
      "translation" : [ 0.0482108, 0, 0.0376279 ],
      "rotation" : [ -0, 0.473897, -0, -0.88058 ]
    },
    {
      "name" : "c_tongue1",
      "children" : [ 10 ],
      "translation" : [ 0.0768475, 0, 0.00438933 ],
      "rotation" : [ -0, -0.396037, 0, -0.918234 ]
    },
    {
      "name" : "c_tongue2",
      "children" : [ 11 ],
      "translation" : [ 0.0373282, 0, 2.6321e-08 ],
      "rotation" : [ -0, 0.302977, -0, -0.952998 ]
    },
    {
      "name" : "c_tongue3",
      "children" : [ 12 ],
      "translation" : [ 0.0377013, 0, 1.14524e-09 ],
      "rotation" : [ -0, 0.0313376, -0, -0.999509 ]
    },
    {
      "name" : "c_tongue4",
      "children" : [ 13 ],
      "translation" : [ 0.0356993, 0, -5.14147e-09 ],
      "rotation" : [ -0, 0.0535734, -0, -0.998564 ]
    },
    {
      "name" : "c_tongue5",
      "translation" : [ 0.0243493, 0, -4.7292e-09 ],
      "rotation" : [ 0.200268, -0.200268, 0.678154, -0.678154 ]
    },
    {
      "name" : "l_eye",
      "translation" : [ 0.118913, -0.0563243, -0.00437038 ],
      "rotation" : [ -1.33904e-06, -1.33904e-06, 0.153477, -0.988152 ]
    },
    {
      "name" : "l_wiskerA1",
      "children" : [ 16 ],
      "translation" : [ 0.183517, -0.0710814, 0.0856208 ],
      "rotation" : [ -1.66527e-17, -1.66527e-17, 0.829888, -0.557929 ]
    },
    {
      "name" : "l_wiskerA2",
      "children" : [ 17 ],
      "translation" : [ 0.0467483, -2.57576e-08, -0 ],
      "rotation" : [ -0, -0, 0.203637, -0.979046 ]
    },
    {
      "name" : "l_wiskerA3",
      "translation" : [ 0.0370279, -1.65831e-08, -0 ],
      "rotation" : [ -0, -0, -0.247788, -0.968814 ]
    },
    {
      "name" : "l_ear1",
      "children" : [ 19 ],
      "translation" : [ 0.0363989, -0.0791867, -0.0763968 ],
      "rotation" : [ -0.763444, 0.295162, 0.537679, -0.202319 ]
    },
    {
      "name" : "l_ear2",
      "translation" : [ 0.0379185, 4.69116e-09, -7.77612e-09 ],
      "rotation" : [ -0, 1.38778e-17, -0, -1 ]
    },
    {
      "name" : "r_eye",
      "translation" : [ 0.118913, 0.0563243, -0.00437038 ],
      "rotation" : [ 0.153477, -0.988152, 1.33903e-06, 1.33904e-06 ]
    },
    {
      "name" : "r_ear1",
      "children" : [ 22 ],
      "translation" : [ 0.0364234, 0.0886495, -0.0672529 ],
      "rotation" : [ 0.537679, -0.202319, 0.763444, -0.295162 ]
    },
    {
      "name" : "r_ear2",
      "translation" : [ -0.0379186, -1.86115e-08, 3.38562e-07 ],
      "rotation" : [ 1.38778e-17, 1.38778e-17, -2.77556e-17, -1 ]
    },
    {
      "name" : "r_wiskerA1",
      "children" : [ 24 ],
      "translation" : [ 0.183517, 0.0710814, 0.0856207 ],
      "rotation" : [ -0.829888, 0.557929, -3.41633e-17, 5.0816e-17 ]
    },
    {
      "name" : "r_wiskerA2",
      "children" : [ 25 ],
      "translation" : [ -0.0467486, -3.43338e-07, -0 ],
      "rotation" : [ -0, -0, 0.203637, -0.979046 ]
    },
    {
      "name" : "r_wiskerA3",
      "translation" : [ -0.0370277, 6.9852e-07, -0 ],
      "rotation" : [ -0, -0, -0.247788, -0.968814 ]
    },
    {
      "name" : "r_upperEye",
      "translation" : [ 0.13165, 0.059976, -0.0153856 ],
      "rotation" : [ -0.707107, 0.707107, -4.32978e-17, 4.32978e-17 ]
    },
    {
      "name" : "r_lowerEye",
      "translation" : [ 0.127293, 0.0621908, 0.00520417 ],
      "rotation" : [ -0.707107, 0.707107, -4.32978e-17, 4.32978e-17 ]
    },
    {
      "name" : "l_upperEye",
      "translation" : [ 0.13165, -0.059976, -0.0153856 ],
      "rotation" : [ 0, -0, 0.707107, -0.707107 ]
    },
    {
      "name" : "l_lowerEye",
      "translation" : [ 0.127293, -0.0621908, 0.00520417 ],
      "rotation" : [ 0, -0, 0.707107, -0.707107 ]
    },
    {
      "name" : "l_scapula",
      "children" : [ 31 ],
      "translation" : [ 0.116273, -0.0924338, -0.0235895 ],
      "rotation" : [ -0.129456, 0.638881, 0.0875071, -0.753269 ]
    },
    {
      "name" : "l_shoulder",
      "children" : [ 32, 44 ],
      "translation" : [ 0.191942, -3.05989e-08, -5.52331e-08 ],
      "rotation" : [ 0.0483938, 0.458615, -0.217376, -0.860278 ]
    },
    {
      "name" : "l_elbow",
      "children" : [ 33, 43 ],
      "translation" : [ 0.166807, -5.89027e-08, -9.14557e-08 ],
      "rotation" : [ -2.8316e-07, -0.300382, 1.07276e-07, -0.953819 ]
    },
    {
      "name" : "l_wrist",
      "children" : [ 34 ],
      "translation" : [ 0.263304, -9.28965e-08, 8.75358e-07 ],
      "rotation" : [ -0.0148052, -0.142273, 0.0302608, -0.989254 ]
    },
    {
      "name" : "l_toeA1",
      "children" : [ 35, 37, 39, 41 ],
      "translation" : [ 0.096389, 1.4708e-08, -4.32634e-08 ],
      "rotation" : [ 0.0335261, -0.701467, 0.101375, -0.704658 ]
    },
    {
      "name" : "l_wristToeC1",
      "children" : [ 36 ],
      "translation" : [ 0.0425344, -0.0134843, 0.00729382 ],
      "rotation" : [ -0.00201082, 0.237118, 0.0607223, -0.969579 ]
    },
    {
      "name" : "l_wristToeC2",
      "translation" : [ 0.0575609, 4.17703e-09, 1.71169e-08 ],
      "rotation" : [ -1.0842e-18, 1.38778e-17, 1.23413e-17, -1 ]
    },
    {
      "name" : "l_wristToeD1",
      "children" : [ 38 ],
      "translation" : [ 0.0321296, -0.029899, 0.0049135 ],
      "rotation" : [ -0.00760166, 0.227974, 0.226815, -0.94685 ]
    },
    {
      "name" : "l_wristToeD2",
      "translation" : [ 0.0575609, 1.16566e-08, 2.04729e-08 ],
      "rotation" : [ 1.0842e-18, -1.32243e-35, 1.21973e-17, -1 ]
    },
    {
      "name" : "l_wristToeB1",
      "children" : [ 40 ],
      "translation" : [ 0.0427233, 0.0118062, 0.00872564 ],
      "rotation" : [ 0.00469715, 0.221409, -0.0966427, -0.970369 ]
    },
    {
      "name" : "l_wristToeB2",
      "translation" : [ 0.0575608, -2.7054e-08, 2.88391e-08 ],
      "rotation" : [ 4.98733e-18, 2.77556e-17, 1.71846e-17, -1 ]
    },
    {
      "name" : "l_wristToeA1",
      "children" : [ 42 ],
      "translation" : [ 0.0330091, 0.0316623, 0.00827049 ],
      "rotation" : [ -0.0146792, 0.30309, -0.261823, -0.916171 ]
    },
    {
      "name" : "l_wristToeA2",
      "translation" : [ 0.0575608, 2.86901e-09, 2.18365e-08 ],
      "rotation" : [ 3.68629e-18, 2.77556e-17, 2.29851e-17, -1 ]
    },
    {
      "name" : "l_forearmTwist",
      "translation" : [ 0.0874797, -2.9956e-08, -5.59909e-09 ],
      "rotation" : [ -1.95156e-18, 1.73472e-18, -3.38542e-36, -1 ]
    },
    {
      "name" : "l_shoulderTwist",
      "translation" : [ 0.0893227, -3.4458e-08, -4.66877e-08 ],
      "rotation" : [ -3.46945e-18, -2.77556e-17, 9.62965e-35, -1 ]
    },
    {
      "name" : "r_scapula",
      "children" : [ 46 ],
      "translation" : [ 0.116273, 0.0924342, -0.023589 ],
      "rotation" : [ 0.0875071, -0.753269, 0.129456, -0.638881 ]
    },
    {
      "name" : "r_shoulder",
      "children" : [ 47, 59 ],
      "translation" : [ -0.191941, -4.4243e-07, 5.10337e-07 ],
      "rotation" : [ 0.0484072, 0.458616, -0.217376, -0.860277 ]
    },
    {
      "name" : "r_elbow",
      "children" : [ 48, 58 ],
      "translation" : [ -0.166803, 6.72823e-07, -5.02199e-07 ],
      "rotation" : [ -4.04635e-07, -0.300376, -8.43657e-07, -0.953821 ]
    },
    {
      "name" : "r_wrist",
      "children" : [ 49 ],
      "translation" : [ -0.263308, -6.07721e-07, -8.15772e-07 ],
      "rotation" : [ -0.0148093, -0.142279, 0.0302598, -0.989253 ]
    },
    {
      "name" : "r_toeA1",
      "children" : [ 50, 52, 54, 56 ],
      "translation" : [ -0.0963892, 6.78147e-07, 3.14963e-07 ],
      "rotation" : [ 0.0231472, -0.692843, 0.0894436, -0.715145 ]
    },
    {
      "name" : "r_wristToeC1",
      "children" : [ 51 ],
      "translation" : [ -0.0422405, 0.0148784, -0.00621494 ],
      "rotation" : [ 0.00283533, 0.224718, 0.0766465, -0.971401 ]
    },
    {
      "name" : "r_wristToeC2",
      "translation" : [ -0.0575606, 4.56023e-08, -8.27756e-08 ],
      "rotation" : [ -7.43356e-18, -2.35412e-34, -3.16689e-17, -1 ]
    },
    {
      "name" : "r_wristToeD1",
      "children" : [ 53 ],
      "translation" : [ -0.0312439, 0.0309417, -0.00411385 ],
      "rotation" : [ 0.000104827, 0.215757, 0.242602, -0.945829 ]
    },
    {
      "name" : "r_wristToeD2",
      "translation" : [ -0.0575603, 3.13029e-07, -1.9595e-07 ],
      "rotation" : [ -7.99599e-18, 1.38778e-17, -9.23605e-18, -1 ]
    },
    {
      "name" : "r_wristToeB1",
      "children" : [ 55 ],
      "translation" : [ -0.0432978, -0.0103921, -0.00762211 ],
      "rotation" : [ 0.00727246, 0.208863, -0.0807546, -0.974578 ]
    },
    {
      "name" : "r_wristToeB2",
      "translation" : [ -0.0575601, 3.42135e-08, -2.62203e-07 ],
      "rotation" : [ -1.0842e-18, 9.58028e-36, 8.83625e-18, -1 ]
    },
    {
      "name" : "r_wristToeA1",
      "children" : [ 57 ],
      "translation" : [ -0.0342336, -0.0305571, -0.00740012 ],
      "rotation" : [ -0.0128818, 0.291509, -0.24656, -0.924156 ]
    },
    {
      "name" : "r_wristToeA2",
      "translation" : [ -0.0575608, 1.17312e-07, -2.7073e-08 ],
      "rotation" : [ 1.84314e-18, -2.77556e-17, 8.78204e-18, -1 ]
    },
    {
      "name" : "r_forearmTwist",
      "translation" : [ -0.0874803, -2.46473e-07, 5.2188e-07 ],
      "rotation" : [ 1.48536e-17, 8.67362e-19, 6.93889e-18, -1 ]
    },
    {
      "name" : "r_shoulderTwist",
      "translation" : [ -0.0893255, -4.38135e-08, -2.90146e-07 ],
      "rotation" : [ -1.92593e-34, -2.77556e-17, -6.93889e-18, -1 ]
    },
    {
      "name" : "c_tail1",
      "children" : [ 61 ],
      "translation" : [ -0.103679, 0, -0.0465682 ],
      "rotation" : [ 0.0889322, -6.09897e-17, 0.996038, 5.44552e-18 ]
    },
    {
      "name" : "c_tail2",
      "children" : [ 62 ],
      "translation" : [ 0.181072, 0, -7.16195e-08 ],
      "rotation" : [ -0, 0.0471061, -0, -0.99889 ]
    },
    {
      "name" : "c_tail3",
      "children" : [ 63 ],
      "translation" : [ 0.173473, 0, -0.00515478 ],
      "rotation" : [ -0, 0.0654033, -0, -0.997859 ]
    },
    {
      "name" : "c_tail4",
      "translation" : [ 0.165465, -0.01001, 8.63991e-12 ],
      "rotation" : [ -0, 0.0619196, -0, -0.998081 ]
    },
    {
      "name" : "l_leg",
      "children" : [ 65, 76 ],
      "translation" : [ 0.00690275, -0.098418, 0.00118344 ],
      "rotation" : [ 0.0357654, 0.721462, 0.138242, -0.677571 ]
    },
    {
      "name" : "l_knee",
      "children" : [ 66 ],
      "translation" : [ 0.2272, -5.07346e-08, -2.191e-08 ],
      "rotation" : [ -9.09413e-08, 0.392256, 7.1793e-08, -0.919856 ]
    },
    {
      "name" : "l_ankle",
      "children" : [ 67 ],
      "translation" : [ 0.203517, 9.43112e-09, -5.65336e-08 ],
      "rotation" : [ -0.00723262, -0.454328, -0.0363173, -0.890064 ]
    },
    {
      "name" : "l_foot",
      "children" : [ 68, 70, 72, 74 ],
      "translation" : [ 0.156512, -2.8452e-09, 1.90154e-08 ],
      "rotation" : [ 0.00410199, -0.692099, 0.0169209, -0.721593 ]
    },
    {
      "name" : "l_footToeC1",
      "children" : [ 69 ],
      "translation" : [ 0.0450387, -0.0113556, 0.00571014 ],
      "rotation" : [ 0.0064024, 0.195742, 0.0809014, -0.977292 ]
    },
    {
      "name" : "l_footToeC2",
      "translation" : [ 0.0605125, -2.59275e-09, -2.52525e-08 ],
      "rotation" : [ -5.20417e-18, -1.38778e-17, -3.46945e-18, -1 ]
    },
    {
      "name" : "l_footToeB1",
      "children" : [ 71 ],
      "translation" : [ 0.0474326, 0.00809423, 0.0058843 ],
      "rotation" : [ 0.00714118, 0.193741, -0.0011882, -0.981026 ]
    },
    {
      "name" : "l_footToeB2",
      "translation" : [ 0.0605125, 3.1356e-09, 2.76632e-08 ],
      "rotation" : [ -1.20371e-35, -1.38778e-17, -8.67362e-19, -1 ]
    },
    {
      "name" : "l_footToeD1",
      "children" : [ 73 ],
      "translation" : [ 0.0372772, -0.0331388, 0.00521107 ],
      "rotation" : [ 0.0142496, 0.196611, 0.15504, -0.968041 ]
    },
    {
      "name" : "l_footToeD2",
      "translation" : [ 0.0605125, 2.48345e-08, 2.17582e-10 ],
      "rotation" : [ -1.56125e-17, -1.38778e-17, -3.9465e-17, -1 ]
    },
    {
      "name" : "l_footToeA1",
      "children" : [ 75 ],
      "translation" : [ 0.0436265, 0.0281393, 0.00386337 ],
      "rotation" : [ 0.0110329, 0.185037, -0.0687945, -0.980259 ]
    },
    {
      "name" : "l_footToeA2",
      "translation" : [ 0.0605125, -9.11446e-09, 1.55021e-08 ],
      "rotation" : [ -1.73472e-18, -9.78011e-36, -5.63785e-18, -1 ]
    },
    {
      "name" : "l_legTwist",
      "translation" : [ 0.113594, -2.36243e-08, -1.43462e-08 ],
      "rotation" : [ -1.30104e-17, -9.0278e-35, -6.93889e-18, -1 ]
    },
    {
      "name" : "r_leg",
      "children" : [ 78, 89 ],
      "translation" : [ 0.00690295, 0.0984183, 0.00118388 ],
      "rotation" : [ 0.138243, -0.677567, -0.0357663, -0.721466 ]
    },
    {
      "name" : "r_knee",
      "children" : [ 79 ],
      "translation" : [ -0.227199, -6.19324e-07, 1.27792e-07 ],
      "rotation" : [ -2.16088e-07, 0.392242, -1.70824e-07, -0.919862 ]
    },
    {
      "name" : "r_ankle",
      "children" : [ 80 ],
      "translation" : [ -0.203512, 2.54126e-07, -4.13687e-07 ],
      "rotation" : [ 0.0242269, -0.452746, -0.0523478, -0.889772 ]
    },
    {
      "name" : "r_foot",
      "children" : [ 81, 83, 85, 87 ],
      "translation" : [ -0.156512, 5.77866e-08, -8.38792e-07 ],
      "rotation" : [ -0.021593, -0.683895, -0.00608293, -0.729235 ]
    },
    {
      "name" : "r_footToeC1",
      "children" : [ 82 ],
      "translation" : [ -0.0454721, 0.0116875, -0.00487274 ],
      "rotation" : [ 0.00870956, 0.184102, 0.0773023, -0.979824 ]
    },
    {
      "name" : "r_footToeC2",
      "translation" : [ -0.0605122, 1.60948e-07, -1.03448e-07 ],
      "rotation" : [ 3.46945e-18, -1.38778e-17, 1.64799e-17, -1 ]
    },
    {
      "name" : "r_footToeB1",
      "children" : [ 84 ],
      "translation" : [ -0.0479395, -0.0104079, -0.00486314 ],
      "rotation" : [ 0.00384723, 0.182652, 0.0137739, -0.983073 ]
    },
    {
      "name" : "r_footToeB2",
      "translation" : [ -0.060513, -1.86994e-07, 1.83503e-07 ],
      "rotation" : [ 6.93889e-18, 1.38778e-17, 5.24754e-17, -1 ]
    },
    {
      "name" : "r_footToeD1",
      "children" : [ 86 ],
      "translation" : [ -0.0376748, 0.0334619, -0.00436946 ],
      "rotation" : [ 0.0175155, 0.186586, 0.151718, -0.970495 ]
    },
    {
      "name" : "r_footToeD2",
      "translation" : [ -0.0605121, -1.54979e-07, -1.4656e-07 ],
      "rotation" : [ -4.33681e-18, -9.68607e-35, -2.23346e-17, -1 ]
    },
    {
      "name" : "r_footToeA1",
      "children" : [ 88 ],
      "translation" : [ -0.0449808, -0.0315538, -0.00357802 ],
      "rotation" : [ 0.00907664, 0.177665, -0.057306, -0.982379 ]
    },
    {
      "name" : "r_footToeA2",
      "translation" : [ -0.0605119, 5.7172e-07, -1.7905e-07 ],
      "rotation" : [ -1.73472e-18, -9.0278e-36, -5.20417e-18, -1 ]
    },
    {
      "name" : "r_legTwist",
      "translation" : [ -0.113593, 2.6488e-07, -2.72652e-07 ],
      "rotation" : [ -1.38778e-17, -0, 0, -1 ]
    }
  ],
  "skins" : [
    {
      "inverseBindMatrices" : 0,
      "skeleton" : 1,
      "joints" : [
        1,2,3,4,5,6,7,8,9,10,11,12,13,14,15,16,17,18,19,20,21,22,23,24,25,26,27,28,29,30,31,32,
        33,34,35,36,37,38,39,40,41,42,43,44,45,46,47,48,49,50,51,52,53,54,55,56,57,58,59,60,61,62,63,64,
        65,66,67,68,69,70,71,72,73,74,75,76,77,78,79,80,81,82,83,84,85,86,87,88,89
      ]
    }
  ],
  "materials" : [
    {
      "name" : "dummy_material_0",
      "pbrMetallicRoughness" : {
        "baseColorFactor" : [ 0.3, 0.3, 0.3, 1.0 ],
        "metallicFactor" : 0.1,
        "roughnessFactor" : 0.5
      }
    },
    {
      "name" : "dummy_material_1",
      "pbrMetallicRoughness" : {
        "baseColorFactor" : [ 0.9, 0.3, 0.3, 1.0 ],
        "metallicFactor" : 0.1,
        "roughnessFactor" : 0.5
      }
    }
  ],
  "meshes" : [
    {
      "primitives" : [
        {
          "attributes" : {
            "POSITION" : 2,
            "NORMAL" : 3,
            "TANGENT" : 4,
            "COLOR_0" : 5,
            "JOINTS_0" : 6,
            "WEIGHTS_0" : 7,
            "TEXCOORD_0" : 8,
            "TEXCOORD_1" : 9,
            "TEXCOORD_2" : 10,
            "TEXCOORD_3" : 11
          },
          "indices" : 1,
          "material" : 0
        },
        {
          "attributes" : {
            "POSITION" : 13,
            "NORMAL" : 14,
            "TANGENT" : 15,
            "COLOR_0" : 16,
            "JOINTS_0" : 17,
            "WEIGHTS_0" : 18,
            "TEXCOORD_0" : 19,
            "TEXCOORD_1" : 20,
            "TEXCOORD_2" : 21,
            "TEXCOORD_3" : 22
          },
          "indices" : 12,
          "material" : 1
        }
      ],
      "name" : "Direwolf_New"
    }
  ],
  "buffers" : [
    {
      "uri" : "Direwolf_New.bin",
      "byteLength" : 2805164
    }
  ],
  "bufferViews" : [
    {
      "buffer" : 0,
      "byteOffset" : 0,
      "byteLength" : 5696
    },
    {
      "buffer" : 0,
      "byteOffset" : 5696,
      "byteLength" : 103068
    },
    {
      "buffer" : 0,
      "byteOffset" : 108764,
      "byteLength" : 122568
    },
    {
      "buffer" : 0,
      "byteOffset" : 231332,
      "byteLength" : 122568
    },
    {
      "buffer" : 0,
      "byteOffset" : 353900,
      "byteLength" : 163424
    },
    {
      "buffer" : 0,
      "byteOffset" : 517324,
      "byteLength" : 40856
    },
    {
      "buffer" : 0,
      "byteOffset" : 558180,
      "byteLength" : 81712
    },
    {
      "buffer" : 0,
      "byteOffset" : 639892,
      "byteLength" : 40856
    },
    {
      "buffer" : 0,
      "byteOffset" : 680748,
      "byteLength" : 81712
    },
    {
      "buffer" : 0,
      "byteOffset" : 762460,
      "byteLength" : 81712
    },
    {
      "buffer" : 0,
      "byteOffset" : 844172,
      "byteLength" : 81712
    },
    {
      "buffer" : 0,
      "byteOffset" : 925884,
      "byteLength" : 81712
    },
    {
      "buffer" : 0,
      "byteOffset" : 1007596,
      "byteLength" : 61680
    },
    {
      "buffer" : 0,
      "byteOffset" : 1069276,
      "byteLength" : 236712
    },
    {
      "buffer" : 0,
      "byteOffset" : 1305988,
      "byteLength" : 236712
    },
    {
      "buffer" : 0,
      "byteOffset" : 1542700,
      "byteLength" : 315616
    },
    {
      "buffer" : 0,
      "byteOffset" : 1858316,
      "byteLength" : 78904
    },
    {
      "buffer" : 0,
      "byteOffset" : 1937220,
      "byteLength" : 157808
    },
    {
      "buffer" : 0,
      "byteOffset" : 2095028,
      "byteLength" : 78904
    },
    {
      "buffer" : 0,
      "byteOffset" : 2173932,
      "byteLength" : 157808
    },
    {
      "buffer" : 0,
      "byteOffset" : 2331740,
      "byteLength" : 157808
    },
    {
      "buffer" : 0,
      "byteOffset" : 2489548,
      "byteLength" : 157808
    },
    {
      "buffer" : 0,
      "byteOffset" : 2647356,
      "byteLength" : 157808
    }
  ],
  "accessors" : [
    {
      "bufferView" : 0,
      "componentType" : 5126,
      "count" : 89,
      "type" : "MAT4"
    },
    {
      "bufferView" : 1,
      "componentType" : 5123,
      "count" : 51534,
      "type" : "SCALAR"
    },
    {
      "bufferView" : 2,
      "min" : [ -0.208461, -0.00364583, -0.99477 ],
      "max" : [ 0.207141, 0.894089, 0.86807 ],
      "componentType" : 5126,
      "count" : 10214,
      "type" : "VEC3"
    },
    {
      "bufferView" : 3,
      "componentType" : 5126,
      "count" : 10214,
      "type" : "VEC3"
    },
    {
      "bufferView" : 4,
      "componentType" : 5126,
      "count" : 10214,
      "type" : "VEC4"
    },
    {
      "bufferView" : 5,
      "normalized" : true,
      "componentType" : 5121,
      "count" : 10214,
      "type" : "VEC4"
    },
    {
      "bufferView" : 6,
      "componentType" : 5123,
      "count" : 10214,
      "type" : "VEC4"
    },
    {
      "bufferView" : 7,
      "normalized" : true,
      "componentType" : 5121,
      "count" : 10214,
      "type" : "VEC4"
    },
    {
      "bufferView" : 8,
      "componentType" : 5126,
      "count" : 10214,
      "type" : "VEC2"
    },
    {
      "bufferView" : 9,
      "componentType" : 5126,
      "count" : 10214,
      "type" : "VEC2"
    },
    {
      "bufferView" : 10,
      "componentType" : 5126,
      "count" : 10214,
      "type" : "VEC2"
    },
    {
      "bufferView" : 11,
      "componentType" : 5126,
      "count" : 10214,
      "type" : "VEC2"
    },
    {
      "bufferView" : 12,
      "componentType" : 5123,
      "count" : 30840,
      "type" : "SCALAR"
    },
    {
      "bufferView" : 13,
      "min" : [ -0.222975, 0.220162, -1.04133 ],
      "max" : [ 0.223013, 0.893246, 0.70429 ],
      "componentType" : 5126,
      "count" : 19726,
      "type" : "VEC3"
    },
    {
      "bufferView" : 14,
      "componentType" : 5126,
      "count" : 19726,
      "type" : "VEC3"
    },
    {
      "bufferView" : 15,
      "componentType" : 5126,
      "count" : 19726,
      "type" : "VEC4"
    },
    {
      "bufferView" : 16,
      "normalized" : true,
      "componentType" : 5121,
      "count" : 19726,
      "type" : "VEC4"
    },
    {
      "bufferView" : 17,
      "componentType" : 5123,
      "count" : 19726,
      "type" : "VEC4"
    },
    {
      "bufferView" : 18,
      "normalized" : true,
      "componentType" : 5121,
      "count" : 19726,
      "type" : "VEC4"
    },
    {
      "bufferView" : 19,
      "componentType" : 5126,
      "count" : 19726,
      "type" : "VEC2"
    },
    {
      "bufferView" : 20,
      "componentType" : 5126,
      "count" : 19726,
      "type" : "VEC2"
    },
    {
      "bufferView" : 21,
      "componentType" : 5126,
      "count" : 19726,
      "type" : "VEC2"
    },
    {
      "bufferView" : 22,
      "componentType" : 5126,
      "count" : 19726,
      "type" : "VEC2"
    }
  ]
}
