{
  "asset" : {
    "generator" : "UE Viewer (umodel) build 1612-floxay",
    "version" : "2.0"
  },
  "scene" : 0,
  "scenes" : [
    {
      "nodes" : [ 0 ]
    }
  ],
  "nodes" : [
    {
      "name" : "Carno",
      "mesh" : 0,
      "skin" : 0,
      "children" : [ 1 ]
    },
    {
      "name" : "root",
      "children" : [ 2 ],
      "translation" : [ -0, -0, 0 ],
      "rotation" : [ -0.707107, 0, 0, -0.707107 ]
    },
    {
      "name" : "c_back1",
      "children" : [ 3, 37, 42, 55 ],
      "translation" : [ 7.28584e-19, -0.237544, -1.87297 ],
      "rotation" : [ 0.0232145, -0.0231689, -0.706204, -0.707248 ]
    },
    {
      "name" : "c_back2",
      "children" : [ 4 ],
      "translation" : [ 0.30362, 4.42701e-17, 8.52651e-16 ],
      "rotation" : [ 6.77626e-21, 1.14794e-41, -1.69407e-21, -1 ]
    },
    {
      "name" : "c_back3",
      "children" : [ 5 ],
      "translation" : [ 0.385218, 5.43315e-17, -8.52651e-16 ],
      "rotation" : [ 6.77626e-21, 1.47798e-39, -2.18111e-19, -1 ]
    },
    {
      "name" : "c_back4",
      "children" : [ 6, 21, 29 ],
      "translation" : [ 0.385218, 4.83641e-17, 8.52651e-16 ],
      "rotation" : [ -2.03288e-20, -1.38778e-17, 2.1557e-19, -1 ]
    },
    {
      "name" : "c_neck1",
      "children" : [ 7 ],
      "translation" : [ 0.385218, 3.84415e-17, -2.84217e-16 ],
      "rotation" : [ 3.40102e-05, -0.296118, -0.000110363, -0.955151 ]
    },
    {
      "name" : "c_neck2",
      "children" : [ 8 ],
      "translation" : [ 0.264214, 1.82493e-17, -2.70006e-15 ],
      "rotation" : [ 0.000165921, -0.0362962, -0.000264778, -0.999341 ]
    },
    {
      "name" : "c_neck3",
      "children" : [ 9 ],
      "translation" : [ 0.303518, -2.08167e-17, -1.42109e-16 ],
      "rotation" : [ 0.000173549, 0.0137287, -0.000198491, -0.999906 ]
    },
    {
      "name" : "c_head",
      "children" : [ 10, 15, 16, 17, 18, 19, 20 ],
      "translation" : [ 0.293998, -1.56819e-16, -2.84217e-16 ],
      "rotation" : [ 1.39252e-05, 0.37052, -4.68062e-05, -0.928825 ]
    },
    {
      "name" : "c_jaw",
      "children" : [ 11 ],
      "translation" : [ 0.123465, -7.04992e-17, 0.183169 ],
      "rotation" : [ -1.97902e-16, 0.42461, 1.75228e-16, -0.905376 ]
    },
    {
      "name" : "c_tongue1",
      "children" : [ 12 ],
      "translation" : [ 0.125828, 3.44169e-17, 0.0037747 ],
      "rotation" : [ -3.87057e-16, -0.471186, 1.35833e-16, -0.882034 ]
    },
    {
      "name" : "c_tongue2",
      "children" : [ 13 ],
      "translation" : [ 0.119572, 1.88738e-17, -8.52651e-16 ],
      "rotation" : [ 4.4584e-16, 0.396283, -1.35435e-16, -0.918128 ]
    },
    {
      "name" : "c_tongue3",
      "children" : [ 14 ],
      "translation" : [ 0.109098, 1.66533e-17, 5.68434e-16 ],
      "rotation" : [ -3.68653e-17, -0.0268836, 8.99676e-17, -0.999639 ]
    },
    {
      "name" : "c_tongue4",
      "translation" : [ 0.092956, 3.10862e-17, 1.13687e-15 ],
      "rotation" : [ 4.96639e-17, -0.127999, -5.83307e-17, -0.991774 ]
    },
    {
      "name" : "l_eye",
      "translation" : [ 0.311796, -0.0946143, -0.148129 ],
      "rotation" : [ 0.0208178, 0.0350577, 0.510156, -0.859115 ]
    },
    {
      "name" : "r_eye",
      "translation" : [ 0.311032, 0.098974, -0.148532 ],
      "rotation" : [ 0.510156, -0.859115, -0.0208178, -0.0350577 ]
    },
    {
      "name" : "r_upperEye",
      "translation" : [ 0.323816, 0.124016, -0.161055 ],
      "rotation" : [ -0.70691, 0.70691, 0.0166607, -0.0166607 ]
    },
    {
      "name" : "r_lowerEye",
      "translation" : [ 0.322808, 0.121263, -0.133165 ],
      "rotation" : [ -0.70691, 0.70691, 0.0166607, -0.0166607 ]
    },
    {
      "name" : "l_upperEye",
      "translation" : [ 0.323626, -0.118918, -0.161146 ],
      "rotation" : [ 0.0166607, -0.0166607, 0.70691, -0.70691 ]
    },
    {
      "name" : "l_lowerEye",
      "translation" : [ 0.322047, -0.116447, -0.13353 ],
      "rotation" : [ 0.0166607, -0.0166607, 0.70691, -0.70691 ]
    },
    {
      "name" : "l_scapula",
      "children" : [ 22 ],
      "translation" : [ 0.143446, -0.2125, -0.13294 ],
      "rotation" : [ -0.806398, 0.0892617, -0.581049, 0.0643174 ]
    },
    {
      "name" : "l_shoulder",
      "children" : [ 23, 28 ],
      "translation" : [ 0.442, -2.84217e-16, 5.68434e-16 ],
      "rotation" : [ -0.151664, -0.559593, -0.0610888, -0.812478 ]
    },
    {
      "name" : "l_elbow",
      "children" : [ 24 ],
      "translation" : [ 0.208998, 5.68434e-16, 1.98952e-15 ],
      "rotation" : [ -6.38378e-16, 3.88578e-16, -2.77556e-17, -1 ]
    },
    {
      "name" : "l_wrist",
      "children" : [ 25, 26, 27 ],
      "translation" : [ 0.134742, 5.68434e-16, 3.55271e-16 ],
      "rotation" : [ 6.38378e-16, -2.498e-16, -2.77556e-17, -1 ]
    },
    {
      "name" : "l_fingerC1",
      "translation" : [ 0.0673054, -0.0140843, -0.024017 ],
      "rotation" : [ -0.293984, -0.0868712, 0.341466, -0.888497 ]
    },
    {
      "name" : "l_fingerB1",
      "translation" : [ 0.0708152, 0.00457032, 0.00910974 ],
      "rotation" : [ -0.476736, 0.0728933, -0.0253144, -0.875653 ]
    },
    {
      "name" : "l_fingerA1",
      "translation" : [ 0.029393, 0.0150697, 0.0394739 ],
      "rotation" : [ -0.517147, 0.235112, -0.374586, -0.73278 ]
    },
    {
      "name" : "l_armTiwst",
      "translation" : [ 0.124473, -0.00614638, 0.00206121 ],
      "rotation" : [ 0.0028739, 0.00807436, 0.0044851, -0.999953 ]
    },
    {
      "name" : "r_scapula",
      "children" : [ 30 ],
      "translation" : [ 0.143446, 0.2125, -0.13294 ],
      "rotation" : [ -0.581049, 0.0643174, 0.806398, -0.0892617 ]
    },
    {
      "name" : "r_shoulder",
      "children" : [ 31, 36 ],
      "translation" : [ -0.442, 4.2181e-07, -1.72011e-06 ],
      "rotation" : [ -0.146716, -0.553992, -0.0575993, -0.817465 ]
    },
    {
      "name" : "r_elbow",
      "children" : [ 32 ],
      "translation" : [ -0.208998, 7.24372e-07, 2.97729e-06 ],
      "rotation" : [ -1.49012e-08, -1.11022e-16, -4.16334e-17, -1 ]
    },
    {
      "name" : "r_wrist",
      "children" : [ 33, 34, 35 ],
      "translation" : [ -0.134742, -2.23423e-06, -1.21307e-06 ],
      "rotation" : [ -1.82501e-08, 2.498e-16, 1.38778e-17, -1 ]
    },
    {
      "name" : "r_fingerC1",
      "translation" : [ -0.0673175, 0.0104678, 0.0307337 ],
      "rotation" : [ -0.293007, -0.0958302, 0.340121, -0.888415 ]
    },
    {
      "name" : "r_fingerB1",
      "translation" : [ -0.0712038, -0.00806196, -0.00241778 ],
      "rotation" : [ -0.479242, 0.0641744, -0.0247778, -0.874983 ]
    },
    {
      "name" : "r_fingerA1",
      "translation" : [ -0.0301904, -0.0180967, -0.0334856 ],
      "rotation" : [ -0.52271, 0.228173, -0.372782, -0.731946 ]
    },
    {
      "name" : "r_armTiwst",
      "translation" : [ -0.128575, -0.00189087, 0.000819677 ],
      "rotation" : [ 0.000543191, 0.000173165, 0.000593584, -1 ]
    },
    {
      "name" : "c_tail1",
      "children" : [ 38 ],
      "translation" : [ -0.575178, -5.98404e-06, 0.0268704 ],
      "rotation" : [ -0.0266677, -9.47748e-16, 0.999644, -7.49994e-17 ]
    },
    {
      "name" : "c_tail2",
      "children" : [ 39 ],
      "translation" : [ 0.893418, -2.82066e-16, 1.98952e-15 ],
      "rotation" : [ -1.37726e-15, -0.044064, 1.69564e-17, -0.999029 ]
    },
    {
      "name" : "c_tail3",
      "children" : [ 40 ],
      "translation" : [ 0.823786, 8.7777e-17, -5.68434e-16 ],
      "rotation" : [ 4.04854e-16, -0.0121297, 2.26559e-17, -0.999926 ]
    },
    {
      "name" : "c_tail4",
      "children" : [ 41 ],
      "translation" : [ 0.769386, 2.38906e-16, -3.41061e-15 ],
      "rotation" : [ -1.27778e-15, 0.0955156, -3.45061e-17, -0.995428 ]
    },
    {
      "name" : "c_tail5",
      "translation" : [ 0.65039, -2.84772e-16, 5.68434e-16 ],
      "rotation" : [ 3.71703e-16, 0.0696526, -3.86664e-17, -0.997571 ]
    },
    {
      "name" : "l_leg",
      "children" : [ 43, 54 ],
      "translation" : [ -0.0108964, -0.246236, -0.00934296 ],
      "rotation" : [ 0.0259558, 0.630601, 0.0979984, -0.769458 ]
    },
    {
      "name" : "l_knee",
      "children" : [ 44 ],
      "translation" : [ 0.788588, 7.10543e-17, -8.52651e-16 ],
      "rotation" : [ -0.904915, 1.56034e-16, -0.425593, 1.41051e-16 ]
    },
    {
      "name" : "l_ankle",
      "children" : [ 45, 48, 51 ],
      "translation" : [ 0.703062, 7.81597e-16, 7.10543e-17 ],
      "rotation" : [ -0.885731, 0.040952, -0.461984, -0.0193454 ]
    },
    {
      "name" : "l_toeB1",
      "children" : [ 46 ],
      "translation" : [ 0.498555, 3.55271e-16, -1.42109e-16 ],
      "rotation" : [ -0.00138688, -0.489112, 0.00269773, -0.872216 ]
    },
    {
      "name" : "l_toeB2",
      "children" : [ 47 ],
      "translation" : [ 0.130427, -2.13163e-16, 1.5099e-16 ],
      "rotation" : [ 5.14555e-16, -0.0685342, -6.04688e-17, -0.997649 ]
    },
    {
      "name" : "l_toeB3",
      "translation" : [ 0.113748, 4.26326e-16, -1.33227e-16 ],
      "rotation" : [ -3.01715e-19, -0.0234368, -1.10018e-16, -0.999725 ]
    },
    {
      "name" : "l_toeA1",
      "children" : [ 49 ],
      "translation" : [ 0.505468, 0.0765, 0.00494629 ],
      "rotation" : [ -0.137987, -0.483078, -0.15632, -0.850387 ]
    },
    {
      "name" : "l_toeA2",
      "children" : [ 50 ],
      "translation" : [ 0.130427, 0, 2.66454e-16 ],
      "rotation" : [ 9.23576e-05, -0.0697242, -0.00133527, -0.997565 ]
    },
    {
      "name" : "l_toeA3",
      "translation" : [ 0.113748, -7.10543e-17, -1.59872e-16 ],
      "rotation" : [ 2.47546e-16, -0.0234368, 4.89369e-17, -0.999725 ]
    },
    {
      "name" : "l_toeC1",
      "children" : [ 52 ],
      "translation" : [ 0.503909, -0.0978153, 0.0133227 ],
      "rotation" : [ 0.124551, -0.509183, 0.143483, -0.839424 ]
    },
    {
      "name" : "l_toeC2",
      "children" : [ 53 ],
      "translation" : [ 0.130427, 1.42109e-16, 1.77636e-16 ],
      "rotation" : [ -3.99346e-05, -0.068752, 0.000578797, -0.997634 ]
    },
    {
      "name" : "l_toeC3",
      "translation" : [ 0.113748, -2.13163e-16, -8.88178e-17 ],
      "rotation" : [ 9.7255e-17, -0.0234368, 1.51611e-16, -0.999725 ]
    },
    {
      "name" : "l_legTwist",
      "translation" : [ 0.410033, -1.42109e-16, -9.59233e-16 ],
      "rotation" : [ -3.83374e-16, 2.77556e-17, 4.85723e-17, -1 ]
    },
    {
      "name" : "r_leg",
      "children" : [ 56, 67 ],
      "translation" : [ -0.0108965, 0.246126, -0.009342 ],
      "rotation" : [ 0.099209, -0.769158, -0.0269813, -0.630734 ]
    },
    {
      "name" : "r_knee",
      "children" : [ 57 ],
      "translation" : [ -0.788596, 1.48698e-07, -5.37579e-08 ],
      "rotation" : [ -0.90495, 1.45657e-16, -0.425517, -2.44541e-16 ]
    },
    {
      "name" : "r_ankle",
      "children" : [ 58, 61, 64 ],
      "translation" : [ -0.703052, 1.13334e-07, 6.92216e-07 ],
      "rotation" : [ -0.885768, 0.0409008, -0.461921, -0.0192517 ]
    },
    {
      "name" : "r_toeB1",
      "children" : [ 59 ],
      "translation" : [ -0.498556, 2.71737e-08, 1.66122e-08 ],
      "rotation" : [ -0.00136104, -0.489301, 0.00264746, -0.87211 ]
    },
    {
      "name" : "r_toeB2",
      "children" : [ 60 ],
      "translation" : [ -0.130427, 3.81963e-07, 3.52806e-08 ],
      "rotation" : [ 4.79757e-16, -0.0685342, -9.37122e-18, -0.997649 ]
    },
    {
      "name" : "r_toeB3",
      "translation" : [ -0.113748, -2.02365e-06, -5.72038e-08 ],
      "rotation" : [ -1.22412e-16, -0.0234368, -9.59354e-17, -0.999725 ]
    },
    {
      "name" : "r_toeA1",
      "children" : [ 62 ],
      "translation" : [ -0.505468, -0.0765, -0.00494631 ],
      "rotation" : [ -0.139051, -0.482992, -0.158192, -0.849917 ]
    },
    {
      "name" : "r_toeA2",
      "children" : [ 63 ],
      "translation" : [ -0.130427, 4.23077e-08, 8.48668e-08 ],
      "rotation" : [ 9.31041e-05, -0.0696994, -0.0013461, -0.997567 ]
    },
    {
      "name" : "r_toeA3",
      "translation" : [ -0.113748, -2.39148e-07, -1.25537e-07 ],
      "rotation" : [ 1.74979e-16, -0.0234368, -2.24568e-16, -0.999725 ]
    },
    {
      "name" : "r_toeC1",
      "children" : [ 65 ],
      "translation" : [ -0.503909, 0.0978138, -0.0133232 ],
      "rotation" : [ 0.125797, -0.509024, 0.145341, -0.839014 ]
    },
    {
      "name" : "r_toeC2",
      "children" : [ 66 ],
      "translation" : [ -0.130428, -4.12547e-08, 1.27164e-07 ],
      "rotation" : [ -4.145e-05, -0.068799, 0.000600724, -0.99763 ]
    },
    {
      "name" : "r_toeC3",
      "translation" : [ -0.113748, 3.30898e-08, 1.95915e-08 ],
      "rotation" : [ -2.68939e-16, -0.0234368, -7.32975e-17, -0.999725 ]
    },
    {
      "name" : "r_legTwist",
      "translation" : [ -0.410033, 3.34655e-08, 1.23004e-07 ],
      "rotation" : [ -1.04083e-16, -0, 0, -1 ]
    }
  ],
  "skins" : [
    {
      "inverseBindMatrices" : 0,
      "skeleton" : 1,
      "joints" : [
        1,2,3,4,5,6,7,8,9,10,11,12,13,14,15,16,17,18,19,20,21,22,23,24,25,26,27,28,29,30,31,32,
        33,34,35,36,37,38,39,40,41,42,43,44,45,46,47,48,49,50,51,52,53,54,55,56,57,58,59,60,61,62,63,64,
        65,66,67
      ]
    }
  ],
  "materials" : [
    {
      "name" : "dummy_material_0",
      "pbrMetallicRoughness" : {
        "baseColorFactor" : [ 0.3, 0.3, 0.3, 1.0 ],
        "metallicFactor" : 0.1,
        "roughnessFactor" : 0.5
      }
    }
  ],
  "meshes" : [
    {
      "primitives" : [
        {
          "attributes" : {
            "POSITION" : 2,
            "NORMAL" : 3,
            "TANGENT" : 4,
            "COLOR_0" : 5,
            "JOINTS_0" : 6,
            "WEIGHTS_0" : 7,
            "TEXCOORD_0" : 8,
            "TEXCOORD_1" : 9
          },
          "indices" : 1,
          "material" : 0
        }
      ],
      "name" : "Carno"
    }
  ],
  "buffers" : [
    {
      "uri" : "Carno.bin",
      "byteLength" : 804976
    }
  ],
  "bufferViews" : [
    {
      "buffer" : 0,
      "byteOffset" : 0,
      "byteLength" : 4288
    },
    {
      "buffer" : 0,
      "byteOffset" : 4288,
      "byteLength" : 99408
    },
    {
      "buffer" : 0,
      "byteOffset" : 103696,
      "byteLength" : 116880
    },
    {
      "buffer" : 0,
      "byteOffset" : 220576,
      "byteLength" : 116880
    },
    {
      "buffer" : 0,
      "byteOffset" : 337456,
      "byteLength" : 155840
    },
    {
      "buffer" : 0,
      "byteOffset" : 493296,
      "byteLength" : 38960
    },
    {
      "buffer" : 0,
      "byteOffset" : 532256,
      "byteLength" : 77920
    },
    {
      "buffer" : 0,
      "byteOffset" : 610176,
      "byteLength" : 38960
    },
    {
      "buffer" : 0,
      "byteOffset" : 649136,
      "byteLength" : 77920
    },
    {
      "buffer" : 0,
      "byteOffset" : 727056,
      "byteLength" : 77920
    }
  ],
  "accessors" : [
    {
      "bufferView" : 0,
      "componentType" : 5126,
      "count" : 67,
      "type" : "MAT4"
    },
    {
      "bufferView" : 1,
      "componentType" : 5123,
      "count" : 49704,
      "type" : "SCALAR"
    },
    {
      "bufferView" : 2,
      "min" : [ -0.61803, -0.0120625, -4.45447 ],
      "max" : [ 0.61803, 2.86974, 2.62911 ],
      "componentType" : 5126,
      "count" : 9740,
      "type" : "VEC3"
    },
    {
      "bufferView" : 3,
      "componentType" : 5126,
      "count" : 9740,
      "type" : "VEC3"
    },
    {
      "bufferView" : 4,
      "componentType" : 5126,
      "count" : 9740,
      "type" : "VEC4"
    },
    {
      "bufferView" : 5,
      "normalized" : true,
      "componentType" : 5121,
      "count" : 9740,
      "type" : "VEC4"
    },
    {
      "bufferView" : 6,
      "componentType" : 5123,
      "count" : 9740,
      "type" : "VEC4"
    },
    {
      "bufferView" : 7,
      "normalized" : true,
      "componentType" : 5121,
      "count" : 9740,
      "type" : "VEC4"
    },
    {
      "bufferView" : 8,
      "componentType" : 5126,
      "count" : 9740,
      "type" : "VEC2"
    },
    {
      "bufferView" : 9,
      "componentType" : 5126,
      "count" : 9740,
      "type" : "VEC2"
    }
  ]
}
