{
  "asset" : {
    "generator" : "UE Viewer (umodel) build 1612-floxay",
    "version" : "2.0"
  },
  "scene" : 0,
  "scenes" : [
    {
      "nodes" : [ 0 ]
    }
  ],
  "nodes" : [
    {
      "name" : "Para",
      "mesh" : 0,
      "skin" : 0,
      "children" : [ 1 ]
    },
    {
      "name" : "root",
      "children" : [ 2 ],
      "translation" : [ 0, 0, -0 ],
      "rotation" : [ -0.707107, -0, 0, -0.707107 ]
    },
    {
      "name" : "c_back1",
      "children" : [ 3, 55, 68, 73 ],
      "translation" : [ 2.62103e-13, -0.218906, -2.29386 ],
      "rotation" : [ 0.0537198, -0.0537198, -0.705063, -0.705063 ]
    },
    {
      "name" : "c_back2",
      "children" : [ 4 ],
      "translation" : [ 0.492985, 6.38209e-14, -8.3419e-07 ],
      "rotation" : [ -5.0538e-12, 0.0487072, -3.72054e-13, -0.998813 ]
    },
    {
      "name" : "c_back3",
      "children" : [ 5 ],
      "translation" : [ 0.476995, -4.83982e-17, -5.89809e-07 ],
      "rotation" : [ 2.02951e-12, 0.0906419, -1.75919e-13, -0.995884 ]
    },
    {
      "name" : "c_back4",
      "children" : [ 6, 21, 38 ],
      "translation" : [ 0.480143, -2.1916e-14, 1.29923e-06 ],
      "rotation" : [ -2.5899e-12, 0.106652, -2.41031e-13, -0.994296 ]
    },
    {
      "name" : "c_neck1",
      "children" : [ 7 ],
      "translation" : [ 0.505012, 1.81936e-13, -3.62178e-06 ],
      "rotation" : [ -1.64881e-12, -0.349432, 1.88066e-13, -0.936962 ]
    },
    {
      "name" : "c_neck2",
      "children" : [ 8 ],
      "translation" : [ 0.433577, -6.43192e-17, 2.06855e-06 ],
      "rotation" : [ -6.17117e-13, -0.257571, 4.70316e-15, -0.966259 ]
    },
    {
      "name" : "c_neck3",
      "children" : [ 9 ],
      "translation" : [ 0.435743, 2.48739e-17, 6.46123e-07 ],
      "rotation" : [ 2.66204e-13, -0.0992518, 3.8597e-14, -0.995062 ]
    },
    {
      "name" : "c_head",
      "children" : [ 10, 15, 16, 17, 18, 19, 20 ],
      "translation" : [ 0.428791, 1.22961e-17, -1.6378e-06 ],
      "rotation" : [ -7.75166e-10, 0.519666, -4.71554e-10, -0.854369 ]
    },
    {
      "name" : "c_jaw",
      "children" : [ 11 ],
      "translation" : [ 0.106941, 3.19438e-11, 0.0190927 ],
      "rotation" : [ 8.17335e-10, 0.324821, -3.08621e-10, -0.945775 ]
    },
    {
      "name" : "c_tongue1",
      "children" : [ 12 ],
      "translation" : [ 0.175455, -9.27531e-13, 0.0529487 ],
      "rotation" : [ 1.12904e-12, -0.389461, 1.87233e-13, -0.921043 ]
    },
    {
      "name" : "c_tongue2",
      "children" : [ 13 ],
      "translation" : [ 0.135758, -1.91078e-17, 2.0073e-06 ],
      "rotation" : [ -3.32482e-12, 0.23931, 6.26028e-13, -0.970943 ]
    },
    {
      "name" : "c_tongue3",
      "children" : [ 14 ],
      "translation" : [ 0.12387, 1.73902e-18, -1.1469e-06 ],
      "rotation" : [ 3.94126e-13, 0.122485, -5.05151e-14, -0.99247 ]
    },
    {
      "name" : "c_tongue4",
      "translation" : [ 0.113269, -2.6081e-17, 5.07252e-07 ],
      "rotation" : [ -3.92702e-13, 0.0435701, -1.78637e-14, -0.99905 ]
    },
    {
      "name" : "r_eye",
      "translation" : [ 0.267076, 0.107458, -0.190067 ],
      "rotation" : [ 0.448795, -0.893312, 0.0124351, 0.0205415 ]
    },
    {
      "name" : "l_eye",
      "translation" : [ 0.26707, -0.107458, -0.190063 ],
      "rotation" : [ -0.0124352, -0.0205415, 0.448796, -0.893312 ]
    },
    {
      "name" : "r_upperEye",
      "translation" : [ 0.317957, 0.141677, -0.219034 ],
      "rotation" : [ -0.707107, 0.707107, -8.68129e-05, 8.68129e-05 ]
    },
    {
      "name" : "l_upperEye",
      "translation" : [ 0.31793, -0.14162, -0.219007 ],
      "rotation" : [ -8.68129e-05, 8.68129e-05, 0.707107, -0.707107 ]
    },
    {
      "name" : "r_lowerEye",
      "translation" : [ 0.297463, 0.166947, -0.1595 ],
      "rotation" : [ -0.707107, 0.707107, -8.68129e-05, 8.68129e-05 ]
    },
    {
      "name" : "l_lowerEye",
      "translation" : [ 0.297463, -0.166947, -0.1595 ],
      "rotation" : [ -8.68129e-05, 8.68129e-05, 0.707107, -0.707107 ]
    },
    {
      "name" : "l_scapula",
      "children" : [ 22 ],
      "translation" : [ 0.0346014, -0.241264, -0.0440528 ],
      "rotation" : [ -0.950773, 0.0679468, -0.298635, 0.0472337 ]
    },
    {
      "name" : "l_shoulder",
      "children" : [ 23, 37 ],
      "translation" : [ 0.653889, -6.1513e-07, 1.08029e-07 ],
      "rotation" : [ -0.0796278, -0.452165, 0.128882, -0.878974 ]
    },
    {
      "name" : "l_elbow",
      "children" : [ 24 ],
      "translation" : [ 0.541423, 3.86997e-07, -8.92499e-07 ],
      "rotation" : [ -1.42974e-07, 0.306151, -2.76948e-08, -0.951983 ]
    },
    {
      "name" : "l_wrist",
      "children" : [ 25, 28, 31, 34 ],
      "translation" : [ 0.465672, 1.29019e-06, -1.01499e-07 ],
      "rotation" : [ -0.917745, 0.0556199, 0.152616, -0.362434 ]
    },
    {
      "name" : "l_fingerA1",
      "children" : [ 26 ],
      "translation" : [ 0.229098, 0.0577498, -0.00218732 ],
      "rotation" : [ -0.0424493, 0.124595, -0.0218908, -0.991057 ]
    },
    {
      "name" : "l_fingerA2",
      "children" : [ 27 ],
      "translation" : [ 0.114838, -5.99997e-08, 6.87311e-07 ],
      "rotation" : [ 1.45014e-07, 0.158726, -3.43363e-08, -0.987323 ]
    },
    {
      "name" : "l_fingerA3",
      "translation" : [ 0.0708608, 1.42108e-16, 2.84217e-16 ],
      "rotation" : [ -0, -0, 2.77556e-17, -1 ]
    },
    {
      "name" : "l_fingerC1",
      "children" : [ 29 ],
      "translation" : [ 0.227248, -0.0707668, 0.00929976 ],
      "rotation" : [ 0.0697429, 0.191012, 0.124875, -0.971111 ]
    },
    {
      "name" : "l_fingerC2",
      "children" : [ 30 ],
      "translation" : [ 0.104767, -4.05215e-07, -8.32221e-07 ],
      "rotation" : [ -2.99971e-07, 0.158727, -1.23821e-07, -0.987322 ]
    },
    {
      "name" : "l_fingerC3",
      "translation" : [ 0.0803752, 0, -0 ],
      "rotation" : [ 2.60208e-17, 2.77556e-17, -3.81639e-17, -1 ]
    },
    {
      "name" : "l_fingerB1",
      "children" : [ 32 ],
      "translation" : [ 0.232723, -0.00686551, -0.00428645 ],
      "rotation" : [ 0.0154908, 0.153988, 0.0570561, -0.986302 ]
    },
    {
      "name" : "l_fingerB2",
      "children" : [ 33 ],
      "translation" : [ 0.124069, 1.05036e-06, 9.83536e-07 ],
      "rotation" : [ 5.84789e-07, 0.158726, 4.38351e-07, -0.987323 ]
    },
    {
      "name" : "l_fingerB3",
      "translation" : [ 0.075567, 0, -2.84217e-16 ],
      "rotation" : [ -6.93889e-18, 2.77556e-17, -2.08167e-17, -1 ]
    },
    {
      "name" : "l_fingerD1",
      "children" : [ 35 ],
      "translation" : [ 0.106931, -0.0873356, 0.0158903 ],
      "rotation" : [ 0.0985122, 0.0932203, 0.209865, -0.968278 ]
    },
    {
      "name" : "l_fingerD2",
      "children" : [ 36 ],
      "translation" : [ 0.0831286, -3.6e-07, -2.72867e-07 ],
      "rotation" : [ -1.21466e-07, 0.020244, 2.39176e-09, -0.999795 ]
    },
    {
      "name" : "l_fingerD3",
      "translation" : [ 0.0722823, -7.10543e-17, 1.42108e-16 ],
      "rotation" : [ -4.16334e-17, 1.15556e-33, 2.77556e-17, -1 ]
    },
    {
      "name" : "l_armTiwst",
      "translation" : [ 0.226727, -2.5567e-07, -4.16301e-07 ],
      "rotation" : [ -0.00290191, 1.91209e-07, -6.17422e-08, -0.999996 ]
    },
    {
      "name" : "r_scapula",
      "children" : [ 39 ],
      "translation" : [ 0.0346042, 0.241265, -0.0440496 ],
      "rotation" : [ -0.298635, 0.0472338, 0.950773, -0.0679466 ]
    },
    {
      "name" : "r_shoulder",
      "children" : [ 40, 54 ],
      "translation" : [ -0.653881, -7.82164e-07, 2.57468e-06 ],
      "rotation" : [ -0.0888641, -0.451476, 0.129315, -0.878379 ]
    },
    {
      "name" : "r_elbow",
      "children" : [ 41 ],
      "translation" : [ -0.541426, -2.167e-06, -1.0778e-05 ],
      "rotation" : [ -1.5929e-08, 0.30615, -5.22881e-08, -0.951983 ]
    },
    {
      "name" : "r_wrist",
      "children" : [ 42, 45, 48, 51 ],
      "translation" : [ -0.465667, 1.17037e-06, 1.27044e-06 ],
      "rotation" : [ -0.917745, 0.0556197, 0.152616, -0.362434 ]
    },
    {
      "name" : "r_fingerA1",
      "children" : [ 43 ],
      "translation" : [ -0.229097, -0.0577475, 0.0021823 ],
      "rotation" : [ -0.042449, 0.124595, -0.0218906, -0.991057 ]
    },
    {
      "name" : "r_fingerA2",
      "children" : [ 44 ],
      "translation" : [ -0.114837, 2.7e-07, 6.75609e-07 ],
      "rotation" : [ 8.25436e-08, 0.158727, 9.69025e-08, -0.987322 ]
    },
    {
      "name" : "r_fingerA3",
      "translation" : [ -0.0708589, -2.74e-06, 4.46e-06 ],
      "rotation" : [ -0, -0, 0, -1 ]
    },
    {
      "name" : "r_fingerC1",
      "children" : [ 46 ],
      "translation" : [ -0.227248, 0.0707674, -0.00929942 ],
      "rotation" : [ 0.0697422, 0.191013, 0.124876, -0.971111 ]
    },
    {
      "name" : "r_fingerC2",
      "children" : [ 47 ],
      "translation" : [ -0.104768, 3.84257e-06, -4.52587e-06 ],
      "rotation" : [ 2.91045e-07, 0.158726, 3.43995e-08, -0.987323 ]
    },
    {
      "name" : "r_fingerC3",
      "translation" : [ -0.0803739, -9.60001e-07, 1.29e-06 ],
      "rotation" : [ -1.04083e-17, -2.70834e-34, -2.60208e-17, -1 ]
    },
    {
      "name" : "r_fingerB1",
      "children" : [ 49 ],
      "translation" : [ -0.232723, 0.00686708, 0.00428418 ],
      "rotation" : [ 0.0154909, 0.153988, 0.0570562, -0.986302 ]
    },
    {
      "name" : "r_fingerB2",
      "children" : [ 50 ],
      "translation" : [ -0.124068, -1.53e-06, 1.67306e-06 ],
      "rotation" : [ -2.01212e-07, 0.158727, 5.32585e-08, -0.987323 ]
    },
    {
      "name" : "r_fingerB3",
      "translation" : [ -0.0755675, 9.2e-07, -2.25e-06 ],
      "rotation" : [ -3.46945e-17, 2.16667e-33, 6.245e-17, -1 ]
    },
    {
      "name" : "r_fingerD1",
      "children" : [ 52 ],
      "translation" : [ -0.10693, 0.087338, -0.0158918 ],
      "rotation" : [ 0.098512, 0.093221, 0.209865, -0.968278 ]
    },
    {
      "name" : "r_fingerD2",
      "children" : [ 53 ],
      "translation" : [ -0.0831309, 2.06e-06, -2.99356e-06 ],
      "rotation" : [ -1.59491e-08, 0.0202435, -5.40287e-09, -0.999795 ]
    },
    {
      "name" : "r_fingerD3",
      "translation" : [ -0.0722809, -2.2e-06, 3.84e-06 ],
      "rotation" : [ 3.46945e-17, -5.55111e-17, -1.38778e-17, -1 ]
    },
    {
      "name" : "r_armTiwst",
      "translation" : [ -0.226729, -1.42029e-06, -1.045e-05 ],
      "rotation" : [ 0.00217657, -6.44978e-07, -2.38862e-08, -0.999998 ]
    },
    {
      "name" : "l_leg",
      "children" : [ 56, 67 ],
      "translation" : [ -0.00731534, -0.339013, 0.196714 ],
      "rotation" : [ -0.0150621, 0.56967, 0.0934472, -0.816405 ]
    },
    {
      "name" : "l_knee",
      "children" : [ 57 ],
      "translation" : [ 0.968916, 4.68988e-07, -1.99558e-07 ],
      "rotation" : [ 0.00333163, 0.441283, -0.022022, -0.897091 ]
    },
    {
      "name" : "l_ankle",
      "children" : [ 58, 61, 64 ],
      "translation" : [ 0.792266, 6.93932e-08, -3.76575e-08 ],
      "rotation" : [ -0.0156578, -0.373357, -0.0318988, -0.927007 ]
    },
    {
      "name" : "l_toeB1",
      "children" : [ 59 ],
      "translation" : [ 0.435487, 0.0067035, -0.0104865 ],
      "rotation" : [ -0.0204311, -0.433796, -0.0248416, -0.900437 ]
    },
    {
      "name" : "l_toeB2",
      "children" : [ 60 ],
      "translation" : [ 0.148082, 1.24062e-08, -2.12712e-07 ],
      "rotation" : [ -2.10698e-07, -0.121999, 5.11708e-09, -0.99253 ]
    },
    {
      "name" : "l_toeB3",
      "translation" : [ 0.129145, -1.73905e-08, 5.56666e-08 ],
      "rotation" : [ 1.0934e-06, -0.0234368, 8.62064e-09, -0.999725 ]
    },
    {
      "name" : "l_toeA1",
      "children" : [ 62 ],
      "translation" : [ 0.441097, 0.0676931, 0.0125544 ],
      "rotation" : [ -0.184747, -0.39595, -0.194553, -0.878203 ]
    },
    {
      "name" : "l_toeA2",
      "children" : [ 63 ],
      "translation" : [ 0.122644, 3.94653e-08, 5.13715e-08 ],
      "rotation" : [ -1.00109e-06, -0.121997, 6.21309e-07, -0.99253 ]
    },
    {
      "name" : "l_toeA3",
      "translation" : [ 0.129146, 7.04861e-09, -1.58191e-08 ],
      "rotation" : [ -1.80277e-07, -0.023437, -6.27404e-08, -0.999725 ]
    },
    {
      "name" : "l_toeC1",
      "children" : [ 65 ],
      "translation" : [ 0.447565, -0.0641502, 0.021784 ],
      "rotation" : [ 0.0806165, -0.413587, 0.134413, -0.896872 ]
    },
    {
      "name" : "l_toeC2",
      "children" : [ 66 ],
      "translation" : [ 0.126971, 1.97804e-07, -1.42114e-07 ],
      "rotation" : [ 2.28189e-07, -0.121995, -3.53626e-06, -0.992531 ]
    },
    {
      "name" : "l_toeC3",
      "translation" : [ 0.129145, -5.774e-08, -1.13657e-07 ],
      "rotation" : [ -3.64154e-07, -0.0234369, 2.29538e-08, -0.999725 ]
    },
    {
      "name" : "l_legTwist",
      "translation" : [ 0.484458, 5.34331e-07, 1.55235e-06 ],
      "rotation" : [ 0.00158571, -3.36589e-07, -1.22559e-07, -0.999999 ]
    },
    {
      "name" : "c_tail1",
      "children" : [ 69 ],
      "translation" : [ -0.689929, -1.75671e-13, 0.134259 ],
      "rotation" : [ 0.0477221, -3.18284e-13, 0.998861, -1.16957e-14 ]
    },
    {
      "name" : "c_tail2",
      "children" : [ 70 ],
      "translation" : [ 0.89207, 2.13817e-15, -0.0300707 ],
      "rotation" : [ -3.07556e-12, -0.0915969, 2.76283e-13, -0.995796 ]
    },
    {
      "name" : "c_tail3",
      "children" : [ 71 ],
      "translation" : [ 0.807085, -1.84826e-13, -0.0234404 ],
      "rotation" : [ -2.87458e-12, -0.0682006, 6.66803e-13, -0.997672 ]
    },
    {
      "name" : "c_tail4",
      "children" : [ 72 ],
      "translation" : [ 0.711579, 1.37029e-12, -0.0117168 ],
      "rotation" : [ -2.38518e-12, -0.0485281, -1.09303e-13, -0.998822 ]
    },
    {
      "name" : "c_tail5",
      "translation" : [ 0.631619, 7.00038e-13, -0.00747486 ],
      "rotation" : [ -9.20822e-13, -0.0226871, -3.14564e-14, -0.999743 ]
    },
    {
      "name" : "r_leg",
      "children" : [ 74, 85 ],
      "translation" : [ -0.00731608, 0.339013, 0.196718 ],
      "rotation" : [ 0.0934473, -0.816406, 0.0150626, -0.569669 ]
    },
    {
      "name" : "r_knee",
      "children" : [ 75 ],
      "translation" : [ -0.968909, 6.58836e-07, 4.69076e-06 ],
      "rotation" : [ 0.00333173, 0.441287, -0.0220221, -0.89709 ]
    },
    {
      "name" : "r_ankle",
      "children" : [ 76, 79, 82 ],
      "translation" : [ -0.792271, 5.30594e-07, 1.10193e-06 ],
      "rotation" : [ -0.0156553, -0.373359, -0.0318994, -0.927006 ]
    },
    {
      "name" : "r_toeB1",
      "children" : [ 77 ],
      "translation" : [ -0.435487, -0.00670417, 0.0104871 ],
      "rotation" : [ -0.0204338, -0.433796, -0.0248425, -0.900437 ]
    },
    {
      "name" : "r_toeB2",
      "children" : [ 78 ],
      "translation" : [ -0.148082, -1.5e-07, -4.79101e-07 ],
      "rotation" : [ -4.6022e-07, -0.121999, 5.89265e-08, -0.99253 ]
    },
    {
      "name" : "r_toeB3",
      "translation" : [ -0.129146, -3.90449e-07, 1.11633e-07 ],
      "rotation" : [ 1.87325e-08, -0.0234369, 1.71001e-08, -0.999725 ]
    },
    {
      "name" : "r_toeA1",
      "children" : [ 80 ],
      "translation" : [ -0.441097, -0.0676934, -0.0125542 ],
      "rotation" : [ -0.184751, -0.395948, -0.194554, -0.878203 ]
    },
    {
      "name" : "r_toeA2",
      "children" : [ 81 ],
      "translation" : [ -0.122644, -9.76599e-07, 1.25025e-07 ],
      "rotation" : [ -2.96848e-08, -0.121998, 1.0669e-06, -0.99253 ]
    },
    {
      "name" : "r_toeA3",
      "translation" : [ -0.129146, 1.15566e-06, 2.75282e-07 ],
      "rotation" : [ -9.01007e-08, -0.023437, 3.48998e-08, -0.999725 ]
    },
    {
      "name" : "r_toeC1",
      "children" : [ 83 ],
      "translation" : [ -0.447566, 0.0641491, -0.0217838 ],
      "rotation" : [ 0.0806132, -0.413589, 0.134412, -0.896872 ]
    },
    {
      "name" : "r_toeC2",
      "children" : [ 84 ],
      "translation" : [ -0.12697, -2.65102e-07, -4.67161e-08 ],
      "rotation" : [ 4.7644e-07, -0.121994, -3.8577e-06, -0.992531 ]
    },
    {
      "name" : "r_toeC3",
      "translation" : [ -0.129147, -1.35867e-08, 7.70587e-08 ],
      "rotation" : [ -1.63827e-07, -0.0234368, -2.47907e-08, -0.999725 ]
    },
    {
      "name" : "r_legTwist",
      "translation" : [ -0.484455, 1.07544e-06, 2.08921e-06 ],
      "rotation" : [ 0.00158573, 1.4802e-07, -1.19296e-07, -0.999999 ]
    }
  ],
  "skins" : [
    {
      "inverseBindMatrices" : 0,
      "skeleton" : 1,
      "joints" : [
        1,2,3,4,5,6,7,8,9,10,11,12,13,14,15,16,17,18,19,20,21,22,23,24,25,26,27,28,29,30,31,32,
        33,34,35,36,37,38,39,40,41,42,43,44,45,46,47,48,49,50,51,52,53,54,55,56,57,58,59,60,61,62,63,64,
        65,66,67,68,69,70,71,72,73,74,75,76,77,78,79,80,81,82,83,84,85
      ]
    }
  ],
  "materials" : [
    {
      "name" : "dummy_material_0",
      "pbrMetallicRoughness" : {
        "baseColorFactor" : [ 0.3, 0.3, 0.3, 1.0 ],
        "metallicFactor" : 0.1,
        "roughnessFactor" : 0.5
      }
    }
  ],
  "meshes" : [
    {
      "primitives" : [
        {
          "attributes" : {
            "POSITION" : 2,
            "NORMAL" : 3,
            "TANGENT" : 4,
            "COLOR_0" : 5,
            "JOINTS_0" : 6,
            "WEIGHTS_0" : 7,
            "TEXCOORD_0" : 8,
            "TEXCOORD_1" : 9
          },
          "indices" : 1,
          "material" : 0
        }
      ],
      "name" : "Para"
    }
  ],
  "buffers" : [
    {
      "uri" : "Para.bin",
      "byteLength" : 1326588
    }
  ],
  "bufferViews" : [
    {
      "buffer" : 0,
      "byteOffset" : 0,
      "byteLength" : 5440
    },
    {
      "buffer" : 0,
      "byteOffset" : 5440,
      "byteLength" : 168212
    },
    {
      "buffer" : 0,
      "byteOffset" : 173652,
      "byteLength" : 192156
    },
    {
      "buffer" : 0,
      "byteOffset" : 365808,
      "byteLength" : 192156
    },
    {
      "buffer" : 0,
      "byteOffset" : 557964,
      "byteLength" : 256208
    },
    {
      "buffer" : 0,
      "byteOffset" : 814172,
      "byteLength" : 64052
    },
    {
      "buffer" : 0,
      "byteOffset" : 878224,
      "byteLength" : 128104
    },
    {
      "buffer" : 0,
      "byteOffset" : 1006328,
      "byteLength" : 64052
    },
    {
      "buffer" : 0,
      "byteOffset" : 1070380,
      "byteLength" : 128104
    },
    {
      "buffer" : 0,
      "byteOffset" : 1198484,
      "byteLength" : 128104
    }
  ],
  "accessors" : [
    {
      "bufferView" : 0,
      "componentType" : 5126,
      "count" : 85,
      "type" : "MAT4"
    },
    {
      "bufferView" : 1,
      "componentType" : 5123,
      "count" : 84105,
      "type" : "SCALAR"
    },
    {
      "bufferView" : 2,
      "min" : [ -0.764896, -0.000886384, -4.27708 ],
      "max" : [ 0.764666, 3.73369, 3.35386 ],
      "componentType" : 5126,
      "count" : 16013,
      "type" : "VEC3"
    },
    {
      "bufferView" : 3,
      "componentType" : 5126,
      "count" : 16013,
      "type" : "VEC3"
    },
    {
      "bufferView" : 4,
      "componentType" : 5126,
      "count" : 16013,
      "type" : "VEC4"
    },
    {
      "bufferView" : 5,
      "normalized" : true,
      "componentType" : 5121,
      "count" : 16013,
      "type" : "VEC4"
    },
    {
      "bufferView" : 6,
      "componentType" : 5123,
      "count" : 16013,
      "type" : "VEC4"
    },
    {
      "bufferView" : 7,
      "normalized" : true,
      "componentType" : 5121,
      "count" : 16013,
      "type" : "VEC4"
    },
    {
      "bufferView" : 8,
      "componentType" : 5126,
      "count" : 16013,
      "type" : "VEC2"
    },
    {
      "bufferView" : 9,
      "componentType" : 5126,
      "count" : 16013,
      "type" : "VEC2"
    }
  ]
}
