{
  "asset" : {
    "generator" : "UE Viewer (umodel) build 1612-floxay",
    "version" : "2.0"
  },
  "scene" : 0,
  "scenes" : [
    {
      "nodes" : [ 0 ]
    }
  ],
  "nodes" : [
    {
      "name" : "BoaFrill",
      "mesh" : 0,
      "skin" : 0,
      "children" : [ 1 ]
    },
    {
      "name" : "root",
      "children" : [ 2 ],
      "translation" : [ 0, 0, -0 ],
      "rotation" : [ -0.707107, -0, 0, -0.707107 ]
    },
    {
      "name" : "c_back1",
      "children" : [ 3, 27 ],
      "translation" : [ -2.53161e-13, 4.30072, -0.202556 ],
      "rotation" : [ -0.0134715, -0.0134715, 0.706978, -0.706978 ]
    },
    {
      "name" : "c_back2",
      "children" : [ 4 ],
      "translation" : [ 0.373176, 5.7675e-17, -0.00066044 ],
      "rotation" : [ 8.39702e-13, 0.00145458, 1.42778e-15, -0.999999 ]
    },
    {
      "name" : "c_back3",
      "children" : [ 5 ],
      "translation" : [ 0.373172, -9.00992e-18, -7.78844e-08 ],
      "rotation" : [ 3.11991e-13, 0.00233945, 4.97389e-15, -0.999997 ]
    },
    {
      "name" : "c_back4",
      "children" : [ 6 ],
      "translation" : [ 0.373176, 5.14074e-18, 2.14128e-08 ],
      "rotation" : [ 2.35147e-14, 0.00233948, 5.72202e-15, -0.999997 ]
    },
    {
      "name" : "c_back5",
      "children" : [ 7 ],
      "translation" : [ 0.373175, -8.43225e-18, 1.89018e-07 ],
      "rotation" : [ 9.72482e-13, 0.00233945, 8.08304e-15, -0.999997 ]
    },
    {
      "name" : "c_back6",
      "children" : [ 8 ],
      "translation" : [ 0.373175, 2.91691e-18, -2.01157e-07 ],
      "rotation" : [ -2.92117e-13, 0.00233951, 9.69061e-15, -0.999997 ]
    },
    {
      "name" : "c_back7",
      "children" : [ 9 ],
      "translation" : [ 0.373175, 2.32044e-17, 1.21516e-07 ],
      "rotation" : [ 1.13979e-12, 0.00233943, 1.16306e-14, -0.999997 ]
    },
    {
      "name" : "c_back8",
      "children" : [ 10 ],
      "translation" : [ 0.373176, 1.27199e-17, 1.18359e-07 ],
      "rotation" : [ 1.15904e-12, 0.0023395, 1.70059e-14, -0.999997 ]
    },
    {
      "name" : "c_back9",
      "children" : [ 11 ],
      "translation" : [ 0.373174, 1.65849e-18, -9.96001e-08 ],
      "rotation" : [ 5.63304e-12, 0.00233948, 3.29977e-14, -0.999997 ]
    },
    {
      "name" : "c_back10",
      "children" : [ 12 ],
      "translation" : [ 0.373175, 6.15389e-17, 1.42221e-07 ],
      "rotation" : [ -1.31223e-11, 0.00233947, 1.53178e-14, -0.999997 ]
    },
    {
      "name" : "c_back11",
      "children" : [ 13 ],
      "translation" : [ 0.373174, 8.24648e-18, -1.60185e-07 ],
      "rotation" : [ -2.59704e-12, 0.00233948, -2.12989e-14, -0.999997 ]
    },
    {
      "name" : "c_back12",
      "children" : [ 14 ],
      "translation" : [ 0.373175, 7.33643e-17, 7.40002e-08 ],
      "rotation" : [ 4.75065e-12, 0.00233947, -1.64284e-14, -0.999997 ]
    },
    {
      "name" : "c_back13",
      "children" : [ 15 ],
      "translation" : [ 0.373175, 1.05584e-17, 5.06431e-08 ],
      "rotation" : [ 8.25293e-13, 0.00233947, -3.34656e-15, -0.999997 ]
    },
    {
      "name" : "c_back14",
      "children" : [ 16 ],
      "translation" : [ 0.373175, -2.39981e-17, -3.7417e-09 ],
      "rotation" : [ -4.72615e-13, 0.00233945, -2.46567e-15, -0.999997 ]
    },
    {
      "name" : "c_back15",
      "children" : [ 17 ],
      "translation" : [ 0.373175, -1.67863e-17, 9.17231e-09 ],
      "rotation" : [ 8.98561e-13, 0.00233948, -1.48171e-15, -0.999997 ]
    },
    {
      "name" : "c_back16",
      "children" : [ 18 ],
      "translation" : [ 0.373175, -1.89199e-17, -7.23045e-08 ],
      "rotation" : [ -1.48654e-14, 0.00233947, 6.20761e-16, -0.999997 ]
    },
    {
      "name" : "c_back17",
      "children" : [ 19 ],
      "translation" : [ 0.373175, 5.09971e-18, 9.52139e-09 ],
      "rotation" : [ -5.62244e-13, 0.0023395, -7.62857e-16, -0.999997 ]
    },
    {
      "name" : "c_back18",
      "children" : [ 20 ],
      "translation" : [ 0.373175, 4.10066e-18, -6.60193e-08 ],
      "rotation" : [ -9.14104e-13, 0.00233949, -4.20296e-15, -0.999997 ]
    },
    {
      "name" : "c_back19",
      "children" : [ 21 ],
      "translation" : [ 0.373174, 1.36226e-17, 3.84338e-08 ],
      "rotation" : [ 6.6638e-13, 0.00233945, -4.86473e-15, -0.999997 ]
    },
    {
      "name" : "c_back20",
      "children" : [ 22 ],
      "translation" : [ 0.373174, -3.82696e-17, 1.9245e-07 ],
      "rotation" : [ 1.45354e-13, 0.00233949, -2.80472e-15, -0.999997 ]
    },
    {
      "name" : "c_back21",
      "children" : [ 23 ],
      "translation" : [ 0.373177, 2.95184e-17, -7.37975e-08 ],
      "rotation" : [ 1.3403e-13, 0.0023395, -2.30735e-15, -0.999997 ]
    },
    {
      "name" : "c_back22",
      "children" : [ 24 ],
      "translation" : [ 0.373174, -1.88829e-17, -5.30402e-09 ],
      "rotation" : [ 3.05807e-13, 0.00233947, -1.16482e-15, -0.999997 ]
    },
    {
      "name" : "c_back23",
      "children" : [ 25 ],
      "translation" : [ 0.373175, 1.73385e-17, -1.18092e-07 ],
      "rotation" : [ -3.59945e-14, 0.00233946, -5.71353e-16, -0.999997 ]
    },
    {
      "name" : "c_back24",
      "children" : [ 26 ],
      "translation" : [ 0.373176, 2.53683e-17, -2.17286e-07 ],
      "rotation" : [ -3.08168e-13, 0.00233946, -1.42649e-15, -0.999997 ]
    },
    {
      "name" : "c_back25",
      "translation" : [ 0.373175, -3.6273e-18, 1.98301e-07 ],
      "rotation" : [ 5.81309e-13, 0.00233947, -7.55224e-16, -0.999997 ]
    },
    {
      "name" : "c_head",
      "children" : [ 28, 29, 39, 40, 42, 44, 46, 48, 50, 52, 54 ],
      "translation" : [ -0.0214061, 1.09494e-16, -0.000853971 ],
      "rotation" : [ -0.0199355, -2.06395e-11, 0.999801, -4.08986e-13 ]
    },
    {
      "name" : "l_eye",
      "translation" : [ 0.215061, -0.0901992, -0.056747 ],
      "rotation" : [ -0.0859339, -0.1314, 0.536233, -0.829339 ]
    },
    {
      "name" : "c_jaw",
      "children" : [ 30, 37, 38 ],
      "translation" : [ 0.0364806, -2.78029e-12, 0.0675475 ],
      "rotation" : [ -1.96945e-11, 0.289784, 5.96462e-12, -0.957092 ]
    },
    {
      "name" : "c_tongue1",
      "children" : [ 31 ],
      "translation" : [ 0.162046, -1.53631e-17, 0.000439014 ],
      "rotation" : [ -1.48717e-13, -0.197366, 2.88739e-14, -0.98033 ]
    },
    {
      "name" : "c_tongue2",
      "children" : [ 32 ],
      "translation" : [ 0.0538571, 4.86061e-19, 1.50821e-07 ],
      "rotation" : [ 4.90857e-14, 0.104316, -2.60173e-14, -0.994544 ]
    },
    {
      "name" : "c_tongue3",
      "children" : [ 33 ],
      "translation" : [ 0.0449791, -8.57401e-18, 1.58778e-06 ],
      "rotation" : [ 6.21603e-14, 0.0836716, -1.13619e-14, -0.996493 ]
    },
    {
      "name" : "c_tongue4",
      "children" : [ 34 ],
      "translation" : [ 0.0490592, -2.24016e-18, -1.76203e-06 ],
      "rotation" : [ 3.1009e-14, 0.0899186, -3.83501e-15, -0.995949 ]
    },
    {
      "name" : "c_tongue5",
      "children" : [ 35, 36 ],
      "translation" : [ 0.0398515, 2.28892e-18, -1.22874e-06 ],
      "rotation" : [ -1.80925e-14, 0.0664311, -2.0436e-15, -0.997791 ]
    },
    {
      "name" : "l_tongue",
      "translation" : [ 0.02613, -0.00775429, 1.13687e-15 ],
      "rotation" : [ -3.72231e-24, 2.77556e-17, 1.49926e-24, -1 ]
    },
    {
      "name" : "r_tongue",
      "translation" : [ 0.0261309, 0.00775429, -1.1e-06 ],
      "rotation" : [ 3.90857e-17, -1, 6.38873e-17, -6.12323e-17 ]
    },
    {
      "name" : "l_jaw",
      "translation" : [ 1.13687e-15, -0.13137, 3.12639e-15 ],
      "rotation" : [ 4.54949e-24, -0, 2.79173e-24, -1 ]
    },
    {
      "name" : "r_jaw",
      "translation" : [ 2.71e-06, 0.13137, -1.35e-06 ],
      "rotation" : [ -4.14765e-17, -1, -8.34771e-17, -6.12323e-17 ]
    },
    {
      "name" : "r_eye",
      "translation" : [ 0.215065, 0.0902026, -0.0567452 ],
      "rotation" : [ 0.536233, -0.829339, 0.0859336, 0.1314 ]
    },
    {
      "name" : "r_frillC1",
      "children" : [ 41 ],
      "translation" : [ 0.00638898, 0.1856, 0.0860316 ],
      "rotation" : [ -0.184633, -0.767637, 0.513971, 0.335376 ]
    },
    {
      "name" : "r_frillC2",
      "translation" : [ 0.418418, -1.61648e-15, 1e-08 ],
      "rotation" : [ -1.38778e-17, -4.85723e-17, 6.74075e-34, -1 ]
    },
    {
      "name" : "r_frillB1",
      "children" : [ 43 ],
      "translation" : [ -0.00718733, 0.162564, -0.0416664 ],
      "rotation" : [ -0.373996, -0.481936, 0.76042, 0.22277 ]
    },
    {
      "name" : "r_frillB2",
      "translation" : [ 0.281085, -4.61853e-16, -1.13687e-15 ],
      "rotation" : [ 1.92593e-34, 6.93889e-18, -2.77556e-17, -1 ]
    },
    {
      "name" : "r_frillA1",
      "children" : [ 45 ],
      "translation" : [ 0.0283929, 0.0305202, -0.111579 ],
      "rotation" : [ -0.48233, -0.290269, 0.818496, 0.11474 ]
    },
    {
      "name" : "r_frillA2",
      "translation" : [ 0.332205, 1.42109e-16, -0 ],
      "rotation" : [ -1.38778e-17, -2.77556e-17, 3.85186e-34, -1 ]
    },
    {
      "name" : "r_frillD1",
      "children" : [ 47 ],
      "translation" : [ 0.0703851, 0.100257, 0.17764 ],
      "rotation" : [ -0.0548285, -0.849803, 0.231507, 0.470355 ]
    },
    {
      "name" : "r_frillD2",
      "translation" : [ 0.358176, 0, -0 ],
      "rotation" : [ 4.16334e-17, -1.15556e-33, 2.77556e-17, -1 ]
    },
    {
      "name" : "l_frillA1",
      "children" : [ 49 ],
      "translation" : [ 0.0283899, -0.0305212, -0.111581 ],
      "rotation" : [ -0.818496, -0.11474, -0.48233, -0.290269 ]
    },
    {
      "name" : "l_frillA2",
      "translation" : [ -0.332204, -8.19999e-07, 2.32e-06 ],
      "rotation" : [ 1.38778e-17, -2.77556e-17, -3.85186e-34, -1 ]
    },
    {
      "name" : "l_frillB1",
      "children" : [ 51 ],
      "translation" : [ -0.00718366, -0.162564, -0.0416669 ],
      "rotation" : [ -0.76042, -0.22277, -0.373996, -0.481936 ]
    },
    {
      "name" : "l_frillB2",
      "translation" : [ -0.281085, 6.4e-07, 3.5e-07 ],
      "rotation" : [ -9.62965e-34, 3.46945e-17, 2.77556e-17, -1 ]
    },
    {
      "name" : "l_frillC1",
      "children" : [ 53 ],
      "translation" : [ 0.00639157, -0.1856, 0.0860311 ],
      "rotation" : [ -0.51397, -0.335376, -0.184634, -0.767638 ]
    },
    {
      "name" : "l_frillC2",
      "translation" : [ -0.418422, 4.00035e-08, -4.16e-06 ],
      "rotation" : [ 1.38778e-17, -6.93889e-18, 2.77556e-17, -1 ]
    },
    {
      "name" : "l_frillD1",
      "children" : [ 55 ],
      "translation" : [ 0.0703898, -0.100254, 0.177641 ],
      "rotation" : [ -0.231507, -0.470355, -0.0548286, -0.849803 ]
    },
    {
      "name" : "l_frillD2",
      "translation" : [ -0.358176, 5.2e-07, 2.9e-07 ],
      "rotation" : [ 1.38778e-17, 2.77556e-17, 3.85186e-34, -1 ]
    }
  ],
  "skins" : [
    {
      "inverseBindMatrices" : 0,
      "skeleton" : 1,
      "joints" : [
        1,2,3,4,5,6,7,8,9,10,11,12,13,14,15,16,17,18,19,20,21,22,23,24,25,26,27,28,29,30,31,32,
        33,34,35,36,37,38,39,40,41,42,43,44,45,46,47,48,49,50,51,52,53,54,55
      ]
    }
  ],
  "materials" : [
    {
      "name" : "dummy_material_0",
      "pbrMetallicRoughness" : {
        "baseColorFactor" : [ 0.3, 0.3, 0.3, 1.0 ],
        "metallicFactor" : 0.1,
        "roughnessFactor" : 0.5
      }
    },
    {
      "name" : "dummy_material_1",
      "pbrMetallicRoughness" : {
        "baseColorFactor" : [ 0.9, 0.3, 0.3, 1.0 ],
        "metallicFactor" : 0.1,
        "roughnessFactor" : 0.5
      }
    }
  ],
  "meshes" : [
    {
      "primitives" : [
        {
          "attributes" : {
            "POSITION" : 2,
            "NORMAL" : 3,
            "TANGENT" : 4,
            "COLOR_0" : 5,
            "JOINTS_0" : 6,
            "WEIGHTS_0" : 7,
            "TEXCOORD_0" : 8,
            "TEXCOORD_1" : 9
          },
          "indices" : 1,
          "material" : 0
        },
        {
          "attributes" : {
            "POSITION" : 11,
            "NORMAL" : 12,
            "TANGENT" : 13,
            "COLOR_0" : 14,
            "JOINTS_0" : 15,
            "WEIGHTS_0" : 16,
            "TEXCOORD_0" : 17,
            "TEXCOORD_1" : 18
          },
          "indices" : 10,
          "material" : 1
        }
      ],
      "name" : "BoaFrill"
    }
  ],
  "buffers" : [
    {
      "uri" : "BoaFrill.bin",
      "byteLength" : 1491844
    }
  ],
  "bufferViews" : [
    {
      "buffer" : 0,
      "byteOffset" : 0,
      "byteLength" : 3520
    },
    {
      "buffer" : 0,
      "byteOffset" : 3520,
      "byteLength" : 164040
    },
    {
      "buffer" : 0,
      "byteOffset" : 167560,
      "byteLength" : 183288
    },
    {
      "buffer" : 0,
      "byteOffset" : 350848,
      "byteLength" : 183288
    },
    {
      "buffer" : 0,
      "byteOffset" : 534136,
      "byteLength" : 244384
    },
    {
      "buffer" : 0,
      "byteOffset" : 778520,
      "byteLength" : 61096
    },
    {
      "buffer" : 0,
      "byteOffset" : 839616,
      "byteLength" : 122192
    },
    {
      "buffer" : 0,
      "byteOffset" : 961808,
      "byteLength" : 61096
    },
    {
      "buffer" : 0,
      "byteOffset" : 1022904,
      "byteLength" : 122192
    },
    {
      "buffer" : 0,
      "byteOffset" : 1145096,
      "byteLength" : 122192
    },
    {
      "buffer" : 0,
      "byteOffset" : 1267288,
      "byteLength" : 28716
    },
    {
      "buffer" : 0,
      "byteOffset" : 1296004,
      "byteLength" : 32640
    },
    {
      "buffer" : 0,
      "byteOffset" : 1328644,
      "byteLength" : 32640
    },
    {
      "buffer" : 0,
      "byteOffset" : 1361284,
      "byteLength" : 43520
    },
    {
      "buffer" : 0,
      "byteOffset" : 1404804,
      "byteLength" : 10880
    },
    {
      "buffer" : 0,
      "byteOffset" : 1415684,
      "byteLength" : 21760
    },
    {
      "buffer" : 0,
      "byteOffset" : 1437444,
      "byteLength" : 10880
    },
    {
      "buffer" : 0,
      "byteOffset" : 1448324,
      "byteLength" : 21760
    },
    {
      "buffer" : 0,
      "byteOffset" : 1470084,
      "byteLength" : 21760
    }
  ],
  "accessors" : [
    {
      "bufferView" : 0,
      "componentType" : 5126,
      "count" : 55,
      "type" : "MAT4"
    },
    {
      "bufferView" : 1,
      "componentType" : 5123,
      "count" : 82020,
      "type" : "SCALAR"
    },
    {
      "bufferView" : 2,
      "min" : [ -0.299332, -0.0891303, -4.65765 ],
      "max" : [ 0.299332, 0.497247, 4.69943 ],
      "componentType" : 5126,
      "count" : 15274,
      "type" : "VEC3"
    },
    {
      "bufferView" : 3,
      "componentType" : 5126,
      "count" : 15274,
      "type" : "VEC3"
    },
    {
      "bufferView" : 4,
      "componentType" : 5126,
      "count" : 15274,
      "type" : "VEC4"
    },
    {
      "bufferView" : 5,
      "normalized" : true,
      "componentType" : 5121,
      "count" : 15274,
      "type" : "VEC4"
    },
    {
      "bufferView" : 6,
      "componentType" : 5123,
      "count" : 15274,
      "type" : "VEC4"
    },
    {
      "bufferView" : 7,
      "normalized" : true,
      "componentType" : 5121,
      "count" : 15274,
      "type" : "VEC4"
    },
    {
      "bufferView" : 8,
      "componentType" : 5126,
      "count" : 15274,
      "type" : "VEC2"
    },
    {
      "bufferView" : 9,
      "componentType" : 5126,
      "count" : 15274,
      "type" : "VEC2"
    },
    {
      "bufferView" : 10,
      "componentType" : 5123,
      "count" : 14358,
      "type" : "SCALAR"
    },
    {
      "bufferView" : 11,
      "min" : [ -0.490969, -0.303211, 4.02044 ],
      "max" : [ 0.490969, 0.594189, 4.4248 ],
      "componentType" : 5126,
      "count" : 2720,
      "type" : "VEC3"
    },
    {
      "bufferView" : 12,
      "componentType" : 5126,
      "count" : 2720,
      "type" : "VEC3"
    },
    {
      "bufferView" : 13,
      "componentType" : 5126,
      "count" : 2720,
      "type" : "VEC4"
    },
    {
      "bufferView" : 14,
      "normalized" : true,
      "componentType" : 5121,
      "count" : 2720,
      "type" : "VEC4"
    },
    {
      "bufferView" : 15,
      "componentType" : 5123,
      "count" : 2720,
      "type" : "VEC4"
    },
    {
      "bufferView" : 16,
      "normalized" : true,
      "componentType" : 5121,
      "count" : 2720,
      "type" : "VEC4"
    },
    {
      "bufferView" : 17,
      "componentType" : 5126,
      "count" : 2720,
      "type" : "VEC2"
    },
    {
      "bufferView" : 18,
      "componentType" : 5126,
      "count" : 2720,
      "type" : "VEC2"
    }
  ]
}
