{
  "asset" : {
    "generator" : "UE Viewer (umodel) build 1612-floxay",
    "version" : "2.0"
  },
  "scene" : 0,
  "scenes" : [
    {
      "nodes" : [ 0 ]
    }
  ],
  "nodes" : [
    {
      "name" : "Allosaurus",
      "mesh" : 0,
      "skin" : 0,
      "children" : [ 1 ]
    },
    {
      "name" : "root",
      "children" : [ 2 ],
      "translation" : [ 0, 0, -0 ],
      "rotation" : [ -0.707107, -0, 0, -0.707107 ]
    },
    {
      "name" : "c_back1",
      "children" : [ 3, 49, 62, 67 ],
      "translation" : [ -9.01824e-17, -0.323927, -2.6465 ],
      "rotation" : [ 0.0414298, -0.0414298, -0.705892, -0.705892 ]
    },
    {
      "name" : "c_back2",
      "children" : [ 4 ],
      "translation" : [ 0.529293, 6.41473e-17, 1.13687e-15 ],
      "rotation" : [ 3.84929e-34, 0.0365228, 1.40681e-35, -0.999333 ]
    },
    {
      "name" : "c_back3",
      "children" : [ 5 ],
      "translation" : [ 0.502338, 1.24577e-16, -5.68434e-16 ],
      "rotation" : [ 3.84482e-34, 0.0177983, 4.29611e-35, -0.999842 ]
    },
    {
      "name" : "c_back4",
      "children" : [ 6, 21, 35 ],
      "translation" : [ 0.402836, 9.97868e-17, -1.7053e-15 ],
      "rotation" : [ 3.85757e-34, -0.0124804, 4.33372e-35, -0.999922 ]
    },
    {
      "name" : "c_neck1",
      "children" : [ 7 ],
      "translation" : [ 0.597443, 1.49463e-16, -1.7053e-15 ],
      "rotation" : [ 3.69068e-34, -0.286245, -1.10258e-34, -0.958156 ]
    },
    {
      "name" : "c_neck2",
      "children" : [ 8 ],
      "translation" : [ 0.416913, 8.43884e-17, 2.84217e-16 ],
      "rotation" : [ -2.12125e-36, -0.00550708, -3.8518e-34, -0.999985 ]
    },
    {
      "name" : "c_neck3",
      "children" : [ 9 ],
      "translation" : [ 0.37597, 8.27932e-17, -2.70006e-15 ],
      "rotation" : [ 4.19383e-34, 0.23225, -9.78673e-35, -0.972656 ]
    },
    {
      "name" : "c_head",
      "children" : [ 10, 15, 16, 17, 18, 19, 20 ],
      "translation" : [ 0.338641, -4.00968e-17, -1.7053e-15 ],
      "rotation" : [ 7.92932e-34, 0.294368, 4.27132e-35, -0.955692 ]
    },
    {
      "name" : "c_jaw",
      "children" : [ 11 ],
      "translation" : [ 0.19539, 2.94162e-15, 0.175752 ],
      "rotation" : [ -3.82332e-34, 0.121503, -4.68013e-35, -0.992591 ]
    },
    {
      "name" : "c_tongue1",
      "children" : [ 12 ],
      "translation" : [ 0.378397, -6.37222e-16, -2.84217e-15 ],
      "rotation" : [ -2.70939e-34, -0.289897, 4.34229e-34, -0.957058 ]
    },
    {
      "name" : "c_tongue2",
      "children" : [ 13 ],
      "translation" : [ 0.173371, -7.16171e-17, 5.68434e-16 ],
      "rotation" : [ 5.86365e-34, 0.281341, -6.30886e-34, -0.959608 ]
    },
    {
      "name" : "c_tongue3",
      "children" : [ 14 ],
      "translation" : [ 0.143172, 1.25572e-15, -1.13687e-15 ],
      "rotation" : [ -3.00624e-34, -0.139809, 6.25957e-34, -0.990178 ]
    },
    {
      "name" : "c_tongue4",
      "translation" : [ 0.129805, -4.10721e-16, 5.68434e-16 ],
      "rotation" : [ -0, -2.77556e-17, -1.92593e-34, -1 ]
    },
    {
      "name" : "l_lowerEye",
      "translation" : [ 0.456324, -0.248393, -0.174894 ],
      "rotation" : [ 0.152686, -0.152686, 0.690425, -0.690425 ]
    },
    {
      "name" : "l_eye",
      "translation" : [ 0.44135, -0.215034, -0.211253 ],
      "rotation" : [ 0.152686, -0.152686, 0.690425, -0.690425 ]
    },
    {
      "name" : "l_upperEye",
      "translation" : [ 0.445704, -0.260758, -0.264044 ],
      "rotation" : [ 0.152686, -0.152686, 0.690425, -0.690425 ]
    },
    {
      "name" : "r_upperEye",
      "translation" : [ 0.445704, 0.260758, -0.264044 ],
      "rotation" : [ -0.152686, -0.152686, -0.690425, -0.690425 ]
    },
    {
      "name" : "r_eye",
      "translation" : [ 0.44135, 0.215034, -0.211253 ],
      "rotation" : [ -0.152686, -0.152686, -0.690425, -0.690425 ]
    },
    {
      "name" : "r_lowerEye",
      "translation" : [ 0.456324, 0.248393, -0.174894 ],
      "rotation" : [ -0.152686, -0.152686, -0.690425, -0.690425 ]
    },
    {
      "name" : "l_clavicle",
      "children" : [ 22 ],
      "translation" : [ 0.591662, -0.0971305, 0.278587 ],
      "rotation" : [ -0.00214506, 0.38288, 0.707103, -0.594477 ]
    },
    {
      "name" : "l_shoulder",
      "children" : [ 23 ],
      "translation" : [ 0.364046, -4.26326e-16, 1.13687e-15 ],
      "rotation" : [ 0.0843898, 0.353086, -0.114078, -0.924767 ]
    },
    {
      "name" : "l_elbow",
      "children" : [ 24, 34 ],
      "translation" : [ 0.527517, 0, -1.13687e-15 ],
      "rotation" : [ 0.0628266, 0.12141, -0.465174, -0.8746 ]
    },
    {
      "name" : "l_wrist",
      "children" : [ 25, 28, 31 ],
      "translation" : [ 0.519722, 5.68434e-16, 9.23706e-16 ],
      "rotation" : [ -0.0387875, -0.00145417, -0.0343399, -0.998656 ]
    },
    {
      "name" : "l_finger_A1",
      "children" : [ 26 ],
      "translation" : [ 0.203839, -0.0185224, 0.0103566 ],
      "rotation" : [ -0.287259, 0.108265, 0.153593, -0.939239 ]
    },
    {
      "name" : "l_finger_A2",
      "children" : [ 27 ],
      "translation" : [ 0.0617847, 1.42109e-15, -5.68434e-16 ],
      "rotation" : [ 0.000392201, -0.0328259, 0.00673608, -0.999438 ]
    },
    {
      "name" : "l_finger_A3",
      "translation" : [ 0.0556174, -1.13687e-15, 1.7053e-15 ],
      "rotation" : [ -0, 1.38778e-17, -0, -1 ]
    },
    {
      "name" : "l_finger_C1",
      "children" : [ 29 ],
      "translation" : [ 0.0933902, -0.169471, -0.00536328 ],
      "rotation" : [ 0.0973462, -0.0219562, 0.543253, -0.833617 ]
    },
    {
      "name" : "l_finger_C2",
      "children" : [ 30 ],
      "translation" : [ 0.073308, 8.52651e-16, -7.81597e-16 ],
      "rotation" : [ -0.0752899, 0.0528706, 0.021575, -0.995525 ]
    },
    {
      "name" : "l_finger_C3",
      "translation" : [ 0.0770693, -1.42109e-16, -0 ],
      "rotation" : [ -1.92593e-34, 6.93889e-18, 2.77556e-17, -1 ]
    },
    {
      "name" : "l_finger_B1",
      "children" : [ 32 ],
      "translation" : [ 0.167896, -0.0968459, -0.0143852 ],
      "rotation" : [ -0.0489772, -0.0240131, 0.406898, -0.911843 ]
    },
    {
      "name" : "l_finger_B2",
      "children" : [ 33 ],
      "translation" : [ 0.0937509, -5.68434e-16, -1.42109e-16 ],
      "rotation" : [ 0.00199378, 0.0373648, 0.0257897, -0.998967 ]
    },
    {
      "name" : "l_finger_B3",
      "translation" : [ 0.0965778, 5.68434e-16, -2.84217e-16 ],
      "rotation" : [ -3.90313e-18, -3.46945e-18, -6.93889e-18, -1 ]
    },
    {
      "name" : "l_forearmTwist",
      "translation" : [ 0.2, -5.68434e-16, -1.42109e-16 ],
      "rotation" : [ 1.0842e-19, -2.1684e-19, 5.55111e-17, -1 ]
    },
    {
      "name" : "r_clavicle",
      "children" : [ 36 ],
      "translation" : [ 0.591662, 0.0971305, 0.278587 ],
      "rotation" : [ -0.707103, 0.594477, -0.00214506, 0.38288 ]
    },
    {
      "name" : "r_shoulder",
      "children" : [ 37 ],
      "translation" : [ -0.364046, 7.10543e-16, -5.68434e-16 ],
      "rotation" : [ 0.0843898, 0.353086, -0.114078, -0.924767 ]
    },
    {
      "name" : "r_elbow",
      "children" : [ 38, 48 ],
      "translation" : [ -0.527517, 8.52651e-16, 8.52651e-16 ],
      "rotation" : [ 0.0628266, 0.12141, -0.465174, -0.8746 ]
    },
    {
      "name" : "r_wrist",
      "children" : [ 39, 42, 45 ],
      "translation" : [ -0.519722, -5.68434e-16, -3.55271e-16 ],
      "rotation" : [ -0.0387875, -0.00145417, -0.0343399, -0.998656 ]
    },
    {
      "name" : "r_finger_A1",
      "children" : [ 40 ],
      "translation" : [ -0.203839, 0.0185224, -0.0103566 ],
      "rotation" : [ -0.287259, 0.108265, 0.153593, -0.939239 ]
    },
    {
      "name" : "r_finger_A2",
      "children" : [ 41 ],
      "translation" : [ -0.0617847, -1.13687e-15, -2.84217e-16 ],
      "rotation" : [ 0.000392201, -0.0328259, 0.00673608, -0.999438 ]
    },
    {
      "name" : "r_finger_A3",
      "translation" : [ -0.0556174, 1.7053e-15, -1.13687e-15 ],
      "rotation" : [ 3.46945e-17, 1.38778e-17, 4.81482e-34, -1 ]
    },
    {
      "name" : "r_finger_C1",
      "children" : [ 43 ],
      "translation" : [ -0.0933902, 0.169471, 0.00536328 ],
      "rotation" : [ 0.0973462, -0.0219562, 0.543253, -0.833617 ]
    },
    {
      "name" : "r_finger_C2",
      "children" : [ 44 ],
      "translation" : [ -0.073308, -2.84217e-16, 6.39488e-16 ],
      "rotation" : [ -0.0752899, 0.0528706, 0.021575, -0.995525 ]
    },
    {
      "name" : "r_finger_C3",
      "translation" : [ -0.0770693, 5.68434e-16, -0 ],
      "rotation" : [ -3.46945e-18, -0, 0, -1 ]
    },
    {
      "name" : "r_finger_B1",
      "children" : [ 46 ],
      "translation" : [ -0.167896, 0.0968459, 0.0143852 ],
      "rotation" : [ -0.0489772, -0.0240131, 0.406898, -0.911843 ]
    },
    {
      "name" : "r_finger_B2",
      "children" : [ 47 ],
      "translation" : [ -0.0937509, -2.84217e-16, 2.84217e-16 ],
      "rotation" : [ 0.00199378, 0.0373648, 0.0257897, -0.998967 ]
    },
    {
      "name" : "r_finger_B3",
      "translation" : [ -0.0965778, 2.84217e-16, -0 ],
      "rotation" : [ 3.46945e-18, -3.46945e-18, -6.93889e-18, -1 ]
    },
    {
      "name" : "r_forearmTwist",
      "translation" : [ -0.2, -2.33058e-14, 4.26326e-16 ],
      "rotation" : [ -2.77556e-16, -1, 1.0842e-19, -6.12323e-17 ]
    },
    {
      "name" : "l_hip",
      "children" : [ 50 ],
      "translation" : [ 0.179992, -0.501462, 0.271447 ],
      "rotation" : [ 0.546903, 0.429547, 0.448213, -0.561686 ]
    },
    {
      "name" : "l_knee",
      "children" : [ 51 ],
      "translation" : [ 1.05557, 4.26326e-16, -1.42109e-16 ],
      "rotation" : [ -0.580725, 0.375137, 0.342411, -0.636227 ]
    },
    {
      "name" : "l_ankle",
      "children" : [ 52 ],
      "translation" : [ 1.05551, -1.42109e-16, -1.42109e-15 ],
      "rotation" : [ -0.0350405, -0.569034, 0.0242746, -0.821208 ]
    },
    {
      "name" : "l_heel",
      "children" : [ 53 ],
      "translation" : [ 0.593698, -2.84217e-16, -1.77636e-16 ],
      "rotation" : [ 0.0366713, -0.509315, 0.0217348, -0.859523 ]
    },
    {
      "name" : "l_ball0",
      "children" : [ 54, 57, 60 ],
      "translation" : [ 0.122748, -5.68434e-16, 3.73035e-16 ],
      "rotation" : [ 6.24161e-23, -3.32452e-05, 1.87745e-18, -1 ]
    },
    {
      "name" : "l_toe_C1",
      "children" : [ 55 ],
      "translation" : [ 0.00724897, -0.154002, -0.00481236 ],
      "rotation" : [ -0.00667227, 0.0186852, 0.336225, -0.941572 ]
    },
    {
      "name" : "l_toe_C2",
      "children" : [ 56 ],
      "translation" : [ 0.105841, 8.2423e-15, 5.32907e-17 ],
      "rotation" : [ -0, -0, 3.48029e-17, -1 ]
    },
    {
      "name" : "l_toe_C3",
      "translation" : [ 0.102698, 7.10543e-17, 1.77636e-17 ],
      "rotation" : [ -0, -0, 3.48029e-17, -1 ]
    },
    {
      "name" : "l_toe_B1",
      "children" : [ 58 ],
      "translation" : [ 0.0912793, 1.20792e-15, -0.00147595 ],
      "rotation" : [ -4.30337e-19, 0.0198407, -5.63733e-18, -0.999803 ]
    },
    {
      "name" : "l_toe_B2",
      "children" : [ 59 ],
      "translation" : [ 0.171673, 7.95808e-15, 8.88178e-17 ],
      "rotation" : [ -2.71051e-19, -3.46945e-18, -5.63954e-18, -1 ]
    },
    {
      "name" : "l_toe_B3",
      "translation" : [ 0.123561, -7.10543e-17, 3.55271e-17 ],
      "rotation" : [ -2.71051e-19, -3.46945e-18, -5.63954e-18, -1 ]
    },
    {
      "name" : "l_toe_A1",
      "children" : [ 61 ],
      "translation" : [ 0.00885822, 0.145742, -0.000461398 ],
      "rotation" : [ 0.00568163, 0.0190098, -0.286305, -0.957933 ]
    },
    {
      "name" : "l_toe_A2",
      "translation" : [ 0.17862, 7.53175e-15, 2.30926e-16 ],
      "rotation" : [ 1.73472e-18, -2.06887e-35, 1.19262e-17, -1 ]
    },
    {
      "name" : "c_tail1",
      "children" : [ 63 ],
      "translation" : [ -0.781824, -1.13483e-16, 0.0776827 ],
      "rotation" : [ -0.000319934, 6.12323e-17, 1, 1.95903e-20 ]
    },
    {
      "name" : "c_tail2",
      "children" : [ 64 ],
      "translation" : [ 0.903979, -2.43598e-16, 2.84217e-15 ],
      "rotation" : [ 1.23176e-32, -0.0100611, -8.94345e-34, -0.999949 ]
    },
    {
      "name" : "c_tail3",
      "children" : [ 65 ],
      "translation" : [ 0.91919, 2.58865e-16, -2.84217e-15 ],
      "rotation" : [ -1.23319e-32, -0.0294782, -2.16715e-35, -0.999565 ]
    },
    {
      "name" : "c_tail4",
      "children" : [ 66 ],
      "translation" : [ 0.975734, 2.39056e-16, 1.42109e-15 ],
      "rotation" : [ -1.23303e-32, -0.00382921, -1.10835e-33, -0.999993 ]
    },
    {
      "name" : "c_tail5",
      "translation" : [ 0.852788, 2.00265e-16, 1.98952e-15 ],
      "rotation" : [ 1.2326e-32, 0, -3.85186e-34, -1 ]
    },
    {
      "name" : "r_hip",
      "children" : [ 68 ],
      "translation" : [ 0.179992, 0.501462, 0.271446 ],
      "rotation" : [ 0.448211, -0.561688, -0.546906, -0.429543 ]
    },
    {
      "name" : "r_knee",
      "children" : [ 69 ],
      "translation" : [ -1.05557, -1.52127e-07, -5.09381e-07 ],
      "rotation" : [ -0.580719, 0.375148, 0.342421, -0.636221 ]
    },
    {
      "name" : "r_ankle",
      "children" : [ 70 ],
      "translation" : [ -1.05551, -6.83369e-08, 1.7973e-06 ],
      "rotation" : [ -0.0350387, -0.569041, 0.0242797, -0.821204 ]
    },
    {
      "name" : "r_heel",
      "children" : [ 71 ],
      "translation" : [ -0.593698, 3.42057e-07, 1.56104e-07 ],
      "rotation" : [ -0.851072, -0.0313069, 0.508799, -0.125778 ]
    },
    {
      "name" : "r_ball0",
      "children" : [ 72, 75, 78 ],
      "translation" : [ -0.122748, -1.80475e-08, -1.54759e-08 ],
      "rotation" : [ -0.994588, -6.65808e-05, 4.88775e-06, 0.103899 ]
    },
    {
      "name" : "r_toe_C1",
      "children" : [ 73 ],
      "translation" : [ -0.00724901, 0.154002, 0.00481243 ],
      "rotation" : [ -0.00667226, 0.0186852, 0.336225, -0.941572 ]
    },
    {
      "name" : "r_toe_C2",
      "children" : [ 74 ],
      "translation" : [ -0.105841, -7.30327e-10, -5.50153e-08 ],
      "rotation" : [ -1.97124e-08, -2.89593e-25, -1.46909e-17, -1 ]
    },
    {
      "name" : "r_toe_C3",
      "translation" : [ -0.102698, 2.69922e-07, -4.10153e-08 ],
      "rotation" : [ -2.8856e-08, -6.63257e-25, -2.29851e-17, -1 ]
    },
    {
      "name" : "r_toe_B1",
      "children" : [ 76 ],
      "translation" : [ -0.0912793, 5.39373e-07, 0.00147602 ],
      "rotation" : [ -7.63055e-08, 0.0198407, -4.48274e-10, -0.999803 ]
    },
    {
      "name" : "r_toe_B2",
      "children" : [ 77 ],
      "translation" : [ -0.171673, -8.73569e-07, -8.15407e-08 ],
      "rotation" : [ -9.62827e-08, 6.32864e-25, 6.57297e-18, -1 ]
    },
    {
      "name" : "r_toe_B3",
      "translation" : [ -0.123561, 5.38847e-07, 5.28192e-08 ],
      "rotation" : [ -1.91409e-07, 3.46945e-18, -8.80921e-20, -1 ]
    },
    {
      "name" : "r_toe_A1",
      "children" : [ 79 ],
      "translation" : [ -0.00885828, -0.145742, 0.000461421 ],
      "rotation" : [ 0.00568165, 0.0190098, -0.286305, -0.957933 ]
    },
    {
      "name" : "r_toe_A2",
      "translation" : [ -0.178621, 7.87673e-08, 1.8501e-08 ],
      "rotation" : [ -1.666e-08, -3.46945e-18, 1.38236e-17, -1 ]
    }
  ],
  "skins" : [
    {
      "inverseBindMatrices" : 0,
      "skeleton" : 1,
      "joints" : [
        1,2,3,4,5,6,7,8,9,10,11,12,13,14,15,16,17,18,19,20,21,22,23,24,25,26,27,28,29,30,31,32,
        33,34,35,36,37,38,39,40,41,42,43,44,45,46,47,48,49,50,51,52,53,54,55,56,57,58,59,60,61,62,63,64,
        65,66,67,68,69,70,71,72,73,74,75,76,77,78,79
      ]
    }
  ],
  "materials" : [
    {
      "name" : "dummy_material_0",
      "pbrMetallicRoughness" : {
        "baseColorFactor" : [ 0.3, 0.3, 0.3, 1.0 ],
        "metallicFactor" : 0.1,
        "roughnessFactor" : 0.5
      }
    }
  ],
  "meshes" : [
    {
      "primitives" : [
        {
          "attributes" : {
            "POSITION" : 2,
            "NORMAL" : 3,
            "TANGENT" : 4,
            "COLOR_0" : 5,
            "JOINTS_0" : 6,
            "WEIGHTS_0" : 7,
            "TEXCOORD_0" : 8,
            "TEXCOORD_1" : 9
          },
          "indices" : 1,
          "material" : 0
        }
      ],
      "name" : "Allosaurus"
    }
  ],
  "buffers" : [
    {
      "uri" : "Allosaurus.bin",
      "byteLength" : 810160
    }
  ],
  "bufferViews" : [
    {
      "buffer" : 0,
      "byteOffset" : 0,
      "byteLength" : 5056
    },
    {
      "buffer" : 0,
      "byteOffset" : 5056,
      "byteLength" : 96840
    },
    {
      "buffer" : 0,
      "byteOffset" : 101896,
      "byteLength" : 118044
    },
    {
      "buffer" : 0,
      "byteOffset" : 219940,
      "byteLength" : 118044
    },
    {
      "buffer" : 0,
      "byteOffset" : 337984,
      "byteLength" : 157392
    },
    {
      "buffer" : 0,
      "byteOffset" : 495376,
      "byteLength" : 39348
    },
    {
      "buffer" : 0,
      "byteOffset" : 534724,
      "byteLength" : 78696
    },
    {
      "buffer" : 0,
      "byteOffset" : 613420,
      "byteLength" : 39348
    },
    {
      "buffer" : 0,
      "byteOffset" : 652768,
      "byteLength" : 78696
    },
    {
      "buffer" : 0,
      "byteOffset" : 731464,
      "byteLength" : 78696
    }
  ],
  "accessors" : [
    {
      "bufferView" : 0,
      "componentType" : 5126,
      "count" : 79,
      "type" : "MAT4"
    },
    {
      "bufferView" : 1,
      "componentType" : 5123,
      "count" : 48420,
      "type" : "SCALAR"
    },
    {
      "bufferView" : 2,
      "min" : [ -0.970144, -0.0148543, -5.5483 ],
      "max" : [ 0.970144, 3.65744, 3.90183 ],
      "componentType" : 5126,
      "count" : 9837,
      "type" : "VEC3"
    },
    {
      "bufferView" : 3,
      "componentType" : 5126,
      "count" : 9837,
      "type" : "VEC3"
    },
    {
      "bufferView" : 4,
      "componentType" : 5126,
      "count" : 9837,
      "type" : "VEC4"
    },
    {
      "bufferView" : 5,
      "normalized" : true,
      "componentType" : 5121,
      "count" : 9837,
      "type" : "VEC4"
    },
    {
      "bufferView" : 6,
      "componentType" : 5123,
      "count" : 9837,
      "type" : "VEC4"
    },
    {
      "bufferView" : 7,
      "normalized" : true,
      "componentType" : 5121,
      "count" : 9837,
      "type" : "VEC4"
    },
    {
      "bufferView" : 8,
      "componentType" : 5126,
      "count" : 9837,
      "type" : "VEC2"
    },
    {
      "bufferView" : 9,
      "componentType" : 5126,
      "count" : 9837,
      "type" : "VEC2"
    }
  ]
}
