{
  "asset" : {
    "generator" : "UE Viewer (umodel) build 1612-floxay",
    "version" : "2.0"
  },
  "scene" : 0,
  "scenes" : [
    {
      "nodes" : [ 0 ]
    }
  ],
  "nodes" : [
    {
      "name" : "Giganotosaurus",
      "mesh" : 0,
      "skin" : 0,
      "children" : [ 1 ]
    },
    {
      "name" : "root",
      "children" : [ 2 ],
      "translation" : [ 0, 0, -0 ],
      "rotation" : [ -0.707107, -0, 0, -0.707107 ]
    },
    {
      "name" : "c_back1",
      "children" : [ 3, 52, 57, 74 ],
      "translation" : [ 7.32832e-19, -0.352055, -2.10615 ],
      "rotation" : [ 0.114881, -0.114881, -0.697712, -0.697712 ]
    },
    {
      "name" : "c_back2",
      "children" : [ 4 ],
      "translation" : [ 0.345677, 5.50043e-17, 1.13687e-15 ],
      "rotation" : [ -1.71101e-32, 0.0587138, 3.59518e-18, -0.998275 ]
    },
    {
      "name" : "c_back3",
      "children" : [ 5 ],
      "translation" : [ 0.345675, 5.89529e-17, -0 ],
      "rotation" : [ 5.5305e-16, 0.0860982, 5.30661e-17, -0.996287 ]
    },
    {
      "name" : "c_back4",
      "children" : [ 6, 21, 36 ],
      "translation" : [ 0.427421, 4.70432e-17, 1.13687e-15 ],
      "rotation" : [ -2.10867e-15, 0.0267835, -2.51221e-17, -0.999641 ]
    },
    {
      "name" : "c_neck1",
      "children" : [ 7 ],
      "translation" : [ 0.427421, 3.51739e-17, -0 ],
      "rotation" : [ 1.50729e-15, -0.244115, 3.64483e-16, -0.969746 ]
    },
    {
      "name" : "c_neck2",
      "children" : [ 8 ],
      "translation" : [ 0.294706, 2.92255e-17, -1.42109e-15 ],
      "rotation" : [ 6.4103e-33, 0.0453256, 2.77539e-18, -0.998972 ]
    },
    {
      "name" : "c_neck3",
      "children" : [ 9 ],
      "translation" : [ 0.262987, 6.9901e-19, -1.42109e-15 ],
      "rotation" : [ -1.70373e-32, 0.10217, 6.25608e-18, -0.994767 ]
    },
    {
      "name" : "c_head",
      "children" : [ 10, 15, 16, 17, 18, 19, 20 ],
      "translation" : [ 0.267019, -1.18933e-16, -5.68434e-16 ],
      "rotation" : [ -5.51513e-16, 0.113686, -5.61471e-17, -0.993517 ]
    },
    {
      "name" : "c_jaw",
      "children" : [ 11 ],
      "translation" : [ 0.00444104, 1.75435e-16, 0.171367 ],
      "rotation" : [ 4.02068e-16, 0.42461, -2.56847e-16, -0.905376 ]
    },
    {
      "name" : "c_tongue1",
      "children" : [ 12 ],
      "translation" : [ 0.299193, -3.96477e-16, -0.0246308 ],
      "rotation" : [ -1.02497e-16, -0.384295, 1.04465e-16, -0.92321 ]
    },
    {
      "name" : "c_tongue2",
      "children" : [ 13 ],
      "translation" : [ 0.151771, 2.88929e-17, 1.42109e-15 ],
      "rotation" : [ 8.27052e-32, 0.248132, -9.4999e-17, -0.968726 ]
    },
    {
      "name" : "c_tongue3",
      "children" : [ 14 ],
      "translation" : [ 0.134702, 9.2662e-18, -0 ],
      "rotation" : [ 1.10792e-16, -0.0643668, 1.74971e-17, -0.997926 ]
    },
    {
      "name" : "c_tongue4",
      "translation" : [ 0.152342, 1.79774e-17, -1.7053e-15 ],
      "rotation" : [ -6.60247e-33, -0.127999, 2.05839e-17, -0.991774 ]
    },
    {
      "name" : "l_eye",
      "translation" : [ 0.239686, -0.144051, -0.126678 ],
      "rotation" : [ -0.0274573, -0.0248818, 0.432311, -0.900963 ]
    },
    {
      "name" : "r_eye",
      "translation" : [ 0.239686, 0.14405, -0.126678 ],
      "rotation" : [ 0.433833, -0.900184, 0.0302267, 0.0233313 ]
    },
    {
      "name" : "r_upperEye",
      "translation" : [ 0.267303, 0.167499, -0.152736 ],
      "rotation" : [ -0.70691, 0.70691, 0.0166607, -0.0166607 ]
    },
    {
      "name" : "r_lowerEye",
      "translation" : [ 0.258049, 0.186518, -0.0750667 ],
      "rotation" : [ -0.70691, 0.70691, 0.0166607, -0.0166607 ]
    },
    {
      "name" : "l_upperEye",
      "translation" : [ 0.267303, -0.167499, -0.152736 ],
      "rotation" : [ 0.0166607, -0.0166607, 0.70691, -0.70691 ]
    },
    {
      "name" : "l_lowerEye",
      "translation" : [ 0.258049, -0.18652, -0.0750667 ],
      "rotation" : [ 0.0166607, -0.0166607, 0.70691, -0.70691 ]
    },
    {
      "name" : "l_scapula",
      "children" : [ 22 ],
      "translation" : [ 0.262718, -0.18144, -0.074256 ],
      "rotation" : [ -0.796318, -0.0276767, -0.60388, -0.0209883 ]
    },
    {
      "name" : "l_shoulder",
      "children" : [ 23, 35 ],
      "translation" : [ 0.458555, 0.14501, -0.0676441 ],
      "rotation" : [ -0.0648712, -0.15865, -0.115044, -0.978461 ]
    },
    {
      "name" : "l_elbow",
      "children" : [ 24, 34 ],
      "translation" : [ 0.390333, 5.68434e-16, 1.98952e-15 ],
      "rotation" : [ -4.71369e-16, 0.491432, -2.6598e-16, -0.870916 ]
    },
    {
      "name" : "l_wrist",
      "children" : [ 25, 28, 31 ],
      "translation" : [ 0.371432, -1.42109e-16, 5.68434e-16 ],
      "rotation" : [ 0.501981, -0.132166, -0.0835997, -0.850622 ]
    },
    {
      "name" : "l_fingerC1",
      "children" : [ 26 ],
      "translation" : [ 0.0761293, 0.0336272, 0.00432969 ],
      "rotation" : [ -0.998127, -0.0578443, 0.00931164, -0.0176 ]
    },
    {
      "name" : "l_fingerC2",
      "children" : [ 27 ],
      "translation" : [ 0.0838537, 5.68434e-16, -8.52651e-16 ],
      "rotation" : [ -0.0809449, 0.195983, 0.0456634, -0.976193 ]
    },
    {
      "name" : "l_fingerC3",
      "translation" : [ 0.0968891, -2.4183e-08, 1.64246e-07 ],
      "rotation" : [ -3.26709e-07, 5.2753e-06, 7.76716e-07, -1 ]
    },
    {
      "name" : "l_fingerB1",
      "children" : [ 29 ],
      "translation" : [ 0.0711063, -0.0133384, 0.000688575 ],
      "rotation" : [ -0.991563, 0.0937215, 0.0878277, 0.0174814 ]
    },
    {
      "name" : "l_fingerB2",
      "children" : [ 30 ],
      "translation" : [ 0.0838537, 2.84217e-16, 2.27374e-15 ],
      "rotation" : [ -0.0213713, 0.127134, 0.0124071, -0.991578 ]
    },
    {
      "name" : "l_fingerB3",
      "translation" : [ 0.0968891, -7.57098e-09, 9.97276e-08 ],
      "rotation" : [ -1.08327e-06, 3.20308e-06, 2.43164e-07, -1 ]
    },
    {
      "name" : "l_fingerA1",
      "children" : [ 32 ],
      "translation" : [ 0.050253, -0.0505857, -0.00750881 ],
      "rotation" : [ -0.942589, 0.28693, 0.0156001, 0.170159 ]
    },
    {
      "name" : "l_fingerA2",
      "children" : [ 33 ],
      "translation" : [ 0.0838537, -8.52651e-16, 5.68434e-16 ],
      "rotation" : [ 0.00801458, 0.105972, -0.00244982, -0.994334 ]
    },
    {
      "name" : "l_fingerA3",
      "translation" : [ 0.0968887, 9.79778e-10, 6.54475e-08 ],
      "rotation" : [ -1.67565e-06, 2.10211e-06, -3.1473e-08, -1 ]
    },
    {
      "name" : "l_forearmTwist",
      "translation" : [ 0.2016, 1.42109e-16, -0 ],
      "rotation" : [ 0.144816, 2.54533e-17, 1.7751e-17, -0.989458 ]
    },
    {
      "name" : "l_armTiwst",
      "translation" : [ 0.2016, 4.26326e-16, -9.23706e-15 ],
      "rotation" : [ -5.10009e-16, -5.55111e-17, -5.55111e-17, -1 ]
    },
    {
      "name" : "r_scapula",
      "children" : [ 37 ],
      "translation" : [ 0.262718, 0.18144, -0.074256 ],
      "rotation" : [ -0.584596, 0.00162641, 0.81132, -0.00225719 ]
    },
    {
      "name" : "r_shoulder",
      "children" : [ 38, 51 ],
      "translation" : [ -0.464409, -0.111056, 0.0886993 ],
      "rotation" : [ -0.0722129, -0.181791, -0.0756553, -0.977759 ]
    },
    {
      "name" : "r_elbow",
      "children" : [ 39, 49, 50 ],
      "translation" : [ -0.390331, 7.1585e-07, 2.94226e-06 ],
      "rotation" : [ 7.25733e-08, 0.492515, -2.59601e-06, -0.870304 ]
    },
    {
      "name" : "r_wrist",
      "children" : [ 40, 43, 46 ],
      "translation" : [ -0.371448, -2.21858e-06, -1.1988e-06 ],
      "rotation" : [ 0.538496, -0.18654, -0.0260998, -0.821306 ]
    },
    {
      "name" : "r_fingerC1",
      "children" : [ 41 ],
      "translation" : [ -0.0715935, -0.0372321, -0.0208185 ],
      "rotation" : [ -0.99094, -0.103344, -0.0854517, 0.00746513 ]
    },
    {
      "name" : "r_fingerC2",
      "children" : [ 42 ],
      "translation" : [ -0.0838656, 2.27165e-09, 2.94259e-09 ],
      "rotation" : [ -0.0629628, 0.198972, 0.0300758, -0.977518 ]
    },
    {
      "name" : "r_fingerC3",
      "translation" : [ -0.105925, 1.13687e-15, -2.84217e-16 ],
      "rotation" : [ 2.40441e-09, -1.36696e-15, 3.88578e-16, -1 ]
    },
    {
      "name" : "r_fingerB1",
      "children" : [ 44 ],
      "translation" : [ -0.0705376, 0.00948068, -0.0130043 ],
      "rotation" : [ -0.999653, 0.0255687, -0.00354498, -0.00518213 ]
    },
    {
      "name" : "r_fingerB2",
      "children" : [ 45 ],
      "translation" : [ -0.0838656, 1.6543e-09, 2.26161e-09 ],
      "rotation" : [ -0.0359622, 0.128141, 0.013474, -0.991012 ]
    },
    {
      "name" : "r_fingerB3",
      "translation" : [ -0.105925, 8.52651e-16, 8.52651e-16 ],
      "rotation" : [ 2.42545e-09, -1.70697e-15, -1.7486e-15, -1 ]
    },
    {
      "name" : "r_fingerA1",
      "children" : [ 47 ],
      "translation" : [ -0.0541178, 0.0470061, 0.00154406 ],
      "rotation" : [ -0.958284, 0.216961, -0.0403084, 0.181646 ]
    },
    {
      "name" : "r_fingerA2",
      "children" : [ 48 ],
      "translation" : [ -0.0838656, 2.43343e-09, 7.58336e-10 ],
      "rotation" : [ -0.00661116, 0.105961, 0.00299529, -0.994344 ]
    },
    {
      "name" : "r_fingerA3",
      "translation" : [ -0.105925, 1.56319e-15, -0 ],
      "rotation" : [ 2.43147e-09, 1.22125e-15, 1.77636e-15, -1 ]
    },
    {
      "name" : "transform5",
      "translation" : [ -5.68434e-16, -4.26326e-16, -1.13687e-15 ],
      "rotation" : [ 7.26543e-16, -7.83687e-16, 9.22044e-09, -1 ]
    },
    {
      "name" : "r_forearmTwist",
      "translation" : [ -0.2016, -5.57652e-09, -5.68434e-16 ],
      "rotation" : [ 0.169141, -2.5559e-16, 1.24598e-17, -0.985592 ]
    },
    {
      "name" : "r_armTiwst",
      "translation" : [ -0.2016, -1.27232e-07, -4.70751e-08 ],
      "rotation" : [ -1.49012e-08, -2.28983e-16, -1.38778e-16, -1 ]
    },
    {
      "name" : "c_tail1",
      "children" : [ 53 ],
      "translation" : [ -0.538474, -1.54695e-16, 0.0546672 ],
      "rotation" : [ -0.014195, -6.19141e-17, 0.999899, 4.75907e-17 ]
    },
    {
      "name" : "c_tail2",
      "children" : [ 54 ],
      "translation" : [ 1.12483, -1.15746e-16, 2.27374e-15 ],
      "rotation" : [ -1.38176e-16, -0.0496168, -1.05146e-16, -0.998768 ]
    },
    {
      "name" : "c_tail3",
      "children" : [ 55 ],
      "translation" : [ 1.03249, -2.91777e-16, -1.13687e-15 ],
      "rotation" : [ -7.61567e-32, -0.00568974, 9.1498e-19, -0.999984 ]
    },
    {
      "name" : "c_tail4",
      "children" : [ 56 ],
      "translation" : [ 0.884654, -1.03187e-16, -2.84217e-16 ],
      "rotation" : [ -0.00344476, 0.0306287, -0.00220543, -0.999522 ]
    },
    {
      "name" : "c_tail5",
      "translation" : [ 0.683054, -4.44089e-17, -1.7053e-15 ],
      "rotation" : [ 4.98578e-17, -0.0166846, 2.46503e-17, -0.999861 ]
    },
    {
      "name" : "l_leg",
      "children" : [ 58, 73 ],
      "translation" : [ -0.0107683, -0.327663, -0.00923305 ],
      "rotation" : [ 0.0211161, 0.719529, 0.0575513, -0.691751 ]
    },
    {
      "name" : "l_knee",
      "children" : [ 59 ],
      "translation" : [ 0.915048, 1.42109e-16, -7.4607e-16 ],
      "rotation" : [ -0.922795, -3.55983e-17, -0.385292, 5.14921e-17 ]
    },
    {
      "name" : "l_ankle",
      "children" : [ 60, 63 ],
      "translation" : [ 0.790207, 4.26326e-16, -0 ],
      "rotation" : [ -0.896804, 0.0246984, -0.438506, -0.0533348 ]
    },
    {
      "name" : "l_toeD1",
      "children" : [ 61 ],
      "translation" : [ 0.0633587, 0.0998783, 0.068512 ],
      "rotation" : [ -0.264604, 0.0026027, -0.153728, -0.952022 ]
    },
    {
      "name" : "l_toeD2",
      "children" : [ 62 ],
      "translation" : [ 0.1344, 0.000499774, -0.00364624 ],
      "rotation" : [ 0.146439, -0.176536, 0.0993575, -0.968255 ]
    },
    {
      "name" : "l_toeD3",
      "translation" : [ 0.157193, 4.61853e-16, -0.0020381 ],
      "rotation" : [ 7.41282e-16, -0.0234368, -5.90228e-17, -0.999725 ]
    },
    {
      "name" : "l_ankle1",
      "children" : [ 64, 67, 70 ],
      "translation" : [ 0.4, -1.79498e-08, -1.4607e-08 ],
      "rotation" : [ -1.56405e-09, 3.76042e-09, 1.93924e-09, -1 ]
    },
    {
      "name" : "l_toeB1",
      "children" : [ 65 ],
      "translation" : [ 0.0680527, 0.0111532, -0.00769439 ],
      "rotation" : [ -0.0733428, -0.482282, -0.0499268, -0.871511 ]
    },
    {
      "name" : "l_toeB2",
      "children" : [ 66 ],
      "translation" : [ 0.186924, -1.42109e-16, 6.21725e-17 ],
      "rotation" : [ 0.000286231, -0.0586349, 0.00207842, -0.998277 ]
    },
    {
      "name" : "l_toeB3",
      "translation" : [ 0.2016, 1.42109e-16, 9.76996e-17 ],
      "rotation" : [ 6.72035e-16, -0.0234368, -5.21667e-17, -0.999725 ]
    },
    {
      "name" : "l_toeA1",
      "children" : [ 68 ],
      "translation" : [ 0.0639318, 0.127582, 0.0126203 ],
      "rotation" : [ -0.155973, -0.432802, -0.211892, -0.862239 ]
    },
    {
      "name" : "l_toeA2",
      "children" : [ 69 ],
      "translation" : [ 0.2016, 0.000221211, -0.0111151 ],
      "rotation" : [ 1.97828e-05, -0.103705, -0.00785823, -0.994577 ]
    },
    {
      "name" : "l_toeA3",
      "translation" : [ 0.2016, 4.08562e-16, -0.00421876 ],
      "rotation" : [ 8.8923e-17, -0.0234368, 9.22668e-17, -0.999725 ]
    },
    {
      "name" : "l_toeC1",
      "children" : [ 71 ],
      "translation" : [ 0.0649665, -0.119697, -0.0109456 ],
      "rotation" : [ 0.0758564, -0.498319, 0.0970603, -0.858197 ]
    },
    {
      "name" : "l_toeC2",
      "children" : [ 72 ],
      "translation" : [ 0.168, -6.4962e-05, 0.00634724 ],
      "rotation" : [ -0.000231449, -0.0201873, 0.00238471, -0.999793 ]
    },
    {
      "name" : "l_toeC3",
      "translation" : [ 0.2016, 5.39951e-05, 0.00569573 ],
      "rotation" : [ -6.32536e-17, -0.0234368, -3.35465e-17, -0.999725 ]
    },
    {
      "name" : "l_legTwist",
      "translation" : [ 0.405209, -2.13163e-16, -2.13163e-16 ],
      "rotation" : [ 0.029455, 3.35656e-16, -8.29569e-17, -0.999566 ]
    },
    {
      "name" : "r_leg",
      "children" : [ 75, 90 ],
      "translation" : [ -0.0107683, 0.327667, -0.0092321 ],
      "rotation" : [ 0.0576538, -0.695081, -0.0208683, -0.716312 ]
    },
    {
      "name" : "r_knee",
      "children" : [ 76 ],
      "translation" : [ -0.915062, 1.46948e-07, -5.31255e-08 ],
      "rotation" : [ -0.920314, 2.02178e-08, -0.391179, 8.59359e-09 ]
    },
    {
      "name" : "r_ankle",
      "children" : [ 77, 80 ],
      "translation" : [ -0.790205, 1.12001e-07, 6.84073e-07 ],
      "rotation" : [ -0.903379, 0.0268657, -0.42483, -0.052002 ]
    },
    {
      "name" : "r_toeD1",
      "children" : [ 78 ],
      "translation" : [ -0.0673758, -0.0988904, -0.072905 ],
      "rotation" : [ -0.264608, 0.00259949, -0.153723, -0.952021 ]
    },
    {
      "name" : "r_toeD2",
      "children" : [ 79 ],
      "translation" : [ -0.1344, 4.78064e-05, 0.00218379 ],
      "rotation" : [ 0.0134207, -0.0655785, 0.00161134, -0.997756 ]
    },
    {
      "name" : "r_toeD3",
      "translation" : [ -0.157193, 3.03554e-07, 0.0020384 ],
      "rotation" : [ 6.4514e-16, -0.0234368, -1.51241e-17, -0.999725 ]
    },
    {
      "name" : "r_ankle1",
      "children" : [ 81, 84, 87 ],
      "translation" : [ -0.4, -1.23876e-08, 1.01045e-08 ],
      "rotation" : [ 4.58194e-09, 1.29247e-08, -2.33307e-10, -1 ]
    },
    {
      "name" : "r_toeB1",
      "children" : [ 82 ],
      "translation" : [ -0.0683215, -0.0114083, 0.00924412 ],
      "rotation" : [ -0.0656019, -0.506285, -0.0427268, -0.858805 ]
    },
    {
      "name" : "r_toeB2",
      "children" : [ 83 ],
      "translation" : [ -0.2016, 7.10543e-16, -1.24345e-16 ],
      "rotation" : [ 0.00146106, -0.0565386, -0.00852891, -0.998363 ]
    },
    {
      "name" : "r_toeB3",
      "translation" : [ -0.2016, 3.74671e-06, -5.32907e-17 ],
      "rotation" : [ -1.0594e-15, -0.0234368, 1.82495e-16, -0.999725 ]
    },
    {
      "name" : "r_toeA1",
      "children" : [ 85 ],
      "translation" : [ -0.0546699, -0.127374, -0.0094894 ],
      "rotation" : [ -0.189429, -0.412813, -0.170856, -0.874363 ]
    },
    {
      "name" : "r_toeA2",
      "children" : [ 86 ],
      "translation" : [ -0.2016, -0.000364205, 0.0204803 ],
      "rotation" : [ 0.000168272, -0.118212, -0.0166202, -0.992849 ]
    },
    {
      "name" : "r_toeA3",
      "translation" : [ -0.2016, -2.36335e-07, 0.00417862 ],
      "rotation" : [ 6.26752e-17, -0.0234368, 1.38404e-16, -0.999725 ]
    },
    {
      "name" : "r_toeC1",
      "children" : [ 88 ],
      "translation" : [ -0.0631925, 0.118599, 0.0140979 ],
      "rotation" : [ 0.0705052, -0.446641, 0.101988, -0.886081 ]
    },
    {
      "name" : "r_toeC2",
      "children" : [ 89 ],
      "translation" : [ -0.168, 0.000550326, 0.0226658 ],
      "rotation" : [ -7.26343e-05, -0.0838504, -0.00087199, -0.996478 ]
    },
    {
      "name" : "r_toeC3",
      "translation" : [ -0.2016, 3.27006e-08, 0.00457759 ],
      "rotation" : [ -2.45955e-16, -0.0234368, 9.52609e-17, -0.999725 ]
    },
    {
      "name" : "r_legTwist",
      "translation" : [ -0.405209, 3.30718e-08, 1.21557e-07 ],
      "rotation" : [ 0.0293066, 5.50552e-17, 1.63657e-17, -0.99957 ]
    }
  ],
  "skins" : [
    {
      "inverseBindMatrices" : 0,
      "skeleton" : 1,
      "joints" : [
        1,2,3,4,5,6,7,8,9,10,11,12,13,14,15,16,17,18,19,20,21,22,23,24,25,26,27,28,29,30,31,32,
        33,34,35,36,37,38,39,40,41,42,43,44,45,46,47,48,49,50,51,52,53,54,55,56,57,58,59,60,61,62,63,64,
        65,66,67,68,69,70,71,72,73,74,75,76,77,78,79,80,81,82,83,84,85,86,87,88,89,90
      ]
    }
  ],
  "materials" : [
    {
      "name" : "dummy_material_0",
      "pbrMetallicRoughness" : {
        "baseColorFactor" : [ 0.3, 0.3, 0.3, 1.0 ],
        "metallicFactor" : 0.1,
        "roughnessFactor" : 0.5
      }
    }
  ],
  "meshes" : [
    {
      "primitives" : [
        {
          "attributes" : {
            "POSITION" : 2,
            "NORMAL" : 3,
            "TANGENT" : 4,
            "COLOR_0" : 5,
            "JOINTS_0" : 6,
            "WEIGHTS_0" : 7,
            "TEXCOORD_0" : 8,
            "TEXCOORD_1" : 9
          },
          "indices" : 1,
          "material" : 0
        }
      ],
      "name" : "Giganotosaurus"
    }
  ],
  "buffers" : [
    {
      "uri" : "Giganotosaurus.bin",
      "byteLength" : 1902900
    }
  ],
  "bufferViews" : [
    {
      "buffer" : 0,
      "byteOffset" : 0,
      "byteLength" : 5760
    },
    {
      "buffer" : 0,
      "byteOffset" : 5760,
      "byteLength" : 223500
    },
    {
      "buffer" : 0,
      "byteOffset" : 229260,
      "byteLength" : 278940
    },
    {
      "buffer" : 0,
      "byteOffset" : 508200,
      "byteLength" : 278940
    },
    {
      "buffer" : 0,
      "byteOffset" : 787140,
      "byteLength" : 371920
    },
    {
      "buffer" : 0,
      "byteOffset" : 1159060,
      "byteLength" : 92980
    },
    {
      "buffer" : 0,
      "byteOffset" : 1252040,
      "byteLength" : 185960
    },
    {
      "buffer" : 0,
      "byteOffset" : 1438000,
      "byteLength" : 92980
    },
    {
      "buffer" : 0,
      "byteOffset" : 1530980,
      "byteLength" : 185960
    },
    {
      "buffer" : 0,
      "byteOffset" : 1716940,
      "byteLength" : 185960
    }
  ],
  "accessors" : [
    {
      "bufferView" : 0,
      "componentType" : 5126,
      "count" : 90,
      "type" : "MAT4"
    },
    {
      "bufferView" : 1,
      "componentType" : 5123,
      "count" : 111750,
      "type" : "SCALAR"
    },
    {
      "bufferView" : 2,
      "min" : [ -0.710971, -0.00571847, -5.0436 ],
      "max" : [ 0.710971, 2.99844, 2.91554 ],
      "componentType" : 5126,
      "count" : 23245,
      "type" : "VEC3"
    },
    {
      "bufferView" : 3,
      "componentType" : 5126,
      "count" : 23245,
      "type" : "VEC3"
    },
    {
      "bufferView" : 4,
      "componentType" : 5126,
      "count" : 23245,
      "type" : "VEC4"
    },
    {
      "bufferView" : 5,
      "normalized" : true,
      "componentType" : 5121,
      "count" : 23245,
      "type" : "VEC4"
    },
    {
      "bufferView" : 6,
      "componentType" : 5123,
      "count" : 23245,
      "type" : "VEC4"
    },
    {
      "bufferView" : 7,
      "normalized" : true,
      "componentType" : 5121,
      "count" : 23245,
      "type" : "VEC4"
    },
    {
      "bufferView" : 8,
      "componentType" : 5126,
      "count" : 23245,
      "type" : "VEC2"
    },
    {
      "bufferView" : 9,
      "componentType" : 5126,
      "count" : 23245,
      "type" : "VEC2"
    }
  ]
}
