{
  "asset" : {
    "generator" : "UE Viewer (umodel) build 1612-floxay",
    "version" : "2.0"
  },
  "scene" : 0,
  "scenes" : [
    {
      "nodes" : [ 0 ]
    }
  ],
  "nodes" : [
    {
      "name" : "Dilo",
      "mesh" : 0,
      "skin" : 0,
      "children" : [ 1 ]
    },
    {
      "name" : "root",
      "children" : [ 2 ],
      "translation" : [ 0, 0, -0 ],
      "rotation" : [ -0.707107, -0, 0, -0.707107 ]
    },
    {
      "name" : "c_back1",
      "children" : [ 3, 72, 80, 93 ],
      "translation" : [ -8.51626e-14, -0.0946465, -0.550874 ],
      "rotation" : [ 0.0308534, -0.0308534, -0.706433, -0.706433 ]
    },
    {
      "name" : "c_back2",
      "children" : [ 4 ],
      "translation" : [ 0.113299, -1.99259e-17, -0 ],
      "rotation" : [ 1.65436e-24, 6.93889e-18, -8.89219e-24, -1 ]
    },
    {
      "name" : "c_back3",
      "children" : [ 5 ],
      "translation" : [ 0.113299, -1.99259e-17, 7.10543e-17 ],
      "rotation" : [ 1.65436e-24, 6.93889e-18, -8.89219e-24, -1 ]
    },
    {
      "name" : "c_back4",
      "children" : [ 6, 44, 58 ],
      "translation" : [ 0.113299, -1.99259e-17, -0 ],
      "rotation" : [ 1.65436e-24, 6.93889e-18, -8.89219e-24, -1 ]
    },
    {
      "name" : "c_neck1",
      "children" : [ 7 ],
      "translation" : [ 0.1133, 3.87885e-08, 7.93869e-07 ],
      "rotation" : [ -0.00464913, -0.151598, -0.00637679, -0.988411 ]
    },
    {
      "name" : "c_neck2",
      "children" : [ 8 ],
      "translation" : [ 0.104714, -5.5738e-08, -2.51132e-07 ],
      "rotation" : [ -0.005639, -0.182489, -0.0205447, -0.982977 ]
    },
    {
      "name" : "c_neck3",
      "children" : [ 9 ],
      "translation" : [ 0.105275, -4.36663e-08, -6.96008e-07 ],
      "rotation" : [ -0.000864537, -0.000780608, -0.0179557, -0.999838 ]
    },
    {
      "name" : "c_head",
      "children" : [ 10, 16, 17, 19, 22, 25, 28, 30, 33, 36, 39, 40, 41, 42, 43 ],
      "translation" : [ 0.103475, 3.12244e-08, 5.14694e-09 ],
      "rotation" : [ -0.00153046, 0.434315, -0.00295742, -0.900755 ]
    },
    {
      "name" : "c_jaw",
      "children" : [ 11 ],
      "translation" : [ 0.0408763, 4.12808e-08, 0.00684149 ],
      "rotation" : [ 6.36971e-07, 0.424609, -2.19187e-07, -0.905377 ]
    },
    {
      "name" : "c_tongue1",
      "children" : [ 12 ],
      "translation" : [ 0.0637091, -1.33164e-07, 0.0267456 ],
      "rotation" : [ -1.30905e-07, -0.471186, 5.70255e-08, -0.882034 ]
    },
    {
      "name" : "c_tongue2",
      "children" : [ 13 ],
      "translation" : [ 0.0351683, 1.49502e-07, 2.40233e-07 ],
      "rotation" : [ 4.81832e-09, 0.512735, -2.12322e-07, -0.858547 ]
    },
    {
      "name" : "c_tongue3",
      "children" : [ 14 ],
      "translation" : [ 0.0320874, -3.95591e-08, 5.37964e-07 ],
      "rotation" : [ 1.11902e-08, -0.0504309, -2.44052e-08, -0.998727 ]
    },
    {
      "name" : "c_tongue4",
      "children" : [ 15 ],
      "translation" : [ 0.0293437, -1.26518e-07, 7.5799e-08 ],
      "rotation" : [ -1.62807e-07, -0.251293, 5.83452e-08, -0.967911 ]
    },
    {
      "name" : "c_tongue5",
      "translation" : [ 0.0169596, 1.77636e-17, -0 ],
      "rotation" : [ 6.93889e-18, -2.40741e-35, 3.46945e-18, -1 ]
    },
    {
      "name" : "l_eye",
      "translation" : [ 0.110583, -0.0461019, -0.0227796 ],
      "rotation" : [ 0.020819, 0.0350579, 0.510155, -0.859115 ]
    },
    {
      "name" : "l_frillA1",
      "children" : [ 18 ],
      "translation" : [ 0.0226618, -0.0630565, -0.0128415 ],
      "rotation" : [ -0.41075, -0.184473, 0.748094, -0.487452 ]
    },
    {
      "name" : "l_frillA2",
      "translation" : [ 0.0800305, 3.4465e-07, 6.09876e-07 ],
      "rotation" : [ -2.84221e-07, 1.36323e-08, -0.0569699, -0.998376 ]
    },
    {
      "name" : "l_frillB1",
      "children" : [ 20 ],
      "translation" : [ 0.00796777, -0.0754826, 0.0248037 ],
      "rotation" : [ -0.0411387, -0.107904, 0.838566, -0.53242 ]
    },
    {
      "name" : "l_frillB2",
      "children" : [ 21 ],
      "translation" : [ 0.0740302, -1.15898e-07, 7.10949e-08 ],
      "rotation" : [ 1.05552e-07, 1.81174e-08, 0.0163003, -0.999867 ]
    },
    {
      "name" : "l_frillB3",
      "translation" : [ 0.07176, 0, 2.84217e-16 ],
      "rotation" : [ -3.46945e-18, -6.01853e-36, -1.73472e-18, -1 ]
    },
    {
      "name" : "l_frillC1",
      "children" : [ 23 ],
      "translation" : [ 0.0145923, -0.0647824, 0.0705835 ],
      "rotation" : [ 0.106582, 0.125773, 0.832813, -0.528435 ]
    },
    {
      "name" : "l_frillC2",
      "children" : [ 24 ],
      "translation" : [ 0.105029, 3.24282e-07, -4.9e-07 ],
      "rotation" : [ -4.06632e-07, 2.74227e-08, -0.0569698, -0.998376 ]
    },
    {
      "name" : "l_frillC3",
      "translation" : [ 0.103764, 0, -0 ],
      "rotation" : [ -1.92593e-34, 1.38778e-17, 1.38778e-17, -1 ]
    },
    {
      "name" : "l_frillD1",
      "children" : [ 26 ],
      "translation" : [ 0.0318343, -0.0414082, 0.102216 ],
      "rotation" : [ 0.498477, 0.221407, 0.720783, -0.42775 ]
    },
    {
      "name" : "l_frillD2",
      "children" : [ 27 ],
      "translation" : [ 0.10503, -2.14509e-07, 4e-08 ],
      "rotation" : [ 3.99849e-08, -8.99998e-09, -0.05697, -0.998376 ]
    },
    {
      "name" : "l_frillD3",
      "translation" : [ 0.103764, 0, 5.32907e-17 ],
      "rotation" : [ -6.93889e-18, 2.77556e-17, 6.93889e-18, -1 ]
    },
    {
      "name" : "r_frillA1",
      "children" : [ 29 ],
      "translation" : [ 0.0226605, 0.0630563, -0.0128416 ],
      "rotation" : [ -0.748094, 0.487452, -0.41075, -0.184475 ]
    },
    {
      "name" : "r_frillA2",
      "translation" : [ -0.080031, 2.2021e-08, 3.3e-07 ],
      "rotation" : [ -8.45913e-08, 1.97657e-08, -0.0569698, -0.998376 ]
    },
    {
      "name" : "r_frillB1",
      "children" : [ 31 ],
      "translation" : [ 0.00796766, 0.0754834, 0.024804 ],
      "rotation" : [ -0.838566, 0.532421, -0.0411387, -0.107905 ]
    },
    {
      "name" : "r_frillB2",
      "children" : [ 32 ],
      "translation" : [ -0.0740295, 1.31996e-07, 8.9e-07 ],
      "rotation" : [ -4.71965e-08, 8.98335e-09, 0.0163006, -0.999867 ]
    },
    {
      "name" : "r_frillB3",
      "translation" : [ -0.0717605, -8.50001e-07, -6.29999e-07 ],
      "rotation" : [ 1.12757e-17, -1.38778e-17, -4.31512e-17, -1 ]
    },
    {
      "name" : "r_frillC1",
      "children" : [ 34 ],
      "translation" : [ 0.0145938, 0.0647826, 0.0705837 ],
      "rotation" : [ -0.832814, 0.528435, 0.10658, 0.125772 ]
    },
    {
      "name" : "r_frillC2",
      "children" : [ 35 ],
      "translation" : [ -0.105031, -7.27024e-07, 1.49571e-07 ],
      "rotation" : [ 9.62199e-08, -1.07892e-07, -0.05697, -0.998376 ]
    },
    {
      "name" : "r_frillC3",
      "translation" : [ -0.103764, 5.6e-07, 1.1e-07 ],
      "rotation" : [ -0, -0, 0, -1 ]
    },
    {
      "name" : "r_frillD1",
      "children" : [ 37 ],
      "translation" : [ 0.0318351, 0.0414082, 0.102215 ],
      "rotation" : [ -0.720784, 0.427751, 0.498477, 0.221406 ]
    },
    {
      "name" : "r_frillD2",
      "children" : [ 38 ],
      "translation" : [ -0.105031, -6.12738e-07, -2e-07 ],
      "rotation" : [ 3.92323e-08, 2.44809e-09, -0.0569698, -0.998376 ]
    },
    {
      "name" : "r_frillD3",
      "translation" : [ -0.103765, 6.6e-07, 2.1e-07 ],
      "rotation" : [ -1.21431e-17, 2.77556e-17, 6.93889e-18, -1 ]
    },
    {
      "name" : "r_eye",
      "translation" : [ 0.110586, 0.0461084, -0.0227789 ],
      "rotation" : [ 0.510156, -0.859115, -0.0208175, -0.0350573 ]
    },
    {
      "name" : "r_upperEye",
      "translation" : [ 0.1144, 0.0598196, -0.0280752 ],
      "rotation" : [ 0.70691, -0.70691, -0.0166597, 0.0166616 ]
    },
    {
      "name" : "r_lowerEye",
      "translation" : [ 0.115327, 0.058995, -0.0154538 ],
      "rotation" : [ 0.70691, -0.70691, -0.0166597, 0.0166616 ]
    },
    {
      "name" : "l_upperEye",
      "translation" : [ 0.114329, -0.0596884, -0.0280873 ],
      "rotation" : [ 0.016662, -0.0166601, 0.70691, -0.70691 ]
    },
    {
      "name" : "l_lowerEye",
      "translation" : [ 0.11532, -0.0589805, -0.015455 ],
      "rotation" : [ 0.016662, -0.0166601, 0.70691, -0.70691 ]
    },
    {
      "name" : "l_scapula",
      "children" : [ 45 ],
      "translation" : [ 0.0301872, -0.0625002, -0.0280984 ],
      "rotation" : [ -0.806398, 0.0892618, -0.581048, 0.0643174 ]
    },
    {
      "name" : "l_shoulder",
      "children" : [ 46, 57 ],
      "translation" : [ 0.125827, -2.12576e-07, -1.97872e-07 ],
      "rotation" : [ -0.0893587, -0.395804, 0.038732, -0.913156 ]
    },
    {
      "name" : "l_elbow",
      "children" : [ 47 ],
      "translation" : [ 0.117469, -3.00001e-08, 5.89754e-07 ],
      "rotation" : [ 3.92168e-08, 0.602697, 1.75793e-07, -0.79797 ]
    },
    {
      "name" : "l_wrist",
      "children" : [ 48, 51, 54 ],
      "translation" : [ 0.120633, 3.55271e-17, -0 ],
      "rotation" : [ 6.93889e-18, -2.77556e-17, 1.38778e-17, -1 ]
    },
    {
      "name" : "l_fingerC1",
      "children" : [ 49 ],
      "translation" : [ 0.0454625, 0.00896357, -0.0124803 ],
      "rotation" : [ -0.754427, 0.0546772, 0.111777, -0.644481 ]
    },
    {
      "name" : "l_fingerC2",
      "children" : [ 50 ],
      "translation" : [ 0.0271396, -8.61177e-14, -1.44695e-07 ],
      "rotation" : [ 1.26717e-07, 0.158727, -7.43415e-08, -0.987323 ]
    },
    {
      "name" : "l_fingerC3",
      "translation" : [ 0.0208214, -1.42108e-16, -3.55271e-17 ],
      "rotation" : [ -2.77556e-17, -1.38778e-17, -2.77556e-17, -1 ]
    },
    {
      "name" : "l_fingerB1",
      "children" : [ 52 ],
      "translation" : [ 0.0428973, 0.00323849, 0.0113631 ],
      "rotation" : [ -0.820877, 0.103426, 0.0661804, -0.557748 ]
    },
    {
      "name" : "l_fingerB2",
      "children" : [ 53 ],
      "translation" : [ 0.0321408, -5.68626e-08, -2.64945e-07 ],
      "rotation" : [ -2.69637e-07, 0.158727, 1.26929e-07, -0.987323 ]
    },
    {
      "name" : "l_fingerB3",
      "translation" : [ 0.0195758, 0, -0 ],
      "rotation" : [ -1.73472e-17, 2.08167e-17, -3.61112e-34, -1 ]
    },
    {
      "name" : "l_fingerA1",
      "children" : [ 55 ],
      "translation" : [ 0.0372165, -0.00489129, 0.0251334 ],
      "rotation" : [ -0.817019, 0.21124, -0.0374057, -0.535217 ]
    },
    {
      "name" : "l_fingerA2",
      "children" : [ 56 ],
      "translation" : [ 0.0297487, -9.57934e-08, 7.51507e-08 ],
      "rotation" : [ 7.59045e-07, 0.158726, -7.36846e-07, -0.987323 ]
    },
    {
      "name" : "l_fingerA3",
      "translation" : [ 0.0183567, -3.55271e-17, -7.10543e-17 ],
      "rotation" : [ -1.38778e-17, -4.16334e-17, -2.77556e-17, -1 ]
    },
    {
      "name" : "l_armTiwst",
      "translation" : [ 0.0587343, 0, -0 ],
      "rotation" : [ -3.46945e-18, -0, 0, -1 ]
    },
    {
      "name" : "r_scapula",
      "children" : [ 59 ],
      "translation" : [ 0.0301872, 0.0625003, -0.0280984 ],
      "rotation" : [ -0.581049, 0.0643174, 0.806398, -0.0892618 ]
    },
    {
      "name" : "r_shoulder",
      "children" : [ 60, 71 ],
      "translation" : [ -0.125828, 1.21202e-07, -3.8468e-07 ],
      "rotation" : [ -0.0893588, -0.395804, 0.0387324, -0.913156 ]
    },
    {
      "name" : "r_elbow",
      "children" : [ 61 ],
      "translation" : [ -0.117469, 2.17299e-07, 8.87484e-07 ],
      "rotation" : [ -4.81974e-08, 0.602696, -6.33963e-08, -0.79797 ]
    },
    {
      "name" : "r_wrist",
      "children" : [ 62, 65, 68 ],
      "translation" : [ -0.120634, -6.8e-07, -3.5e-07 ],
      "rotation" : [ -6.93889e-18, -4.81482e-35, -6.93889e-18, -1 ]
    },
    {
      "name" : "r_fingerC1",
      "children" : [ 63 ],
      "translation" : [ -0.0454628, -0.00896288, 0.0124799 ],
      "rotation" : [ -0.754427, 0.0546773, 0.111777, -0.644481 ]
    },
    {
      "name" : "r_fingerC2",
      "children" : [ 64 ],
      "translation" : [ -0.0271404, 2.6e-07, -5.19319e-07 ],
      "rotation" : [ -9.61948e-08, 0.158727, -2.53904e-08, -0.987322 ]
    },
    {
      "name" : "r_fingerC3",
      "translation" : [ -0.0208211, 1.5e-07, 5.00001e-08 ],
      "rotation" : [ 5.77779e-34, 2.08167e-17, -2.77556e-17, -1 ]
    },
    {
      "name" : "r_fingerB1",
      "children" : [ 66 ],
      "translation" : [ -0.0428984, -0.00323758, -0.0113635 ],
      "rotation" : [ -0.820878, 0.103425, 0.0661799, -0.557747 ]
    },
    {
      "name" : "r_fingerB2",
      "children" : [ 67 ],
      "translation" : [ -0.0321398, -5.55765e-07, 5.10613e-07 ],
      "rotation" : [ 5.32623e-07, 0.158727, -4.77323e-07, -0.987322 ]
    },
    {
      "name" : "r_fingerB3",
      "translation" : [ -0.0195759, 8.7e-07, -1.8617e-07 ],
      "rotation" : [ -3.66814e-08, -3.46789e-08, -1.90728e-14, -1 ]
    },
    {
      "name" : "r_fingerA1",
      "children" : [ 69 ],
      "translation" : [ -0.0372166, 0.00489277, -0.0251339 ],
      "rotation" : [ -0.817018, 0.211241, -0.0374061, -0.535219 ]
    },
    {
      "name" : "r_fingerA2",
      "children" : [ 70 ],
      "translation" : [ -0.0297482, 4.34591e-07, 4.16935e-07 ],
      "rotation" : [ -5.34469e-07, 0.158727, 4.23533e-08, -0.987322 ]
    },
    {
      "name" : "r_fingerA3",
      "translation" : [ -0.0183563, -5e-07, 2e-07 ],
      "rotation" : [ 1.38778e-17, -2.08167e-17, -2.88889e-34, -1 ]
    },
    {
      "name" : "r_armTiwst",
      "translation" : [ -0.058734, -4e-08, -9.99999e-09 ],
      "rotation" : [ 1.92593e-34, 2.77556e-17, -6.93889e-18, -1 ]
    },
    {
      "name" : "c_tail1",
      "children" : [ 73 ],
      "translation" : [ -0.134334, 6.27374e-14, -0.0111832 ],
      "rotation" : [ -0.0266679, 3.67732e-12, 0.999644, 2.83145e-13 ]
    },
    {
      "name" : "c_tail2",
      "children" : [ 74 ],
      "translation" : [ 0.221774, 3.77984e-13, -4.0196e-07 ],
      "rotation" : [ -1.76367e-11, -0.033598, 3.66016e-13, -0.999435 ]
    },
    {
      "name" : "c_tail3",
      "children" : [ 75 ],
      "translation" : [ 0.191291, 4.67981e-14, 2.1378e-07 ],
      "rotation" : [ 1.52858e-11, -0.0356804, 9.09313e-13, -0.999363 ]
    },
    {
      "name" : "c_tail4",
      "children" : [ 76 ],
      "translation" : [ 0.191291, -4.73963e-13, 4.28105e-07 ],
      "rotation" : [ 3.73734e-12, -0.0230223, 4.06479e-13, -0.999735 ]
    },
    {
      "name" : "c_tail5",
      "children" : [ 77 ],
      "translation" : [ 0.19129, 3.30345e-13, -4.3723e-07 ],
      "rotation" : [ -1.1638e-11, 0.0696522, -1.0913e-12, -0.997571 ]
    },
    {
      "name" : "c_tail6",
      "children" : [ 78 ],
      "translation" : [ 0.191292, -5.05155e-13, -1.29739e-06 ],
      "rotation" : [ 9.11171e-12, 0.064168, -7.7299e-13, -0.997939 ]
    },
    {
      "name" : "c_tail7",
      "children" : [ 79 ],
      "translation" : [ 0.191291, 6.90378e-14, 1.1795e-06 ],
      "rotation" : [ 2.22091e-12, -0.0418754, -8.60492e-14, -0.999123 ]
    },
    {
      "name" : "c_tail8",
      "translation" : [ 0.1125, -8.75673e-19, -0 ],
      "rotation" : [ -0, -0, 1.01588e-23, -1 ]
    },
    {
      "name" : "l_leg",
      "children" : [ 81, 92 ],
      "translation" : [ 0.00813845, -0.0724062, -0.0103952 ],
      "rotation" : [ 0.0605354, 0.571278, 0.104927, -0.811768 ]
    },
    {
      "name" : "l_knee",
      "children" : [ 82 ],
      "translation" : [ 0.241196, -3.03153e-09, 2.3733e-07 ],
      "rotation" : [ -0.910091, -3.67551e-08, -0.414408, -2.57062e-07 ]
    },
    {
      "name" : "l_ankle",
      "children" : [ 83, 86, 89 ],
      "translation" : [ 0.200284, -1.98417e-08, 7.15567e-08 ],
      "rotation" : [ -0.91117, -4.8663e-08, -0.41203, -1.10639e-07 ]
    },
    {
      "name" : "l_toeB1",
      "children" : [ 84 ],
      "translation" : [ 0.146634, -1.59796e-08, 5.12611e-08 ],
      "rotation" : [ 1.13784e-06, -0.457211, -1.01334e-06, -0.889358 ]
    },
    {
      "name" : "l_toeB2",
      "children" : [ 85 ],
      "translation" : [ 0.0383611, -2.39069e-09, -1.76763e-08 ],
      "rotation" : [ -1.45615e-06, -0.0685337, -4.98873e-08, -0.997649 ]
    },
    {
      "name" : "l_toeB3",
      "translation" : [ 0.0334553, -2.62487e-09, 1.19391e-08 ],
      "rotation" : [ -3.05835e-07, -0.0234369, 1.6532e-08, -0.999725 ]
    },
    {
      "name" : "l_toeA1",
      "children" : [ 87 ],
      "translation" : [ 0.148667, 0.0225, 0.00145483 ],
      "rotation" : [ -0.120058, -0.456706, -0.144116, -0.869618 ]
    },
    {
      "name" : "l_toeA2",
      "children" : [ 88 ],
      "translation" : [ 0.038361, 3.79227e-08, -2.17646e-08 ],
      "rotation" : [ 2.09518e-06, -0.0685335, -6.1393e-07, -0.997649 ]
    },
    {
      "name" : "l_toeA3",
      "translation" : [ 0.0334554, -9.22376e-09, -1.0955e-08 ],
      "rotation" : [ -5.10413e-07, -0.0234369, 1.21557e-08, -0.999725 ]
    },
    {
      "name" : "l_toeC1",
      "children" : [ 90 ],
      "translation" : [ 0.148209, -0.0287691, 0.00391841 ],
      "rotation" : [ 0.109394, -0.48124, 0.125098, -0.860693 ]
    },
    {
      "name" : "l_toeC2",
      "children" : [ 91 ],
      "translation" : [ 0.0383609, 1.19549e-14, -1.99054e-08 ],
      "rotation" : [ -3.42012e-07, -0.0685336, -1.76135e-08, -0.997649 ]
    },
    {
      "name" : "l_toeC3",
      "translation" : [ 0.0334553, -6.19408e-09, 1.81951e-08 ],
      "rotation" : [ -8.87897e-09, -0.0234368, -3.27477e-09, -0.999725 ]
    },
    {
      "name" : "l_legTwist",
      "translation" : [ 0.120598, 0, -3.55271e-17 ],
      "rotation" : [ -2.46385e-17, -8.01393e-35, -3.25261e-18, -1 ]
    },
    {
      "name" : "r_leg",
      "children" : [ 94, 105 ],
      "translation" : [ 0.00813839, 0.0724062, -0.0103944 ],
      "rotation" : [ 0.104928, -0.811767, -0.0605355, -0.571278 ]
    },
    {
      "name" : "r_knee",
      "children" : [ 95 ],
      "translation" : [ -0.241195, -6.84107e-08, 1.25756e-07 ],
      "rotation" : [ -0.910091, -1.70886e-07, -0.414407, 3.18384e-07 ]
    },
    {
      "name" : "r_ankle",
      "children" : [ 96, 99, 102 ],
      "translation" : [ -0.200284, -9.1532e-08, 1.42777e-07 ],
      "rotation" : [ -0.91117, -1.07569e-07, -0.41203, -2.24777e-07 ]
    },
    {
      "name" : "r_toeB1",
      "children" : [ 97 ],
      "translation" : [ -0.146634, -2.93786e-09, 4.04706e-08 ],
      "rotation" : [ -8.62682e-08, -0.45721, 1.82297e-07, -0.889358 ]
    },
    {
      "name" : "r_toeB2",
      "children" : [ 98 ],
      "translation" : [ -0.0383609, 1.04129e-07, 1.03684e-08 ],
      "rotation" : [ -1.8003e-07, -0.0685338, 4.28966e-08, -0.997649 ]
    },
    {
      "name" : "r_toeB3",
      "translation" : [ -0.0334552, -5.87565e-07, -1.47311e-08 ],
      "rotation" : [ 2.21893e-07, -0.0234368, 2.88227e-09, -0.999725 ]
    },
    {
      "name" : "r_toeA1",
      "children" : [ 100 ],
      "translation" : [ -0.148667, -0.0225, -0.00145487 ],
      "rotation" : [ -0.120055, -0.456705, -0.144118, -0.869619 ]
    },
    {
      "name" : "r_toeA2",
      "children" : [ 101 ],
      "translation" : [ -0.0383611, 8.22558e-09, 4.79729e-08 ],
      "rotation" : [ -2.42201e-06, -0.0685337, 5.34243e-08, -0.997649 ]
    },
    {
      "name" : "r_toeA3",
      "translation" : [ -0.0334554, -6.88127e-08, -3.22807e-08 ],
      "rotation" : [ 4.31941e-07, -0.0234369, -6.99335e-09, -0.999725 ]
    },
    {
      "name" : "r_toeC1",
      "children" : [ 103 ],
      "translation" : [ -0.148209, 0.0287687, -0.00391864 ],
      "rotation" : [ 0.109393, -0.481239, 0.125099, -0.860693 ]
    },
    {
      "name" : "r_toeC2",
      "children" : [ 104 ],
      "translation" : [ -0.038361, -1.43723e-08, 6.17219e-08 ],
      "rotation" : [ 4.46381e-07, -0.0685336, 7.95658e-09, -0.997649 ]
    },
    {
      "name" : "r_toeC3",
      "translation" : [ -0.0334555, 1.38059e-08, -9.81531e-09 ],
      "rotation" : [ 7.42937e-08, -0.0234368, 2.60299e-09, -0.999725 ]
    },
    {
      "name" : "r_legTwist",
      "translation" : [ -0.120598, 1e-08, 4e-08 ],
      "rotation" : [ 7.75204e-18, -2.77556e-17, -2.60208e-18, -1 ]
    }
  ],
  "skins" : [
    {
      "inverseBindMatrices" : 0,
      "skeleton" : 1,
      "joints" : [
        1,2,3,4,5,6,7,8,9,10,11,12,13,14,15,16,17,18,19,20,21,22,23,24,25,26,27,28,29,30,31,32,
        33,34,35,36,37,38,39,40,41,42,43,44,45,46,47,48,49,50,51,52,53,54,55,56,57,58,59,60,61,62,63,64,
        65,66,67,68,69,70,71,72,73,74,75,76,77,78,79,80,81,82,83,84,85,86,87,88,89,90,91,92,93,94,95,96,
        97,98,99,100,101,102,103,104,105
      ]
    }
  ],
  "materials" : [
    {
      "name" : "dummy_material_0",
      "pbrMetallicRoughness" : {
        "baseColorFactor" : [ 0.3, 0.3, 0.3, 1.0 ],
        "metallicFactor" : 0.1,
        "roughnessFactor" : 0.5
      }
    }
  ],
  "meshes" : [
    {
      "primitives" : [
        {
          "attributes" : {
            "POSITION" : 2,
            "NORMAL" : 3,
            "TANGENT" : 4,
            "COLOR_0" : 5,
            "JOINTS_0" : 6,
            "WEIGHTS_0" : 7,
            "TEXCOORD_0" : 8,
            "TEXCOORD_1" : 9
          },
          "indices" : 1,
          "material" : 0
        }
      ],
      "name" : "Dilo"
    }
  ],
  "buffers" : [
    {
      "uri" : "Dilo.bin",
      "byteLength" : 1992888
    }
  ],
  "bufferViews" : [
    {
      "buffer" : 0,
      "byteOffset" : 0,
      "byteLength" : 6720
    },
    {
      "buffer" : 0,
      "byteOffset" : 6720,
      "byteLength" : 179832
    },
    {
      "buffer" : 0,
      "byteOffset" : 186552,
      "byteLength" : 301056
    },
    {
      "buffer" : 0,
      "byteOffset" : 487608,
      "byteLength" : 301056
    },
    {
      "buffer" : 0,
      "byteOffset" : 788664,
      "byteLength" : 401408
    },
    {
      "buffer" : 0,
      "byteOffset" : 1190072,
      "byteLength" : 100352
    },
    {
      "buffer" : 0,
      "byteOffset" : 1290424,
      "byteLength" : 200704
    },
    {
      "buffer" : 0,
      "byteOffset" : 1491128,
      "byteLength" : 100352
    },
    {
      "buffer" : 0,
      "byteOffset" : 1591480,
      "byteLength" : 200704
    },
    {
      "buffer" : 0,
      "byteOffset" : 1792184,
      "byteLength" : 200704
    }
  ],
  "accessors" : [
    {
      "bufferView" : 0,
      "componentType" : 5126,
      "count" : 105,
      "type" : "MAT4"
    },
    {
      "bufferView" : 1,
      "componentType" : 5123,
      "count" : 89916,
      "type" : "SCALAR"
    },
    {
      "bufferView" : 2,
      "min" : [ -0.272231, -0.00108422, -1.59428 ],
      "max" : [ 0.271208, 0.867245, 0.866685 ],
      "componentType" : 5126,
      "count" : 25088,
      "type" : "VEC3"
    },
    {
      "bufferView" : 3,
      "componentType" : 5126,
      "count" : 25088,
      "type" : "VEC3"
    },
    {
      "bufferView" : 4,
      "componentType" : 5126,
      "count" : 25088,
      "type" : "VEC4"
    },
    {
      "bufferView" : 5,
      "normalized" : true,
      "componentType" : 5121,
      "count" : 25088,
      "type" : "VEC4"
    },
    {
      "bufferView" : 6,
      "componentType" : 5123,
      "count" : 25088,
      "type" : "VEC4"
    },
    {
      "bufferView" : 7,
      "normalized" : true,
      "componentType" : 5121,
      "count" : 25088,
      "type" : "VEC4"
    },
    {
      "bufferView" : 8,
      "componentType" : 5126,
      "count" : 25088,
      "type" : "VEC2"
    },
    {
      "bufferView" : 9,
      "componentType" : 5126,
      "count" : 25088,
      "type" : "VEC2"
    }
  ]
}
