{
  "asset" : {
    "generator" : "UE Viewer (umodel) build 1612-floxay",
    "version" : "2.0"
  },
  "scene" : 0,
  "scenes" : [
    {
      "nodes" : [ 0 ]
    }
  ],
  "nodes" : [
    {
      "name" : "Spino",
      "mesh" : 0,
      "skin" : 0,
      "children" : [ 1 ]
    },
    {
      "name" : "root",
      "children" : [ 2 ],
      "translation" : [ 0, 0, -0 ],
      "rotation" : [ -0.707107, -0, 0, -0.707107 ]
    },
    {
      "name" : "c_back1",
      "children" : [ 3, 55, 60, 76 ],
      "translation" : [ 1.57772e-32, -0.526133, -1.96775 ],
      "rotation" : [ 0.0469135, -0.0469135, -0.705549, -0.705549 ]
    },
    {
      "name" : "c_back2",
      "children" : [ 4 ],
      "translation" : [ 0.604774, 3.67057e-17, 4.17754e-07 ],
      "rotation" : [ -3.24686e-33, 0.0420412, 2.57428e-18, -0.999116 ]
    },
    {
      "name" : "c_back3",
      "children" : [ 5 ],
      "translation" : [ 0.604772, 3.69878e-17, -9.55161e-08 ],
      "rotation" : [ 1.09354e-32, 0.0569783, 3.48892e-18, -0.998375 ]
    },
    {
      "name" : "c_back4",
      "children" : [ 6, 21, 38 ],
      "translation" : [ 0.604773, 3.69526e-17, 5.80841e-07 ],
      "rotation" : [ -1.95886e-32, 0.0642271, 3.93278e-18, -0.997935 ]
    },
    {
      "name" : "c_neck1",
      "children" : [ 7 ],
      "translation" : [ 0.60477, 3.63378e-17, -1.19605e-06 ],
      "rotation" : [ -6.0886e-33, -0.315419, -1.93139e-17, -0.948952 ]
    },
    {
      "name" : "c_neck2",
      "children" : [ 8 ],
      "translation" : [ 0.549814, 3.03452e-17, 5.26637e-07 ],
      "rotation" : [ -1.42953e-32, -0.139453, -8.53903e-18, -0.990229 ]
    },
    {
      "name" : "c_neck3",
      "children" : [ 9 ],
      "translation" : [ 0.534716, 2.44478e-17, 2.02422e-06 ],
      "rotation" : [ 1.0045e-32, 0.0349525, 2.14022e-18, -0.999389 ]
    },
    {
      "name" : "c_head",
      "children" : [ 10, 15, 16, 17, 18, 19, 20 ],
      "translation" : [ 0.494598, 2.39658e-17, -5.2754e-07 ],
      "rotation" : [ -8.20835e-34, 0.345219, 2.11385e-17, -0.938522 ]
    },
    {
      "name" : "c_jaw",
      "children" : [ 11 ],
      "translation" : [ 0.0500298, -1.01729e-17, 0.206387 ],
      "rotation" : [ 1.02106e-32, 0.42461, 2.59998e-17, -0.905376 ]
    },
    {
      "name" : "c_tongue1",
      "children" : [ 12 ],
      "translation" : [ 0.240704, 2.45117e-17, -0.141973 ],
      "rotation" : [ -8.74162e-33, -0.245502, -1.50327e-17, -0.969396 ]
    },
    {
      "name" : "c_tongue2",
      "children" : [ 13 ],
      "translation" : [ 0.119574, 6.66103e-18, -3.08535e-07 ],
      "rotation" : [ -1.02795e-16, 0.377776, -1.88095e-17, -0.925897 ]
    },
    {
      "name" : "c_tongue3",
      "children" : [ 14 ],
      "translation" : [ 0.187307, 4.12487e-18, -6.03371e-07 ],
      "rotation" : [ 1.09971e-16, -0.13728, 6.83518e-18, -0.990532 ]
    },
    {
      "name" : "c_tongue4",
      "translation" : [ 0.188155, 6.91057e-18, 4.63405e-06 ],
      "rotation" : [ -9.51533e-33, -0.127999, -7.83771e-18, -0.991774 ]
    },
    {
      "name" : "l_eye",
      "translation" : [ 0.379161, -0.200933, -0.153444 ],
      "rotation" : [ -0.0371307, -0.0625288, 0.509229, -0.857553 ]
    },
    {
      "name" : "r_eye",
      "translation" : [ 0.379161, 0.200933, -0.153444 ],
      "rotation" : [ 0.509229, -0.857553, 0.0371307, 0.0625288 ]
    },
    {
      "name" : "r_upperEye",
      "translation" : [ 0.406045, 0.24131, -0.176558 ],
      "rotation" : [ -0.70691, 0.70691, 0.0166607, -0.0166607 ]
    },
    {
      "name" : "r_lowerEye",
      "translation" : [ 0.404622, 0.248044, -0.143958 ],
      "rotation" : [ -0.70691, 0.70691, 0.0166607, -0.0166607 ]
    },
    {
      "name" : "l_upperEye",
      "translation" : [ 0.406045, -0.24131, -0.176558 ],
      "rotation" : [ 0.0166607, -0.0166607, 0.70691, -0.70691 ]
    },
    {
      "name" : "l_lowerEye",
      "translation" : [ 0.404622, -0.248044, -0.143958 ],
      "rotation" : [ 0.0166607, -0.0166607, 0.70691, -0.70691 ]
    },
    {
      "name" : "l_scapula",
      "children" : [ 22 ],
      "translation" : [ 0.143445, -0.408, -0.132941 ],
      "rotation" : [ -0.794693, 0.0578916, -0.602647, 0.0439015 ]
    },
    {
      "name" : "l_shoulder",
      "children" : [ 23, 37 ],
      "translation" : [ 0.621588, -0.00395916, 0.000867294 ],
      "rotation" : [ -0.212305, -0.0945143, 0.036487, -0.971937 ]
    },
    {
      "name" : "l_elbow",
      "children" : [ 24 ],
      "translation" : [ 0.583, 0, 8.28923e-07 ],
      "rotation" : [ -1.1037e-07, 0.308187, -3.58395e-08, -0.951326 ]
    },
    {
      "name" : "l_wrist",
      "children" : [ 25, 28, 31, 34 ],
      "translation" : [ 0.583542, -1.53259e-06, 9.15406e-08 ],
      "rotation" : [ 0.298208, -2.34565e-07, 4.48909e-08, -0.954501 ]
    },
    {
      "name" : "l_fingerC1",
      "children" : [ 26 ],
      "translation" : [ 0.237778, 0.0772112, 0.17644 ],
      "rotation" : [ -0.932113, -0.103886, -0.335732, -0.0875005 ]
    },
    {
      "name" : "l_fingerC2",
      "children" : [ 27 ],
      "translation" : [ 0.218283, 2.11067e-13, -1.06567e-06 ],
      "rotation" : [ -5.30721e-09, 0.253432, 4.87326e-08, -0.967353 ]
    },
    {
      "name" : "l_fingerC3",
      "translation" : [ 0.171478, 0.280677, 0.305158 ],
      "rotation" : [ 0.451083, 0.410676, -0.219928, -0.761249 ]
    },
    {
      "name" : "l_fingerB1",
      "children" : [ 29 ],
      "translation" : [ 0.222593, -0.0354429, 0.20853 ],
      "rotation" : [ -0.898252, 0.0982279, -0.424715, -0.0557854 ]
    },
    {
      "name" : "l_fingerB2",
      "children" : [ 30 ],
      "translation" : [ 0.218283, -6.97717e-13, 1.1771e-06 ],
      "rotation" : [ -4.48736e-07, 0.253433, 3.26357e-08, -0.967353 ]
    },
    {
      "name" : "l_fingerB3",
      "translation" : [ 0.232511, 0.144151, 0.329234 ],
      "rotation" : [ 0.488989, 0.353824, -0.0783232, -0.79345 ]
    },
    {
      "name" : "l_fingerA1",
      "children" : [ 32 ],
      "translation" : [ 0.191612, -0.139311, 0.187077 ],
      "rotation" : [ -0.88228, 0.263978, -0.386803, 0.0477645 ]
    },
    {
      "name" : "l_fingerA2",
      "children" : [ 33 ],
      "translation" : [ 0.21828, 7.40385e-14, 5.56483e-08 ],
      "rotation" : [ 1.70917e-07, 0.253433, -2.8987e-07, -0.967353 ]
    },
    {
      "name" : "l_fingerA3",
      "translation" : [ 0.306199, 0.0384418, 0.137788 ],
      "rotation" : [ 0.551064, 0.123793, -0.0902616, -0.820278 ]
    },
    {
      "name" : "l_fingerD1",
      "children" : [ 35 ],
      "translation" : [ 0.133656, -0.151832, 0.089125 ],
      "rotation" : [ -0.744004, 0.41598, -0.393123, 0.344779 ]
    },
    {
      "name" : "l_fingerD2",
      "children" : [ 36 ],
      "translation" : [ 0.158748, 3.12639e-15, 5.71694e-07 ],
      "rotation" : [ -1.20903e-07, 0.1108, -1.39899e-08, -0.993843 ]
    },
    {
      "name" : "l_fingerD3",
      "translation" : [ 0.165361, 5.64175e-07, -4.33861e-07 ],
      "rotation" : [ 9.08815e-08, 1.57202e-08, -2.10765e-07, -1 ]
    },
    {
      "name" : "l_armTiwst",
      "translation" : [ 0.272, 1.42109e-16, 2.84217e-16 ],
      "rotation" : [ 2.42861e-17, 8.42594e-35, -3.46945e-18, -1 ]
    },
    {
      "name" : "r_scapula",
      "children" : [ 39 ],
      "translation" : [ 0.143446, 0.408, -0.132939 ],
      "rotation" : [ -0.581049, 0.0643175, 0.806398, -0.0892618 ]
    },
    {
      "name" : "r_shoulder",
      "children" : [ 40, 54 ],
      "translation" : [ -0.618864, 0.0504021, 0.0292056 ],
      "rotation" : [ -0.219077, -0.109972, 0.0775796, -0.966381 ]
    },
    {
      "name" : "r_elbow",
      "children" : [ 41 ],
      "translation" : [ -0.582998, 7.85195e-07, 3.1593e-06 ],
      "rotation" : [ -1.89357e-07, 0.308187, 4.6418e-08, -0.951326 ]
    },
    {
      "name" : "r_wrist",
      "children" : [ 42, 45, 48, 51 ],
      "translation" : [ -0.583542, -2.64684e-06, -7.79777e-07 ],
      "rotation" : [ 0.298208, 2.46459e-07, 2.80779e-07, -0.954501 ]
    },
    {
      "name" : "r_fingerC1",
      "children" : [ 43 ],
      "translation" : [ -0.237784, -0.077196, -0.176445 ],
      "rotation" : [ -0.932114, -0.103881, -0.335733, -0.0875 ]
    },
    {
      "name" : "r_fingerC2",
      "children" : [ 44 ],
      "translation" : [ -0.218282, -9.43245e-14, 4.76169e-07 ],
      "rotation" : [ 2.0312e-07, 0.253429, 1.03336e-07, -0.967354 ]
    },
    {
      "name" : "r_fingerC3",
      "translation" : [ -0.171483, -0.280676, -0.30516 ],
      "rotation" : [ 0.451088, 0.410674, -0.219921, -0.76125 ]
    },
    {
      "name" : "r_fingerB1",
      "children" : [ 46 ],
      "translation" : [ -0.222598, 0.0354582, -0.208535 ],
      "rotation" : [ -0.898251, 0.0982329, -0.424716, -0.0557847 ]
    },
    {
      "name" : "r_fingerB2",
      "children" : [ 47 ],
      "translation" : [ -0.218281, 5.57776e-14, -9.66266e-08 ],
      "rotation" : [ -5.09587e-07, 0.253429, 1.25445e-08, -0.967354 ]
    },
    {
      "name" : "r_fingerB3",
      "translation" : [ -0.232516, -0.144148, -0.329239 ],
      "rotation" : [ 0.488991, 0.353823, -0.0783151, -0.79345 ]
    },
    {
      "name" : "r_fingerA1",
      "children" : [ 49 ],
      "translation" : [ -0.191615, 0.139326, -0.187081 ],
      "rotation" : [ -0.897624, 0.243954, -0.351331, 0.106413 ]
    },
    {
      "name" : "r_fingerA2",
      "children" : [ 50 ],
      "translation" : [ -0.218281, 3.18323e-14, 5.20264e-07 ],
      "rotation" : [ -3.38632e-07, 0.253429, -1.04343e-07, -0.967354 ]
    },
    {
      "name" : "r_fingerA3",
      "translation" : [ -0.304239, -0.0603678, -0.0800729 ],
      "rotation" : [ 0.5695, 0.0859055, -0.144009, -0.804706 ]
    },
    {
      "name" : "r_fingerD1",
      "children" : [ 52 ],
      "translation" : [ -0.133659, 0.151845, -0.0891271 ],
      "rotation" : [ -0.744001, 0.415984, -0.393125, 0.344779 ]
    },
    {
      "name" : "r_fingerD2",
      "children" : [ 53 ],
      "translation" : [ -0.15875, 3e-06, -2.95722e-09 ],
      "rotation" : [ -1.20903e-07, 0.1108, -1.39899e-08, -0.993843 ]
    },
    {
      "name" : "r_fingerD3",
      "translation" : [ -0.165358, -5.83655e-06, -6.30097e-07 ],
      "rotation" : [ 9.66717e-08, 1.15363e-08, -2.16595e-07, -1 ]
    },
    {
      "name" : "r_armTiwst",
      "translation" : [ -0.272, -1.6e-07, -9.99998e-09 ],
      "rotation" : [ -2.86229e-17, -1.38778e-17, -1.04083e-17, -1 ]
    },
    {
      "name" : "c_tail1",
      "children" : [ 56 ],
      "translation" : [ -0.799896, -4.9319e-17, 0.0145082 ],
      "rotation" : [ 0.00562019, -6.15739e-17, 0.999984, -6.05974e-17 ]
    },
    {
      "name" : "c_tail2",
      "children" : [ 57 ],
      "translation" : [ 1.19602, -7.24766e-17, -1.97759e-06 ],
      "rotation" : [ -2.1823e-33, -0.0231325, -1.41645e-18, -0.999732 ]
    },
    {
      "name" : "c_tail3",
      "children" : [ 58 ],
      "translation" : [ 1.05498, -6.42908e-17, 1.05014e-06 ],
      "rotation" : [ -5.69301e-33, -0.0635744, -3.89281e-18, -0.997977 ]
    },
    {
      "name" : "c_tail4",
      "children" : [ 59 ],
      "translation" : [ 0.918989, -5.62473e-17, -1.23856e-06 ],
      "rotation" : [ 2.71979e-32, -0.0299977, -1.83683e-18, -0.99955 ]
    },
    {
      "name" : "c_tail5",
      "translation" : [ 0.80338, -4.8996e-17, -1.06481e-06 ],
      "rotation" : [ -1.40793e-32, -0.0166848, -1.02165e-18, -0.999861 ]
    },
    {
      "name" : "l_leg",
      "children" : [ 61, 75 ],
      "translation" : [ -0.0108965, -0.408411, -0.00934273 ],
      "rotation" : [ 0.0181314, 0.599624, 0.112657, -0.792105 ]
    },
    {
      "name" : "l_knee",
      "children" : [ 62 ],
      "translation" : [ 0.839596, 2.45848e-14, -3.06169e-07 ],
      "rotation" : [ -0.857033, -1.40692e-08, -0.515261, 9.0493e-08 ]
    },
    {
      "name" : "l_ankle",
      "children" : [ 63, 66, 69, 72 ],
      "translation" : [ 0.811852, 3.68603e-07, -1.42441e-07 ],
      "rotation" : [ -0.847532, 0.040335, -0.525191, -0.0650908 ]
    },
    {
      "name" : "l_toeB1",
      "children" : [ 64 ],
      "translation" : [ 0.481542, 7.91578e-09, 1.05493e-07 ],
      "rotation" : [ 0.00332088, -0.440702, -0.00539256, -0.897631 ]
    },
    {
      "name" : "l_toeB2",
      "children" : [ 65 ],
      "translation" : [ 0.280938, 3.01582e-07, -0.0117327 ],
      "rotation" : [ 1.22293e-05, -0.111988, -0.000699758, -0.993709 ]
    },
    {
      "name" : "l_toeB3",
      "translation" : [ 0.264973, 0.0562065, -0.00297286 ],
      "rotation" : [ 0.00205607, -0.0234641, -0.0522996, -0.998354 ]
    },
    {
      "name" : "l_toeA1",
      "children" : [ 67 ],
      "translation" : [ 0.476967, 0.0924021, 0.00128855 ],
      "rotation" : [ -0.159127, -0.404122, -0.215106, -0.874696 ]
    },
    {
      "name" : "l_toeA2",
      "children" : [ 68 ],
      "translation" : [ 0.218649, 0.000271679, -0.013674 ],
      "rotation" : [ -0.000272778, -0.0975284, -0.00189348, -0.995231 ]
    },
    {
      "name" : "l_toeA3",
      "translation" : [ 0.195188, 0.0476582, -0.00290204 ],
      "rotation" : [ -0.00183905, -0.0234949, -0.0523048, -0.998353 ]
    },
    {
      "name" : "l_toeC1",
      "children" : [ 70 ],
      "translation" : [ 0.485923, -0.110475, 0.00794147 ],
      "rotation" : [ 0.130421, -0.49516, 0.17272, -0.841412 ]
    },
    {
      "name" : "l_toeC2",
      "children" : [ 71 ],
      "translation" : [ 0.225705, 5.46676e-05, 0.00576364 ],
      "rotation" : [ -0.000239331, -0.0336764, 0.0025181, -0.99943 ]
    },
    {
      "name" : "l_toeC3",
      "translation" : [ 0.218856, 0.0498806, 0.0063724 ],
      "rotation" : [ 0.00171296, -0.0222595, -0.0523385, -0.99838 ]
    },
    {
      "name" : "l_toeD1",
      "children" : [ 73 ],
      "translation" : [ 0.442041, 0.144594, 0.0603041 ],
      "rotation" : [ -0.358812, -0.349078, -0.426845, -0.753128 ]
    },
    {
      "name" : "l_toeD2",
      "children" : [ 74 ],
      "translation" : [ 0.145871, -4.86458e-05, -0.00220977 ],
      "rotation" : [ 0.000476779, -0.0808212, -0.00757226, -0.9967 ]
    },
    {
      "name" : "l_toeD3",
      "translation" : [ 0.145731, 0.0311586, 0.0201364 ],
      "rotation" : [ -0.0121366, 0.00765129, -0.0345387, -0.9993 ]
    },
    {
      "name" : "l_legTwist",
      "translation" : [ 0.410033, -1.44733e-07, 8.60263e-07 ],
      "rotation" : [ -0.00594921, -3.45989e-07, 1.1544e-08, -0.999982 ]
    },
    {
      "name" : "r_leg",
      "children" : [ 77, 91 ],
      "translation" : [ -0.0108961, 0.408682, -0.00934136 ],
      "rotation" : [ 0.112563, -0.791781, -0.0182267, -0.600067 ]
    },
    {
      "name" : "r_knee",
      "children" : [ 78 ],
      "translation" : [ -0.839596, 1.80965e-07, -2.89782e-07 ],
      "rotation" : [ -0.857314, 1.5257e-07, -0.514794, -8.95829e-08 ]
    },
    {
      "name" : "r_ankle",
      "children" : [ 79, 82, 85, 88 ],
      "translation" : [ -0.811852, -1.72208e-07, -2.06763e-07 ],
      "rotation" : [ -0.847048, 0.0404109, -0.525967, -0.0650794 ]
    },
    {
      "name" : "r_toeB1",
      "children" : [ 80 ],
      "translation" : [ -0.481453, 4.0015e-07, -3.99012e-07 ],
      "rotation" : [ 0.00318374, -0.39469, -0.00493306, -0.918796 ]
    },
    {
      "name" : "r_toeB2",
      "children" : [ 81 ],
      "translation" : [ -0.278465, -0.000270824, 0.0395491 ],
      "rotation" : [ 8.58783e-06, -0.138252, -0.00118137, -0.990396 ]
    },
    {
      "name" : "r_toeB3",
      "translation" : [ -0.263857, -0.0561304, 0.0152687 ],
      "rotation" : [ -0.000381964, -0.0234609, -0.0523349, -0.998354 ]
    },
    {
      "name" : "r_toeA1",
      "children" : [ 83 ],
      "translation" : [ -0.477007, -0.0924114, -0.00125217 ],
      "rotation" : [ -0.162403, -0.389172, -0.21226, -0.881542 ]
    },
    {
      "name" : "r_toeA2",
      "children" : [ 84 ],
      "translation" : [ -0.218086, -0.000368338, 0.020724 ],
      "rotation" : [ 5.97193e-05, -0.113667, -0.00215153, -0.993517 ]
    },
    {
      "name" : "r_toeA3",
      "translation" : [ -0.195208, -0.0476589, 0.002831 ],
      "rotation" : [ -0.00183059, -0.0234635, -0.0523049, -0.998354 ]
    },
    {
      "name" : "r_toeC1",
      "children" : [ 86 ],
      "translation" : [ -0.485422, 0.109551, -0.00945024 ],
      "rotation" : [ 0.140206, -0.441225, 0.16374, -0.871121 ]
    },
    {
      "name" : "r_toeC2",
      "children" : [ 87 ],
      "translation" : [ -0.226399, 0.000556213, 0.0229356 ],
      "rotation" : [ 0.000111603, -0.0714996, 0.0033692, -0.997435 ]
    },
    {
      "name" : "r_toeC3",
      "translation" : [ -0.218182, -0.0497465, 0.00428333 ],
      "rotation" : [ -0.00084194, -0.022254, -0.0523543, -0.99838 ]
    },
    {
      "name" : "r_toeD1",
      "children" : [ 89 ],
      "translation" : [ -0.442001, -0.144619, -0.0602072 ],
      "rotation" : [ -0.35852, -0.34833, -0.426995, -0.753528 ]
    },
    {
      "name" : "r_toeD2",
      "children" : [ 90 ],
      "translation" : [ -0.145871, 4.84983e-05, 0.00220963 ],
      "rotation" : [ 0.000476779, -0.0808212, -0.00757226, -0.9967 ]
    },
    {
      "name" : "r_toeD3",
      "translation" : [ -0.145748, -0.0311128, -0.0201903 ],
      "rotation" : [ -0.0121764, 0.00770587, -0.0344817, -0.999301 ]
    },
    {
      "name" : "r_legTwist",
      "translation" : [ -0.410033, 2.54137e-07, 7.67798e-08 ],
      "rotation" : [ -0.00593771, -5.5276e-08, -3.12242e-08, -0.999982 ]
    }
  ],
  "skins" : [
    {
      "inverseBindMatrices" : 0,
      "skeleton" : 1,
      "joints" : [
        1,2,3,4,5,6,7,8,9,10,11,12,13,14,15,16,17,18,19,20,21,22,23,24,25,26,27,28,29,30,31,32,
        33,34,35,36,37,38,39,40,41,42,43,44,45,46,47,48,49,50,51,52,53,54,55,56,57,58,59,60,61,62,63,64,
        65,66,67,68,69,70,71,72,73,74,75,76,77,78,79,80,81,82,83,84,85,86,87,88,89,90,91
      ]
    }
  ],
  "materials" : [
    {
      "name" : "dummy_material_0",
      "pbrMetallicRoughness" : {
        "baseColorFactor" : [ 0.3, 0.3, 0.3, 1.0 ],
        "metallicFactor" : 0.1,
        "roughnessFactor" : 0.5
      }
    }
  ],
  "meshes" : [
    {
      "primitives" : [
        {
          "attributes" : {
            "POSITION" : 2,
            "NORMAL" : 3,
            "TANGENT" : 4,
            "COLOR_0" : 5,
            "JOINTS_0" : 6,
            "WEIGHTS_0" : 7,
            "TEXCOORD_0" : 8,
            "TEXCOORD_1" : 9
          },
          "indices" : 1,
          "material" : 0
        }
      ],
      "name" : "Spino"
    }
  ],
  "buffers" : [
    {
      "uri" : "Spino.bin",
      "byteLength" : 2194180
    }
  ],
  "bufferViews" : [
    {
      "buffer" : 0,
      "byteOffset" : 0,
      "byteLength" : 5824
    },
    {
      "buffer" : 0,
      "byteOffset" : 5824,
      "byteLength" : 247740
    },
    {
      "buffer" : 0,
      "byteOffset" : 253564,
      "byteLength" : 323436
    },
    {
      "buffer" : 0,
      "byteOffset" : 577000,
      "byteLength" : 323436
    },
    {
      "buffer" : 0,
      "byteOffset" : 900436,
      "byteLength" : 431248
    },
    {
      "buffer" : 0,
      "byteOffset" : 1331684,
      "byteLength" : 107812
    },
    {
      "buffer" : 0,
      "byteOffset" : 1439496,
      "byteLength" : 215624
    },
    {
      "buffer" : 0,
      "byteOffset" : 1655120,
      "byteLength" : 107812
    },
    {
      "buffer" : 0,
      "byteOffset" : 1762932,
      "byteLength" : 215624
    },
    {
      "buffer" : 0,
      "byteOffset" : 1978556,
      "byteLength" : 215624
    }
  ],
  "accessors" : [
    {
      "bufferView" : 0,
      "componentType" : 5126,
      "count" : 91,
      "type" : "MAT4"
    },
    {
      "bufferView" : 1,
      "componentType" : 5123,
      "count" : 123870,
      "type" : "SCALAR"
    },
    {
      "bufferView" : 2,
      "min" : [ -1.02678, -0.0602796, -6.26879 ],
      "max" : [ 1.02678, 4.59652, 4.47756 ],
      "componentType" : 5126,
      "count" : 26953,
      "type" : "VEC3"
    },
    {
      "bufferView" : 3,
      "componentType" : 5126,
      "count" : 26953,
      "type" : "VEC3"
    },
    {
      "bufferView" : 4,
      "componentType" : 5126,
      "count" : 26953,
      "type" : "VEC4"
    },
    {
      "bufferView" : 5,
      "normalized" : true,
      "componentType" : 5121,
      "count" : 26953,
      "type" : "VEC4"
    },
    {
      "bufferView" : 6,
      "componentType" : 5123,
      "count" : 26953,
      "type" : "VEC4"
    },
    {
      "bufferView" : 7,
      "normalized" : true,
      "componentType" : 5121,
      "count" : 26953,
      "type" : "VEC4"
    },
    {
      "bufferView" : 8,
      "componentType" : 5126,
      "count" : 26953,
      "type" : "VEC2"
    },
    {
      "bufferView" : 9,
      "componentType" : 5126,
      "count" : 26953,
      "type" : "VEC2"
    }
  ]
}
