{
  "asset" : {
    "generator" : "UE Viewer (umodel) build 1612-floxay",
    "version" : "2.0"
  },
  "scene" : 0,
  "scenes" : [
    {
      "nodes" : [ 0 ]
    }
  ],
  "nodes" : [
    {
      "name" : "Dragon",
      "mesh" : 0,
      "skin" : 0,
      "children" : [ 1 ]
    },
    {
      "name" : "root",
      "children" : [ 2 ],
      "translation" : [ 0, 0, -0 ],
      "rotation" : [ -0.707107, -0, 0, -0.707107 ]
    },
    {
      "name" : "c_back1",
      "children" : [ 3, 12, 27, 42 ],
      "translation" : [ 0, -2.10121, -6.32566 ],
      "rotation" : [ 0.0334838, -0.0334838, -0.706313, -0.706313 ]
    },
    {
      "name" : "c_tail1",
      "children" : [ 4 ],
      "translation" : [ -1.3797, -4.44033e-16, 0.32171 ],
      "rotation" : [ 0.0954752, -8.79985e-17, 0.995432, -2.76137e-16 ]
    },
    {
      "name" : "c_tail2",
      "children" : [ 5 ],
      "translation" : [ 2.29775, -2.16829e-16, -1.13687e-15 ],
      "rotation" : [ -1.2326e-32, -2.77556e-17, 0, -1 ]
    },
    {
      "name" : "c_tail3",
      "children" : [ 6 ],
      "translation" : [ 2.29775, -2.89277e-16, 3.86535e-14 ],
      "rotation" : [ -1.2326e-32, -2.77556e-17, 0, -1 ]
    },
    {
      "name" : "c_tail4",
      "children" : [ 7 ],
      "translation" : [ 2.29775, -3.11529e-16, -5.68434e-15 ],
      "rotation" : [ -1.2326e-32, -2.77556e-17, 0, -1 ]
    },
    {
      "name" : "c_tail5",
      "children" : [ 8 ],
      "translation" : [ 2.29775, -2.46728e-16, -5.68434e-15 ],
      "rotation" : [ -1.2326e-32, -2.77556e-17, 0, -1 ]
    },
    {
      "name" : "c_tail6",
      "children" : [ 9 ],
      "translation" : [ 2.29775, -3.36943e-16, -0 ],
      "rotation" : [ -1.2326e-32, -2.77556e-17, 0, -1 ]
    },
    {
      "name" : "c_tail7",
      "children" : [ 10 ],
      "translation" : [ 2.29775, -4.49854e-17, -3.18323e-14 ],
      "rotation" : [ -1.2326e-32, -2.77556e-17, 0, -1 ]
    },
    {
      "name" : "c_tail8",
      "children" : [ 11 ],
      "translation" : [ 2.29775, -4.26794e-16, 1.13687e-14 ],
      "rotation" : [ -1.2326e-32, -2.77556e-17, 0, -1 ]
    },
    {
      "name" : "c_tail9",
      "translation" : [ 2.29775, -1.20865e-16, -9.09495e-15 ],
      "rotation" : [ -1.2326e-32, -2.77556e-17, 0, -1 ]
    },
    {
      "name" : "l_leg",
      "children" : [ 13 ],
      "translation" : [ 0.0108253, -0.99658, 0.192314 ],
      "rotation" : [ -0.0446923, 0.674178, 0.126759, -0.726236 ]
    },
    {
      "name" : "l_knee",
      "children" : [ 14 ],
      "translation" : [ 2.4987, 1.13687e-15, 5.68434e-16 ],
      "rotation" : [ 4.97968e-18, 0.358824, -1.29536e-17, -0.933405 ]
    },
    {
      "name" : "l_ankle",
      "children" : [ 15, 18, 21, 24 ],
      "translation" : [ 2.38402, 5.68434e-16, -1.7053e-15 ],
      "rotation" : [ -3.8698e-09, -0.471304, -1.65747e-07, -0.881971 ]
    },
    {
      "name" : "l_toeB1",
      "children" : [ 16 ],
      "translation" : [ 1.61833, 0.0762666, 0.0770591 ],
      "rotation" : [ 0.102346, -0.552807, -0.0404428, -0.826011 ]
    },
    {
      "name" : "l_toeB2",
      "children" : [ 17 ],
      "translation" : [ 0.5417, 5.68434e-16, -1.06581e-15 ],
      "rotation" : [ -3.31772e-18, 0.118258, 1.68563e-17, -0.992983 ]
    },
    {
      "name" : "l_toeB3",
      "translation" : [ 0.606815, -1.13687e-15, -1.42109e-16 ],
      "rotation" : [ 0.083621, -0.083621, 0.702145, -0.702145 ]
    },
    {
      "name" : "l_toeA1",
      "children" : [ 19 ],
      "translation" : [ 1.58146, 0.373027, 0.026612 ],
      "rotation" : [ 0.0583469, -0.545217, -0.105058, -0.829636 ]
    },
    {
      "name" : "l_toeA2",
      "children" : [ 20 ],
      "translation" : [ 0.469716, -8.52651e-16, -1.06581e-16 ],
      "rotation" : [ 1.48942e-09, 0.118258, -1.25063e-08, -0.992983 ]
    },
    {
      "name" : "l_toeA3",
      "translation" : [ 0.606815, 8.52651e-16, 5.68434e-16 ],
      "rotation" : [ 0.083621, -0.083621, 0.702145, -0.702145 ]
    },
    {
      "name" : "l_toeC1",
      "children" : [ 22 ],
      "translation" : [ 1.6384, -0.135272, 0.136351 ],
      "rotation" : [ 0.168154, -0.520226, 0.0716331, -0.834241 ]
    },
    {
      "name" : "l_toeC2",
      "children" : [ 23 ],
      "translation" : [ 0.598087, -1.7053e-15, -5.32907e-16 ],
      "rotation" : [ 5.12862e-20, 0.118258, -4.30638e-19, -0.992983 ]
    },
    {
      "name" : "l_toeC3",
      "translation" : [ 0.606815, 0, 2.30926e-16 ],
      "rotation" : [ 0.083621, -0.083621, 0.702145, -0.702145 ]
    },
    {
      "name" : "l_toeD1",
      "children" : [ 25 ],
      "translation" : [ 1.6753, -0.410276, 0.281204 ],
      "rotation" : [ 0.150588, -0.499815, 0.140055, -0.841363 ]
    },
    {
      "name" : "l_toeD2",
      "children" : [ 26 ],
      "translation" : [ 0.469716, -5.68434e-16, -2.13163e-16 ],
      "rotation" : [ 2.76495e-09, 0.118258, -2.32166e-08, -0.992983 ]
    },
    {
      "name" : "l_toeD3",
      "translation" : [ 0.606815, 1.13687e-15, 4.9738e-16 ],
      "rotation" : [ 0.083621, -0.083621, 0.702145, -0.702145 ]
    },
    {
      "name" : "r_leg",
      "children" : [ 28 ],
      "translation" : [ 0.0108248, 0.99658, 0.192311 ],
      "rotation" : [ 0.126759, -0.726236, 0.0446925, -0.674178 ]
    },
    {
      "name" : "r_knee",
      "children" : [ 29 ],
      "translation" : [ -2.49871, -1.17963e-06, 3.05964e-06 ],
      "rotation" : [ -0, 0.358827, -0, -0.933404 ]
    },
    {
      "name" : "r_ankle",
      "children" : [ 30, 33, 36, 39 ],
      "translation" : [ -2.38402, -1.04797e-06, 6.65224e-06 ],
      "rotation" : [ 6.37674e-07, -0.471307, -1.66197e-07, -0.881969 ]
    },
    {
      "name" : "r_toeB1",
      "children" : [ 31 ],
      "translation" : [ -1.61833, -0.0762663, -0.0770576 ],
      "rotation" : [ 0.101193, -0.551257, -0.0468681, -0.826849 ]
    },
    {
      "name" : "r_toeB2",
      "children" : [ 32 ],
      "translation" : [ -0.541698, 3.54309e-06, -9.1045e-08 ],
      "rotation" : [ 0.000763977, 0.116922, 0.00643968, -0.99312 ]
    },
    {
      "name" : "r_toeB3",
      "translation" : [ -0.606816, 7.79253e-08, 1.42799e-07 ],
      "rotation" : [ 0.083621, -0.083621, 0.702145, -0.702145 ]
    },
    {
      "name" : "r_toeA1",
      "children" : [ 34 ],
      "translation" : [ -1.58146, -0.373029, -0.0266132 ],
      "rotation" : [ 0.0566249, -0.544739, -0.112424, -0.829104 ]
    },
    {
      "name" : "r_toeA2",
      "children" : [ 35 ],
      "translation" : [ -0.469725, 5.66326e-06, -9.91332e-07 ],
      "rotation" : [ 0.000910724, 0.117946, 0.0076573, -0.99299 ]
    },
    {
      "name" : "r_toeA3",
      "translation" : [ -0.60681, -2.87296e-06, -1.23773e-06 ],
      "rotation" : [ 0.083621, -0.083621, 0.702145, -0.702145 ]
    },
    {
      "name" : "r_toeC1",
      "children" : [ 37 ],
      "translation" : [ -1.63841, 0.135274, -0.136345 ],
      "rotation" : [ 0.168017, -0.517911, 0.065988, -0.836172 ]
    },
    {
      "name" : "r_toeC2",
      "children" : [ 38 ],
      "translation" : [ -0.598082, -3.36303e-06, 5.52001e-07 ],
      "rotation" : [ 0.00060737, 0.116539, 0.00513607, -0.993173 ]
    },
    {
      "name" : "r_toeC3",
      "translation" : [ -0.606816, 2.13647e-06, 3.96812e-07 ],
      "rotation" : [ 0.083621, -0.083621, 0.702145, -0.702145 ]
    },
    {
      "name" : "r_toeD1",
      "children" : [ 40 ],
      "translation" : [ -1.6753, 0.410274, -0.281201 ],
      "rotation" : [ 0.150095, -0.496233, 0.132816, -0.844739 ]
    },
    {
      "name" : "r_toeD2",
      "children" : [ 41 ],
      "translation" : [ -0.469721, 1.83162e-06, -2.73616e-07 ],
      "rotation" : [ 1.33405e-09, 0.118258, -1.12017e-08, -0.992983 ]
    },
    {
      "name" : "r_toeD3",
      "translation" : [ -0.606805, -1.69288e-06, -1.92949e-06 ],
      "rotation" : [ 0.083621, -0.083621, 0.702145, -0.702145 ]
    },
    {
      "name" : "c_back2",
      "children" : [ 43 ],
      "translation" : [ 1.34999, 2.99758e-16, -0 ],
      "rotation" : [ -4.62223e-33, -6.93889e-18, 2.81186e-32, -1 ]
    },
    {
      "name" : "c_back3",
      "children" : [ 44 ],
      "translation" : [ 1.34999, 2.99758e-16, 1.13687e-15 ],
      "rotation" : [ -4.62223e-33, -6.93889e-18, 2.81186e-32, -1 ]
    },
    {
      "name" : "c_back4",
      "children" : [ 45, 90, 135 ],
      "translation" : [ 1.34999, -2.36658e-32, -0 ],
      "rotation" : [ -4.62223e-33, -6.93889e-18, 2.81186e-32, -1 ]
    },
    {
      "name" : "l_scapula",
      "children" : [ 46, 63 ],
      "translation" : [ 0.695235, -0.35764, 0.395683 ],
      "rotation" : [ 0.490673, -0.462837, 0.516033, -0.52795 ]
    },
    {
      "name" : "l_shoulder",
      "children" : [ 47, 62 ],
      "translation" : [ 1.13489, -0.31911, -0.20029 ],
      "rotation" : [ -0.0987541, -0.034592, 0.607724, -0.787224 ]
    },
    {
      "name" : "l_elbow",
      "children" : [ 48, 50 ],
      "translation" : [ 1.9953, 3.41061e-15, 1.12266e-14 ],
      "rotation" : [ -0.89932, 3.92569e-17, -0.43729, -4.89989e-17 ]
    },
    {
      "name" : "l_forearmTwist1",
      "children" : [ 49 ],
      "translation" : [ 0.607779, -5.68434e-16, -1.7053e-15 ],
      "rotation" : [ 1.38778e-17, 8.32667e-17, -1.38778e-17, -1 ]
    },
    {
      "name" : "l_forearmTwist2",
      "translation" : [ 0.628672, -1.13687e-15, -3.41061e-15 ],
      "rotation" : [ 1.38778e-17, 8.32667e-17, -1.38778e-17, -1 ]
    },
    {
      "name" : "l_wrist",
      "children" : [ 51, 53, 55, 57, 59 ],
      "translation" : [ 1.9629, -2.84217e-15, -1.19371e-14 ],
      "rotation" : [ 0.580032, 4.27163e-08, 9.82043e-09, -0.814594 ]
    },
    {
      "name" : "l_fingerB1",
      "children" : [ 52 ],
      "translation" : [ 0.810091, 0.248345, 0.0609255 ],
      "rotation" : [ -0.0758642, 0.0289024, -0.124296, -0.988918 ]
    },
    {
      "name" : "l_fingerB2",
      "translation" : [ 0.37793, 1.7053e-15, -2.27374e-15 ],
      "rotation" : [ 2.77556e-17, 2.77556e-17, -2.77556e-17, -1 ]
    },
    {
      "name" : "l_fingerC1",
      "children" : [ 54 ],
      "translation" : [ 0.815391, -0.0107599, 0.0200322 ],
      "rotation" : [ -0.128229, 0.0186624, -0.0346196, -0.990964 ]
    },
    {
      "name" : "l_fingerC2",
      "translation" : [ 0.37793, 2.27374e-15, -1.13687e-15 ],
      "rotation" : [ -4.16334e-17, -1.15556e-33, -2.77556e-17, -1 ]
    },
    {
      "name" : "l_fingerD1",
      "children" : [ 56 ],
      "translation" : [ 0.791969, -0.204358, -0.0264023 ],
      "rotation" : [ 0.00605433, 0.0595464, 0.119804, -0.990992 ]
    },
    {
      "name" : "l_fingerD2",
      "translation" : [ 0.37793, 2.55795e-15, -2.27374e-15 ],
      "rotation" : [ -1.38778e-17, 3.85186e-34, 2.77556e-17, -1 ]
    },
    {
      "name" : "l_fingerE1",
      "children" : [ 58 ],
      "translation" : [ 0.724139, -0.442617, -0.0177862 ],
      "rotation" : [ 0.00218611, 0.0598135, 0.183717, -0.981155 ]
    },
    {
      "name" : "l_fingerE2",
      "translation" : [ 0.37793, 4.54747e-15, -1.7053e-15 ],
      "rotation" : [ 4.85723e-17, 2.77556e-17, 2.77556e-17, -1 ]
    },
    {
      "name" : "l_fingerA1",
      "children" : [ 60 ],
      "translation" : [ 0.291388, 0.290518, 0.112837 ],
      "rotation" : [ -0.450161, -0.160684, -0.343288, -0.80851 ]
    },
    {
      "name" : "l_fingerA2",
      "children" : [ 61 ],
      "translation" : [ 0.37793, -1.13687e-15, -1.13687e-15 ],
      "rotation" : [ 2.27148e-17, 0.211878, 2.62248e-17, -0.977296 ]
    },
    {
      "name" : "l_fingerA3",
      "translation" : [ 0.3513, 1.7053e-15, -3.41061e-15 ],
      "rotation" : [ 6.93889e-18, -2.40741e-34, 3.46945e-17, -1 ]
    },
    {
      "name" : "l_armTwist",
      "translation" : [ 0.947003, 5.11591e-15, 5.96856e-15 ],
      "rotation" : [ -3.46945e-18, -1.38778e-17, 1.38778e-17, -1 ]
    },
    {
      "name" : "l_wingShoulder",
      "children" : [ 64, 65 ],
      "translation" : [ 1.02341, 0.846822, -0.751036 ],
      "rotation" : [ -0.637838, -0.182825, 0.0213988, -0.74785 ]
    },
    {
      "name" : "l_wingArmTwist",
      "translation" : [ 1.44013, 0, -4.54747e-15 ],
      "rotation" : [ 9.62965e-35, 2.77556e-17, -3.46945e-18, -1 ]
    },
    {
      "name" : "l_wingElbow",
      "children" : [ 66, 68 ],
      "translation" : [ 3.18481, -2.27374e-15, 1.25056e-14 ],
      "rotation" : [ -0.696656, -0.121123, -0.121123, -0.696656 ]
    },
    {
      "name" : "l_wingForearmTwist1",
      "children" : [ 67 ],
      "translation" : [ 1.23403, 4.54747e-15, -2.84217e-16 ],
      "rotation" : [ -6.93889e-18, 1.73472e-18, -1.38778e-17, -1 ]
    },
    {
      "name" : "l_wingForearmTwist2",
      "translation" : [ 1.23403, -1.13687e-15, 2.27374e-15 ],
      "rotation" : [ -6.93889e-18, 1.73472e-18, -1.38778e-17, -1 ]
    },
    {
      "name" : "l_wingWrist",
      "children" : [ 69, 72, 76, 80, 84, 88 ],
      "translation" : [ 3.7021, 4.54747e-15, -8.2423e-15 ],
      "rotation" : [ 0.707107, 1.10397e-17, -8.58644e-18, -0.707107 ]
    },
    {
      "name" : "l_wingE1",
      "children" : [ 70 ],
      "translation" : [ -0.57376, -0.916476, 0.216306 ],
      "rotation" : [ 0.0617567, 0.0523212, 0.883303, -0.461762 ]
    },
    {
      "name" : "l_wingE2",
      "children" : [ 71 ],
      "translation" : [ 3.17098, -7.95808e-15, 3.41061e-15 ],
      "rotation" : [ 0.000285036, 0.0280008, 0.0101751, -0.999556 ]
    },
    {
      "name" : "l_wingE3",
      "translation" : [ 2.86621, -2.84217e-14, 1.81899e-14 ],
      "rotation" : [ 2.15814e-17, -2.15814e-17, -0.86102, -0.50857 ]
    },
    {
      "name" : "l_wingD1",
      "children" : [ 73 ],
      "translation" : [ 0.158313, -0.338758, 0.0791814 ],
      "rotation" : [ 0.0744489, 0.0693033, 0.761622, -0.639989 ]
    },
    {
      "name" : "l_wingD2",
      "children" : [ 74 ],
      "translation" : [ 3.18041, 0, 9.09495e-15 ],
      "rotation" : [ 0.00123938, -0.0446475, -0.0596804, -0.997218 ]
    },
    {
      "name" : "l_wingD3",
      "children" : [ 75 ],
      "translation" : [ 3.48914, 0, -1.13687e-15 ],
      "rotation" : [ 2.39884e-05, -0.0283281, -0.000846467, -0.999598 ]
    },
    {
      "name" : "l_wingD4",
      "translation" : [ 3.37614, -9.09495e-15, 2.27374e-14 ],
      "rotation" : [ -3.87432e-16, -4.07064e-16, -0.689424, -0.724358 ]
    },
    {
      "name" : "l_wingC1",
      "children" : [ 77 ],
      "translation" : [ 0.738642, -0.177121, 0.0176995 ],
      "rotation" : [ 0.0822007, 0.0480659, 0.484396, -0.869651 ]
    },
    {
      "name" : "l_wingC2",
      "children" : [ 78 ],
      "translation" : [ 2.64479, -4.54747e-15, 5.68434e-15 ],
      "rotation" : [ -4.89894e-05, -0.0207995, -0.0252282, -0.999465 ]
    },
    {
      "name" : "l_wingC3",
      "children" : [ 79 ],
      "translation" : [ 4.5715, 2.27374e-15, 3.41061e-15 ],
      "rotation" : [ 0.000615662, -0.0203998, -0.0301598, -0.999337 ]
    },
    {
      "name" : "l_wingC4",
      "translation" : [ 5.52592, -5.68434e-15, 3.06954e-14 ],
      "rotation" : [ 1.50971e-17, 3.63303e-17, -0.383738, -0.923442 ]
    },
    {
      "name" : "l_wingB1",
      "children" : [ 81 ],
      "translation" : [ 0.977274, 0.331438, -0.166823 ],
      "rotation" : [ 0.0200837, 0.0652277, 0.232644, -0.970164 ]
    },
    {
      "name" : "l_wingB2",
      "children" : [ 82 ],
      "translation" : [ 2.69937, -0.000237137, -0.00430927 ],
      "rotation" : [ -0.000687406, 0.0276181, -0.00153886, -0.999617 ]
    },
    {
      "name" : "l_wingB3",
      "children" : [ 83 ],
      "translation" : [ 6.50997, 1.25056e-14, 9.09495e-15 ],
      "rotation" : [ 1.38281e-17, -2.27788e-18, -0.0234908, -0.999724 ]
    },
    {
      "name" : "l_wingB4",
      "translation" : [ 6.25025, 5.68434e-15, 1.25056e-14 ],
      "rotation" : [ 5.51251e-19, 3.59455e-18, -0.151585, -0.988444 ]
    },
    {
      "name" : "l_wingA1",
      "children" : [ 85 ],
      "translation" : [ 0.862305, 0.650178, -0.219787 ],
      "rotation" : [ -0.00119805, 0.0220685, -0.0254488, -0.999432 ]
    },
    {
      "name" : "l_wingA2",
      "children" : [ 86 ],
      "translation" : [ 3.56063, 1.10845e-14, -4.54747e-15 ],
      "rotation" : [ -0.000126456, 0.047978, 0.00263267, -0.998845 ]
    },
    {
      "name" : "l_wingA3",
      "children" : [ 87 ],
      "translation" : [ 3.64932, 2.58638e-14, -1.13687e-15 ],
      "rotation" : [ 1.16022e-19, -6.9418e-18, 0.0167112, -0.99986 ]
    },
    {
      "name" : "l_wingA4",
      "translation" : [ 1.62291, -5.68434e-16, 1.02318e-14 ],
      "rotation" : [ -7.30248e-18, 7.30248e-18, 0.0486074, -0.998818 ]
    },
    {
      "name" : "l_wingClaw",
      "children" : [ 89 ],
      "translation" : [ 0.757867, 0.874461, -0.184272 ],
      "rotation" : [ 0.0999292, -0.0746863, -0.808778, -0.574729 ]
    },
    {
      "name" : "l_wingClaw2",
      "translation" : [ 1.21029, 2.27374e-15, -3.41061e-15 ],
      "rotation" : [ -8.47895e-17, 8.47895e-17, 0.836022, -0.548695 ]
    },
    {
      "name" : "r_scapula",
      "children" : [ 91, 108 ],
      "translation" : [ 0.695234, 0.35764, 0.395686 ],
      "rotation" : [ 0.516033, -0.52795, -0.490673, 0.462837 ]
    },
    {
      "name" : "r_shoulder",
      "children" : [ 92, 107 ],
      "translation" : [ -1.13488, 0.319104, 0.200293 ],
      "rotation" : [ -0.0987557, -0.0345907, 0.607723, -0.787225 ]
    },
    {
      "name" : "r_elbow",
      "children" : [ 93, 95 ],
      "translation" : [ -1.99531, 4.49479e-07, -2.57921e-06 ],
      "rotation" : [ -0.89932, -1.36355e-16, -0.43729, 2.48688e-16 ]
    },
    {
      "name" : "r_forearmTwist1",
      "children" : [ 94 ],
      "translation" : [ -0.607776, 4.97171e-06, 2.60698e-06 ],
      "rotation" : [ -1.49012e-08, -2.06795e-25, -1.38778e-17, -1 ]
    },
    {
      "name" : "r_forearmTwist2",
      "translation" : [ -0.628673, -1.55506e-06, -3.95813e-06 ],
      "rotation" : [ -1.97124e-08, 2.73564e-25, 1.38778e-17, -1 ]
    },
    {
      "name" : "r_wrist",
      "children" : [ 96, 98, 100, 102, 104 ],
      "translation" : [ -1.9629, 7.23532e-06, -4.43598e-07 ],
      "rotation" : [ 0.580032, 4.61636e-08, 4.80787e-09, -0.814594 ]
    },
    {
      "name" : "r_fingerB1",
      "children" : [ 97 ],
      "translation" : [ -0.810086, -0.248347, -0.0609313 ],
      "rotation" : [ -0.0758624, 0.0289012, -0.124296, -0.988919 ]
    },
    {
      "name" : "r_fingerB2",
      "translation" : [ -0.377937, -2.83829e-06, 3.30627e-07 ],
      "rotation" : [ -2.10734e-08, -2.77556e-17, -5.55111e-17, -1 ]
    },
    {
      "name" : "r_fingerC1",
      "children" : [ 99 ],
      "translation" : [ -0.815391, 0.0107503, -0.0200364 ],
      "rotation" : [ -0.128227, 0.0186614, -0.0346192, -0.990965 ]
    },
    {
      "name" : "r_fingerC2",
      "translation" : [ -0.377923, 5.19444e-06, 5.64433e-07 ],
      "rotation" : [ -1.82501e-08, 5.06543e-25, 2.77556e-17, -1 ]
    },
    {
      "name" : "r_fingerD1",
      "children" : [ 101 ],
      "translation" : [ -0.791972, 0.204354, 0.026405 ],
      "rotation" : [ 0.00605433, 0.0595464, 0.119804, -0.990992 ]
    },
    {
      "name" : "r_fingerD2",
      "translation" : [ -0.377927, 2.18991e-06, -1.09471e-05 ],
      "rotation" : [ 1.38778e-17, 3.85186e-34, -2.77556e-17, -1 ]
    },
    {
      "name" : "r_fingerE1",
      "children" : [ 103 ],
      "translation" : [ -0.724135, 0.442611, 0.0177879 ],
      "rotation" : [ 0.00218611, 0.0598135, 0.183717, -0.981155 ]
    },
    {
      "name" : "r_fingerE2",
      "translation" : [ -0.377933, -5.29564e-08, -7.63006e-06 ],
      "rotation" : [ -1.29048e-08, -0, 0, -1 ]
    },
    {
      "name" : "r_fingerA1",
      "children" : [ 105 ],
      "translation" : [ -0.291389, -0.290526, -0.11284 ],
      "rotation" : [ -0.450161, -0.160684, -0.343288, -0.80851 ]
    },
    {
      "name" : "r_fingerA2",
      "children" : [ 106 ],
      "translation" : [ -0.377927, 3.31414e-06, 9.69392e-07 ],
      "rotation" : [ -1.02975e-08, 0.211878, -2.23249e-09, -0.977296 ]
    },
    {
      "name" : "r_fingerA3",
      "translation" : [ -0.351299, -6.71142e-06, 1.73679e-06 ],
      "rotation" : [ -1.666e-08, -2.77556e-17, 4.16334e-17, -1 ]
    },
    {
      "name" : "r_armTwist",
      "translation" : [ -0.947009, -1.9119e-06, -6.12118e-06 ],
      "rotation" : [ 1.38778e-17, 1.38778e-17, 1.38778e-17, -1 ]
    },
    {
      "name" : "r_wingShoulder",
      "children" : [ 109, 110 ],
      "translation" : [ -1.02341, -0.846825, 0.751032 ],
      "rotation" : [ -0.637838, -0.182825, 0.0213988, -0.74785 ]
    },
    {
      "name" : "r_wingArmTwist",
      "translation" : [ -1.44013, 1.02229e-06, 1.87817e-07 ],
      "rotation" : [ -0, -0, 3.46945e-18, -1 ]
    },
    {
      "name" : "r_wingElbow",
      "children" : [ 111, 113 ],
      "translation" : [ -3.18481, 6.16457e-06, 2.87583e-06 ],
      "rotation" : [ -0.696656, -0.121123, -0.121123, -0.696656 ]
    },
    {
      "name" : "r_wingForearmTwist1",
      "children" : [ 112 ],
      "translation" : [ -1.23403, 8.73792e-07, 2.37467e-06 ],
      "rotation" : [ -1.38778e-17, 1.73472e-18, -1.38778e-17, -1 ]
    },
    {
      "name" : "r_wingForearmTwist2",
      "translation" : [ -1.23403, 8.73792e-07, 2.37467e-06 ],
      "rotation" : [ -1.38778e-17, 1.73472e-18, -1.38778e-17, -1 ]
    },
    {
      "name" : "r_wingWrist",
      "children" : [ 114, 117, 121, 125, 129, 133 ],
      "translation" : [ -3.70209, 2.62138e-06, 7.12402e-06 ],
      "rotation" : [ 0.707107, 1.10397e-17, -8.58644e-18, -0.707107 ]
    },
    {
      "name" : "r_wingE1",
      "children" : [ 115 ],
      "translation" : [ 0.573756, 0.91648, -0.216312 ],
      "rotation" : [ 0.0617567, 0.0523212, 0.883303, -0.461762 ]
    },
    {
      "name" : "r_wingE2",
      "children" : [ 116 ],
      "translation" : [ -3.17098, 3.25037e-06, -1.84591e-06 ],
      "rotation" : [ 0.000285036, 0.0280008, 0.0101751, -0.999556 ]
    },
    {
      "name" : "r_wingE3",
      "translation" : [ -2.86621, -3.36979e-06, 5.32541e-06 ],
      "rotation" : [ -5.35886e-09, -9.07267e-09, -0.86102, -0.50857 ]
    },
    {
      "name" : "r_wingD1",
      "children" : [ 118 ],
      "translation" : [ -0.158318, 0.33876, -0.0791832 ],
      "rotation" : [ 0.0744489, 0.0693033, 0.761622, -0.639989 ]
    },
    {
      "name" : "r_wingD2",
      "children" : [ 119 ],
      "translation" : [ -3.18041, 3.24303e-06, 1.76443e-06 ],
      "rotation" : [ 0.00123938, -0.0446475, -0.0596804, -0.997218 ]
    },
    {
      "name" : "r_wingD3",
      "children" : [ 120 ],
      "translation" : [ -3.48915, -1.07605e-06, 3.80995e-07 ],
      "rotation" : [ 2.39884e-05, -0.0283281, -0.000846467, -0.999598 ]
    },
    {
      "name" : "r_wingD4",
      "translation" : [ -3.37614, -1.696e-06, -8.27637e-06 ],
      "rotation" : [ -1.93716e-16, -2.03532e-16, -0.689424, -0.724358 ]
    },
    {
      "name" : "r_wingC1",
      "children" : [ 122 ],
      "translation" : [ -0.738645, 0.177126, -0.0177056 ],
      "rotation" : [ 0.0822007, 0.0480659, 0.484396, -0.869651 ]
    },
    {
      "name" : "r_wingC2",
      "children" : [ 123 ],
      "translation" : [ -2.64476, 3.3573e-05, 1.35408e-05 ],
      "rotation" : [ -4.89894e-05, -0.0207995, -0.0252282, -0.999465 ]
    },
    {
      "name" : "r_wingC3",
      "children" : [ 124 ],
      "translation" : [ -4.57153, -3.27102e-05, -1.25419e-05 ],
      "rotation" : [ 0.000615662, -0.0203998, -0.0301598, -0.999337 ]
    },
    {
      "name" : "r_wingC4",
      "translation" : [ -5.52596, -2.84383e-05, -1.07322e-05 ],
      "rotation" : [ 7.54855e-18, 1.81651e-17, -0.383738, -0.923442 ]
    },
    {
      "name" : "r_wingB1",
      "children" : [ 126 ],
      "translation" : [ -0.977277, -0.331435, 0.166816 ],
      "rotation" : [ 0.0200837, 0.0652277, 0.232644, -0.970164 ]
    },
    {
      "name" : "r_wingB2",
      "children" : [ 127 ],
      "translation" : [ -2.69935, 0.000246782, 0.00431902 ],
      "rotation" : [ -0.000687406, 0.0276181, -0.00153886, -0.999617 ]
    },
    {
      "name" : "r_wingB3",
      "children" : [ 128 ],
      "translation" : [ -6.50996, 2.33153e-06, -8.43454e-06 ],
      "rotation" : [ -1.36445e-17, 1.00906e-17, -0.0234908, -0.999724 ]
    },
    {
      "name" : "r_wingB4",
      "translation" : [ -6.25024, 5.46852e-06, 8.73255e-06 ],
      "rotation" : [ 1.43782e-17, 2.205e-18, -0.151585, -0.988444 ]
    },
    {
      "name" : "r_wingA1",
      "children" : [ 130 ],
      "translation" : [ -0.862306, -0.650177, 0.219778 ],
      "rotation" : [ -0.00119805, 0.0220685, -0.0254488, -0.999432 ]
    },
    {
      "name" : "r_wingA2",
      "children" : [ 131 ],
      "translation" : [ -3.56062, 6.11571e-06, 4.26882e-06 ],
      "rotation" : [ -0.000126456, 0.047978, 0.00263267, -0.998845 ]
    },
    {
      "name" : "r_wingA3",
      "children" : [ 132 ],
      "translation" : [ -3.64932, -1.01977e-05, 1.15036e-05 ],
      "rotation" : [ 6.70976e-18, 1.37676e-17, 0.0167112, -0.99986 ]
    },
    {
      "name" : "r_wingA4",
      "translation" : [ -1.62293, 2.12159e-06, 1.88267e-06 ],
      "rotation" : [ -0, -0, 0.0486074, -0.998818 ]
    },
    {
      "name" : "r_wingClaw",
      "children" : [ 134 ],
      "translation" : [ -0.757869, -0.874461, 0.184263 ],
      "rotation" : [ 0.0999292, -0.0746863, -0.808778, -0.574729 ]
    },
    {
      "name" : "r_wingClaw2",
      "translation" : [ -1.21028, 9.48978e-07, 7.82016e-06 ],
      "rotation" : [ 8.47895e-17, -8.47895e-17, 0.836022, -0.548695 ]
    },
    {
      "name" : "c_neck1",
      "children" : [ 136 ],
      "translation" : [ 1.34999, 2.99758e-16, 3.41061e-15 ],
      "rotation" : [ -3.12404e-32, -0.640267, 2.40335e-32, -0.768153 ]
    },
    {
      "name" : "c_neck2",
      "children" : [ 137 ],
      "translation" : [ 0.980354, 1.0499e-16, -4.54747e-15 ],
      "rotation" : [ -4.2396e-33, -0.0517363, 9.9104e-34, -0.998661 ]
    },
    {
      "name" : "c_neck3",
      "children" : [ 138 ],
      "translation" : [ 1.07227, -2.20064e-17, -1.7053e-15 ],
      "rotation" : [ 5.63932e-32, 0.272734, -4.03183e-33, -0.962089 ]
    },
    {
      "name" : "c_neck4",
      "children" : [ 139 ],
      "translation" : [ 0.997063, 6.97134e-17, -2.27374e-15 ],
      "rotation" : [ 2.84012e-32, 0.371544, -2.95003e-32, -0.928415 ]
    },
    {
      "name" : "c_neck5",
      "children" : [ 140 ],
      "translation" : [ 0.973853, -4.19695e-18, 9.09495e-15 ],
      "rotation" : [ -2.15046e-34, 0.238166, 4.11155e-33, -0.971224 ]
    },
    {
      "name" : "c_head",
      "children" : [ 141, 148, 149 ],
      "translation" : [ 0.924297, -7.43917e-17, 2.27374e-15 ],
      "rotation" : [ 1.13648e-32, 0.151882, 1.22685e-32, -0.988399 ]
    },
    {
      "name" : "c_jaw",
      "children" : [ 142 ],
      "translation" : [ 0.139355, -6.29397e-17, 0.456414 ],
      "rotation" : [ -9.13361e-33, 0.300193, -2.87183e-32, -0.953878 ]
    },
    {
      "name" : "c_tongue1",
      "children" : [ 143 ],
      "translation" : [ 0.538773, 8.4432e-16, 0.0422221 ],
      "rotation" : [ -5.71015e-33, -0.631329, 7.6286e-33, -0.775515 ]
    },
    {
      "name" : "c_tongue2",
      "children" : [ 144 ],
      "translation" : [ 0.184574, 2.04918e-17, -4.54747e-15 ],
      "rotation" : [ 1.81839e-32, 0.518597, 1.01281e-32, -0.855019 ]
    },
    {
      "name" : "c_tongue3",
      "children" : [ 145 ],
      "translation" : [ 0.220004, 1.67025e-17, -2.27374e-15 ],
      "rotation" : [ -4.13689e-32, 0.267008, -1.22613e-32, -0.963694 ]
    },
    {
      "name" : "c_tongue4",
      "children" : [ 146 ],
      "translation" : [ 0.252692, 5.31318e-18, 4.54747e-15 ],
      "rotation" : [ 2.26914e-32, -0.0684299, 1.53231e-33, -0.997656 ]
    },
    {
      "name" : "c_tongue5",
      "children" : [ 147 ],
      "translation" : [ 0.256932, 9.29807e-18, 1.13687e-15 ],
      "rotation" : [ 2.96227e-32, 0.0496804, 1.47349e-33, -0.998765 ]
    },
    {
      "name" : "c_tongue6",
      "translation" : [ 0.273699, 6.90713e-18, -0 ],
      "rotation" : [ 1.69523e-32, -0.20119, 5.95561e-33, -0.979552 ]
    },
    {
      "name" : "l_eye",
      "translation" : [ 0.921411, -0.290386, -0.11247 ],
      "rotation" : [ 0.102391, -0.0386917, 0.955691, -0.273266 ]
    },
    {
      "name" : "r_eye",
      "translation" : [ 0.921412, 0.290386, -0.112466 ],
      "rotation" : [ -0.955691, 0.273266, 0.102391, -0.0386917 ]
    }
  ],
  "skins" : [
    {
      "inverseBindMatrices" : 0,
      "skeleton" : 1,
      "joints" : [
        1,2,3,4,5,6,7,8,9,10,11,12,13,14,15,16,17,18,19,20,21,22,23,24,25,26,27,28,29,30,31,32,
        33,34,35,36,37,38,39,40,41,42,43,44,45,46,47,48,49,50,51,52,53,54,55,56,57,58,59,60,61,62,63,64,
        65,66,67,68,69,70,71,72,73,74,75,76,77,78,79,80,81,82,83,84,85,86,87,88,89,90,91,92,93,94,95,96,
        97,98,99,100,101,102,103,104,105,106,107,108,109,110,111,112,113,114,115,116,117,118,119,120,121,122,123,124,125,126,127,128,
        129,130,131,132,133,134,135,136,137,138,139,140,141,142,143,144,145,146,147,148,149
      ]
    }
  ],
  "materials" : [
    {
      "name" : "dummy_material_0",
      "pbrMetallicRoughness" : {
        "baseColorFactor" : [ 0.3, 0.3, 0.3, 1.0 ],
        "metallicFactor" : 0.1,
        "roughnessFactor" : 0.5
      }
    },
    {
      "name" : "dummy_material_1",
      "pbrMetallicRoughness" : {
        "baseColorFactor" : [ 0.9, 0.3, 0.3, 1.0 ],
        "metallicFactor" : 0.1,
        "roughnessFactor" : 0.5
      }
    },
    {
      "name" : "dummy_material_2",
      "pbrMetallicRoughness" : {
        "baseColorFactor" : [ 0.3, 0.9, 0.3, 1.0 ],
        "metallicFactor" : 0.1,
        "roughnessFactor" : 0.5
      }
    }
  ],
  "meshes" : [
    {
      "primitives" : [
        {
          "attributes" : {
            "POSITION" : 2,
            "NORMAL" : 3,
            "TANGENT" : 4,
            "COLOR_0" : 5,
            "JOINTS_0" : 6,
            "WEIGHTS_0" : 7,
            "TEXCOORD_0" : 8,
            "TEXCOORD_1" : 9
          },
          "indices" : 1,
          "material" : 0
        },
        {
          "attributes" : {
            "POSITION" : 11,
            "NORMAL" : 12,
            "TANGENT" : 13,
            "COLOR_0" : 14,
            "JOINTS_0" : 15,
            "WEIGHTS_0" : 16,
            "TEXCOORD_0" : 17,
            "TEXCOORD_1" : 18
          },
          "indices" : 10,
          "material" : 1
        },
        {
          "attributes" : {
            "POSITION" : 20,
            "NORMAL" : 21,
            "TANGENT" : 22,
            "COLOR_0" : 23,
            "JOINTS_0" : 24,
            "WEIGHTS_0" : 25,
            "TEXCOORD_0" : 26,
            "TEXCOORD_1" : 27
          },
          "indices" : 19,
          "material" : 2
        }
      ],
      "name" : "Dragon"
    }
  ],
  "buffers" : [
    {
      "uri" : "Dragon.bin",
      "byteLength" : 2128876
    }
  ],
  "bufferViews" : [
    {
      "buffer" : 0,
      "byteOffset" : 0,
      "byteLength" : 9536
    },
    {
      "buffer" : 0,
      "byteOffset" : 9536,
      "byteLength" : 138896
    },
    {
      "buffer" : 0,
      "byteOffset" : 148432,
      "byteLength" : 172992
    },
    {
      "buffer" : 0,
      "byteOffset" : 321424,
      "byteLength" : 172992
    },
    {
      "buffer" : 0,
      "byteOffset" : 494416,
      "byteLength" : 230656
    },
    {
      "buffer" : 0,
      "byteOffset" : 725072,
      "byteLength" : 57664
    },
    {
      "buffer" : 0,
      "byteOffset" : 782736,
      "byteLength" : 115328
    },
    {
      "buffer" : 0,
      "byteOffset" : 898064,
      "byteLength" : 57664
    },
    {
      "buffer" : 0,
      "byteOffset" : 955728,
      "byteLength" : 115328
    },
    {
      "buffer" : 0,
      "byteOffset" : 1071056,
      "byteLength" : 115328
    },
    {
      "buffer" : 0,
      "byteOffset" : 1186384,
      "byteLength" : 87900
    },
    {
      "buffer" : 0,
      "byteOffset" : 1274284,
      "byteLength" : 101688
    },
    {
      "buffer" : 0,
      "byteOffset" : 1375972,
      "byteLength" : 101688
    },
    {
      "buffer" : 0,
      "byteOffset" : 1477660,
      "byteLength" : 135584
    },
    {
      "buffer" : 0,
      "byteOffset" : 1613244,
      "byteLength" : 33896
    },
    {
      "buffer" : 0,
      "byteOffset" : 1647140,
      "byteLength" : 67792
    },
    {
      "buffer" : 0,
      "byteOffset" : 1714932,
      "byteLength" : 33896
    },
    {
      "buffer" : 0,
      "byteOffset" : 1748828,
      "byteLength" : 67792
    },
    {
      "buffer" : 0,
      "byteOffset" : 1816620,
      "byteLength" : 67792
    },
    {
      "buffer" : 0,
      "byteOffset" : 1884412,
      "byteLength" : 30192
    },
    {
      "buffer" : 0,
      "byteOffset" : 1914604,
      "byteLength" : 35712
    },
    {
      "buffer" : 0,
      "byteOffset" : 1950316,
      "byteLength" : 35712
    },
    {
      "buffer" : 0,
      "byteOffset" : 1986028,
      "byteLength" : 47616
    },
    {
      "buffer" : 0,
      "byteOffset" : 2033644,
      "byteLength" : 11904
    },
    {
      "buffer" : 0,
      "byteOffset" : 2045548,
      "byteLength" : 23808
    },
    {
      "buffer" : 0,
      "byteOffset" : 2069356,
      "byteLength" : 11904
    },
    {
      "buffer" : 0,
      "byteOffset" : 2081260,
      "byteLength" : 23808
    },
    {
      "buffer" : 0,
      "byteOffset" : 2105068,
      "byteLength" : 23808
    }
  ],
  "accessors" : [
    {
      "bufferView" : 0,
      "componentType" : 5126,
      "count" : 149,
      "type" : "MAT4"
    },
    {
      "bufferView" : 1,
      "componentType" : 5123,
      "count" : 69447,
      "type" : "SCALAR"
    },
    {
      "bufferView" : 2,
      "min" : [ -2.50096, 0.00193859, -3.53834 ],
      "max" : [ 2.50096, 11.6191, 7.78387 ],
      "componentType" : 5126,
      "count" : 14416,
      "type" : "VEC3"
    },
    {
      "bufferView" : 3,
      "componentType" : 5126,
      "count" : 14416,
      "type" : "VEC3"
    },
    {
      "bufferView" : 4,
      "componentType" : 5126,
      "count" : 14416,
      "type" : "VEC4"
    },
    {
      "bufferView" : 5,
      "normalized" : true,
      "componentType" : 5121,
      "count" : 14416,
      "type" : "VEC4"
    },
    {
      "bufferView" : 6,
      "componentType" : 5123,
      "count" : 14416,
      "type" : "VEC4"
    },
    {
      "bufferView" : 7,
      "normalized" : true,
      "componentType" : 5121,
      "count" : 14416,
      "type" : "VEC4"
    },
    {
      "bufferView" : 8,
      "componentType" : 5126,
      "count" : 14416,
      "type" : "VEC2"
    },
    {
      "bufferView" : 9,
      "componentType" : 5126,
      "count" : 14416,
      "type" : "VEC2"
    },
    {
      "bufferView" : 10,
      "componentType" : 5123,
      "count" : 43950,
      "type" : "SCALAR"
    },
    {
      "bufferView" : 11,
      "min" : [ -3.36564, -0.0453752, -21.0702 ],
      "max" : [ 3.36564, 7.9443, 4.80289 ],
      "componentType" : 5126,
      "count" : 8474,
      "type" : "VEC3"
    },
    {
      "bufferView" : 12,
      "componentType" : 5126,
      "count" : 8474,
      "type" : "VEC3"
    },
    {
      "bufferView" : 13,
      "componentType" : 5126,
      "count" : 8474,
      "type" : "VEC4"
    },
    {
      "bufferView" : 14,
      "normalized" : true,
      "componentType" : 5121,
      "count" : 8474,
      "type" : "VEC4"
    },
    {
      "bufferView" : 15,
      "componentType" : 5123,
      "count" : 8474,
      "type" : "VEC4"
    },
    {
      "bufferView" : 16,
      "normalized" : true,
      "componentType" : 5121,
      "count" : 8474,
      "type" : "VEC4"
    },
    {
      "bufferView" : 17,
      "componentType" : 5126,
      "count" : 8474,
      "type" : "VEC2"
    },
    {
      "bufferView" : 18,
      "componentType" : 5126,
      "count" : 8474,
      "type" : "VEC2"
    },
    {
      "bufferView" : 19,
      "componentType" : 5123,
      "count" : 15096,
      "type" : "SCALAR"
    },
    {
      "bufferView" : 20,
      "min" : [ -25.0693, 5.14944, -10.6435 ],
      "max" : [ 25.0693, 10.6923, 3.98795 ],
      "componentType" : 5126,
      "count" : 2976,
      "type" : "VEC3"
    },
    {
      "bufferView" : 21,
      "componentType" : 5126,
      "count" : 2976,
      "type" : "VEC3"
    },
    {
      "bufferView" : 22,
      "componentType" : 5126,
      "count" : 2976,
      "type" : "VEC4"
    },
    {
      "bufferView" : 23,
      "normalized" : true,
      "componentType" : 5121,
      "count" : 2976,
      "type" : "VEC4"
    },
    {
      "bufferView" : 24,
      "componentType" : 5123,
      "count" : 2976,
      "type" : "VEC4"
    },
    {
      "bufferView" : 25,
      "normalized" : true,
      "componentType" : 5121,
      "count" : 2976,
      "type" : "VEC4"
    },
    {
      "bufferView" : 26,
      "componentType" : 5126,
      "count" : 2976,
      "type" : "VEC2"
    },
    {
      "bufferView" : 27,
      "componentType" : 5126,
      "count" : 2976,
      "type" : "VEC2"
    }
  ]
}
