{
  "asset" : {
    "generator" : "UE Viewer (umodel) build 1612-floxay",
    "version" : "2.0"
  },
  "scene" : 0,
  "scenes" : [
    {
      "nodes" : [ 0 ]
    }
  ],
  "nodes" : [
    {
      "name" : "Saber",
      "mesh" : 0,
      "skin" : 0,
      "children" : [ 1 ]
    },
    {
      "name" : "root",
      "children" : [ 2 ],
      "translation" : [ 0, 0, -0 ],
      "rotation" : [ -0.707107, -0, 0, -0.707107 ]
    },
    {
      "name" : "c_back1",
      "children" : [ 3, 60, 66, 79 ],
      "translation" : [ 0, -0.440483, -0.592538 ],
      "rotation" : [ 0.059959, -0.059959, -0.70456, -0.70456 ]
    },
    {
      "name" : "c_back2",
      "children" : [ 4 ],
      "translation" : [ 0.204336, 0, 1.47315e-08 ],
      "rotation" : [ -0, -1.38778e-17, 0, -1 ]
    },
    {
      "name" : "c_back3",
      "children" : [ 5 ],
      "translation" : [ 0.204336, 0, 2.28979e-08 ],
      "rotation" : [ -0, -1.38778e-17, 0, -1 ]
    },
    {
      "name" : "c_back4",
      "children" : [ 6, 30, 45 ],
      "translation" : [ 0.204336, 0, 2.45877e-08 ],
      "rotation" : [ -0, -1.38778e-17, 0, -1 ]
    },
    {
      "name" : "c_back5",
      "children" : [ 7 ],
      "translation" : [ 0.204336, 0, 1.47315e-08 ],
      "rotation" : [ -0, 0.0919939, -0, -0.995759 ]
    },
    {
      "name" : "c_head",
      "children" : [ 8, 14, 15, 18, 20, 21, 23, 26, 27, 28, 29 ],
      "translation" : [ 0.283767, 0, -7.88727e-09 ],
      "rotation" : [ -0, -0.00722728, 0, -0.999974 ]
    },
    {
      "name" : "c_jaw",
      "children" : [ 9 ],
      "translation" : [ 0.0327292, 0, 0.061599 ],
      "rotation" : [ -0, 0.473897, -0, -0.88058 ]
    },
    {
      "name" : "c_tongue1",
      "children" : [ 10 ],
      "translation" : [ 0.0592137, 0, 0.0156846 ],
      "rotation" : [ -0, -0.423218, 0, -0.906028 ]
    },
    {
      "name" : "c_tongue2",
      "children" : [ 11 ],
      "translation" : [ 0.0350234, 0, -2.70727e-09 ],
      "rotation" : [ -0, 0.459214, -0, -0.888326 ]
    },
    {
      "name" : "c_tongue3",
      "children" : [ 12 ],
      "translation" : [ 0.0324303, 0, -7.13786e-09 ],
      "rotation" : [ -0, 0.0313371, -0, -0.999509 ]
    },
    {
      "name" : "c_tongue4",
      "children" : [ 13 ],
      "translation" : [ 0.0382265, 0, 1.30695e-08 ],
      "rotation" : [ -0, -0.27445, 0, -0.961601 ]
    },
    {
      "name" : "c_tongue5",
      "translation" : [ 0.0267574, 0, 8.40915e-09 ],
      "rotation" : [ 0.200268, -0.200268, 0.678154, -0.678154 ]
    },
    {
      "name" : "l_eye",
      "translation" : [ 0.136116, -0.0624523, 0.0196761 ],
      "rotation" : [ -1.33904e-06, -1.33904e-06, 0.153477, -0.988152 ]
    },
    {
      "name" : "l_wiskerA1",
      "children" : [ 16 ],
      "translation" : [ 0.201667, -0.0781114, 0.0940888 ],
      "rotation" : [ -1.66527e-17, -1.66527e-17, 0.829888, -0.557929 ]
    },
    {
      "name" : "l_wiskerA2",
      "children" : [ 17 ],
      "translation" : [ 0.0513718, -2.33037e-08, -0 ],
      "rotation" : [ -0, -0, 0.203637, -0.979046 ]
    },
    {
      "name" : "l_wiskerA3",
      "translation" : [ 0.04069, -1.4629e-08, -0 ],
      "rotation" : [ -0, -0, -0.247788, -0.968814 ]
    },
    {
      "name" : "l_ear1",
      "children" : [ 19 ],
      "translation" : [ 0.0142509, -0.0870183, -0.058528 ],
      "rotation" : [ -0.559547, 0.424004, 0.684845, -0.195231 ]
    },
    {
      "name" : "l_ear2",
      "translation" : [ 0.0416686, -9.90857e-09, -6.31047e-09 ],
      "rotation" : [ 1.47451e-17, -2.08167e-17, 2.77556e-17, -1 ]
    },
    {
      "name" : "r_eye",
      "translation" : [ 0.136116, 0.0624523, 0.0196757 ],
      "rotation" : [ 0.153477, -0.988152, 1.33903e-06, 1.33904e-06 ]
    },
    {
      "name" : "r_ear1",
      "children" : [ 22 ],
      "translation" : [ 0.0118631, 0.0902949, -0.0538013 ],
      "rotation" : [ -0.684845, 0.195231, -0.559547, 0.424004 ]
    },
    {
      "name" : "r_ear2",
      "translation" : [ -0.0416688, -2.07823e-08, 3.71769e-07 ],
      "rotation" : [ 6.93889e-18, -4.33681e-18, -3.00927e-35, -1 ]
    },
    {
      "name" : "r_wiskerA1",
      "children" : [ 24 ],
      "translation" : [ 0.201667, 0.0781114, 0.0940887 ],
      "rotation" : [ -0.829888, 0.557929, -3.41633e-17, 5.0816e-17 ]
    },
    {
      "name" : "r_wiskerA2",
      "children" : [ 25 ],
      "translation" : [ -0.051372, -3.75636e-07, -0 ],
      "rotation" : [ -0, -0, 0.203637, -0.979046 ]
    },
    {
      "name" : "r_wiskerA3",
      "translation" : [ -0.0406897, 7.67604e-07, -0 ],
      "rotation" : [ -0, -0, -0.247788, -0.968814 ]
    },
    {
      "name" : "r_top_eyelid",
      "translation" : [ 0.153412, 0.0673022, 0.0131024 ],
      "rotation" : [ -1.34026e-14, 1.34026e-14, 0.707107, -0.707107 ]
    },
    {
      "name" : "r_bot_eyelid",
      "translation" : [ 0.142223, 0.0711036, 0.0267708 ],
      "rotation" : [ -1.34026e-14, 1.34026e-14, 0.707107, -0.707107 ]
    },
    {
      "name" : "l_top_eyelid",
      "translation" : [ 0.153412, -0.0673022, 0.0131024 ],
      "rotation" : [ -1.34026e-14, 1.34026e-14, 0.707107, -0.707107 ]
    },
    {
      "name" : "l_bot_eyelid",
      "translation" : [ 0.142223, -0.0711036, 0.0267708 ],
      "rotation" : [ -1.34026e-14, 1.34026e-14, 0.707107, -0.707107 ]
    },
    {
      "name" : "l_scapula",
      "children" : [ 31 ],
      "translation" : [ 0.136244, -0.101576, -0.0778609 ],
      "rotation" : [ -0.129456, 0.638881, 0.0875071, -0.753269 ]
    },
    {
      "name" : "l_shoulder",
      "children" : [ 32, 44 ],
      "translation" : [ 0.210926, -2.8963e-08, -6.52682e-08 ],
      "rotation" : [ -0.11685, 0.290466, -0.153237, -0.93728 ]
    },
    {
      "name" : "l_elbow",
      "children" : [ 33, 43 ],
      "translation" : [ 0.288557, -2.0998e-09, -4.58945e-08 ],
      "rotation" : [ -1.19969e-07, -0.225894, -1.57502e-08, -0.974152 ]
    },
    {
      "name" : "l_wrist",
      "children" : [ 34 ],
      "translation" : [ 0.197743, -4.1297e-09, 9.01988e-07 ],
      "rotation" : [ -1.16429e-07, -0.0479237, -2.34379e-08, -0.998851 ]
    },
    {
      "name" : "l_toeA1",
      "children" : [ 35, 37, 39, 41 ],
      "translation" : [ 0.105922, -5.65848e-09, -4.36828e-08 ],
      "rotation" : [ 0.0539113, -0.698673, 0.0893271, -0.707793 ]
    },
    {
      "name" : "l_wristToeC1",
      "children" : [ 36 ],
      "translation" : [ 0.0515379, -0.0152964, -0.000390673 ],
      "rotation" : [ 0.0052504, 0.291032, 0.0885866, -0.952589 ]
    },
    {
      "name" : "l_wristToeC2",
      "translation" : [ 0.0632537, 3.39934e-08, -4.0719e-08 ],
      "rotation" : [ 2.60208e-18, 7.89932e-36, -3.03577e-18, -1 ]
    },
    {
      "name" : "l_wristToeD1",
      "children" : [ 38 ],
      "translation" : [ 0.0362682, -0.0399856, -0.00388958 ],
      "rotation" : [ 0.015032, 0.28376, 0.253618, -0.924626 ]
    },
    {
      "name" : "l_wristToeD2",
      "translation" : [ 0.0632537, 2.39411e-08, -3.7492e-08 ],
      "rotation" : [ -1.34441e-17, -2.77556e-17, -1.51788e-17, -1 ]
    },
    {
      "name" : "l_wristToeB1",
      "children" : [ 40 ],
      "translation" : [ 0.0550823, 0.0140282, 0.000245783 ],
      "rotation" : [ -0.00367259, 0.290575, -0.0619649, -0.954836 ]
    },
    {
      "name" : "l_wristToeB2",
      "translation" : [ 0.0632537, -1.73949e-08, -3.7914e-08 ],
      "rotation" : [ 8.67362e-19, 1.01563e-35, -1.17094e-17, -1 ]
    },
    {
      "name" : "l_wristToeA1",
      "children" : [ 42 ],
      "translation" : [ 0.0456795, 0.0492826, -0.0022846 ],
      "rotation" : [ -0.0139398, 0.281727, -0.235194, -0.930118 ]
    },
    {
      "name" : "l_wristToeA2",
      "translation" : [ 0.0632537, 1.43395e-09, -2.31382e-08 ],
      "rotation" : [ 6.93889e-18, -2.77556e-17, -2.08167e-17, -1 ]
    },
    {
      "name" : "l_forearmTwist",
      "translation" : [ 0.0961315, 1.00171e-09, -3.80162e-08 ],
      "rotation" : [ 6.17995e-18, -0, -0, -1 ]
    },
    {
      "name" : "l_shoulderTwist",
      "translation" : [ 0.144923, -1.55874e-09, -2.23948e-08 ],
      "rotation" : [ 5.42101e-18, -2.77556e-17, -1.50463e-34, -1 ]
    },
    {
      "name" : "r_scapula",
      "children" : [ 46 ],
      "translation" : [ 0.136244, 0.101576, -0.0778604 ],
      "rotation" : [ 0.0875071, -0.753269, 0.129456, -0.638881 ]
    },
    {
      "name" : "r_shoulder",
      "children" : [ 47, 59 ],
      "translation" : [ -0.210925, -4.86187e-07, 5.6081e-07 ],
      "rotation" : [ -0.116845, 0.290467, -0.153236, -0.93728 ]
    },
    {
      "name" : "r_elbow",
      "children" : [ 48, 58 ],
      "translation" : [ -0.288557, 6.31505e-07, -6.41447e-07 ],
      "rotation" : [ 4.121e-09, -0.225895, -1.03696e-07, -0.974152 ]
    },
    {
      "name" : "r_wrist",
      "children" : [ 49 ],
      "translation" : [ -0.197744, -6.8596e-07, -8.87163e-07 ],
      "rotation" : [ 1.65736e-07, -0.0479236, -2.82457e-08, -0.998851 ]
    },
    {
      "name" : "r_toeA1",
      "children" : [ 50, 52, 54, 56 ],
      "translation" : [ -0.105922, 7.34595e-07, 4.23315e-07 ],
      "rotation" : [ 0.0539111, -0.698673, 0.0893267, -0.707792 ]
    },
    {
      "name" : "r_wristToeC1",
      "children" : [ 51 ],
      "translation" : [ -0.0515375, 0.0152965, 0.000390799 ],
      "rotation" : [ 0.00525054, 0.291032, 0.0885861, -0.952589 ]
    },
    {
      "name" : "r_wristToeC2",
      "translation" : [ -0.0632534, 7.73658e-08, -1.0106e-07 ],
      "rotation" : [ 1.30104e-18, -1.83377e-35, 1.40946e-17, -1 ]
    },
    {
      "name" : "r_wristToeD1",
      "children" : [ 53 ],
      "translation" : [ -0.0362683, 0.0399855, 0.00388961 ],
      "rotation" : [ 0.0150318, 0.28376, 0.253618, -0.924625 ]
    },
    {
      "name" : "r_wristToeD2",
      "translation" : [ -0.0632532, 3.30032e-07, -1.89228e-07 ],
      "rotation" : [ -2.60208e-18, 4.73959e-35, 1.82146e-17, -1 ]
    },
    {
      "name" : "r_wristToeB1",
      "children" : [ 55 ],
      "translation" : [ -0.0550823, -0.0140282, -0.000245758 ],
      "rotation" : [ -0.00367268, 0.290575, -0.0619648, -0.954837 ]
    },
    {
      "name" : "r_wristToeB2",
      "translation" : [ -0.0632529, 5.15674e-08, -3.08731e-07 ],
      "rotation" : [ -2.60208e-18, 2.77556e-17, -1.53957e-17, -1 ]
    },
    {
      "name" : "r_wristToeA1",
      "children" : [ 57 ],
      "translation" : [ -0.0456788, -0.049283, 0.0022848 ],
      "rotation" : [ -0.01394, 0.281727, -0.235194, -0.930118 ]
    },
    {
      "name" : "r_wristToeA2",
      "translation" : [ -0.0632536, 1.17805e-07, -2.40239e-08 ],
      "rotation" : [ -1.43115e-17, -2.77556e-17, -2.51535e-17, -1 ]
    },
    {
      "name" : "r_forearmTwist",
      "translation" : [ -0.0961322, -2.77681e-07, 5.80712e-07 ],
      "rotation" : [ 6.61363e-18, -1.38778e-17, 2.60208e-18, -1 ]
    },
    {
      "name" : "r_shoulderTwist",
      "translation" : [ -0.144923, -9.86049e-08, -3.7319e-07 ],
      "rotation" : [ 1.36609e-17, -2.77556e-17, -7.37257e-18, -1 ]
    },
    {
      "name" : "c_tail1",
      "children" : [ 61 ],
      "translation" : [ -0.125873, 0, -0.0214683 ],
      "rotation" : [ 0.304866, -5.83174e-17, 0.952395, 1.86676e-17 ]
    },
    {
      "name" : "c_tail2",
      "children" : [ 62 ],
      "translation" : [ 0.224985, 0, -4.21355e-08 ],
      "rotation" : [ -0, 0.0568581, -0, -0.998382 ]
    },
    {
      "name" : "c_tail3",
      "children" : [ 63 ],
      "translation" : [ 0.19063, 0, -0.00566458 ],
      "rotation" : [ -0, -0.136191, 0, -0.990682 ]
    },
    {
      "name" : "c_tail4",
      "children" : [ 64 ],
      "translation" : [ 0.18183, 0, -0.0111251 ],
      "rotation" : [ -0, -0.244859, 0, -0.969559 ]
    },
    {
      "name" : "c_tail5",
      "children" : [ 65 ],
      "translation" : [ 0.158261, 0, 0.00534756 ],
      "rotation" : [ -0, -0.139346, 0, -0.990244 ]
    },
    {
      "name" : "c_tail6",
      "translation" : [ 0.141902, 0, 2.45185e-08 ],
      "rotation" : [ -0, -0.106802, 0, -0.99428 ]
    },
    {
      "name" : "l_leg",
      "children" : [ 67, 78 ],
      "translation" : [ 0.00758545, -0.108152, 0.00130048 ],
      "rotation" : [ 0.00185738, 0.71108, 0.101497, -0.695744 ]
    },
    {
      "name" : "l_knee",
      "children" : [ 68 ],
      "translation" : [ 0.24967, -4.69798e-08, 8.64742e-08 ],
      "rotation" : [ -4.32905e-08, 0.434477, -2.91157e-08, -0.900683 ]
    },
    {
      "name" : "l_ankle",
      "children" : [ 69 ],
      "translation" : [ 0.20521, 1.90004e-08, -3.61072e-08 ],
      "rotation" : [ -0.00900882, -0.501478, -0.0385821, -0.864262 ]
    },
    {
      "name" : "l_foot",
      "children" : [ 70, 72, 74, 76 ],
      "translation" : [ 0.171991, 5.87664e-09, -2.77398e-08 ],
      "rotation" : [ -1.99118e-07, -0.666871, -1.46524e-07, -0.745173 ]
    },
    {
      "name" : "l_footToeC1",
      "children" : [ 71 ],
      "translation" : [ 0.0615731, -0.0127461, 0.000461459 ],
      "rotation" : [ 0.00845583, 0.248962, 0.0523083, -0.967063 ]
    },
    {
      "name" : "l_footToeC2",
      "translation" : [ 0.0664973, 5.89014e-09, -2.03362e-08 ],
      "rotation" : [ 1.73472e-18, -2.77556e-17, 9.54098e-18, -1 ]
    },
    {
      "name" : "l_footToeB1",
      "children" : [ 73 ],
      "translation" : [ 0.0628898, 0.0115244, 0.000455625 ],
      "rotation" : [ 0.00149675, 0.246316, -0.021538, -0.968949 ]
    },
    {
      "name" : "l_footToeB2",
      "translation" : [ 0.0664973, 4.13591e-09, -2.23139e-08 ],
      "rotation" : [ -1.73472e-18, -2.77556e-17, -5.20417e-18, -1 ]
    },
    {
      "name" : "l_footToeD1",
      "children" : [ 75 ],
      "translation" : [ 0.0528079, -0.0366837, -8.69639e-05 ],
      "rotation" : [ 0.0192983, 0.247905, 0.138307, -0.958666 ]
    },
    {
      "name" : "l_footToeD2",
      "translation" : [ 0.0664973, 3.52747e-08, 6.70112e-09 ],
      "rotation" : [ -1.30104e-17, -2.77556e-17, -4.38018e-17, -1 ]
    },
    {
      "name" : "l_footToeA1",
      "children" : [ 77 ],
      "translation" : [ 0.0586827, 0.0379599, -0.00151093 ],
      "rotation" : [ 0.00370387, 0.243469, -0.101887, -0.964535 ]
    },
    {
      "name" : "l_footToeA2",
      "translation" : [ 0.0664973, 4.88767e-09, -1.16667e-08 ],
      "rotation" : [ 1.73472e-18, -2.77556e-17, 8.67362e-19, -1 ]
    },
    {
      "name" : "l_legTwist",
      "translation" : [ 0.124828, -2.35507e-08, 4.79589e-08 ],
      "rotation" : [ 1.73472e-18, -1.38778e-17, -2.40741e-35, -1 ]
    },
    {
      "name" : "r_leg",
      "children" : [ 80, 91 ],
      "translation" : [ 0.00758566, 0.108152, 0.00130095 ],
      "rotation" : [ 0.101499, -0.695744, -0.00185835, -0.71108 ]
    },
    {
      "name" : "r_knee",
      "children" : [ 81 ],
      "translation" : [ -0.24967, -7.82178e-07, 1.77175e-07 ],
      "rotation" : [ -4.45594e-07, 0.434477, -8.99335e-08, -0.900683 ]
    },
    {
      "name" : "r_ankle",
      "children" : [ 82 ],
      "translation" : [ -0.20521, 2.8034e-07, -4.42449e-07 ],
      "rotation" : [ -0.0090089, -0.501479, -0.038582, -0.864262 ]
    },
    {
      "name" : "r_foot",
      "children" : [ 83, 85, 87, 89 ],
      "translation" : [ -0.171991, 4.07672e-08, -9.46502e-07 ],
      "rotation" : [ -0.000313448, -0.665634, 0.00147274, -0.746277 ]
    },
    {
      "name" : "r_footToeC1",
      "children" : [ 84 ],
      "translation" : [ -0.0615737, 0.0127458, -0.0004616 ],
      "rotation" : [ 0.00964256, 0.246267, 0.0503357, -0.967846 ]
    },
    {
      "name" : "r_footToeC2",
      "translation" : [ -0.0664968, 2.2605e-07, -6.32664e-08 ],
      "rotation" : [ 8.67362e-18, -2.77556e-17, 3.29597e-17, -1 ]
    },
    {
      "name" : "r_footToeB1",
      "children" : [ 86 ],
      "translation" : [ -0.06289, -0.0115245, -0.000455679 ],
      "rotation" : [ 0.00266947, 0.243225, -0.0235501, -0.96968 ]
    },
    {
      "name" : "r_footToeB2",
      "translation" : [ -0.0664977, -1.92189e-07, 2.00044e-07 ],
      "rotation" : [ -1.73472e-18, 2.77556e-17, -4.33681e-18, -1 ]
    },
    {
      "name" : "r_footToeD1",
      "children" : [ 88 ],
      "translation" : [ -0.0528083, 0.036684, 8.68339e-05 ],
      "rotation" : [ 0.020569, 0.245794, 0.136378, -0.95946 ]
    },
    {
      "name" : "r_footToeD2",
      "translation" : [ -0.0664967, -1.39149e-07, -1.25727e-07 ],
      "rotation" : [ 2.60208e-18, 2.77556e-17, -2.94903e-17, -1 ]
    },
    {
      "name" : "r_footToeA1",
      "children" : [ 90 ],
      "translation" : [ -0.0586833, -0.0379599, 0.00151083 ],
      "rotation" : [ 0.00489902, 0.240124, -0.103976, -0.965145 ]
    },
    {
      "name" : "r_footToeA2",
      "translation" : [ -0.0664965, 6.0069e-07, -1.66258e-07 ],
      "rotation" : [ 9.62965e-35, 2.77556e-17, -3.46945e-18, -1 ]
    },
    {
      "name" : "r_legTwist",
      "translation" : [ -0.124827, 2.29127e-07, -2.79833e-07 ],
      "rotation" : [ -1.73472e-18, 1.20371e-35, 6.93889e-18, -1 ]
    }
  ],
  "skins" : [
    {
      "inverseBindMatrices" : 0,
      "skeleton" : 1,
      "joints" : [
        1,2,3,4,5,6,7,8,9,10,11,12,13,14,15,16,17,18,19,20,21,22,23,24,25,26,27,28,29,30,31,32,
        33,34,35,36,37,38,39,40,41,42,43,44,45,46,47,48,49,50,51,52,53,54,55,56,57,58,59,60,61,62,63,64,
        65,66,67,68,69,70,71,72,73,74,75,76,77,78,79,80,81,82,83,84,85,86,87,88,89,90,91
      ]
    }
  ],
  "materials" : [
    {
      "name" : "dummy_material_0",
      "pbrMetallicRoughness" : {
        "baseColorFactor" : [ 0.3, 0.3, 0.3, 1.0 ],
        "metallicFactor" : 0.1,
        "roughnessFactor" : 0.5
      }
    },
    {
      "name" : "dummy_material_1",
      "pbrMetallicRoughness" : {
        "baseColorFactor" : [ 0.9, 0.3, 0.3, 1.0 ],
        "metallicFactor" : 0.1,
        "roughnessFactor" : 0.5
      }
    }
  ],
  "meshes" : [
    {
      "primitives" : [
        {
          "attributes" : {
            "POSITION" : 2,
            "NORMAL" : 3,
            "TANGENT" : 4,
            "COLOR_0" : 5,
            "JOINTS_0" : 6,
            "WEIGHTS_0" : 7,
            "TEXCOORD_0" : 8,
            "TEXCOORD_1" : 9,
            "TEXCOORD_2" : 10
          },
          "indices" : 1,
          "material" : 0
        },
        {
          "attributes" : {
            "POSITION" : 12,
            "NORMAL" : 13,
            "TANGENT" : 14,
            "COLOR_0" : 15,
            "JOINTS_0" : 16,
            "WEIGHTS_0" : 17,
            "TEXCOORD_0" : 18,
            "TEXCOORD_1" : 19,
            "TEXCOORD_2" : 20
          },
          "indices" : 11,
          "material" : 1
        }
      ],
      "name" : "Saber"
    }
  ],
  "buffers" : [
    {
      "uri" : "Saber.bin",
      "byteLength" : 1584096
    }
  ],
  "bufferViews" : [
    {
      "buffer" : 0,
      "byteOffset" : 0,
      "byteLength" : 5824
    },
    {
      "buffer" : 0,
      "byteOffset" : 5824,
      "byteLength" : 126672
    },
    {
      "buffer" : 0,
      "byteOffset" : 132496,
      "byteLength" : 152760
    },
    {
      "buffer" : 0,
      "byteOffset" : 285256,
      "byteLength" : 152760
    },
    {
      "buffer" : 0,
      "byteOffset" : 438016,
      "byteLength" : 203680
    },
    {
      "buffer" : 0,
      "byteOffset" : 641696,
      "byteLength" : 50920
    },
    {
      "buffer" : 0,
      "byteOffset" : 692616,
      "byteLength" : 101840
    },
    {
      "buffer" : 0,
      "byteOffset" : 794456,
      "byteLength" : 50920
    },
    {
      "buffer" : 0,
      "byteOffset" : 845376,
      "byteLength" : 101840
    },
    {
      "buffer" : 0,
      "byteOffset" : 947216,
      "byteLength" : 101840
    },
    {
      "buffer" : 0,
      "byteOffset" : 1049056,
      "byteLength" : 101840
    },
    {
      "buffer" : 0,
      "byteOffset" : 1150896,
      "byteLength" : 16080
    },
    {
      "buffer" : 0,
      "byteOffset" : 1166976,
      "byteLength" : 62568
    },
    {
      "buffer" : 0,
      "byteOffset" : 1229544,
      "byteLength" : 62568
    },
    {
      "buffer" : 0,
      "byteOffset" : 1292112,
      "byteLength" : 83424
    },
    {
      "buffer" : 0,
      "byteOffset" : 1375536,
      "byteLength" : 20856
    },
    {
      "buffer" : 0,
      "byteOffset" : 1396392,
      "byteLength" : 41712
    },
    {
      "buffer" : 0,
      "byteOffset" : 1438104,
      "byteLength" : 20856
    },
    {
      "buffer" : 0,
      "byteOffset" : 1458960,
      "byteLength" : 41712
    },
    {
      "buffer" : 0,
      "byteOffset" : 1500672,
      "byteLength" : 41712
    },
    {
      "buffer" : 0,
      "byteOffset" : 1542384,
      "byteLength" : 41712
    }
  ],
  "accessors" : [
    {
      "bufferView" : 0,
      "componentType" : 5126,
      "count" : 91,
      "type" : "MAT4"
    },
    {
      "bufferView" : 1,
      "componentType" : 5123,
      "count" : 63336,
      "type" : "SCALAR"
    },
    {
      "bufferView" : 2,
      "min" : [ -0.262783, -0.00459928, -1.36293 ],
      "max" : [ 0.262783, 0.87069, 0.90823 ],
      "componentType" : 5126,
      "count" : 12730,
      "type" : "VEC3"
    },
    {
      "bufferView" : 3,
      "componentType" : 5126,
      "count" : 12730,
      "type" : "VEC3"
    },
    {
      "bufferView" : 4,
      "componentType" : 5126,
      "count" : 12730,
      "type" : "VEC4"
    },
    {
      "bufferView" : 5,
      "normalized" : true,
      "componentType" : 5121,
      "count" : 12730,
      "type" : "VEC4"
    },
    {
      "bufferView" : 6,
      "componentType" : 5123,
      "count" : 12730,
      "type" : "VEC4"
    },
    {
      "bufferView" : 7,
      "normalized" : true,
      "componentType" : 5121,
      "count" : 12730,
      "type" : "VEC4"
    },
    {
      "bufferView" : 8,
      "componentType" : 5126,
      "count" : 12730,
      "type" : "VEC2"
    },
    {
      "bufferView" : 9,
      "componentType" : 5126,
      "count" : 12730,
      "type" : "VEC2"
    },
    {
      "bufferView" : 10,
      "componentType" : 5126,
      "count" : 12730,
      "type" : "VEC2"
    },
    {
      "bufferView" : 11,
      "componentType" : 5123,
      "count" : 8040,
      "type" : "SCALAR"
    },
    {
      "bufferView" : 12,
      "min" : [ -0.264699, 0.514877, -0.151808 ],
      "max" : [ 0.269557, 0.97626, 0.794158 ],
      "componentType" : 5126,
      "count" : 5214,
      "type" : "VEC3"
    },
    {
      "bufferView" : 13,
      "componentType" : 5126,
      "count" : 5214,
      "type" : "VEC3"
    },
    {
      "bufferView" : 14,
      "componentType" : 5126,
      "count" : 5214,
      "type" : "VEC4"
    },
    {
      "bufferView" : 15,
      "normalized" : true,
      "componentType" : 5121,
      "count" : 5214,
      "type" : "VEC4"
    },
    {
      "bufferView" : 16,
      "componentType" : 5123,
      "count" : 5214,
      "type" : "VEC4"
    },
    {
      "bufferView" : 17,
      "normalized" : true,
      "componentType" : 5121,
      "count" : 5214,
      "type" : "VEC4"
    },
    {
      "bufferView" : 18,
      "componentType" : 5126,
      "count" : 5214,
      "type" : "VEC2"
    },
    {
      "bufferView" : 19,
      "componentType" : 5126,
      "count" : 5214,
      "type" : "VEC2"
    },
    {
      "bufferView" : 20,
      "componentType" : 5126,
      "count" : 5214,
      "type" : "VEC2"
    }
  ]
}
