{
  "asset" : {
    "generator" : "UE Viewer (umodel) build 1612-floxay",
    "version" : "2.0"
  },
  "scene" : 0,
  "scenes" : [
    {
      "nodes" : [ 0 ]
    }
  ],
  "nodes" : [
    {
      "name" : "Liopleurodon",
      "mesh" : 0,
      "skin" : 0,
      "children" : [ 1 ]
    },
    {
      "name" : "root",
      "children" : [ 2 ],
      "translation" : [ 0, 0, -0 ],
      "rotation" : [ -0.707107, -0, 0, -0.707107 ]
    },
    {
      "name" : "c_back1",
      "children" : [ 3, 31, 35, 40 ],
      "translation" : [ 0, -1.00931, -0.33405 ],
      "rotation" : [ 0, -0, -0.707107, -0.707107 ]
    },
    {
      "name" : "c_back2",
      "children" : [ 4 ],
      "translation" : [ 0.533745, 1.18515e-16, -0 ],
      "rotation" : [ -0, -0, 0, -1 ]
    },
    {
      "name" : "c_back3",
      "children" : [ 5 ],
      "translation" : [ 0.564394, 1.25321e-16, -0 ],
      "rotation" : [ -0, -0, 0, -1 ]
    },
    {
      "name" : "c_back4",
      "children" : [ 6, 23, 27 ],
      "translation" : [ 0.636139, -8.57365e-19, 7.10543e-17 ],
      "rotation" : [ -0, -0, 0, -1 ]
    },
    {
      "name" : "c_neck1",
      "children" : [ 7 ],
      "translation" : [ 0.551985, -9.46633e-32, -0 ],
      "rotation" : [ -0, -0, 0, -1 ]
    },
    {
      "name" : "c_neck3",
      "children" : [ 8 ],
      "translation" : [ 0.469162, 3.90944e-16, -0.0407594 ],
      "rotation" : [ 3.06366e-33, -0.107421, -3.31016e-34, -0.994214 ]
    },
    {
      "name" : "c_neck6",
      "children" : [ 9 ],
      "translation" : [ 0.38058, 6.02018e-16, 0.00072567 ],
      "rotation" : [ -1.44642e-33, 0.0391158, 3.69496e-32, -0.999235 ]
    },
    {
      "name" : "c_neck8",
      "children" : [ 10, 11, 22 ],
      "translation" : [ 0.32274, 2.83293e-16, 0.0147073 ],
      "rotation" : [ -5.66058e-34, 0.0466706, 1.21784e-32, -0.99891 ]
    },
    {
      "name" : "l_eye",
      "translation" : [ 0.394716, -0.266146, -0.101044 ],
      "rotation" : [ -0.630229, 0.272433, 0.399053, -0.60774 ]
    },
    {
      "name" : "c_jaw",
      "children" : [ 12, 17 ],
      "translation" : [ 0.103456, 4.27131e-17, 0.0731934 ],
      "rotation" : [ -4.48596e-33, 0.283131, 1.1141e-33, -0.959081 ]
    },
    {
      "name" : "c_tongue1",
      "children" : [ 13 ],
      "translation" : [ 0.496887, 8.48072e-17, 0.109127 ],
      "rotation" : [ -1.20347e-32, 0.0233591, -1.26105e-32, -0.999727 ]
    },
    {
      "name" : "c_tongue2",
      "children" : [ 14 ],
      "translation" : [ 0.25976, -1.00974e-30, -1.13687e-15 ],
      "rotation" : [ -6.8413e-33, 0.0352222, -1.62953e-32, -0.999379 ]
    },
    {
      "name" : "c_tongue3",
      "children" : [ 15 ],
      "translation" : [ 0.23304, -7.99795e-17, 1.42109e-15 ],
      "rotation" : [ 5.03097e-33, -0.0318765, -3.55972e-33, -0.999492 ]
    },
    {
      "name" : "c_tongue4",
      "children" : [ 16 ],
      "translation" : [ 0.18515, -6.61082e-17, -0 ],
      "rotation" : [ 6.28118e-34, -0.050959, 1.23099e-32, -0.998701 ]
    },
    {
      "name" : "c_tongue5",
      "translation" : [ 0.0935827, -3.23956e-17, 5.68434e-16 ],
      "rotation" : [ -6.86495e-33, -0, -1.51825e-32, -1 ]
    },
    {
      "name" : "c_jawSpike1",
      "children" : [ 18 ],
      "translation" : [ 1.68633, -4.77815e-16, 0.252437 ],
      "rotation" : [ -0.72237, -1.92839e-16, -0.691507, 2.07549e-16 ]
    },
    {
      "name" : "c_jawSpike2",
      "children" : [ 19 ],
      "translation" : [ 0.3, -1.04376e-16, -0 ],
      "rotation" : [ 2.44602e-32, -0.00774675, -2.48421e-32, -0.99997 ]
    },
    {
      "name" : "c_jawSpike3",
      "children" : [ 20 ],
      "translation" : [ 0.3, -1.58765e-16, -5.11591e-15 ],
      "rotation" : [ 2.45143e-32, -0.00556757, -2.47888e-32, -0.999984 ]
    },
    {
      "name" : "c_jawSpike4",
      "children" : [ 21 ],
      "translation" : [ 0.273229, -1.32686e-16, 3.41061e-15 ],
      "rotation" : [ 4.93038e-32, -0, -0, -1 ]
    },
    {
      "name" : "c_jawSpike5",
      "translation" : [ 0.273229, -9.69684e-17, 1.13687e-15 ],
      "rotation" : [ 4.93038e-32, -0, -0, -1 ]
    },
    {
      "name" : "r_eye",
      "translation" : [ 0.394716, 0.266146, -0.101044 ],
      "rotation" : [ 0.399053, -0.60774, 0.630229, -0.272433 ]
    },
    {
      "name" : "l_FlipperA1",
      "children" : [ 24 ],
      "translation" : [ 0.18, -0.64, 0.18 ],
      "rotation" : [ 0.121424, 0.0657119, 0.791188, -0.595785 ]
    },
    {
      "name" : "l_FlipperA2",
      "children" : [ 25 ],
      "translation" : [ 0.6, 1.42109e-16, -3.55271e-17 ],
      "rotation" : [ -0.00486682, -0.0368568, 0.113545, -0.992837 ]
    },
    {
      "name" : "l_FlipperA3",
      "children" : [ 26 ],
      "translation" : [ 0.5, 1.42109e-16, -1.42109e-16 ],
      "rotation" : [ -0.00286079, -0.0151403, 0.0596097, -0.998103 ]
    },
    {
      "name" : "l_FlipperA4",
      "translation" : [ 0.5, -2.84217e-16, 7.10543e-17 ],
      "rotation" : [ -0, -0, 4.94396e-17, -1 ]
    },
    {
      "name" : "r_FlipperA1",
      "children" : [ 28 ],
      "translation" : [ 0.18, 0.64, 0.18 ],
      "rotation" : [ -0.790963, 0.596007, 0.119401, 0.0699779 ]
    },
    {
      "name" : "r_FlipperA2",
      "children" : [ 29 ],
      "translation" : [ -0.6, -2.88102e-07, 1.49579e-07 ],
      "rotation" : [ -0.00486682, -0.0368568, 0.113545, -0.992837 ]
    },
    {
      "name" : "r_FlipperA3",
      "children" : [ 30 ],
      "translation" : [ -0.5, -2.68145e-06, 3.59555e-07 ],
      "rotation" : [ -0.00286079, -0.0151403, 0.0596097, -0.998103 ]
    },
    {
      "name" : "r_FlipperA4",
      "translation" : [ -0.5, 3.66581e-06, -9.66637e-07 ],
      "rotation" : [ -6.93889e-18, -2.52778e-34, -3.64292e-17, -1 ]
    },
    {
      "name" : "l_flipperB1",
      "children" : [ 32 ],
      "translation" : [ 0.09, -0.728821, 0.185395 ],
      "rotation" : [ 0.125338, 0.0249023, 0.870435, -0.475409 ]
    },
    {
      "name" : "l_flipperB2",
      "children" : [ 33 ],
      "translation" : [ 0.58, 5.68434e-16, -2.84217e-16 ],
      "rotation" : [ 0.00132866, -0.0321375, 0.0314454, -0.998988 ]
    },
    {
      "name" : "l_flipperB3",
      "children" : [ 34 ],
      "translation" : [ 0.59457, 3.90799e-16, -1.42109e-16 ],
      "rotation" : [ -0.000691078, 0.00957425, 0.0719903, -0.997359 ]
    },
    {
      "name" : "l_flipperB4",
      "translation" : [ 0.57, -1.35891e-15, -3.55271e-16 ],
      "rotation" : [ 1.14352e-34, 1.38778e-17, -8.23994e-18, -1 ]
    },
    {
      "name" : "c_tail1",
      "children" : [ 36 ],
      "translation" : [ -0.7, -1.2009e-16, 0.142548 ],
      "rotation" : [ 0.109529, 5.42345e-17, 0.993984, -6.68698e-17 ]
    },
    {
      "name" : "c_tail2",
      "children" : [ 37 ],
      "translation" : [ 0.8, 1.29157e-16, 7.10543e-17 ],
      "rotation" : [ 1.47511e-33, -0.0417274, -1.60369e-33, -0.999129 ]
    },
    {
      "name" : "c_tail3",
      "children" : [ 38 ],
      "translation" : [ 0.8, 1.36103e-16, -1.42109e-16 ],
      "rotation" : [ -1.37093e-34, -0.0412653, -3.3194e-33, -0.999148 ]
    },
    {
      "name" : "c_tail4",
      "children" : [ 39 ],
      "translation" : [ 0.6, 1.10487e-16, -1.42109e-16 ],
      "rotation" : [ -7.84195e-34, -0.0104718, -1.31594e-33, -0.999945 ]
    },
    {
      "name" : "c_tail5",
      "translation" : [ 0.340687, 8.3934e-17, -5.15143e-16 ],
      "rotation" : [ -7.70372e-34, -0, -1.36741e-32, -1 ]
    },
    {
      "name" : "r_flipperB1",
      "children" : [ 41 ],
      "translation" : [ 0.09, 0.728821, 0.185395 ],
      "rotation" : [ -0.870435, 0.475409, 0.125338, 0.0249023 ]
    },
    {
      "name" : "r_flipperB2",
      "children" : [ 42 ],
      "translation" : [ -0.58, -3.05306e-06, 6.98298e-07 ],
      "rotation" : [ 0.00132866, -0.0321375, 0.0314454, -0.998988 ]
    },
    {
      "name" : "r_flipperB3",
      "children" : [ 43 ],
      "translation" : [ -0.59, -5.93259e-07, 5.33458e-07 ],
      "rotation" : [ -0.00716166, 0.0100411, 0.0719266, -0.997334 ]
    },
    {
      "name" : "r_flipperB4",
      "translation" : [ -0.57, -3.59203e-06, 6.4841e-07 ],
      "rotation" : [ -1.34892e-14, 5.85001e-32, 4.33681e-18, -1 ]
    }
  ],
  "skins" : [
    {
      "inverseBindMatrices" : 0,
      "skeleton" : 1,
      "joints" : [
        1,2,3,4,5,6,7,8,9,10,11,12,13,14,15,16,17,18,19,20,21,22,23,24,25,26,27,28,29,30,31,32,
        33,34,35,36,37,38,39,40,41,42,43
      ]
    }
  ],
  "materials" : [
    {
      "name" : "dummy_material_0",
      "pbrMetallicRoughness" : {
        "baseColorFactor" : [ 0.3, 0.3, 0.3, 1.0 ],
        "metallicFactor" : 0.1,
        "roughnessFactor" : 0.5
      }
    }
  ],
  "meshes" : [
    {
      "primitives" : [
        {
          "attributes" : {
            "POSITION" : 2,
            "NORMAL" : 3,
            "TANGENT" : 4,
            "COLOR_0" : 5,
            "JOINTS_0" : 6,
            "WEIGHTS_0" : 7,
            "TEXCOORD_0" : 8,
            "TEXCOORD_1" : 9
          },
          "indices" : 1,
          "material" : 0
        }
      ],
      "name" : "Liopleurodon"
    }
  ],
  "buffers" : [
    {
      "uri" : "Liopleurodon.bin",
      "byteLength" : 986116
    }
  ],
  "bufferViews" : [
    {
      "buffer" : 0,
      "byteOffset" : 0,
      "byteLength" : 2752
    },
    {
      "buffer" : 0,
      "byteOffset" : 2752,
      "byteLength" : 124116
    },
    {
      "buffer" : 0,
      "byteOffset" : 126868,
      "byteLength" : 143208
    },
    {
      "buffer" : 0,
      "byteOffset" : 270076,
      "byteLength" : 143208
    },
    {
      "buffer" : 0,
      "byteOffset" : 413284,
      "byteLength" : 190944
    },
    {
      "buffer" : 0,
      "byteOffset" : 604228,
      "byteLength" : 47736
    },
    {
      "buffer" : 0,
      "byteOffset" : 651964,
      "byteLength" : 95472
    },
    {
      "buffer" : 0,
      "byteOffset" : 747436,
      "byteLength" : 47736
    },
    {
      "buffer" : 0,
      "byteOffset" : 795172,
      "byteLength" : 95472
    },
    {
      "buffer" : 0,
      "byteOffset" : 890644,
      "byteLength" : 95472
    }
  ],
  "accessors" : [
    {
      "bufferView" : 0,
      "componentType" : 5126,
      "count" : 43,
      "type" : "MAT4"
    },
    {
      "bufferView" : 1,
      "componentType" : 5123,
      "count" : 62058,
      "type" : "SCALAR"
    },
    {
      "bufferView" : 2,
      "min" : [ -2.418, -1.63879, -4.48901 ],
      "max" : [ 2.418, 1.21936, 4.30408 ],
      "componentType" : 5126,
      "count" : 11934,
      "type" : "VEC3"
    },
    {
      "bufferView" : 3,
      "componentType" : 5126,
      "count" : 11934,
      "type" : "VEC3"
    },
    {
      "bufferView" : 4,
      "componentType" : 5126,
      "count" : 11934,
      "type" : "VEC4"
    },
    {
      "bufferView" : 5,
      "normalized" : true,
      "componentType" : 5121,
      "count" : 11934,
      "type" : "VEC4"
    },
    {
      "bufferView" : 6,
      "componentType" : 5123,
      "count" : 11934,
      "type" : "VEC4"
    },
    {
      "bufferView" : 7,
      "normalized" : true,
      "componentType" : 5121,
      "count" : 11934,
      "type" : "VEC4"
    },
    {
      "bufferView" : 8,
      "componentType" : 5126,
      "count" : 11934,
      "type" : "VEC2"
    },
    {
      "bufferView" : 9,
      "componentType" : 5126,
      "count" : 11934,
      "type" : "VEC2"
    }
  ]
}
