{
  "asset" : {
    "generator" : "UE Viewer (umodel) build 1612-floxay",
    "version" : "2.0"
  },
  "scene" : 0,
  "scenes" : [
    {
      "nodes" : [ 0 ]
    }
  ],
  "nodes" : [
    {
      "name" : "Gorilla",
      "mesh" : 0,
      "skin" : 0,
      "children" : [ 1 ]
    },
    {
      "name" : "root",
      "children" : [ 2 ],
      "translation" : [ 0, 0, -0 ],
      "rotation" : [ -0.707107, -0, 0, -0.707107 ]
    },
    {
      "name" : "c_back1",
      "children" : [ 3, 62, 78 ],
      "translation" : [ -5.68434e-16, -1.54376, -2.08539 ],
      "rotation" : [ 0.125505, -0.125505, -0.69588, -0.69588 ]
    },
    {
      "name" : "c_back2",
      "children" : [ 4 ],
      "translation" : [ 0.633622, 3.368e-16, -1.7053e-15 ],
      "rotation" : [ -5.7727e-32, -0.056804, -9.23962e-32, -0.998385 ]
    },
    {
      "name" : "c_back3",
      "children" : [ 5 ],
      "translation" : [ 0.633622, 3.07706e-16, 3.97904e-15 ],
      "rotation" : [ 8.11264e-32, -0.0574357, -1.16121e-32, -0.998349 ]
    },
    {
      "name" : "c_back4",
      "children" : [ 6, 18, 40 ],
      "translation" : [ 0.633622, 4.37566e-16, 2.84217e-16 ],
      "rotation" : [ -5.08224e-32, -0.0575413, 5.54015e-32, -0.998343 ]
    },
    {
      "name" : "c_neck",
      "children" : [ 7 ],
      "translation" : [ 0.632169, 4.68728e-16, -8.52651e-16 ],
      "rotation" : [ 8.74109e-32, 0.295758, 1.68293e-31, -0.955263 ]
    },
    {
      "name" : "c_head",
      "children" : [ 8, 9, 13, 14, 15, 16, 17 ],
      "translation" : [ 0.611784, 2.15409e-16, 5.68434e-16 ],
      "rotation" : [ -3.49393e-32, 0.0476031, -1.73123e-31, -0.998866 ]
    },
    {
      "name" : "l_eye",
      "translation" : [ 0.418662, -0.124273, -0.087099 ],
      "rotation" : [ 6.64253e-18, 0.00244118, -1.15721e-17, -0.999997 ]
    },
    {
      "name" : "c_jaw",
      "children" : [ 10 ],
      "translation" : [ 0.0601247, -9.86854e-16, 0.179526 ],
      "rotation" : [ -2.97136e-31, 0.203066, 1.84635e-31, -0.979165 ]
    },
    {
      "name" : "c_tongue1",
      "children" : [ 11 ],
      "translation" : [ 0.227092, 7.19698e-17, 0.0187642 ],
      "rotation" : [ 1.43875e-31, -0.210609, -1.73486e-31, -0.97757 ]
    },
    {
      "name" : "c_tongue2",
      "children" : [ 12 ],
      "translation" : [ 0.13983, -1.51136e-17, -0 ],
      "rotation" : [ -6.75698e-32, 0.334446, 7.98362e-32, -0.942415 ]
    },
    {
      "name" : "c_tongue3",
      "translation" : [ 0.0948196, -4.01925e-18, 3.41061e-15 ],
      "rotation" : [ 1.51813e-31, 0.0199143, -1.55704e-31, -0.999802 ]
    },
    {
      "name" : "r_eye",
      "translation" : [ 0.418658, 0.124273, -0.0870996 ],
      "rotation" : [ 1.15805e-17, -0.999997, 3.1731e-18, -0.00244118 ]
    },
    {
      "name" : "r_upperEye",
      "translation" : [ 0.476771, 0.150773, -0.101543 ],
      "rotation" : [ -0.707105, 0.707105, -0.00172617, 0.00172617 ]
    },
    {
      "name" : "r_lowerEye",
      "translation" : [ 0.47002, 0.158506, -0.0632859 ],
      "rotation" : [ -0.707105, 0.707105, -0.00172617, 0.00172617 ]
    },
    {
      "name" : "l_upperEye",
      "translation" : [ 0.476771, -0.150773, -0.101543 ],
      "rotation" : [ -0.00172617, 0.00172617, 0.707105, -0.707105 ]
    },
    {
      "name" : "l_lowerEye",
      "translation" : [ 0.47002, -0.158506, -0.0632859 ],
      "rotation" : [ -0.00172617, 0.00172617, 0.707105, -0.707105 ]
    },
    {
      "name" : "l_clavicle",
      "children" : [ 19 ],
      "translation" : [ 0.194429, -0.30491, 0.32772 ],
      "rotation" : [ -0.242346, 0.23008, 0.566143, -0.753534 ]
    },
    {
      "name" : "l_shoulder",
      "children" : [ 20, 39 ],
      "translation" : [ 0.707902, 4.26326e-16, 8.52651e-15 ],
      "rotation" : [ 0.466009, 0.54689, 0.294264, -0.630202 ]
    },
    {
      "name" : "l_elbow",
      "children" : [ 21, 37 ],
      "translation" : [ 1.04047, -1.98952e-15, 1.59872e-16 ],
      "rotation" : [ -1.66298e-16, 0.110205, -7.42906e-17, -0.993909 ]
    },
    {
      "name" : "l_wrist",
      "children" : [ 22, 25, 28, 31, 34 ],
      "translation" : [ 1.04047, -5.68434e-16, -4.26326e-16 ],
      "rotation" : [ 0.845461, -0.0357177, 0.0221451, -0.532381 ]
    },
    {
      "name" : "l_fingerA1",
      "children" : [ 23 ],
      "translation" : [ 0.179865, -0.155948, -0.101906 ],
      "rotation" : [ -0.673523, -0.0804681, 0.390193, -0.622608 ]
    },
    {
      "name" : "l_fingerA2",
      "children" : [ 24 ],
      "translation" : [ 0.23384, 1.13687e-15, -1.42109e-15 ],
      "rotation" : [ 4.25537e-16, -0.202822, 1.38617e-16, -0.979216 ]
    },
    {
      "name" : "l_fingerA3",
      "translation" : [ 0.1753, 2.84217e-16, 4.26326e-16 ],
      "rotation" : [ -2.33137e-16, 0.0236405, 4.66464e-16, -0.999721 ]
    },
    {
      "name" : "l_fingerD1",
      "children" : [ 26 ],
      "translation" : [ 0.650192, 0.274255, 0.00870228 ],
      "rotation" : [ 0.0350003, -0.337751, -0.133466, -0.931067 ]
    },
    {
      "name" : "l_fingerD2",
      "children" : [ 27 ],
      "translation" : [ 0.225629, -0.00194692, 0.0330404 ],
      "rotation" : [ -0.00253546, -0.533513, -0.00396213, -0.845779 ]
    },
    {
      "name" : "l_fingerD3",
      "translation" : [ 0.206957, -3.99233e-08, 7.292e-09 ],
      "rotation" : [ -0.00130705, -0.284106, 0.00451869, -0.958781 ]
    },
    {
      "name" : "l_fingerE1",
      "children" : [ 29 ],
      "translation" : [ 0.5849, 0.42421, -0.0012455 ],
      "rotation" : [ 0.0481458, -0.336413, -0.224239, -0.913359 ]
    },
    {
      "name" : "l_fingerE2",
      "children" : [ 30 ],
      "translation" : [ 0.24384, 2.84217e-16, -1.13687e-15 ],
      "rotation" : [ 2.63429e-08, -0.451132, -5.05364e-08, -0.892457 ]
    },
    {
      "name" : "l_fingerE3",
      "translation" : [ 0.1193, -3.55271e-16, 8.61533e-16 ],
      "rotation" : [ -5.8007e-17, -0.277863, -2.50485e-16, -0.960621 ]
    },
    {
      "name" : "l_fingerC1",
      "children" : [ 32 ],
      "translation" : [ 0.683778, 0.0918107, 0.0100841 ],
      "rotation" : [ 0.0015612, -0.317202, -0.0521856, -0.94692 ]
    },
    {
      "name" : "l_fingerC2",
      "children" : [ 33 ],
      "translation" : [ 0.23384, 0, -2.55795e-15 ],
      "rotation" : [ 2.12454e-16, -0.519522, -5.1266e-17, -0.854457 ]
    },
    {
      "name" : "l_fingerC3",
      "translation" : [ 0.1793, 4.26326e-16, 7.63833e-16 ],
      "rotation" : [ -1.16291e-16, -0.277863, -2.47925e-18, -0.960621 ]
    },
    {
      "name" : "l_fingerB1",
      "children" : [ 35 ],
      "translation" : [ 0.696171, -0.10765, 0.00083203 ],
      "rotation" : [ -0.0121942, -0.337846, -0.0169501, -0.94097 ]
    },
    {
      "name" : "l_fingerB2",
      "children" : [ 36 ],
      "translation" : [ 0.24384, 0, -2.27374e-15 ],
      "rotation" : [ -5.5723e-09, -0.451132, 1.78952e-08, -0.892457 ]
    },
    {
      "name" : "l_fingerB3",
      "translation" : [ 0.1753, -1.42109e-16, 1.63425e-15 ],
      "rotation" : [ -9.67333e-17, -0.277863, -4.34313e-16, -0.960621 ]
    },
    {
      "name" : "l_foreArmTwist1",
      "children" : [ 38 ],
      "translation" : [ 0.336093, 8.52651e-16, -2.70006e-15 ],
      "rotation" : [ 1.66533e-16, -9.71445e-17, 1.38778e-16, -1 ]
    },
    {
      "name" : "l_foreArmTwist2",
      "translation" : [ 0.336093, -1.13687e-15, 8.17124e-16 ],
      "rotation" : [ -3.33067e-16, 6.93889e-17, -8.04912e-16, -1 ]
    },
    {
      "name" : "l_shoulderTwist",
      "translation" : [ 0.537588, -1.98952e-15, 5.32907e-16 ],
      "rotation" : [ -9.75782e-17, 3.1225e-17, -5.55111e-17, -1 ]
    },
    {
      "name" : "r_clavicle",
      "children" : [ 41 ],
      "translation" : [ 0.194431, 0.30491, 0.327717 ],
      "rotation" : [ 0.566143, -0.753534, 0.242346, -0.23008 ]
    },
    {
      "name" : "r_shoulder",
      "children" : [ 42, 61 ],
      "translation" : [ -0.707902, 3.85312e-07, 5.05092e-07 ],
      "rotation" : [ 0.466008, 0.546889, 0.294261, -0.630206 ]
    },
    {
      "name" : "r_elbow",
      "children" : [ 43, 59 ],
      "translation" : [ -1.04047, 2.65322e-06, -3.26427e-06 ],
      "rotation" : [ -3.83782e-18, 0.110205, -2.83512e-17, -0.993909 ]
    },
    {
      "name" : "r_wrist",
      "children" : [ 44, 47, 50, 53, 56 ],
      "translation" : [ -1.04047, -9.17579e-07, 5.95012e-06 ],
      "rotation" : [ 0.845465, -0.0357168, 0.022145, -0.532375 ]
    },
    {
      "name" : "r_fingerA1",
      "children" : [ 45 ],
      "translation" : [ -0.179865, 0.155946, 0.10191 ],
      "rotation" : [ -0.673527, -0.0804675, 0.39019, -0.622606 ]
    },
    {
      "name" : "r_fingerA2",
      "children" : [ 46 ],
      "translation" : [ -0.233842, -1.48439e-06, -2.39372e-06 ],
      "rotation" : [ 4.75776e-17, -0.202822, -1.00192e-15, -0.979216 ]
    },
    {
      "name" : "r_fingerA3",
      "translation" : [ -0.175298, -5.18239e-06, -8.4715e-07 ],
      "rotation" : [ 2.06235e-16, 0.0236405, 6.71197e-16, -0.999721 ]
    },
    {
      "name" : "r_fingerD1",
      "children" : [ 48 ],
      "translation" : [ -0.650191, -0.274258, -0.00870875 ],
      "rotation" : [ 0.0349979, -0.337747, -0.133468, -0.931068 ]
    },
    {
      "name" : "r_fingerD2",
      "children" : [ 49 ],
      "translation" : [ -0.207512, 0.0011077, -0.0241717 ],
      "rotation" : [ -0.00143089, -0.491777, -0.00223244, -0.870717 ]
    },
    {
      "name" : "r_fingerD3",
      "translation" : [ -0.207734, -7.27963e-06, -3.49116e-07 ],
      "rotation" : [ -0.000734966, -0.330375, 0.00254776, -0.943846 ]
    },
    {
      "name" : "r_fingerE1",
      "children" : [ 51 ],
      "translation" : [ -0.584898, -0.424211, 0.00124316 ],
      "rotation" : [ 0.0481438, -0.336409, -0.224241, -0.91336 ]
    },
    {
      "name" : "r_fingerE2",
      "children" : [ 52 ],
      "translation" : [ -0.243837, 2.22534e-06, -4.38591e-06 ],
      "rotation" : [ 2.55091e-08, -0.451132, -4.79859e-08, -0.892457 ]
    },
    {
      "name" : "r_fingerE3",
      "translation" : [ -0.119297, -1.81416e-06, -6.79261e-07 ],
      "rotation" : [ 4.70456e-17, -0.277863, -1.86968e-16, -0.960621 ]
    },
    {
      "name" : "r_fingerC1",
      "children" : [ 54 ],
      "translation" : [ -0.683778, -0.0918102, -0.0100906 ],
      "rotation" : [ 0.00155841, -0.317198, -0.0521875, -0.946921 ]
    },
    {
      "name" : "r_fingerC2",
      "children" : [ 55 ],
      "translation" : [ -0.23384, -2.21275e-06, 1.73962e-06 ],
      "rotation" : [ -3.19828e-16, -0.519522, -4.1917e-16, -0.854457 ]
    },
    {
      "name" : "r_fingerC3",
      "translation" : [ -0.179303, 2.16314e-06, -7.38769e-07 ],
      "rotation" : [ -1.35241e-16, -0.277863, 3.18956e-17, -0.960621 ]
    },
    {
      "name" : "r_fingerB1",
      "children" : [ 57 ],
      "translation" : [ -0.696172, 0.107652, -0.000840214 ],
      "rotation" : [ -0.0121971, -0.337842, -0.0169522, -0.940971 ]
    },
    {
      "name" : "r_fingerB2",
      "children" : [ 58 ],
      "translation" : [ -0.243841, -3.53832e-07, 2.96757e-06 ],
      "rotation" : [ -6.02235e-09, -0.451132, 2.08171e-08, -0.892457 ]
    },
    {
      "name" : "r_fingerB3",
      "translation" : [ -0.175299, -1.93337e-06, 5.66622e-07 ],
      "rotation" : [ 1.3155e-16, -0.277863, 5.28878e-18, -0.960621 ]
    },
    {
      "name" : "r_foreArmTwist1",
      "children" : [ 60 ],
      "translation" : [ -0.3361, -2.53548e-06, 9.21236e-06 ],
      "rotation" : [ -2.77556e-16, -1.38778e-17, 8.32667e-17, -1 ]
    },
    {
      "name" : "r_foreArmTwist2",
      "translation" : [ -0.336091, -1.20687e-06, -2.32293e-06 ],
      "rotation" : [ -2.77556e-17, 2.35922e-16, 3.88578e-16, -1 ]
    },
    {
      "name" : "r_shoulderTwist",
      "translation" : [ -0.53759, 2.98356e-06, -1.71283e-06 ],
      "rotation" : [ 4.94396e-17, 3.29597e-17, -1.11022e-16, -1 ]
    },
    {
      "name" : "l_leg",
      "children" : [ 63, 77 ],
      "translation" : [ -0.0118193, -0.445943, -0.00538624 ],
      "rotation" : [ -0.0253937, 0.756626, 0.198543, -0.622456 ]
    },
    {
      "name" : "l_knee",
      "children" : [ 64, 76 ],
      "translation" : [ 1.01254, 1.7053e-15, -4.9738e-15 ],
      "rotation" : [ -7.04426e-16, 0.379136, 1.64605e-15, -0.925341 ]
    },
    {
      "name" : "l_ankle",
      "children" : [ 65, 74 ],
      "translation" : [ 0.970728, 1.98952e-15, 1.98952e-15 ],
      "rotation" : [ 0.0735354, -0.765598, -0.0889561, -0.632882 ]
    },
    {
      "name" : "l_footBall",
      "children" : [ 66, 68, 70, 72 ],
      "translation" : [ 0.49358, 1.13687e-15, -3.90799e-16 ],
      "rotation" : [ 6.85395e-17, -0.2048, 5.3086e-16, -0.978804 ]
    },
    {
      "name" : "l_smallToeD1",
      "children" : [ 67 ],
      "translation" : [ 0.0136598, -0.186698, 0.0280264 ],
      "rotation" : [ 0.0173569, 0.108134, 0.0890456, -0.989988 ]
    },
    {
      "name" : "l_smallToeD2",
      "translation" : [ 0.146057, 1.13687e-15, -3.55271e-17 ],
      "rotation" : [ -4.15122e-09, -0.0523694, -7.91592e-08, -0.998628 ]
    },
    {
      "name" : "l_smallToeC1",
      "children" : [ 69 ],
      "translation" : [ 0.0589485, -0.0640442, 0.0269561 ],
      "rotation" : [ 0.0143651, 0.107991, 0.0472259, -0.992925 ]
    },
    {
      "name" : "l_smallToeC2",
      "translation" : [ 0.146057, 8.52651e-16, 1.24345e-16 ],
      "rotation" : [ -3.2889e-09, -0.0523695, -6.27157e-08, -0.998628 ]
    },
    {
      "name" : "l_smallToeB1",
      "children" : [ 71 ],
      "translation" : [ 0.0669435, 0.0677247, 0.024357 ],
      "rotation" : [ 0.0081154, 0.107093, -0.0392766, -0.99344 ]
    },
    {
      "name" : "l_smallToeB2",
      "translation" : [ 0.146057, 0, -1.59872e-16 ],
      "rotation" : [ -6.95379e-10, -0.0523696, -1.32601e-08, -0.998628 ]
    },
    {
      "name" : "l_smallToeA1",
      "children" : [ 73 ],
      "translation" : [ 0.0284792, 0.180188, 0.0205244 ],
      "rotation" : [ 0.00180464, 0.105389, -0.125484, -0.98648 ]
    },
    {
      "name" : "l_smallToeA2",
      "translation" : [ 0.146057, 7.10543e-16, 3.55271e-17 ],
      "rotation" : [ 2.04882e-09, -0.0523695, 3.90688e-08, -0.998628 ]
    },
    {
      "name" : "l_bigToe1",
      "children" : [ 75 ],
      "translation" : [ 0.0946899, 0.215115, 0.138957 ],
      "rotation" : [ -0.10202, -0.0698832, -0.356722, -0.92599 ]
    },
    {
      "name" : "l_bigToe2",
      "translation" : [ 0.238562, -6.39488e-16, -1.42109e-16 ],
      "rotation" : [ -8.05008e-18, -0.0716638, -3.94231e-17, -0.997429 ]
    },
    {
      "name" : "l_knee1",
      "translation" : [ 0.475534, -5.68434e-16, 2.84217e-15 ],
      "rotation" : [ 2.77556e-17, -3.10862e-15, -1.31839e-15, -1 ]
    },
    {
      "name" : "l_legTwist",
      "translation" : [ 0.441641, -5.68434e-16, 1.13687e-15 ],
      "rotation" : [ 1.14492e-16, 2.77556e-16, 3.17778e-32, -1 ]
    },
    {
      "name" : "r_leg",
      "children" : [ 79, 93 ],
      "translation" : [ -0.0118164, 0.445943, -0.00538984 ],
      "rotation" : [ 0.198542, -0.622456, 0.0253939, -0.756627 ]
    },
    {
      "name" : "r_knee",
      "children" : [ 80, 92 ],
      "translation" : [ -1.01254, 6.60802e-07, -1.82075e-06 ],
      "rotation" : [ -6.03924e-16, 0.379136, 2.57208e-15, -0.925341 ]
    },
    {
      "name" : "r_ankle",
      "children" : [ 81, 90 ],
      "translation" : [ -0.970733, 1.20373e-07, 3.85536e-07 ],
      "rotation" : [ 0.073536, -0.765596, -0.0889552, -0.632884 ]
    },
    {
      "name" : "r_footBall",
      "children" : [ 82, 84, 86, 88 ],
      "translation" : [ -0.493581, 6.67092e-08, 6.90876e-07 ],
      "rotation" : [ 1.14086e-16, -0.2048, 1.30208e-16, -0.978804 ]
    },
    {
      "name" : "r_smallToeD1",
      "children" : [ 83 ],
      "translation" : [ -0.0136615, 0.186695, -0.0280267 ],
      "rotation" : [ 0.0173571, 0.108136, 0.0890456, -0.989988 ]
    },
    {
      "name" : "r_smallToeD2",
      "translation" : [ -0.146061, -1.01237e-07, 9.02999e-07 ],
      "rotation" : [ -3.25711e-09, -0.0523738, -4.92371e-07, -0.998627 ]
    },
    {
      "name" : "r_smallToeC1",
      "children" : [ 85 ],
      "translation" : [ -0.0589519, 0.0640387, -0.0269565 ],
      "rotation" : [ 0.0143659, 0.107991, 0.0472192, -0.992926 ]
    },
    {
      "name" : "r_smallToeC2",
      "translation" : [ -0.146055, 9.77182e-06, -2.008e-07 ],
      "rotation" : [ 3.69973e-08, -0.0523691, 1.38673e-05, -0.998628 ]
    },
    {
      "name" : "r_smallToeB1",
      "children" : [ 87 ],
      "translation" : [ -0.0669441, -0.0677253, -0.0243574 ],
      "rotation" : [ 0.00811532, 0.107093, -0.039276, -0.99344 ]
    },
    {
      "name" : "r_smallToeB2",
      "translation" : [ -0.146059, -1.03143e-06, 6.33499e-07 ],
      "rotation" : [ -5.88771e-09, -0.0523703, -1.46358e-06, -0.998628 ]
    },
    {
      "name" : "r_smallToeA1",
      "children" : [ 89 ],
      "translation" : [ -0.0284786, -0.180189, -0.0205248 ],
      "rotation" : [ 0.00180462, 0.105389, -0.125484, -0.98648 ]
    },
    {
      "name" : "r_smallToeA2",
      "translation" : [ -0.146057, 2.72045e-07, 1.77748e-07 ],
      "rotation" : [ -8.14543e-10, -0.0523696, 3.47602e-07, -0.998628 ]
    },
    {
      "name" : "r_bigToe1",
      "children" : [ 91 ],
      "translation" : [ -0.0946925, -0.215116, -0.138955 ],
      "rotation" : [ -0.10202, -0.0698832, -0.356722, -0.92599 ]
    },
    {
      "name" : "r_bigToe2",
      "translation" : [ -0.238566, 1.31163e-06, 8.13083e-07 ],
      "rotation" : [ -1.78598e-17, -0.0716638, -2.18317e-16, -0.997429 ]
    },
    {
      "name" : "r_knee1",
      "translation" : [ -0.475535, 2.13571e-06, -6.35252e-06 ],
      "rotation" : [ -3.98783e-30, -1.41553e-15, -2.81719e-15, -1 ]
    },
    {
      "name" : "r_legTwist",
      "translation" : [ -0.441646, -6.03328e-07, -1.31401e-06 ],
      "rotation" : [ 2.87964e-16, 6.93889e-17, 5.55111e-17, -1 ]
    }
  ],
  "skins" : [
    {
      "inverseBindMatrices" : 0,
      "skeleton" : 1,
      "joints" : [
        1,2,3,4,5,6,7,8,9,10,11,12,13,14,15,16,17,18,19,20,21,22,23,24,25,26,27,28,29,30,31,32,
        33,34,35,36,37,38,39,40,41,42,43,44,45,46,47,48,49,50,51,52,53,54,55,56,57,58,59,60,61,62,63,64,
        65,66,67,68,69,70,71,72,73,74,75,76,77,78,79,80,81,82,83,84,85,86,87,88,89,90,91,92,93
      ]
    }
  ],
  "materials" : [
    {
      "name" : "dummy_material_0",
      "pbrMetallicRoughness" : {
        "baseColorFactor" : [ 0.3, 0.3, 0.3, 1.0 ],
        "metallicFactor" : 0.1,
        "roughnessFactor" : 0.5
      }
    },
    {
      "name" : "dummy_material_1",
      "pbrMetallicRoughness" : {
        "baseColorFactor" : [ 0.9, 0.3, 0.3, 1.0 ],
        "metallicFactor" : 0.1,
        "roughnessFactor" : 0.5
      }
    }
  ],
  "meshes" : [
    {
      "primitives" : [
        {
          "attributes" : {
            "POSITION" : 2,
            "NORMAL" : 3,
            "TANGENT" : 4,
            "JOINTS_0" : 5,
            "WEIGHTS_0" : 6,
            "TEXCOORD_0" : 7
          },
          "indices" : 1,
          "material" : 0
        },
        {
          "attributes" : {
            "POSITION" : 9,
            "NORMAL" : 10,
            "TANGENT" : 11,
            "JOINTS_0" : 12,
            "WEIGHTS_0" : 13,
            "TEXCOORD_0" : 14
          },
          "indices" : 8,
          "material" : 1
        }
      ],
      "name" : "Gorilla"
    }
  ],
  "buffers" : [
    {
      "uri" : "Gorilla.bin",
      "byteLength" : 17136
    }
  ],
  "bufferViews" : [
    {
      "buffer" : 0,
      "byteOffset" : 0,
      "byteLength" : 5952
    },
    {
      "buffer" : 0,
      "byteOffset" : 5952,
      "byteLength" : 48
    },
    {
      "buffer" : 0,
      "byteOffset" : 6000,
      "byteLength" : 144
    },
    {
      "buffer" : 0,
      "byteOffset" : 6144,
      "byteLength" : 144
    },
    {
      "buffer" : 0,
      "byteOffset" : 6288,
      "byteLength" : 192
    },
    {
      "buffer" : 0,
      "byteOffset" : 6480,
      "byteLength" : 96
    },
    {
      "buffer" : 0,
      "byteOffset" : 6576,
      "byteLength" : 48
    },
    {
      "buffer" : 0,
      "byteOffset" : 6624,
      "byteLength" : 96
    },
    {
      "buffer" : 0,
      "byteOffset" : 6720,
      "byteLength" : 756
    },
    {
      "buffer" : 0,
      "byteOffset" : 7476,
      "byteLength" : 1932
    },
    {
      "buffer" : 0,
      "byteOffset" : 9408,
      "byteLength" : 1932
    },
    {
      "buffer" : 0,
      "byteOffset" : 11340,
      "byteLength" : 2576
    },
    {
      "buffer" : 0,
      "byteOffset" : 13916,
      "byteLength" : 1288
    },
    {
      "buffer" : 0,
      "byteOffset" : 15204,
      "byteLength" : 644
    },
    {
      "buffer" : 0,
      "byteOffset" : 15848,
      "byteLength" : 1288
    }
  ],
  "accessors" : [
    {
      "bufferView" : 0,
      "componentType" : 5126,
      "count" : 93,
      "type" : "MAT4"
    },
    {
      "bufferView" : 1,
      "componentType" : 5123,
      "count" : 24,
      "type" : "SCALAR"
    },
    {
      "bufferView" : 2,
      "min" : [ -1.03616, 2.55222, 0.133982 ],
      "max" : [ 1.11079, 4.12217, 1.89673 ],
      "componentType" : 5126,
      "count" : 12,
      "type" : "VEC3"
    },
    {
      "bufferView" : 3,
      "componentType" : 5126,
      "count" : 12,
      "type" : "VEC3"
    },
    {
      "bufferView" : 4,
      "componentType" : 5126,
      "count" : 12,
      "type" : "VEC4"
    },
    {
      "bufferView" : 5,
      "componentType" : 5123,
      "count" : 12,
      "type" : "VEC4"
    },
    {
      "bufferView" : 6,
      "normalized" : true,
      "componentType" : 5121,
      "count" : 12,
      "type" : "VEC4"
    },
    {
      "bufferView" : 7,
      "componentType" : 5126,
      "count" : 12,
      "type" : "VEC2"
    },
    {
      "bufferView" : 8,
      "componentType" : 5123,
      "count" : 378,
      "type" : "SCALAR"
    },
    {
      "bufferView" : 9,
      "min" : [ -1.90544, -0.227651, -2.36363 ],
      "max" : [ 1.80261, 3.84963, 1.74588 ],
      "componentType" : 5126,
      "count" : 161,
      "type" : "VEC3"
    },
    {
      "bufferView" : 10,
      "componentType" : 5126,
      "count" : 161,
      "type" : "VEC3"
    },
    {
      "bufferView" : 11,
      "componentType" : 5126,
      "count" : 161,
      "type" : "VEC4"
    },
    {
      "bufferView" : 12,
      "componentType" : 5123,
      "count" : 161,
      "type" : "VEC4"
    },
    {
      "bufferView" : 13,
      "normalized" : true,
      "componentType" : 5121,
      "count" : 161,
      "type" : "VEC4"
    },
    {
      "bufferView" : 14,
      "componentType" : 5126,
      "count" : 161,
      "type" : "VEC2"
    }
  ]
}
