{
  "asset" : {
    "generator" : "UE Viewer (umodel) build 1612-floxay",
    "version" : "2.0"
  },
  "scene" : 0,
  "scenes" : [
    {
      "nodes" : [ 0 ]
    }
  ],
  "nodes" : [
    {
      "name" : "Gorilla_fur",
      "mesh" : 0,
      "skin" : 0,
      "children" : [ 1 ]
    },
    {
      "name" : "root",
      "children" : [ 2 ],
      "translation" : [ 0, 0, -0 ],
      "rotation" : [ -0.707107, -0, 0, -0.707107 ]
    },
    {
      "name" : "c_back1",
      "children" : [ 3, 58, 74 ],
      "translation" : [ -5.68434e-16, -1.54376, -2.08539 ],
      "rotation" : [ 0.125505, -0.125505, -0.69588, -0.69588 ]
    },
    {
      "name" : "c_back2",
      "children" : [ 4 ],
      "translation" : [ 0.633622, 2.66454e-16, 5.68434e-16 ],
      "rotation" : [ -5.18697e-33, -0.056804, 3.7674e-33, -0.998385 ]
    },
    {
      "name" : "c_back3",
      "children" : [ 5 ],
      "translation" : [ 0.633622, 2.39808e-16, 2.84217e-16 ],
      "rotation" : [ 7.20429e-33, -0.0574357, -8.90257e-33, -0.998349 ]
    },
    {
      "name" : "c_back4",
      "children" : [ 6, 14, 36 ],
      "translation" : [ 0.633622, 3.73035e-16, 2.84217e-16 ],
      "rotation" : [ 1.67118e-33, -0.0575413, 2.21863e-33, -0.998343 ]
    },
    {
      "name" : "c_neck",
      "children" : [ 7 ],
      "translation" : [ 0.632169, 4.08562e-16, -0 ],
      "rotation" : [ 3.91753e-33, 0.295758, 1.07895e-32, -0.955263 ]
    },
    {
      "name" : "c_head",
      "children" : [ 8, 9, 13 ],
      "translation" : [ 0.611784, 1.45402e-16, 5.11591e-15 ],
      "rotation" : [ -8.02446e-34, 0.0476031, 6.54674e-34, -0.998866 ]
    },
    {
      "name" : "l_eye",
      "translation" : [ 0.418662, -0.124273, -0.087099 ],
      "rotation" : [ -4.88461e-05, 0.00244069, 0.0200092, -0.999797 ]
    },
    {
      "name" : "c_jaw",
      "children" : [ 10 ],
      "translation" : [ 0.0601247, -9.91415e-16, 0.179526 ],
      "rotation" : [ 6.76103e-34, 0.203066, 5.33597e-34, -0.979165 ]
    },
    {
      "name" : "c_tongue1",
      "children" : [ 11 ],
      "translation" : [ 0.227092, 5.04246e-17, 0.0187642 ],
      "rotation" : [ -1.86283e-33, -0.210609, -1.962e-32, -0.97757 ]
    },
    {
      "name" : "c_tongue2",
      "children" : [ 12 ],
      "translation" : [ 0.13983, -3.10486e-17, -6.82121e-15 ],
      "rotation" : [ -6.53409e-33, 0.334446, -2.31883e-33, -0.942415 ]
    },
    {
      "name" : "c_tongue3",
      "translation" : [ 0.0948196, -1.17819e-17, -5.68434e-16 ],
      "rotation" : [ -6.32146e-34, 0.0199143, -6.94731e-33, -0.999802 ]
    },
    {
      "name" : "r_eye",
      "translation" : [ 0.418658, 0.124273, -0.0870996 ],
      "rotation" : [ -0.0200092, -0.999797, -4.88461e-05, -0.00244069 ]
    },
    {
      "name" : "l_clavicle",
      "children" : [ 15 ],
      "translation" : [ 0.194429, -0.30491, 0.32772 ],
      "rotation" : [ -0.242346, 0.23008, 0.566143, -0.753534 ]
    },
    {
      "name" : "l_shoulder",
      "children" : [ 16, 35 ],
      "translation" : [ 0.707902, 7.10543e-16, 1.7053e-15 ],
      "rotation" : [ 0.466009, 0.54689, 0.294264, -0.630202 ]
    },
    {
      "name" : "l_elbow",
      "children" : [ 17, 33 ],
      "translation" : [ 1.04047, -1.7053e-15, -1.08358e-15 ],
      "rotation" : [ -9.95544e-18, 0.110205, 2.68218e-17, -0.993909 ]
    },
    {
      "name" : "l_wrist",
      "children" : [ 18, 21, 24, 27, 30 ],
      "translation" : [ 1.04047, -8.52651e-16, 4.26326e-16 ],
      "rotation" : [ 0.845461, -0.0357177, 0.0221451, -0.532381 ]
    },
    {
      "name" : "l_fingerA1",
      "children" : [ 19 ],
      "translation" : [ 0.179865, -0.155948, -0.101906 ],
      "rotation" : [ -0.673523, -0.0804681, 0.390193, -0.622608 ]
    },
    {
      "name" : "l_fingerA2",
      "children" : [ 20 ],
      "translation" : [ 0.23384, -5.68434e-16, -5.68434e-16 ],
      "rotation" : [ -3.51386e-17, -0.202822, 3.56229e-17, -0.979216 ]
    },
    {
      "name" : "l_fingerA3",
      "translation" : [ 0.1753, -5.68434e-16, -1.42109e-16 ],
      "rotation" : [ -2.77478e-17, 0.0236405, -6.56155e-19, -0.999721 ]
    },
    {
      "name" : "l_fingerD1",
      "children" : [ 22 ],
      "translation" : [ 0.650192, 0.274255, 0.00870228 ],
      "rotation" : [ 0.0350003, -0.337751, -0.133466, -0.931067 ]
    },
    {
      "name" : "l_fingerD2",
      "children" : [ 23 ],
      "translation" : [ 0.225629, -0.00194692, 0.0330404 ],
      "rotation" : [ -0.00253546, -0.533513, -0.00396213, -0.845779 ]
    },
    {
      "name" : "l_fingerD3",
      "translation" : [ 0.206957, -3.68644e-08, 6.72982e-09 ],
      "rotation" : [ -0.00130705, -0.284106, 0.00451869, -0.958781 ]
    },
    {
      "name" : "l_fingerE1",
      "children" : [ 25 ],
      "translation" : [ 0.5849, 0.42421, -0.0012455 ],
      "rotation" : [ 0.0481458, -0.336413, -0.224239, -0.913359 ]
    },
    {
      "name" : "l_fingerE2",
      "children" : [ 26 ],
      "translation" : [ 0.24384, 4.9738e-16, -1.13687e-15 ],
      "rotation" : [ 2.8028e-08, -0.451132, -5.148e-08, -0.892457 ]
    },
    {
      "name" : "l_fingerE3",
      "translation" : [ 0.1193, 7.10543e-17, 4.70735e-16 ],
      "rotation" : [ -1.92806e-18, -0.277863, -6.66564e-18, -0.960621 ]
    },
    {
      "name" : "l_fingerC1",
      "children" : [ 28 ],
      "translation" : [ 0.683778, 0.0918107, 0.0100841 ],
      "rotation" : [ 0.0015612, -0.317202, -0.0521856, -0.94692 ]
    },
    {
      "name" : "l_fingerC2",
      "children" : [ 29 ],
      "translation" : [ 0.23384, 4.26326e-16, -1.13687e-15 ],
      "rotation" : [ 1.05894e-17, -0.519522, 1.74164e-17, -0.854457 ]
    },
    {
      "name" : "l_fingerC3",
      "translation" : [ 0.1793, -8.52651e-16, 4.44089e-16 ],
      "rotation" : [ -1.14032e-17, -0.277863, 1.05218e-17, -0.960621 ]
    },
    {
      "name" : "l_fingerB1",
      "children" : [ 31 ],
      "translation" : [ 0.696171, -0.10765, 0.00083203 ],
      "rotation" : [ -0.0121942, -0.337846, -0.0169501, -0.94097 ]
    },
    {
      "name" : "l_fingerB2",
      "children" : [ 32 ],
      "translation" : [ 0.24384, -2.84217e-16, -1.7053e-15 ],
      "rotation" : [ -3.92319e-09, -0.451132, 1.71284e-08, -0.892457 ]
    },
    {
      "name" : "l_fingerB3",
      "translation" : [ 0.1753, 4.26326e-16, 1.20792e-15 ],
      "rotation" : [ 2.10435e-17, -0.277863, 2.28065e-17, -0.960621 ]
    },
    {
      "name" : "l_foreArmTwist1",
      "children" : [ 34 ],
      "translation" : [ 0.336093, -8.52651e-16, -6.39488e-16 ],
      "rotation" : [ -6.12112e-06, 1.38778e-17, -8.49476e-23, -1 ]
    },
    {
      "name" : "l_foreArmTwist2",
      "translation" : [ 0.336093, 2.84217e-16, -7.81597e-16 ],
      "rotation" : [ -6.12112e-06, 1.69895e-22, 2.77556e-17, -1 ]
    },
    {
      "name" : "l_shoulderTwist",
      "translation" : [ 0.537588, -2.27374e-15, 1.59872e-16 ],
      "rotation" : [ -1.67226e-05, -6.93889e-18, 1.16036e-22, -1 ]
    },
    {
      "name" : "r_clavicle",
      "children" : [ 37 ],
      "translation" : [ 0.194431, 0.30491, 0.327717 ],
      "rotation" : [ 0.566143, -0.753534, 0.242346, -0.23008 ]
    },
    {
      "name" : "r_shoulder",
      "children" : [ 38, 57 ],
      "translation" : [ -0.707902, 3.85312e-07, 5.05092e-07 ],
      "rotation" : [ 0.466008, 0.546889, 0.294261, -0.630206 ]
    },
    {
      "name" : "r_elbow",
      "children" : [ 39, 55 ],
      "translation" : [ -1.04047, 2.65322e-06, -3.26427e-06 ],
      "rotation" : [ -2.37487e-17, 0.110205, 2.52924e-17, -0.993909 ]
    },
    {
      "name" : "r_wrist",
      "children" : [ 40, 43, 46, 49, 52 ],
      "translation" : [ -1.04047, -9.17579e-07, 5.95012e-06 ],
      "rotation" : [ 0.845465, -0.0357168, 0.022145, -0.532375 ]
    },
    {
      "name" : "r_fingerA1",
      "children" : [ 41 ],
      "translation" : [ -0.179865, 0.155946, 0.10191 ],
      "rotation" : [ -0.673527, -0.0804675, 0.39019, -0.622606 ]
    },
    {
      "name" : "r_fingerA2",
      "children" : [ 42 ],
      "translation" : [ -0.233842, -1.48439e-06, -2.39372e-06 ],
      "rotation" : [ 1.92188e-17, -0.202822, 2.4364e-17, -0.979216 ]
    },
    {
      "name" : "r_fingerA3",
      "translation" : [ -0.175298, -5.18239e-06, -8.4715e-07 ],
      "rotation" : [ 6.56155e-19, 0.0236405, -2.77478e-17, -0.999721 ]
    },
    {
      "name" : "r_fingerD1",
      "children" : [ 44 ],
      "translation" : [ -0.650191, -0.274258, -0.00870875 ],
      "rotation" : [ 0.0349979, -0.337747, -0.133468, -0.931068 ]
    },
    {
      "name" : "r_fingerD2",
      "children" : [ 45 ],
      "translation" : [ -0.207512, 0.0011077, -0.0241717 ],
      "rotation" : [ -0.00143089, -0.491777, -0.00223244, -0.870717 ]
    },
    {
      "name" : "r_fingerD3",
      "translation" : [ -0.207734, -7.27963e-06, -3.49116e-07 ],
      "rotation" : [ -0.000734966, -0.330375, 0.00254776, -0.943846 ]
    },
    {
      "name" : "r_fingerE1",
      "children" : [ 47 ],
      "translation" : [ -0.584898, -0.424211, 0.00124316 ],
      "rotation" : [ 0.0481438, -0.336409, -0.224241, -0.91336 ]
    },
    {
      "name" : "r_fingerE2",
      "children" : [ 48 ],
      "translation" : [ -0.243837, 2.22534e-06, -4.38591e-06 ],
      "rotation" : [ 2.36864e-08, -0.451132, -4.77171e-08, -0.892457 ]
    },
    {
      "name" : "r_fingerE3",
      "translation" : [ -0.119297, -1.81416e-06, -6.79261e-07 ],
      "rotation" : [ -2.28065e-17, -0.277863, 2.10435e-17, -0.960621 ]
    },
    {
      "name" : "r_fingerC1",
      "children" : [ 50 ],
      "translation" : [ -0.683778, -0.0918102, -0.0100906 ],
      "rotation" : [ 0.0015584, -0.317198, -0.0521875, -0.946921 ]
    },
    {
      "name" : "r_fingerC2",
      "children" : [ 51 ],
      "translation" : [ -0.23384, -2.21275e-06, 1.73962e-06 ],
      "rotation" : [ 1.19413e-17, -0.519522, 1.96398e-17, -0.854457 ]
    },
    {
      "name" : "r_fingerC3",
      "translation" : [ -0.179303, 2.16314e-06, -7.38769e-07 ],
      "rotation" : [ -5.78418e-18, -0.277863, -1.99969e-17, -0.960621 ]
    },
    {
      "name" : "r_fingerB1",
      "children" : [ 53 ],
      "translation" : [ -0.696172, 0.107652, -0.000840214 ],
      "rotation" : [ -0.0121971, -0.337842, -0.0169522, -0.940971 ]
    },
    {
      "name" : "r_fingerB2",
      "children" : [ 54 ],
      "translation" : [ -0.243841, -3.53832e-07, 2.96757e-06 ],
      "rotation" : [ -7.61833e-09, -0.451132, 2.17302e-08, -0.892457 ]
    },
    {
      "name" : "r_fingerB3",
      "translation" : [ -0.175299, -1.93337e-06, 5.66622e-07 ],
      "rotation" : [ -1.14032e-17, -0.277863, 1.05218e-17, -0.960621 ]
    },
    {
      "name" : "r_foreArmTwist1",
      "children" : [ 56 ],
      "translation" : [ -0.3361, -2.53548e-06, 9.21236e-06 ],
      "rotation" : [ -2.78816e-06, -1.38778e-17, 3.86936e-23, -1 ]
    },
    {
      "name" : "r_foreArmTwist2",
      "translation" : [ -0.336091, -1.20687e-06, -2.32293e-06 ],
      "rotation" : [ -2.78816e-06, 5.55111e-17, -1.54774e-22, -1 ]
    },
    {
      "name" : "r_shoulderTwist",
      "translation" : [ -0.53759, 2.98356e-06, -1.71283e-06 ],
      "rotation" : [ -1.18809e-05, -5.20384e-18, 2.77556e-17, -1 ]
    },
    {
      "name" : "l_leg",
      "children" : [ 59, 73 ],
      "translation" : [ -0.0118193, -0.445943, -0.00538624 ],
      "rotation" : [ -0.0253937, 0.756626, 0.198543, -0.622456 ]
    },
    {
      "name" : "l_knee",
      "children" : [ 60, 72 ],
      "translation" : [ 1.01254, 0, -5.68434e-16 ],
      "rotation" : [ -4.37866e-17, 0.379136, -2.94302e-18, -0.925341 ]
    },
    {
      "name" : "l_ankle",
      "children" : [ 61, 70 ],
      "translation" : [ 0.970728, 8.52651e-16, 5.68434e-16 ],
      "rotation" : [ 0.0735354, -0.765598, -0.0889561, -0.632882 ]
    },
    {
      "name" : "l_footBall",
      "children" : [ 62, 64, 66, 68 ],
      "translation" : [ 0.49358, 1.13687e-15, -2.4869e-16 ],
      "rotation" : [ -1.76498e-17, -0.2048, -5.04726e-17, -0.978804 ]
    },
    {
      "name" : "l_smallToeD1",
      "children" : [ 63 ],
      "translation" : [ 0.0136598, -0.186698, 0.0280264 ],
      "rotation" : [ 0.0173569, 0.108134, 0.0890456, -0.989988 ]
    },
    {
      "name" : "l_smallToeD2",
      "translation" : [ 0.146057, -5.68434e-16, -0 ],
      "rotation" : [ -4.18352e-09, -0.0523694, -7.97751e-08, -0.998628 ]
    },
    {
      "name" : "l_smallToeC1",
      "children" : [ 65 ],
      "translation" : [ 0.0589485, -0.0640442, 0.0269561 ],
      "rotation" : [ 0.0143651, 0.107991, 0.0472259, -0.992925 ]
    },
    {
      "name" : "l_smallToeC2",
      "translation" : [ 0.146057, 2.84217e-16, 1.06581e-16 ],
      "rotation" : [ -3.2867e-09, -0.0523696, -6.26735e-08, -0.998628 ]
    },
    {
      "name" : "l_smallToeB1",
      "children" : [ 67 ],
      "translation" : [ 0.0669435, 0.0677247, 0.024357 ],
      "rotation" : [ 0.0081154, 0.107093, -0.0392766, -0.99344 ]
    },
    {
      "name" : "l_smallToeB2",
      "translation" : [ 0.146057, 0, -7.10543e-17 ],
      "rotation" : [ -6.89952e-10, -0.0523696, -1.31566e-08, -0.998628 ]
    },
    {
      "name" : "l_smallToeA1",
      "children" : [ 69 ],
      "translation" : [ 0.0284792, 0.180188, 0.0205244 ],
      "rotation" : [ 0.00180464, 0.105389, -0.125484, -0.98648 ]
    },
    {
      "name" : "l_smallToeA2",
      "translation" : [ 0.146057, 4.26326e-16, -1.24345e-16 ],
      "rotation" : [ 2.03903e-09, -0.0523695, 3.88821e-08, -0.998628 ]
    },
    {
      "name" : "l_bigToe1",
      "children" : [ 71 ],
      "translation" : [ 0.0946899, 0.215115, 0.138957 ],
      "rotation" : [ -0.10202, -0.0698832, -0.356722, -0.92599 ]
    },
    {
      "name" : "l_bigToe2",
      "translation" : [ 0.238562, -2.84217e-16, -0 ],
      "rotation" : [ 2.51353e-18, -0.0716638, 3.49838e-17, -0.997429 ]
    },
    {
      "name" : "l_knee1",
      "translation" : [ 0.475534, -5.68434e-16, 2.84217e-16 ],
      "rotation" : [ -2.12332e-06, 2.94669e-23, 1.38778e-17, -1 ]
    },
    {
      "name" : "l_legTwist",
      "translation" : [ 0.441641, -5.68434e-16, 5.68434e-16 ],
      "rotation" : [ 0.000108509, -1.50586e-21, 1.38778e-17, -1 ]
    },
    {
      "name" : "r_leg",
      "children" : [ 75, 89 ],
      "translation" : [ -0.0118164, 0.445943, -0.00538984 ],
      "rotation" : [ 0.198542, -0.622456, 0.0253939, -0.756627 ]
    },
    {
      "name" : "r_knee",
      "children" : [ 76, 88 ],
      "translation" : [ -1.01254, 6.60802e-07, -1.82075e-06 ],
      "rotation" : [ -5.26157e-18, 0.379136, 1.28417e-17, -0.925341 ]
    },
    {
      "name" : "r_ankle",
      "children" : [ 77, 86 ],
      "translation" : [ -0.970733, 1.20373e-07, 3.85536e-07 ],
      "rotation" : [ 0.073536, -0.765596, -0.0889552, -0.632884 ]
    },
    {
      "name" : "r_footBall",
      "children" : [ 78, 80, 82, 84 ],
      "translation" : [ -0.493581, 6.67092e-08, 6.90876e-07 ],
      "rotation" : [ 8.84642e-18, -0.2048, 1.68688e-17, -0.978804 ]
    },
    {
      "name" : "r_smallToeD1",
      "children" : [ 79 ],
      "translation" : [ -0.0136615, 0.186695, -0.0280267 ],
      "rotation" : [ 0.0173571, 0.108136, 0.0890456, -0.989988 ]
    },
    {
      "name" : "r_smallToeD2",
      "translation" : [ -0.146061, -1.01237e-07, 9.02999e-07 ],
      "rotation" : [ -3.19468e-09, -0.0523738, -4.92573e-07, -0.998627 ]
    },
    {
      "name" : "r_smallToeC1",
      "children" : [ 81 ],
      "translation" : [ -0.0589519, 0.0640387, -0.0269565 ],
      "rotation" : [ 0.0143659, 0.107991, 0.0472192, -0.992926 ]
    },
    {
      "name" : "r_smallToeC2",
      "translation" : [ -0.146055, 9.77182e-06, -2.008e-07 ],
      "rotation" : [ 3.70369e-08, -0.0523691, 1.38671e-05, -0.998628 ]
    },
    {
      "name" : "r_smallToeB1",
      "children" : [ 83 ],
      "translation" : [ -0.0669441, -0.0677253, -0.0243574 ],
      "rotation" : [ 0.00811532, 0.107093, -0.039276, -0.99344 ]
    },
    {
      "name" : "r_smallToeB2",
      "translation" : [ -0.146059, -1.03143e-06, 6.33499e-07 ],
      "rotation" : [ -5.85306e-09, -0.0523703, -1.46367e-06, -0.998628 ]
    },
    {
      "name" : "r_smallToeA1",
      "children" : [ 85 ],
      "translation" : [ -0.0284786, -0.180189, -0.0205248 ],
      "rotation" : [ 0.00180462, 0.105389, -0.125484, -0.98648 ]
    },
    {
      "name" : "r_smallToeA2",
      "translation" : [ -0.146057, 2.72045e-07, 1.77748e-07 ],
      "rotation" : [ -7.39521e-10, -0.0523696, 3.46583e-07, -0.998628 ]
    },
    {
      "name" : "r_bigToe1",
      "children" : [ 87 ],
      "translation" : [ -0.0946925, -0.215116, -0.138955 ],
      "rotation" : [ -0.10202, -0.0698832, -0.356722, -0.92599 ]
    },
    {
      "name" : "r_bigToe2",
      "translation" : [ -0.238566, 1.31163e-06, 8.13083e-07 ],
      "rotation" : [ 4.90571e-18, -0.0716638, 1.98657e-17, -0.997429 ]
    },
    {
      "name" : "r_knee1",
      "translation" : [ -0.475535, 2.13571e-06, -6.35252e-06 ],
      "rotation" : [ -1.45184e-06, 2.01483e-23, 1.38778e-17, -1 ]
    },
    {
      "name" : "r_legTwist",
      "translation" : [ -0.441646, -6.03328e-07, -1.31401e-06 ],
      "rotation" : [ 0.000109065, 1.51358e-21, -1.38778e-17, -1 ]
    }
  ],
  "skins" : [
    {
      "inverseBindMatrices" : 0,
      "skeleton" : 1,
      "joints" : [
        1,2,3,4,5,6,7,8,9,10,11,12,13,14,15,16,17,18,19,20,21,22,23,24,25,26,27,28,29,30,31,32,
        33,34,35,36,37,38,39,40,41,42,43,44,45,46,47,48,49,50,51,52,53,54,55,56,57,58,59,60,61,62,63,64,
        65,66,67,68,69,70,71,72,73,74,75,76,77,78,79,80,81,82,83,84,85,86,87,88,89
      ]
    }
  ],
  "materials" : [
    {
      "name" : "dummy_material_0",
      "pbrMetallicRoughness" : {
        "baseColorFactor" : [ 0.3, 0.3, 0.3, 1.0 ],
        "metallicFactor" : 0.1,
        "roughnessFactor" : 0.5
      }
    },
    {
      "name" : "dummy_material_1",
      "pbrMetallicRoughness" : {
        "baseColorFactor" : [ 0.9, 0.3, 0.3, 1.0 ],
        "metallicFactor" : 0.1,
        "roughnessFactor" : 0.5
      }
    },
    {
      "name" : "dummy_material_2",
      "pbrMetallicRoughness" : {
        "baseColorFactor" : [ 0.3, 0.9, 0.3, 1.0 ],
        "metallicFactor" : 0.1,
        "roughnessFactor" : 0.5
      }
    }
  ],
  "meshes" : [
    {
      "primitives" : [
        {
          "attributes" : {
            "POSITION" : 2,
            "NORMAL" : 3,
            "TANGENT" : 4,
            "COLOR_0" : 5,
            "JOINTS_0" : 6,
            "WEIGHTS_0" : 7,
            "TEXCOORD_0" : 8,
            "TEXCOORD_1" : 9,
            "TEXCOORD_2" : 10
          },
          "indices" : 1,
          "material" : 0
        },
        {
          "attributes" : {
            "POSITION" : 12,
            "NORMAL" : 13,
            "TANGENT" : 14,
            "COLOR_0" : 15,
            "JOINTS_0" : 16,
            "WEIGHTS_0" : 17,
            "TEXCOORD_0" : 18,
            "TEXCOORD_1" : 19,
            "TEXCOORD_2" : 20
          },
          "indices" : 11,
          "material" : 1
        },
        {
          "attributes" : {
            "POSITION" : 22,
            "NORMAL" : 23,
            "TANGENT" : 24,
            "COLOR_0" : 25,
            "JOINTS_0" : 26,
            "WEIGHTS_0" : 27,
            "TEXCOORD_0" : 28,
            "TEXCOORD_1" : 29,
            "TEXCOORD_2" : 30
          },
          "indices" : 21,
          "material" : 2
        }
      ],
      "name" : "Gorilla_fur"
    }
  ],
  "buffers" : [
    {
      "uri" : "Gorilla_fur.bin",
      "byteLength" : 5351880
    }
  ],
  "bufferViews" : [
    {
      "buffer" : 0,
      "byteOffset" : 0,
      "byteLength" : 5696
    },
    {
      "buffer" : 0,
      "byteOffset" : 5696,
      "byteLength" : 60660
    },
    {
      "buffer" : 0,
      "byteOffset" : 66356,
      "byteLength" : 67680
    },
    {
      "buffer" : 0,
      "byteOffset" : 134036,
      "byteLength" : 67680
    },
    {
      "buffer" : 0,
      "byteOffset" : 201716,
      "byteLength" : 90240
    },
    {
      "buffer" : 0,
      "byteOffset" : 291956,
      "byteLength" : 22560
    },
    {
      "buffer" : 0,
      "byteOffset" : 314516,
      "byteLength" : 45120
    },
    {
      "buffer" : 0,
      "byteOffset" : 359636,
      "byteLength" : 22560
    },
    {
      "buffer" : 0,
      "byteOffset" : 382196,
      "byteLength" : 45120
    },
    {
      "buffer" : 0,
      "byteOffset" : 427316,
      "byteLength" : 45120
    },
    {
      "buffer" : 0,
      "byteOffset" : 472436,
      "byteLength" : 45120
    },
    {
      "buffer" : 0,
      "byteOffset" : 517556,
      "byteLength" : 102504
    },
    {
      "buffer" : 0,
      "byteOffset" : 620060,
      "byteLength" : 114048
    },
    {
      "buffer" : 0,
      "byteOffset" : 734108,
      "byteLength" : 114048
    },
    {
      "buffer" : 0,
      "byteOffset" : 848156,
      "byteLength" : 152064
    },
    {
      "buffer" : 0,
      "byteOffset" : 1000220,
      "byteLength" : 38016
    },
    {
      "buffer" : 0,
      "byteOffset" : 1038236,
      "byteLength" : 76032
    },
    {
      "buffer" : 0,
      "byteOffset" : 1114268,
      "byteLength" : 38016
    },
    {
      "buffer" : 0,
      "byteOffset" : 1152284,
      "byteLength" : 76032
    },
    {
      "buffer" : 0,
      "byteOffset" : 1228316,
      "byteLength" : 76032
    },
    {
      "buffer" : 0,
      "byteOffset" : 1304348,
      "byteLength" : 76032
    },
    {
      "buffer" : 0,
      "byteOffset" : 1380380,
      "byteLength" : 211500
    },
    {
      "buffer" : 0,
      "byteOffset" : 1591880,
      "byteLength" : 564000
    },
    {
      "buffer" : 0,
      "byteOffset" : 2155880,
      "byteLength" : 564000
    },
    {
      "buffer" : 0,
      "byteOffset" : 2719880,
      "byteLength" : 752000
    },
    {
      "buffer" : 0,
      "byteOffset" : 3471880,
      "byteLength" : 188000
    },
    {
      "buffer" : 0,
      "byteOffset" : 3659880,
      "byteLength" : 376000
    },
    {
      "buffer" : 0,
      "byteOffset" : 4035880,
      "byteLength" : 188000
    },
    {
      "buffer" : 0,
      "byteOffset" : 4223880,
      "byteLength" : 376000
    },
    {
      "buffer" : 0,
      "byteOffset" : 4599880,
      "byteLength" : 376000
    },
    {
      "buffer" : 0,
      "byteOffset" : 4975880,
      "byteLength" : 376000
    }
  ],
  "accessors" : [
    {
      "bufferView" : 0,
      "componentType" : 5126,
      "count" : 89,
      "type" : "MAT4"
    },
    {
      "bufferView" : 1,
      "componentType" : 5123,
      "count" : 30330,
      "type" : "SCALAR"
    },
    {
      "bufferView" : 2,
      "min" : [ -0.866111, 2.62226, 0.198362 ],
      "max" : [ 0.86611, 4.19091, 1.87541 ],
      "componentType" : 5126,
      "count" : 5640,
      "type" : "VEC3"
    },
    {
      "bufferView" : 3,
      "componentType" : 5126,
      "count" : 5640,
      "type" : "VEC3"
    },
    {
      "bufferView" : 4,
      "componentType" : 5126,
      "count" : 5640,
      "type" : "VEC4"
    },
    {
      "bufferView" : 5,
      "normalized" : true,
      "componentType" : 5121,
      "count" : 5640,
      "type" : "VEC4"
    },
    {
      "bufferView" : 6,
      "componentType" : 5123,
      "count" : 5640,
      "type" : "VEC4"
    },
    {
      "bufferView" : 7,
      "normalized" : true,
      "componentType" : 5121,
      "count" : 5640,
      "type" : "VEC4"
    },
    {
      "bufferView" : 8,
      "componentType" : 5126,
      "count" : 5640,
      "type" : "VEC2"
    },
    {
      "bufferView" : 9,
      "componentType" : 5126,
      "count" : 5640,
      "type" : "VEC2"
    },
    {
      "bufferView" : 10,
      "componentType" : 5126,
      "count" : 5640,
      "type" : "VEC2"
    },
    {
      "bufferView" : 11,
      "componentType" : 5123,
      "count" : 51252,
      "type" : "SCALAR"
    },
    {
      "bufferView" : 12,
      "min" : [ -1.7942, -0.0235866, -2.25136 ],
      "max" : [ 1.79456, 3.80734, 1.73161 ],
      "componentType" : 5126,
      "count" : 9504,
      "type" : "VEC3"
    },
    {
      "bufferView" : 13,
      "componentType" : 5126,
      "count" : 9504,
      "type" : "VEC3"
    },
    {
      "bufferView" : 14,
      "componentType" : 5126,
      "count" : 9504,
      "type" : "VEC4"
    },
    {
      "bufferView" : 15,
      "normalized" : true,
      "componentType" : 5121,
      "count" : 9504,
      "type" : "VEC4"
    },
    {
      "bufferView" : 16,
      "componentType" : 5123,
      "count" : 9504,
      "type" : "VEC4"
    },
    {
      "bufferView" : 17,
      "normalized" : true,
      "componentType" : 5121,
      "count" : 9504,
      "type" : "VEC4"
    },
    {
      "bufferView" : 18,
      "componentType" : 5126,
      "count" : 9504,
      "type" : "VEC2"
    },
    {
      "bufferView" : 19,
      "componentType" : 5126,
      "count" : 9504,
      "type" : "VEC2"
    },
    {
      "bufferView" : 20,
      "componentType" : 5126,
      "count" : 9504,
      "type" : "VEC2"
    },
    {
      "bufferView" : 21,
      "componentType" : 5123,
      "count" : 105750,
      "type" : "SCALAR"
    },
    {
      "bufferView" : 22,
      "min" : [ -2.13591, 0.0103447, -2.36974 ],
      "max" : [ 2.09717, 4.32997, 1.92386 ],
      "componentType" : 5126,
      "count" : 47000,
      "type" : "VEC3"
    },
    {
      "bufferView" : 23,
      "componentType" : 5126,
      "count" : 47000,
      "type" : "VEC3"
    },
    {
      "bufferView" : 24,
      "componentType" : 5126,
      "count" : 47000,
      "type" : "VEC4"
    },
    {
      "bufferView" : 25,
      "normalized" : true,
      "componentType" : 5121,
      "count" : 47000,
      "type" : "VEC4"
    },
    {
      "bufferView" : 26,
      "componentType" : 5123,
      "count" : 47000,
      "type" : "VEC4"
    },
    {
      "bufferView" : 27,
      "normalized" : true,
      "componentType" : 5121,
      "count" : 47000,
      "type" : "VEC4"
    },
    {
      "bufferView" : 28,
      "componentType" : 5126,
      "count" : 47000,
      "type" : "VEC2"
    },
    {
      "bufferView" : 29,
      "componentType" : 5126,
      "count" : 47000,
      "type" : "VEC2"
    },
    {
      "bufferView" : 30,
      "componentType" : 5126,
      "count" : 47000,
      "type" : "VEC2"
    }
  ]
}
