{
  "asset" : {
    "generator" : "UE Viewer (umodel) build 1612-floxay",
    "version" : "2.0"
  },
  "scene" : 0,
  "scenes" : [
    {
      "nodes" : [ 0 ]
    }
  ],
  "nodes" : [
    {
      "name" : "Ankylo",
      "mesh" : 0,
      "skin" : 0,
      "children" : [ 1 ]
    },
    {
      "name" : "root",
      "children" : [ 2 ],
      "translation" : [ 0, 0, -0 ],
      "rotation" : [ -0.707107, -0, 0, -0.707107 ]
    },
    {
      "name" : "c_back1",
      "children" : [ 3, 46, 51, 64 ],
      "translation" : [ 0, -0.3154, -0.896178 ],
      "rotation" : [ -0.0394019, 0.0394019, -0.706008, -0.706008 ]
    },
    {
      "name" : "c_back2",
      "children" : [ 4 ],
      "translation" : [ 0.262089, -3.01693e-14, 5.03223e-08 ],
      "rotation" : [ -4.1359e-25, -6.93889e-18, 6.87594e-24, -1 ]
    },
    {
      "name" : "c_back3",
      "children" : [ 5 ],
      "translation" : [ 0.262089, -2.94284e-14, 4.92096e-08 ],
      "rotation" : [ -4.1359e-25, -6.93889e-18, 6.87594e-24, -1 ]
    },
    {
      "name" : "c_back4",
      "children" : [ 6, 20, 33 ],
      "translation" : [ 0.262089, 7.05715e-14, 4.92096e-08 ],
      "rotation" : [ -4.1359e-25, -6.93889e-18, 6.87594e-24, -1 ]
    },
    {
      "name" : "c_neck1",
      "children" : [ 7 ],
      "translation" : [ 0.262089, -3.01693e-14, 5.03223e-08 ],
      "rotation" : [ -2.2835e-14, 0.0411745, -7.90106e-15, -0.999152 ]
    },
    {
      "name" : "c_neck2",
      "children" : [ 8 ],
      "translation" : [ 0.224246, -7.51335e-15, 4.87775e-08 ],
      "rotation" : [ -4.1359e-25, -0, -5.16988e-24, -1 ]
    },
    {
      "name" : "c_neck3",
      "children" : [ 9, 14, 15, 16, 17, 18, 19 ],
      "translation" : [ 0.224246, 9.17458e-14, 5.07041e-08 ],
      "rotation" : [ 1.22509e-14, -0.101914, 2.90233e-14, -0.994793 ]
    },
    {
      "name" : "c_jaw",
      "children" : [ 10 ],
      "translation" : [ 0.0668205, -5.93838e-13, 0.0690474 ],
      "rotation" : [ 1.53389e-14, 0.195485, -4.53271e-14, -0.980707 ]
    },
    {
      "name" : "c_tongue1",
      "children" : [ 11 ],
      "translation" : [ 0.206489, 2.89646e-13, 0.0398899 ],
      "rotation" : [ -2.24993e-14, -0.458596, 3.65615e-14, -0.888645 ]
    },
    {
      "name" : "c_tongue2",
      "children" : [ 12 ],
      "translation" : [ 0.0414964, 2.70743e-13, 6.18773e-09 ],
      "rotation" : [ -9.41448e-15, 0.310114, 1.542e-14, -0.950699 ]
    },
    {
      "name" : "c_tongue3",
      "children" : [ 13 ],
      "translation" : [ 0.0515304, -5.29967e-13, -4.44037e-09 ],
      "rotation" : [ -3.08753e-14, 0.198393, 1.26747e-14, -0.980122 ]
    },
    {
      "name" : "c_tongue4",
      "translation" : [ 0.03745, 3.23266e-13, -2.33037e-08 ],
      "rotation" : [ -2.06795e-25, -0, -4.1359e-24, -1 ]
    },
    {
      "name" : "l_eye",
      "translation" : [ 0.184562, -0.109774, -0.0291423 ],
      "rotation" : [ 0.033867, 0.0257688, 0.650552, -0.758268 ]
    },
    {
      "name" : "r_eye",
      "translation" : [ 0.184567, 0.109774, -0.0291423 ],
      "rotation" : [ 0.650552, -0.758268, -0.033867, -0.0257688 ]
    },
    {
      "name" : "r_upperEye",
      "translation" : [ 0.189283, 0.126965, -0.0416826 ],
      "rotation" : [ -0.707097, 0.707097, -0.00364432, 0.00364432 ]
    },
    {
      "name" : "r_lowerEye",
      "translation" : [ 0.184009, 0.12879, -0.0197457 ],
      "rotation" : [ -0.707097, 0.707097, -0.00364432, 0.00364432 ]
    },
    {
      "name" : "l_upperEye",
      "translation" : [ 0.189283, -0.126965, -0.0416826 ],
      "rotation" : [ -0.00364441, 0.00364441, 0.707097, -0.707097 ]
    },
    {
      "name" : "l_lowerEye",
      "translation" : [ 0.184009, -0.12879, -0.0197457 ],
      "rotation" : [ -0.00364441, 0.00364441, 0.707097, -0.707097 ]
    },
    {
      "name" : "l_shoulder",
      "children" : [ 21, 32 ],
      "translation" : [ 0.0662087, -0.32222, 0.152231 ],
      "rotation" : [ 0.554073, 0.0626446, 0.797962, -0.22877 ]
    },
    {
      "name" : "l_elbow",
      "children" : [ 22 ],
      "translation" : [ 0.26741, -2.17184e-08, 4.55377e-08 ],
      "rotation" : [ -2.45076e-07, 0.301912, -6.88592e-08, -0.953336 ]
    },
    {
      "name" : "l_wrist",
      "children" : [ 23, 24, 26, 28, 30 ],
      "translation" : [ 0.2718, -2.24508e-08, -3.82435e-08 ],
      "rotation" : [ 0.265859, -0.0539771, 0.017608, -0.962338 ]
    },
    {
      "name" : "l_frontFoot",
      "translation" : [ 0.111743, -2.03402e-10, 4.69227e-09 ],
      "rotation" : [ 3.25261e-19, -0, -0, -1 ]
    },
    {
      "name" : "l_frontToeC1",
      "children" : [ 25 ],
      "translation" : [ 0.0811386, 0.0103798, 0.0592784 ],
      "rotation" : [ 0.14364, 0.540381, -0.0733334, -0.825819 ]
    },
    {
      "name" : "l_frontToeC2",
      "translation" : [ 0.107611, 1.93527e-08, -5.59894e-08 ],
      "rotation" : [ 8.67362e-18, -2.77556e-17, -1.47451e-17, -1 ]
    },
    {
      "name" : "l_frontToeB1",
      "children" : [ 27 ],
      "translation" : [ 0.0821133, -0.0197237, 0.0559275 ],
      "rotation" : [ -0.119951, 0.556435, 0.121433, -0.81317 ]
    },
    {
      "name" : "l_frontToeB2",
      "translation" : [ 0.107611, -6.49586e-11, 8.6817e-09 ],
      "rotation" : [ 1.73472e-18, 2.77556e-17, 1.38778e-17, -1 ]
    },
    {
      "name" : "l_frontToeD1",
      "children" : [ 29 ],
      "translation" : [ 0.0909248, 0.0549567, 0.0228904 ],
      "rotation" : [ 0.298399, 0.464058, -0.18896, -0.812343 ]
    },
    {
      "name" : "l_frontToeD2",
      "translation" : [ 0.107611, -3.04078e-08, -2.60279e-08 ],
      "rotation" : [ 1.9082e-17, 4.96529e-35, -2.60208e-18, -1 ]
    },
    {
      "name" : "l_frontToeA1",
      "children" : [ 31 ],
      "translation" : [ 0.0794594, -0.0629626, 0.0269507 ],
      "rotation" : [ -0.340624, 0.48986, 0.240073, -0.765753 ]
    },
    {
      "name" : "l_frontToeA2",
      "translation" : [ 0.107611, -1.61698e-08, 1.13467e-08 ],
      "rotation" : [ 5.20417e-18, 1.57986e-35, -3.03577e-18, -1 ]
    },
    {
      "name" : "l_armTwist",
      "translation" : [ 0.135182, -1.19903e-08, 1.78586e-08 ],
      "rotation" : [ 2.42861e-17, -1.68519e-34, 6.93889e-18, -1 ]
    },
    {
      "name" : "r_shoulder",
      "children" : [ 34, 45 ],
      "translation" : [ 0.0662085, 0.32222, 0.152231 ],
      "rotation" : [ -0.797962, 0.228769, 0.554073, 0.0626436 ]
    },
    {
      "name" : "r_elbow",
      "children" : [ 35 ],
      "translation" : [ -0.26741, -1.82368e-07, -5.29287e-07 ],
      "rotation" : [ -4.2937e-08, 0.301912, -1.99011e-07, -0.953336 ]
    },
    {
      "name" : "r_wrist",
      "children" : [ 36, 37, 39, 41, 43 ],
      "translation" : [ -0.2718, 5.97462e-07, 4.35663e-07 ],
      "rotation" : [ 0.265859, -0.0539771, 0.017608, -0.962338 ]
    },
    {
      "name" : "r_frontFoot",
      "translation" : [ -0.11174, 2.09217e-08, -9.052e-07 ],
      "rotation" : [ -1.35525e-17, 2.35099e-35, 1.73472e-18, -1 ]
    },
    {
      "name" : "r_frontToeC1",
      "children" : [ 38 ],
      "translation" : [ -0.0811381, -0.0103805, -0.059279 ],
      "rotation" : [ 0.14364, 0.540381, -0.0733334, -0.825819 ]
    },
    {
      "name" : "r_frontToeC2",
      "translation" : [ -0.107611, 1.44573e-07, 4.35874e-08 ],
      "rotation" : [ -3.46945e-18, 1.20371e-35, 3.46945e-18, -1 ]
    },
    {
      "name" : "r_frontToeB1",
      "children" : [ 40 ],
      "translation" : [ -0.0821128, 0.0197236, -0.0559274 ],
      "rotation" : [ -0.119951, 0.556435, 0.121433, -0.81317 ]
    },
    {
      "name" : "r_frontToeB2",
      "translation" : [ -0.107611, 1.24221e-07, -1.12936e-07 ],
      "rotation" : [ -3.46945e-18, 6.01853e-36, 1.73472e-18, -1 ]
    },
    {
      "name" : "r_frontToeD1",
      "children" : [ 42 ],
      "translation" : [ -0.0909243, -0.0549567, -0.022891 ],
      "rotation" : [ 0.298399, 0.464058, -0.18896, -0.812343 ]
    },
    {
      "name" : "r_frontToeD2",
      "translation" : [ -0.107611, -2.72276e-07, -5.68323e-08 ],
      "rotation" : [ -1.56125e-17, -2.77556e-17, 1.12757e-17, -1 ]
    },
    {
      "name" : "r_frontToeA1",
      "children" : [ 44 ],
      "translation" : [ -0.0794589, 0.0629624, -0.0269507 ],
      "rotation" : [ -0.340624, 0.48986, 0.240073, -0.765753 ]
    },
    {
      "name" : "r_frontToeA2",
      "translation" : [ -0.107611, -8.20451e-07, -1.18804e-07 ],
      "rotation" : [ -1.82146e-17, -2.77556e-17, 2.90566e-17, -1 ]
    },
    {
      "name" : "r_armTwist",
      "translation" : [ -0.135182, -3.62268e-07, -3.22332e-08 ],
      "rotation" : [ -1.11193e-06, 7.71557e-24, 6.93889e-18, -1 ]
    },
    {
      "name" : "c_tail1",
      "children" : [ 47 ],
      "translation" : [ -0.217745, 1.16194e-14, 0.0541715 ],
      "rotation" : [ 0.128625, 2.24222e-14, 0.991693, 1.53051e-14 ]
    },
    {
      "name" : "c_tail2",
      "children" : [ 48 ],
      "translation" : [ 0.378129, -2.93717e-14, -1.53216e-07 ],
      "rotation" : [ 3.21498e-14, -0.0579623, 4.92617e-15, -0.998319 ]
    },
    {
      "name" : "c_tail3",
      "children" : [ 49 ],
      "translation" : [ 0.340349, 4.86297e-14, 2.37041e-09 ],
      "rotation" : [ -7.29809e-15, -0.0771105, 5.78135e-15, -0.997022 ]
    },
    {
      "name" : "c_tail4",
      "children" : [ 50 ],
      "translation" : [ 0.284407, 2.66819e-14, -4.87769e-08 ],
      "rotation" : [ 1.74841e-14, -0.0579592, 7.50505e-16, -0.998319 ]
    },
    {
      "name" : "c_tail5",
      "translation" : [ 0.258478, -4.85947e-14, -3.85772e-08 ],
      "rotation" : [ 5.05212e-15, -0.0579594, -2.92539e-14, -0.998319 ]
    },
    {
      "name" : "l_hip",
      "children" : [ 52, 63 ],
      "translation" : [ -0.0101537, -0.350425, 0.104496 ],
      "rotation" : [ 0.101217, 0.561784, 0.299366, -0.764548 ]
    },
    {
      "name" : "l_knee",
      "children" : [ 53 ],
      "translation" : [ 0.35538, -1.11841e-07, -5.7449e-08 ],
      "rotation" : [ -8.93316e-08, 0.290271, 1.51723e-07, -0.956944 ]
    },
    {
      "name" : "l_ankle",
      "children" : [ 54, 55, 57, 59, 61 ],
      "translation" : [ 0.352054, -4.57945e-08, 8.65133e-08 ],
      "rotation" : [ -0.208493, -0.363641, -0.131196, -0.898378 ]
    },
    {
      "name" : "l_rearFoot",
      "translation" : [ 0.110987, -9.35879e-09, 4.05171e-08 ],
      "rotation" : [ 0.38807, -0.38807, 0.591102, -0.591102 ]
    },
    {
      "name" : "l_rearToeC1",
      "children" : [ 56 ],
      "translation" : [ 0.0898667, -0.0229577, -0.0400829 ],
      "rotation" : [ 0.143008, -0.338227, 0.11127, -0.923455 ]
    },
    {
      "name" : "l_rearToeC2",
      "translation" : [ 0.109541, 5.48885e-08, -3.72798e-08 ],
      "rotation" : [ -6.93889e-18, -0, 0, -1 ]
    },
    {
      "name" : "l_rearToeB1",
      "children" : [ 58 ],
      "translation" : [ 0.0922376, 0.0256354, -0.0376742 ],
      "rotation" : [ -0.0632238, -0.370061, -0.0258476, -0.926493 ]
    },
    {
      "name" : "l_rearToeB2",
      "translation" : [ 0.109541, -4.02356e-09, -1.2027e-08 ],
      "rotation" : [ -3.46945e-18, 1.20371e-35, 3.46945e-18, -1 ]
    },
    {
      "name" : "l_rearToeA1",
      "children" : [ 60 ],
      "translation" : [ 0.0903982, 0.0674768, -0.0128019 ],
      "rotation" : [ -0.295342, -0.368461, -0.240416, -0.848062 ]
    },
    {
      "name" : "l_rearToeA2",
      "translation" : [ 0.109541, -6.65082e-09, -1.42542e-08 ],
      "rotation" : [ -2.08167e-17, -1.80556e-34, -8.67362e-18, -1 ]
    },
    {
      "name" : "l_rearToeD1",
      "children" : [ 62 ],
      "translation" : [ 0.0774922, -0.0685024, -0.00340911 ],
      "rotation" : [ 0.287977, -0.345095, 0.286968, -0.845948 ]
    },
    {
      "name" : "l_rearToeD2",
      "translation" : [ 0.109541, 1.42645e-08, 2.23846e-09 ],
      "rotation" : [ -8.67362e-19, -1.78675e-36, -2.05998e-18, -1 ]
    },
    {
      "name" : "l_legTwist",
      "translation" : [ 0.175694, -5.32605e-08, -2.56904e-08 ],
      "rotation" : [ 2.77556e-17, -0, -0, -1 ]
    },
    {
      "name" : "r_hip",
      "children" : [ 65, 76 ],
      "translation" : [ -0.0101542, 0.350425, 0.104496 ],
      "rotation" : [ 0.299366, -0.764548, -0.101217, -0.561784 ]
    },
    {
      "name" : "r_knee",
      "children" : [ 66 ],
      "translation" : [ -0.35538, -3.32524e-07, 2.81538e-07 ],
      "rotation" : [ -3.18014e-07, 0.290271, 1.18343e-07, -0.956944 ]
    },
    {
      "name" : "r_ankle",
      "children" : [ 67, 68, 70, 72, 74 ],
      "translation" : [ -0.352055, -1.78095e-07, 6.55554e-07 ],
      "rotation" : [ -0.208493, -0.363641, -0.131196, -0.898378 ]
    },
    {
      "name" : "r_rearFoot",
      "translation" : [ -0.11099, -3.48707e-07, -5.72148e-07 ],
      "rotation" : [ 0.38807, -0.38807, 0.591102, -0.591102 ]
    },
    {
      "name" : "r_rearToeC1",
      "children" : [ 69 ],
      "translation" : [ -0.0898664, 0.0229577, 0.0400831 ],
      "rotation" : [ 0.143008, -0.338228, 0.11127, -0.923455 ]
    },
    {
      "name" : "r_rearToeC2",
      "translation" : [ -0.10954, 6.81036e-08, -3.45557e-07 ],
      "rotation" : [ -0, -0, 0, -1 ]
    },
    {
      "name" : "r_rearToeB1",
      "children" : [ 71 ],
      "translation" : [ -0.092237, -0.0256358, 0.0376737 ],
      "rotation" : [ -0.0632236, -0.370061, -0.0258476, -0.926493 ]
    },
    {
      "name" : "r_rearToeB2",
      "translation" : [ -0.109541, 6.08459e-07, 7.90202e-09 ],
      "rotation" : [ 3.46945e-18, 2.77556e-17, -1.73472e-18, -1 ]
    },
    {
      "name" : "r_rearToeA1",
      "children" : [ 73 ],
      "translation" : [ -0.0903979, -0.0674771, 0.0128021 ],
      "rotation" : [ -0.295342, -0.368462, -0.240416, -0.848062 ]
    },
    {
      "name" : "r_rearToeA2",
      "translation" : [ -0.10954, -7.05764e-07, -1.85778e-07 ],
      "rotation" : [ -4.16334e-17, -1.51667e-33, -3.64292e-17, -1 ]
    },
    {
      "name" : "r_rearToeD1",
      "children" : [ 75 ],
      "translation" : [ -0.0774919, 0.0685019, 0.00340915 ],
      "rotation" : [ 0.287977, -0.345096, 0.286967, -0.845948 ]
    },
    {
      "name" : "r_rearToeD2",
      "translation" : [ -0.109541, 6.73477e-07, 1.64023e-07 ],
      "rotation" : [ -8.0231e-18, -2.77556e-17, -4.33681e-18, -1 ]
    },
    {
      "name" : "r_legTwist",
      "translation" : [ -0.175694, 4.95558e-08, -3.74674e-08 ],
      "rotation" : [ -2.08167e-17, -1.38778e-17, -1.38778e-17, -1 ]
    }
  ],
  "skins" : [
    {
      "inverseBindMatrices" : 0,
      "skeleton" : 1,
      "joints" : [
        1,2,3,4,5,6,7,8,9,10,11,12,13,14,15,16,17,18,19,20,21,22,23,24,25,26,27,28,29,30,31,32,
        33,34,35,36,37,38,39,40,41,42,43,44,45,46,47,48,49,50,51,52,53,54,55,56,57,58,59,60,61,62,63,64,
        65,66,67,68,69,70,71,72,73,74,75,76
      ]
    }
  ],
  "materials" : [
    {
      "name" : "dummy_material_0",
      "pbrMetallicRoughness" : {
        "baseColorFactor" : [ 0.3, 0.3, 0.3, 1.0 ],
        "metallicFactor" : 0.1,
        "roughnessFactor" : 0.5
      }
    },
    {
      "name" : "dummy_material_1",
      "pbrMetallicRoughness" : {
        "baseColorFactor" : [ 0.9, 0.3, 0.3, 1.0 ],
        "metallicFactor" : 0.1,
        "roughnessFactor" : 0.5
      }
    }
  ],
  "meshes" : [
    {
      "primitives" : [
        {
          "attributes" : {
            "POSITION" : 2,
            "NORMAL" : 3,
            "TANGENT" : 4,
            "COLOR_0" : 5,
            "JOINTS_0" : 6,
            "WEIGHTS_0" : 7,
            "TEXCOORD_0" : 8,
            "TEXCOORD_1" : 9
          },
          "indices" : 1,
          "material" : 0
        },
        {
          "attributes" : {
            "POSITION" : 11,
            "NORMAL" : 12,
            "TANGENT" : 13,
            "COLOR_0" : 14,
            "JOINTS_0" : 15,
            "WEIGHTS_0" : 16,
            "TEXCOORD_0" : 17,
            "TEXCOORD_1" : 18
          },
          "indices" : 10,
          "material" : 1
        }
      ],
      "name" : "Ankylo"
    }
  ],
  "buffers" : [
    {
      "uri" : "Ankylo.bin",
      "byteLength" : 1576980
    }
  ],
  "bufferViews" : [
    {
      "buffer" : 0,
      "byteOffset" : 0,
      "byteLength" : 4864
    },
    {
      "buffer" : 0,
      "byteOffset" : 4864,
      "byteLength" : 96296
    },
    {
      "buffer" : 0,
      "byteOffset" : 101160,
      "byteLength" : 122352
    },
    {
      "buffer" : 0,
      "byteOffset" : 223512,
      "byteLength" : 122352
    },
    {
      "buffer" : 0,
      "byteOffset" : 345864,
      "byteLength" : 163136
    },
    {
      "buffer" : 0,
      "byteOffset" : 509000,
      "byteLength" : 40784
    },
    {
      "buffer" : 0,
      "byteOffset" : 549784,
      "byteLength" : 81568
    },
    {
      "buffer" : 0,
      "byteOffset" : 631352,
      "byteLength" : 40784
    },
    {
      "buffer" : 0,
      "byteOffset" : 672136,
      "byteLength" : 81568
    },
    {
      "buffer" : 0,
      "byteOffset" : 753704,
      "byteLength" : 81568
    },
    {
      "buffer" : 0,
      "byteOffset" : 835272,
      "byteLength" : 83700
    },
    {
      "buffer" : 0,
      "byteOffset" : 918972,
      "byteLength" : 109668
    },
    {
      "buffer" : 0,
      "byteOffset" : 1028640,
      "byteLength" : 109668
    },
    {
      "buffer" : 0,
      "byteOffset" : 1138308,
      "byteLength" : 146224
    },
    {
      "buffer" : 0,
      "byteOffset" : 1284532,
      "byteLength" : 36556
    },
    {
      "buffer" : 0,
      "byteOffset" : 1321088,
      "byteLength" : 73112
    },
    {
      "buffer" : 0,
      "byteOffset" : 1394200,
      "byteLength" : 36556
    },
    {
      "buffer" : 0,
      "byteOffset" : 1430756,
      "byteLength" : 73112
    },
    {
      "buffer" : 0,
      "byteOffset" : 1503868,
      "byteLength" : 73112
    }
  ],
  "accessors" : [
    {
      "bufferView" : 0,
      "componentType" : 5126,
      "count" : 76,
      "type" : "MAT4"
    },
    {
      "bufferView" : 1,
      "componentType" : 5123,
      "count" : 48147,
      "type" : "SCALAR"
    },
    {
      "bufferView" : 2,
      "min" : [ -0.643572, -0.00274854, -1.69953 ],
      "max" : [ 0.643572, 1.57823, 1.6422 ],
      "componentType" : 5126,
      "count" : 10196,
      "type" : "VEC3"
    },
    {
      "bufferView" : 3,
      "componentType" : 5126,
      "count" : 10196,
      "type" : "VEC3"
    },
    {
      "bufferView" : 4,
      "componentType" : 5126,
      "count" : 10196,
      "type" : "VEC4"
    },
    {
      "bufferView" : 5,
      "normalized" : true,
      "componentType" : 5121,
      "count" : 10196,
      "type" : "VEC4"
    },
    {
      "bufferView" : 6,
      "componentType" : 5123,
      "count" : 10196,
      "type" : "VEC4"
    },
    {
      "bufferView" : 7,
      "normalized" : true,
      "componentType" : 5121,
      "count" : 10196,
      "type" : "VEC4"
    },
    {
      "bufferView" : 8,
      "componentType" : 5126,
      "count" : 10196,
      "type" : "VEC2"
    },
    {
      "bufferView" : 9,
      "componentType" : 5126,
      "count" : 10196,
      "type" : "VEC2"
    },
    {
      "bufferView" : 10,
      "componentType" : 5123,
      "count" : 41850,
      "type" : "SCALAR"
    },
    {
      "bufferView" : 11,
      "min" : [ -0.754252, 0.349116, -2.09803 ],
      "max" : [ 0.754252, 1.43806, 1.39612 ],
      "componentType" : 5126,
      "count" : 9139,
      "type" : "VEC3"
    },
    {
      "bufferView" : 12,
      "componentType" : 5126,
      "count" : 9139,
      "type" : "VEC3"
    },
    {
      "bufferView" : 13,
      "componentType" : 5126,
      "count" : 9139,
      "type" : "VEC4"
    },
    {
      "bufferView" : 14,
      "normalized" : true,
      "componentType" : 5121,
      "count" : 9139,
      "type" : "VEC4"
    },
    {
      "bufferView" : 15,
      "componentType" : 5123,
      "count" : 9139,
      "type" : "VEC4"
    },
    {
      "bufferView" : 16,
      "normalized" : true,
      "componentType" : 5121,
      "count" : 9139,
      "type" : "VEC4"
    },
    {
      "bufferView" : 17,
      "componentType" : 5126,
      "count" : 9139,
      "type" : "VEC2"
    },
    {
      "bufferView" : 18,
      "componentType" : 5126,
      "count" : 9139,
      "type" : "VEC2"
    }
  ]
}
