{
  "asset" : {
    "generator" : "UE Viewer (umodel) build 1612-floxay",
    "version" : "2.0"
  },
  "scene" : 0,
  "scenes" : [
    {
      "nodes" : [ 0 ]
    }
  ],
  "nodes" : [
    {
      "name" : "Titanosaur",
      "mesh" : 0,
      "skin" : 0,
      "children" : [ 1 ]
    },
    {
      "name" : "root",
      "children" : [ 2 ],
      "translation" : [ 0, 0, -0 ],
      "rotation" : [ -0.707107, -0, 0, -0.707107 ]
    },
    {
      "name" : "c_back1",
      "children" : [ 3, 43, 55, 61 ],
      "translation" : [ -7.29763e-06, -10.7394, -17.9768 ],
      "rotation" : [ 0.0791597, -0.0771824, -0.699704, -0.705827 ]
    },
    {
      "name" : "c_back2",
      "children" : [ 4 ],
      "translation" : [ 4.71318, -5.72043e-05, 0.0722882 ],
      "rotation" : [ -0.000172511, 0.0382201, -0.00171383, -0.999268 ]
    },
    {
      "name" : "c_back3",
      "children" : [ 5, 42 ],
      "translation" : [ 4.71368, -0.000455683, 0.0643707 ],
      "rotation" : [ -0.00017065, 0.0301998, -0.00242682, -0.999541 ]
    },
    {
      "name" : "c_back4",
      "children" : [ 6 ],
      "translation" : [ 4.71504, -0.00128428, 0.0332425 ],
      "rotation" : [ -0.000215049, 0.0227306, -0.00383957, -0.999734 ]
    },
    {
      "name" : "c_back5",
      "children" : [ 7, 26, 34 ],
      "translation" : [ 4.71403, -0.00368499, 0.0578432 ],
      "rotation" : [ -0.000198759, 0.0275018, -0.00159787, -0.99962 ]
    },
    {
      "name" : "c_neck1",
      "children" : [ 8 ],
      "translation" : [ 3.75804, 7.99095e-05, -0.00105193 ],
      "rotation" : [ 0.000916874, -0.179868, 0.00242438, -0.983687 ]
    },
    {
      "name" : "c_neck2",
      "children" : [ 9 ],
      "translation" : [ 5.45657, 2.16716e-15, -0 ],
      "rotation" : [ -0.000281386, -0.0322724, 0.00169116, -0.999478 ]
    },
    {
      "name" : "c_neck3",
      "children" : [ 10 ],
      "translation" : [ 5.27507, 1.66978e-15, 4.54747e-15 ],
      "rotation" : [ -0.000514923, -0.0391024, 0.000240096, -0.999235 ]
    },
    {
      "name" : "c_neck4",
      "children" : [ 11 ],
      "translation" : [ 5.27507, 1.89182e-15, 1.59162e-14 ],
      "rotation" : [ -0.000549056, 0.022485, 0.000399458, -0.999747 ]
    },
    {
      "name" : "c_neck5",
      "children" : [ 12 ],
      "translation" : [ 4.72791, 2.39808e-15, 9.09495e-15 ],
      "rotation" : [ -0.00057293, 0.0377426, 0.000461937, -0.999287 ]
    },
    {
      "name" : "c_neck6",
      "children" : [ 13 ],
      "translation" : [ 4.72791, 2.45137e-15, 1.13687e-14 ],
      "rotation" : [ -0.000582408, 0.0437095, 0.000603118, -0.999044 ]
    },
    {
      "name" : "c_neck7",
      "children" : [ 14 ],
      "translation" : [ 4.72791, 2.77112e-15, 2.27374e-15 ],
      "rotation" : [ -0.00054215, 0.0458506, 0.000643742, -0.998948 ]
    },
    {
      "name" : "c_head",
      "children" : [ 15, 20, 21, 22, 23, 24, 25 ],
      "translation" : [ 3.99035, 1.91847e-15, 4.54747e-15 ],
      "rotation" : [ -0.000518035, 0.368247, -0.00174336, -0.929726 ]
    },
    {
      "name" : "c_jaw",
      "children" : [ 16 ],
      "translation" : [ 0.411707, -1.22972e-14, 0.778024 ],
      "rotation" : [ -3.8856e-31, 0.171886, -6.77971e-32, -0.985117 ]
    },
    {
      "name" : "c_tongue1",
      "children" : [ 17 ],
      "translation" : [ 0.606031, -1.29723e-15, -0.225437 ],
      "rotation" : [ -1.76021e-08, -0.112008, -2.71922e-08, -0.993707 ]
    },
    {
      "name" : "c_tongue2",
      "children" : [ 18 ],
      "translation" : [ 0.735469, -1.09121e-15, -9.09495e-15 ],
      "rotation" : [ -5.74293e-24, 0.127607, -7.38878e-25, -0.991825 ]
    },
    {
      "name" : "c_tongue3",
      "children" : [ 19 ],
      "translation" : [ 0.652626, 3.20577e-16, 2.72848e-14 ],
      "rotation" : [ -2.14362e-24, -0.121247, -3.9048e-24, -0.992622 ]
    },
    {
      "name" : "c_tongue4",
      "translation" : [ 0.529581, 1.90736e-15, -3.63798e-14 ],
      "rotation" : [ -2.09057e-24, -0.0772813, 5.14002e-24, -0.997009 ]
    },
    {
      "name" : "l_eye",
      "translation" : [ 0.956891, -0.928247, -0.845178 ],
      "rotation" : [ 0.137151, -0.158733, 0.539813, -0.815227 ]
    },
    {
      "name" : "r_eye",
      "translation" : [ 0.956891, 0.933073, -0.845178 ],
      "rotation" : [ 0.539813, -0.815227, -0.137151, 0.158733 ]
    },
    {
      "name" : "r_upperEye",
      "translation" : [ 0.983978, 1.10902, -1.01697 ],
      "rotation" : [ -0.700961, 0.700545, 0.0945982, -0.0945617 ]
    },
    {
      "name" : "r_lowerEye",
      "translation" : [ 1.03304, 1.13213, -0.734547 ],
      "rotation" : [ -0.700961, 0.700545, 0.0945982, -0.0945617 ]
    },
    {
      "name" : "l_upperEye",
      "translation" : [ 0.983978, -1.10843, -1.01697 ],
      "rotation" : [ 0.0945617, -0.0945982, 0.700545, -0.700961 ]
    },
    {
      "name" : "l_lowerEye",
      "translation" : [ 1.03304, -1.13154, -0.734547 ],
      "rotation" : [ 0.0945617, -0.0945982, 0.700545, -0.700961 ]
    },
    {
      "name" : "l_scapula",
      "children" : [ 27 ],
      "translation" : [ 0.288791, -3.63, -0.825 ],
      "rotation" : [ -0.0744092, 0.554684, 0.0678942, -0.825941 ]
    },
    {
      "name" : "l_shoulder",
      "children" : [ 28, 33 ],
      "translation" : [ 6.3595, 0.0495361, 0.315957 ],
      "rotation" : [ -0.951645, -0.0480546, -0.268943, 0.140468 ]
    },
    {
      "name" : "l_elbow",
      "children" : [ 29 ],
      "translation" : [ 6.336, 1.13687e-15, -7.95808e-15 ],
      "rotation" : [ -0.968127, 1.53361e-17, -0.250458, -5.92807e-17 ]
    },
    {
      "name" : "l_wrist",
      "children" : [ 30 ],
      "translation" : [ 5.96602, 2.27374e-15, -6.82121e-15 ],
      "rotation" : [ 0.143868, 0.175765, -0.0424011, -0.972939 ]
    },
    {
      "name" : "l_foot1",
      "children" : [ 31 ],
      "translation" : [ 1.49676, -2.36952e-08, -0.185285 ],
      "rotation" : [ -0.00104648, -0.0281408, -0.00301457, -0.999599 ]
    },
    {
      "name" : "l_foot2",
      "children" : [ 32 ],
      "translation" : [ 1.50726, -1.13687e-15, -2.27374e-15 ],
      "rotation" : [ -5.18065e-32, 1.57772e-30, -0, -1 ]
    },
    {
      "name" : "l_frontToes",
      "translation" : [ -8.17124e-16, 0, -1.24472 ],
      "rotation" : [ -5.18065e-32, 1.57772e-30, -0, -1 ]
    },
    {
      "name" : "l_shoulderTwist",
      "translation" : [ 3.21572, 4.54747e-15, -7.95808e-15 ],
      "rotation" : [ 0.0850222, -0, -0, -0.996379 ]
    },
    {
      "name" : "r_scapula",
      "children" : [ 35 ],
      "translation" : [ 0.288783, 3.63, -0.825 ],
      "rotation" : [ 0.0678942, -0.825941, 0.0744092, -0.554684 ]
    },
    {
      "name" : "r_shoulder",
      "children" : [ 36, 41 ],
      "translation" : [ -6.35948, -0.0495286, -0.315958 ],
      "rotation" : [ -0.952292, -0.048177, -0.26066, 0.151245 ]
    },
    {
      "name" : "r_elbow",
      "children" : [ 37 ],
      "translation" : [ -6.336, 4.78401e-06, 4.64367e-06 ],
      "rotation" : [ -0.969264, 5.93064e-07, -0.246022, 1.11066e-07 ]
    },
    {
      "name" : "r_wrist",
      "children" : [ 38 ],
      "translation" : [ -5.96601, 1.29992e-06, 2.38104e-05 ],
      "rotation" : [ 0.144474, 0.173564, -0.0435959, -0.973192 ]
    },
    {
      "name" : "r_foot1",
      "children" : [ 39 ],
      "translation" : [ -1.49834, 0.00021802, 0.185673 ],
      "rotation" : [ -0.00110899, -0.0284413, -0.00319079, -0.99959 ]
    },
    {
      "name" : "r_foot2",
      "children" : [ 40 ],
      "translation" : [ -1.50726, 0, -4.54747e-15 ],
      "rotation" : [ 1.70465e-20, 8.67362e-19, 1.47855e-38, -1 ]
    },
    {
      "name" : "r_frontToes",
      "translation" : [ 6.75016e-16, -1.13687e-15, 1.24473 ],
      "rotation" : [ 1.70465e-20, 8.67362e-19, 1.47855e-38, -1 ]
    },
    {
      "name" : "r_shoulderTwist",
      "translation" : [ -3.21573, 9.61658e-06, 8.91297e-06 ],
      "rotation" : [ 0.0925021, -0, -0, -0.995712 ]
    },
    {
      "name" : "c_platform",
      "translation" : [ -0.978338, -0.00356903, -7.03168 ],
      "rotation" : [ -0.00403746, 0.0459734, 0.0095479, -0.998889 ]
    },
    {
      "name" : "c_tail1",
      "children" : [ 44 ],
      "translation" : [ -5.18393, 1.16351e-15, 0.583837 ],
      "rotation" : [ 0.0345167, -0.000257433, 0.999404, -1.26279e-05 ]
    },
    {
      "name" : "c_tail2",
      "children" : [ 45 ],
      "translation" : [ 6.27, 1.78524e-15, 0.0278579 ],
      "rotation" : [ -1.09265e-20, -0.0287939, -3.79313e-19, -0.999585 ]
    },
    {
      "name" : "c_tail3",
      "children" : [ 46 ],
      "translation" : [ 6.27, 7.30083e-15, -9.09495e-15 ],
      "rotation" : [ 2.06924e-19, -0.0165799, -5.99824e-19, -0.999862 ]
    },
    {
      "name" : "c_tail4",
      "children" : [ 47 ],
      "translation" : [ 6.27, -2.50022e-15, -2.27374e-15 ],
      "rotation" : [ -2.22001e-19, -0.0106027, -4.85564e-19, -0.999944 ]
    },
    {
      "name" : "c_tail5",
      "children" : [ 48 ],
      "translation" : [ 5.94, -9.00169e-15, -1.36424e-14 ],
      "rotation" : [ -2.15413e-19, -0.00872653, 1.64516e-19, -0.999962 ]
    },
    {
      "name" : "c_tail6",
      "children" : [ 49 ],
      "translation" : [ 5.28, -3.41505e-15, 4.54747e-15 ],
      "rotation" : [ -7.09606e-22, -0.00436331, -1.62629e-19, -0.99999 ]
    },
    {
      "name" : "c_tail7",
      "children" : [ 50 ],
      "translation" : [ 4.95, 1.01741e-14, -4.54747e-15 ],
      "rotation" : [ -2.1684e-19, -1.38778e-17, -1.6263e-19, -1 ]
    },
    {
      "name" : "c_tail8",
      "children" : [ 51 ],
      "translation" : [ 4.62, 1.30029e-14, 2.27374e-14 ],
      "rotation" : [ -2.1684e-19, -1.38778e-17, -1.6263e-19, -1 ]
    },
    {
      "name" : "c_tail9",
      "children" : [ 52 ],
      "translation" : [ 4.29, -2.02949e-15, -2.27374e-14 ],
      "rotation" : [ -2.1684e-19, -1.38778e-17, -1.6263e-19, -1 ]
    },
    {
      "name" : "c_tail10",
      "children" : [ 53 ],
      "translation" : [ 4.29, 6.77236e-15, 4.54747e-15 ],
      "rotation" : [ -2.1684e-19, -1.38778e-17, -1.6263e-19, -1 ]
    },
    {
      "name" : "c_tail11",
      "children" : [ 54 ],
      "translation" : [ 4.29, -3.06866e-15, 1.36424e-14 ],
      "rotation" : [ -2.1684e-19, -1.38778e-17, -1.6263e-19, -1 ]
    },
    {
      "name" : "c_tail12",
      "translation" : [ 4.29, -5.72746e-13, 6.04814e-13 ],
      "rotation" : [ -0.0720194, -6.10343e-17, 0.997403, -4.95061e-18 ]
    },
    {
      "name" : "l_hip",
      "children" : [ 56, 60 ],
      "translation" : [ 0.00923763, -3.98381, 1.27869 ],
      "rotation" : [ 0.0101005, 0.695813, 0.179579, -0.695337 ]
    },
    {
      "name" : "l_knee",
      "children" : [ 57 ],
      "translation" : [ 7.99306, 0, -2.27374e-15 ],
      "rotation" : [ -1.00671e-17, 0.24429, -1.68475e-17, -0.969702 ]
    },
    {
      "name" : "l_ankle",
      "children" : [ 58 ],
      "translation" : [ 6.996, -2.84217e-14, -4.49724e-09 ],
      "rotation" : [ -0.172503, -0.134999, -0.0629235, -0.973683 ]
    },
    {
      "name" : "l_foot",
      "children" : [ 59 ],
      "translation" : [ 1.77858, -7.08801e-05, -0.000530224 ],
      "rotation" : [ -1.2666e-06, -0.000149058, 1.9927e-05, -1 ]
    },
    {
      "name" : "l_backToes",
      "translation" : [ 7.10543e-16, -1.13687e-15, -1.392 ],
      "rotation" : [ 4.90915e-20, -2.1684e-19, 1.69407e-21, -1 ]
    },
    {
      "name" : "l_legTwist",
      "translation" : [ 3.71482, 1.13687e-15, -4.54747e-15 ],
      "rotation" : [ -0.109139, -3.02922e-18, -2.75898e-17, -0.994026 ]
    },
    {
      "name" : "r_hip",
      "children" : [ 62, 66 ],
      "translation" : [ 0.00923368, 3.98379, 1.27869 ],
      "rotation" : [ 0.184387, -0.689258, -0.0182595, -0.700423 ]
    },
    {
      "name" : "r_knee",
      "children" : [ 63 ],
      "translation" : [ -7.99306, 7.41456e-06, -6.9216e-06 ],
      "rotation" : [ -2.01874e-08, 0.235832, 1.36958e-07, -0.971794 ]
    },
    {
      "name" : "r_ankle",
      "children" : [ 64 ],
      "translation" : [ -6.996, -1.1842e-06, -1.14891e-05 ],
      "rotation" : [ -0.172139, -0.132857, -0.063773, -0.973987 ]
    },
    {
      "name" : "r_foot",
      "children" : [ 65 ],
      "translation" : [ -1.77857, 4.54747e-15, -0 ],
      "rotation" : [ 0.0537424, 0.00103573, 0.00762707, -0.998525 ]
    },
    {
      "name" : "r_backToes",
      "translation" : [ 5.095e-08, 3.02557e-06, 1.39201 ],
      "rotation" : [ -5.0229e-18, 8.13152e-20, -4.08438e-37, -1 ]
    },
    {
      "name" : "r_legTwist",
      "translation" : [ -3.71484, 2.05981e-05, 2.68449e-06 ],
      "rotation" : [ -0.116022, -1.21739e-17, 1.53942e-17, -0.993247 ]
    }
  ],
  "skins" : [
    {
      "inverseBindMatrices" : 0,
      "skeleton" : 1,
      "joints" : [
        1,2,3,4,5,6,7,8,9,10,11,12,13,14,15,16,17,18,19,20,21,22,23,24,25,26,27,28,29,30,31,32,
        33,34,35,36,37,38,39,40,41,42,43,44,45,46,47,48,49,50,51,52,53,54,55,56,57,58,59,60,61,62,63,64,
        65,66
      ]
    }
  ],
  "materials" : [
    {
      "name" : "dummy_material_0",
      "pbrMetallicRoughness" : {
        "baseColorFactor" : [ 0.3, 0.3, 0.3, 1.0 ],
        "metallicFactor" : 0.1,
        "roughnessFactor" : 0.5
      }
    },
    {
      "name" : "dummy_material_1",
      "pbrMetallicRoughness" : {
        "baseColorFactor" : [ 0.9, 0.3, 0.3, 1.0 ],
        "metallicFactor" : 0.1,
        "roughnessFactor" : 0.5
      }
    }
  ],
  "meshes" : [
    {
      "primitives" : [
        {
          "attributes" : {
            "POSITION" : 2,
            "NORMAL" : 3,
            "TANGENT" : 4,
            "COLOR_0" : 5,
            "JOINTS_0" : 6,
            "WEIGHTS_0" : 7,
            "TEXCOORD_0" : 8,
            "TEXCOORD_1" : 9
          },
          "indices" : 1,
          "material" : 0
        },
        {
          "attributes" : {
            "POSITION" : 11,
            "NORMAL" : 12,
            "TANGENT" : 13,
            "COLOR_0" : 14,
            "JOINTS_0" : 15,
            "WEIGHTS_0" : 16,
            "TEXCOORD_0" : 17,
            "TEXCOORD_1" : 18
          },
          "indices" : 10,
          "material" : 1
        }
      ],
      "name" : "Titanosaur"
    }
  ],
  "buffers" : [
    {
      "uri" : "Titanosaur.bin",
      "byteLength" : 2183292
    }
  ],
  "bufferViews" : [
    {
      "buffer" : 0,
      "byteOffset" : 0,
      "byteLength" : 4224
    },
    {
      "buffer" : 0,
      "byteOffset" : 4224,
      "byteLength" : 117972
    },
    {
      "buffer" : 0,
      "byteOffset" : 122196,
      "byteLength" : 139524
    },
    {
      "buffer" : 0,
      "byteOffset" : 261720,
      "byteLength" : 139524
    },
    {
      "buffer" : 0,
      "byteOffset" : 401244,
      "byteLength" : 186032
    },
    {
      "buffer" : 0,
      "byteOffset" : 587276,
      "byteLength" : 46508
    },
    {
      "buffer" : 0,
      "byteOffset" : 633784,
      "byteLength" : 93016
    },
    {
      "buffer" : 0,
      "byteOffset" : 726800,
      "byteLength" : 46508
    },
    {
      "buffer" : 0,
      "byteOffset" : 773308,
      "byteLength" : 93016
    },
    {
      "buffer" : 0,
      "byteOffset" : 866324,
      "byteLength" : 93016
    },
    {
      "buffer" : 0,
      "byteOffset" : 959340,
      "byteLength" : 114000
    },
    {
      "buffer" : 0,
      "byteOffset" : 1073340,
      "byteLength" : 184992
    },
    {
      "buffer" : 0,
      "byteOffset" : 1258332,
      "byteLength" : 184992
    },
    {
      "buffer" : 0,
      "byteOffset" : 1443324,
      "byteLength" : 246656
    },
    {
      "buffer" : 0,
      "byteOffset" : 1689980,
      "byteLength" : 61664
    },
    {
      "buffer" : 0,
      "byteOffset" : 1751644,
      "byteLength" : 123328
    },
    {
      "buffer" : 0,
      "byteOffset" : 1874972,
      "byteLength" : 61664
    },
    {
      "buffer" : 0,
      "byteOffset" : 1936636,
      "byteLength" : 123328
    },
    {
      "buffer" : 0,
      "byteOffset" : 2059964,
      "byteLength" : 123328
    }
  ],
  "accessors" : [
    {
      "bufferView" : 0,
      "componentType" : 5126,
      "count" : 66,
      "type" : "MAT4"
    },
    {
      "bufferView" : 1,
      "componentType" : 5123,
      "count" : 58986,
      "type" : "SCALAR"
    },
    {
      "bufferView" : 2,
      "min" : [ -8.5744, 0.0460897, -69.9643 ],
      "max" : [ 8.57026, 33.3589, 46.7153 ],
      "componentType" : 5126,
      "count" : 11627,
      "type" : "VEC3"
    },
    {
      "bufferView" : 3,
      "componentType" : 5126,
      "count" : 11627,
      "type" : "VEC3"
    },
    {
      "bufferView" : 4,
      "componentType" : 5126,
      "count" : 11627,
      "type" : "VEC4"
    },
    {
      "bufferView" : 5,
      "normalized" : true,
      "componentType" : 5121,
      "count" : 11627,
      "type" : "VEC4"
    },
    {
      "bufferView" : 6,
      "componentType" : 5123,
      "count" : 11627,
      "type" : "VEC4"
    },
    {
      "bufferView" : 7,
      "normalized" : true,
      "componentType" : 5121,
      "count" : 11627,
      "type" : "VEC4"
    },
    {
      "bufferView" : 8,
      "componentType" : 5126,
      "count" : 11627,
      "type" : "VEC2"
    },
    {
      "bufferView" : 9,
      "componentType" : 5126,
      "count" : 11627,
      "type" : "VEC2"
    },
    {
      "bufferView" : 10,
      "componentType" : 5123,
      "count" : 57000,
      "type" : "SCALAR"
    },
    {
      "bufferView" : 11,
      "min" : [ -8.92949, 5.9276, -69.583 ],
      "max" : [ 8.94564, 33.8271, 44.0461 ],
      "componentType" : 5126,
      "count" : 15416,
      "type" : "VEC3"
    },
    {
      "bufferView" : 12,
      "componentType" : 5126,
      "count" : 15416,
      "type" : "VEC3"
    },
    {
      "bufferView" : 13,
      "componentType" : 5126,
      "count" : 15416,
      "type" : "VEC4"
    },
    {
      "bufferView" : 14,
      "normalized" : true,
      "componentType" : 5121,
      "count" : 15416,
      "type" : "VEC4"
    },
    {
      "bufferView" : 15,
      "componentType" : 5123,
      "count" : 15416,
      "type" : "VEC4"
    },
    {
      "bufferView" : 16,
      "normalized" : true,
      "componentType" : 5121,
      "count" : 15416,
      "type" : "VEC4"
    },
    {
      "bufferView" : 17,
      "componentType" : 5126,
      "count" : 15416,
      "type" : "VEC2"
    },
    {
      "bufferView" : 18,
      "componentType" : 5126,
      "count" : 15416,
      "type" : "VEC2"
    }
  ]
}
