{
  "asset" : {
    "generator" : "UE Viewer (umodel) build 1612-floxay",
    "version" : "2.0"
  },
  "scene" : 0,
  "scenes" : [
    {
      "nodes" : [ 0 ]
    }
  ],
  "nodes" : [
    {
      "name" : "Therizinosaurus",
      "mesh" : 0,
      "skin" : 0,
      "children" : [ 1 ]
    },
    {
      "name" : "root",
      "children" : [ 2 ],
      "translation" : [ 0, 0, -0 ],
      "rotation" : [ -0.707107, -0, 0, -0.707107 ]
    },
    {
      "name" : "c_back1",
      "children" : [ 3, 52, 57, 73 ],
      "translation" : [ 5.93245e-19, -0.420906, -1.6462 ],
      "rotation" : [ 0.169238, -0.169238, -0.686556, -0.686556 ]
    },
    {
      "name" : "c_back2",
      "children" : [ 4 ],
      "translation" : [ 0.320981, 3.02826e-17, 2.84217e-16 ],
      "rotation" : [ 2.91239e-34, 0.0472563, -6.15609e-33, -0.998883 ]
    },
    {
      "name" : "c_back3",
      "children" : [ 5 ],
      "translation" : [ 0.320979, 3.69625e-17, -0 ],
      "rotation" : [ -0, 0.0732009, -0, -0.997317 ]
    },
    {
      "name" : "c_back4",
      "children" : [ 6, 21, 36 ],
      "translation" : [ 0.387155, 3.16775e-17, 5.68434e-16 ],
      "rotation" : [ -0, 0.024002, -0, -0.999712 ]
    },
    {
      "name" : "c_neck1",
      "children" : [ 7 ],
      "translation" : [ 0.387155, 2.41585e-17, -2.84217e-16 ],
      "rotation" : [ 8.27785e-33, -0.286501, -1.53406e-32, -0.95808 ]
    },
    {
      "name" : "c_neck2",
      "children" : [ 8 ],
      "translation" : [ 0.371851, 9.05942e-18, -1.84741e-15 ],
      "rotation" : [ -1.15903e-32, -0.0579993, 1.30201e-32, -0.998317 ]
    },
    {
      "name" : "c_neck3",
      "children" : [ 9 ],
      "translation" : [ 0.354334, -1.05693e-17, -1.27898e-15 ],
      "rotation" : [ -2.45186e-32, 0.103856, -2.56024e-33, -0.994592 ]
    },
    {
      "name" : "c_head",
      "children" : [ 10, 15, 16, 17, 18, 19, 20 ],
      "translation" : [ 0.352158, -1.02931e-16, -1.27898e-15 ],
      "rotation" : [ 1.01369e-32, 0.357197, 8.00054e-33, -0.934029 ]
    },
    {
      "name" : "c_jaw",
      "children" : [ 11 ],
      "translation" : [ 0.0266108, 1.87766e-17, 0.166151 ],
      "rotation" : [ -5.92591e-33, 0.42461, -1.63933e-32, -0.905376 ]
    },
    {
      "name" : "c_tongue1",
      "children" : [ 12 ],
      "translation" : [ -0.00257344, -3.59183e-16, -0.0591095 ],
      "rotation" : [ -1.68379e-32, -0.384295, 2.36979e-32, -0.92321 ]
    },
    {
      "name" : "c_tongue2",
      "children" : [ 13 ],
      "translation" : [ 0.0956577, 1.22186e-18, -1.13687e-15 ],
      "rotation" : [ -1.33329e-32, 0.206496, 3.48489e-33, -0.978447 ]
    },
    {
      "name" : "c_tongue3",
      "children" : [ 14 ],
      "translation" : [ 0.0954448, 8.85088e-19, -5.68434e-16 ],
      "rotation" : [ -1.19037e-32, -0.0643668, 6.94358e-33, -0.997926 ]
    },
    {
      "name" : "c_tongue4",
      "translation" : [ 0.0934048, 3.5056e-19, -1.7053e-15 ],
      "rotation" : [ -5.23956e-34, -0.170033, -3.03662e-33, -0.985438 ]
    },
    {
      "name" : "l_eye",
      "translation" : [ 0.179622, -0.156472, 0.0146211 ],
      "rotation" : [ -0.0274573, -0.0248818, 0.432311, -0.900963 ]
    },
    {
      "name" : "r_eye",
      "translation" : [ 0.179622, 0.156472, 0.0146211 ],
      "rotation" : [ 0.433833, -0.900184, 0.0302267, 0.0233313 ]
    },
    {
      "name" : "r_upperEye",
      "translation" : [ 0.201196, 0.168717, -0.0138503 ],
      "rotation" : [ -0.70691, 0.70691, 0.0166607, -0.0166607 ]
    },
    {
      "name" : "r_lowerEye",
      "translation" : [ 0.193214, 0.185034, 0.0362307 ],
      "rotation" : [ -0.70691, 0.70691, 0.0166607, -0.0166607 ]
    },
    {
      "name" : "l_upperEye",
      "translation" : [ 0.201196, -0.168717, -0.0138503 ],
      "rotation" : [ 0.0166607, -0.0166607, 0.70691, -0.70691 ]
    },
    {
      "name" : "l_lowerEye",
      "translation" : [ 0.193214, -0.185034, 0.0362307 ],
      "rotation" : [ 0.0166607, -0.0166607, 0.70691, -0.70691 ]
    },
    {
      "name" : "l_scapula",
      "children" : [ 22 ],
      "translation" : [ 0.114757, -0.22304, -0.106352 ],
      "rotation" : [ -0.794693, 0.0578915, -0.602648, 0.0439014 ]
    },
    {
      "name" : "l_shoulder",
      "children" : [ 23, 35 ],
      "translation" : [ 0.371211, 0.117389, -0.0547595 ],
      "rotation" : [ -0.0607959, -0.500892, -0.0920027, -0.858456 ]
    },
    {
      "name" : "l_elbow",
      "children" : [ 24, 34 ],
      "translation" : [ 0.488158, 0, 1.13687e-15 ],
      "rotation" : [ 5.67221e-18, 0.597503, 3.88403e-17, -0.801866 ]
    },
    {
      "name" : "l_wrist",
      "children" : [ 25, 28, 31 ],
      "translation" : [ 0.382514, 7.10543e-16, 8.52651e-16 ],
      "rotation" : [ -0.853822, 0.204132, -0.0223567, 0.47835 ]
    },
    {
      "name" : "l_fingerC1",
      "children" : [ 26 ],
      "translation" : [ 0.15923, 0.0436674, 0.0110342 ],
      "rotation" : [ -0.99171, -0.0563498, 0.0812936, -0.0820127 ]
    },
    {
      "name" : "l_fingerC2",
      "children" : [ 27 ],
      "translation" : [ 0.174626, 7.10543e-16, 6.75016e-16 ],
      "rotation" : [ -0.0161668, 0.201121, 0.00669294, -0.97941 ]
    },
    {
      "name" : "l_fingerC3",
      "translation" : [ 0.297017, 0, 8.52651e-16 ],
      "rotation" : [ -3.85186e-34, 2.77556e-17, 1.38778e-17, -1 ]
    },
    {
      "name" : "l_fingerB1",
      "children" : [ 29 ],
      "translation" : [ 0.132686, -0.0110824, 0.00572136 ],
      "rotation" : [ -0.994421, 0.0579913, 0.0880038, 0.00425687 ]
    },
    {
      "name" : "l_fingerB2",
      "children" : [ 30 ],
      "translation" : [ 0.174626, 5.68434e-16, 6.39488e-16 ],
      "rotation" : [ -0.0117341, 0.127081, 0.00775031, -0.991793 ]
    },
    {
      "name" : "l_fingerB3",
      "translation" : [ 0.297017, 0, -5.68434e-16 ],
      "rotation" : [ -2.77556e-17, -2.77556e-17, 2.77556e-17, -1 ]
    },
    {
      "name" : "l_fingerA1",
      "children" : [ 32 ],
      "translation" : [ 0.103666, -0.0831016, -0.0146799 ],
      "rotation" : [ -0.974155, 0.153886, 0.0683606, 0.150556 ]
    },
    {
      "name" : "l_fingerA2",
      "children" : [ 33 ],
      "translation" : [ 0.174626, -5.68434e-16, -0 ],
      "rotation" : [ -0.00381803, 0.105998, 0.00085427, -0.994358 ]
    },
    {
      "name" : "l_fingerA3",
      "translation" : [ 0.297017, 0, 7.10543e-16 ],
      "rotation" : [ 1.38778e-17, 1.38778e-17, -2.77556e-17, -1 ]
    },
    {
      "name" : "l_forearmTwist",
      "translation" : [ 0.2448, 5.68434e-16, 4.26326e-16 ],
      "rotation" : [ 0.428364, -0, -0, -0.903606 ]
    },
    {
      "name" : "l_armTiwst",
      "translation" : [ 0.2176, 0, -8.3844e-15 ],
      "rotation" : [ -7.70372e-34, 2.77556e-17, 2.77556e-17, -1 ]
    },
    {
      "name" : "r_scapula",
      "children" : [ 37 ],
      "translation" : [ 0.114757, 0.22304, -0.106352 ],
      "rotation" : [ -0.581049, 0.0643174, 0.806398, -0.0892617 ]
    },
    {
      "name" : "r_shoulder",
      "children" : [ 38, 51 ],
      "translation" : [ -0.37595, -0.0899028, 0.0718042 ],
      "rotation" : [ -0.0855509, -0.518322, -0.0604785, -0.848744 ]
    },
    {
      "name" : "r_elbow",
      "children" : [ 39, 49, 50 ],
      "translation" : [ -0.488158, 5.79498e-07, 2.38183e-06 ],
      "rotation" : [ 4.24681e-07, 0.5975, -3.15582e-06, -0.801868 ]
    },
    {
      "name" : "r_wrist",
      "children" : [ 40, 43, 46 ],
      "translation" : [ -0.382514, -1.79599e-06, -9.70455e-07 ],
      "rotation" : [ -0.871646, 0.221885, -0.108238, 0.42342 ]
    },
    {
      "name" : "r_fingerC1",
      "children" : [ 41 ],
      "translation" : [ -0.151205, -0.0511742, -0.043602 ],
      "rotation" : [ -0.994803, -0.0760655, -0.018049, -0.0652393 ]
    },
    {
      "name" : "r_fingerC2",
      "children" : [ 42 ],
      "translation" : [ -0.174624, 1.83895e-09, 2.3821e-09 ],
      "rotation" : [ -0.0205856, 0.201051, 0.0085223, -0.979327 ]
    },
    {
      "name" : "r_fingerC3",
      "translation" : [ -0.297024, 2.84217e-16, -4.9738e-16 ],
      "rotation" : [ -2.77556e-17, -5.55111e-17, 1.54074e-33, -1 ]
    },
    {
      "name" : "r_fingerB1",
      "children" : [ 44 ],
      "translation" : [ -0.129874, 0.00431344, -0.0295854 ],
      "rotation" : [ -0.999428, 0.0254635, -0.00423512, 0.0218521 ]
    },
    {
      "name" : "r_fingerB2",
      "children" : [ 45 ],
      "translation" : [ -0.174624, 1.3392e-09, 1.83083e-09 ],
      "rotation" : [ -0.0279968, 0.128626, 0.00756045, -0.991269 ]
    },
    {
      "name" : "r_fingerB3",
      "translation" : [ -0.297024, 2.84217e-16, -0 ],
      "rotation" : [ -5.55111e-17, -0, 0, -1 ]
    },
    {
      "name" : "r_fingerA1",
      "children" : [ 47 ],
      "translation" : [ -0.110039, 0.0758861, 0.000895191 ],
      "rotation" : [ -0.976184, 0.104756, -0.0102131, 0.189703 ]
    },
    {
      "name" : "r_fingerA2",
      "children" : [ 48 ],
      "translation" : [ -0.174624, 1.96992e-09, 6.13891e-10 ],
      "rotation" : [ -0.0133621, 0.105962, 0.00298988, -0.994276 ]
    },
    {
      "name" : "r_fingerA3",
      "translation" : [ -0.297024, 5.68434e-16, -0 ],
      "rotation" : [ -1.38778e-17, -0, 0, -1 ]
    },
    {
      "name" : "transform5",
      "translation" : [ 1.42109e-16, 4.26326e-16, 8.52651e-16 ],
      "rotation" : [ 9.79608e-17, -2.28575e-16, 9.22044e-09, -1 ]
    },
    {
      "name" : "r_forearmTwist",
      "translation" : [ -0.2448, -4.51433e-09, -5.68434e-16 ],
      "rotation" : [ 0.453653, -5.5766e-17, -1.28152e-17, -0.891178 ]
    },
    {
      "name" : "r_armTiwst",
      "translation" : [ -0.2176, -1.02997e-07, -3.81084e-08 ],
      "rotation" : [ -1.49012e-08, 8.32667e-17, -1.24077e-24, -1 ]
    },
    {
      "name" : "c_tail1",
      "children" : [ 53 ],
      "translation" : [ -0.435907, -9.63824e-17, 0.0442544 ],
      "rotation" : [ 0.0868968, 6.22e-17, 0.996217, 8.42873e-18 ]
    },
    {
      "name" : "c_tail2",
      "children" : [ 54 ],
      "translation" : [ 0.459054, -1.4203e-16, -0 ],
      "rotation" : [ -2.86004e-34, -0.0928137, -3.06819e-33, -0.995683 ]
    },
    {
      "name" : "c_tail3",
      "children" : [ 55 ],
      "translation" : [ 0.435989, 2.19313e-17, -1.13687e-15 ],
      "rotation" : [ 3.59347e-34, -0.155486, 2.28301e-33, -0.987838 ]
    },
    {
      "name" : "c_tail4",
      "children" : [ 56 ],
      "translation" : [ 0.433269, -1.80935e-16, -2.84217e-16 ],
      "rotation" : [ 5.70338e-33, -0.13172, -3.86643e-33, -0.991287 ]
    },
    {
      "name" : "c_tail5",
      "translation" : [ 0.362549, -1.63135e-16, -8.52651e-16 ],
      "rotation" : [ -6.07214e-33, -0.0166846, 5.49468e-33, -0.999861 ]
    },
    {
      "name" : "l_leg",
      "children" : [ 58, 72 ],
      "translation" : [ -0.00871716, -0.326729, -0.00747437 ],
      "rotation" : [ 0.0299225, 0.704125, 0.125777, -0.698207 ]
    },
    {
      "name" : "l_knee",
      "children" : [ 59 ],
      "translation" : [ 0.740753, 1.42109e-16, -4.9738e-16 ],
      "rotation" : [ -0.898541, 4.24615e-17, -0.43889, -4.74062e-17 ]
    },
    {
      "name" : "l_ankle",
      "children" : [ 60, 63, 66, 69 ],
      "translation" : [ 0.639691, 0, 4.9738e-16 ],
      "rotation" : [ -0.877473, -0.00371481, -0.479611, -0.000272842 ]
    },
    {
      "name" : "l_toeB1",
      "children" : [ 61 ],
      "translation" : [ 0.389147, -0.0362367, -0.0213823 ],
      "rotation" : [ 0.0272842, -0.392518, 0.0300055, -0.91885 ]
    },
    {
      "name" : "l_toeB2",
      "children" : [ 62 ],
      "translation" : [ 0.1632, -1.63032e-05, -0.0124167 ],
      "rotation" : [ 0.000308386, -0.088732, 0.00803967, -0.996023 ]
    },
    {
      "name" : "l_toeB3",
      "translation" : [ 0.1632, 2.84217e-16, -0.00230887 ],
      "rotation" : [ 1.21969e-19, -0.0234368, 5.20274e-18, -0.999725 ]
    },
    {
      "name" : "l_toeA1",
      "children" : [ 64 ],
      "translation" : [ 0.392168, 0.0319416, -0.00805719 ],
      "rotation" : [ -0.036457, -0.394372, -0.091378, -0.913669 ]
    },
    {
      "name" : "l_toeA2",
      "children" : [ 65 ],
      "translation" : [ 0.1632, 0.000179076, -0.00899791 ],
      "rotation" : [ -0.000276747, -0.088706, -0.00173552, -0.996056 ]
    },
    {
      "name" : "l_toeA3",
      "translation" : [ 0.1632, 2.13163e-16, -0.00341519 ],
      "rotation" : [ 7.2419e-20, -0.0234368, 3.08913e-18, -0.999725 ]
    },
    {
      "name" : "l_toeC1",
      "children" : [ 67 ],
      "translation" : [ 0.379657, -0.121242, 0.00113011 ],
      "rotation" : [ 0.120578, -0.392868, 0.140459, -0.90077 ]
    },
    {
      "name" : "l_toeC2",
      "children" : [ 68 ],
      "translation" : [ 0.136, -5.25883e-05, 0.00513824 ],
      "rotation" : [ -0.000231151, -0.0196648, 0.00236136, -0.999804 ]
    },
    {
      "name" : "l_toeC3",
      "translation" : [ 0.1632, 4.37103e-05, 0.00461083 ],
      "rotation" : [ -2.32376e-18, -0.0234368, -2.51059e-17, -0.999725 ]
    },
    {
      "name" : "l_toeD1",
      "children" : [ 70 ],
      "translation" : [ 0.372358, 0.103669, 0.0136564 ],
      "rotation" : [ -0.157563, -0.363588, -0.224633, -0.890234 ]
    },
    {
      "name" : "l_toeD2",
      "children" : [ 71 ],
      "translation" : [ 0.1088, 0.000404579, -0.00295172 ],
      "rotation" : [ 0.0470931, -0.0706305, 0.00351808, -0.996384 ]
    },
    {
      "name" : "l_toeD3",
      "translation" : [ 0.136, 2.4869e-16, -0.00163048 ],
      "rotation" : [ 7.14027e-18, -0.0234368, 8.50861e-18, -0.999725 ]
    },
    {
      "name" : "l_legTwist",
      "translation" : [ 0.328027, 0, -7.10543e-17 ],
      "rotation" : [ -0.0152992, -2.79912e-17, -1.5186e-17, -0.999883 ]
    },
    {
      "name" : "r_leg",
      "children" : [ 74, 88 ],
      "translation" : [ -0.00871719, 0.326946, -0.0074736 ],
      "rotation" : [ 0.125295, -0.699244, -0.0286519, -0.703233 ]
    },
    {
      "name" : "r_knee",
      "children" : [ 75 ],
      "translation" : [ -0.740765, 1.18958e-07, -4.30063e-08 ],
      "rotation" : [ -0.897804, -3.47536e-17, -0.440394, 5.11548e-17 ]
    },
    {
      "name" : "r_ankle",
      "children" : [ 76, 79, 82, 85 ],
      "translation" : [ -0.63969, 9.06672e-08, 5.53773e-07 ],
      "rotation" : [ -0.879861, -0.000668821, -0.475229, 0.00101156 ]
    },
    {
      "name" : "r_toeB1",
      "children" : [ 77 ],
      "translation" : [ -0.388649, 0.0363226, 0.0232046 ],
      "rotation" : [ 0.0367139, -0.343929, 0.0526526, -0.936799 ]
    },
    {
      "name" : "r_toeB2",
      "children" : [ 78 ],
      "translation" : [ -0.1632, -0.000216636, 0.0316393 ],
      "rotation" : [ 1.03047e-05, -0.11548, -0.000914324, -0.993309 ]
    },
    {
      "name" : "r_toeB3",
      "translation" : [ -0.1632, 3.03305e-06, 0.012255 ],
      "rotation" : [ -1.1333e-18, -0.0234368, 2.5675e-17, -0.999725 ]
    },
    {
      "name" : "r_toeA1",
      "children" : [ 80 ],
      "translation" : [ -0.392214, -0.0318588, 0.0100306 ],
      "rotation" : [ -0.0680031, -0.3813, -0.0732883, -0.919029 ]
    },
    {
      "name" : "r_toeA2",
      "children" : [ 81 ],
      "translation" : [ -0.1632, -0.000294833, 0.0165793 ],
      "rotation" : [ 5.96549e-05, -0.112002, -0.00212559, -0.993706 ]
    },
    {
      "name" : "r_toeA3",
      "translation" : [ -0.1632, -1.91318e-07, 0.00338269 ],
      "rotation" : [ 6.87346e-18, -0.0234368, -2.87239e-18, -0.999725 ]
    },
    {
      "name" : "r_toeC1",
      "children" : [ 83 ],
      "translation" : [ -0.378884, 0.121231, 0.000447001 ],
      "rotation" : [ 0.138077, -0.321341, 0.134474, -0.927141 ]
    },
    {
      "name" : "r_toeC2",
      "children" : [ 84 ],
      "translation" : [ -0.136, 0.000445502, 0.0183485 ],
      "rotation" : [ 0.00011567, -0.0809228, 0.00332197, -0.996715 ]
    },
    {
      "name" : "r_toeC3",
      "translation" : [ -0.1632, 2.64719e-08, 0.00370567 ],
      "rotation" : [ 3.84456e-18, -0.0234368, 1.59605e-17, -0.999725 ]
    },
    {
      "name" : "r_toeD1",
      "children" : [ 86 ],
      "translation" : [ -0.373059, -0.10374, -0.0117607 ],
      "rotation" : [ -0.226559, -0.391506, -0.179142, -0.873672 ]
    },
    {
      "name" : "r_toeD2",
      "children" : [ 87 ],
      "translation" : [ -0.1088, 3.87004e-05, 0.00176783 ],
      "rotation" : [ 0.0134209, -0.0655827, 0.0016103, -0.997755 ]
    },
    {
      "name" : "r_toeD3",
      "translation" : [ -0.136, 2.42843e-07, 0.00163072 ],
      "rotation" : [ 1.36097e-17, -0.0234368, -1.15979e-17, -0.999725 ]
    },
    {
      "name" : "r_legTwist",
      "translation" : [ -0.328027, 2.67724e-08, 9.84034e-08 ],
      "rotation" : [ -0.0143308, -2.77279e-17, 2.1323e-18, -0.999897 ]
    }
  ],
  "skins" : [
    {
      "inverseBindMatrices" : 0,
      "skeleton" : 1,
      "joints" : [
        1,2,3,4,5,6,7,8,9,10,11,12,13,14,15,16,17,18,19,20,21,22,23,24,25,26,27,28,29,30,31,32,
        33,34,35,36,37,38,39,40,41,42,43,44,45,46,47,48,49,50,51,52,53,54,55,56,57,58,59,60,61,62,63,64,
        65,66,67,68,69,70,71,72,73,74,75,76,77,78,79,80,81,82,83,84,85,86,87,88
      ]
    }
  ],
  "materials" : [
    {
      "name" : "dummy_material_0",
      "pbrMetallicRoughness" : {
        "baseColorFactor" : [ 0.3, 0.3, 0.3, 1.0 ],
        "metallicFactor" : 0.1,
        "roughnessFactor" : 0.5
      }
    },
    {
      "name" : "dummy_material_1",
      "pbrMetallicRoughness" : {
        "baseColorFactor" : [ 0.9, 0.3, 0.3, 1.0 ],
        "metallicFactor" : 0.1,
        "roughnessFactor" : 0.5
      }
    }
  ],
  "meshes" : [
    {
      "primitives" : [
        {
          "attributes" : {
            "POSITION" : 2,
            "NORMAL" : 3,
            "TANGENT" : 4,
            "COLOR_0" : 5,
            "JOINTS_0" : 6,
            "WEIGHTS_0" : 7,
            "TEXCOORD_0" : 8,
            "TEXCOORD_1" : 9,
            "TEXCOORD_2" : 10
          },
          "indices" : 1,
          "material" : 0
        },
        {
          "attributes" : {
            "POSITION" : 12,
            "NORMAL" : 13,
            "TANGENT" : 14,
            "COLOR_0" : 15,
            "JOINTS_0" : 16,
            "WEIGHTS_0" : 17,
            "TEXCOORD_0" : 18,
            "TEXCOORD_1" : 19,
            "TEXCOORD_2" : 20
          },
          "indices" : 11,
          "material" : 1
        }
      ],
      "name" : "Therizinosaurus"
    }
  ],
  "buffers" : [
    {
      "uri" : "Therizinosaurus.bin",
      "byteLength" : 2133204
    }
  ],
  "bufferViews" : [
    {
      "buffer" : 0,
      "byteOffset" : 0,
      "byteLength" : 5632
    },
    {
      "buffer" : 0,
      "byteOffset" : 5632,
      "byteLength" : 135564
    },
    {
      "buffer" : 0,
      "byteOffset" : 141196,
      "byteLength" : 158328
    },
    {
      "buffer" : 0,
      "byteOffset" : 299524,
      "byteLength" : 158328
    },
    {
      "buffer" : 0,
      "byteOffset" : 457852,
      "byteLength" : 211104
    },
    {
      "buffer" : 0,
      "byteOffset" : 668956,
      "byteLength" : 52776
    },
    {
      "buffer" : 0,
      "byteOffset" : 721732,
      "byteLength" : 105552
    },
    {
      "buffer" : 0,
      "byteOffset" : 827284,
      "byteLength" : 52776
    },
    {
      "buffer" : 0,
      "byteOffset" : 880060,
      "byteLength" : 105552
    },
    {
      "buffer" : 0,
      "byteOffset" : 985612,
      "byteLength" : 105552
    },
    {
      "buffer" : 0,
      "byteOffset" : 1091164,
      "byteLength" : 105552
    },
    {
      "buffer" : 0,
      "byteOffset" : 1196716,
      "byteLength" : 40488
    },
    {
      "buffer" : 0,
      "byteOffset" : 1237204,
      "byteLength" : 134400
    },
    {
      "buffer" : 0,
      "byteOffset" : 1371604,
      "byteLength" : 134400
    },
    {
      "buffer" : 0,
      "byteOffset" : 1506004,
      "byteLength" : 179200
    },
    {
      "buffer" : 0,
      "byteOffset" : 1685204,
      "byteLength" : 44800
    },
    {
      "buffer" : 0,
      "byteOffset" : 1730004,
      "byteLength" : 89600
    },
    {
      "buffer" : 0,
      "byteOffset" : 1819604,
      "byteLength" : 44800
    },
    {
      "buffer" : 0,
      "byteOffset" : 1864404,
      "byteLength" : 89600
    },
    {
      "buffer" : 0,
      "byteOffset" : 1954004,
      "byteLength" : 89600
    },
    {
      "buffer" : 0,
      "byteOffset" : 2043604,
      "byteLength" : 89600
    }
  ],
  "accessors" : [
    {
      "bufferView" : 0,
      "componentType" : 5126,
      "count" : 88,
      "type" : "MAT4"
    },
    {
      "bufferView" : 1,
      "componentType" : 5123,
      "count" : 67782,
      "type" : "SCALAR"
    },
    {
      "bufferView" : 2,
      "min" : [ -0.703531, -0.0209652, -2.36166 ],
      "max" : [ 0.703531, 3.01128, 2.1869 ],
      "componentType" : 5126,
      "count" : 13194,
      "type" : "VEC3"
    },
    {
      "bufferView" : 3,
      "componentType" : 5126,
      "count" : 13194,
      "type" : "VEC3"
    },
    {
      "bufferView" : 4,
      "componentType" : 5126,
      "count" : 13194,
      "type" : "VEC4"
    },
    {
      "bufferView" : 5,
      "normalized" : true,
      "componentType" : 5121,
      "count" : 13194,
      "type" : "VEC4"
    },
    {
      "bufferView" : 6,
      "componentType" : 5123,
      "count" : 13194,
      "type" : "VEC4"
    },
    {
      "bufferView" : 7,
      "normalized" : true,
      "componentType" : 5121,
      "count" : 13194,
      "type" : "VEC4"
    },
    {
      "bufferView" : 8,
      "componentType" : 5126,
      "count" : 13194,
      "type" : "VEC2"
    },
    {
      "bufferView" : 9,
      "componentType" : 5126,
      "count" : 13194,
      "type" : "VEC2"
    },
    {
      "bufferView" : 10,
      "componentType" : 5126,
      "count" : 13194,
      "type" : "VEC2"
    },
    {
      "bufferView" : 11,
      "componentType" : 5123,
      "count" : 20244,
      "type" : "SCALAR"
    },
    {
      "bufferView" : 12,
      "min" : [ -0.691305, 0.44673, -2.65286 ],
      "max" : [ 0.683341, 3.10289, 2.08274 ],
      "componentType" : 5126,
      "count" : 11200,
      "type" : "VEC3"
    },
    {
      "bufferView" : 13,
      "componentType" : 5126,
      "count" : 11200,
      "type" : "VEC3"
    },
    {
      "bufferView" : 14,
      "componentType" : 5126,
      "count" : 11200,
      "type" : "VEC4"
    },
    {
      "bufferView" : 15,
      "normalized" : true,
      "componentType" : 5121,
      "count" : 11200,
      "type" : "VEC4"
    },
    {
      "bufferView" : 16,
      "componentType" : 5123,
      "count" : 11200,
      "type" : "VEC4"
    },
    {
      "bufferView" : 17,
      "normalized" : true,
      "componentType" : 5121,
      "count" : 11200,
      "type" : "VEC4"
    },
    {
      "bufferView" : 18,
      "componentType" : 5126,
      "count" : 11200,
      "type" : "VEC2"
    },
    {
      "bufferView" : 19,
      "componentType" : 5126,
      "count" : 11200,
      "type" : "VEC2"
    },
    {
      "bufferView" : 20,
      "componentType" : 5126,
      "count" : 11200,
      "type" : "VEC2"
    }
  ]
}
