{
  "asset" : {
    "generator" : "UE Viewer (umodel) build 1612-floxay",
    "version" : "2.0"
  },
  "scene" : 0,
  "scenes" : [
    {
      "nodes" : [ 0 ]
    }
  ],
  "nodes" : [
    {
      "name" : "Megalodon",
      "mesh" : 0,
      "skin" : 0,
      "children" : [ 1 ]
    },
    {
      "name" : "root",
      "children" : [ 2 ],
      "translation" : [ 0, 0, -0 ],
      "rotation" : [ -0.707107, -0, 0, -0.707107 ]
    },
    {
      "name" : "c_back1",
      "children" : [ 3, 19, 23, 26 ],
      "translation" : [ -3.40805e-12, 3.59579, -0.170911 ],
      "rotation" : [ -5.63982e-14, 5.63982e-14, 0.707107, -0.707107 ]
    },
    {
      "name" : "c_back2",
      "children" : [ 4, 17 ],
      "translation" : [ 2.05328, -1.09364e-06, 1.09e-06 ],
      "rotation" : [ -0, -0, 2.64698e-23, -1 ]
    },
    {
      "name" : "c_back3",
      "children" : [ 5, 13, 15 ],
      "translation" : [ 2.05328, -1.09364e-06, 1.09e-06 ],
      "rotation" : [ -0, -0, 2.64698e-23, -1 ]
    },
    {
      "name" : "c_back4",
      "children" : [ 6 ],
      "translation" : [ 2.05328, -1.09364e-06, 1.1e-06 ],
      "rotation" : [ -0, -0, 2.64698e-23, -1 ]
    },
    {
      "name" : "c_realTail",
      "children" : [ 7, 10 ],
      "translation" : [ 2.05328, -1.09365e-06, 1.09e-06 ],
      "rotation" : [ -0, -0, 2.64698e-23, -1 ]
    },
    {
      "name" : "c_realTailC1",
      "children" : [ 8 ],
      "translation" : [ 0.460724, -2.45391e-07, 0.568222 ],
      "rotation" : [ 7.36089e-08, 0.368529, 1.85679e-07, -0.929616 ]
    },
    {
      "name" : "c_realTailC2",
      "children" : [ 9 ],
      "translation" : [ 0.62978, -2.80882e-17, -2.53368e-06 ],
      "rotation" : [ 2.45288e-33, -0.0163646, -1.00204e-18, -0.999866 ]
    },
    {
      "name" : "c_realTailC3",
      "translation" : [ 0.629777, -2.89376e-17, -0 ],
      "rotation" : [ -3.08149e-33, -0, 0, -1 ]
    },
    {
      "name" : "c_realTailA1",
      "children" : [ 11 ],
      "translation" : [ 0.410464, -2.18622e-07, -0.667723 ],
      "rotation" : [ -1.46445e-07, -0.485764, 2.02053e-07, -0.87409 ]
    },
    {
      "name" : "c_realTailA2",
      "children" : [ 12 ],
      "translation" : [ 0.883579, 1.75624e-16, -2.30542e-06 ],
      "rotation" : [ -9.08349e-14, 0.117816, 1.25668e-14, -0.993035 ]
    },
    {
      "name" : "c_realTailA3",
      "translation" : [ 0.88358, -1.57579e-17, 3.76751e-06 ],
      "rotation" : [ -1.1348e-14, 0.139566, 6.57016e-16, -0.990213 ]
    },
    {
      "name" : "l_bellyFlipper1",
      "children" : [ 14 ],
      "translation" : [ 0.0889635, 0.651202, 1.29233 ],
      "rotation" : [ -0.398225, 0.137679, -0.533921, -0.733069 ]
    },
    {
      "name" : "l_bellyFlipper2",
      "translation" : [ 0.485114, 0, 7.10543e-17 ],
      "rotation" : [ 2.77556e-17, -0, -0, -1 ]
    },
    {
      "name" : "r_bellyFlipper1",
      "children" : [ 16 ],
      "translation" : [ 0.0889634, -0.651203, 1.29233 ],
      "rotation" : [ -0.533918, -0.733068, 0.39823, -0.137679 ]
    },
    {
      "name" : "r_bellyFlipper2",
      "translation" : [ -0.485114, -2.9e-07, 4.47e-06 ],
      "rotation" : [ 7.70372e-34, 2.77556e-17, -2.77556e-17, -1 ]
    },
    {
      "name" : "c_BackFlipperA1",
      "children" : [ 18 ],
      "translation" : [ 0.237974, -1.26752e-07, -1.28993 ],
      "rotation" : [ -1.78294e-07, -0.640874, 1.9531e-07, -0.767646 ]
    },
    {
      "name" : "c_BackFlipperA2",
      "translation" : [ 0.794066, 4.05046e-17, -1.60667e-06 ],
      "rotation" : [ -4.33378e-14, 0.028445, -1.04722e-14, -0.999595 ]
    },
    {
      "name" : "c_head",
      "children" : [ 20, 21, 22 ],
      "translation" : [ -0.992592, 5.28692e-07, 0.0072074 ],
      "rotation" : [ 0.00447736, -5.83279e-10, 0.99999, 2.59339e-07 ]
    },
    {
      "name" : "c_jaw",
      "translation" : [ -0.151271, -0.00853408, 0.460403 ],
      "rotation" : [ 4.27967e-11, 0.198513, -8.85941e-12, -0.980098 ]
    },
    {
      "name" : "l_eye",
      "translation" : [ 1.09128, -0.774754, -0.217742 ],
      "rotation" : [ -0.00595966, -0.0131639, 0.542439, -0.839971 ]
    },
    {
      "name" : "r_eye",
      "translation" : [ 1.0913, 0.774755, -0.21488 ],
      "rotation" : [ 0.542439, -0.839971, 0.00595952, 0.0131641 ]
    },
    {
      "name" : "r_sideFlipper1",
      "children" : [ 24 ],
      "translation" : [ 0.562174, -1.53432, 0.998903 ],
      "rotation" : [ -0.472112, -0.836063, 0.245567, -0.133439 ]
    },
    {
      "name" : "r_sideFlipper2",
      "children" : [ 25 ],
      "translation" : [ -0.962492, 3.65e-06, 1.08999e-07 ],
      "rotation" : [ -7.31125e-08, 0.0117428, -1.21711e-09, -0.999931 ]
    },
    {
      "name" : "r_sideFlipper3",
      "translation" : [ -1.15089, -1.11e-06, -5.35274e-07 ],
      "rotation" : [ 1.07527e-07, 0.0567538, -3.91967e-09, -0.998388 ]
    },
    {
      "name" : "l_sideFlipper1",
      "children" : [ 27 ],
      "translation" : [ 0.562176, 1.53432, 0.998905 ],
      "rotation" : [ -0.245574, 0.133438, -0.472109, -0.836062 ]
    },
    {
      "name" : "l_sideFlipper2",
      "children" : [ 28 ],
      "translation" : [ 0.962495, -3.62e-06, 5.14455e-07 ],
      "rotation" : [ -2.02047e-07, 0.0117429, 8.29036e-10, -0.999931 ]
    },
    {
      "name" : "l_sideFlipper3",
      "translation" : [ 1.15088, 5.19e-06, -2.4907e-07 ],
      "rotation" : [ 9.35506e-08, 0.0567539, -2.14303e-09, -0.998388 ]
    }
  ],
  "skins" : [
    {
      "inverseBindMatrices" : 0,
      "skeleton" : 1,
      "joints" : [
        1,2,3,4,5,6,7,8,9,10,11,12,13,14,15,16,17,18,19,20,21,22,23,24,25,26,27,28
      ]
    }
  ],
  "materials" : [
    {
      "name" : "dummy_material_0",
      "pbrMetallicRoughness" : {
        "baseColorFactor" : [ 0.3, 0.3, 0.3, 1.0 ],
        "metallicFactor" : 0.1,
        "roughnessFactor" : 0.5
      }
    }
  ],
  "meshes" : [
    {
      "primitives" : [
        {
          "attributes" : {
            "POSITION" : 2,
            "NORMAL" : 3,
            "TANGENT" : 4,
            "COLOR_0" : 5,
            "JOINTS_0" : 6,
            "WEIGHTS_0" : 7,
            "TEXCOORD_0" : 8,
            "TEXCOORD_1" : 9
          },
          "indices" : 1,
          "material" : 0
        }
      ],
      "name" : "Megalodon"
    }
  ],
  "buffers" : [
    {
      "uri" : "Megalodon.bin",
      "byteLength" : 1267912
    }
  ],
  "bufferViews" : [
    {
      "buffer" : 0,
      "byteOffset" : 0,
      "byteLength" : 1792
    },
    {
      "buffer" : 0,
      "byteOffset" : 1792,
      "byteLength" : 162144
    },
    {
      "buffer" : 0,
      "byteOffset" : 163936,
      "byteLength" : 183996
    },
    {
      "buffer" : 0,
      "byteOffset" : 347932,
      "byteLength" : 183996
    },
    {
      "buffer" : 0,
      "byteOffset" : 531928,
      "byteLength" : 245328
    },
    {
      "buffer" : 0,
      "byteOffset" : 777256,
      "byteLength" : 61332
    },
    {
      "buffer" : 0,
      "byteOffset" : 838588,
      "byteLength" : 122664
    },
    {
      "buffer" : 0,
      "byteOffset" : 961252,
      "byteLength" : 61332
    },
    {
      "buffer" : 0,
      "byteOffset" : 1022584,
      "byteLength" : 122664
    },
    {
      "buffer" : 0,
      "byteOffset" : 1145248,
      "byteLength" : 122664
    }
  ],
  "accessors" : [
    {
      "bufferView" : 0,
      "componentType" : 5126,
      "count" : 28,
      "type" : "MAT4"
    },
    {
      "bufferView" : 1,
      "componentType" : 5123,
      "count" : 81072,
      "type" : "SCALAR"
    },
    {
      "bufferView" : 2,
      "min" : [ -3.56336, -2.15944, -6.81389 ],
      "max" : [ 3.56336, 3.07329, 6.93491 ],
      "componentType" : 5126,
      "count" : 15333,
      "type" : "VEC3"
    },
    {
      "bufferView" : 3,
      "componentType" : 5126,
      "count" : 15333,
      "type" : "VEC3"
    },
    {
      "bufferView" : 4,
      "componentType" : 5126,
      "count" : 15333,
      "type" : "VEC4"
    },
    {
      "bufferView" : 5,
      "normalized" : true,
      "componentType" : 5121,
      "count" : 15333,
      "type" : "VEC4"
    },
    {
      "bufferView" : 6,
      "componentType" : 5123,
      "count" : 15333,
      "type" : "VEC4"
    },
    {
      "bufferView" : 7,
      "normalized" : true,
      "componentType" : 5121,
      "count" : 15333,
      "type" : "VEC4"
    },
    {
      "bufferView" : 8,
      "componentType" : 5126,
      "count" : 15333,
      "type" : "VEC2"
    },
    {
      "bufferView" : 9,
      "componentType" : 5126,
      "count" : 15333,
      "type" : "VEC2"
    }
  ]
}
