{
  "asset" : {
    "generator" : "UE Viewer (umodel) build 1612-floxay",
    "version" : "2.0"
  },
  "scene" : 0,
  "scenes" : [
    {
      "nodes" : [ 0 ]
    }
  ],
  "nodes" : [
    {
      "name" : "Mosasaurus",
      "mesh" : 0,
      "skin" : 0,
      "children" : [ 1 ]
    },
    {
      "name" : "root",
      "children" : [ 2 ],
      "translation" : [ 0, 0, -0 ],
      "rotation" : [ -0.707107, -0, 0, -0.707107 ]
    },
    {
      "name" : "c_back2",
      "children" : [ 3, 15 ],
      "translation" : [ -8.73635e-16, 0.253127, -0.170911 ],
      "rotation" : [ 0, -0, 0.707107, -0.707107 ]
    },
    {
      "name" : "c_back3",
      "children" : [ 4 ],
      "translation" : [ 1.35681, -6.34682e-16, 1.27898e-15 ],
      "rotation" : [ -0, -0, 0, -1 ]
    },
    {
      "name" : "c_back4",
      "children" : [ 5, 11, 13 ],
      "translation" : [ 1.35681, -7.44917e-16, 1.38556e-15 ],
      "rotation" : [ -0, -0, 0, -1 ]
    },
    {
      "name" : "c_Tail",
      "children" : [ 6 ],
      "translation" : [ 1.35684, -7.01491e-16, -3.65929e-15 ],
      "rotation" : [ -4.81482e-35, -0.00163158, 7.85578e-38, -0.999999 ]
    },
    {
      "name" : "c_Tail1",
      "children" : [ 7 ],
      "translation" : [ 1.85874, 2.56386e-15, 1.24345e-16 ],
      "rotation" : [ -0, -0.00227231, 0, -0.999997 ]
    },
    {
      "name" : "c_Tail2",
      "children" : [ 8 ],
      "translation" : [ 1.85862, 3.02923e-30, 1.77636e-17 ],
      "rotation" : [ -1.92585e-34, 0.00910581, -1.75372e-36, -0.999959 ]
    },
    {
      "name" : "c_Tail3",
      "children" : [ 9 ],
      "translation" : [ 1.85862, -5.04871e-31, -3.55271e-17 ],
      "rotation" : [ -4.88999e-36, 0.000396723, 1.2326e-32, -1 ]
    },
    {
      "name" : "c_Tail4",
      "children" : [ 10 ],
      "translation" : [ 1.85862, 5.04871e-31, 3.55271e-17 ],
      "rotation" : [ -3.85158e-34, -0.0119827, 4.61558e-36, -0.999928 ]
    },
    {
      "name" : "c_Tail5",
      "translation" : [ 1.85852, 1.00974e-30, 1.06581e-16 ],
      "rotation" : [ -3.13989e-38, 0, 4.91812e-36, -1 ]
    },
    {
      "name" : "r_bellyFlipper1",
      "children" : [ 12 ],
      "translation" : [ -0.45469, -1.22412, 0.367492 ],
      "rotation" : [ -0.533918, -0.733068, 0.39823, -0.137678 ]
    },
    {
      "name" : "r_bellyFlipper2",
      "translation" : [ -1.09376, -2.87344e-07, 4.47287e-06 ],
      "rotation" : [ 2.77556e-17, 2.77556e-17, 7.70372e-34, -1 ]
    },
    {
      "name" : "l_bellyFlipper1",
      "children" : [ 14 ],
      "translation" : [ -0.45469, 1.22414, 0.367492 ],
      "rotation" : [ -0.398225, 0.137679, -0.533921, -0.733069 ]
    },
    {
      "name" : "l_bellyFlipper2",
      "translation" : [ 1.09376, -8.52651e-16, -1.35003e-15 ],
      "rotation" : [ 2.77556e-17, -2.77556e-17, -7.70372e-34, -1 ]
    },
    {
      "name" : "c_back1",
      "children" : [ 16, 19, 22 ],
      "translation" : [ -1.35681, 3.34043e-16, -1.27898e-15 ],
      "rotation" : [ -0, -0, 0, -1 ]
    },
    {
      "name" : "r_sideFlipper1",
      "children" : [ 17 ],
      "translation" : [ 0.115541, -1.20854, 0.750602 ],
      "rotation" : [ -0.600213, -0.618713, 0.495627, -0.106268 ]
    },
    {
      "name" : "r_sideFlipper2",
      "children" : [ 18 ],
      "translation" : [ -0.962493, 3.62193e-06, 5.06587e-07 ],
      "rotation" : [ -1.29039e-08, 0.0117428, -1.51538e-10, -0.999931 ]
    },
    {
      "name" : "r_sideFlipper3",
      "translation" : [ -0.962255, -1.12632e-06, 5.24297e-07 ],
      "rotation" : [ -1.51781e-08, 0.0567538, -8.62803e-10, -0.998388 ]
    },
    {
      "name" : "l_sideFlipper1",
      "children" : [ 20 ],
      "translation" : [ 0.115541, 1.20854, 0.750602 ],
      "rotation" : [ -0.495633, 0.106269, -0.60021, -0.61871 ]
    },
    {
      "name" : "l_sideFlipper2",
      "children" : [ 21 ],
      "translation" : [ 0.962493, -3.62193e-06, -5.06587e-07 ],
      "rotation" : [ 1.42028e-17, 0.0117428, -2.75907e-17, -0.999931 ]
    },
    {
      "name" : "l_sideFlipper3",
      "translation" : [ 0.962255, 5.36727e-06, -5.01424e-07 ],
      "rotation" : [ -2.34398e-08, 0.0567538, -1.33245e-09, -0.998388 ]
    },
    {
      "name" : "c_neck",
      "children" : [ 23 ],
      "translation" : [ -0.205674, 1.6726e-15, 0.000160868 ],
      "rotation" : [ 0.00447748, -0.00040683, 0.99999, 1.82159e-06 ]
    },
    {
      "name" : "c_head",
      "children" : [ 24, 29, 30 ],
      "translation" : [ 1.68871, 1.51166e-15, -9.23706e-16 ],
      "rotation" : [ -0.000406835, -7.22719e-07, -2.94027e-10, -1 ]
    },
    {
      "name" : "c_jaw",
      "children" : [ 25 ],
      "translation" : [ 0.253297, -0.00826739, 0.195975 ],
      "rotation" : [ 4.38932e-33, 0.198513, -3.23755e-33, -0.980098 ]
    },
    {
      "name" : "c_tongue1",
      "children" : [ 26 ],
      "translation" : [ 0.595661, 0.00186291, 0.121025 ],
      "rotation" : [ 0.000391592, -0.850544, 0.000208557, -0.525904 ]
    },
    {
      "name" : "c_tongue2",
      "children" : [ 27 ],
      "translation" : [ 5.55644e-13, -1.22268e-09, 0.285261 ],
      "rotation" : [ -5.84259e-10, 0.17631, 6.67035e-11, -0.984335 ]
    },
    {
      "name" : "c_tongue3",
      "children" : [ 28 ],
      "translation" : [ -4.27747e-14, -1.9984e-17, 0.285261 ],
      "rotation" : [ -3.16261e-20, -0.0419194, -1.07189e-19, -0.999121 ]
    },
    {
      "name" : "c_tongue4",
      "translation" : [ -3.73745e-14, 6.32827e-17, 0.285261 ],
      "rotation" : [ -1.35525e-20, 1.38778e-17, -5.42101e-20, -1 ]
    },
    {
      "name" : "l_eye",
      "translation" : [ 1.1068, -0.511217, -0.107221 ],
      "rotation" : [ -0.00595962, -0.0131639, 0.54244, -0.83997 ]
    },
    {
      "name" : "r_eye",
      "translation" : [ 1.1068, 0.511217, -0.107221 ],
      "rotation" : [ 0.54244, -0.83997, 0.00595962, 0.0131639 ]
    }
  ],
  "skins" : [
    {
      "inverseBindMatrices" : 0,
      "skeleton" : 1,
      "joints" : [
        1,2,3,4,5,6,7,8,9,10,11,12,13,14,15,16,17,18,19,20,21,22,23,24,25,26,27,28,29,30
      ]
    }
  ],
  "materials" : [
    {
      "name" : "dummy_material_0",
      "pbrMetallicRoughness" : {
        "baseColorFactor" : [ 0.3, 0.3, 0.3, 1.0 ],
        "metallicFactor" : 0.1,
        "roughnessFactor" : 0.5
      }
    }
  ],
  "meshes" : [
    {
      "primitives" : [
        {
          "attributes" : {
            "POSITION" : 2,
            "NORMAL" : 3,
            "TANGENT" : 4,
            "COLOR_0" : 5,
            "JOINTS_0" : 6,
            "WEIGHTS_0" : 7,
            "TEXCOORD_0" : 8,
            "TEXCOORD_1" : 9
          },
          "indices" : 1,
          "material" : 0
        }
      ],
      "name" : "Mosasaurus"
    }
  ],
  "buffers" : [
    {
      "uri" : "Mosasaurus.bin",
      "byteLength" : 1413660
    }
  ],
  "bufferViews" : [
    {
      "buffer" : 0,
      "byteOffset" : 0,
      "byteLength" : 1920
    },
    {
      "buffer" : 0,
      "byteOffset" : 1920,
      "byteLength" : 178020
    },
    {
      "buffer" : 0,
      "byteOffset" : 179940,
      "byteLength" : 205620
    },
    {
      "buffer" : 0,
      "byteOffset" : 385560,
      "byteLength" : 205620
    },
    {
      "buffer" : 0,
      "byteOffset" : 591180,
      "byteLength" : 274160
    },
    {
      "buffer" : 0,
      "byteOffset" : 865340,
      "byteLength" : 68540
    },
    {
      "buffer" : 0,
      "byteOffset" : 933880,
      "byteLength" : 137080
    },
    {
      "buffer" : 0,
      "byteOffset" : 1070960,
      "byteLength" : 68540
    },
    {
      "buffer" : 0,
      "byteOffset" : 1139500,
      "byteLength" : 137080
    },
    {
      "buffer" : 0,
      "byteOffset" : 1276580,
      "byteLength" : 137080
    }
  ],
  "accessors" : [
    {
      "bufferView" : 0,
      "componentType" : 5126,
      "count" : 30,
      "type" : "MAT4"
    },
    {
      "bufferView" : 1,
      "componentType" : 5123,
      "count" : 89010,
      "type" : "SCALAR"
    },
    {
      "bufferView" : 2,
      "min" : [ -3.23664, -2.8414, -12.9586 ],
      "max" : [ 3.23664, 1.82656, 5.81136 ],
      "componentType" : 5126,
      "count" : 17135,
      "type" : "VEC3"
    },
    {
      "bufferView" : 3,
      "componentType" : 5126,
      "count" : 17135,
      "type" : "VEC3"
    },
    {
      "bufferView" : 4,
      "componentType" : 5126,
      "count" : 17135,
      "type" : "VEC4"
    },
    {
      "bufferView" : 5,
      "normalized" : true,
      "componentType" : 5121,
      "count" : 17135,
      "type" : "VEC4"
    },
    {
      "bufferView" : 6,
      "componentType" : 5123,
      "count" : 17135,
      "type" : "VEC4"
    },
    {
      "bufferView" : 7,
      "normalized" : true,
      "componentType" : 5121,
      "count" : 17135,
      "type" : "VEC4"
    },
    {
      "bufferView" : 8,
      "componentType" : 5126,
      "count" : 17135,
      "type" : "VEC2"
    },
    {
      "bufferView" : 9,
      "componentType" : 5126,
      "count" : 17135,
      "type" : "VEC2"
    }
  ]
}
